<svg width="113" height="19" viewBox="0 0 113 19" fill="none" xmlns="http://www.w3.org/2000/svg">
<path d="M0.421445 1.95019H6.74145C8.51478 1.95019 10.0614 2.29686 11.3814 2.99019C12.7014 3.67019 13.7148 4.63019 14.4214 5.87019C15.1281 7.09686 15.4814 8.5102 15.4814 10.1102C15.4814 11.7102 15.1281 13.1302 14.4214 14.3702C13.7148 15.5969 12.7014 16.5502 11.3814 17.2302C10.0614 17.9102 8.51478 18.2502 6.74145 18.2502H0.421445V1.95019ZM6.80145 15.0302C8.37478 15.0302 9.60811 14.6035 10.5014 13.7502C11.3948 12.8835 11.8414 11.6702 11.8414 10.1102C11.8414 8.5502 11.3948 7.33686 10.5014 6.4702C9.60811 5.60353 8.37478 5.1702 6.80145 5.1702H4.06145V15.0302H6.80145ZM22.6675 18.5302C21.5609 18.5302 20.5742 18.2635 19.7075 17.7302C18.8409 17.2102 18.1675 16.4835 17.6875 15.5502C17.2075 14.6169 16.9675 13.5635 16.9675 12.3902C16.9675 11.2169 17.2075 10.1635 17.6875 9.23019C18.1675 8.29686 18.8409 7.57019 19.7075 7.05019C20.5742 6.51686 21.5609 6.25019 22.6675 6.25019C24.1742 6.25019 25.2942 6.74353 26.0275 7.73019V6.53019H29.5875V18.2502H26.0275V17.0502C25.2942 18.0369 24.1742 18.5302 22.6675 18.5302ZM23.2275 15.4902C24.0942 15.4902 24.7875 15.2035 25.3075 14.6302C25.8275 14.0435 26.0875 13.2969 26.0875 12.3902C26.0875 11.4835 25.8275 10.7435 25.3075 10.1702C24.7875 9.58353 24.0942 9.2902 23.2275 9.2902C22.3875 9.2902 21.7142 9.58353 21.2075 10.1702C20.7009 10.7435 20.4475 11.4835 20.4475 12.3902C20.4475 13.2969 20.7009 14.0435 21.2075 14.6302C21.7142 15.2035 22.3875 15.4902 23.2275 15.4902ZM32.2746 6.53019H35.8346V7.73019C36.5679 6.74353 37.6612 6.25019 39.1146 6.25019C40.0212 6.25019 40.8212 6.46353 41.5146 6.8902C42.2079 7.30353 42.7412 7.90353 43.1146 8.6902C43.5012 9.47686 43.6946 10.4035 43.6946 11.4702V18.2502H40.1346V12.0702C40.1346 11.1769 39.9546 10.4969 39.5946 10.0302C39.2479 9.55019 38.7412 9.31019 38.0746 9.31019C37.3812 9.31019 36.8346 9.57019 36.4346 10.0902C36.0346 10.6102 35.8346 11.3235 35.8346 12.2302V18.2502H32.2746V6.53019ZM51.2027 18.5302C50.096 18.5302 49.1094 18.2635 48.2427 17.7302C47.376 17.2102 46.7027 16.4835 46.2227 15.5502C45.7427 14.6169 45.5027 13.5635 45.5027 12.3902C45.5027 11.2169 45.7427 10.1635 46.2227 9.23019C46.7027 8.29686 47.376 7.57019 48.2427 7.05019C49.1094 6.51686 50.096 6.25019 51.2027 6.25019C52.7094 6.25019 53.8294 6.74353 54.5627 7.73019V1.45019H58.1227V18.2502H54.5627V17.0502C53.8294 18.0369 52.7094 18.5302 51.2027 18.5302ZM51.7627 15.4902C52.6294 15.4902 53.3227 15.2035 53.8427 14.6302C54.3627 14.0435 54.6227 13.2969 54.6227 12.3902C54.6227 11.4835 54.3627 10.7435 53.8427 10.1702C53.3227 9.58353 52.6294 9.2902 51.7627 9.2902C50.9227 9.2902 50.2494 9.58353 49.7427 10.1702C49.236 10.7435 48.9827 11.4835 48.9827 12.3902C48.9827 13.2969 49.236 14.0435 49.7427 14.6302C50.2494 15.2035 50.9227 15.4902 51.7627 15.4902ZM66.3097 18.5302C65.1364 18.5302 64.0831 18.2635 63.1497 17.7302C62.2297 17.2102 61.5097 16.4835 60.9897 15.5502C60.4697 14.6169 60.2097 13.5635 60.2097 12.3902C60.2097 11.2169 60.4697 10.1635 60.9897 9.23019C61.5097 8.29686 62.2297 7.57019 63.1497 7.05019C64.0831 6.51686 65.1364 6.25019 66.3097 6.25019C67.4831 6.25019 68.5297 6.51686 69.4497 7.05019C70.3831 7.57019 71.1097 8.29686 71.6297 9.23019C72.1497 10.1635 72.4097 11.2169 72.4097 12.3902C72.4097 12.7769 72.3831 13.1569 72.3297 13.5302H63.7497C63.8831 14.2102 64.1764 14.7369 64.6297 15.1102C65.0831 15.4835 65.6431 15.6702 66.3097 15.6702C66.8164 15.6702 67.2631 15.5902 67.6497 15.4302C68.0497 15.2569 68.3231 15.0302 68.4697 14.7502H72.0497C71.8497 15.4969 71.4764 16.1502 70.9297 16.7102C70.3831 17.2835 69.7097 17.7302 68.9097 18.0502C68.1097 18.3702 67.2431 18.5302 66.3097 18.5302ZM68.9297 11.2302C68.7831 10.5235 68.4831 9.9902 68.0297 9.63019C67.5764 9.25686 67.0031 9.07019 66.3097 9.07019C65.6164 9.07019 65.0497 9.25686 64.6097 9.63019C64.1697 9.9902 63.8764 10.5235 63.7297 11.2302H68.9297ZM78.0611 18.2502H74.5011V1.45019H78.0611V18.2502ZM82.5116 0.870194C83.1383 0.870194 83.6583 1.07686 84.0716 1.49019C84.4849 1.90353 84.6916 2.42353 84.6916 3.05019C84.6916 3.67686 84.4849 4.19686 84.0716 4.6102C83.6583 5.02353 83.1383 5.23019 82.5116 5.23019C81.8849 5.23019 81.3649 5.02353 80.9516 4.6102C80.5383 4.19686 80.3316 3.67686 80.3316 3.05019C80.3316 2.42353 80.5383 1.90353 80.9516 1.49019C81.3649 1.07686 81.8849 0.870194 82.5116 0.870194ZM84.2916 18.2902H80.7316V6.53019H84.2916V18.2902ZM92.5821 6.25019C93.7687 6.25019 94.8354 6.51686 95.7821 7.05019C96.7287 7.57019 97.4687 8.29686 98.0021 9.23019C98.5354 10.1635 98.8021 11.2169 98.8021 12.3902C98.8021 13.5635 98.5354 14.6169 98.0021 15.5502C97.4687 16.4835 96.7287 17.2102 95.7821 17.7302C94.8354 18.2635 93.7687 18.5302 92.5821 18.5302C91.3954 18.5302 90.3287 18.2635 89.3821 17.7302C88.4354 17.2102 87.6954 16.4835 87.1621 15.5502C86.6287 14.6169 86.3621 13.5635 86.3621 12.3902C86.3621 11.2169 86.6287 10.1635 87.1621 9.23019C87.6954 8.29686 88.4354 7.57019 89.3821 7.05019C90.3287 6.51686 91.3954 6.25019 92.5821 6.25019ZM92.5821 9.2902C91.7554 9.2902 91.0821 9.58353 90.5621 10.1702C90.0554 10.7435 89.8021 11.4835 89.8021 12.3902C89.8021 13.2969 90.0554 14.0435 90.5621 14.6302C91.0821 15.2035 91.7554 15.4902 92.5821 15.4902C93.4087 15.4902 94.0754 15.2035 94.5821 14.6302C95.1021 14.0435 95.3621 13.2969 95.3621 12.3902C95.3621 11.4835 95.1021 10.7435 94.5821 10.1702C94.0754 9.58353 93.4087 9.2902 92.5821 9.2902ZM100.888 6.53019H104.448V7.73019C105.181 6.74353 106.275 6.25019 107.728 6.25019C108.635 6.25019 109.435 6.46353 110.128 6.8902C110.821 7.30353 111.355 7.90353 111.728 8.6902C112.115 9.47686 112.308 10.4035 112.308 11.4702V18.2502H108.748V12.0702C108.748 11.1769 108.568 10.4969 108.208 10.0302C107.861 9.55019 107.355 9.31019 106.688 9.31019C105.995 9.31019 105.448 9.57019 105.048 10.0902C104.648 10.6102 104.448 11.3235 104.448 12.2302V18.2502H100.888V6.53019Z" fill="#1A1A1A"/>
</svg>
