<svg width="53" height="30" viewBox="0 0 53 30" fill="none" xmlns="http://www.w3.org/2000/svg">
<path d="M6.85758 2.13316V12.7382H5.28258V2.13316H0.962578V0.723163H11.1626V2.13316H6.85758ZM13.1721 4.15816V5.47816C13.4021 5.08816 13.7821 4.73816 14.3121 4.42816C14.8521 4.10816 15.5021 3.94816 16.2621 3.94816C16.7521 3.94816 17.1421 3.99816 17.4321 4.09816V5.56816C17.0821 5.40816 16.6571 5.32816 16.1571 5.32816C15.5871 5.32816 15.0721 5.46816 14.6121 5.74816C14.1621 6.01816 13.8071 6.38316 13.5471 6.84316C13.2971 7.29316 13.1721 7.77816 13.1721 8.29816V12.7382H11.6271V4.15816H13.1721ZM25.131 12.7382V11.4332C24.911 11.8232 24.546 12.1732 24.036 12.4832C23.536 12.7932 22.931 12.9482 22.221 12.9482C21.551 12.9482 20.951 12.7932 20.421 12.4832C19.901 12.1732 19.496 11.7382 19.206 11.1782C18.916 10.6082 18.771 9.94316 18.771 9.18316V4.15816H20.316V8.91316C20.316 9.77316 20.511 10.4382 20.901 10.9082C21.301 11.3682 21.851 11.5982 22.551 11.5982C23.041 11.5982 23.481 11.4632 23.871 11.1932C24.261 10.9132 24.566 10.5432 24.786 10.0832C25.016 9.62316 25.131 9.12816 25.131 8.59816V4.15816H26.676V12.7382H25.131ZM32.4777 3.94816C33.1677 3.94816 33.7927 4.05816 34.3527 4.27816C34.9127 4.48816 35.3577 4.78316 35.6877 5.16316C36.0277 5.53316 36.2077 5.95816 36.2277 6.43816H34.7127C34.6827 6.07816 34.4527 5.78316 34.0227 5.55316C33.5927 5.32316 33.0627 5.20816 32.4327 5.20816C31.8127 5.20816 31.2977 5.31816 30.8877 5.53816C30.4877 5.75816 30.2877 6.02816 30.2877 6.34816C30.2877 6.71816 30.4727 7.01316 30.8427 7.23316C31.2227 7.45316 31.9177 7.63316 32.9277 7.77316C34.1777 7.94316 35.0727 8.23316 35.6127 8.64316C36.1527 9.05316 36.4227 9.60316 36.4227 10.2932C36.4227 10.8332 36.2477 11.3032 35.8977 11.7032C35.5577 12.1032 35.0927 12.4082 34.5027 12.6182C33.9127 12.8382 33.2577 12.9482 32.5377 12.9482C31.7877 12.9482 31.1277 12.8332 30.5577 12.6032C29.9877 12.3832 29.5377 12.0732 29.2077 11.6732C28.8877 11.2832 28.7077 10.8382 28.6677 10.3382H30.1827C30.2327 10.7082 30.4627 11.0282 30.8727 11.2982C31.2927 11.5582 31.8627 11.6882 32.5827 11.6882C33.2527 11.6882 33.8077 11.5682 34.2477 11.3282C34.6877 11.0782 34.9077 10.7632 34.9077 10.3832C34.9077 10.0232 34.7027 9.73816 34.2927 9.52816C33.8927 9.30816 33.1927 9.13316 32.1927 9.00316C31.0127 8.84316 30.1477 8.56316 29.5977 8.16316C29.0477 7.75316 28.7727 7.17816 28.7727 6.43816C28.7727 5.94816 28.9327 5.51316 29.2527 5.13316C29.5827 4.75316 30.0277 4.46316 30.5877 4.26316C31.1477 4.05316 31.7777 3.94816 32.4777 3.94816ZM42.7873 5.52316H40.8823V12.7382H39.3373V5.52316H37.4323V4.15816H39.3373V1.54816H40.8823V4.15816H42.7873V5.52316ZM5.55258 20.9482C6.38258 20.9482 7.13258 21.1432 7.80258 21.5332C8.47258 21.9232 8.99258 22.4632 9.36258 23.1532C9.74258 23.8332 9.93258 24.5982 9.93258 25.4482C9.93258 26.2982 9.74258 27.0682 9.36258 27.7582C8.99258 28.4382 8.47258 28.9732 7.80258 29.3632C7.13258 29.7532 6.38258 29.9482 5.55258 29.9482C4.71258 29.9482 3.95758 29.7532 3.28758 29.3632C2.62758 28.9732 2.10758 28.4382 1.72758 27.7582C1.34758 27.0682 1.15758 26.2982 1.15758 25.4482C1.15758 24.5982 1.34758 23.8332 1.72758 23.1532C2.10758 22.4632 2.62758 21.9232 3.28758 21.5332C3.95758 21.1432 4.71258 20.9482 5.55258 20.9482ZM5.55258 22.3132C4.99258 22.3132 4.49258 22.4532 4.05258 22.7332C3.62258 23.0032 3.28258 23.3782 3.03258 23.8582C2.79258 24.3282 2.67258 24.8582 2.67258 25.4482C2.67258 26.0382 2.79258 26.5732 3.03258 27.0532C3.28258 27.5232 3.62258 27.8982 4.05258 28.1782C4.49258 28.4482 4.99258 28.5832 5.55258 28.5832C6.10258 28.5832 6.59758 28.4482 7.03758 28.1782C7.47758 27.8982 7.81758 27.5232 8.05758 27.0532C8.29758 26.5732 8.41758 26.0382 8.41758 25.4482C8.41758 24.8582 8.29758 24.3282 8.05758 23.8582C7.81758 23.3782 7.47758 23.0032 7.03758 22.7332C6.59758 22.4532 6.10258 22.3132 5.55258 22.3132ZM15.9471 22.5232H14.0421V29.7382H12.4971V22.5232H10.8021V21.1582H12.4971V19.7032C12.4971 18.9732 12.6971 18.3882 13.0971 17.9482C13.5071 17.5082 14.0721 17.2882 14.7921 17.2882C15.1921 17.2882 15.5271 17.3182 15.7971 17.3782V18.6832C15.6571 18.6532 15.4121 18.6382 15.0621 18.6382C14.7421 18.6382 14.4921 18.7382 14.3121 18.9382C14.1321 19.1282 14.0421 19.3982 14.0421 19.7482V21.1582H15.9471V22.5232ZM21.6466 29.7382V17.3482H23.1916V29.7382H21.6466ZM29.5614 20.9482C30.3914 20.9482 31.1414 21.1432 31.8114 21.5332C32.4814 21.9232 33.0014 22.4632 33.3714 23.1532C33.7514 23.8332 33.9414 24.5982 33.9414 25.4482C33.9414 26.2982 33.7514 27.0682 33.3714 27.7582C33.0014 28.4382 32.4814 28.9732 31.8114 29.3632C31.1414 29.7532 30.3914 29.9482 29.5614 29.9482C28.7214 29.9482 27.9664 29.7532 27.2964 29.3632C26.6364 28.9732 26.1164 28.4382 25.7364 27.7582C25.3564 27.0682 25.1664 26.2982 25.1664 25.4482C25.1664 24.5982 25.3564 23.8332 25.7364 23.1532C26.1164 22.4632 26.6364 21.9232 27.2964 21.5332C27.9664 21.1432 28.7214 20.9482 29.5614 20.9482ZM29.5614 22.3132C29.0014 22.3132 28.5014 22.4532 28.0614 22.7332C27.6314 23.0032 27.2914 23.3782 27.0414 23.8582C26.8014 24.3282 26.6814 24.8582 26.6814 25.4482C26.6814 26.0382 26.8014 26.5732 27.0414 27.0532C27.2914 27.5232 27.6314 27.8982 28.0614 28.1782C28.5014 28.4482 29.0014 28.5832 29.5614 28.5832C30.1114 28.5832 30.6064 28.4482 31.0464 28.1782C31.4864 27.8982 31.8264 27.5232 32.0664 27.0532C32.3064 26.5732 32.4264 26.0382 32.4264 25.4482C32.4264 24.8582 32.3064 24.3282 32.0664 23.8582C31.8264 23.3782 31.4864 23.0032 31.0464 22.7332C30.6064 22.4532 30.1114 22.3132 29.5614 22.3132ZM43.5144 21.1582L39.8844 29.7382H38.2494L34.6344 21.1582H36.3144L39.1194 27.9832L41.9244 21.1582H43.5144ZM48.3679 29.9482C47.5479 29.9482 46.8079 29.7532 46.1479 29.3632C45.4979 28.9732 44.9879 28.4382 44.6179 27.7582C44.2479 27.0682 44.0629 26.2982 44.0629 25.4482C44.0629 24.5982 44.2479 23.8332 44.6179 23.1532C44.9879 22.4632 45.4979 21.9232 46.1479 21.5332C46.8079 21.1432 47.5479 20.9482 48.3679 20.9482C49.1879 20.9482 49.9229 21.1432 50.5729 21.5332C51.2329 21.9232 51.7429 22.4632 52.1029 23.1532C52.4729 23.8332 52.6579 24.5982 52.6579 25.4482C52.6579 25.7282 52.6479 25.9382 52.6279 26.0782H45.6079C45.6879 26.8282 45.9779 27.4432 46.4779 27.9232C46.9879 28.4032 47.6179 28.6432 48.3679 28.6432C48.9379 28.6432 49.4379 28.5282 49.8679 28.2982C50.3079 28.0582 50.6079 27.7582 50.7679 27.3982H52.3429C52.1029 28.1482 51.6229 28.7582 50.9029 29.2282C50.1829 29.7082 49.3379 29.9482 48.3679 29.9482ZM51.1429 24.8182C51.0529 24.0582 50.7579 23.4432 50.2579 22.9732C49.7579 22.4932 49.1279 22.2532 48.3679 22.2532C47.6079 22.2532 46.9779 22.4932 46.4779 22.9732C45.9779 23.4432 45.6879 24.0582 45.6079 24.8182H51.1429Z" fill="#1A1A1A"/>
</svg>
