<svg width="323" height="467" viewBox="0 0 323 467" fill="none" xmlns="http://www.w3.org/2000/svg">
<path d="M66.1368 0.859375L70.0626 12.3633H70.2188L74.1446 0.859375H76.4688L71.3712 15H68.8907L63.8126 0.859375H66.1368ZM88.3477 0.859375H90.4962V10.1562C90.4962 13.125 88.2696 15.2344 84.8907 15.2344C81.4727 15.2344 79.2657 13.125 79.2657 10.1562V0.859375H81.4141V9.98047C81.4141 11.8945 82.7422 13.2812 84.8907 13.2812C87.0196 13.2812 88.3477 11.8945 88.3477 9.98047V0.859375ZM94.3868 15V0.859375H99.4258C102.707 0.859375 104.328 2.69531 104.328 5.29297C104.328 7.19727 103.469 8.64258 101.75 9.27734L104.875 15H102.434L99.5626 9.66797H99.4258H96.5352V15H94.3868ZM96.5352 7.8125H99.211C101.301 7.8125 102.16 6.89453 102.16 5.29297C102.16 3.69141 101.301 2.69531 99.211 2.69531H96.5352V7.8125ZM107.711 15V0.859375H116.578V2.71484H109.859V6.99219H116.109V8.82812H109.859V13.1445H116.656V15H107.711ZM129.829 7.11914V8.04199H120.908V3.64746H122.051V7.11914H129.829ZM131.206 9.81445V10.752H119.282V9.81445H131.206ZM129.902 14.9121V15.8643H120.835V12.085H121.978V14.9121H129.902ZM141.891 6.66504C141.891 8.96484 143.414 11.3232 145.26 12.2314L144.557 13.1543C143.121 12.3999 141.92 10.8618 141.349 9.05273C140.763 10.979 139.532 12.6196 138.067 13.4033L137.335 12.4805C139.239 11.543 140.748 9.03809 140.763 6.66504V4.29199H141.891V6.66504ZM147.604 3.16406V8.45215H149.786V9.44824H147.604V16.1865H146.461V3.16406H147.604ZM161.42 3.17871V6.44531H163.398V7.41211H161.42V11.0449H160.277V3.17871H161.42ZM157.699 3.98438V7.5H152.953V9.31641C155.268 9.31641 156.945 9.23584 158.974 8.8916L159.091 9.8584C156.996 10.21 155.253 10.2832 152.836 10.2832H151.825V6.5918H156.571V4.93652H151.796V3.98438H157.699ZM157.245 11.4404C159.897 11.4404 161.537 12.3193 161.537 13.8135C161.537 15.3076 159.897 16.1572 157.245 16.1572C154.55 16.1572 152.924 15.3076 152.924 13.8135C152.924 12.3193 154.55 11.4404 157.245 11.4404ZM157.245 12.3486C155.253 12.3486 154.037 12.8906 154.052 13.8135C154.037 14.7217 155.253 15.2637 157.245 15.2637C159.223 15.2637 160.424 14.7217 160.424 13.8135C160.424 12.8906 159.223 12.3486 157.245 12.3486ZM170.886 3.39844C173.786 3.39844 175.485 4.18945 175.485 5.63965C175.485 7.11914 173.786 7.91016 170.886 7.9248C167.985 7.91016 166.272 7.11914 166.272 5.63965C166.272 4.18945 167.985 3.39844 170.886 3.39844ZM170.886 4.2627C168.718 4.2627 167.458 4.79004 167.473 5.63965C167.458 6.54785 168.718 7.0459 170.886 7.0459C173.039 7.0459 174.314 6.54785 174.314 5.63965C174.314 4.79004 173.039 4.2627 170.886 4.2627ZM176.818 8.80371V9.74121H164.953V8.80371H176.818ZM175.295 10.8691V13.7842H167.561V15.1318H175.69V16.04H166.418V12.9346H174.167V11.748H166.389V10.8691H175.295ZM187.869 5.58105C187.869 7.33887 189.261 8.93555 191.209 9.56543L190.623 10.459C189.107 9.94629 187.898 8.86963 187.313 7.48535C186.741 8.97217 185.518 10.144 183.973 10.708L183.372 9.81445C185.32 9.12598 186.712 7.42676 186.712 5.58105V5.02441H183.665V4.08691H190.872V5.02441H187.869V5.58105ZM193.934 3.16406V11.0449H192.791V3.16406H193.934ZM193.934 11.7334V16.1865H192.791V12.6855H185.174V11.7334H193.934ZM207.677 3.16406V10.2393H206.534V7.29492H203.898V6.32812H206.534V3.16406H207.677ZM200.455 10.8691V12.4951H206.534V10.8691H207.677V16.0107H199.298V10.8691H200.455ZM200.455 15.0732H206.534V13.418H200.455V15.0732ZM201.422 5.28809C201.422 6.95801 202.726 8.59863 204.63 9.25781L204.029 10.1514C202.557 9.6167 201.422 8.52539 200.865 7.17773C200.301 8.68652 199.1 9.89502 197.555 10.459L196.954 9.55078C198.873 8.8623 200.265 7.13379 200.265 5.28809V4.90723H197.32V3.95508H204.337V4.90723H201.422V5.28809ZM225.305 3.16406V5.99121H227.268V6.95801H225.305V9.7998H224.162V3.16406H225.305ZM221.701 3.91113V9.11133H215.681V3.91113H221.701ZM216.809 4.84863V8.18848H220.588V4.84863H216.809ZM225.305 10.415V13.5938H218.156V15.0879H225.788V16.0107H217.028V12.7148H224.162V11.3379H216.999V10.415H225.305ZM238.916 3.16406V8.54004H241.099V9.49219H238.916V16.1865H237.773V3.16406H238.916ZM236.514 5.25879V6.21094H228.765V5.25879H232.119V3.3252H233.262V5.25879H236.514ZM232.705 7.29492C234.551 7.29492 235.884 8.52539 235.898 10.2832C235.884 12.041 234.551 13.2715 232.705 13.2715C230.845 13.2715 229.497 12.041 229.512 10.2832C229.497 8.52539 230.845 7.29492 232.705 7.29492ZM232.705 8.26172C231.489 8.26172 230.596 9.11133 230.61 10.2832C230.596 11.4697 231.489 12.3047 232.705 12.29C233.906 12.3047 234.785 11.4697 234.8 10.2832C234.785 9.11133 233.906 8.26172 232.705 8.26172ZM247.21 7.16309C247.21 9.375 248.821 11.6162 250.74 12.4512L250.096 13.3594C248.572 12.6636 247.254 11.1621 246.653 9.36035C246.038 11.272 244.727 12.9346 243.24 13.6816L242.552 12.7734C244.412 11.8799 246.038 9.41895 246.053 7.16309V5.46387H242.977V4.51172H250.315V5.46387H247.21V7.16309ZM253.289 3.16406V16.1865H252.132V3.16406H253.289ZM264.413 3.91113C266.361 3.91113 267.797 5.15625 267.797 6.91406C267.797 8.68652 266.361 9.91699 264.413 9.93164C262.465 9.91699 261.015 8.68652 261.029 6.91406C261.015 5.15625 262.465 3.91113 264.413 3.91113ZM264.413 4.87793C263.139 4.87793 262.143 5.74219 262.157 6.91406C262.143 8.11523 263.139 8.97949 264.413 8.97949C265.702 8.97949 266.669 8.11523 266.669 6.91406C266.669 5.74219 265.702 4.87793 264.413 4.87793ZM270.961 3.16406V6.1084H272.924V7.06055H270.961V9.68262H269.818V3.16406H270.961ZM263.285 11.0889V14.8828C264.04 14.8608 265.043 14.751 265.966 14.4434L266.142 15.3662C264.867 15.791 263.637 15.835 262.787 15.835H262.172V11.0889H263.285ZM272.265 11.1475V12.041H265.688V11.1475H268.427V9.99023H269.555V11.1475H272.265ZM268.969 12.4805C270.39 12.4805 271.4 13.1982 271.415 14.3262C271.4 15.4541 270.39 16.1572 268.969 16.1572C267.533 16.1572 266.537 15.4541 266.552 14.3262C266.537 13.1982 267.533 12.4805 268.969 12.4805ZM268.969 13.3154C268.163 13.3154 267.577 13.7256 267.577 14.3262C267.577 14.9414 268.163 15.3369 268.969 15.3369C269.789 15.3369 270.36 14.9414 270.36 14.3262C270.36 13.7256 269.789 13.3154 268.969 13.3154ZM277.146 10.9863V12.5098H283.649V10.9863H284.807V16.0107H276.003V10.9863H277.146ZM277.146 15.0879H283.649V13.418H277.146V15.0879ZM286.359 9.11133V10.0635H274.494V9.11133H286.359ZM281.027 3.92578C281.027 5.53711 283.4 6.97266 285.686 7.26562L285.261 8.18848C283.239 7.88818 281.262 6.85547 280.441 5.39062C279.607 6.86279 277.614 7.88818 275.607 8.18848L275.168 7.26562C277.482 6.95801 279.841 5.58105 279.841 3.92578V3.31055H281.027V3.92578ZM298.945 3.16406V16.1865H297.803V3.16406H298.945ZM290.186 4.45312V11.8359C292.17 11.8286 294.229 11.6675 296.411 11.2061L296.572 12.1875C294.258 12.6709 292.192 12.832 290.112 12.832H289.058V4.45312H290.186ZM312 3.16406V8.32031H314.183V9.28711H312V16.2158H310.857V3.16406H312ZM308.572 4.43848V5.39062H303.636V11.9824C305.994 11.9824 307.664 11.8726 309.598 11.5137L309.744 12.5098C307.708 12.876 305.994 12.9492 303.519 12.9492H302.493V4.43848H308.572ZM317.013 15.0879C316.5 15.0879 316.061 14.6631 316.075 14.1357C316.061 13.623 316.5 13.1982 317.013 13.1982C317.525 13.1982 317.95 13.623 317.95 14.1357C317.95 14.6631 317.525 15.0879 317.013 15.0879ZM203.353 33.1641V46.1865H202.254V39.3604H200.335V45.5127H199.28V33.457H200.335V38.4082H202.254V33.1641H203.353ZM197.581 34.7607V35.7129H193.846V41.9824C195.64 41.9751 196.885 41.9092 198.328 41.6162L198.431 42.583C196.863 42.9053 195.53 42.9639 193.538 42.9639H192.703V34.7607H197.581ZM216.686 33.1787V42.7295H215.543V33.1787H216.686ZM217.096 44.9414V45.9082H208.277V41.8506H209.42V44.9414H217.096ZM210.548 35.2148C210.533 37.1924 211.896 38.9795 213.829 39.6826L213.229 40.6055C211.72 40.0269 210.548 38.855 209.977 37.3535C209.398 38.9502 208.211 40.2319 206.695 40.8398L206.065 39.9463C208.043 39.1846 209.376 37.2656 209.376 35.2148V33.9111H210.548V35.2148ZM221.786 44.0186L220.644 48.0029H219.56L220.365 44.0186H221.786ZM239.268 33.6768V34.1895C239.268 34.9365 239.268 36.2402 238.887 37.9688L237.773 37.8223C238.074 36.3794 238.125 35.354 238.14 34.6289H234.844V33.6768H239.268ZM240.615 38.7598V39.7119H228.765V38.7598H234.375V36.5039H235.518V38.7598H240.615ZM233.76 33.6768V34.1602C233.76 34.8926 233.76 36.2109 233.159 37.9688L232.031 37.7783C232.515 36.3501 232.61 35.3394 232.632 34.6289H229.79V33.6768H233.76ZM239.048 41.5137V42.4365H235.254C235.408 43.8062 237.437 44.9561 239.59 45.2344L239.165 46.1133C237.232 45.8276 235.437 44.9341 234.668 43.6377C233.899 44.9268 232.112 45.8276 230.186 46.1133L229.775 45.2344C231.899 44.9561 233.914 43.8062 234.082 42.4365H230.288V41.5137H234.097V40.166H235.239V41.5137H239.048ZM253.626 33.1641V46.1865H252.513V33.1641H253.626ZM251.004 33.4424V45.5273H249.905V39.1992H248.235C248.111 41.7334 247.034 43.3154 245.423 43.3154C243.724 43.3154 242.625 41.5576 242.625 38.7891C242.625 36.0205 243.724 34.2627 245.423 34.2627C247.005 34.2627 248.074 35.7935 248.221 38.2471H249.905V33.4424H251.004ZM245.423 35.3467C244.368 35.3467 243.694 36.665 243.709 38.7891C243.694 40.8984 244.368 42.2314 245.423 42.2168C246.478 42.2314 247.151 40.8984 247.151 38.7891C247.151 36.665 246.478 35.3467 245.423 35.3467ZM270.873 33.1641V36.3574H272.836V37.3242H270.873V40.5615H269.731V33.1641H270.873ZM267.079 34.0576V34.9951H262.45V38.833C265.065 38.8477 266.552 38.7524 268.295 38.4082L268.441 39.3457C266.61 39.7119 265.058 39.7852 262.318 39.7852H261.308V34.0576H267.079ZM270.873 41.2354V46.0107H262.655V41.2354H270.873ZM263.783 42.1729V45.0732H269.731V42.1729H263.783ZM285.144 33.1787V42.6416H283.986V33.1787H285.144ZM281.364 34.1602C281.35 37.5293 278.918 40.0342 275.095 41.2207L274.626 40.2832C277.783 39.3237 279.841 37.4561 280.09 35.127H275.315V34.1602H281.364ZM285.495 44.9414V45.9082H276.662V41.8652H277.819V44.9414H285.495ZM303.431 33.1787V42.7734H302.273V37.749H299.549C299.293 39.353 297.945 40.4443 296.224 40.4443C294.275 40.4443 292.84 39.1113 292.84 37.2217C292.84 35.332 294.275 34.0137 296.224 34.0137C297.982 34.0137 299.351 35.1343 299.564 36.7969H302.273V33.1787H303.431ZM303.797 44.9414V45.9082H295.066V41.792H296.224V44.9414H303.797ZM296.224 35.0244C294.92 35.0391 293.939 35.9326 293.939 37.2217C293.939 38.5107 294.92 39.4336 296.224 39.4482C297.498 39.4336 298.48 38.5107 298.48 37.2217C298.48 35.9326 297.498 35.0391 296.224 35.0244ZM309.85 34.1748C311.622 34.1895 312.897 35.7056 313.087 38.1445H316.002V33.1641H317.145V46.2158H316.002V39.0967H313.102C312.962 41.6455 311.666 43.2422 309.85 43.2422C307.931 43.2422 306.583 41.4844 306.583 38.7158C306.583 35.9473 307.931 34.1895 309.85 34.1748ZM309.85 35.2002C308.561 35.2148 307.682 36.5918 307.682 38.7158C307.682 40.8398 308.561 42.2168 309.85 42.2168C311.124 42.2168 312.018 40.8398 312.018 38.7158C312.018 36.5918 311.124 35.2148 309.85 35.2002ZM322.201 44.0186L321.059 48.0029H319.975L320.78 44.0186H322.201ZM61.2159 63.6768V64.1895C61.2159 64.9365 61.2159 66.2402 60.835 67.9688L59.7217 67.8223C60.022 66.3794 60.0733 65.354 60.088 64.6289H56.7921V63.6768H61.2159ZM62.5635 68.7598V69.7119H50.713V68.7598H56.3233V66.5039H57.4659V68.7598H62.5635ZM55.7081 63.6768V64.1602C55.7081 64.8926 55.7081 66.2109 55.1075 67.9688L53.9796 67.7783C54.463 66.3501 54.5582 65.3394 54.5801 64.6289H51.7383V63.6768H55.7081ZM60.9962 71.5137V72.4365H57.2022C57.356 73.8062 59.3848 74.9561 61.5381 75.2344L61.1133 76.1133C59.1797 75.8276 57.3853 74.9341 56.6163 73.6377C55.8472 74.9268 54.0601 75.8276 52.1339 76.1133L51.7237 75.2344C53.8477 74.9561 55.8619 73.8062 56.0303 72.4365H52.2364V71.5137H56.045V70.166H57.1876V71.5137H60.9962ZM74.5928 63.1641V65.9912H76.5557V66.958H74.5928V69.7998H73.4503V63.1641H74.5928ZM70.9893 63.9111V69.1113H64.9688V63.9111H70.9893ZM66.0967 64.8486V68.1885H69.876V64.8486H66.0967ZM74.5928 70.415V73.5938H67.4444V75.0879H75.0762V76.0107H66.3165V72.7148H73.4503V71.3379H66.2872V70.415H74.5928ZM84.0587 63.3984C86.959 63.3984 88.6583 64.1895 88.6583 65.6396C88.6583 67.1191 86.959 67.9102 84.0587 67.9248C81.1583 67.9102 79.4444 67.1191 79.4444 65.6396C79.4444 64.1895 81.1583 63.3984 84.0587 63.3984ZM84.0587 64.2627C81.8907 64.2627 80.6309 64.79 80.6456 65.6396C80.6309 66.5479 81.8907 67.0459 84.0587 67.0459C86.212 67.0459 87.4864 66.5479 87.4864 65.6396C87.4864 64.79 86.212 64.2627 84.0587 64.2627ZM89.9913 68.8037V69.7412H78.126V68.8037H89.9913ZM88.4678 70.8691V73.7842H80.7335V75.1318H88.8633V76.04H79.5909V72.9346H87.3399V71.748H79.5616V70.8691H88.4678ZM108.22 70.0781V71.0156H96.3399V70.0781H101.701V68.7891H97.9219V63.5449H106.74V64.4824H99.0792V65.6982H106.389V66.5771H99.0792V67.8662H106.814V68.7891H102.844V70.0781H108.22ZM102.287 71.9971C105.144 71.9824 106.755 72.7148 106.77 74.0771C106.755 75.4395 105.144 76.1572 102.287 76.1572C99.4014 76.1572 97.7901 75.4395 97.7901 74.0771C97.7901 72.7148 99.4014 71.9824 102.287 71.9971ZM102.287 72.8613C100.134 72.8613 98.9327 73.3008 98.9473 74.0771C98.9327 74.8682 100.134 75.2783 102.287 75.2637C104.411 75.2783 105.612 74.8682 105.612 74.0771C105.612 73.3008 104.411 72.8613 102.287 72.8613ZM116.572 65.4199V66.3574H110.039V65.4199H112.749V63.5596H113.892V65.4199H116.572ZM113.306 67.2363C114.946 67.2363 116.118 68.4668 116.133 70.1953C116.118 71.9385 114.946 73.1836 113.306 73.1836C111.68 73.1836 110.508 71.9385 110.508 70.1953C110.508 68.4668 111.68 67.2363 113.306 67.2363ZM113.306 68.2031C112.28 68.2178 111.533 69.0527 111.533 70.1953C111.533 71.3525 112.28 72.1875 113.306 72.1729C114.346 72.1875 115.107 71.3525 115.107 70.1953C115.107 69.0527 114.346 68.2178 113.306 68.2031ZM121.157 63.1641V76.1865H120.059V69.6094H118.33V75.542H117.246V63.4863H118.33V68.6572H120.059V63.1641H121.157ZM132.662 66.665C132.662 68.9648 134.186 71.3232 136.031 72.2314L135.328 73.1543C133.893 72.3999 132.691 70.8618 132.12 69.0527C131.534 70.979 130.304 72.6196 128.839 73.4033L128.107 72.4805C130.011 71.543 131.52 69.0381 131.534 66.665V64.292H132.662V66.665ZM138.375 63.1641V68.4521H140.558V69.4482H138.375V76.1865H137.232V63.1641H138.375ZM152.191 63.1787V66.4453H154.169V67.4121H152.191V71.0449H151.049V63.1787H152.191ZM148.471 63.9844V67.5H143.725V69.3164C146.039 69.3164 147.716 69.2358 149.745 68.8916L149.862 69.8584C147.768 70.21 146.024 70.2832 143.607 70.2832H142.597V66.5918H147.343V64.9365H142.567V63.9844H148.471ZM148.017 71.4404C150.668 71.4404 152.309 72.3193 152.309 73.8135C152.309 75.3076 150.668 76.1572 148.017 76.1572C145.321 76.1572 143.695 75.3076 143.695 73.8135C143.695 72.3193 145.321 71.4404 148.017 71.4404ZM148.017 72.3486C146.024 72.3486 144.809 72.8906 144.823 73.8135C144.809 74.7217 146.024 75.2637 148.017 75.2637C149.994 75.2637 151.195 74.7217 151.195 73.8135C151.195 72.8906 149.994 72.3486 148.017 72.3486ZM159.987 64.1162C162.038 64.1162 163.488 65.3613 163.488 67.1777C163.488 68.9941 162.038 70.2393 159.987 70.2393C157.937 70.2393 156.457 68.9941 156.472 67.1777C156.457 65.3613 157.937 64.1162 159.987 64.1162ZM159.987 65.127C158.596 65.127 157.585 65.9619 157.6 67.1777C157.585 68.3936 158.596 69.2285 159.987 69.2285C161.364 69.2285 162.36 68.3936 162.36 67.1777C162.36 65.9619 161.364 65.127 159.987 65.127ZM166.403 63.1641V76.2158H165.261V63.1641H166.403ZM155.798 72.3633C158.2 72.3633 161.511 72.3486 164.397 71.9238L164.484 72.7734C161.511 73.3301 158.303 73.3447 155.959 73.3447L155.798 72.3633ZM184.031 63.1641V68.3203H186.214V69.2871H184.031V76.2158H182.889V63.1641H184.031ZM180.604 64.4385V65.3906H175.667V71.9824C178.025 71.9824 179.695 71.8726 181.629 71.5137L181.775 72.5098C179.739 72.876 178.025 72.9492 175.55 72.9492H174.524V64.4385H180.604ZM199.781 65.1416V66.0938H197.848V67.9102H199.781V68.877H197.848V70.8984H196.705V63.1641H197.848V65.1416H199.781ZM191.329 63.9551C193.307 63.9404 194.742 65.2002 194.757 67.0166C194.742 68.833 193.307 70.0635 191.329 70.0781C189.352 70.0635 187.901 68.833 187.916 67.0166C187.901 65.2002 189.352 63.9404 191.329 63.9551ZM191.329 64.9365C190.011 64.9219 189.029 65.7861 189.044 67.0166C189.029 68.2471 190.011 69.0967 191.329 69.1113C192.662 69.0967 193.629 68.2471 193.629 67.0166C193.629 65.7861 192.662 64.9219 191.329 64.9365ZM193.673 71.2939C196.324 71.3086 197.965 72.1875 197.965 73.7402C197.965 75.2637 196.324 76.1572 193.673 76.1572C191.007 76.1572 189.352 75.2637 189.352 73.7402C189.352 72.1875 191.007 71.3086 193.673 71.2939ZM193.673 72.2314C191.71 72.2314 190.494 72.7881 190.509 73.7402C190.494 74.6777 191.71 75.2344 193.673 75.2344C195.65 75.2344 196.852 74.6777 196.852 73.7402C196.852 72.7881 195.65 72.2314 193.673 72.2314ZM211.562 63.1787V67.4707H213.524V68.4375H211.562V72.9346H210.419V63.1787H211.562ZM209.174 64.7754V65.7129H201.41V64.7754H204.721V63.1787H205.863V64.7754H209.174ZM205.292 66.4307C207.152 66.4307 208.412 67.3828 208.427 68.8623C208.412 70.3271 207.152 71.2646 205.292 71.2646C203.417 71.2646 202.143 70.3271 202.157 68.8623C202.143 67.3828 203.417 66.4307 205.292 66.4307ZM205.292 67.3389C204.062 67.3389 203.241 67.9395 203.256 68.8623C203.241 69.7852 204.062 70.3711 205.292 70.3564C206.508 70.3711 207.328 69.7852 207.343 68.8623C207.328 67.9395 206.508 67.3389 205.292 67.3389ZM212.162 74.9414V75.9082H203.417V72.1582H204.545V74.9414H212.162ZM223.975 66.665C223.975 68.9648 225.498 71.3232 227.344 72.2314L226.641 73.1543C225.205 72.3999 224.004 70.8618 223.433 69.0527C222.847 70.979 221.616 72.6196 220.151 73.4033L219.419 72.4805C221.323 71.543 222.832 69.0381 222.847 66.665V64.292H223.975V66.665ZM229.688 63.1641V68.4521H231.87V69.4482H229.688V76.1865H228.545V63.1641H229.688ZM244.119 63.1787V72.8027H242.962V69.2871H239.593C238.992 70.0562 238.025 70.5176 236.912 70.5176C234.964 70.5176 233.528 69.1699 233.528 67.2656C233.528 65.3613 234.964 64.0137 236.912 63.999C238.018 64.0063 238.963 64.4604 239.578 65.2148H242.962V63.1787H244.119ZM244.485 74.9414V75.9082H235.755V71.792H236.912V74.9414H244.485ZM236.912 65.0244C235.579 65.0391 234.627 65.9619 234.627 67.2656C234.627 68.5693 235.579 69.4922 236.912 69.4922C238.187 69.4922 239.168 68.5693 239.168 67.2656C239.168 65.9619 238.187 65.0391 236.912 65.0244ZM240.106 66.167C240.215 66.5039 240.281 66.8701 240.281 67.2656C240.281 67.6465 240.215 68.0054 240.106 68.335H242.962V66.167H240.106ZM252.97 63.3984C255.87 63.3984 257.569 64.1895 257.569 65.6396C257.569 67.1191 255.87 67.9102 252.97 67.9248C250.069 67.9102 248.356 67.1191 248.356 65.6396C248.356 64.1895 250.069 63.3984 252.97 63.3984ZM252.97 64.2627C250.802 64.2627 249.542 64.79 249.557 65.6396C249.542 66.5479 250.802 67.0459 252.97 67.0459C255.123 67.0459 256.398 66.5479 256.398 65.6396C256.398 64.79 255.123 64.2627 252.97 64.2627ZM258.902 68.8037V69.7412H247.037V68.8037H258.902ZM257.379 70.8691V73.7842H249.645V75.1318H257.774V76.04H248.502V72.9346H256.251V71.748H248.473V70.8691H257.379ZM276.062 63.1787V72.7295H274.904V67.7344H272.224V66.7822H274.904V63.1787H276.062ZM276.428 74.9414V75.9082H267.697V71.8652H268.855V74.9414H276.428ZM269.792 65.8594C269.792 67.5439 271.096 69.1846 273 69.8291L272.399 70.752C270.927 70.2246 269.792 69.126 269.235 67.7783C268.671 69.2798 267.47 70.481 265.925 71.0596L265.324 70.1221C267.243 69.4482 268.635 67.7344 268.635 65.8594V65.1855H265.69V64.2334H272.707V65.1855H269.792V65.8594ZM289.16 63.1641V66.5039H291.123V67.4854H289.16V70.7373H288.018V63.1641H289.16ZM282.07 71.3086V72.7002H288.018V71.3086H289.16V76.0107H280.928V71.3086H282.07ZM282.07 75.0879H288.018V73.6084H282.07V75.0879ZM286.773 64.5117V65.4639H279.009V64.5117H282.319V63.0469H283.462V64.5117H286.773ZM282.891 66.0645C284.766 66.0645 286.011 66.958 286.025 68.3496C286.011 69.7412 284.766 70.6348 282.891 70.6348C281.001 70.6348 279.741 69.7412 279.756 68.3496C279.741 66.958 281.001 66.0645 282.891 66.0645ZM282.891 66.958C281.66 66.9434 280.84 67.5146 280.855 68.3496C280.84 69.1992 281.66 69.7559 282.891 69.7559C284.107 69.7559 284.927 69.1992 284.941 68.3496C284.927 67.5146 284.107 66.9434 282.891 66.958ZM303.431 63.1641V76.1865H302.288V63.1641H303.431ZM294.671 64.4531V71.8359C296.656 71.8286 298.714 71.6675 300.897 71.2061L301.058 72.1875C298.743 72.6709 296.678 72.832 294.598 72.832H293.543V64.4531H294.671ZM316.485 63.1641V68.3203H318.668V69.2871H316.485V76.2158H315.343V63.1641H316.485ZM313.058 64.4385V65.3906H308.121V71.9824C310.48 71.9824 312.149 71.8726 314.083 71.5137L314.23 72.5098C312.193 72.876 310.48 72.9492 308.004 72.9492H306.979V64.4385H313.058ZM321.498 75.0879C320.985 75.0879 320.546 74.6631 320.561 74.1357C320.546 73.623 320.985 73.1982 321.498 73.1982C322.011 73.1982 322.436 73.623 322.436 74.1357C322.436 74.6631 322.011 75.0879 321.498 75.0879ZM88.336 123.164V126.475H90.2989V127.456H88.336V130.811H87.1934V123.164H88.336ZM84.7618 123.999C84.7618 127.295 82.462 129.639 78.6094 130.664L78.1407 129.771C81.334 128.906 83.3043 127.163 83.546 124.951H78.7266V123.999H84.7618ZM88.336 131.411V136.187H87.1934V132.349H79.8106V131.411H88.336ZM101.013 126.665C100.998 129.038 102.624 131.44 104.543 132.305L103.84 133.213C102.36 132.488 101.079 130.957 100.456 129.097C99.8482 131.067 98.5665 132.708 97.043 133.477L96.3106 132.51C98.2442 131.616 99.8555 129.141 99.8702 126.665V124.292H101.013V126.665ZM107.121 123.164V136.216H105.964V123.164H107.121ZM120.85 123.164V136.216H119.707V123.164H120.85ZM116.895 124.38V129.009H112.031V132.085C114.192 132.085 116.118 131.99 118.447 131.616L118.565 132.583C116.162 132.964 114.185 133.052 111.943 133.052H110.859V128.071H115.737V125.332H110.83V124.38H116.895ZM135.735 133.491V134.458H123.812V133.491H135.735ZM130.345 126.035C130.345 128.115 132.923 129.888 135.164 130.254L134.695 131.162C132.703 130.774 130.601 129.5 129.773 127.705C128.931 129.514 126.836 130.825 124.881 131.221L124.398 130.298C126.595 129.917 129.158 128.115 129.158 126.035V125.435H124.793V124.482H134.71V125.435H130.345V126.035ZM148.058 127.119V128.042H139.137V123.647H140.279V127.119H148.058ZM149.435 129.814V130.752H137.511V129.814H149.435ZM148.131 134.912V135.864H139.064V132.085H140.206V134.912H148.131ZM165.832 123.164V128.54H168.015V129.492H165.832V136.187H164.69V123.164H165.832ZM163.43 125.259V126.211H155.681V125.259H159.035V123.325H160.178V125.259H163.43ZM159.621 127.295C161.467 127.295 162.8 128.525 162.815 130.283C162.8 132.041 161.467 133.271 159.621 133.271C157.761 133.271 156.413 132.041 156.428 130.283C156.413 128.525 157.761 127.295 159.621 127.295ZM159.621 128.262C158.405 128.262 157.512 129.111 157.526 130.283C157.512 131.47 158.405 132.305 159.621 132.29C160.822 132.305 161.701 131.47 161.716 130.283C161.701 129.111 160.822 128.262 159.621 128.262ZM181.655 128.364V129.331H179.546V136.187H178.403V123.164H179.546V128.364H181.655ZM171.152 124.453V131.909C173.057 131.902 174.998 131.755 177.144 131.309L177.29 132.29C175.049 132.744 173.027 132.876 171.05 132.876H170.01V124.453H171.152ZM187.444 124.116C189.495 124.116 190.945 125.361 190.945 127.178C190.945 128.994 189.495 130.239 187.444 130.239C185.394 130.239 183.914 128.994 183.929 127.178C183.914 125.361 185.394 124.116 187.444 124.116ZM187.444 125.127C186.053 125.127 185.042 125.962 185.057 127.178C185.042 128.394 186.053 129.229 187.444 129.229C188.821 129.229 189.817 128.394 189.817 127.178C189.817 125.962 188.821 125.127 187.444 125.127ZM193.86 123.164V136.216H192.718V123.164H193.86ZM183.255 132.363C185.657 132.363 188.968 132.349 191.854 131.924L191.941 132.773C188.968 133.33 185.76 133.345 183.416 133.345L183.255 132.363ZM211.928 123.677V124.189C211.928 124.937 211.928 126.24 211.547 127.969L210.434 127.822C210.734 126.379 210.785 125.354 210.8 124.629H207.504V123.677H211.928ZM213.275 128.76V129.712H201.425V128.76H207.035V126.504H208.178V128.76H213.275ZM206.42 123.677V124.16C206.42 124.893 206.42 126.211 205.819 127.969L204.691 127.778C205.175 126.35 205.27 125.339 205.292 124.629H202.45V123.677H206.42ZM211.708 131.514V132.437H207.914C208.068 133.806 210.097 134.956 212.25 135.234L211.825 136.113C209.892 135.828 208.097 134.934 207.328 133.638C206.559 134.927 204.772 135.828 202.846 136.113L202.436 135.234C204.56 134.956 206.574 133.806 206.742 132.437H202.948V131.514H206.757V130.166H207.899V131.514H211.708ZM226.286 123.164V136.187H225.173V123.164H226.286ZM223.664 123.442V135.527H222.565V129.199H220.896C220.771 131.733 219.694 133.315 218.083 133.315C216.384 133.315 215.285 131.558 215.285 128.789C215.285 126.021 216.384 124.263 218.083 124.263C219.665 124.263 220.734 125.793 220.881 128.247H222.565V123.442H223.664ZM218.083 125.347C217.028 125.347 216.355 126.665 216.369 128.789C216.355 130.898 217.028 132.231 218.083 132.217C219.138 132.231 219.812 130.898 219.812 128.789C219.812 126.665 219.138 125.347 218.083 125.347ZM233.423 126.665C233.423 129.023 234.932 131.396 236.821 132.261L236.133 133.198C234.653 132.437 233.43 130.876 232.852 129.023C232.273 130.972 231.05 132.642 229.57 133.433L228.823 132.51C230.728 131.572 232.251 129.067 232.251 126.665V124.292H233.423V126.665ZM239.634 123.164V136.216H238.491V128.555H235.4V127.617H238.491V123.164H239.634ZM251.695 126.665C251.681 129.038 253.307 131.44 255.226 132.305L254.523 133.213C253.043 132.488 251.761 130.957 251.139 129.097C250.531 131.067 249.249 132.708 247.726 133.477L246.993 132.51C248.927 131.616 250.538 129.141 250.553 126.665V124.292H251.695V126.665ZM257.804 123.164V136.216H256.647V123.164H257.804ZM265.19 125.581C265.19 127.31 266.464 128.892 268.398 129.565L267.812 130.459C266.325 129.932 265.19 128.862 264.633 127.515C264.076 128.994 262.882 130.144 261.352 130.708L260.736 129.814C262.685 129.126 264.047 127.441 264.062 125.581V125.024H261.088V124.087H268.119V125.024H265.19V125.581ZM270.961 123.164V126.606H272.924V127.588H270.961V131.016H269.818V123.164H270.961ZM270.961 131.704V136.187H269.818V132.642H262.436V131.704H270.961ZM285.246 123.179V130.664H284.089V123.179H285.246ZM274.538 129.39C275.644 129.39 276.933 129.382 278.273 129.331V127.939H275.725V123.823H281.906V124.775H276.882V127.017H282.023V127.939H279.431V129.287C280.639 129.236 281.862 129.133 283.005 128.979L283.078 129.814C280.222 130.298 277.058 130.342 274.714 130.342L274.538 129.39ZM277.805 131.25V132.642H284.118V131.25H285.246V136.011H276.662V131.25H277.805ZM277.805 135.073H284.118V133.535H277.805V135.073ZM298.945 123.164V136.187H297.803V123.164H298.945ZM290.186 124.453V131.836C292.17 131.829 294.229 131.667 296.411 131.206L296.572 132.188C294.258 132.671 292.192 132.832 290.112 132.832H289.058V124.453H290.186ZM312 123.164V128.32H314.183V129.287H312V136.216H310.857V123.164H312ZM308.572 124.438V125.391H303.636V131.982C305.994 131.982 307.664 131.873 309.598 131.514L309.744 132.51C307.708 132.876 305.994 132.949 303.519 132.949H302.493V124.438H308.572ZM317.013 135.088C316.5 135.088 316.061 134.663 316.075 134.136C316.061 133.623 316.5 133.198 317.013 133.198C317.525 133.198 317.95 133.623 317.95 134.136C317.95 134.663 317.525 135.088 317.013 135.088ZM70.1075 154.556V155.859C70.1075 157.5 70.1075 159.36 69.6241 162.188L68.4522 162.07C68.9796 159.404 68.9796 157.456 68.9796 155.859V155.508H61.128V154.556H70.1075ZM71.7042 163.315V164.268H59.8389V163.315H71.7042ZM88.585 153.677V154.189C88.585 154.937 88.585 156.24 88.2042 157.969L87.0909 157.822C87.3912 156.379 87.4424 155.354 87.4571 154.629H84.1612V153.677H88.585ZM89.9327 158.76V159.712H78.0821V158.76H83.6924V156.504H84.835V158.76H89.9327ZM83.0772 153.677V154.16C83.0772 154.893 83.0772 156.211 82.4766 157.969L81.3487 157.778C81.8321 156.35 81.9273 155.339 81.9493 154.629H79.1075V153.677H83.0772ZM88.3653 161.514V162.437H84.5714C84.7252 163.806 86.754 164.956 88.9073 165.234L88.4825 166.113C86.5489 165.828 84.7545 164.934 83.9854 163.638C83.2164 164.927 81.4293 165.828 79.503 166.113L79.0928 165.234C81.2169 164.956 83.231 163.806 83.3995 162.437H79.6055V161.514H83.4141V160.166H84.5567V161.514H88.3653ZM102.519 153.164V166.216H101.361V153.164H102.519ZM95.5899 154.175C97.5235 154.189 98.9151 155.947 98.9151 158.716C98.9151 161.484 97.5235 163.242 95.5899 163.242C93.6417 163.242 92.2647 161.484 92.2647 158.716C92.2647 155.947 93.6417 154.189 95.5899 154.175ZM95.5899 155.2C94.2862 155.215 93.378 156.592 93.378 158.716C93.378 160.84 94.2862 162.217 95.5899 162.217C96.8936 162.217 97.8018 160.84 97.8018 158.716C97.8018 156.592 96.8936 155.215 95.5899 155.2ZM120.088 153.164V158.467H122.197V159.434H120.088V166.187H118.945V153.164H120.088ZM116.719 154.57C116.719 158.262 114.99 161.616 110.742 163.711L110.098 162.803C113.467 161.125 115.298 158.621 115.562 155.537H110.698V154.57H116.719ZM128.411 155.962C128.411 157.72 129.803 159.302 131.751 159.917L131.165 160.84C129.649 160.327 128.44 159.258 127.855 157.881C127.283 159.368 126.06 160.54 124.515 161.104L123.914 160.181C125.862 159.492 127.254 157.808 127.254 155.962V155.2H124.207V154.263H131.414V155.2H128.411V155.962ZM134.476 153.179V162.729H133.333V153.179H134.476ZM134.886 164.941V165.908H126.067V161.821H127.21V164.941H134.886ZM152.47 153.677V154.189C152.47 154.937 152.47 156.24 152.089 157.969L150.976 157.822C151.276 156.379 151.327 155.354 151.342 154.629H148.046V153.677H152.47ZM153.817 158.76V159.712H141.967V158.76H147.577V156.504H148.72V158.76H153.817ZM146.962 153.677V154.16C146.962 154.893 146.962 156.211 146.361 157.969L145.233 157.778C145.717 156.35 145.812 155.339 145.834 154.629H142.992V153.677H146.962ZM152.25 161.514V162.437H148.456C148.61 163.806 150.639 164.956 152.792 165.234L152.367 166.113C150.434 165.828 148.639 164.934 147.87 163.638C147.101 164.927 145.314 165.828 143.388 166.113L142.978 165.234C145.102 164.956 147.116 163.806 147.284 162.437H143.49V161.514H147.299V160.166H148.441V161.514H152.25ZM165.847 153.164V155.991H167.81V156.958H165.847V159.8H164.704V153.164H165.847ZM162.243 153.911V159.111H156.223V153.911H162.243ZM157.351 154.849V158.188H161.13V154.849H157.351ZM165.847 160.415V163.594H158.698V165.088H166.33V166.011H157.57V162.715H164.704V161.338H157.541V160.415H165.847ZM181.245 160.034V160.972H169.38V160.034H181.245ZM179.927 164.941V165.908H170.918V162.114H172.075V164.941H179.927ZM175.313 153.633C178.11 153.618 179.912 154.585 179.912 156.211C179.912 157.837 178.11 158.804 175.313 158.804C172.485 158.804 170.698 157.837 170.698 156.211C170.698 154.585 172.485 153.618 175.313 153.633ZM175.313 154.556C173.218 154.556 171.87 155.186 171.885 156.211C171.87 157.236 173.218 157.866 175.313 157.866C177.393 157.866 178.74 157.236 178.74 156.211C178.74 155.186 177.393 154.556 175.313 154.556ZM197.789 153.164V157.046H199.767V158.013H197.789V162.598H196.647V153.164H197.789ZM194.024 154.292V155.259H189.366V159.316C191.981 159.316 193.468 159.25 195.211 158.892L195.357 159.844C193.526 160.195 191.974 160.283 189.234 160.283H188.224V154.292H194.024ZM198.39 164.941V165.908H189.645V161.646H190.773V164.941H198.39ZM207.856 154.16C207.856 155.859 210.229 157.412 212.484 157.764L212.03 158.672C210.053 158.335 208.097 157.236 207.27 155.713C206.449 157.266 204.472 158.35 202.494 158.687L202.04 157.778C204.311 157.427 206.669 155.918 206.669 154.16V153.501H207.856V154.16ZM213.232 159.8V160.752H207.929V163.418H206.786V160.752H201.308V159.8H213.232ZM211.898 164.941V165.908H202.831V162.144H203.988V164.941H211.898ZM225.217 153.179V157.471H227.18V158.438H225.217V162.935H224.074V153.179H225.217ZM222.829 154.775V155.713H215.065V154.775H218.376V153.179H219.519V154.775H222.829ZM218.947 156.431C220.808 156.431 222.067 157.383 222.082 158.862C222.067 160.327 220.808 161.265 218.947 161.265C217.072 161.265 215.798 160.327 215.813 158.862C215.798 157.383 217.072 156.431 218.947 156.431ZM218.947 157.339C217.717 157.339 216.897 157.939 216.911 158.862C216.897 159.785 217.717 160.371 218.947 160.356C220.163 160.371 220.983 159.785 220.998 158.862C220.983 157.939 220.163 157.339 218.947 157.339ZM225.817 164.941V165.908H217.072V162.158H218.2V164.941H225.817ZM237.527 154.116C239.578 154.116 241.028 155.361 241.028 157.178C241.028 158.994 239.578 160.239 237.527 160.239C235.477 160.239 233.997 158.994 234.012 157.178C233.997 155.361 235.477 154.116 237.527 154.116ZM237.527 155.127C236.136 155.127 235.125 155.962 235.14 157.178C235.125 158.394 236.136 159.229 237.527 159.229C238.904 159.229 239.9 158.394 239.9 157.178C239.9 155.962 238.904 155.127 237.527 155.127ZM243.943 153.164V166.216H242.801V153.164H243.943ZM233.338 162.363C235.74 162.363 239.051 162.349 241.937 161.924L242.024 162.773C239.051 163.33 235.843 163.345 233.499 163.345L233.338 162.363ZM253.761 154.453V162.92H247.74V154.453H253.761ZM248.868 155.376V161.982H252.633V155.376H248.868ZM257.716 153.164V166.216H256.559V153.164H257.716ZM270.771 153.164V158.467H272.88V159.434H270.771V166.187H269.628V153.164H270.771ZM267.401 154.57C267.401 158.262 265.673 161.616 261.425 163.711L260.78 162.803C264.149 161.125 265.981 158.621 266.244 155.537H261.381V154.57H267.401ZM282.407 154.175C284.326 154.189 285.689 155.947 285.703 158.716C285.689 161.484 284.326 163.242 282.407 163.242C280.474 163.242 279.126 161.484 279.126 158.716C279.126 155.947 280.474 154.189 282.407 154.175ZM282.407 155.2C281.118 155.215 280.21 156.592 280.21 158.716C280.21 160.84 281.118 162.217 282.407 162.217C283.711 162.217 284.59 160.84 284.59 158.716C284.59 156.592 283.711 155.215 282.407 155.2ZM288.999 153.164V158.364H291.182V159.36H288.999V166.187H287.857V153.164H288.999ZM303.372 153.164V166.187H302.23V153.164H303.372ZM294.612 154.453V161.836C296.597 161.829 298.655 161.667 300.838 161.206L300.999 162.188C298.685 162.671 296.619 162.832 294.539 162.832H293.484V154.453H294.612ZM316.427 153.164V158.35H318.609V159.316H316.427V166.216H315.284V153.164H316.427ZM312.779 154.38V159.038H308.033V162.085C310.45 162.085 312.135 162.004 314.112 161.631L314.23 162.583C312.179 162.964 310.436 163.052 307.931 163.066H306.891V158.086H311.637V155.332H306.861V154.38H312.779ZM322.201 164.019L321.059 168.003H319.975L320.78 164.019H322.201ZM202.767 187.559V188.511H193.787V183.838H194.93V187.559H202.767ZM204.173 190.474V191.44H198.724V196.187H197.581V191.44H192.249V190.474H204.173ZM216.319 183.867V184.893C216.319 185.991 216.319 187.236 215.997 188.936H217.887V189.858H212.525V193.008H211.398V189.858H205.963V188.936H214.825C215.177 187.229 215.177 185.991 215.177 184.893V184.819H207.472V183.867H216.319ZM216.598 194.941V195.908H207.472V191.836H208.629V194.941H216.598ZM229.755 183.164V188.467H231.864V189.434H229.755V196.187H228.612V183.164H229.755ZM226.386 184.57C226.386 188.262 224.657 191.616 220.409 193.711L219.765 192.803C223.134 191.125 224.965 188.621 225.229 185.537H220.365V184.57H226.386ZM237.653 184.116C239.704 184.116 241.154 185.361 241.154 187.178C241.154 188.994 239.704 190.239 237.653 190.239C235.603 190.239 234.123 188.994 234.138 187.178C234.123 185.361 235.603 184.116 237.653 184.116ZM237.653 185.127C236.262 185.127 235.251 185.962 235.266 187.178C235.251 188.394 236.262 189.229 237.653 189.229C239.03 189.229 240.026 188.394 240.026 187.178C240.026 185.962 239.03 185.127 237.653 185.127ZM244.069 183.164V196.216H242.927V183.164H244.069ZM233.464 192.363C235.866 192.363 239.177 192.349 242.063 191.924L242.15 192.773C239.177 193.33 235.969 193.345 233.625 193.345L233.464 192.363ZM262.386 183.164V196.187H261.229V183.164H262.386ZM258.533 184.585C258.519 188.335 256.775 191.646 252.41 193.74L251.78 192.803C255.303 191.133 257.098 188.635 257.361 185.522H252.381V184.585H258.533ZM276.129 191.587V196.216H274.972V192.51H267.369V191.587H276.129ZM276.129 183.164V190.84H274.972V187.5H272.262C272.013 189.082 270.665 190.151 268.922 190.137C266.974 190.151 265.538 188.862 265.538 187.017C265.538 185.2 266.974 183.911 268.922 183.911C270.665 183.911 272.013 184.973 272.262 186.533H274.972V183.164H276.129ZM268.922 184.893C267.618 184.893 266.637 185.786 266.637 187.017C266.637 188.291 267.618 189.17 268.922 189.17C270.196 189.17 271.178 188.291 271.178 187.017C271.178 185.786 270.196 184.893 268.922 184.893ZM281.186 194.019L280.043 198.003H278.959L279.765 194.019H281.186ZM298.33 183.164V186.357H300.293V187.31H298.33V190.562H297.188V183.164H298.33ZM294.771 184.014C294.756 187.295 292.456 189.639 288.604 190.693L288.135 189.771C291.343 188.906 293.298 187.17 293.54 184.966H288.721V184.014H294.771ZM298.33 191.162V196.011H290.083V191.162H298.33ZM291.226 192.114V195.073H297.188V192.114H291.226ZM312.659 183.164V190.928H311.502V187.515H308.88V186.562H311.502V183.164H312.659ZM308.338 191.338C311.048 191.338 312.703 192.217 312.703 193.755C312.703 195.293 311.048 196.172 308.338 196.187C305.628 196.172 303.973 195.293 303.973 193.755C303.973 192.217 305.628 191.338 308.338 191.338ZM308.338 192.231C306.346 192.231 305.101 192.803 305.115 193.755C305.101 194.692 306.346 195.264 308.338 195.264C310.33 195.264 311.561 194.692 311.561 193.755C311.561 192.803 310.33 192.231 308.338 192.231ZM306.39 185.552C306.39 187.251 307.693 188.862 309.598 189.521L308.997 190.444C307.532 189.917 306.397 188.826 305.848 187.471C305.276 189.001 304.068 190.225 302.523 190.811L301.922 189.888C303.856 189.185 305.232 187.427 305.232 185.566V185.083H302.288V184.116H309.305V185.083H306.39V185.552ZM317.716 194.019L316.573 198.003H315.489L316.295 194.019H317.716ZM124.852 214.556V215.859C124.852 217.5 124.852 219.36 124.368 222.188L123.196 222.07C123.724 219.404 123.724 217.456 123.724 215.859V215.508H115.872V214.556H124.852ZM126.448 223.315V224.268H114.583V223.315H126.448ZM139.049 213.164V226.216H137.906V213.164H139.049ZM135.094 214.38V219.009H130.231V222.085C132.391 222.085 134.317 221.99 136.647 221.616L136.764 222.583C134.361 222.964 132.384 223.052 130.143 223.052H129.059V218.071H133.937V215.332H129.029V214.38H135.094ZM152.455 214.482V215.786C152.44 217.383 152.44 219.17 151.972 221.792L150.8 221.66C151.298 219.17 151.298 217.339 151.298 215.786V215.435H143.271V214.482H152.455ZM153.876 223.389V224.341H142.011V223.389H146.669V218.73H147.797V223.389H153.876ZM170.977 213.164V226.216H169.819V213.164H170.977ZM164.048 214.175C165.982 214.189 167.373 215.947 167.373 218.716C167.373 221.484 165.982 223.242 164.048 223.242C162.1 223.242 160.723 221.484 160.723 218.716C160.723 215.947 162.1 214.189 164.048 214.175ZM164.048 215.2C162.744 215.215 161.836 216.592 161.836 218.716C161.836 220.84 162.744 222.217 164.048 222.217C165.352 222.217 166.26 220.84 166.26 218.716C166.26 216.592 165.352 215.215 164.048 215.2ZM177.44 214.175C179.358 214.189 180.721 215.947 180.735 218.716C180.721 221.484 179.358 223.242 177.44 223.242C175.506 223.242 174.158 221.484 174.158 218.716C174.158 215.947 175.506 214.189 177.44 214.175ZM177.44 215.2C176.15 215.215 175.242 216.592 175.242 218.716C175.242 220.84 176.15 222.217 177.44 222.217C178.743 222.217 179.622 220.84 179.622 218.716C179.622 216.592 178.743 215.215 177.44 215.2ZM186.141 216.445V217.427H184.031V220.327H186.141V221.294H184.031V226.187H182.889V213.164H184.031V216.445H186.141ZM198.434 213.164V226.187H197.276V213.164H198.434ZM194.581 214.585C194.566 218.335 192.823 221.646 188.458 223.74L187.828 222.803C191.351 221.133 193.146 218.635 193.409 215.522H188.429V214.585H194.581ZM213.305 223.608V224.575H201.381V223.608H206.742V221.147H202.875V217.134H210.668V215.083H202.846V214.131H211.796V218.071H204.018V220.195H212.104V221.147H207.87V223.608H213.305ZM229.688 213.164V218.32H231.87V219.287H229.688V226.216H228.545V213.164H229.688ZM226.26 214.438V215.391H221.323V221.982C223.682 221.982 225.352 221.873 227.285 221.514L227.432 222.51C225.396 222.876 223.682 222.949 221.206 222.949H220.181V214.438H226.26ZM237.952 216.665C237.938 219.038 239.564 221.44 241.482 222.305L240.779 223.213C239.3 222.488 238.018 220.957 237.396 219.097C236.788 221.067 235.506 222.708 233.982 223.477L233.25 222.51C235.184 221.616 236.795 219.141 236.81 216.665V214.292H237.952V216.665ZM244.061 213.164V226.216H242.903V213.164H244.061ZM257.235 214.673V215.61H253.178V218.115H257.045V219.038H253.178V221.982C255.111 221.975 256.305 221.924 257.733 221.66L257.836 222.612C256.313 222.905 255.053 222.964 252.914 222.964H252.079V214.673H257.235ZM262.714 213.164V226.187H261.601V219.36H259.814V225.527H258.7V213.442H259.814V218.408H261.601V213.164H262.714ZM268.767 214.175C270.539 214.189 271.814 215.706 272.004 218.145H274.919V213.164H276.062V226.216H274.919V219.097H272.019C271.879 221.646 270.583 223.242 268.767 223.242C266.848 223.242 265.5 221.484 265.5 218.716C265.5 215.947 266.848 214.189 268.767 214.175ZM268.767 215.2C267.478 215.215 266.599 216.592 266.599 218.716C266.599 220.84 267.478 222.217 268.767 222.217C270.041 222.217 270.935 220.84 270.935 218.716C270.935 216.592 270.041 215.215 268.767 215.2ZM289.16 213.179V216.079H291.138V217.061H289.16V219.961H288.018V213.179H289.16ZM280.767 213.779V218.35C282.62 218.342 284.531 218.225 286.641 217.793L286.787 218.76C284.575 219.185 282.612 219.316 280.649 219.316H279.609V213.779H280.767ZM282.041 220.635V222.363H288.018V220.635H289.16V226.011H280.913V220.635H282.041ZM282.041 225.073H288.018V223.315H282.041V225.073ZM303.431 213.164V226.187H302.288V213.164H303.431ZM294.671 214.453V221.836C296.656 221.829 298.714 221.667 300.897 221.206L301.058 222.188C298.743 222.671 296.678 222.832 294.598 222.832H293.543V214.453H294.671ZM316.485 213.164V218.32H318.668V219.287H316.485V226.216H315.343V213.164H316.485ZM313.058 214.438V215.391H308.121V221.982C310.48 221.982 312.149 221.873 314.083 221.514L314.23 222.51C312.193 222.876 310.48 222.949 308.004 222.949H306.979V214.438H313.058ZM321.498 225.088C320.985 225.088 320.546 224.663 320.561 224.136C320.546 223.623 320.985 223.198 321.498 223.198C322.011 223.198 322.436 223.623 322.436 224.136C322.436 224.663 322.011 225.088 321.498 225.088ZM113.511 274.175C115.283 274.189 116.558 275.706 116.748 278.145H119.663V273.164H120.806V286.216H119.663V279.097H116.763C116.624 281.646 115.327 283.242 113.511 283.242C111.592 283.242 110.244 281.484 110.244 278.716C110.244 275.947 111.592 274.189 113.511 274.175ZM113.511 275.2C112.222 275.215 111.343 276.592 111.343 278.716C111.343 280.84 112.222 282.217 113.511 282.217C114.785 282.217 115.679 280.84 115.679 278.716C115.679 276.592 114.785 275.215 113.511 275.2ZM134.988 284.941V285.908H125.921V281.865H127.064V284.941H134.988ZM134.637 273.179V282.642H133.509V277.72H131.107V276.768H133.509V273.179H134.637ZM127.386 274.248V275.2H125.218V279.595C125.884 279.58 126.668 279.507 127.532 279.316L127.649 280.269C126.434 280.532 125.482 280.532 124.647 280.532H124.09V274.248H127.386ZM131.736 274.248V275.2H129.261V279.609C130.374 279.595 131.238 279.529 132.234 279.287L132.352 280.239C131.136 280.503 130.184 280.532 128.763 280.532H128.104V274.248H131.736ZM146.317 276.665C146.317 278.965 147.841 281.323 149.687 282.231L148.983 283.154C147.548 282.4 146.347 280.862 145.775 279.053C145.19 280.979 143.959 282.62 142.494 283.403L141.762 282.48C143.666 281.543 145.175 279.038 145.19 276.665V274.292H146.317V276.665ZM152.03 273.164V278.452H154.213V279.448H152.03V286.187H150.888V273.164H152.03ZM165.847 273.179V276.445H167.824V277.412H165.847V281.045H164.704V273.179H165.847ZM162.126 273.984V277.5H157.38V279.316C159.694 279.316 161.372 279.236 163.4 278.892L163.518 279.858C161.423 280.21 159.68 280.283 157.263 280.283H156.252V276.592H160.998V274.937H156.223V273.984H162.126ZM161.672 281.44C164.323 281.44 165.964 282.319 165.964 283.813C165.964 285.308 164.323 286.157 161.672 286.157C158.977 286.157 157.351 285.308 157.351 283.813C157.351 282.319 158.977 281.44 161.672 281.44ZM161.672 282.349C159.68 282.349 158.464 282.891 158.479 283.813C158.464 284.722 159.68 285.264 161.672 285.264C163.649 285.264 164.851 284.722 164.851 283.813C164.851 282.891 163.649 282.349 161.672 282.349ZM181.245 280.034V280.972H169.38V280.034H181.245ZM179.927 284.941V285.908H170.918V282.114H172.075V284.941H179.927ZM175.313 273.633C178.11 273.618 179.912 274.585 179.912 276.211C179.912 277.837 178.11 278.804 175.313 278.804C172.485 278.804 170.698 277.837 170.698 276.211C170.698 274.585 172.485 273.618 175.313 273.633ZM175.313 274.556C173.218 274.556 171.87 275.186 171.885 276.211C171.87 277.236 173.218 277.866 175.313 277.866C177.393 277.866 178.74 277.236 178.74 276.211C178.74 275.186 177.393 274.556 175.313 274.556ZM199.532 283.55V284.517H187.608V283.55H192.984V280.386H194.142V283.55H199.532ZM194.142 275.64C194.142 277.72 196.72 279.507 198.961 279.873L198.492 280.781C196.5 280.393 194.398 279.126 193.57 277.31C192.728 279.133 190.633 280.43 188.678 280.84L188.194 279.917C190.392 279.536 192.955 277.72 192.955 275.64V275.317H188.59V274.351H198.507V275.317H194.142V275.64ZM213.188 279.609V280.562H201.322V279.609H204.267V277.778C203.227 277.375 202.641 276.709 202.641 275.83C202.641 274.292 204.398 273.413 207.255 273.413C210.082 273.413 211.855 274.292 211.855 275.83C211.855 276.702 211.276 277.368 210.243 277.764V279.609H213.188ZM207.255 281.558C210.053 281.558 211.723 282.363 211.737 283.857C211.723 285.337 210.053 286.157 207.255 286.157C204.428 286.157 202.758 285.337 202.758 283.857C202.758 282.363 204.428 281.558 207.255 281.558ZM207.255 282.437C205.16 282.451 203.915 282.964 203.93 283.857C203.915 284.736 205.16 285.264 207.255 285.264C209.32 285.264 210.58 284.736 210.58 283.857C210.58 282.964 209.32 282.451 207.255 282.437ZM207.255 274.321C205.131 274.321 203.813 274.893 203.827 275.83C203.813 276.782 205.131 277.339 207.255 277.339C209.364 277.339 210.683 276.782 210.683 275.83C210.683 274.893 209.364 274.321 207.255 274.321ZM205.409 279.609H209.101V278.086C208.551 278.181 207.936 278.232 207.255 278.232C206.574 278.232 205.959 278.181 205.409 278.086V279.609ZM225.773 273.164V286.187H224.616V273.164H225.773ZM223.21 275.288V276.226H215.329V275.288H218.684V273.296H219.841V275.288H223.21ZM219.299 277.295C221.174 277.295 222.522 278.525 222.522 280.283C222.522 282.041 221.174 283.271 219.299 283.271C217.409 283.271 216.047 282.041 216.062 280.283C216.047 278.525 217.409 277.295 219.299 277.295ZM219.299 278.262C218.054 278.262 217.146 279.111 217.146 280.283C217.146 281.47 218.054 282.305 219.299 282.29C220.529 282.305 221.423 281.47 221.423 280.283C221.423 279.111 220.529 278.262 219.299 278.262ZM244.031 273.164V286.187H242.874V273.164H244.031ZM240.179 274.585C240.164 278.335 238.421 281.646 234.056 283.74L233.426 282.803C236.949 281.133 238.743 278.635 239.007 275.522H234.026V274.585H240.179ZM257.057 273.164V278.32H259.239V279.287H257.057V286.216H255.914V273.164H257.057ZM253.629 274.438V275.391H248.692V281.982C251.051 281.982 252.721 281.873 254.654 281.514L254.801 282.51C252.765 282.876 251.051 282.949 248.575 282.949H247.55V274.438H253.629ZM271.444 273.164V286.216H270.302V273.164H271.444ZM267.489 274.38V279.009H262.626V282.085C264.787 282.085 266.713 281.99 269.042 281.616L269.159 282.583C266.757 282.964 264.779 283.052 262.538 283.052H261.454V278.071H266.332V275.332H261.425V274.38H267.489ZM284.939 277.119V278.042H276.018V273.647H277.16V277.119H284.939ZM286.315 279.814V280.752H274.392V279.814H286.315ZM285.012 284.912V285.864H275.944V282.085H277.087V284.912H285.012ZM299.183 274.482V282.876H293.177V274.482H299.183ZM294.29 275.405V281.938H298.04V275.405H294.29ZM302.713 273.164V278.364H304.896V279.36H302.713V286.187H301.57V273.164H302.713ZM312.281 273.457C315.108 273.457 316.881 274.365 316.881 275.933C316.881 277.471 315.108 278.364 312.281 278.364C309.454 278.364 307.667 277.471 307.667 275.933C307.667 274.365 309.454 273.457 312.281 273.457ZM312.281 274.38C310.172 274.38 308.839 274.966 308.854 275.933C308.839 276.885 310.172 277.441 312.281 277.456C314.361 277.441 315.709 276.885 315.709 275.933C315.709 274.966 314.361 274.38 312.281 274.38ZM316.764 281.733V286.011H307.799V281.733H316.764ZM308.941 282.656V285.073H315.636V282.656H308.941ZM318.214 279.492V280.444H306.349V279.492H318.214ZM322.201 284.019L321.059 288.003H319.975L320.78 284.019H322.201ZM63.3399 304.175C65.1124 304.189 66.3868 305.706 66.5772 308.145H69.4922V303.164H70.6348V316.216H69.4922V309.097H66.5919C66.4527 311.646 65.1563 313.242 63.3399 313.242C61.421 313.242 60.0733 311.484 60.0733 308.716C60.0733 305.947 61.421 304.189 63.3399 304.175ZM63.3399 305.2C62.0508 305.215 61.1719 306.592 61.1719 308.716C61.1719 310.84 62.0508 312.217 63.3399 312.217C64.6143 312.217 65.5079 310.84 65.5079 308.716C65.5079 306.592 64.6143 305.215 63.3399 305.2ZM84.8174 314.941V315.908H75.7501V311.865H76.8926V314.941H84.8174ZM84.4659 303.179V312.642H83.338V307.72H80.9356V306.768H83.338V303.179H84.4659ZM77.2149 304.248V305.2H75.0469V309.595C75.7134 309.58 76.4971 309.507 77.3614 309.316L77.4786 310.269C76.2628 310.532 75.3106 310.532 74.4756 310.532H73.919V304.248H77.2149ZM81.5655 304.248V305.2H79.0899V309.609C80.2032 309.595 81.0674 309.529 82.0635 309.287L82.1807 310.239C80.9649 310.503 80.0128 310.532 78.5919 310.532H77.9327V304.248H81.5655ZM96.1465 306.665C96.1465 308.965 97.67 311.323 99.5157 312.231L98.8126 313.154C97.377 312.4 96.1758 310.862 95.6046 309.053C95.0186 310.979 93.7881 312.62 92.3233 313.403L91.5909 312.48C93.4952 311.543 95.004 309.038 95.0186 306.665V304.292H96.1465V306.665ZM101.859 303.164V308.452H104.042V309.448H101.859V316.187H100.717V303.164H101.859ZM115.676 303.179V306.445H117.653V307.412H115.676V311.045H114.533V303.179H115.676ZM111.955 303.984V307.5H107.209V309.316C109.523 309.316 111.201 309.236 113.23 308.892L113.347 309.858C111.252 310.21 109.509 310.283 107.092 310.283H106.081V306.592H110.827V304.937H106.052V303.984H111.955ZM111.501 311.44C114.152 311.44 115.793 312.319 115.793 313.813C115.793 315.308 114.152 316.157 111.501 316.157C108.806 316.157 107.18 315.308 107.18 313.813C107.18 312.319 108.806 311.44 111.501 311.44ZM111.501 312.349C109.509 312.349 108.293 312.891 108.308 313.813C108.293 314.722 109.509 315.264 111.501 315.264C113.479 315.264 114.68 314.722 114.68 313.813C114.68 312.891 113.479 312.349 111.501 312.349ZM131.074 310.034V310.972H119.209V310.034H131.074ZM129.756 314.941V315.908H120.747V312.114H121.904V314.941H129.756ZM125.142 303.633C127.94 303.618 129.741 304.585 129.741 306.211C129.741 307.837 127.94 308.804 125.142 308.804C122.315 308.804 120.527 307.837 120.527 306.211C120.527 304.585 122.315 303.618 125.142 303.633ZM125.142 304.556C123.047 304.556 121.699 305.186 121.714 306.211C121.699 307.236 123.047 307.866 125.142 307.866C127.222 307.866 128.569 307.236 128.569 306.211C128.569 305.186 127.222 304.556 125.142 304.556ZM143.927 305.083C143.927 307.31 146.476 309.302 148.746 309.727L148.219 310.693C146.256 310.239 144.183 308.84 143.341 306.914C142.499 308.833 140.433 310.232 138.463 310.693L137.936 309.727C140.191 309.287 142.726 307.324 142.726 305.083V304.087H143.927V305.083ZM149.361 313.462V314.414H137.438V313.462H149.361ZM161.933 303.164V316.216H160.79V310.972H158.109V310.02H160.79V308.262H158.109V307.295H160.79V303.164H161.933ZM155.648 307.412C155.648 309.565 157.113 311.689 159.047 312.554L158.388 313.447C156.908 312.766 155.678 311.338 155.107 309.609C154.535 311.433 153.319 312.949 151.84 313.667L151.181 312.773C153.085 311.88 154.521 309.653 154.521 307.412V306.372H151.532V305.435H154.521V303.413H155.663V305.435H158.607V306.372H155.648V307.412ZM174.038 307.163C174.038 309.375 175.649 311.616 177.568 312.451L176.924 313.359C175.4 312.664 174.082 311.162 173.482 309.36C172.866 311.272 171.555 312.935 170.068 313.682L169.38 312.773C171.24 311.88 172.866 309.419 172.881 307.163V305.464H169.805V304.512H177.144V305.464H174.038V307.163ZM180.117 303.164V316.187H178.96V303.164H180.117ZM195.281 308.364V309.331H193.172V316.187H192.029V303.164H193.172V308.364H195.281ZM184.778 304.453V311.909C186.683 311.902 188.624 311.755 190.77 311.309L190.916 312.29C188.675 312.744 186.653 312.876 184.676 312.876H183.636V304.453H184.778ZM206.988 303.164V307.134H208.951V308.101H206.988V312.7H205.831V303.164H206.988ZM203.473 304.175C203.473 307.529 201.07 310.02 197.32 311.191L196.822 310.269C199.942 309.294 201.979 307.434 202.228 305.142H197.364V304.175H203.473ZM207.589 314.941V315.908H198.829V311.733H199.972V314.941H207.589ZM221.569 304.16C221.569 305.859 223.942 307.412 226.198 307.764L225.744 308.672C223.767 308.335 221.811 307.236 220.983 305.713C220.163 307.266 218.186 308.35 216.208 308.687L215.754 307.778C218.024 307.427 220.383 305.918 220.383 304.16V303.501H221.569V304.16ZM226.945 309.8V310.752H221.643V313.418H220.5V310.752H215.022V309.8H226.945ZM225.612 314.941V315.908H216.545V312.144H217.702V314.941H225.612ZM238.931 303.164V307.134H240.894V308.101H238.931V312.7H237.773V303.164H238.931ZM235.415 304.175C235.415 307.529 233.013 310.02 229.263 311.191L228.765 310.269C231.885 309.294 233.921 307.434 234.17 305.142H229.307V304.175H235.415ZM239.531 314.941V315.908H230.772V311.733H231.914V314.941H239.531ZM258.888 309.712V310.664H246.979V309.712H252.34V307.705H253.468V309.712H258.888ZM253.482 303.984C253.482 305.713 255.826 307.163 258.126 307.485L257.657 308.408C255.68 308.064 253.724 307.017 252.911 305.508C252.091 307.024 250.128 308.064 248.136 308.408L247.696 307.485C249.996 307.163 252.325 305.713 252.325 303.984V303.369H253.482V303.984ZM257.379 311.938V316.187H256.222V312.861H248.297V311.938H257.379ZM264.955 304.116C267.006 304.116 268.456 305.361 268.456 307.178C268.456 308.994 267.006 310.239 264.955 310.239C262.904 310.239 261.425 308.994 261.44 307.178C261.425 305.361 262.904 304.116 264.955 304.116ZM264.955 305.127C263.564 305.127 262.553 305.962 262.567 307.178C262.553 308.394 263.564 309.229 264.955 309.229C266.332 309.229 267.328 308.394 267.328 307.178C267.328 305.962 266.332 305.127 264.955 305.127ZM271.371 303.164V316.216H270.229V303.164H271.371ZM260.766 312.363C263.168 312.363 266.479 312.349 269.364 311.924L269.452 312.773C266.479 313.33 263.271 313.345 260.927 313.345L260.766 312.363ZM289.219 303.149V308.291H291.123V309.272H289.219V316.187H288.076V303.149H289.219ZM282.627 304.541V305.493H280.459V311.792C281.104 311.777 281.895 311.719 282.759 311.528L282.876 312.495C281.646 312.759 280.664 312.773 279.888 312.773H279.316V304.541H282.627ZM286.846 304.541V305.493H284.517V311.807C285.535 311.792 286.348 311.726 287.271 311.499L287.388 312.466C286.245 312.744 285.322 312.773 284.004 312.773H283.374V304.541H286.846ZM304.5 309.434V310.386H292.635V309.434H304.5ZM303.475 307.28V308.218H298.948V303.809H303.357V304.746H300.106V307.28H303.475ZM298.216 303.809V304.746H294.92V307.28C296.048 307.266 297.154 307.185 298.392 306.899L298.523 307.852C297.044 308.174 295.799 308.218 294.495 308.218H293.748V303.809H298.216ZM299.168 311.836C299.168 313.594 301.219 314.883 303.592 315.22L303.152 316.128C301.175 315.798 299.366 314.868 298.582 313.433C297.798 314.868 295.989 315.798 294.012 316.128L293.572 315.22C295.931 314.883 297.996 313.594 297.996 311.836V311.411H299.168V311.836ZM316.529 303.164V306.636H318.492V307.617H316.529V311.016H315.387V303.164H316.529ZM316.529 311.763V316.011H308.312V311.763H316.529ZM309.44 312.686V315.073H315.387V312.686H309.44ZM314.142 304.556V305.508H306.378V304.556H309.689V303.062H310.831V304.556H314.142ZM310.26 306.152C312.135 306.152 313.38 307.075 313.395 308.467C313.38 309.888 312.135 310.796 310.26 310.796C308.37 310.796 307.11 309.888 307.125 308.467C307.11 307.075 308.37 306.152 310.26 306.152ZM310.26 307.046C309.029 307.046 308.209 307.617 308.224 308.467C308.209 309.36 309.029 309.902 310.26 309.917C311.476 309.902 312.296 309.36 312.311 308.467C312.296 307.617 311.476 307.046 310.26 307.046ZM322.201 314.019L321.059 318.003H319.975L320.78 314.019H322.201ZM134.798 339.214V340.151H130.081V334.409H134.637V335.347H131.238V339.214H134.798ZM135.75 343.564V344.517H123.826V343.564H129.173V340.811H130.301V343.564H135.75ZM129.29 334.409V335.361H126.009V339.199C127.107 339.192 128.199 339.104 129.407 338.833L129.51 339.8C128.089 340.122 126.888 340.166 125.584 340.151H124.866V334.409H129.29ZM145.556 334.175C147.328 334.189 148.603 335.706 148.793 338.145H151.708V333.164H152.851V346.216H151.708V339.097H148.808C148.669 341.646 147.372 343.242 145.556 343.242C143.637 343.242 142.289 341.484 142.289 338.716C142.289 335.947 143.637 334.189 145.556 334.175ZM145.556 335.2C144.267 335.215 143.388 336.592 143.388 338.716C143.388 340.84 144.267 342.217 145.556 342.217C146.83 342.217 147.724 340.84 147.724 338.716C147.724 336.592 146.83 335.215 145.556 335.2ZM167.033 344.941V345.908H157.966V341.865H159.108V344.941H167.033ZM166.682 333.179V342.642H165.554V337.72H163.151V336.768H165.554V333.179H166.682ZM159.431 334.248V335.2H157.263V339.595C157.929 339.58 158.713 339.507 159.577 339.316L159.694 340.269C158.479 340.532 157.526 340.532 156.691 340.532H156.135V334.248H159.431ZM163.781 334.248V335.2H161.306V339.609C162.419 339.595 163.283 339.529 164.279 339.287L164.397 340.239C163.181 340.503 162.229 340.532 160.808 340.532H160.148V334.248H163.781ZM178.362 336.665C178.362 338.965 179.886 341.323 181.732 342.231L181.028 343.154C179.593 342.4 178.392 340.862 177.82 339.053C177.234 340.979 176.004 342.62 174.539 343.403L173.807 342.48C175.711 341.543 177.22 339.038 177.234 336.665V334.292H178.362V336.665ZM184.075 333.164V338.452H186.258V339.448H184.075V346.187H182.933V333.164H184.075ZM197.892 333.179V336.445H199.869V337.412H197.892V341.045H196.749V333.179H197.892ZM194.171 333.984V337.5H189.425V339.316C191.739 339.316 193.417 339.236 195.445 338.892L195.563 339.858C193.468 340.21 191.725 340.283 189.308 340.283H188.297V336.592H193.043V334.937H188.268V333.984H194.171ZM193.717 341.44C196.368 341.44 198.009 342.319 198.009 343.813C198.009 345.308 196.368 346.157 193.717 346.157C191.022 346.157 189.396 345.308 189.396 343.813C189.396 342.319 191.022 341.44 193.717 341.44ZM193.717 342.349C191.725 342.349 190.509 342.891 190.523 343.813C190.509 344.722 191.725 345.264 193.717 345.264C195.694 345.264 196.896 344.722 196.896 343.813C196.896 342.891 195.694 342.349 193.717 342.349ZM213.29 340.034V340.972H201.425V340.034H213.29ZM211.972 344.941V345.908H202.963V342.114H204.12V344.941H211.972ZM207.357 333.633C210.155 333.618 211.957 334.585 211.957 336.211C211.957 337.837 210.155 338.804 207.357 338.804C204.53 338.804 202.743 337.837 202.743 336.211C202.743 334.585 204.53 333.618 207.357 333.633ZM207.357 334.556C205.263 334.556 203.915 335.186 203.93 336.211C203.915 337.236 205.263 337.866 207.357 337.866C209.438 337.866 210.785 337.236 210.785 336.211C210.785 335.186 209.438 334.556 207.357 334.556ZM229.834 333.164V335.991H231.797V336.958H229.834V339.8H228.691V333.164H229.834ZM226.231 333.911V339.111H220.21V333.911H226.231ZM221.338 334.849V338.188H225.117V334.849H221.338ZM229.834 340.415V343.594H222.686V345.088H230.317V346.011H221.558V342.715H228.691V341.338H221.528V340.415H229.834ZM235.96 340.811V342.437H238.333V340.811H239.402V346.011H234.876V340.811H235.96ZM235.96 345.103H238.333V343.315H235.96V345.103ZM243.123 341.836C243.108 343.213 243.929 344.648 245.525 345.234L244.925 346.113C243.724 345.63 242.933 344.714 242.537 343.623C242.12 344.692 241.329 345.615 240.179 346.113L239.578 345.234C241.146 344.59 241.981 343.154 241.981 341.836V340.723H243.123V341.836ZM236.956 333.75C238.699 333.75 240.032 334.739 240.281 336.24H243.006V333.164H244.163V340.063H243.006V337.192H240.296C240.062 338.73 238.721 339.741 236.956 339.741C234.979 339.741 233.572 338.525 233.572 336.738C233.572 334.966 234.979 333.75 236.956 333.75ZM236.956 334.717C235.623 334.717 234.671 335.552 234.671 336.738C234.671 337.939 235.623 338.789 236.956 338.789C238.274 338.789 239.212 337.939 239.212 336.738C239.212 335.552 238.274 334.717 236.956 334.717ZM257.818 333.164V346.216H256.661V333.164H257.818ZM250.89 334.175C252.823 334.189 254.215 335.947 254.215 338.716C254.215 341.484 252.823 343.242 250.89 343.242C248.941 343.242 247.565 341.484 247.565 338.716C247.565 335.947 248.941 334.189 250.89 334.175ZM250.89 335.2C249.586 335.215 248.678 336.592 248.678 338.716C248.678 340.84 249.586 342.217 250.89 342.217C252.193 342.217 253.102 340.84 253.102 338.716C253.102 336.592 252.193 335.215 250.89 335.2ZM269.968 337.163C269.968 339.375 271.579 341.616 273.498 342.451L272.854 343.359C271.33 342.664 270.012 341.162 269.411 339.36C268.796 341.272 267.485 342.935 265.998 343.682L265.31 342.773C267.17 341.88 268.796 339.419 268.811 337.163V335.464H265.734V334.512H273.073V335.464H269.968V337.163ZM276.047 333.164V346.187H274.89V333.164H276.047ZM285.645 334.526C285.645 335.31 285.579 336.079 285.454 336.826H288.662V333.149H289.805V346.187H288.662V341.235H285.059V340.298H288.662V337.778H285.234C284.546 340.239 282.927 342.415 279.697 344.033L279.038 343.154C281.433 341.953 282.913 340.452 283.726 338.687L279.287 339.111L279.082 338.115L284.077 337.778C284.312 337.053 284.451 336.284 284.502 335.479H279.741V334.526H285.645ZM299.315 335.01C299.3 336.753 301.629 338.232 303.899 338.569L303.475 339.478C301.439 339.133 299.461 338.049 298.67 336.475C297.879 338.049 295.894 339.133 293.895 339.478L293.44 338.569C295.696 338.232 298.025 336.753 298.025 335.01V334.922H293.851V333.984H303.475V334.922H299.315V335.01ZM304.603 340.591V341.543H299.212V346.187H298.084V341.543H292.737V340.591H304.603ZM316.983 337.119V338.042H308.063V333.647H309.205V337.119H316.983ZM318.36 339.814V340.752H306.437V339.814H318.36ZM317.057 344.912V345.864H307.989V342.085H309.132V344.912H317.057ZM202.714 367.134V368.071H193.822V363.662H194.965V367.134H202.714ZM204.062 369.609V370.562H198.788V373.257H197.646V370.562H192.182V369.609H204.062ZM202.802 374.941V375.908H193.705V372.1H194.848V374.941H202.802ZM216.633 363.164V370.737H215.505V363.164H216.633ZM216.97 371.66V372.568H213.103C213.169 373.806 215.219 375.022 217.424 375.293L216.999 376.187C215.051 375.908 213.271 374.993 212.502 373.784C211.726 375.022 209.895 375.923 207.932 376.187L207.522 375.308C209.726 375.066 211.85 373.85 211.916 372.568H208.064V371.66H211.931V370.4H213.073V371.66H216.97ZM207.727 363.721V365.742H211.565V363.721H212.707V369.536H206.584V363.721H207.727ZM207.727 368.613H211.565V366.636H207.727V368.613ZM230.405 363.164V376.216H229.248V369.36H226.392V368.408H229.248V363.164H230.405ZM224.107 367.412C224.107 369.565 225.571 371.675 227.505 372.539L226.846 373.433C225.366 372.751 224.136 371.331 223.565 369.609C222.993 371.426 221.777 372.949 220.298 373.667L219.639 372.773C221.543 371.88 222.979 369.653 222.979 367.412V366.372H219.99V365.435H222.979V363.413H224.121V365.435H227.065V366.372H224.107V367.412ZM244.119 371.558V376.011H235.55V371.558H244.119ZM236.692 372.451V375.073H242.977V372.451H236.692ZM244.119 363.179V370.825H242.962V367.061H240.486V366.108H242.962V363.179H244.119ZM239.651 363.838V367.441H235.023V369.331C237.169 369.338 238.78 369.265 240.735 368.95L240.838 369.917C238.787 370.239 237.117 370.298 234.861 370.283H233.88V366.548H238.538V364.79H233.851V363.838H239.651ZM258.232 364.79C258.217 366.401 260.414 367.72 262.714 368.013L262.26 368.95C260.158 368.621 258.195 367.581 257.484 366.05C256.781 367.581 254.826 368.621 252.709 368.95L252.284 368.013C254.584 367.72 256.737 366.401 256.737 364.79V364.761H252.636V363.809H262.362V364.761H258.232V364.79ZM262.099 374.941V375.908H253.09V372.202H254.247V374.941H262.099ZM263.461 370.195V371.147H251.552V370.195H256.913V368.013H258.041V370.195H263.461ZM276.457 363.164V376.187H275.344V369.419H273.571V375.527H272.473V363.442H273.571V368.438H275.344V363.164H276.457ZM269.118 366.724C269.118 369.111 270.1 371.206 271.96 372.158L271.272 373.052C269.953 372.334 269.052 371.045 268.591 369.448C268.144 371.265 267.229 372.686 265.852 373.491L265.134 372.612C267.009 371.587 268.005 369.36 268.005 366.724V365.684H265.441V364.717H271.535V365.684H269.118V366.724ZM289.16 363.164V366.504H291.123V367.485H289.16V370.737H288.018V363.164H289.16ZM282.07 371.309V372.7H288.018V371.309H289.16V376.011H280.928V371.309H282.07ZM282.07 375.088H288.018V373.608H282.07V375.088ZM286.773 364.512V365.464H279.009V364.512H282.319V363.047H283.462V364.512H286.773ZM282.891 366.064C284.766 366.064 286.011 366.958 286.025 368.35C286.011 369.741 284.766 370.635 282.891 370.635C281.001 370.635 279.741 369.741 279.756 368.35C279.741 366.958 281.001 366.064 282.891 366.064ZM282.891 366.958C281.66 366.943 280.84 367.515 280.855 368.35C280.84 369.199 281.66 369.756 282.891 369.756C284.107 369.756 284.927 369.199 284.941 368.35C284.927 367.515 284.107 366.943 282.891 366.958ZM303.431 363.164V376.187H302.288V363.164H303.431ZM294.671 364.453V371.836C296.656 371.829 298.714 371.667 300.897 371.206L301.058 372.188C298.743 372.671 296.678 372.832 294.598 372.832H293.543V364.453H294.671ZM316.485 363.164V368.32H318.668V369.287H316.485V376.216H315.343V363.164H316.485ZM313.058 364.438V365.391H308.121V371.982C310.48 371.982 312.149 371.873 314.083 371.514L314.23 372.51C312.193 372.876 310.48 372.949 308.004 372.949H306.979V364.438H313.058ZM321.498 375.088C320.985 375.088 320.546 374.663 320.561 374.136C320.546 373.623 320.985 373.198 321.498 373.198C322.011 373.198 322.436 373.623 322.436 374.136C322.436 374.663 322.011 375.088 321.498 375.088ZM102.608 390.859L106.534 402.363H106.69L110.616 390.859H112.94L107.843 405H105.362L100.284 390.859H102.608ZM124.819 390.859H126.968V400.156C126.968 403.125 124.741 405.234 121.362 405.234C117.944 405.234 115.737 403.125 115.737 400.156V390.859H117.886V399.98C117.886 401.895 119.214 403.281 121.362 403.281C123.491 403.281 124.819 401.895 124.819 399.98V390.859ZM130.858 405V390.859H135.898C139.179 390.859 140.8 392.695 140.8 395.293C140.8 397.197 139.94 398.643 138.222 399.277L141.347 405H138.905L136.034 399.668H135.898H133.007V405H130.858ZM133.007 397.812H135.683C137.773 397.812 138.632 396.895 138.632 395.293C138.632 393.691 137.773 392.695 135.683 392.695H133.007V397.812ZM144.183 405V390.859H153.05V392.715H146.331V396.992H152.581V398.828H146.331V403.145H153.128V405H144.183ZM166.301 397.119V398.042H157.38V393.647H158.523V397.119H166.301ZM167.678 399.814V400.752H155.754V399.814H167.678ZM166.374 404.912V405.864H157.307V402.085H158.449V404.912H166.374ZM184.734 393.164V406.216H183.577V393.164H184.734ZM177.806 394.175C179.739 394.189 181.131 395.947 181.131 398.716C181.131 401.484 179.739 403.242 177.806 403.242C175.857 403.242 174.481 401.484 174.481 398.716C174.481 395.947 175.857 394.189 177.806 394.175ZM177.806 395.2C176.502 395.215 175.594 396.592 175.594 398.716C175.594 400.84 176.502 402.217 177.806 402.217C179.109 402.217 180.018 400.84 180.018 398.716C180.018 396.592 179.109 395.215 177.806 395.2ZM204.149 403.564V404.517H192.226V403.564H197.587V400.752H193.632V394.087H194.789V396.445H201.557V394.087H202.685V400.752H198.715V403.564H204.149ZM194.789 399.814H201.557V397.383H194.789V399.814ZM216.677 393.164V406.216H215.52V393.164H216.677ZM209.748 394.175C211.682 394.189 213.073 395.947 213.073 398.716C213.073 401.484 211.682 403.242 209.748 403.242C207.8 403.242 206.423 401.484 206.423 398.716C206.423 395.947 207.8 394.189 209.748 394.175ZM209.748 395.2C208.444 395.215 207.536 396.592 207.536 398.716C207.536 400.84 208.444 402.217 209.748 402.217C211.052 402.217 211.96 400.84 211.96 398.716C211.96 396.592 211.052 395.215 209.748 395.2ZM224.312 397.163C224.312 399.375 225.923 401.616 227.842 402.451L227.197 403.359C225.674 402.664 224.356 401.162 223.755 399.36C223.14 401.272 221.829 402.935 220.342 403.682L219.653 402.773C221.514 401.88 223.14 399.419 223.154 397.163V395.464H220.078V394.512H227.417V395.464H224.312V397.163ZM230.391 393.164V406.187H229.233V393.164H230.391ZM241.515 393.911C243.463 393.911 244.898 395.156 244.898 396.914C244.898 398.687 243.463 399.917 241.515 399.932C239.566 399.917 238.116 398.687 238.131 396.914C238.116 395.156 239.566 393.911 241.515 393.911ZM241.515 394.878C240.24 394.878 239.244 395.742 239.259 396.914C239.244 398.115 240.24 398.979 241.515 398.979C242.804 398.979 243.771 398.115 243.771 396.914C243.771 395.742 242.804 394.878 241.515 394.878ZM248.063 393.164V396.108H250.025V397.061H248.063V399.683H246.92V393.164H248.063ZM240.387 401.089V404.883C241.141 404.861 242.145 404.751 243.067 404.443L243.243 405.366C241.969 405.791 240.738 405.835 239.889 405.835H239.273V401.089H240.387ZM249.366 401.147V402.041H242.789V401.147H245.528V399.99H246.656V401.147H249.366ZM246.07 402.48C247.491 402.48 248.502 403.198 248.517 404.326C248.502 405.454 247.491 406.157 246.07 406.157C244.635 406.157 243.639 405.454 243.653 404.326C243.639 403.198 244.635 402.48 246.07 402.48ZM246.07 403.315C245.265 403.315 244.679 403.726 244.679 404.326C244.679 404.941 245.265 405.337 246.07 405.337C246.891 405.337 247.462 404.941 247.462 404.326C247.462 403.726 246.891 403.315 246.07 403.315ZM262.128 397.119V398.042H253.207V393.647H254.35V397.119H262.128ZM263.505 399.814V400.752H251.581V399.814H263.505ZM262.201 404.912V405.864H253.134V402.085H254.276V404.912H262.201ZM280.005 393.164V396.357H281.968V397.31H280.005V400.562H278.862V393.164H280.005ZM276.445 394.014C276.431 397.295 274.131 399.639 270.278 400.693L269.81 399.771C273.018 398.906 274.973 397.17 275.215 394.966H270.396V394.014H276.445ZM280.005 401.162V406.011H271.758V401.162H280.005ZM272.9 402.114V405.073H278.862V402.114H272.9ZM294.334 393.164V400.928H293.177V397.515H290.555V396.562H293.177V393.164H294.334ZM290.013 401.338C292.723 401.338 294.378 402.217 294.378 403.755C294.378 405.293 292.723 406.172 290.013 406.187C287.303 406.172 285.648 405.293 285.648 403.755C285.648 402.217 287.303 401.338 290.013 401.338ZM290.013 402.231C288.021 402.231 286.775 402.803 286.79 403.755C286.775 404.692 288.021 405.264 290.013 405.264C292.005 405.264 293.235 404.692 293.235 403.755C293.235 402.803 292.005 402.231 290.013 402.231ZM288.065 395.552C288.065 397.251 289.368 398.862 291.273 399.521L290.672 400.444C289.207 399.917 288.072 398.826 287.523 397.471C286.951 399.001 285.743 400.225 284.197 400.811L283.597 399.888C285.53 399.185 286.907 397.427 286.907 395.566V395.083H283.963V394.116H290.98V395.083H288.065V395.552ZM309.132 398.643V399.565H297.252V398.643H309.132ZM307.711 396.636V397.573H298.834V393.618H307.579V394.541H299.991V396.636H307.711ZM307.594 400.737V403.755H299.859V405.103H307.989V406.04H298.717V402.891H306.466V401.631H298.688V400.737H307.594ZM316.898 393.398C319.799 393.398 321.498 394.189 321.498 395.64C321.498 397.119 319.799 397.91 316.898 397.925C313.998 397.91 312.284 397.119 312.284 395.64C312.284 394.189 313.998 393.398 316.898 393.398ZM316.898 394.263C314.731 394.263 313.471 394.79 313.485 395.64C313.471 396.548 314.731 397.046 316.898 397.046C319.052 397.046 320.326 396.548 320.326 395.64C320.326 394.79 319.052 394.263 316.898 394.263ZM322.831 398.804V399.741H310.966V398.804H322.831ZM321.308 400.869V403.784H313.573V405.132H321.703V406.04H312.431V402.935H320.18V401.748H312.401V400.869H321.308ZM198.346 423.164V430.737H197.218V423.164H198.346ZM198.683 431.66V432.568H194.815C194.881 433.806 196.932 435.022 199.137 435.293L198.712 436.187C196.764 435.908 194.984 434.993 194.215 433.784C193.439 435.022 191.607 435.923 189.645 436.187L189.234 435.308C191.439 435.066 193.563 433.85 193.629 432.568H189.776V431.66H193.644V430.4H194.786V431.66H198.683ZM189.44 423.721V425.742H193.277V423.721H194.42V429.536H188.297V423.721H189.44ZM189.44 428.613H193.277V426.636H189.44V428.613ZM208.544 424.614V425.288C208.529 426.313 208.529 428.042 208.163 430.459L207.006 430.356C207.357 428.174 207.387 426.592 207.387 425.552H201.923V424.614H208.544ZM205.131 428.335V432.29C206.574 432.239 208.053 432.144 209.408 431.982L209.467 432.847C206.728 433.271 203.666 433.33 201.337 433.315L201.19 432.363C202.047 432.356 203 432.349 204.003 432.319V428.335H205.131ZM211.371 423.164V428.613H213.481V429.609H211.371V436.187H210.229V423.164H211.371ZM226.934 424.629V425.566H219.565V424.629H222.73V423.062H223.872V424.629H226.934ZM223.286 426.24C225.029 426.24 226.26 427.192 226.26 428.643C226.26 430.107 225.029 431.06 223.286 431.06C221.528 431.06 220.327 430.107 220.342 428.643C220.327 427.192 221.528 426.24 223.286 426.24ZM223.286 427.104C222.158 427.119 221.411 427.734 221.411 428.643C221.411 429.565 222.158 430.166 223.286 430.166C224.414 430.166 225.176 429.565 225.19 428.643C225.176 427.734 224.414 427.119 223.286 427.104ZM230.347 423.164V431.587H229.19V429.785H226.919V428.833H229.19V427.251H226.934V426.299H229.19V423.164H230.347ZM226.055 431.719C228.765 431.719 230.42 432.524 230.42 433.945C230.42 435.337 228.765 436.157 226.055 436.157C223.315 436.157 221.675 435.337 221.675 433.945C221.675 432.524 223.315 431.719 226.055 431.719ZM226.055 432.612C224.077 432.612 222.861 433.096 222.861 433.945C222.861 434.766 224.077 435.264 226.055 435.264C228.003 435.264 229.204 434.766 229.204 433.945C229.204 433.096 228.003 432.612 226.055 432.612ZM238.948 424.673V425.61H234.891V428.115H238.758V429.038H234.891V431.982C236.824 431.975 238.018 431.924 239.446 431.66L239.549 432.612C238.025 432.905 236.766 432.964 234.627 432.964H233.792V424.673H238.948ZM244.427 423.164V436.187H243.314V429.36H241.526V435.527H240.413V423.442H241.526V428.408H243.314V423.164H244.427ZM258.902 433.608V434.575H246.979V433.608H252.34V431.147H248.473V427.134H256.266V425.083H248.443V424.131H257.394V428.071H249.615V430.195H257.701V431.147H253.468V433.608H258.902ZM275.974 423.164V436.187H274.816V423.164H275.974ZM272.971 424.585V425.537H271.491V431.807C272.224 431.755 272.949 431.689 273.645 431.602L273.718 432.466C270.876 432.905 267.741 432.949 265.324 432.964L265.192 431.982L266.994 431.968V425.537H265.529V424.585H272.971ZM268.122 431.953C268.855 431.938 269.609 431.909 270.363 431.865V425.537H268.122V431.953ZM289.702 423.179V436.201H288.53V432.964H285.527V432.085H288.53V423.179H289.702ZM278.862 430.034C281.353 430.034 284.648 430.02 287.52 429.609L287.593 430.474C286.304 430.693 284.963 430.825 283.667 430.898V435.791H282.51V430.957C281.257 431.008 280.071 431.016 279.023 431.016L278.862 430.034ZM283.154 423.823C285.088 423.823 286.436 424.863 286.436 426.387C286.436 427.939 285.088 428.936 283.154 428.936C281.206 428.936 279.858 427.939 279.858 426.387C279.858 424.863 281.206 423.823 283.154 423.823ZM283.154 424.717C281.836 424.717 280.928 425.405 280.942 426.387C280.928 427.383 281.836 428.042 283.154 428.042C284.429 428.042 285.352 427.383 285.352 426.387C285.352 425.405 284.429 424.717 283.154 424.717ZM303.753 423.164V436.187H302.625V429.448H300.75V435.513H299.666V423.457H300.75V428.467H302.625V423.164H303.753ZM294.437 424.761V431.792C295.733 431.777 297.11 431.689 298.699 431.367L298.846 432.393C297.029 432.715 295.535 432.817 294.1 432.817H293.294V424.761H294.437ZM312.809 424.468V426.299H316.002V423.164H317.145V436.216H316.002V430.84H312.809V432.891H306.876V424.468H312.809ZM308.019 425.376V431.968H311.695V425.376H308.019ZM312.809 429.888H316.002V427.251H312.809V429.888ZM322.201 434.019L321.059 438.003H319.975L320.78 434.019H322.201ZM4.89264 456.665C4.89264 458.965 6.41608 461.323 8.26178 462.231L7.55865 463.154C6.12311 462.4 4.92194 460.862 4.35065 459.053C3.76471 460.979 2.53424 462.62 1.0694 463.403L0.336975 462.48C2.24127 461.543 3.75006 459.038 3.76471 456.665V454.292H4.89264V456.665ZM10.6055 453.164V458.452H12.7881V459.448H10.6055V466.187H9.46295V453.164H10.6055ZM24.4219 453.179V456.445H26.3995V457.412H24.4219V461.045H23.2794V453.179H24.4219ZM20.7012 453.984V457.5H15.9551V459.316C18.2696 459.316 19.9468 459.236 21.9756 458.892L22.0928 459.858C19.9981 460.21 18.2549 460.283 15.838 460.283H14.8272V456.592H19.5733V454.937H14.7979V453.984H20.7012ZM20.2471 461.44C22.8985 461.44 24.5391 462.319 24.5391 463.813C24.5391 465.308 22.8985 466.157 20.2471 466.157C17.5518 466.157 15.9258 465.308 15.9258 463.813C15.9258 462.319 17.5518 461.44 20.2471 461.44ZM20.2471 462.349C18.2549 462.349 17.0391 462.891 17.0538 463.813C17.0391 464.722 18.2549 465.264 20.2471 465.264C22.2247 465.264 23.4258 464.722 23.4258 463.813C23.4258 462.891 22.2247 462.349 20.2471 462.349ZM38.6924 453.164V466.216H37.5352V453.164H38.6924ZM31.7637 454.175C33.6973 454.189 35.0889 455.947 35.0889 458.716C35.0889 461.484 33.6973 463.242 31.7637 463.242C29.8155 463.242 28.4385 461.484 28.4385 458.716C28.4385 455.947 29.8155 454.189 31.7637 454.175ZM31.7637 455.2C30.46 455.215 29.5518 456.592 29.5518 458.716C29.5518 460.84 30.46 462.217 31.7637 462.217C33.0674 462.217 33.9756 460.84 33.9756 458.716C33.9756 456.592 33.0674 455.215 31.7637 455.2ZM52.6436 454.468V457.939H55.837V453.164H56.9796V466.216H55.837V458.892H52.6436V462.891H46.711V454.468H52.6436ZM47.8536 455.376V461.968H51.5303V455.376H47.8536ZM71.7628 458.672V459.609H66.3868V460.898H70.2393V463.813H62.5049V465.132H70.6348V466.04H61.3624V462.949H69.1114V461.792H61.3331V460.898H65.2442V459.609H59.8975V458.672H71.7628ZM70.2247 453.604V457.573H61.4356V453.604H70.2247ZM62.5782 454.526V456.65H69.0821V454.526H62.5782ZM80.3643 454.263V455.215H75.501V459.814C77.8375 459.814 79.3463 459.734 81.0967 459.39L81.2432 460.342C79.3829 460.664 77.8008 460.767 75.3546 460.767H74.3731V454.263H80.3643ZM84.4073 453.179V462.686H83.2501V457.734H79.5147V456.797H83.2501V453.179H84.4073ZM84.7589 465.044V465.981H76.0137V461.968H77.171V465.044H84.7589ZM102.108 454.556V455.859C102.108 457.5 102.108 459.36 101.625 462.188L100.453 462.07C100.981 459.404 100.981 457.456 100.981 455.859V455.508H93.129V454.556H102.108ZM103.705 463.315V464.268H91.8399V463.315H103.705ZM116.602 454.16C116.602 455.859 118.975 457.412 121.231 457.764L120.776 458.672C118.799 458.335 116.843 457.236 116.016 455.713C115.195 457.266 113.218 458.35 111.24 458.687L110.786 457.778C113.057 457.427 115.415 455.918 115.415 454.16V453.501H116.602V454.16ZM121.978 459.8V460.752H116.675V463.418H115.532V460.752H110.054V459.8H121.978ZM120.645 464.941V465.908H111.577V462.144H112.734V464.941H120.645ZM133.963 453.164V457.134H135.926V458.101H133.963V462.7H132.806V453.164H133.963ZM130.447 454.175C130.447 457.529 128.045 460.02 124.295 461.191L123.797 460.269C126.917 459.294 128.953 457.434 129.202 455.142H124.339V454.175H130.447ZM134.564 464.941V465.908H125.804V461.733H126.946V464.941H134.564ZM141.759 454.116C143.81 454.116 145.26 455.361 145.26 457.178C145.26 458.994 143.81 460.239 141.759 460.239C139.708 460.239 138.229 458.994 138.243 457.178C138.229 455.361 139.708 454.116 141.759 454.116ZM141.759 455.127C140.367 455.127 139.357 455.962 139.371 457.178C139.357 458.394 140.367 459.229 141.759 459.229C143.136 459.229 144.132 458.394 144.132 457.178C144.132 455.962 143.136 455.127 141.759 455.127ZM148.175 453.164V466.216H147.032V453.164H148.175ZM137.569 462.363C139.972 462.363 143.282 462.349 146.168 461.924L146.256 462.773C143.282 463.33 140.074 463.345 137.731 463.345L137.569 462.363ZM166.521 453.164V459.829H165.363V458.467H161.892V457.559H165.363V455.991H162.082C161.262 458.049 159.24 459.434 156.355 460.122L155.944 459.17C159.138 458.43 160.998 456.87 161.218 454.775H156.604V453.823H162.478C162.478 454.255 162.434 454.673 162.36 455.068H165.363V453.164H166.521ZM166.521 460.415V463.594H159.255V465.117H166.96V466.069H158.112V462.715H165.363V461.353H158.083V460.415H166.521ZM175.371 453.398C178.272 453.398 179.971 454.189 179.971 455.64C179.971 457.119 178.272 457.91 175.371 457.925C172.471 457.91 170.757 457.119 170.757 455.64C170.757 454.189 172.471 453.398 175.371 453.398ZM175.371 454.263C173.203 454.263 171.943 454.79 171.958 455.64C171.943 456.548 173.203 457.046 175.371 457.046C177.524 457.046 178.799 456.548 178.799 455.64C178.799 454.79 177.524 454.263 175.371 454.263ZM181.304 458.804V459.741H169.439V458.804H181.304ZM179.78 460.869V463.784H172.046V465.132H180.176V466.04H170.903V462.935H178.652V461.748H170.874V460.869H179.78ZM199.591 463.55V464.517H187.667V463.55H193.043V460.386H194.2V463.55H199.591ZM194.2 455.64C194.2 457.72 196.778 459.507 199.02 459.873L198.551 460.781C196.559 460.393 194.457 459.126 193.629 457.31C192.787 459.133 190.692 460.43 188.736 460.84L188.253 459.917C190.45 459.536 193.014 457.72 193.014 455.64V455.317H188.648V454.351H198.565V455.317H194.2V455.64ZM212.177 453.164V460.884H211.02V458.833H207.973V459.946H201.996V454.16H207.973V455.288H211.02V453.164H212.177ZM203.139 455.098V459.009H206.845V455.098H203.139ZM207.856 461.265C210.565 461.265 212.221 462.158 212.221 463.726C212.221 465.278 210.565 466.157 207.856 466.157C205.146 466.157 203.49 465.278 203.49 463.726C203.49 462.158 205.146 461.265 207.856 461.265ZM207.856 462.158C205.863 462.173 204.618 462.744 204.633 463.726C204.618 464.663 205.863 465.249 207.856 465.249C209.848 465.249 211.078 464.663 211.078 463.726C211.078 462.744 209.848 462.173 207.856 462.158ZM207.973 457.866H211.02V456.24H207.973V457.866ZM231.519 459.712V460.664H219.609V459.712H224.971V457.705H226.099V459.712H231.519ZM226.113 453.984C226.113 455.713 228.457 457.163 230.757 457.485L230.288 458.408C228.311 458.064 226.355 457.017 225.542 455.508C224.722 457.024 222.759 458.064 220.767 458.408L220.327 457.485C222.627 457.163 224.956 455.713 224.956 453.984V453.369H226.113V453.984ZM230.01 461.938V466.187H228.853V462.861H220.928V461.938H230.01ZM244.485 453.164V466.187H243.372V453.164H244.485ZM241.863 453.442V465.527H240.765V459.199H239.095C238.97 461.733 237.894 463.315 236.282 463.315C234.583 463.315 233.484 461.558 233.484 458.789C233.484 456.021 234.583 454.263 236.282 454.263C237.864 454.263 238.934 455.793 239.08 458.247H240.765V453.442H241.863ZM236.282 455.347C235.228 455.347 234.554 456.665 234.568 458.789C234.554 460.898 235.228 462.231 236.282 462.217C237.337 462.231 238.011 460.898 238.011 458.789C238.011 456.665 237.337 455.347 236.282 455.347ZM261.732 453.164V456.357H263.695V457.324H261.732V460.562H260.59V453.164H261.732ZM257.939 454.058V454.995H253.31V458.833C255.924 458.848 257.411 458.752 259.154 458.408L259.301 459.346C257.47 459.712 255.917 459.785 253.178 459.785H252.167V454.058H257.939ZM261.732 461.235V466.011H253.515V461.235H261.732ZM254.643 462.173V465.073H260.59V462.173H254.643ZM268.752 454.175C270.671 454.189 272.033 455.947 272.048 458.716C272.033 461.484 270.671 463.242 268.752 463.242C266.818 463.242 265.471 461.484 265.471 458.716C265.471 455.947 266.818 454.189 268.752 454.175ZM268.752 455.2C267.463 455.215 266.555 456.592 266.555 458.716C266.555 460.84 267.463 462.217 268.752 462.217C270.056 462.217 270.935 460.84 270.935 458.716C270.935 456.592 270.056 455.215 268.752 455.2ZM275.344 453.164V458.364H277.526V459.36H275.344V466.187H274.201V453.164H275.344ZM290.039 453.179V460.269H288.94V457.28H287.095V460.151H286.011V453.428H287.095V456.357H288.94V453.179H290.039ZM282.598 460.854V462.437H288.911V460.854H290.039V466.011H281.455V460.854H282.598ZM282.598 465.059H288.911V463.359H282.598V465.059ZM280.781 454.028V458.452C282.144 458.445 283.469 458.372 285.059 458.071L285.19 459.038C283.418 459.36 282.012 459.404 280.459 459.404H279.639V454.028H280.781ZM303.431 453.164V466.187H302.288V453.164H303.431ZM294.671 454.453V461.836C296.656 461.829 298.714 461.667 300.897 461.206L301.058 462.188C298.743 462.671 296.678 462.832 294.598 462.832H293.543V454.453H294.671ZM316.485 453.164V458.32H318.668V459.287H316.485V466.216H315.343V453.164H316.485ZM313.058 454.438V455.391H308.121V461.982C310.48 461.982 312.149 461.873 314.083 461.514L314.23 462.51C312.193 462.876 310.48 462.949 308.004 462.949H306.979V454.438H313.058ZM321.498 465.088C320.985 465.088 320.546 464.663 320.561 464.136C320.546 463.623 320.985 463.198 321.498 463.198C322.011 463.198 322.436 463.623 322.436 464.136C322.436 464.663 322.011 465.088 321.498 465.088Z" fill="#1A1A1A"/>
</svg>
