<svg width="511" height="344" viewBox="0 0 511 344" fill="none" xmlns="http://www.w3.org/2000/svg">
<path d="M84.3423 1.2998L87.4624 10.1914H87.5796L90.7144 1.2998H92.106L88.2241 11.9053H86.8325L82.9507 1.2998H84.3423ZM101.235 1.2998H102.553V8.31641C102.553 10.499 100.927 12.0957 98.4224 12.0957C95.9175 12.0957 94.2915 10.499 94.2915 8.31641V1.2998H95.6099V8.21387C95.6099 9.75195 96.6792 10.8652 98.4224 10.8652C100.18 10.8652 101.235 9.75195 101.235 8.21387V1.2998ZM105.647 11.9053V1.2998H109.25C111.741 1.2998 112.869 2.67676 112.869 4.56641C112.869 5.96533 112.239 7.07129 110.891 7.54004L113.279 11.9053H111.741L109.529 7.77441L109.265 7.78906H106.965V11.9053H105.647ZM106.965 6.58789H109.207C110.891 6.58789 111.565 5.82617 111.565 4.56641C111.565 3.29199 110.891 2.47168 109.192 2.47168H106.965V6.58789ZM115.523 11.9053V1.2998H121.954V2.47168H116.841V6.0166H121.617V7.17383H116.841V10.7334H122.027V11.9053H115.523ZM134.671 4.02441V4.94727H125.75V0.552734H126.893V4.02441H134.671ZM136.048 6.71973V7.65723H124.125V6.71973H136.048ZM134.745 11.8174V12.7695H125.677V8.99023H126.82V11.8174H134.745ZM146.733 3.57031C146.733 5.87012 148.256 8.22852 150.102 9.13672L149.399 10.0596C147.963 9.30518 146.762 7.76709 146.191 5.95801C145.605 7.88428 144.375 9.5249 142.91 10.3086L142.177 9.38574C144.082 8.44824 145.59 5.94336 145.605 3.57031V1.19727H146.733V3.57031ZM152.446 0.0693359V5.35742H154.628V6.35352H152.446V13.0918H151.303V0.0693359H152.446ZM166.262 0.0839844V3.35059H168.24V4.31738H166.262V7.9502H165.12V0.0839844H166.262ZM162.542 0.889648V4.40527H157.795V6.22168C160.11 6.22168 161.787 6.14111 163.816 5.79688L163.933 6.76367C161.838 7.11523 160.095 7.18848 157.678 7.18848H156.667V3.49707H161.414V1.8418H156.638V0.889648H162.542ZM162.087 8.3457C164.739 8.3457 166.379 9.22461 166.379 10.7188C166.379 12.2129 164.739 13.0625 162.087 13.0625C159.392 13.0625 157.766 12.2129 157.766 10.7188C157.766 9.22461 159.392 8.3457 162.087 8.3457ZM162.087 9.25391C160.095 9.25391 158.879 9.7959 158.894 10.7188C158.879 11.627 160.095 12.1689 162.087 12.1689C164.065 12.1689 165.266 11.627 165.266 10.7188C165.266 9.7959 164.065 9.25391 162.087 9.25391ZM175.728 0.303711C178.628 0.303711 180.328 1.09473 180.328 2.54492C180.328 4.02441 178.628 4.81543 175.728 4.83008C172.828 4.81543 171.114 4.02441 171.114 2.54492C171.114 1.09473 172.828 0.303711 175.728 0.303711ZM175.728 1.16797C173.56 1.16797 172.3 1.69531 172.315 2.54492C172.3 3.45312 173.56 3.95117 175.728 3.95117C177.881 3.95117 179.156 3.45312 179.156 2.54492C179.156 1.69531 177.881 1.16797 175.728 1.16797ZM181.661 5.70898V6.64648H169.795V5.70898H181.661ZM180.137 7.77441V10.6895H172.403V12.0371H180.533V12.9453H171.26V9.83984H179.009V8.65332H171.231V7.77441H180.137ZM192.711 2.48633C192.711 4.24414 194.103 5.84082 196.051 6.4707L195.465 7.36426C193.949 6.85156 192.741 5.7749 192.155 4.39062C191.583 5.87744 190.36 7.04932 188.815 7.61328L188.214 6.71973C190.163 6.03125 191.554 4.33203 191.554 2.48633V1.92969H188.507V0.992188H195.714V1.92969H192.711V2.48633ZM198.776 0.0693359V7.9502H197.633V0.0693359H198.776ZM198.776 8.63867V13.0918H197.633V9.59082H190.016V8.63867H198.776ZM212.519 0.0693359V7.14453H211.376V4.2002H208.74V3.2334H211.376V0.0693359H212.519ZM205.297 7.77441V9.40039H211.376V7.77441H212.519V12.916H204.14V7.77441H205.297ZM205.297 11.9785H211.376V10.3232H205.297V11.9785ZM206.264 2.19336C206.264 3.86328 207.568 5.50391 209.472 6.16309L208.872 7.05664C207.399 6.52197 206.264 5.43066 205.708 4.08301C205.144 5.5918 203.942 6.80029 202.397 7.36426L201.796 6.45605C203.715 5.76758 205.107 4.03906 205.107 2.19336V1.8125H202.163V0.860352H209.179V1.8125H206.264V2.19336ZM230.147 0.0693359V2.89648H232.11V3.86328H230.147V6.70508H229.004V0.0693359H230.147ZM226.543 0.816406V6.0166H220.523V0.816406H226.543ZM221.651 1.75391V5.09375H225.43V1.75391H221.651ZM230.147 7.32031V10.499H222.999V11.9932H230.63V12.916H221.871V9.62012H229.004V8.24316H221.841V7.32031H230.147ZM243.758 0.0693359V5.44531H245.941V6.39746H243.758V13.0918H242.616V0.0693359H243.758ZM241.356 2.16406V3.11621H233.607V2.16406H236.961V0.230469H238.104V2.16406H241.356ZM237.547 4.2002C239.393 4.2002 240.726 5.43066 240.741 7.18848C240.726 8.94629 239.393 10.1768 237.547 10.1768C235.687 10.1768 234.339 8.94629 234.354 7.18848C234.339 5.43066 235.687 4.2002 237.547 4.2002ZM237.547 5.16699C236.332 5.16699 235.438 6.0166 235.453 7.18848C235.438 8.375 236.332 9.20996 237.547 9.19531C238.749 9.20996 239.627 8.375 239.642 7.18848C239.627 6.0166 238.749 5.16699 237.547 5.16699ZM252.052 4.06836C252.052 6.28027 253.664 8.52148 255.583 9.35645L254.938 10.2646C253.415 9.56885 252.096 8.06738 251.496 6.26562C250.88 8.17725 249.569 9.83984 248.083 10.5869L247.394 9.67871C249.254 8.78516 250.88 6.32422 250.895 4.06836V2.36914H247.819V1.41699H255.158V2.36914H252.052V4.06836ZM258.131 0.0693359V13.0918H256.974V0.0693359H258.131ZM269.255 0.816406C271.204 0.816406 272.639 2.06152 272.639 3.81934C272.639 5.5918 271.204 6.82227 269.255 6.83691C267.307 6.82227 265.857 5.5918 265.872 3.81934C265.857 2.06152 267.307 0.816406 269.255 0.816406ZM269.255 1.7832C267.981 1.7832 266.985 2.64746 267 3.81934C266.985 5.02051 267.981 5.88477 269.255 5.88477C270.544 5.88477 271.511 5.02051 271.511 3.81934C271.511 2.64746 270.544 1.7832 269.255 1.7832ZM275.803 0.0693359V3.01367H277.766V3.96582H275.803V6.58789H274.661V0.0693359H275.803ZM268.127 7.99414V11.7881C268.882 11.7661 269.885 11.6562 270.808 11.3486L270.984 12.2715C269.709 12.6963 268.479 12.7402 267.629 12.7402H267.014V7.99414H268.127ZM277.107 8.05273V8.94629H270.53V8.05273H273.269V6.89551H274.397V8.05273H277.107ZM273.811 9.38574C275.232 9.38574 276.243 10.1035 276.257 11.2314C276.243 12.3594 275.232 13.0625 273.811 13.0625C272.375 13.0625 271.379 12.3594 271.394 11.2314C271.379 10.1035 272.375 9.38574 273.811 9.38574ZM273.811 10.2207C273.005 10.2207 272.419 10.6309 272.419 11.2314C272.419 11.8467 273.005 12.2422 273.811 12.2422C274.631 12.2422 275.203 11.8467 275.203 11.2314C275.203 10.6309 274.631 10.2207 273.811 10.2207ZM281.988 7.8916V9.41504H288.492V7.8916H289.649V12.916H280.845V7.8916H281.988ZM281.988 11.9932H288.492V10.3232H281.988V11.9932ZM291.202 6.0166V6.96875H279.336V6.0166H291.202ZM285.87 0.831055C285.87 2.44238 288.243 3.87793 290.528 4.1709L290.103 5.09375C288.082 4.79346 286.104 3.76074 285.284 2.2959C284.449 3.76807 282.457 4.79346 280.45 5.09375L280.01 4.1709C282.325 3.86328 284.683 2.48633 284.683 0.831055V0.21582H285.87V0.831055ZM303.788 0.0693359V13.0918H302.645V0.0693359H303.788ZM295.028 1.3584V8.74121C297.013 8.73389 299.071 8.57275 301.253 8.11133L301.415 9.09277C299.1 9.57617 297.035 9.7373 294.955 9.7373H293.9V1.3584H295.028ZM316.842 0.0693359V5.22559H319.025V6.19238H316.842V13.1211H315.7V0.0693359H316.842ZM313.415 1.34375V2.2959H308.478V8.8877C310.836 8.8877 312.506 8.77783 314.44 8.41895L314.586 9.41504C312.55 9.78125 310.836 9.85449 308.361 9.85449H307.335V1.34375H313.415ZM321.855 11.9932C321.342 11.9932 320.903 11.5684 320.917 11.041C320.903 10.5283 321.342 10.1035 321.855 10.1035C322.368 10.1035 322.792 10.5283 322.792 11.041C322.792 11.5684 322.368 11.9932 321.855 11.9932ZM340.655 0.0693359V13.0918H339.556V6.26562H337.637V12.418H336.583V0.362305H337.637V5.31348H339.556V0.0693359H340.655ZM334.883 1.66602V2.61816H331.148V8.8877C332.942 8.88037 334.188 8.81445 335.63 8.52148L335.733 9.48828C334.166 9.81055 332.833 9.86914 330.84 9.86914H330.005V1.66602H334.883ZM353.988 0.0839844V9.63477H352.845V0.0839844H353.988ZM354.398 11.8467V12.8135H345.58V8.75586H346.722V11.8467H354.398ZM347.85 2.12012C347.835 4.09766 349.198 5.88477 351.131 6.58789L350.531 7.51074C349.022 6.93213 347.85 5.76025 347.279 4.25879C346.7 5.85547 345.514 7.13721 343.998 7.74512L343.368 6.85156C345.345 6.08984 346.678 4.1709 346.678 2.12012V0.816406H347.85V2.12012ZM359.088 10.9238L357.946 14.9082H356.862L357.667 10.9238H359.088ZM376.233 0.0839844V4.37598H378.196V5.34277H376.233V9.83984H375.09V0.0839844H376.233ZM373.845 1.68066V2.61816H366.082V1.68066H369.392V0.0839844H370.535V1.68066H373.845ZM369.963 3.33594C371.824 3.33594 373.083 4.28809 373.098 5.76758C373.083 7.23242 371.824 8.16992 369.963 8.16992C368.088 8.16992 366.814 7.23242 366.829 5.76758C366.814 4.28809 368.088 3.33594 369.963 3.33594ZM369.963 4.24414C368.733 4.24414 367.913 4.84473 367.927 5.76758C367.913 6.69043 368.733 7.27637 369.963 7.26172C371.179 7.27637 372 6.69043 372.014 5.76758C372 4.84473 371.179 4.24414 369.963 4.24414ZM376.833 11.8467V12.8135H368.088V9.06348H369.216V11.8467H376.833ZM390.77 4.625V6.54395H396.146V7.48145H384.281V6.54395H389.642V4.625H390.77ZM390.785 0.889648C390.785 2.61816 393.128 4.06836 395.428 4.39062L394.959 5.31348C392.982 4.96924 391.026 3.92188 390.213 2.41309C389.393 3.9292 387.43 4.96924 385.438 5.31348L384.999 4.39062C387.298 4.06836 389.627 2.61816 389.627 0.889648V0.274414H390.785V0.889648ZM390.213 8.56543C393.011 8.56543 394.681 9.37109 394.696 10.8213C394.681 12.2715 393.011 13.0625 390.213 13.0625C387.386 13.0625 385.716 12.2715 385.716 10.8213C385.716 9.37109 387.386 8.56543 390.213 8.56543ZM390.213 9.47363C388.104 9.47363 386.874 9.95703 386.888 10.8213C386.874 11.6709 388.104 12.1689 390.213 12.1689C392.293 12.1689 393.539 11.6709 393.539 10.8213C393.539 9.95703 392.293 9.47363 390.213 9.47363ZM408.732 0.0693359V13.1211H407.575V0.0693359H408.732ZM401.803 1.08008C403.737 1.09473 405.128 2.85254 405.128 5.62109C405.128 8.38965 403.737 10.1475 401.803 10.1475C399.855 10.1475 398.478 8.38965 398.478 5.62109C398.478 2.85254 399.855 1.09473 401.803 1.08008ZM401.803 2.10547C400.5 2.12012 399.591 3.49707 399.591 5.62109C399.591 7.74512 400.5 9.12207 401.803 9.12207C403.107 9.12207 404.015 7.74512 404.015 5.62109C404.015 3.49707 403.107 2.12012 401.803 2.10547ZM426.741 0.582031V1.09473C426.741 1.8418 426.741 3.14551 426.36 4.87402L425.247 4.72754C425.547 3.28467 425.598 2.25928 425.613 1.53418H422.317V0.582031H426.741ZM428.088 5.66504V6.61719H416.238V5.66504H421.848V3.40918H422.991V5.66504H428.088ZM421.233 0.582031V1.06543C421.233 1.79785 421.233 3.11621 420.632 4.87402L419.504 4.68359C419.988 3.25537 420.083 2.24463 420.105 1.53418H417.263V0.582031H421.233ZM426.521 8.41895V9.3418H422.727C422.881 10.7114 424.91 11.8613 427.063 12.1396L426.638 13.0186C424.705 12.7329 422.91 11.8394 422.141 10.543C421.372 11.832 419.585 12.7329 417.659 13.0186L417.249 12.1396C419.373 11.8613 421.387 10.7114 421.555 9.3418H417.761V8.41895H421.57V7.07129H422.712V8.41895H426.521ZM441.099 0.0693359V13.0918H439.986V0.0693359H441.099ZM438.477 0.347656V12.4326H437.378V6.10449H435.708C435.584 8.63867 434.507 10.2207 432.896 10.2207C431.197 10.2207 430.098 8.46289 430.098 5.69434C430.098 2.92578 431.197 1.16797 432.896 1.16797C434.478 1.16797 435.547 2.69873 435.694 5.15234H437.378V0.347656H438.477ZM432.896 2.25195C431.841 2.25195 431.167 3.57031 431.182 5.69434C431.167 7.80371 431.841 9.13672 432.896 9.12207C433.951 9.13672 434.625 7.80371 434.625 5.69434C434.625 3.57031 433.951 2.25195 432.896 2.25195ZM458.346 0.0693359V3.2627H460.309V4.22949H458.346V7.4668H457.204V0.0693359H458.346ZM454.552 0.962891V1.90039H449.923V5.73828C452.538 5.75293 454.025 5.65771 455.768 5.31348L455.915 6.25098C454.083 6.61719 452.531 6.69043 449.792 6.69043H448.781V0.962891H454.552ZM458.346 8.14062V12.916H450.128V8.14062H458.346ZM451.256 9.07812V11.9785H457.204V9.07812H451.256ZM472.617 0.0839844V9.54688H471.459V0.0839844H472.617ZM468.837 1.06543C468.823 4.43457 466.391 6.93945 462.568 8.12598L462.099 7.18848C465.256 6.229 467.314 4.36133 467.563 2.03223H462.788V1.06543H468.837ZM472.968 11.8467V12.8135H464.135V8.77051H465.292V11.8467H472.968ZM490.904 0.0839844V9.67871H489.747V4.6543H487.022C486.766 6.2583 485.418 7.34961 483.697 7.34961C481.749 7.34961 480.313 6.0166 480.313 4.12695C480.313 2.2373 481.749 0.918945 483.697 0.918945C485.455 0.918945 486.824 2.03955 487.037 3.70215H489.747V0.0839844H490.904ZM491.27 11.8467V12.8135H482.54V8.69727H483.697V11.8467H491.27ZM483.697 1.92969C482.393 1.94434 481.412 2.83789 481.412 4.12695C481.412 5.41602 482.393 6.33887 483.697 6.35352C484.971 6.33887 485.953 5.41602 485.953 4.12695C485.953 2.83789 484.971 1.94434 483.697 1.92969ZM497.323 1.08008C499.095 1.09473 500.37 2.61084 500.56 5.0498H503.475V0.0693359H504.618V13.1211H503.475V6.00195H500.575C500.436 8.55078 499.139 10.1475 497.323 10.1475C495.404 10.1475 494.056 8.38965 494.056 5.62109C494.056 2.85254 495.404 1.09473 497.323 1.08008ZM497.323 2.10547C496.034 2.12012 495.155 3.49707 495.155 5.62109C495.155 7.74512 496.034 9.12207 497.323 9.12207C498.597 9.12207 499.491 7.74512 499.491 5.62109C499.491 3.49707 498.597 2.12012 497.323 2.10547ZM509.674 10.9238L508.532 14.9082H507.448L508.253 10.9238H509.674ZM248.689 30.582V31.0947C248.689 31.8418 248.689 33.1455 248.308 34.874L247.195 34.7275C247.495 33.2847 247.546 32.2593 247.561 31.5342H244.265V30.582H248.689ZM250.037 35.665V36.6172H238.186V35.665H243.796V33.4092H244.939V35.665H250.037ZM243.181 30.582V31.0654C243.181 31.7979 243.181 33.1162 242.581 34.874L241.453 34.6836C241.936 33.2554 242.031 32.2446 242.053 31.5342H239.211V30.582H243.181ZM248.469 38.4189V39.3418H244.675C244.829 40.7114 246.858 41.8613 249.011 42.1396L248.586 43.0186C246.653 42.7329 244.858 41.8394 244.089 40.543C243.32 41.832 241.533 42.7329 239.607 43.0186L239.197 42.1396C241.321 41.8613 243.335 40.7114 243.503 39.3418H239.709V38.4189H243.518V37.0713H244.661V38.4189H248.469ZM262.066 30.0693V32.8965H264.029V33.8633H262.066V36.7051H260.923V30.0693H262.066ZM258.462 30.8164V36.0166H252.442V30.8164H258.462ZM253.57 31.7539V35.0938H257.349V31.7539H253.57ZM262.066 37.3203V40.499H254.917V41.9932H262.549V42.916H253.79V39.6201H260.923V38.2432H253.76V37.3203H262.066ZM271.532 30.3037C274.432 30.3037 276.131 31.0947 276.131 32.5449C276.131 34.0244 274.432 34.8154 271.532 34.8301C268.631 34.8154 266.917 34.0244 266.917 32.5449C266.917 31.0947 268.631 30.3037 271.532 30.3037ZM271.532 31.168C269.364 31.168 268.104 31.6953 268.119 32.5449C268.104 33.4531 269.364 33.9512 271.532 33.9512C273.685 33.9512 274.959 33.4531 274.959 32.5449C274.959 31.6953 273.685 31.168 271.532 31.168ZM277.464 35.709V36.6465H265.599V35.709H277.464ZM275.941 37.7744V40.6895H268.207V42.0371H276.336V42.9453H267.064V39.8398H274.813V38.6533H267.035V37.7744H275.941ZM295.693 36.9834V37.9209H283.813V36.9834H289.174V35.6943H285.395V30.4502H294.213V31.3877H286.552V32.6035H293.862V33.4824H286.552V34.7715H294.287V35.6943H290.317V36.9834H295.693ZM289.76 38.9023C292.617 38.8877 294.228 39.6201 294.243 40.9824C294.228 42.3447 292.617 43.0625 289.76 43.0625C286.875 43.0625 285.263 42.3447 285.263 40.9824C285.263 39.6201 286.875 38.8877 289.76 38.9023ZM289.76 39.7666C287.607 39.7666 286.406 40.2061 286.42 40.9824C286.406 41.7734 287.607 42.1836 289.76 42.1689C291.884 42.1836 293.085 41.7734 293.085 40.9824C293.085 40.2061 291.884 39.7666 289.76 39.7666ZM304.045 32.3252V33.2627H297.512V32.3252H300.222V30.4648H301.365V32.3252H304.045ZM300.779 34.1416C302.419 34.1416 303.591 35.3721 303.606 37.1006C303.591 38.8438 302.419 40.0889 300.779 40.0889C299.153 40.0889 297.981 38.8438 297.981 37.1006C297.981 35.3721 299.153 34.1416 300.779 34.1416ZM300.779 35.1084C299.753 35.123 299.006 35.958 299.006 37.1006C299.006 38.2578 299.753 39.0928 300.779 39.0781C301.819 39.0928 302.581 38.2578 302.581 37.1006C302.581 35.958 301.819 35.123 300.779 35.1084ZM308.63 30.0693V43.0918H307.532V36.5146H305.803V42.4473H304.719V30.3916H305.803V35.5625H307.532V30.0693H308.63ZM320.135 33.5703C320.135 35.8701 321.659 38.2285 323.504 39.1367L322.801 40.0596C321.366 39.3052 320.165 37.7671 319.593 35.958C319.007 37.8843 317.777 39.5249 316.312 40.3086L315.58 39.3857C317.484 38.4482 318.993 35.9434 319.007 33.5703V31.1973H320.135V33.5703ZM325.848 30.0693V35.3574H328.031V36.3535H325.848V43.0918H324.706V30.0693H325.848ZM339.665 30.084V33.3506H341.642V34.3174H339.665V37.9502H338.522V30.084H339.665ZM335.944 30.8896V34.4053H331.198V36.2217C333.512 36.2217 335.189 36.1411 337.218 35.7969L337.335 36.7637C335.241 37.1152 333.498 37.1885 331.081 37.1885H330.07V33.4971H334.816V31.8418H330.041V30.8896H335.944ZM335.49 38.3457C338.141 38.3457 339.782 39.2246 339.782 40.7188C339.782 42.2129 338.141 43.0625 335.49 43.0625C332.794 43.0625 331.168 42.2129 331.168 40.7188C331.168 39.2246 332.794 38.3457 335.49 38.3457ZM335.49 39.2539C333.498 39.2539 332.282 39.7959 332.296 40.7188C332.282 41.627 333.498 42.1689 335.49 42.1689C337.467 42.1689 338.668 41.627 338.668 40.7188C338.668 39.7959 337.467 39.2539 335.49 39.2539ZM347.46 31.0215C349.511 31.0215 350.961 32.2666 350.961 34.083C350.961 35.8994 349.511 37.1445 347.46 37.1445C345.41 37.1445 343.93 35.8994 343.945 34.083C343.93 32.2666 345.41 31.0215 347.46 31.0215ZM347.46 32.0322C346.069 32.0322 345.058 32.8672 345.073 34.083C345.058 35.2988 346.069 36.1338 347.46 36.1338C348.837 36.1338 349.833 35.2988 349.833 34.083C349.833 32.8672 348.837 32.0322 347.46 32.0322ZM353.876 30.0693V43.1211H352.734V30.0693H353.876ZM343.271 39.2686C345.673 39.2686 348.984 39.2539 351.87 38.8291L351.958 39.6787C348.984 40.2354 345.776 40.25 343.432 40.25L343.271 39.2686ZM371.504 30.0693V35.2256H373.687V36.1924H371.504V43.1211H370.362V30.0693H371.504ZM368.077 31.3438V32.2959H363.14V38.8877C365.499 38.8877 367.168 38.7778 369.102 38.4189L369.249 39.415C367.212 39.7812 365.499 39.8545 363.023 39.8545H361.998V31.3438H368.077ZM387.254 32.0469V32.999H385.321V34.8154H387.254V35.7822H385.321V37.8037H384.178V30.0693H385.321V32.0469H387.254ZM378.802 30.8604C380.78 30.8457 382.215 32.1055 382.23 33.9219C382.215 35.7383 380.78 36.9688 378.802 36.9834C376.825 36.9688 375.375 35.7383 375.389 33.9219C375.375 32.1055 376.825 30.8457 378.802 30.8604ZM378.802 31.8418C377.484 31.8271 376.502 32.6914 376.517 33.9219C376.502 35.1523 377.484 36.002 378.802 36.0166C380.135 36.002 381.102 35.1523 381.102 33.9219C381.102 32.6914 380.135 31.8271 378.802 31.8418ZM381.146 38.1992C383.797 38.2139 385.438 39.0928 385.438 40.6455C385.438 42.1689 383.797 43.0625 381.146 43.0625C378.48 43.0625 376.825 42.1689 376.825 40.6455C376.825 39.0928 378.48 38.2139 381.146 38.1992ZM381.146 39.1367C379.183 39.1367 377.967 39.6934 377.982 40.6455C377.967 41.583 379.183 42.1396 381.146 42.1396C383.124 42.1396 384.325 41.583 384.325 40.6455C384.325 39.6934 383.124 39.1367 381.146 39.1367ZM399.035 30.084V34.376H400.998V35.3428H399.035V39.8398H397.892V30.084H399.035ZM396.647 31.6807V32.6182H388.883V31.6807H392.194V30.084H393.336V31.6807H396.647ZM392.765 33.3359C394.625 33.3359 395.885 34.2881 395.9 35.7676C395.885 37.2324 394.625 38.1699 392.765 38.1699C390.89 38.1699 389.616 37.2324 389.63 35.7676C389.616 34.2881 390.89 33.3359 392.765 33.3359ZM392.765 34.2441C391.535 34.2441 390.714 34.8447 390.729 35.7676C390.714 36.6904 391.535 37.2764 392.765 37.2617C393.981 37.2764 394.801 36.6904 394.816 35.7676C394.801 34.8447 393.981 34.2441 392.765 34.2441ZM399.635 41.8467V42.8135H390.89V39.0635H392.018V41.8467H399.635ZM411.448 33.5703C411.448 35.8701 412.971 38.2285 414.817 39.1367L414.114 40.0596C412.678 39.3052 411.477 37.7671 410.906 35.958C410.32 37.8843 409.089 39.5249 407.625 40.3086L406.892 39.3857C408.796 38.4482 410.305 35.9434 410.32 33.5703V31.1973H411.448V33.5703ZM417.161 30.0693V35.3574H419.343V36.3535H417.161V43.0918H416.018V30.0693H417.161ZM431.592 30.084V39.708H430.435V36.1924H427.066C426.465 36.9614 425.499 37.4229 424.385 37.4229C422.437 37.4229 421.001 36.0752 421.001 34.1709C421.001 32.2666 422.437 30.9189 424.385 30.9043C425.491 30.9116 426.436 31.3657 427.051 32.1201H430.435V30.084H431.592ZM431.958 41.8467V42.8135H423.228V38.6973H424.385V41.8467H431.958ZM424.385 31.9297C423.052 31.9443 422.1 32.8672 422.1 34.1709C422.1 35.4746 423.052 36.3975 424.385 36.3975C425.66 36.3975 426.641 35.4746 426.641 34.1709C426.641 32.8672 425.66 31.9443 424.385 31.9297ZM427.579 33.0723C427.688 33.4092 427.754 33.7754 427.754 34.1709C427.754 34.5518 427.688 34.9106 427.579 35.2402H430.435V33.0723H427.579ZM440.443 30.3037C443.343 30.3037 445.042 31.0947 445.042 32.5449C445.042 34.0244 443.343 34.8154 440.443 34.8301C437.542 34.8154 435.829 34.0244 435.829 32.5449C435.829 31.0947 437.542 30.3037 440.443 30.3037ZM440.443 31.168C438.275 31.168 437.015 31.6953 437.03 32.5449C437.015 33.4531 438.275 33.9512 440.443 33.9512C442.596 33.9512 443.871 33.4531 443.871 32.5449C443.871 31.6953 442.596 31.168 440.443 31.168ZM446.375 35.709V36.6465H434.51V35.709H446.375ZM444.852 37.7744V40.6895H437.118V42.0371H445.248V42.9453H435.975V39.8398H443.724V38.6533H435.946V37.7744H444.852ZM463.535 30.084V39.6348H462.377V34.6396H459.697V33.6875H462.377V30.084H463.535ZM463.901 41.8467V42.8135H455.17V38.7705H456.328V41.8467H463.901ZM457.265 32.7646C457.265 34.4492 458.569 36.0898 460.473 36.7344L459.873 37.6572C458.4 37.1299 457.265 36.0312 456.708 34.6836C456.145 36.1851 454.943 37.3862 453.398 37.9648L452.797 37.0273C454.716 36.3535 456.108 34.6396 456.108 32.7646V32.0908H453.164V31.1387H460.18V32.0908H457.265V32.7646ZM476.633 30.0693V33.4092H478.596V34.3906H476.633V37.6426H475.491V30.0693H476.633ZM469.543 38.2139V39.6055H475.491V38.2139H476.633V42.916H468.401V38.2139H469.543ZM469.543 41.9932H475.491V40.5137H469.543V41.9932ZM474.246 31.417V32.3691H466.482V31.417H469.792V29.9521H470.935V31.417H474.246ZM470.364 32.9697C472.239 32.9697 473.484 33.8633 473.499 35.2549C473.484 36.6465 472.239 37.54 470.364 37.54C468.474 37.54 467.214 36.6465 467.229 35.2549C467.214 33.8633 468.474 32.9697 470.364 32.9697ZM470.364 33.8633C469.133 33.8486 468.313 34.4199 468.328 35.2549C468.313 36.1045 469.133 36.6611 470.364 36.6611C471.58 36.6611 472.4 36.1045 472.415 35.2549C472.4 34.4199 471.58 33.8486 470.364 33.8633ZM490.904 30.0693V43.0918H489.761V30.0693H490.904ZM482.144 31.3584V38.7412C484.129 38.7339 486.187 38.5728 488.37 38.1113L488.531 39.0928C486.216 39.5762 484.151 39.7373 482.071 39.7373H481.016V31.3584H482.144ZM503.958 30.0693V35.2256H506.141V36.1924H503.958V43.1211H502.816V30.0693H503.958ZM500.531 31.3438V32.2959H495.594V38.8877C497.953 38.8877 499.623 38.7778 501.556 38.4189L501.703 39.415C499.667 39.7812 497.953 39.8545 495.477 39.8545H494.452V31.3438H500.531ZM508.971 41.9932C508.458 41.9932 508.019 41.5684 508.034 41.041C508.019 40.5283 508.458 40.1035 508.971 40.1035C509.484 40.1035 509.909 40.5283 509.909 41.041C509.909 41.5684 509.484 41.9932 508.971 41.9932ZM10.9683 90.0693V93.3799H12.9312V94.3613H10.9683V97.7158H9.82568V90.0693H10.9683ZM7.39404 90.9043C7.39404 94.2002 5.09424 96.5439 1.2417 97.5693L0.772949 96.6758C3.96631 95.8115 5.93652 94.0684 6.17822 91.8564H1.35889V90.9043H7.39404ZM10.9683 98.3164V103.092H9.82568V99.2539H2.44287V98.3164H10.9683ZM23.645 93.5703C23.6304 95.9434 25.2563 98.3457 27.1753 99.21L26.4722 100.118C24.9927 99.3931 23.7109 97.8623 23.0884 96.002C22.4805 97.9722 21.1987 99.6128 19.6753 100.382L18.9429 99.415C20.8765 98.5215 22.4878 96.0459 22.5024 93.5703V91.1973H23.645V93.5703ZM29.7534 90.0693V103.121H28.5962V90.0693H29.7534ZM43.4819 90.0693V103.121H42.3394V90.0693H43.4819ZM39.5269 91.2852V95.9141H34.6636V98.9902C36.8242 98.9902 38.7505 98.895 41.0796 98.5215L41.1968 99.4883C38.7944 99.8691 36.8169 99.957 34.5757 99.957H33.4917V94.9766H38.3696V92.2373H33.4624V91.2852H39.5269ZM58.3677 100.396V101.363H46.4438V100.396H58.3677ZM52.9771 92.9404C52.9771 95.0205 55.5552 96.793 57.7964 97.1592L57.3276 98.0674C55.3354 97.6792 53.2334 96.4048 52.4058 94.6104C51.5635 96.4194 49.4688 97.7305 47.5132 98.126L47.0298 97.2031C49.2271 96.8223 51.7905 95.0205 51.7905 92.9404V92.3398H47.4253V91.3877H57.3423V92.3398H52.9771V92.9404ZM70.6899 94.0244V94.9473H61.769V90.5527H62.9116V94.0244H70.6899ZM72.0669 96.7197V97.6572H60.1431V96.7197H72.0669ZM70.7632 101.817V102.77H61.6958V98.9902H62.8384V101.817H70.7632ZM88.4644 90.0693V95.4453H90.647V96.3975H88.4644V103.092H87.3218V90.0693H88.4644ZM86.062 92.1641V93.1162H78.313V92.1641H81.6675V90.2305H82.8101V92.1641H86.062ZM82.2534 94.2002C84.0991 94.2002 85.4321 95.4307 85.4468 97.1885C85.4321 98.9463 84.0991 100.177 82.2534 100.177C80.3931 100.177 79.0454 98.9463 79.0601 97.1885C79.0454 95.4307 80.3931 94.2002 82.2534 94.2002ZM82.2534 95.167C81.0376 95.167 80.144 96.0166 80.1587 97.1885C80.144 98.375 81.0376 99.21 82.2534 99.1953C83.4546 99.21 84.3335 98.375 84.3481 97.1885C84.3335 96.0166 83.4546 95.167 82.2534 95.167ZM104.288 95.2695V96.2363H102.178V103.092H101.036V90.0693H102.178V95.2695H104.288ZM93.7847 91.3584V98.8145C95.689 98.8071 97.6299 98.6606 99.7759 98.2139L99.9224 99.1953C97.6812 99.6494 95.6597 99.7812 93.6821 99.7812H92.6421V91.3584H93.7847ZM110.077 91.0215C112.127 91.0215 113.578 92.2666 113.578 94.083C113.578 95.8994 112.127 97.1445 110.077 97.1445C108.026 97.1445 106.546 95.8994 106.561 94.083C106.546 92.2666 108.026 91.0215 110.077 91.0215ZM110.077 92.0322C108.685 92.0322 107.674 92.8672 107.689 94.083C107.674 95.2988 108.685 96.1338 110.077 96.1338C111.454 96.1338 112.45 95.2988 112.45 94.083C112.45 92.8672 111.454 92.0322 110.077 92.0322ZM116.493 90.0693V103.121H115.35V90.0693H116.493ZM105.887 99.2686C108.29 99.2686 111.6 99.2539 114.486 98.8291L114.574 99.6787C111.6 100.235 108.392 100.25 106.048 100.25L105.887 99.2686ZM134.56 90.582V91.0947C134.56 91.8418 134.56 93.1455 134.179 94.874L133.066 94.7275C133.366 93.2847 133.417 92.2593 133.432 91.5342H130.136V90.582H134.56ZM135.908 95.665V96.6172H124.057V95.665H129.667V93.4092H130.81V95.665H135.908ZM129.052 90.582V91.0654C129.052 91.7979 129.052 93.1162 128.452 94.874L127.324 94.6836C127.807 93.2554 127.902 92.2446 127.924 91.5342H125.083V90.582H129.052ZM134.34 98.4189V99.3418H130.546C130.7 100.711 132.729 101.861 134.882 102.14L134.458 103.019C132.524 102.733 130.729 101.839 129.96 100.543C129.191 101.832 127.404 102.733 125.478 103.019L125.068 102.14C127.192 101.861 129.206 100.711 129.375 99.3418H125.581V98.4189H129.389V97.0713H130.532V98.4189H134.34ZM148.918 90.0693V103.092H147.805V90.0693H148.918ZM146.296 90.3477V102.433H145.198V96.1045H143.528C143.403 98.6387 142.327 100.221 140.715 100.221C139.016 100.221 137.917 98.4629 137.917 95.6943C137.917 92.9258 139.016 91.168 140.715 91.168C142.297 91.168 143.367 92.6987 143.513 95.1523H145.198V90.3477H146.296ZM140.715 92.252C139.661 92.252 138.987 93.5703 139.001 95.6943C138.987 97.8037 139.661 99.1367 140.715 99.1221C141.77 99.1367 142.444 97.8037 142.444 95.6943C142.444 93.5703 141.77 92.252 140.715 92.252ZM156.055 93.5703C156.055 95.9287 157.564 98.3018 159.454 99.166L158.765 100.104C157.286 99.3418 156.062 97.7817 155.484 95.9287C154.905 97.877 153.682 99.5469 152.203 100.338L151.456 99.415C153.36 98.4775 154.883 95.9727 154.883 93.5703V91.1973H156.055V93.5703ZM162.266 90.0693V103.121H161.124V95.46H158.033V94.5225H161.124V90.0693H162.266ZM174.328 93.5703C174.313 95.9434 175.939 98.3457 177.858 99.21L177.155 100.118C175.675 99.3931 174.394 97.8623 173.771 96.002C173.163 97.9722 171.881 99.6128 170.358 100.382L169.625 99.415C171.559 98.5215 173.17 96.0459 173.185 93.5703V91.1973H174.328V93.5703ZM180.436 90.0693V103.121H179.279V90.0693H180.436ZM187.822 92.4863C187.822 94.2148 189.096 95.7969 191.03 96.4707L190.444 97.3643C188.957 96.8369 187.822 95.7676 187.265 94.4199C186.708 95.8994 185.515 97.0493 183.984 97.6133L183.369 96.7197C185.317 96.0312 186.679 94.3467 186.694 92.4863V91.9297H183.72V90.9922H190.751V91.9297H187.822V92.4863ZM193.593 90.0693V93.5117H195.556V94.4932H193.593V97.9209H192.451V90.0693H193.593ZM193.593 98.6094V103.092H192.451V99.5469H185.068V98.6094H193.593ZM207.878 90.084V97.5693H206.721V90.084H207.878ZM197.17 96.2949C198.276 96.2949 199.565 96.2876 200.906 96.2363V94.8447H198.357V90.7285H204.539V91.6807H199.514V93.9219H204.656V94.8447H202.063V96.1924C203.271 96.1411 204.495 96.0386 205.637 95.8848L205.71 96.7197C202.854 97.2031 199.69 97.2471 197.346 97.2471L197.17 96.2949ZM200.437 98.1553V99.5469H206.75V98.1553H207.878V102.916H199.294V98.1553H200.437ZM200.437 101.979H206.75V100.44H200.437V101.979ZM221.578 90.0693V103.092H220.435V90.0693H221.578ZM212.818 91.3584V98.7412C214.803 98.7339 216.861 98.5728 219.043 98.1113L219.205 99.0928C216.89 99.5762 214.825 99.7373 212.745 99.7373H211.69V91.3584H212.818ZM234.632 90.0693V95.2256H236.815V96.1924H234.632V103.121H233.49V90.0693H234.632ZM231.205 91.3438V92.2959H226.268V98.8877C228.626 98.8877 230.296 98.7778 232.23 98.4189L232.376 99.415C230.34 99.7812 228.626 99.8545 226.151 99.8545H225.125V91.3438H231.205ZM239.645 101.993C239.132 101.993 238.693 101.568 238.708 101.041C238.693 100.528 239.132 100.104 239.645 100.104C240.158 100.104 240.583 100.528 240.583 101.041C240.583 101.568 240.158 101.993 239.645 101.993ZM257.581 91.4609V92.7646C257.581 94.4053 257.581 96.2656 257.097 99.0928L255.925 98.9756C256.453 96.3096 256.453 94.3613 256.453 92.7646V92.4131H248.601V91.4609H257.581ZM259.177 100.221V101.173H247.312V100.221H259.177ZM276.058 90.582V91.0947C276.058 91.8418 276.058 93.1455 275.677 94.874L274.564 94.7275C274.864 93.2847 274.916 92.2593 274.93 91.5342H271.634V90.582H276.058ZM277.406 95.665V96.6172H265.555V95.665H271.166V93.4092H272.308V95.665H277.406ZM270.55 90.582V91.0654C270.55 91.7979 270.55 93.1162 269.95 94.874L268.822 94.6836C269.305 93.2554 269.4 92.2446 269.422 91.5342H266.581V90.582H270.55ZM275.838 98.4189V99.3418H272.044C272.198 100.711 274.227 101.861 276.38 102.14L275.956 103.019C274.022 102.733 272.228 101.839 271.458 100.543C270.689 101.832 268.902 102.733 266.976 103.019L266.566 102.14C268.69 101.861 270.704 100.711 270.873 99.3418H267.079V98.4189H270.887V97.0713H272.03V98.4189H275.838ZM289.992 90.0693V103.121H288.834V90.0693H289.992ZM283.063 91.0801C284.997 91.0947 286.388 92.8525 286.388 95.6211C286.388 98.3896 284.997 100.147 283.063 100.147C281.115 100.147 279.738 98.3896 279.738 95.6211C279.738 92.8525 281.115 91.0947 283.063 91.0801ZM283.063 92.1055C281.759 92.1201 280.851 93.4971 280.851 95.6211C280.851 97.7451 281.759 99.1221 283.063 99.1221C284.367 99.1221 285.275 97.7451 285.275 95.6211C285.275 93.4971 284.367 92.1201 283.063 92.1055ZM307.561 90.0693V95.3721H309.67V96.3389H307.561V103.092H306.418V90.0693H307.561ZM304.192 91.4756C304.192 95.167 302.463 98.5215 298.215 100.616L297.571 99.708C300.94 98.0308 302.771 95.5259 303.035 92.4424H298.171V91.4756H304.192ZM315.884 92.8672C315.884 94.625 317.276 96.207 319.224 96.8223L318.638 97.7451C317.122 97.2324 315.914 96.1631 315.328 94.7861C314.756 96.2729 313.533 97.4448 311.988 98.0088L311.387 97.0859C313.335 96.3975 314.727 94.7129 314.727 92.8672V92.1055H311.68V91.168H318.887V92.1055H315.884V92.8672ZM321.949 90.084V99.6348H320.806V90.084H321.949ZM322.359 101.847V102.813H313.541V98.7266H314.683V101.847H322.359ZM339.943 90.582V91.0947C339.943 91.8418 339.943 93.1455 339.562 94.874L338.449 94.7275C338.749 93.2847 338.8 92.2593 338.815 91.5342H335.519V90.582H339.943ZM341.291 95.665V96.6172H329.44V95.665H335.05V93.4092H336.193V95.665H341.291ZM334.435 90.582V91.0654C334.435 91.7979 334.435 93.1162 333.834 94.874L332.707 94.6836C333.19 93.2554 333.285 92.2446 333.307 91.5342H330.465V90.582H334.435ZM339.723 98.4189V99.3418H335.929C336.083 100.711 338.112 101.861 340.265 102.14L339.84 103.019C337.907 102.733 336.112 101.839 335.343 100.543C334.574 101.832 332.787 102.733 330.861 103.019L330.451 102.14C332.575 101.861 334.589 100.711 334.757 99.3418H330.963V98.4189H334.772V97.0713H335.915V98.4189H339.723ZM353.32 90.0693V92.8965H355.283V93.8633H353.32V96.7051H352.177V90.0693H353.32ZM349.716 90.8164V96.0166H343.696V90.8164H349.716ZM344.824 91.7539V95.0938H348.603V91.7539H344.824ZM353.32 97.3203V100.499H346.171V101.993H353.803V102.916H345.043V99.6201H352.177V98.2432H345.014V97.3203H353.32ZM368.718 96.9395V97.877H356.853V96.9395H368.718ZM367.4 101.847V102.813H358.391V99.0195H359.548V101.847H367.4ZM362.786 90.5381C365.583 90.5234 367.385 91.4902 367.385 93.1162C367.385 94.7422 365.583 95.709 362.786 95.709C359.958 95.709 358.171 94.7422 358.171 93.1162C358.171 91.4902 359.958 90.5234 362.786 90.5381ZM362.786 91.4609C360.691 91.4609 359.343 92.0908 359.358 93.1162C359.343 94.1416 360.691 94.7715 362.786 94.7715C364.866 94.7715 366.213 94.1416 366.213 93.1162C366.213 92.0908 364.866 91.4609 362.786 91.4609ZM385.262 90.0693V93.9512H387.24V94.918H385.262V99.5029H384.12V90.0693H385.262ZM381.498 91.1973V92.1641H376.839V96.2217C379.454 96.2217 380.941 96.1558 382.684 95.7969L382.831 96.749C381 97.1006 379.447 97.1885 376.708 97.1885H375.697V91.1973H381.498ZM385.863 101.847V102.813H377.118V98.5508H378.246V101.847H385.863ZM395.329 91.0654C395.329 92.7646 397.702 94.3174 399.958 94.6689L399.503 95.5771C397.526 95.2402 395.57 94.1416 394.743 92.6182C393.922 94.1709 391.945 95.2549 389.967 95.5918L389.513 94.6836C391.784 94.332 394.142 92.8232 394.142 91.0654V90.4062H395.329V91.0654ZM400.705 96.7051V97.6572H395.402V100.323H394.259V97.6572H388.781V96.7051H400.705ZM399.372 101.847V102.813H390.304V99.0488H391.461V101.847H399.372ZM412.69 90.084V94.376H414.653V95.3428H412.69V99.8398H411.547V90.084H412.69ZM410.302 91.6807V92.6182H402.539V91.6807H405.849V90.084H406.992V91.6807H410.302ZM406.42 93.3359C408.281 93.3359 409.541 94.2881 409.555 95.7676C409.541 97.2324 408.281 98.1699 406.42 98.1699C404.545 98.1699 403.271 97.2324 403.286 95.7676C403.271 94.2881 404.545 93.3359 406.42 93.3359ZM406.42 94.2441C405.19 94.2441 404.37 94.8447 404.384 95.7676C404.37 96.6904 405.19 97.2764 406.42 97.2617C407.636 97.2764 408.457 96.6904 408.471 95.7676C408.457 94.8447 407.636 94.2441 406.42 94.2441ZM413.291 101.847V102.813H404.545V99.0635H405.673V101.847H413.291ZM425 91.0215C427.051 91.0215 428.501 92.2666 428.501 94.083C428.501 95.8994 427.051 97.1445 425 97.1445C422.95 97.1445 421.47 95.8994 421.485 94.083C421.47 92.2666 422.95 91.0215 425 91.0215ZM425 92.0322C423.609 92.0322 422.598 92.8672 422.613 94.083C422.598 95.2988 423.609 96.1338 425 96.1338C426.377 96.1338 427.374 95.2988 427.374 94.083C427.374 92.8672 426.377 92.0322 425 92.0322ZM431.417 90.0693V103.121H430.274V90.0693H431.417ZM420.811 99.2686C423.213 99.2686 426.524 99.2539 429.41 98.8291L429.498 99.6787C426.524 100.235 423.316 100.25 420.972 100.25L420.811 99.2686ZM441.234 91.3584V99.8252H435.213V91.3584H441.234ZM436.341 92.2812V98.8877H440.106V92.2812H436.341ZM445.189 90.0693V103.121H444.032V90.0693H445.189ZM458.244 90.0693V95.3721H460.353V96.3389H458.244V103.092H457.101V90.0693H458.244ZM454.875 91.4756C454.875 95.167 453.146 98.5215 448.898 100.616L448.253 99.708C451.623 98.0308 453.454 95.5259 453.717 92.4424H448.854V91.4756H454.875ZM469.88 91.0801C471.799 91.0947 473.162 92.8525 473.176 95.6211C473.162 98.3896 471.799 100.147 469.88 100.147C467.947 100.147 466.599 98.3896 466.599 95.6211C466.599 92.8525 467.947 91.0947 469.88 91.0801ZM469.88 92.1055C468.591 92.1201 467.683 93.4971 467.683 95.6211C467.683 97.7451 468.591 99.1221 469.88 99.1221C471.184 99.1221 472.063 97.7451 472.063 95.6211C472.063 93.4971 471.184 92.1201 469.88 92.1055ZM476.472 90.0693V95.2695H478.655V96.2656H476.472V103.092H475.33V90.0693H476.472ZM490.845 90.0693V103.092H489.703V90.0693H490.845ZM482.085 91.3584V98.7412C484.07 98.7339 486.128 98.5728 488.311 98.1113L488.472 99.0928C486.158 99.5762 484.092 99.7373 482.012 99.7373H480.958V91.3584H482.085ZM503.9 90.0693V95.2549H506.083V96.2217H503.9V103.121H502.757V90.0693H503.9ZM500.252 91.2852V95.9434H495.506V98.9902C497.923 98.9902 499.608 98.9097 501.585 98.5361L501.703 99.4883C499.652 99.8691 497.909 99.957 495.404 99.9717H494.364V94.9912H499.11V92.2373H494.334V91.2852H500.252ZM509.674 100.924L508.532 104.908H507.448L508.253 100.924H509.674ZM180.143 124.464V125.416H171.164V120.743H172.306V124.464H180.143ZM181.549 127.379V128.346H176.1V133.092H174.958V128.346H169.625V127.379H181.549ZM193.696 120.772V121.798C193.696 122.896 193.696 124.142 193.374 125.841H195.263V126.764H189.902V129.913H188.774V126.764H183.339V125.841H192.202C192.553 124.134 192.553 122.896 192.553 121.798V121.725H184.848V120.772H193.696ZM193.974 131.847V132.813H184.848V128.741H186.005V131.847H193.974ZM207.131 120.069V125.372H209.241V126.339H207.131V133.092H205.989V120.069H207.131ZM203.762 121.476C203.762 125.167 202.034 128.521 197.786 130.616L197.141 129.708C200.51 128.031 202.341 125.526 202.605 122.442H197.742V121.476H203.762ZM215.03 121.021C217.081 121.021 218.531 122.267 218.531 124.083C218.531 125.899 217.081 127.145 215.03 127.145C212.979 127.145 211.5 125.899 211.514 124.083C211.5 122.267 212.979 121.021 215.03 121.021ZM215.03 122.032C213.638 122.032 212.627 122.867 212.642 124.083C212.627 125.299 213.638 126.134 215.03 126.134C216.407 126.134 217.403 125.299 217.403 124.083C217.403 122.867 216.407 122.032 215.03 122.032ZM221.446 120.069V133.121H220.303V120.069H221.446ZM210.84 129.269C213.243 129.269 216.553 129.254 219.439 128.829L219.527 129.679C216.553 130.235 213.345 130.25 211.001 130.25L210.84 129.269ZM239.762 120.069V133.092H238.605V120.069H239.762ZM235.91 121.49C235.895 125.24 234.152 128.551 229.787 130.646L229.157 129.708C232.68 128.038 234.474 125.541 234.738 122.428H229.757V121.49H235.91ZM253.505 128.492V133.121H252.348V129.415H244.746V128.492H253.505ZM253.505 120.069V127.745H252.348V124.405H249.638C249.389 125.987 248.042 127.057 246.298 127.042C244.35 127.057 242.915 125.768 242.915 123.922C242.915 122.105 244.35 120.816 246.298 120.816C248.042 120.816 249.389 121.878 249.638 123.438H252.348V120.069H253.505ZM246.298 121.798C244.995 121.798 244.013 122.691 244.013 123.922C244.013 125.196 244.995 126.075 246.298 126.075C247.573 126.075 248.554 125.196 248.554 123.922C248.554 122.691 247.573 121.798 246.298 121.798ZM258.562 130.924L257.419 134.908H256.335L257.141 130.924H258.562ZM275.707 120.069V123.263H277.669V124.215H275.707V127.467H274.564V120.069H275.707ZM272.147 120.919C272.132 124.2 269.833 126.544 265.98 127.599L265.511 126.676C268.719 125.812 270.675 124.076 270.917 121.871H266.097V120.919H272.147ZM275.707 128.067V132.916H267.459V128.067H275.707ZM268.602 129.02V131.979H274.564V129.02H268.602ZM290.036 120.069V127.833H288.878V124.42H286.256V123.468H288.878V120.069H290.036ZM285.714 128.243C288.424 128.243 290.08 129.122 290.08 130.66C290.08 132.198 288.424 133.077 285.714 133.092C283.004 133.077 281.349 132.198 281.349 130.66C281.349 129.122 283.004 128.243 285.714 128.243ZM285.714 129.137C283.722 129.137 282.477 129.708 282.492 130.66C282.477 131.598 283.722 132.169 285.714 132.169C287.707 132.169 288.937 131.598 288.937 130.66C288.937 129.708 287.707 129.137 285.714 129.137ZM283.766 122.457C283.766 124.156 285.07 125.768 286.974 126.427L286.374 127.35C284.909 126.822 283.773 125.731 283.224 124.376C282.653 125.907 281.444 127.13 279.899 127.716L279.298 126.793C281.232 126.09 282.609 124.332 282.609 122.472V121.988H279.665V121.021H286.681V121.988H283.766V122.457ZM295.092 130.924L293.95 134.908H292.866L293.671 130.924H295.092ZM312.325 121.461V122.765C312.325 124.405 312.325 126.266 311.841 129.093L310.669 128.976C311.197 126.31 311.197 124.361 311.197 122.765V122.413H303.345V121.461H312.325ZM313.921 130.221V131.173H302.056V130.221H313.921ZM326.522 120.069V133.121H325.379V120.069H326.522ZM322.567 121.285V125.914H317.704V128.99C319.864 128.99 321.791 128.895 324.12 128.521L324.237 129.488C321.834 129.869 319.857 129.957 317.616 129.957H316.532V124.977H321.41V122.237H316.502V121.285H322.567ZM339.928 121.388V122.691C339.914 124.288 339.914 126.075 339.445 128.697L338.273 128.565C338.771 126.075 338.771 124.244 338.771 122.691V122.34H330.744V121.388H339.928ZM341.349 130.294V131.246H329.484V130.294H334.142V125.636H335.27V130.294H341.349ZM358.45 120.069V133.121H357.292V120.069H358.45ZM351.521 121.08C353.455 121.095 354.846 122.853 354.846 125.621C354.846 128.39 353.455 130.147 351.521 130.147C349.573 130.147 348.196 128.39 348.196 125.621C348.196 122.853 349.573 121.095 351.521 121.08ZM351.521 122.105C350.217 122.12 349.309 123.497 349.309 125.621C349.309 127.745 350.217 129.122 351.521 129.122C352.825 129.122 353.733 127.745 353.733 125.621C353.733 123.497 352.825 122.12 351.521 122.105ZM364.913 121.08C366.832 121.095 368.194 122.853 368.208 125.621C368.194 128.39 366.832 130.147 364.913 130.147C362.979 130.147 361.631 128.39 361.631 125.621C361.631 122.853 362.979 121.095 364.913 121.08ZM364.913 122.105C363.624 122.12 362.715 123.497 362.715 125.621C362.715 127.745 363.624 129.122 364.913 129.122C366.216 129.122 367.095 127.745 367.095 125.621C367.095 123.497 366.216 122.12 364.913 122.105ZM373.614 123.351V124.332H371.504V127.232H373.614V128.199H371.504V133.092H370.362V120.069H371.504V123.351H373.614ZM385.907 120.069V133.092H384.75V120.069H385.907ZM382.054 121.49C382.04 125.24 380.296 128.551 375.931 130.646L375.301 129.708C378.824 128.038 380.619 125.541 380.882 122.428H375.902V121.49H382.054ZM400.778 130.514V131.48H388.854V130.514H394.215V128.053H390.348V124.039H398.141V121.988H390.319V121.036H399.269V124.977H391.491V127.101H399.577V128.053H395.343V130.514H400.778ZM417.161 120.069V125.226H419.343V126.192H417.161V133.121H416.018V120.069H417.161ZM413.733 121.344V122.296H408.796V128.888C411.155 128.888 412.825 128.778 414.758 128.419L414.905 129.415C412.869 129.781 411.155 129.854 408.679 129.854H407.654V121.344H413.733ZM425.425 123.57C425.411 125.943 427.037 128.346 428.956 129.21L428.252 130.118C426.773 129.393 425.491 127.862 424.869 126.002C424.261 127.972 422.979 129.613 421.456 130.382L420.723 129.415C422.657 128.521 424.268 126.046 424.283 123.57V121.197H425.425V123.57ZM431.534 120.069V133.121H430.376V120.069H431.534ZM444.708 121.578V122.516H440.651V125.021H444.518V125.943H440.651V128.888C442.584 128.88 443.778 128.829 445.207 128.565L445.309 129.518C443.786 129.811 442.526 129.869 440.387 129.869H439.552V121.578H444.708ZM450.187 120.069V133.092H449.074V126.266H447.287V132.433H446.173V120.348H447.287V125.313H449.074V120.069H450.187ZM456.24 121.08C458.012 121.095 459.287 122.611 459.477 125.05H462.392V120.069H463.535V133.121H462.392V126.002H459.492C459.353 128.551 458.056 130.147 456.24 130.147C454.321 130.147 452.973 128.39 452.973 125.621C452.973 122.853 454.321 121.095 456.24 121.08ZM456.24 122.105C454.951 122.12 454.072 123.497 454.072 125.621C454.072 127.745 454.951 129.122 456.24 129.122C457.514 129.122 458.408 127.745 458.408 125.621C458.408 123.497 457.514 122.12 456.24 122.105ZM476.633 120.084V122.984H478.611V123.966H476.633V126.866H475.491V120.084H476.633ZM468.24 120.685V125.255C470.093 125.248 472.004 125.13 474.114 124.698L474.26 125.665C472.048 126.09 470.085 126.222 468.123 126.222H467.083V120.685H468.24ZM469.514 127.54V129.269H475.491V127.54H476.633V132.916H468.386V127.54H469.514ZM469.514 131.979H475.491V130.221H469.514V131.979ZM490.904 120.069V133.092H489.761V120.069H490.904ZM482.144 121.358V128.741C484.129 128.734 486.187 128.573 488.37 128.111L488.531 129.093C486.216 129.576 484.151 129.737 482.071 129.737H481.016V121.358H482.144ZM503.958 120.069V125.226H506.141V126.192H503.958V133.121H502.816V120.069H503.958ZM500.531 121.344V122.296H495.594V128.888C497.953 128.888 499.623 128.778 501.556 128.419L501.703 129.415C499.667 129.781 497.953 129.854 495.477 129.854H494.452V121.344H500.531ZM508.971 131.993C508.458 131.993 508.019 131.568 508.034 131.041C508.019 130.528 508.458 130.104 508.971 130.104C509.484 130.104 509.909 130.528 509.909 131.041C509.909 131.568 509.484 131.993 508.971 131.993ZM300.984 181.08C302.756 181.095 304.031 182.611 304.221 185.05H307.136V180.069H308.279V193.121H307.136V186.002H304.236C304.097 188.551 302.8 190.147 300.984 190.147C299.065 190.147 297.717 188.39 297.717 185.621C297.717 182.853 299.065 181.095 300.984 181.08ZM300.984 182.105C299.695 182.12 298.816 183.497 298.816 185.621C298.816 187.745 299.695 189.122 300.984 189.122C302.258 189.122 303.152 187.745 303.152 185.621C303.152 183.497 302.258 182.12 300.984 182.105ZM322.461 191.847V192.813H313.394V188.771H314.537V191.847H322.461ZM322.11 180.084V189.547H320.982V184.625H318.58V183.673H320.982V180.084H322.11ZM314.859 181.153V182.105H312.691V186.5C313.357 186.485 314.141 186.412 315.005 186.222L315.123 187.174C313.907 187.438 312.955 187.438 312.12 187.438H311.563V181.153H314.859ZM319.209 181.153V182.105H316.734V186.515C317.847 186.5 318.711 186.434 319.708 186.192L319.825 187.145C318.609 187.408 317.657 187.438 316.236 187.438H315.577V181.153H319.209ZM333.791 183.57C333.791 185.87 335.314 188.229 337.16 189.137L336.457 190.06C335.021 189.305 333.82 187.767 333.249 185.958C332.663 187.884 331.432 189.525 329.967 190.309L329.235 189.386C331.139 188.448 332.648 185.943 332.663 183.57V181.197H333.791V183.57ZM339.503 180.069V185.357H341.686V186.354H339.503V193.092H338.361V180.069H339.503ZM353.32 180.084V183.351H355.297V184.317H353.32V187.95H352.177V180.084H353.32ZM349.599 180.89V184.405H344.853V186.222C347.167 186.222 348.845 186.141 350.874 185.797L350.991 186.764C348.896 187.115 347.153 187.188 344.736 187.188H343.725V183.497H348.471V181.842H343.696V180.89H349.599ZM349.145 188.346C351.796 188.346 353.437 189.225 353.437 190.719C353.437 192.213 351.796 193.062 349.145 193.062C346.45 193.062 344.824 192.213 344.824 190.719C344.824 189.225 346.45 188.346 349.145 188.346ZM349.145 189.254C347.153 189.254 345.937 189.796 345.952 190.719C345.937 191.627 347.153 192.169 349.145 192.169C351.123 192.169 352.324 191.627 352.324 190.719C352.324 189.796 351.123 189.254 349.145 189.254ZM368.718 186.939V187.877H356.853V186.939H368.718ZM367.4 191.847V192.813H358.391V189.02H359.548V191.847H367.4ZM362.786 180.538C365.583 180.523 367.385 181.49 367.385 183.116C367.385 184.742 365.583 185.709 362.786 185.709C359.958 185.709 358.171 184.742 358.171 183.116C358.171 181.49 359.958 180.523 362.786 180.538ZM362.786 181.461C360.691 181.461 359.343 182.091 359.358 183.116C359.343 184.142 360.691 184.771 362.786 184.771C364.866 184.771 366.213 184.142 366.213 183.116C366.213 182.091 364.866 181.461 362.786 181.461ZM387.005 190.455V191.422H375.082V190.455H380.458V187.291H381.615V190.455H387.005ZM381.615 182.545C381.615 184.625 384.193 186.412 386.434 186.778L385.965 187.687C383.973 187.298 381.871 186.031 381.043 184.215C380.201 186.039 378.106 187.335 376.151 187.745L375.667 186.822C377.865 186.441 380.428 184.625 380.428 182.545V182.223H376.063V181.256H385.98V182.223H381.615V182.545ZM400.661 186.515V187.467H388.795V186.515H391.74V184.684C390.7 184.281 390.114 183.614 390.114 182.735C390.114 181.197 391.872 180.318 394.728 180.318C397.555 180.318 399.328 181.197 399.328 182.735C399.328 183.607 398.749 184.273 397.716 184.669V186.515H400.661ZM394.728 188.463C397.526 188.463 399.196 189.269 399.21 190.763C399.196 192.242 397.526 193.062 394.728 193.062C391.901 193.062 390.231 192.242 390.231 190.763C390.231 189.269 391.901 188.463 394.728 188.463ZM394.728 189.342C392.633 189.356 391.388 189.869 391.403 190.763C391.388 191.642 392.633 192.169 394.728 192.169C396.793 192.169 398.053 191.642 398.053 190.763C398.053 189.869 396.793 189.356 394.728 189.342ZM394.728 181.227C392.604 181.227 391.286 181.798 391.3 182.735C391.286 183.688 392.604 184.244 394.728 184.244C396.837 184.244 398.156 183.688 398.156 182.735C398.156 181.798 396.837 181.227 394.728 181.227ZM392.882 186.515H396.574V184.991C396.024 185.086 395.409 185.138 394.728 185.138C394.047 185.138 393.432 185.086 392.882 184.991V186.515ZM413.247 180.069V193.092H412.089V180.069H413.247ZM410.683 182.193V183.131H402.802V182.193H406.157V180.201H407.314V182.193H410.683ZM406.772 184.2C408.647 184.2 409.995 185.431 409.995 187.188C409.995 188.946 408.647 190.177 406.772 190.177C404.882 190.177 403.52 188.946 403.535 187.188C403.52 185.431 404.882 184.2 406.772 184.2ZM406.772 185.167C405.527 185.167 404.619 186.017 404.619 187.188C404.619 188.375 405.527 189.21 406.772 189.195C408.002 189.21 408.896 188.375 408.896 187.188C408.896 186.017 408.002 185.167 406.772 185.167ZM431.504 180.069V193.092H430.347V180.069H431.504ZM427.652 181.49C427.637 185.24 425.894 188.551 421.529 190.646L420.899 189.708C424.422 188.038 426.216 185.541 426.48 182.428H421.5V181.49H427.652ZM444.53 180.069V185.226H446.712V186.192H444.53V193.121H443.387V180.069H444.53ZM441.102 181.344V182.296H436.166V188.888C438.524 188.888 440.194 188.778 442.127 188.419L442.274 189.415C440.238 189.781 438.524 189.854 436.048 189.854H435.023V181.344H441.102ZM458.917 180.069V193.121H457.775V180.069H458.917ZM454.962 181.285V185.914H450.099V188.99C452.26 188.99 454.186 188.895 456.515 188.521L456.632 189.488C454.23 189.869 452.252 189.957 450.011 189.957H448.927V184.977H453.805V182.237H448.898V181.285H454.962ZM472.412 184.024V184.947H463.491V180.553H464.633V184.024H472.412ZM473.789 186.72V187.657H461.865V186.72H473.789ZM472.485 191.817V192.77H463.417V188.99H464.56V191.817H472.485ZM486.656 181.388V189.781H480.65V181.388H486.656ZM481.763 182.311V188.844H485.513V182.311H481.763ZM490.186 180.069V185.27H492.369V186.266H490.186V193.092H489.043V180.069H490.186ZM499.754 180.362C502.582 180.362 504.354 181.271 504.354 182.838C504.354 184.376 502.582 185.27 499.754 185.27C496.927 185.27 495.14 184.376 495.14 182.838C495.14 181.271 496.927 180.362 499.754 180.362ZM499.754 181.285C497.645 181.285 496.312 181.871 496.327 182.838C496.312 183.79 497.645 184.347 499.754 184.361C501.834 184.347 503.182 183.79 503.182 182.838C503.182 181.871 501.834 181.285 499.754 181.285ZM504.237 188.639V192.916H495.272V188.639H504.237ZM496.415 189.562V191.979H503.109V189.562H496.415ZM505.687 186.397V187.35H493.822V186.397H505.687ZM509.674 190.924L508.532 194.908H507.448L508.253 190.924H509.674ZM250.813 211.08C252.585 211.095 253.86 212.611 254.05 215.05H256.965V210.069H258.108V223.121H256.965V216.002H254.065C253.926 218.551 252.629 220.147 250.813 220.147C248.894 220.147 247.546 218.39 247.546 215.621C247.546 212.853 248.894 211.095 250.813 211.08ZM250.813 212.105C249.524 212.12 248.645 213.497 248.645 215.621C248.645 217.745 249.524 219.122 250.813 219.122C252.087 219.122 252.981 217.745 252.981 215.621C252.981 213.497 252.087 212.12 250.813 212.105ZM272.291 221.847V222.813H263.223V218.771H264.366V221.847H272.291ZM271.939 210.084V219.547H270.811V214.625H268.409V213.673H270.811V210.084H271.939ZM264.688 211.153V212.105H262.52V216.5C263.187 216.485 263.97 216.412 264.834 216.222L264.952 217.174C263.736 217.438 262.784 217.438 261.949 217.438H261.392V211.153H264.688ZM269.039 211.153V212.105H266.563V216.515C267.676 216.5 268.541 216.434 269.537 216.192L269.654 217.145C268.438 217.408 267.486 217.438 266.065 217.438H265.406V211.153H269.039ZM283.62 213.57C283.62 215.87 285.143 218.229 286.989 219.137L286.286 220.06C284.85 219.305 283.649 217.767 283.078 215.958C282.492 217.884 281.261 219.525 279.796 220.309L279.064 219.386C280.968 218.448 282.477 215.943 282.492 213.57V211.197H283.62V213.57ZM289.333 210.069V215.357H291.515V216.354H289.333V223.092H288.19V210.069H289.333ZM303.149 210.084V213.351H305.126V214.317H303.149V217.95H302.006V210.084H303.149ZM299.428 210.89V214.405H294.682V216.222C296.997 216.222 298.674 216.141 300.703 215.797L300.82 216.764C298.725 217.115 296.982 217.188 294.565 217.188H293.554V213.497H298.3V211.842H293.525V210.89H299.428ZM298.974 218.346C301.625 218.346 303.266 219.225 303.266 220.719C303.266 222.213 301.625 223.062 298.974 223.062C296.279 223.062 294.653 222.213 294.653 220.719C294.653 219.225 296.279 218.346 298.974 218.346ZM298.974 219.254C296.982 219.254 295.766 219.796 295.781 220.719C295.766 221.627 296.982 222.169 298.974 222.169C300.952 222.169 302.153 221.627 302.153 220.719C302.153 219.796 300.952 219.254 298.974 219.254ZM318.547 216.939V217.877H306.682V216.939H318.547ZM317.229 221.847V222.813H308.22V219.02H309.377V221.847H317.229ZM312.615 210.538C315.413 210.523 317.214 211.49 317.214 213.116C317.214 214.742 315.413 215.709 312.615 215.709C309.788 215.709 308 214.742 308 213.116C308 211.49 309.788 210.523 312.615 210.538ZM312.615 211.461C310.52 211.461 309.172 212.091 309.187 213.116C309.172 214.142 310.52 214.771 312.615 214.771C314.695 214.771 316.042 214.142 316.042 213.116C316.042 212.091 314.695 211.461 312.615 211.461ZM331.4 211.988C331.4 214.215 333.949 216.207 336.219 216.632L335.692 217.599C333.729 217.145 331.656 215.746 330.814 213.819C329.972 215.738 327.906 217.137 325.936 217.599L325.409 216.632C327.665 216.192 330.199 214.229 330.199 211.988V210.992H331.4V211.988ZM336.834 220.367V221.319H324.911V220.367H336.834ZM349.406 210.069V223.121H348.263V217.877H345.583V216.925H348.263V215.167H345.583V214.2H348.263V210.069H349.406ZM343.122 214.317C343.122 216.471 344.586 218.595 346.52 219.459L345.861 220.353C344.381 219.671 343.151 218.243 342.58 216.515C342.008 218.338 340.792 219.854 339.313 220.572L338.654 219.679C340.558 218.785 341.994 216.559 341.994 214.317V213.277H339.005V212.34H341.994V210.318H343.136V212.34H346.081V213.277H343.122V214.317ZM361.511 214.068C361.511 216.28 363.123 218.521 365.042 219.356L364.397 220.265C362.874 219.569 361.555 218.067 360.955 216.266C360.339 218.177 359.028 219.84 357.542 220.587L356.853 219.679C358.713 218.785 360.339 216.324 360.354 214.068V212.369H357.278V211.417H364.617V212.369H361.511V214.068ZM367.59 210.069V223.092H366.433V210.069H367.59ZM382.754 215.27V216.236H380.645V223.092H379.502V210.069H380.645V215.27H382.754ZM372.251 211.358V218.814C374.156 218.807 376.097 218.661 378.243 218.214L378.389 219.195C376.148 219.649 374.126 219.781 372.149 219.781H371.109V211.358H372.251ZM394.461 210.069V214.039H396.424V215.006H394.461V219.605H393.304V210.069H394.461ZM390.946 211.08C390.946 214.435 388.543 216.925 384.793 218.097L384.295 217.174C387.416 216.2 389.452 214.339 389.701 212.047H384.837V211.08H390.946ZM395.062 221.847V222.813H386.302V218.639H387.445V221.847H395.062ZM409.042 211.065C409.042 212.765 411.416 214.317 413.671 214.669L413.217 215.577C411.24 215.24 409.284 214.142 408.457 212.618C407.636 214.171 405.659 215.255 403.681 215.592L403.227 214.684C405.498 214.332 407.856 212.823 407.856 211.065V210.406H409.042V211.065ZM414.418 216.705V217.657H409.116V220.323H407.973V217.657H402.495V216.705H414.418ZM413.085 221.847V222.813H404.018V219.049H405.175V221.847H413.085ZM426.404 210.069V214.039H428.367V215.006H426.404V219.605H425.247V210.069H426.404ZM422.888 211.08C422.888 214.435 420.486 216.925 416.736 218.097L416.238 217.174C419.358 216.2 421.394 214.339 421.643 212.047H416.78V211.08H422.888ZM427.004 221.847V222.813H418.245V218.639H419.387V221.847H427.004ZM446.361 216.617V217.569H434.452V216.617H439.813V214.61H440.941V216.617H446.361ZM440.956 210.89C440.956 212.618 443.299 214.068 445.599 214.391L445.13 215.313C443.153 214.969 441.197 213.922 440.384 212.413C439.564 213.929 437.601 214.969 435.609 215.313L435.169 214.391C437.469 214.068 439.798 212.618 439.798 210.89V210.274H440.956V210.89ZM444.852 218.844V223.092H443.695V219.767H435.77V218.844H444.852ZM452.428 211.021C454.479 211.021 455.929 212.267 455.929 214.083C455.929 215.899 454.479 217.145 452.428 217.145C450.377 217.145 448.898 215.899 448.913 214.083C448.898 212.267 450.377 211.021 452.428 211.021ZM452.428 212.032C451.037 212.032 450.026 212.867 450.041 214.083C450.026 215.299 451.037 216.134 452.428 216.134C453.805 216.134 454.801 215.299 454.801 214.083C454.801 212.867 453.805 212.032 452.428 212.032ZM458.844 210.069V223.121H457.702V210.069H458.844ZM448.239 219.269C450.641 219.269 453.952 219.254 456.837 218.829L456.925 219.679C453.952 220.235 450.744 220.25 448.4 220.25L448.239 219.269ZM476.692 210.055V215.196H478.596V216.178H476.692V223.092H475.549V210.055H476.692ZM470.1 211.446V212.398H467.932V218.697C468.577 218.683 469.368 218.624 470.232 218.434L470.349 219.4C469.119 219.664 468.137 219.679 467.361 219.679H466.79V211.446H470.1ZM474.319 211.446V212.398H471.99V218.712C473.008 218.697 473.821 218.631 474.744 218.404L474.861 219.371C473.718 219.649 472.795 219.679 471.477 219.679H470.847V211.446H474.319ZM491.973 216.339V217.291H480.108V216.339H491.973ZM490.948 214.186V215.123H486.421V210.714H490.831V211.651H487.579V214.186H490.948ZM485.689 210.714V211.651H482.393V214.186C483.521 214.171 484.627 214.09 485.865 213.805L485.997 214.757C484.517 215.079 483.272 215.123 481.968 215.123H481.221V210.714H485.689ZM486.641 218.741C486.641 220.499 488.692 221.788 491.065 222.125L490.625 223.033C488.648 222.704 486.839 221.773 486.055 220.338C485.271 221.773 483.462 222.704 481.485 223.033L481.045 222.125C483.404 221.788 485.469 220.499 485.469 218.741V218.316H486.641V218.741ZM504.002 210.069V213.541H505.965V214.522H504.002V217.921H502.86V210.069H504.002ZM504.002 218.668V222.916H495.785V218.668H504.002ZM496.913 219.591V221.979H502.86V219.591H496.913ZM501.615 211.461V212.413H493.851V211.461H497.162V209.967H498.304V211.461H501.615ZM497.733 213.058C499.608 213.058 500.853 213.98 500.868 215.372C500.853 216.793 499.608 217.701 497.733 217.701C495.843 217.701 494.583 216.793 494.598 215.372C494.583 213.98 495.843 213.058 497.733 213.058ZM497.733 213.951C496.502 213.951 495.682 214.522 495.697 215.372C495.682 216.266 496.502 216.808 497.733 216.822C498.949 216.808 499.769 216.266 499.784 215.372C499.769 214.522 498.949 213.951 497.733 213.951ZM509.674 220.924L508.532 224.908H507.448L508.253 220.924H509.674ZM189.773 246.119V247.057H185.056V241.314H189.612V242.252H186.213V246.119H189.773ZM190.725 250.47V251.422H178.801V250.47H184.148V247.716H185.276V250.47H190.725ZM184.265 241.314V242.267H180.984V246.104C182.083 246.097 183.174 246.009 184.382 245.738L184.485 246.705C183.064 247.027 181.863 247.071 180.559 247.057H179.841V241.314H184.265ZM200.531 241.08C202.303 241.095 203.578 242.611 203.768 245.05H206.683V240.069H207.826V253.121H206.683V246.002H203.783C203.644 248.551 202.347 250.147 200.531 250.147C198.612 250.147 197.264 248.39 197.264 245.621C197.264 242.853 198.612 241.095 200.531 241.08ZM200.531 242.105C199.242 242.12 198.363 243.497 198.363 245.621C198.363 247.745 199.242 249.122 200.531 249.122C201.805 249.122 202.699 247.745 202.699 245.621C202.699 243.497 201.805 242.12 200.531 242.105ZM222.008 251.847V252.813H212.941V248.771H214.083V251.847H222.008ZM221.657 240.084V249.547H220.529V244.625H218.126V243.673H220.529V240.084H221.657ZM214.406 241.153V242.105H212.238V246.5C212.904 246.485 213.688 246.412 214.552 246.222L214.669 247.174C213.454 247.438 212.501 247.438 211.667 247.438H211.11V241.153H214.406ZM218.756 241.153V242.105H216.281V246.515C217.394 246.5 218.258 246.434 219.254 246.192L219.372 247.145C218.156 247.408 217.204 247.438 215.783 247.438H215.124V241.153H218.756ZM233.337 243.57C233.337 245.87 234.861 248.229 236.707 249.137L236.003 250.06C234.568 249.305 233.367 247.767 232.795 245.958C232.209 247.884 230.979 249.525 229.514 250.309L228.782 249.386C230.686 248.448 232.195 245.943 232.209 243.57V241.197H233.337V243.57ZM239.05 240.069V245.357H241.233V246.354H239.05V253.092H237.908V240.069H239.05ZM252.867 240.084V243.351H254.844V244.317H252.867V247.95H251.724V240.084H252.867ZM249.146 240.89V244.405H244.4V246.222C246.714 246.222 248.392 246.141 250.42 245.797L250.538 246.764C248.443 247.115 246.7 247.188 244.283 247.188H243.272V243.497H248.018V241.842H243.243V240.89H249.146ZM248.692 248.346C251.343 248.346 252.984 249.225 252.984 250.719C252.984 252.213 251.343 253.062 248.692 253.062C245.997 253.062 244.371 252.213 244.371 250.719C244.371 249.225 245.997 248.346 248.692 248.346ZM248.692 249.254C246.7 249.254 245.484 249.796 245.499 250.719C245.484 251.627 246.7 252.169 248.692 252.169C250.669 252.169 251.871 251.627 251.871 250.719C251.871 249.796 250.669 249.254 248.692 249.254ZM268.265 246.939V247.877H256.4V246.939H268.265ZM266.947 251.847V252.813H257.938V249.02H259.095V251.847H266.947ZM262.333 240.538C265.13 240.523 266.932 241.49 266.932 243.116C266.932 244.742 265.13 245.709 262.333 245.709C259.505 245.709 257.718 244.742 257.718 243.116C257.718 241.49 259.505 240.523 262.333 240.538ZM262.333 241.461C260.238 241.461 258.89 242.091 258.905 243.116C258.89 244.142 260.238 244.771 262.333 244.771C264.413 244.771 265.76 244.142 265.76 243.116C265.76 242.091 264.413 241.461 262.333 241.461ZM284.809 240.069V242.896H286.772V243.863H284.809V246.705H283.667V240.069H284.809ZM281.206 240.816V246.017H275.185V240.816H281.206ZM276.313 241.754V245.094H280.092V241.754H276.313ZM284.809 247.32V250.499H277.661V251.993H285.292V252.916H276.533V249.62H283.667V248.243H276.503V247.32H284.809ZM290.935 247.716V249.342H293.308V247.716H294.377V252.916H289.851V247.716H290.935ZM290.935 252.008H293.308V250.221H290.935V252.008ZM298.098 248.741C298.083 250.118 298.904 251.554 300.5 252.14L299.9 253.019C298.699 252.535 297.908 251.62 297.512 250.528C297.095 251.598 296.304 252.521 295.154 253.019L294.553 252.14C296.121 251.495 296.956 250.06 296.956 248.741V247.628H298.098V248.741ZM291.931 240.655C293.674 240.655 295.007 241.644 295.256 243.146H297.981V240.069H299.138V246.969H297.981V244.098H295.271C295.037 245.636 293.696 246.646 291.931 246.646C289.954 246.646 288.547 245.431 288.547 243.644C288.547 241.871 289.954 240.655 291.931 240.655ZM291.931 241.622C290.598 241.622 289.646 242.457 289.646 243.644C289.646 244.845 290.598 245.694 291.931 245.694C293.25 245.694 294.187 244.845 294.187 243.644C294.187 242.457 293.25 241.622 291.931 241.622ZM312.793 240.069V253.121H311.636V240.069H312.793ZM305.865 241.08C307.798 241.095 309.19 242.853 309.19 245.621C309.19 248.39 307.798 250.147 305.865 250.147C303.917 250.147 302.54 248.39 302.54 245.621C302.54 242.853 303.917 241.095 305.865 241.08ZM305.865 242.105C304.561 242.12 303.653 243.497 303.653 245.621C303.653 247.745 304.561 249.122 305.865 249.122C307.168 249.122 308.077 247.745 308.077 245.621C308.077 243.497 307.168 242.12 305.865 242.105ZM324.943 244.068C324.943 246.28 326.554 248.521 328.473 249.356L327.829 250.265C326.305 249.569 324.987 248.067 324.386 246.266C323.771 248.177 322.46 249.84 320.973 250.587L320.285 249.679C322.145 248.785 323.771 246.324 323.786 244.068V242.369H320.709V241.417H328.048V242.369H324.943V244.068ZM331.022 240.069V253.092H329.865V240.069H331.022ZM340.62 241.432C340.62 242.215 340.554 242.984 340.429 243.731H343.637V240.055H344.78V253.092H343.637V248.141H340.034V247.203H343.637V244.684H340.209C339.521 247.145 337.902 249.32 334.672 250.938L334.013 250.06C336.408 248.858 337.888 247.357 338.701 245.592L334.262 246.017L334.057 245.021L339.052 244.684C339.287 243.958 339.426 243.189 339.477 242.384H334.716V241.432H340.62ZM354.29 241.915C354.275 243.658 356.604 245.138 358.875 245.475L358.45 246.383C356.414 246.039 354.436 244.955 353.645 243.38C352.854 244.955 350.869 246.039 348.87 246.383L348.416 245.475C350.671 245.138 353 243.658 353 241.915V241.827H348.826V240.89H358.45V241.827H354.29V241.915ZM359.578 247.496V248.448H354.187V253.092H353.059V248.448H347.712V247.496H359.578ZM371.958 244.024V244.947H363.038V240.553H364.18V244.024H371.958ZM373.335 246.72V247.657H361.412V246.72H373.335ZM372.032 251.817V252.77H362.964V248.99H364.107V251.817H372.032ZM390.187 244.039V244.977H381.295V240.567H382.438V244.039H390.187ZM391.535 246.515V247.467H386.261V250.162H385.119V247.467H379.655V246.515H391.535ZM390.275 251.847V252.813H381.178V249.005H382.321V251.847H390.275ZM404.106 240.069V247.643H402.978V240.069H404.106ZM404.443 248.565V249.474H400.576C400.642 250.711 402.692 251.927 404.897 252.198L404.472 253.092C402.524 252.813 400.744 251.898 399.975 250.689C399.199 251.927 397.368 252.828 395.405 253.092L394.995 252.213C397.199 251.971 399.323 250.755 399.389 249.474H395.537V248.565H399.404V247.306H400.546V248.565H404.443ZM395.2 240.626V242.647H399.038V240.626H400.18V246.441H394.057V240.626H395.2ZM395.2 245.519H399.038V243.541H395.2V245.519ZM417.878 240.069V253.121H416.721V246.266H413.865V245.313H416.721V240.069H417.878ZM411.58 244.317C411.58 246.471 413.044 248.58 414.978 249.444L414.319 250.338C412.839 249.657 411.609 248.236 411.038 246.515C410.466 248.331 409.25 249.854 407.771 250.572L407.112 249.679C409.016 248.785 410.452 246.559 410.452 244.317V243.277H407.463V242.34H410.452V240.318H411.594V242.34H414.539V243.277H411.58V244.317ZM431.592 248.463V252.916H423.023V248.463H431.592ZM424.166 249.356V251.979H430.45V249.356H424.166ZM431.592 240.084V247.73H430.435V243.966H427.959V243.014H430.435V240.084H431.592ZM427.125 240.743V244.347H422.496V246.236C424.642 246.244 426.253 246.17 428.208 245.855L428.311 246.822C426.26 247.145 424.59 247.203 422.334 247.188H421.353V243.453H426.011V241.695H421.324V240.743H427.125ZM445.705 241.695C445.69 243.307 447.887 244.625 450.187 244.918L449.733 245.855C447.631 245.526 445.668 244.486 444.958 242.955C444.254 244.486 442.299 245.526 440.182 245.855L439.757 244.918C442.057 244.625 444.21 243.307 444.21 241.695V241.666H440.109V240.714H449.835V241.666H445.705V241.695ZM449.572 251.847V252.813H440.563V249.107H441.72V251.847H449.572ZM450.934 247.101V248.053H439.025V247.101H444.386V244.918H445.514V247.101H450.934ZM463.93 240.069V253.092H462.817V246.324H461.044V252.433H459.946V240.348H461.044V245.343H462.817V240.069H463.93ZM456.591 243.629C456.591 246.017 457.573 248.111 459.433 249.063L458.745 249.957C457.426 249.239 456.525 247.95 456.064 246.354C455.617 248.17 454.702 249.591 453.325 250.396L452.607 249.518C454.482 248.492 455.478 246.266 455.478 243.629V242.589H452.915V241.622H459.008V242.589H456.591V243.629ZM476.633 240.069V243.409H478.596V244.391H476.633V247.643H475.491V240.069H476.633ZM469.543 248.214V249.605H475.491V248.214H476.633V252.916H468.401V248.214H469.543ZM469.543 251.993H475.491V250.514H469.543V251.993ZM474.246 241.417V242.369H466.482V241.417H469.792V239.952H470.935V241.417H474.246ZM470.364 242.97C472.239 242.97 473.484 243.863 473.499 245.255C473.484 246.646 472.239 247.54 470.364 247.54C468.474 247.54 467.214 246.646 467.229 245.255C467.214 243.863 468.474 242.97 470.364 242.97ZM470.364 243.863C469.133 243.849 468.313 244.42 468.328 245.255C468.313 246.104 469.133 246.661 470.364 246.661C471.58 246.661 472.4 246.104 472.415 245.255C472.4 244.42 471.58 243.849 470.364 243.863ZM490.904 240.069V253.092H489.761V240.069H490.904ZM482.144 241.358V248.741C484.129 248.734 486.187 248.573 488.37 248.111L488.531 249.093C486.216 249.576 484.151 249.737 482.071 249.737H481.016V241.358H482.144ZM503.958 240.069V245.226H506.141V246.192H503.958V253.121H502.816V240.069H503.958ZM500.531 241.344V242.296H495.594V248.888C497.953 248.888 499.623 248.778 501.556 248.419L501.703 249.415C499.667 249.781 497.953 249.854 495.477 249.854H494.452V241.344H500.531ZM508.971 251.993C508.458 251.993 508.019 251.568 508.034 251.041C508.019 250.528 508.458 250.104 508.971 250.104C509.484 250.104 509.909 250.528 509.909 251.041C509.909 251.568 509.484 251.993 508.971 251.993ZM303.445 271.3L306.565 280.191H306.682L309.817 271.3H311.208L307.327 281.905H305.935L302.053 271.3H303.445ZM320.337 271.3H321.656V278.316C321.656 280.499 320.03 282.096 317.525 282.096C315.02 282.096 313.394 280.499 313.394 278.316V271.3H314.712V278.214C314.712 279.752 315.782 280.865 317.525 280.865C319.283 280.865 320.337 279.752 320.337 278.214V271.3ZM324.75 281.905V271.3H328.353C330.843 271.3 331.971 272.677 331.971 274.566C331.971 275.965 331.341 277.071 329.994 277.54L332.381 281.905H330.843L328.631 277.774L328.368 277.789H326.068V281.905H324.75ZM326.068 276.588H328.309C329.994 276.588 330.667 275.826 330.667 274.566C330.667 273.292 329.994 272.472 328.294 272.472H326.068V276.588ZM334.625 281.905V271.3H341.056V272.472H335.944V276.017H340.719V277.174H335.944V280.733H341.129V281.905H334.625ZM353.774 274.024V274.947H344.853V270.553H345.996V274.024H353.774ZM355.151 276.72V277.657H343.227V276.72H355.151ZM353.847 281.817V282.77H344.78V278.99H345.922V281.817H353.847ZM372.208 270.069V283.121H371.05V270.069H372.208ZM365.279 271.08C367.212 271.095 368.604 272.853 368.604 275.621C368.604 278.39 367.212 280.147 365.279 280.147C363.331 280.147 361.954 278.39 361.954 275.621C361.954 272.853 363.331 271.095 365.279 271.08ZM365.279 272.105C363.975 272.12 363.067 273.497 363.067 275.621C363.067 277.745 363.975 279.122 365.279 279.122C366.583 279.122 367.491 277.745 367.491 275.621C367.491 273.497 366.583 272.12 365.279 272.105ZM391.623 280.47V281.422H379.699V280.47H385.06V277.657H381.105V270.992H382.262V273.351H389.03V270.992H390.158V277.657H386.188V280.47H391.623ZM382.262 276.72H389.03V274.288H382.262V276.72ZM404.15 270.069V283.121H402.993V270.069H404.15ZM397.221 271.08C399.155 271.095 400.546 272.853 400.546 275.621C400.546 278.39 399.155 280.147 397.221 280.147C395.273 280.147 393.896 278.39 393.896 275.621C393.896 272.853 395.273 271.095 397.221 271.08ZM397.221 272.105C395.917 272.12 395.009 273.497 395.009 275.621C395.009 277.745 395.917 279.122 397.221 279.122C398.525 279.122 399.433 277.745 399.433 275.621C399.433 273.497 398.525 272.12 397.221 272.105ZM411.785 274.068C411.785 276.28 413.396 278.521 415.315 279.356L414.67 280.265C413.147 279.569 411.829 278.067 411.228 276.266C410.613 278.177 409.302 279.84 407.815 280.587L407.126 279.679C408.987 278.785 410.613 276.324 410.627 274.068V272.369H407.551V271.417H414.89V272.369H411.785V274.068ZM417.864 270.069V283.092H416.707V270.069H417.864ZM428.988 270.816C430.936 270.816 432.372 272.062 432.372 273.819C432.372 275.592 430.936 276.822 428.988 276.837C427.04 276.822 425.589 275.592 425.604 273.819C425.589 272.062 427.04 270.816 428.988 270.816ZM428.988 271.783C427.713 271.783 426.717 272.647 426.732 273.819C426.717 275.021 427.713 275.885 428.988 275.885C430.277 275.885 431.244 275.021 431.244 273.819C431.244 272.647 430.277 271.783 428.988 271.783ZM435.536 270.069V273.014H437.499V273.966H435.536V276.588H434.393V270.069H435.536ZM427.86 277.994V281.788C428.614 281.766 429.618 281.656 430.541 281.349L430.716 282.271C429.442 282.696 428.211 282.74 427.362 282.74H426.747V277.994H427.86ZM436.839 278.053V278.946H430.262V278.053H433.001V276.896H434.129V278.053H436.839ZM433.543 279.386C434.964 279.386 435.975 280.104 435.99 281.231C435.975 282.359 434.964 283.062 433.543 283.062C432.108 283.062 431.112 282.359 431.126 281.231C431.112 280.104 432.108 279.386 433.543 279.386ZM433.543 280.221C432.738 280.221 432.152 280.631 432.152 281.231C432.152 281.847 432.738 282.242 433.543 282.242C434.364 282.242 434.935 281.847 434.935 281.231C434.935 280.631 434.364 280.221 433.543 280.221ZM449.601 274.024V274.947H440.68V270.553H441.823V274.024H449.601ZM450.978 276.72V277.657H439.054V276.72H450.978ZM449.674 281.817V282.77H440.607V278.99H441.75V281.817H449.674ZM467.478 270.069V273.263H469.441V274.215H467.478V277.467H466.335V270.069H467.478ZM463.918 270.919C463.904 274.2 461.604 276.544 457.751 277.599L457.283 276.676C460.491 275.812 462.446 274.076 462.688 271.871H457.869V270.919H463.918ZM467.478 278.067V282.916H459.231V278.067H467.478ZM460.374 279.02V281.979H466.335V279.02H460.374ZM481.807 270.069V277.833H480.65V274.42H478.028V273.468H480.65V270.069H481.807ZM477.486 278.243C480.196 278.243 481.851 279.122 481.851 280.66C481.851 282.198 480.196 283.077 477.486 283.092C474.776 283.077 473.121 282.198 473.121 280.66C473.121 279.122 474.776 278.243 477.486 278.243ZM477.486 279.137C475.494 279.137 474.249 279.708 474.263 280.66C474.249 281.598 475.494 282.169 477.486 282.169C479.478 282.169 480.708 281.598 480.708 280.66C480.708 279.708 479.478 279.137 477.486 279.137ZM475.538 272.457C475.538 274.156 476.841 275.768 478.746 276.427L478.145 277.35C476.68 276.822 475.545 275.731 474.996 274.376C474.424 275.907 473.216 277.13 471.67 277.716L471.07 276.793C473.003 276.09 474.38 274.332 474.38 272.472V271.988H471.436V271.021H478.453V271.988H475.538V272.457ZM496.605 275.548V276.471H484.725V275.548H496.605ZM495.184 273.541V274.479H486.307V270.523H495.052V271.446H487.464V273.541H495.184ZM495.067 277.643V280.66H487.333V282.008H495.462V282.945H486.19V279.796H493.939V278.536H486.161V277.643H495.067ZM504.372 270.304C507.272 270.304 508.971 271.095 508.971 272.545C508.971 274.024 507.272 274.815 504.372 274.83C501.471 274.815 499.757 274.024 499.757 272.545C499.757 271.095 501.471 270.304 504.372 270.304ZM504.372 271.168C502.204 271.168 500.944 271.695 500.958 272.545C500.944 273.453 502.204 273.951 504.372 273.951C506.525 273.951 507.799 273.453 507.799 272.545C507.799 271.695 506.525 271.168 504.372 271.168ZM510.304 275.709V276.646H498.439V275.709H510.304ZM508.781 277.774V280.689H501.046V282.037H509.176V282.945H499.904V279.84H507.653V278.653H499.875V277.774H508.781ZM385.819 300.069V307.643H384.691V300.069H385.819ZM386.156 308.565V309.474H382.289C382.354 310.711 384.405 311.927 386.61 312.198L386.185 313.092C384.237 312.813 382.457 311.898 381.688 310.689C380.912 311.927 379.081 312.828 377.118 313.092L376.708 312.213C378.912 311.971 381.036 310.755 381.102 309.474H377.25V308.565H381.117V307.306H382.259V308.565H386.156ZM376.913 300.626V302.647H380.75V300.626H381.893V306.441H375.77V300.626H376.913ZM376.913 305.519H380.75V303.541H376.913V305.519ZM396.017 301.52V302.193C396.002 303.219 396.002 304.947 395.636 307.364L394.479 307.262C394.831 305.079 394.86 303.497 394.86 302.457H389.396V301.52H396.017ZM392.604 305.24V309.195C394.047 309.144 395.526 309.049 396.881 308.888L396.94 309.752C394.201 310.177 391.139 310.235 388.81 310.221L388.664 309.269C389.521 309.261 390.473 309.254 391.476 309.225V305.24H392.604ZM398.844 300.069V305.519H400.954V306.515H398.844V313.092H397.702V300.069H398.844ZM414.407 301.534V302.472H407.039V301.534H410.203V299.967H411.345V301.534H414.407ZM410.759 303.146C412.502 303.146 413.733 304.098 413.733 305.548C413.733 307.013 412.502 307.965 410.759 307.965C409.001 307.965 407.8 307.013 407.815 305.548C407.8 304.098 409.001 303.146 410.759 303.146ZM410.759 304.01C409.631 304.024 408.884 304.64 408.884 305.548C408.884 306.471 409.631 307.071 410.759 307.071C411.887 307.071 412.649 306.471 412.664 305.548C412.649 304.64 411.887 304.024 410.759 304.01ZM417.82 300.069V308.492H416.663V306.69H414.392V305.738H416.663V304.156H414.407V303.204H416.663V300.069H417.82ZM413.528 308.624C416.238 308.624 417.893 309.43 417.893 310.851C417.893 312.242 416.238 313.062 413.528 313.062C410.789 313.062 409.148 312.242 409.148 310.851C409.148 309.43 410.789 308.624 413.528 308.624ZM413.528 309.518C411.55 309.518 410.334 310.001 410.334 310.851C410.334 311.671 411.55 312.169 413.528 312.169C415.476 312.169 416.677 311.671 416.677 310.851C416.677 310.001 415.476 309.518 413.528 309.518ZM426.421 301.578V302.516H422.364V305.021H426.231V305.943H422.364V308.888C424.297 308.88 425.491 308.829 426.919 308.565L427.022 309.518C425.499 309.811 424.239 309.869 422.1 309.869H421.265V301.578H426.421ZM431.9 300.069V313.092H430.787V306.266H429V312.433H427.886V300.348H429V305.313H430.787V300.069H431.9ZM446.375 310.514V311.48H434.452V310.514H439.813V308.053H435.946V304.039H443.739V301.988H435.917V301.036H444.867V304.977H437.088V307.101H445.174V308.053H440.941V310.514H446.375ZM463.447 300.069V313.092H462.29V300.069H463.447ZM460.444 301.49V302.442H458.964V308.712C459.697 308.661 460.422 308.595 461.118 308.507L461.191 309.371C458.349 309.811 455.214 309.854 452.797 309.869L452.666 308.888L454.467 308.873V302.442H453.002V301.49H460.444ZM455.595 308.858C456.328 308.844 457.082 308.814 457.836 308.771V302.442H455.595V308.858ZM477.175 300.084V313.106H476.003V309.869H473V308.99H476.003V300.084H477.175ZM466.335 306.939C468.826 306.939 472.122 306.925 474.993 306.515L475.066 307.379C473.777 307.599 472.437 307.73 471.14 307.804V312.696H469.983V307.862C468.73 307.914 467.544 307.921 466.497 307.921L466.335 306.939ZM470.627 300.729C472.561 300.729 473.909 301.769 473.909 303.292C473.909 304.845 472.561 305.841 470.627 305.841C468.679 305.841 467.332 304.845 467.332 303.292C467.332 301.769 468.679 300.729 470.627 300.729ZM470.627 301.622C469.309 301.622 468.401 302.311 468.416 303.292C468.401 304.288 469.309 304.947 470.627 304.947C471.902 304.947 472.825 304.288 472.825 303.292C472.825 302.311 471.902 301.622 470.627 301.622ZM491.226 300.069V313.092H490.098V306.354H488.223V312.418H487.139V300.362H488.223V305.372H490.098V300.069H491.226ZM481.91 301.666V308.697C483.206 308.683 484.583 308.595 486.172 308.272L486.319 309.298C484.502 309.62 483.008 309.723 481.573 309.723H480.767V301.666H481.91ZM500.282 301.373V303.204H503.475V300.069H504.618V313.121H503.475V307.745H500.282V309.796H494.349V301.373H500.282ZM495.492 302.281V308.873H499.168V302.281H495.492ZM500.282 306.793H503.475V304.156H500.282V306.793ZM509.674 310.924L508.532 314.908H507.448L508.253 310.924H509.674ZM192.366 333.57C192.366 335.87 193.889 338.229 195.735 339.137L195.032 340.06C193.596 339.305 192.395 337.767 191.824 335.958C191.238 337.884 190.007 339.525 188.542 340.309L187.81 339.386C189.714 338.448 191.223 335.943 191.238 333.57V331.197H192.366V333.57ZM198.079 330.069V335.357H200.261V336.354H198.079V343.092H196.936V330.069H198.079ZM211.895 330.084V333.351H213.873V334.317H211.895V337.95H210.752V330.084H211.895ZM208.174 330.89V334.405H203.428V336.222C205.743 336.222 207.42 336.141 209.449 335.797L209.566 336.764C207.471 337.115 205.728 337.188 203.311 337.188H202.3V333.497H207.046V331.842H202.271V330.89H208.174ZM207.72 338.346C210.372 338.346 212.012 339.225 212.012 340.719C212.012 342.213 210.372 343.062 207.72 343.062C205.025 343.062 203.399 342.213 203.399 340.719C203.399 339.225 205.025 338.346 207.72 338.346ZM207.72 339.254C205.728 339.254 204.512 339.796 204.527 340.719C204.512 341.627 205.728 342.169 207.72 342.169C209.698 342.169 210.899 341.627 210.899 340.719C210.899 339.796 209.698 339.254 207.72 339.254ZM226.166 330.069V343.121H225.008V330.069H226.166ZM219.237 331.08C221.17 331.095 222.562 332.853 222.562 335.621C222.562 338.39 221.17 340.147 219.237 340.147C217.289 340.147 215.912 338.39 215.912 335.621C215.912 332.853 217.289 331.095 219.237 331.08ZM219.237 332.105C217.933 332.12 217.025 333.497 217.025 335.621C217.025 337.745 217.933 339.122 219.237 339.122C220.541 339.122 221.449 337.745 221.449 335.621C221.449 333.497 220.541 332.12 219.237 332.105ZM240.117 331.373V334.845H243.31V330.069H244.453V343.121H243.31V335.797H240.117V339.796H234.184V331.373H240.117ZM235.327 332.281V338.873H239.003V332.281H235.327ZM259.236 335.577V336.515H253.86V337.804H257.712V340.719H249.978V342.037H258.108V342.945H248.835V339.854H256.584V338.697H248.806V337.804H252.717V336.515H247.371V335.577H259.236ZM257.698 330.509V334.479H248.909V330.509H257.698ZM250.051 331.432V333.556H256.555V331.432H250.051ZM267.837 331.168V332.12H262.974V336.72C265.311 336.72 266.819 336.639 268.57 336.295L268.716 337.247C266.856 337.569 265.274 337.672 262.828 337.672H261.846V331.168H267.837ZM271.88 330.084V339.591H270.723V334.64H266.988V333.702H270.723V330.084H271.88ZM272.232 341.949V342.887H263.487V338.873H264.644V341.949H272.232ZM289.582 331.461V332.765C289.582 334.405 289.582 336.266 289.098 339.093L287.926 338.976C288.454 336.31 288.454 334.361 288.454 332.765V332.413H280.602V331.461H289.582ZM291.178 340.221V341.173H279.313V340.221H291.178ZM304.075 331.065C304.075 332.765 306.448 334.317 308.704 334.669L308.25 335.577C306.272 335.24 304.316 334.142 303.489 332.618C302.668 334.171 300.691 335.255 298.713 335.592L298.259 334.684C300.53 334.332 302.888 332.823 302.888 331.065V330.406H304.075V331.065ZM309.451 336.705V337.657H304.148V340.323H303.005V337.657H297.527V336.705H309.451ZM308.118 341.847V342.813H299.05V339.049H300.208V341.847H308.118ZM321.436 330.069V334.039H323.399V335.006H321.436V339.605H320.279V330.069H321.436ZM317.92 331.08C317.92 334.435 315.518 336.925 311.768 338.097L311.27 337.174C314.39 336.2 316.426 334.339 316.675 332.047H311.812V331.08H317.92ZM322.037 341.847V342.813H313.277V338.639H314.419V341.847H322.037ZM329.232 331.021C331.283 331.021 332.733 332.267 332.733 334.083C332.733 335.899 331.283 337.145 329.232 337.145C327.181 337.145 325.702 335.899 325.716 334.083C325.702 332.267 327.181 331.021 329.232 331.021ZM329.232 332.032C327.84 332.032 326.83 332.867 326.844 334.083C326.83 335.299 327.84 336.134 329.232 336.134C330.609 336.134 331.605 335.299 331.605 334.083C331.605 332.867 330.609 332.032 329.232 332.032ZM335.648 330.069V343.121H334.505V330.069H335.648ZM325.042 339.269C327.445 339.269 330.755 339.254 333.641 338.829L333.729 339.679C330.755 340.235 327.547 340.25 325.204 340.25L325.042 339.269ZM353.994 330.069V336.734H352.836V335.372H349.365V334.464H352.836V332.896H349.555C348.735 334.955 346.713 336.339 343.828 337.027L343.417 336.075C346.611 335.335 348.471 333.775 348.691 331.681H344.077V330.729H349.951C349.951 331.161 349.907 331.578 349.833 331.974H352.836V330.069H353.994ZM353.994 337.32V340.499H346.728V342.022H354.433V342.975H345.585V339.62H352.836V338.258H345.556V337.32H353.994ZM362.844 330.304C365.745 330.304 367.444 331.095 367.444 332.545C367.444 334.024 365.745 334.815 362.844 334.83C359.944 334.815 358.23 334.024 358.23 332.545C358.23 331.095 359.944 330.304 362.844 330.304ZM362.844 331.168C360.676 331.168 359.417 331.695 359.431 332.545C359.417 333.453 360.676 333.951 362.844 333.951C364.998 333.951 366.272 333.453 366.272 332.545C366.272 331.695 364.998 331.168 362.844 331.168ZM368.777 335.709V336.646H356.912V335.709H368.777ZM367.253 337.774V340.689H359.519V342.037H367.649V342.945H358.376V339.84H366.125V338.653H358.347V337.774H367.253ZM387.064 340.455V341.422H375.14V340.455H380.516V337.291H381.673V340.455H387.064ZM381.673 332.545C381.673 334.625 384.251 336.412 386.493 336.778L386.024 337.687C384.032 337.298 381.93 336.031 381.102 334.215C380.26 336.039 378.165 337.335 376.209 337.745L375.726 336.822C377.923 336.441 380.487 334.625 380.487 332.545V332.223H376.122V331.256H386.039V332.223H381.673V332.545ZM399.65 330.069V337.789H398.493V335.738H395.446V336.852H389.469V331.065H395.446V332.193H398.493V330.069H399.65ZM390.612 332.003V335.914H394.318V332.003H390.612ZM395.329 338.17C398.039 338.17 399.694 339.063 399.694 340.631C399.694 342.184 398.039 343.062 395.329 343.062C392.619 343.062 390.963 342.184 390.963 340.631C390.963 339.063 392.619 338.17 395.329 338.17ZM395.329 339.063C393.336 339.078 392.091 339.649 392.106 340.631C392.091 341.568 393.336 342.154 395.329 342.154C397.321 342.154 398.551 341.568 398.551 340.631C398.551 339.649 397.321 339.078 395.329 339.063ZM395.446 334.771H398.493V333.146H395.446V334.771ZM418.992 336.617V337.569H407.083V336.617H412.444V334.61H413.572V336.617H418.992ZM413.586 330.89C413.586 332.618 415.93 334.068 418.23 334.391L417.761 335.313C415.784 334.969 413.828 333.922 413.015 332.413C412.195 333.929 410.232 334.969 408.24 335.313L407.8 334.391C410.1 334.068 412.429 332.618 412.429 330.89V330.274H413.586V330.89ZM417.483 338.844V343.092H416.326V339.767H408.401V338.844H417.483ZM431.958 330.069V343.092H430.845V330.069H431.958ZM429.336 330.348V342.433H428.238V336.104H426.568C426.443 338.639 425.367 340.221 423.755 340.221C422.056 340.221 420.958 338.463 420.958 335.694C420.958 332.926 422.056 331.168 423.755 331.168C425.337 331.168 426.407 332.699 426.553 335.152H428.238V330.348H429.336ZM423.755 332.252C422.701 332.252 422.027 333.57 422.042 335.694C422.027 337.804 422.701 339.137 423.755 339.122C424.81 339.137 425.484 337.804 425.484 335.694C425.484 333.57 424.81 332.252 423.755 332.252ZM449.206 330.069V333.263H451.168V334.229H449.206V337.467H448.063V330.069H449.206ZM445.412 330.963V331.9H440.783V335.738C443.397 335.753 444.884 335.658 446.627 335.313L446.774 336.251C444.943 336.617 443.39 336.69 440.651 336.69H439.64V330.963H445.412ZM449.206 338.141V342.916H440.988V338.141H449.206ZM442.116 339.078V341.979H448.063V339.078H442.116ZM456.225 331.08C458.144 331.095 459.506 332.853 459.521 335.621C459.506 338.39 458.144 340.147 456.225 340.147C454.292 340.147 452.944 338.39 452.944 335.621C452.944 332.853 454.292 331.095 456.225 331.08ZM456.225 332.105C454.936 332.12 454.028 333.497 454.028 335.621C454.028 337.745 454.936 339.122 456.225 339.122C457.529 339.122 458.408 337.745 458.408 335.621C458.408 333.497 457.529 332.12 456.225 332.105ZM462.817 330.069V335.27H465V336.266H462.817V343.092H461.674V330.069H462.817ZM477.512 330.084V337.174H476.414V334.186H474.568V337.057H473.484V330.333H474.568V333.263H476.414V330.084H477.512ZM470.071 337.76V339.342H476.384V337.76H477.512V342.916H468.928V337.76H470.071ZM470.071 341.964H476.384V340.265H470.071V341.964ZM468.254 330.934V335.357C469.617 335.35 470.942 335.277 472.532 334.977L472.664 335.943C470.891 336.266 469.485 336.31 467.932 336.31H467.112V330.934H468.254ZM490.904 330.069V343.092H489.761V330.069H490.904ZM482.144 331.358V338.741C484.129 338.734 486.187 338.573 488.37 338.111L488.531 339.093C486.216 339.576 484.151 339.737 482.071 339.737H481.016V331.358H482.144ZM503.958 330.069V335.226H506.141V336.192H503.958V343.121H502.816V330.069H503.958ZM500.531 331.344V332.296H495.594V338.888C497.953 338.888 499.623 338.778 501.556 338.419L501.703 339.415C499.667 339.781 497.953 339.854 495.477 339.854H494.452V331.344H500.531ZM508.971 341.993C508.458 341.993 508.019 341.568 508.034 341.041C508.019 340.528 508.458 340.104 508.971 340.104C509.484 340.104 509.909 340.528 509.909 341.041C509.909 341.568 509.484 341.993 508.971 341.993Z" fill="#1A1A1A"/>
</svg>
