<svg width="946" height="160" viewBox="0 0 946 160" fill="none" xmlns="http://www.w3.org/2000/svg">
<path d="M402.498 7.12C402.498 5.52 402.938 4.14667 403.818 3C404.725 1.82666 405.938 1.09333 407.458 0.799999V3.04C405.671 3.52 404.778 4.8 404.778 6.88H407.058V11.52H402.498V7.12ZM408.658 7.12C408.658 5.52 409.098 4.14667 409.978 3C410.885 1.82666 412.098 1.09333 413.618 0.799999V3.04C411.831 3.52 410.938 4.8 410.938 6.88H413.218V11.52H408.658V7.12ZM422.406 31.52H440.006V35.32H418.206V3.28H422.406V31.52ZM454.307 11.88C456.521 11.88 458.521 12.4 460.307 13.44C462.094 14.48 463.481 15.92 464.467 17.76C465.481 19.5733 465.987 21.6133 465.987 23.88C465.987 26.1467 465.481 28.2 464.467 30.04C463.481 31.8533 462.094 33.28 460.307 34.32C458.521 35.36 456.521 35.88 454.307 35.88C452.067 35.88 450.054 35.36 448.267 34.32C446.507 33.28 445.121 31.8533 444.107 30.04C443.094 28.2 442.587 26.1467 442.587 23.88C442.587 21.6133 443.094 19.5733 444.107 17.76C445.121 15.92 446.507 14.48 448.267 13.44C450.054 12.4 452.067 11.88 454.307 11.88ZM454.307 15.52C452.814 15.52 451.481 15.8933 450.307 16.64C449.161 17.36 448.254 18.36 447.587 19.64C446.947 20.8933 446.627 22.3067 446.627 23.88C446.627 25.4533 446.947 26.88 447.587 28.16C448.254 29.4133 449.161 30.4133 450.307 31.16C451.481 31.88 452.814 32.24 454.307 32.24C455.774 32.24 457.094 31.88 458.267 31.16C459.441 30.4133 460.347 29.4133 460.987 28.16C461.627 26.88 461.947 25.4533 461.947 23.88C461.947 22.3067 461.627 20.8933 460.987 19.64C460.347 18.36 459.441 17.36 458.267 16.64C457.094 15.8933 455.774 15.52 454.307 15.52ZM491.515 12.44L481.835 35.32H477.475L467.835 12.44H472.315L479.795 30.64L487.275 12.44H491.515ZM504.458 35.88C502.271 35.88 500.298 35.36 498.538 34.32C496.805 33.28 495.445 31.8533 494.458 30.04C493.471 28.2 492.978 26.1467 492.978 23.88C492.978 21.6133 493.471 19.5733 494.458 17.76C495.445 15.92 496.805 14.48 498.538 13.44C500.298 12.4 502.271 11.88 504.458 11.88C506.645 11.88 508.605 12.4 510.338 13.44C512.098 14.48 513.458 15.92 514.418 17.76C515.405 19.5733 515.898 21.6133 515.898 23.88C515.898 24.6267 515.871 25.1867 515.818 25.56H497.098C497.311 27.56 498.085 29.2 499.418 30.48C500.778 31.76 502.458 32.4 504.458 32.4C505.978 32.4 507.311 32.0933 508.458 31.48C509.631 30.84 510.431 30.04 510.858 29.08H515.058C514.418 31.08 513.138 32.7067 511.218 33.96C509.298 35.24 507.045 35.88 504.458 35.88ZM511.858 22.2C511.618 20.1733 510.831 18.5333 509.498 17.28C508.165 16 506.485 15.36 504.458 15.36C502.431 15.36 500.751 16 499.418 17.28C498.085 18.5333 497.311 20.1733 497.098 22.2H511.858ZM534.382 1.88C535.182 1.88 535.835 2.14667 536.342 2.68C536.875 3.18666 537.142 3.82666 537.142 4.6C537.142 5.37333 536.875 6.02667 536.342 6.56C535.835 7.06667 535.182 7.32 534.382 7.32C533.609 7.32 532.955 7.06667 532.422 6.56C531.915 6.02667 531.662 5.37333 531.662 4.6C531.662 3.82666 531.915 3.18666 532.422 2.68C532.955 2.14667 533.609 1.88 534.382 1.88ZM532.342 35.36V12.44H536.462V35.36H532.342ZM551.928 11.88C553.768 11.88 555.435 12.1733 556.928 12.76C558.421 13.32 559.608 14.1067 560.488 15.12C561.395 16.1067 561.875 17.24 561.928 18.52H557.888C557.808 17.56 557.195 16.7733 556.048 16.16C554.901 15.5467 553.488 15.24 551.808 15.24C550.155 15.24 548.781 15.5333 547.688 16.12C546.621 16.7067 546.088 17.4267 546.088 18.28C546.088 19.2667 546.581 20.0533 547.568 20.64C548.581 21.2267 550.435 21.7067 553.128 22.08C556.461 22.5333 558.848 23.3067 560.288 24.4C561.728 25.4933 562.448 26.96 562.448 28.8C562.448 30.24 561.981 31.4933 561.048 32.56C560.141 33.6267 558.901 34.44 557.328 35C555.755 35.5867 554.008 35.88 552.088 35.88C550.088 35.88 548.328 35.5733 546.808 34.96C545.288 34.3733 544.088 33.5467 543.208 32.48C542.355 31.44 541.875 30.2533 541.768 28.92H545.808C545.941 29.9067 546.555 30.76 547.648 31.48C548.768 32.1733 550.288 32.52 552.208 32.52C553.995 32.52 555.475 32.2 556.648 31.56C557.821 30.8933 558.408 30.0533 558.408 29.04C558.408 28.08 557.861 27.32 556.768 26.76C555.701 26.1733 553.835 25.7067 551.168 25.36C548.021 24.9333 545.715 24.1867 544.248 23.12C542.781 22.0267 542.048 20.4933 542.048 18.52C542.048 17.2133 542.475 16.0533 543.328 15.04C544.208 14.0267 545.395 13.2533 546.888 12.72C548.381 12.16 550.061 11.88 551.928 11.88ZM589.145 35.88C586.959 35.88 584.985 35.36 583.225 34.32C581.492 33.28 580.132 31.8533 579.145 30.04C578.159 28.2 577.665 26.1467 577.665 23.88C577.665 21.6133 578.159 19.5733 579.145 17.76C580.132 15.92 581.492 14.48 583.225 13.44C584.985 12.4 586.959 11.88 589.145 11.88C591.332 11.88 593.292 12.4 595.025 13.44C596.785 14.48 598.145 15.92 599.105 17.76C600.092 19.5733 600.585 21.6133 600.585 23.88C600.585 24.6267 600.559 25.1867 600.505 25.56H581.785C581.999 27.56 582.772 29.2 584.105 30.48C585.465 31.76 587.145 32.4 589.145 32.4C590.665 32.4 591.999 32.0933 593.145 31.48C594.319 30.84 595.119 30.04 595.545 29.08H599.745C599.105 31.08 597.825 32.7067 595.905 33.96C593.985 35.24 591.732 35.88 589.145 35.88ZM596.545 22.2C596.305 20.1733 595.519 18.5333 594.185 17.28C592.852 16 591.172 15.36 589.145 15.36C587.119 15.36 585.439 16 584.105 17.28C582.772 18.5333 581.999 20.1733 581.785 22.2H596.545ZM601.939 12.44H606.979L613.539 20.88L620.179 12.44H624.939L616.059 23.64L625.419 35.32H620.379L613.379 26.48L606.379 35.32H601.619L610.859 23.72L601.939 12.44ZM641.613 35.88C639.667 35.88 637.987 35.4933 636.573 34.72C635.16 33.9467 634.133 33.0133 633.493 31.92V45.04H629.373V12.44H633.493V15.84C634.133 14.7467 635.16 13.8133 636.573 13.04C637.987 12.2667 639.667 11.88 641.613 11.88C643.747 11.88 645.667 12.4 647.373 13.44C649.107 14.48 650.467 15.92 651.453 17.76C652.44 19.6 652.933 21.64 652.933 23.88C652.933 26.12 652.44 28.16 651.453 30C650.467 31.84 649.107 33.28 647.373 34.32C645.667 35.36 643.747 35.88 641.613 35.88ZM641.253 32.24C642.747 32.24 644.067 31.88 645.213 31.16C646.387 30.44 647.293 29.44 647.933 28.16C648.573 26.88 648.893 25.4533 648.893 23.88C648.893 22.3067 648.573 20.88 647.933 19.6C647.293 18.32 646.387 17.32 645.213 16.6C644.067 15.88 642.747 15.52 641.253 15.52C639.733 15.52 638.373 15.8933 637.173 16.64C636 17.36 635.08 18.36 634.413 19.64C633.747 20.8933 633.413 22.3067 633.413 23.88C633.413 25.4533 633.747 26.88 634.413 28.16C635.08 29.4133 636 30.4133 637.173 31.16C638.373 31.88 639.733 32.24 641.253 32.24ZM662.321 12.44V15.96C662.935 14.92 663.948 13.9867 665.361 13.16C666.801 12.3067 668.535 11.88 670.561 11.88C671.868 11.88 672.908 12.0133 673.681 12.28V16.2C672.748 15.7733 671.615 15.56 670.281 15.56C668.761 15.56 667.388 15.9333 666.161 16.68C664.961 17.4 664.015 18.3733 663.321 19.6C662.655 20.8 662.321 22.0933 662.321 23.48V35.32H658.201V12.44H662.321ZM686.841 35.88C684.654 35.88 682.681 35.36 680.921 34.32C679.187 33.28 677.827 31.8533 676.841 30.04C675.854 28.2 675.361 26.1467 675.361 23.88C675.361 21.6133 675.854 19.5733 676.841 17.76C677.827 15.92 679.187 14.48 680.921 13.44C682.681 12.4 684.654 11.88 686.841 11.88C689.027 11.88 690.987 12.4 692.721 13.44C694.481 14.48 695.841 15.92 696.801 17.76C697.787 19.5733 698.281 21.6133 698.281 23.88C698.281 24.6267 698.254 25.1867 698.201 25.56H679.481C679.694 27.56 680.467 29.2 681.801 30.48C683.161 31.76 684.841 32.4 686.841 32.4C688.361 32.4 689.694 32.0933 690.841 31.48C692.014 30.84 692.814 30.04 693.241 29.08H697.441C696.801 31.08 695.521 32.7067 693.601 33.96C691.681 35.24 689.427 35.88 686.841 35.88ZM694.241 22.2C694.001 20.1733 693.214 18.5333 691.881 17.28C690.547 16 688.867 15.36 686.841 15.36C684.814 15.36 683.134 16 681.801 17.28C680.467 18.5333 679.694 20.1733 679.481 22.2H694.241ZM712.514 11.88C714.354 11.88 716.021 12.1733 717.514 12.76C719.007 13.32 720.194 14.1067 721.074 15.12C721.981 16.1067 722.461 17.24 722.514 18.52H718.474C718.394 17.56 717.781 16.7733 716.634 16.16C715.487 15.5467 714.074 15.24 712.394 15.24C710.741 15.24 709.367 15.5333 708.274 16.12C707.207 16.7067 706.674 17.4267 706.674 18.28C706.674 19.2667 707.167 20.0533 708.154 20.64C709.167 21.2267 711.021 21.7067 713.714 22.08C717.047 22.5333 719.434 23.3067 720.874 24.4C722.314 25.4933 723.034 26.96 723.034 28.8C723.034 30.24 722.567 31.4933 721.634 32.56C720.727 33.6267 719.487 34.44 717.914 35C716.341 35.5867 714.594 35.88 712.674 35.88C710.674 35.88 708.914 35.5733 707.394 34.96C705.874 34.3733 704.674 33.5467 703.794 32.48C702.941 31.44 702.461 30.2533 702.354 28.92H706.394C706.527 29.9067 707.141 30.76 708.234 31.48C709.354 32.1733 710.874 32.52 712.794 32.52C714.581 32.52 716.061 32.2 717.234 31.56C718.407 30.8933 718.994 30.0533 718.994 29.04C718.994 28.08 718.447 27.32 717.354 26.76C716.287 26.1733 714.421 25.7067 711.754 25.36C708.607 24.9333 706.301 24.1867 704.834 23.12C703.367 22.0267 702.634 20.4933 702.634 18.52C702.634 17.2133 703.061 16.0533 703.914 15.04C704.794 14.0267 705.981 13.2533 707.474 12.72C708.967 12.16 710.647 11.88 712.514 11.88ZM737.24 11.88C739.08 11.88 740.747 12.1733 742.24 12.76C743.734 13.32 744.92 14.1067 745.8 15.12C746.707 16.1067 747.187 17.24 747.24 18.52H743.2C743.12 17.56 742.507 16.7733 741.36 16.16C740.214 15.5467 738.8 15.24 737.12 15.24C735.467 15.24 734.094 15.5333 733 16.12C731.934 16.7067 731.4 17.4267 731.4 18.28C731.4 19.2667 731.894 20.0533 732.88 20.64C733.894 21.2267 735.747 21.7067 738.44 22.08C741.774 22.5333 744.16 23.3067 745.6 24.4C747.04 25.4933 747.76 26.96 747.76 28.8C747.76 30.24 747.294 31.4933 746.36 32.56C745.454 33.6267 744.214 34.44 742.64 35C741.067 35.5867 739.32 35.88 737.4 35.88C735.4 35.88 733.64 35.5733 732.12 34.96C730.6 34.3733 729.4 33.5467 728.52 32.48C727.667 31.44 727.187 30.2533 727.08 28.92H731.12C731.254 29.9067 731.867 30.76 732.96 31.48C734.08 32.1733 735.6 32.52 737.52 32.52C739.307 32.52 740.787 32.2 741.96 31.56C743.134 30.8933 743.72 30.0533 743.72 29.04C743.72 28.08 743.174 27.32 742.08 26.76C741.014 26.1733 739.147 25.7067 736.48 25.36C733.334 24.9333 731.027 24.1867 729.56 23.12C728.094 22.0267 727.36 20.4933 727.36 18.52C727.36 17.2133 727.787 16.0533 728.64 15.04C729.52 14.0267 730.707 13.2533 732.2 12.72C733.694 12.16 735.374 11.88 737.24 11.88ZM763.247 35.88C761.06 35.88 759.087 35.36 757.327 34.32C755.594 33.28 754.234 31.8533 753.247 30.04C752.26 28.2 751.767 26.1467 751.767 23.88C751.767 21.6133 752.26 19.5733 753.247 17.76C754.234 15.92 755.594 14.48 757.327 13.44C759.087 12.4 761.06 11.88 763.247 11.88C765.434 11.88 767.394 12.4 769.127 13.44C770.887 14.48 772.247 15.92 773.207 17.76C774.194 19.5733 774.687 21.6133 774.687 23.88C774.687 24.6267 774.66 25.1867 774.607 25.56H755.887C756.1 27.56 756.874 29.2 758.207 30.48C759.567 31.76 761.247 32.4 763.247 32.4C764.767 32.4 766.1 32.0933 767.247 31.48C768.42 30.84 769.22 30.04 769.647 29.08H773.847C773.207 31.08 771.927 32.7067 770.007 33.96C768.087 35.24 765.834 35.88 763.247 35.88ZM770.647 22.2C770.407 20.1733 769.62 18.5333 768.287 17.28C766.954 16 765.274 15.36 763.247 15.36C761.22 15.36 759.54 16 758.207 17.28C756.874 18.5333 756.1 20.1733 755.887 22.2H770.647ZM790.04 35.88C787.907 35.88 785.974 35.36 784.24 34.32C782.534 33.28 781.187 31.84 780.2 30C779.214 28.16 778.72 26.12 778.72 23.88C778.72 21.64 779.214 19.6 780.2 17.76C781.187 15.92 782.534 14.48 784.24 13.44C785.974 12.4 787.907 11.88 790.04 11.88C791.987 11.88 793.667 12.2667 795.08 13.04C796.494 13.8133 797.52 14.7467 798.16 15.84V2.28H802.28V35.32H798.16V31.92C797.52 33.0133 796.494 33.9467 795.08 34.72C793.667 35.4933 791.987 35.88 790.04 35.88ZM790.4 32.24C791.92 32.24 793.267 31.88 794.44 31.16C795.64 30.4133 796.574 29.4133 797.24 28.16C797.907 26.88 798.24 25.4533 798.24 23.88C798.24 22.3067 797.907 20.8933 797.24 19.64C796.574 18.36 795.64 17.36 794.44 16.64C793.267 15.8933 791.92 15.52 790.4 15.52C788.907 15.52 787.574 15.88 786.4 16.6C785.254 17.32 784.36 18.32 783.72 19.6C783.08 20.88 782.76 22.3067 782.76 23.88C782.76 25.4533 783.08 26.88 783.72 28.16C784.36 29.44 785.254 30.44 786.4 31.16C787.574 31.88 788.907 32.24 790.4 32.24ZM821.999 1.88C822.799 1.88 823.453 2.14667 823.959 2.68C824.493 3.18666 824.759 3.82666 824.759 4.6C824.759 5.37333 824.493 6.02667 823.959 6.56C823.453 7.06667 822.799 7.32 821.999 7.32C821.226 7.32 820.573 7.06667 820.039 6.56C819.533 6.02667 819.279 5.37333 819.279 4.6C819.279 3.82666 819.533 3.18666 820.039 2.68C820.573 2.14667 821.226 1.88 821.999 1.88ZM819.959 35.36V12.44H824.079V35.36H819.959ZM834.665 12.44V15.92C835.252 14.88 836.212 13.9467 837.545 13.12C838.905 12.2933 840.532 11.88 842.425 11.88C844.212 11.88 845.799 12.2933 847.185 13.12C848.599 13.9467 849.692 15.12 850.465 16.64C851.239 18.1333 851.625 19.8933 851.625 21.92V35.32H847.505V22.64C847.505 20.3467 846.972 18.5867 845.905 17.36C844.865 16.1067 843.412 15.48 841.545 15.48C840.239 15.48 839.065 15.8533 838.025 16.6C836.985 17.32 836.159 18.2933 835.545 19.52C834.959 20.7467 834.665 22.0667 834.665 23.48V35.32H830.545V12.44H834.665ZM880.67 16.08H875.59V35.32H871.47V16.08H866.39V12.44H871.47V5.48H875.59V12.44H880.67V16.08ZM889.04 2.28V15.92C889.627 14.88 890.587 13.9467 891.92 13.12C893.28 12.2933 894.907 11.88 896.8 11.88C898.587 11.88 900.174 12.2933 901.56 13.12C902.974 13.9467 904.067 15.12 904.84 16.64C905.614 18.1333 906 19.8933 906 21.92V35.32H901.88V22.64C901.88 20.3467 901.347 18.5867 900.28 17.36C899.24 16.1067 897.787 15.48 895.92 15.48C894.614 15.48 893.44 15.8533 892.4 16.6C891.36 17.32 890.534 18.2933 889.92 19.52C889.334 20.7467 889.04 22.0667 889.04 23.48V35.32H884.92V2.28H889.04ZM922.231 35.88C920.045 35.88 918.071 35.36 916.311 34.32C914.578 33.28 913.218 31.8533 912.231 30.04C911.245 28.2 910.751 26.1467 910.751 23.88C910.751 21.6133 911.245 19.5733 912.231 17.76C913.218 15.92 914.578 14.48 916.311 13.44C918.071 12.4 920.045 11.88 922.231 11.88C924.418 11.88 926.378 12.4 928.111 13.44C929.871 14.48 931.231 15.92 932.191 17.76C933.178 19.5733 933.671 21.6133 933.671 23.88C933.671 24.6267 933.645 25.1867 933.591 25.56H914.871C915.085 27.56 915.858 29.2 917.191 30.48C918.551 31.76 920.231 32.4 922.231 32.4C923.751 32.4 925.085 32.0933 926.231 31.48C927.405 30.84 928.205 30.04 928.631 29.08H932.831C932.191 31.08 930.911 32.7067 928.991 33.96C927.071 35.24 924.818 35.88 922.231 35.88ZM929.631 22.2C929.391 20.1733 928.605 18.5333 927.271 17.28C925.938 16 924.258 15.36 922.231 15.36C920.205 15.36 918.525 16 917.191 17.28C915.858 18.5333 915.085 20.1733 914.871 22.2H929.631ZM16.4983 83.04V111.32H12.2983V83.04H0.778301V79.28H27.9783V83.04H16.4983ZM36.8527 78.28V91.92C37.4393 90.88 38.3993 89.9467 39.7327 89.12C41.0927 88.2933 42.7193 87.88 44.6127 87.88C46.3993 87.88 47.986 88.2933 49.3727 89.12C50.786 89.9467 51.8793 91.12 52.6527 92.64C53.426 94.1333 53.8127 95.8933 53.8127 97.92V111.32H49.6927V98.64C49.6927 96.3467 49.1593 94.5867 48.0927 93.36C47.0527 92.1067 45.5993 91.48 43.7327 91.48C42.426 91.48 41.2527 91.8533 40.2127 92.6C39.1727 93.32 38.346 94.2933 37.7327 95.52C37.146 96.7467 36.8527 98.0667 36.8527 99.48V111.32H32.7327V78.28H36.8527ZM70.0439 111.88C67.8573 111.88 65.8839 111.36 64.1239 110.32C62.3906 109.28 61.0306 107.853 60.0439 106.04C59.0573 104.2 58.5639 102.147 58.5639 99.88C58.5639 97.6133 59.0573 95.5733 60.0439 93.76C61.0306 91.92 62.3906 90.48 64.1239 89.44C65.8839 88.4 67.8573 87.88 70.0439 87.88C72.2306 87.88 74.1906 88.4 75.9239 89.44C77.6839 90.48 79.0439 91.92 80.0039 93.76C80.9906 95.5733 81.4839 97.6133 81.4839 99.88C81.4839 100.627 81.4573 101.187 81.4039 101.56H62.6839C62.8973 103.56 63.6706 105.2 65.0039 106.48C66.3639 107.76 68.0439 108.4 70.0439 108.4C71.5639 108.4 72.8973 108.093 74.0439 107.48C75.2173 106.84 76.0173 106.04 76.4439 105.08H80.6439C80.0039 107.08 78.7239 108.707 76.8039 109.96C74.8839 111.24 72.6306 111.88 70.0439 111.88ZM77.4439 98.2C77.2039 96.1733 76.4173 94.5333 75.0839 93.28C73.7506 92 72.0706 91.36 70.0439 91.36C68.0173 91.36 66.3373 92 65.0039 93.28C63.6706 94.5333 62.8973 96.1733 62.6839 98.2H77.4439ZM108.208 111.88C106.021 111.88 104.048 111.36 102.288 110.32C100.555 109.28 99.1947 107.853 98.208 106.04C97.2213 104.2 96.728 102.147 96.728 99.88C96.728 97.6133 97.2213 95.5733 98.208 93.76C99.1947 91.92 100.555 90.48 102.288 89.44C104.048 88.4 106.021 87.88 108.208 87.88C110.395 87.88 112.355 88.4 114.088 89.44C115.848 90.48 117.208 91.92 118.168 93.76C119.155 95.5733 119.648 97.6133 119.648 99.88C119.648 100.627 119.621 101.187 119.568 101.56H100.848C101.061 103.56 101.835 105.2 103.168 106.48C104.528 107.76 106.208 108.4 108.208 108.4C109.728 108.4 111.061 108.093 112.208 107.48C113.381 106.84 114.181 106.04 114.608 105.08H118.808C118.168 107.08 116.888 108.707 114.968 109.96C113.048 111.24 110.795 111.88 108.208 111.88ZM115.608 98.2C115.368 96.1733 114.581 94.5333 113.248 93.28C111.915 92 110.235 91.36 108.208 91.36C106.181 91.36 104.501 92 103.168 93.28C101.835 94.5333 101.061 96.1733 100.848 98.2H115.608ZM129.001 88.44V91.68C129.668 90.6133 130.548 89.72 131.641 89C132.761 88.2533 134.188 87.88 135.921 87.88C137.601 87.88 139.068 88.3067 140.321 89.16C141.574 90.0133 142.481 91.1867 143.041 92.68C143.734 91.2133 144.788 90.0533 146.201 89.2C147.614 88.32 149.268 87.88 151.161 87.88C152.788 87.88 154.228 88.28 155.481 89.08C156.761 89.8533 157.761 90.96 158.481 92.4C159.201 93.84 159.561 95.5067 159.561 97.4V111.32H155.441V98.08C155.441 96.0267 154.974 94.4133 154.041 93.24C153.108 92.0667 151.828 91.48 150.201 91.48C149.081 91.48 148.068 91.8133 147.161 92.48C146.254 93.1467 145.548 94.0533 145.041 95.2C144.534 96.3467 144.281 97.6133 144.281 99V111.32H140.161V98.24C140.161 96.1067 139.694 94.4533 138.761 93.28C137.828 92.08 136.548 91.48 134.921 91.48C133.801 91.48 132.788 91.8133 131.881 92.48C131.001 93.1467 130.294 94.0533 129.761 95.2C129.254 96.3467 129.001 97.6 129.001 98.96V111.32H124.881V88.44H129.001ZM175.948 87.88C178.161 87.88 180.161 88.4 181.948 89.44C183.735 90.48 185.121 91.92 186.108 93.76C187.121 95.5733 187.628 97.6133 187.628 99.88C187.628 102.147 187.121 104.2 186.108 106.04C185.121 107.853 183.735 109.28 181.948 110.32C180.161 111.36 178.161 111.88 175.948 111.88C173.708 111.88 171.695 111.36 169.908 110.32C168.148 109.28 166.761 107.853 165.748 106.04C164.735 104.2 164.228 102.147 164.228 99.88C164.228 97.6133 164.735 95.5733 165.748 93.76C166.761 91.92 168.148 90.48 169.908 89.44C171.695 88.4 173.708 87.88 175.948 87.88ZM175.948 91.52C174.455 91.52 173.121 91.8933 171.948 92.64C170.801 93.36 169.895 94.36 169.228 95.64C168.588 96.8933 168.268 98.3067 168.268 99.88C168.268 101.453 168.588 102.88 169.228 104.16C169.895 105.413 170.801 106.413 171.948 107.16C173.121 107.88 174.455 108.24 175.948 108.24C177.415 108.24 178.735 107.88 179.908 107.16C181.081 106.413 181.988 105.413 182.628 104.16C183.268 102.88 183.588 101.453 183.588 99.88C183.588 98.3067 183.268 96.8933 182.628 95.64C181.988 94.36 181.081 93.36 179.908 92.64C178.735 91.8933 177.415 91.52 175.948 91.52ZM204.147 92.08H199.067V111.32H194.947V92.08H189.867V88.44H194.947V81.48H199.067V88.44H204.147V92.08ZM210.437 77.88C211.237 77.88 211.89 78.1467 212.397 78.68C212.93 79.1867 213.197 79.8267 213.197 80.6C213.197 81.3733 212.93 82.0267 212.397 82.56C211.89 83.0667 211.237 83.32 210.437 83.32C209.663 83.32 209.01 83.0667 208.477 82.56C207.97 82.0267 207.717 81.3733 207.717 80.6C207.717 79.8267 207.97 79.1867 208.477 78.68C209.01 78.1467 209.663 77.88 210.437 77.88ZM208.397 111.36V88.44H212.517V111.36H208.397ZM229.503 87.88C231.716 87.88 233.716 88.4 235.503 89.44C237.289 90.48 238.676 91.92 239.663 93.76C240.676 95.5733 241.183 97.6133 241.183 99.88C241.183 102.147 240.676 104.2 239.663 106.04C238.676 107.853 237.289 109.28 235.503 110.32C233.716 111.36 231.716 111.88 229.503 111.88C227.263 111.88 225.249 111.36 223.463 110.32C221.703 109.28 220.316 107.853 219.303 106.04C218.289 104.2 217.783 102.147 217.783 99.88C217.783 97.6133 218.289 95.5733 219.303 93.76C220.316 91.92 221.703 90.48 223.463 89.44C225.249 88.4 227.263 87.88 229.503 87.88ZM229.503 91.52C228.009 91.52 226.676 91.8933 225.503 92.64C224.356 93.36 223.449 94.36 222.783 95.64C222.143 96.8933 221.823 98.3067 221.823 99.88C221.823 101.453 222.143 102.88 222.783 104.16C223.449 105.413 224.356 106.413 225.503 107.16C226.676 107.88 228.009 108.24 229.503 108.24C230.969 108.24 232.289 107.88 233.463 107.16C234.636 106.413 235.543 105.413 236.183 104.16C236.823 102.88 237.143 101.453 237.143 99.88C237.143 98.3067 236.823 96.8933 236.183 95.64C235.543 94.36 234.636 93.36 233.463 92.64C232.289 91.8933 230.969 91.52 229.503 91.52ZM250.564 88.44V91.92C251.15 90.88 252.11 89.9467 253.444 89.12C254.804 88.2933 256.43 87.88 258.324 87.88C260.11 87.88 261.697 88.2933 263.084 89.12C264.497 89.9467 265.59 91.12 266.364 92.64C267.137 94.1333 267.524 95.8933 267.524 97.92V111.32H263.404V98.64C263.404 96.3467 262.87 94.5867 261.804 93.36C260.764 92.1067 259.31 91.48 257.444 91.48C256.137 91.48 254.964 91.8533 253.924 92.6C252.884 93.32 252.057 94.2933 251.444 95.52C250.857 96.7467 250.564 98.0667 250.564 99.48V111.32H246.444V88.44H250.564ZM282.358 87.88C284.198 87.88 285.864 88.1733 287.358 88.76C288.851 89.32 290.038 90.1067 290.918 91.12C291.824 92.1067 292.304 93.24 292.358 94.52H288.318C288.238 93.56 287.624 92.7733 286.478 92.16C285.331 91.5467 283.918 91.24 282.238 91.24C280.584 91.24 279.211 91.5333 278.118 92.12C277.051 92.7067 276.518 93.4267 276.518 94.28C276.518 95.2667 277.011 96.0533 277.998 96.64C279.011 97.2267 280.864 97.7067 283.558 98.08C286.891 98.5333 289.278 99.3067 290.718 100.4C292.158 101.493 292.878 102.96 292.878 104.8C292.878 106.24 292.411 107.493 291.478 108.56C290.571 109.627 289.331 110.44 287.758 111C286.184 111.587 284.438 111.88 282.518 111.88C280.518 111.88 278.758 111.573 277.238 110.96C275.718 110.373 274.518 109.547 273.638 108.48C272.784 107.44 272.304 106.253 272.198 104.92H276.238C276.371 105.907 276.984 106.76 278.078 107.48C279.198 108.173 280.718 108.52 282.638 108.52C284.424 108.52 285.904 108.2 287.078 107.56C288.251 106.893 288.838 106.053 288.838 105.04C288.838 104.08 288.291 103.32 287.198 102.76C286.131 102.173 284.264 101.707 281.598 101.36C278.451 100.933 276.144 100.187 274.678 99.12C273.211 98.0267 272.478 96.4933 272.478 94.52C272.478 93.2133 272.904 92.0533 273.758 91.04C274.638 90.0267 275.824 89.2533 277.318 88.72C278.811 88.16 280.491 87.88 282.358 87.88ZM321.295 92.08H316.215V111.32H312.095V92.08H307.015V88.44H312.095V81.48H316.215V88.44H321.295V92.08ZM329.665 78.28V91.92C330.252 90.88 331.212 89.9467 332.545 89.12C333.905 88.2933 335.532 87.88 337.425 87.88C339.212 87.88 340.799 88.2933 342.185 89.12C343.599 89.9467 344.692 91.12 345.465 92.64C346.239 94.1333 346.625 95.8933 346.625 97.92V111.32H342.505V98.64C342.505 96.3467 341.972 94.5867 340.905 93.36C339.865 92.1067 338.412 91.48 336.545 91.48C335.239 91.48 334.065 91.8533 333.025 92.6C331.985 93.32 331.159 94.2933 330.545 95.52C329.959 96.7467 329.665 98.0667 329.665 99.48V111.32H325.545V78.28H329.665ZM362.696 111.88C360.563 111.88 358.63 111.36 356.896 110.32C355.19 109.28 353.843 107.84 352.856 106C351.87 104.16 351.376 102.12 351.376 99.88C351.376 97.64 351.87 95.6 352.856 93.76C353.843 91.92 355.19 90.48 356.896 89.44C358.63 88.4 360.563 87.88 362.696 87.88C364.643 87.88 366.323 88.2667 367.736 89.04C369.15 89.8133 370.176 90.7467 370.816 91.84V88.44H374.936V111.32H370.816V107.92C370.176 109.013 369.15 109.947 367.736 110.72C366.323 111.493 364.643 111.88 362.696 111.88ZM363.056 108.24C364.576 108.24 365.923 107.88 367.096 107.16C368.296 106.413 369.23 105.413 369.896 104.16C370.563 102.88 370.896 101.453 370.896 99.88C370.896 98.3067 370.563 96.8933 369.896 95.64C369.23 94.36 368.296 93.36 367.096 92.64C365.923 91.8933 364.576 91.52 363.056 91.52C361.563 91.52 360.23 91.88 359.056 92.6C357.91 93.32 357.016 94.32 356.376 95.6C355.736 96.88 355.416 98.3067 355.416 99.88C355.416 101.453 355.736 102.88 356.376 104.16C357.016 105.44 357.91 106.44 359.056 107.16C360.23 107.88 361.563 108.24 363.056 108.24ZM393.405 92.08H388.325V111.32H384.205V92.08H379.125V88.44H384.205V81.48H388.325V88.44H393.405V92.08ZM421.105 111.88C419.159 111.88 417.479 111.493 416.065 110.72C414.652 109.947 413.625 109.013 412.985 107.92V111.32H408.865V78.28H412.985V91.84C413.625 90.7467 414.652 89.8133 416.065 89.04C417.479 88.2667 419.159 87.88 421.105 87.88C423.239 87.88 425.159 88.4 426.865 89.44C428.599 90.48 429.959 91.92 430.945 93.76C431.932 95.6 432.425 97.64 432.425 99.88C432.425 102.12 431.932 104.16 430.945 106C429.959 107.84 428.599 109.28 426.865 110.32C425.159 111.36 423.239 111.88 421.105 111.88ZM420.745 108.24C422.239 108.24 423.559 107.88 424.705 107.16C425.879 106.44 426.785 105.44 427.425 104.16C428.065 102.88 428.385 101.453 428.385 99.88C428.385 98.3067 428.065 96.88 427.425 95.6C426.785 94.32 425.879 93.32 424.705 92.6C423.559 91.88 422.239 91.52 420.745 91.52C419.225 91.52 417.865 91.8933 416.665 92.64C415.492 93.36 414.572 94.36 413.905 95.64C413.239 96.8933 412.905 98.3067 412.905 99.88C412.905 101.453 413.239 102.88 413.905 104.16C414.572 105.413 415.492 106.413 416.665 107.16C417.865 107.88 419.225 108.24 420.745 108.24ZM437.694 111.32V78.28H441.814V111.32H437.694ZM458.8 87.88C461.013 87.88 463.013 88.4 464.8 89.44C466.586 90.48 467.973 91.92 468.96 93.76C469.973 95.5733 470.48 97.6133 470.48 99.88C470.48 102.147 469.973 104.2 468.96 106.04C467.973 107.853 466.586 109.28 464.8 110.32C463.013 111.36 461.013 111.88 458.8 111.88C456.56 111.88 454.546 111.36 452.76 110.32C451 109.28 449.613 107.853 448.6 106.04C447.586 104.2 447.08 102.147 447.08 99.88C447.08 97.6133 447.586 95.5733 448.6 93.76C449.613 91.92 451 90.48 452.76 89.44C454.546 88.4 456.56 87.88 458.8 87.88ZM458.8 91.52C457.306 91.52 455.973 91.8933 454.8 92.64C453.653 93.36 452.746 94.36 452.08 95.64C451.44 96.8933 451.12 98.3067 451.12 99.88C451.12 101.453 451.44 102.88 452.08 104.16C452.746 105.413 453.653 106.413 454.8 107.16C455.973 107.88 457.306 108.24 458.8 108.24C460.266 108.24 461.586 107.88 462.76 107.16C463.933 106.413 464.84 105.413 465.48 104.16C466.12 102.88 466.44 101.453 466.44 99.88C466.44 98.3067 466.12 96.8933 465.48 95.64C464.84 94.36 463.933 93.36 462.76 92.64C461.586 91.8933 460.266 91.52 458.8 91.52ZM486.26 87.88C488.474 87.88 490.474 88.4 492.26 89.44C494.047 90.48 495.434 91.92 496.42 93.76C497.434 95.5733 497.94 97.6133 497.94 99.88C497.94 102.147 497.434 104.2 496.42 106.04C495.434 107.853 494.047 109.28 492.26 110.32C490.474 111.36 488.474 111.88 486.26 111.88C484.02 111.88 482.007 111.36 480.22 110.32C478.46 109.28 477.074 107.853 476.06 106.04C475.047 104.2 474.54 102.147 474.54 99.88C474.54 97.6133 475.047 95.5733 476.06 93.76C477.074 91.92 478.46 90.48 480.22 89.44C482.007 88.4 484.02 87.88 486.26 87.88ZM486.26 91.52C484.767 91.52 483.434 91.8933 482.26 92.64C481.114 93.36 480.207 94.36 479.54 95.64C478.9 96.8933 478.58 98.3067 478.58 99.88C478.58 101.453 478.9 102.88 479.54 104.16C480.207 105.413 481.114 106.413 482.26 107.16C483.434 107.88 484.767 108.24 486.26 108.24C487.727 108.24 489.047 107.88 490.22 107.16C491.394 106.413 492.3 105.413 492.94 104.16C493.58 102.88 493.9 101.453 493.9 99.88C493.9 98.3067 493.58 96.8933 492.94 95.64C492.3 94.36 491.394 93.36 490.22 92.64C489.047 91.8933 487.727 91.52 486.26 91.52ZM507.321 88.44V91.68C507.988 90.6133 508.868 89.72 509.961 89C511.081 88.2533 512.508 87.88 514.241 87.88C515.921 87.88 517.388 88.3067 518.641 89.16C519.895 90.0133 520.801 91.1867 521.361 92.68C522.055 91.2133 523.108 90.0533 524.521 89.2C525.935 88.32 527.588 87.88 529.481 87.88C531.108 87.88 532.548 88.28 533.801 89.08C535.081 89.8533 536.081 90.96 536.801 92.4C537.521 93.84 537.881 95.5067 537.881 97.4V111.32H533.761V98.08C533.761 96.0267 533.295 94.4133 532.361 93.24C531.428 92.0667 530.148 91.48 528.521 91.48C527.401 91.48 526.388 91.8133 525.481 92.48C524.575 93.1467 523.868 94.0533 523.361 95.2C522.855 96.3467 522.601 97.6133 522.601 99V111.32H518.481V98.24C518.481 96.1067 518.015 94.4533 517.081 93.28C516.148 92.08 514.868 91.48 513.241 91.48C512.121 91.48 511.108 91.8133 510.201 92.48C509.321 93.1467 508.615 94.0533 508.081 95.2C507.575 96.3467 507.321 97.6 507.321 98.96V111.32H503.201V88.44H507.321ZM556.999 77.88C557.799 77.88 558.453 78.1467 558.959 78.68C559.493 79.1867 559.759 79.8267 559.759 80.6C559.759 81.3733 559.493 82.0267 558.959 82.56C558.453 83.0667 557.799 83.32 556.999 83.32C556.226 83.32 555.573 83.0667 555.039 82.56C554.533 82.0267 554.279 81.3733 554.279 80.6C554.279 79.8267 554.533 79.1867 555.039 78.68C555.573 78.1467 556.226 77.88 556.999 77.88ZM554.959 111.36V88.44H559.079V111.36H554.959ZM569.665 88.44V91.92C570.252 90.88 571.212 89.9467 572.545 89.12C573.905 88.2933 575.532 87.88 577.425 87.88C579.212 87.88 580.799 88.2933 582.185 89.12C583.599 89.9467 584.692 91.12 585.465 92.64C586.239 94.1333 586.625 95.8933 586.625 97.92V111.32H582.505V98.64C582.505 96.3467 581.972 94.5867 580.905 93.36C579.865 92.1067 578.412 91.48 576.545 91.48C575.239 91.48 574.065 91.8533 573.025 92.6C571.985 93.32 571.159 94.2933 570.545 95.52C569.959 96.7467 569.665 98.0667 569.665 99.48V111.32H565.545V88.44H569.665ZM607.79 88.44V91.68C608.457 90.6133 609.337 89.72 610.43 89C611.55 88.2533 612.977 87.88 614.71 87.88C616.39 87.88 617.857 88.3067 619.11 89.16C620.364 90.0133 621.27 91.1867 621.83 92.68C622.524 91.2133 623.577 90.0533 624.99 89.2C626.404 88.32 628.057 87.88 629.95 87.88C631.577 87.88 633.017 88.28 634.27 89.08C635.55 89.8533 636.55 90.96 637.27 92.4C637.99 93.84 638.35 95.5067 638.35 97.4V111.32H634.23V98.08C634.23 96.0267 633.764 94.4133 632.83 93.24C631.897 92.0667 630.617 91.48 628.99 91.48C627.87 91.48 626.857 91.8133 625.95 92.48C625.044 93.1467 624.337 94.0533 623.83 95.2C623.324 96.3467 623.07 97.6133 623.07 99V111.32H618.95V98.24C618.95 96.1067 618.484 94.4533 617.55 93.28C616.617 92.08 615.337 91.48 613.71 91.48C612.59 91.48 611.577 91.8133 610.67 92.48C609.79 93.1467 609.084 94.0533 608.55 95.2C608.044 96.3467 607.79 97.6 607.79 98.96V111.32H603.67V88.44H607.79ZM654.497 111.88C652.31 111.88 650.337 111.36 648.577 110.32C646.844 109.28 645.484 107.853 644.497 106.04C643.51 104.2 643.017 102.147 643.017 99.88C643.017 97.6133 643.51 95.5733 644.497 93.76C645.484 91.92 646.844 90.48 648.577 89.44C650.337 88.4 652.31 87.88 654.497 87.88C656.684 87.88 658.644 88.4 660.377 89.44C662.137 90.48 663.497 91.92 664.457 93.76C665.444 95.5733 665.937 97.6133 665.937 99.88C665.937 100.627 665.91 101.187 665.857 101.56H647.137C647.35 103.56 648.124 105.2 649.457 106.48C650.817 107.76 652.497 108.4 654.497 108.4C656.017 108.4 657.35 108.093 658.497 107.48C659.67 106.84 660.47 106.04 660.897 105.08H665.097C664.457 107.08 663.177 108.707 661.257 109.96C659.337 111.24 657.084 111.88 654.497 111.88ZM661.897 98.2C661.657 96.1733 660.87 94.5333 659.537 93.28C658.204 92 656.524 91.36 654.497 91.36C652.47 91.36 650.79 92 649.457 93.28C648.124 94.5333 647.35 96.1733 647.137 98.2H661.897ZM675.29 88.44V91.68C675.957 90.6133 676.837 89.72 677.93 89C679.05 88.2533 680.477 87.88 682.21 87.88C683.89 87.88 685.357 88.3067 686.61 89.16C687.864 90.0133 688.77 91.1867 689.33 92.68C690.024 91.2133 691.077 90.0533 692.49 89.2C693.904 88.32 695.557 87.88 697.45 87.88C699.077 87.88 700.517 88.28 701.77 89.08C703.05 89.8533 704.05 90.96 704.77 92.4C705.49 93.84 705.85 95.5067 705.85 97.4V111.32H701.73V98.08C701.73 96.0267 701.264 94.4133 700.33 93.24C699.397 92.0667 698.117 91.48 696.49 91.48C695.37 91.48 694.357 91.8133 693.45 92.48C692.544 93.1467 691.837 94.0533 691.33 95.2C690.824 96.3467 690.57 97.6133 690.57 99V111.32H686.45V98.24C686.45 96.1067 685.984 94.4533 685.05 93.28C684.117 92.08 682.837 91.48 681.21 91.48C680.09 91.48 679.077 91.8133 678.17 92.48C677.29 93.1467 676.584 94.0533 676.05 95.2C675.544 96.3467 675.29 97.6 675.29 98.96V111.32H671.17V88.44H675.29ZM722.237 87.88C724.45 87.88 726.45 88.4 728.237 89.44C730.024 90.48 731.41 91.92 732.397 93.76C733.41 95.5733 733.917 97.6133 733.917 99.88C733.917 102.147 733.41 104.2 732.397 106.04C731.41 107.853 730.024 109.28 728.237 110.32C726.45 111.36 724.45 111.88 722.237 111.88C719.997 111.88 717.984 111.36 716.197 110.32C714.437 109.28 713.05 107.853 712.037 106.04C711.024 104.2 710.517 102.147 710.517 99.88C710.517 97.6133 711.024 95.5733 712.037 93.76C713.05 91.92 714.437 90.48 716.197 89.44C717.984 88.4 719.997 87.88 722.237 87.88ZM722.237 91.52C720.744 91.52 719.41 91.8933 718.237 92.64C717.09 93.36 716.184 94.36 715.517 95.64C714.877 96.8933 714.557 98.3067 714.557 99.88C714.557 101.453 714.877 102.88 715.517 104.16C716.184 105.413 717.09 106.413 718.237 107.16C719.41 107.88 720.744 108.24 722.237 108.24C723.704 108.24 725.024 107.88 726.197 107.16C727.37 106.413 728.277 105.413 728.917 104.16C729.557 102.88 729.877 101.453 729.877 99.88C729.877 98.3067 729.557 96.8933 728.917 95.64C728.277 94.36 727.37 93.36 726.197 92.64C725.024 91.8933 723.704 91.52 722.237 91.52ZM743.298 88.44V91.96C743.911 90.92 744.925 89.9867 746.338 89.16C747.778 88.3067 749.511 87.88 751.538 87.88C752.845 87.88 753.885 88.0133 754.658 88.28V92.2C753.725 91.7733 752.591 91.56 751.258 91.56C749.738 91.56 748.365 91.9333 747.138 92.68C745.938 93.4 744.991 94.3733 744.298 95.6C743.631 96.8 743.298 98.0933 743.298 99.48V111.32H739.178V88.44H743.298ZM780.499 88.44L766.219 121.04H762.059L766.579 110.84L756.779 88.44H761.299L768.659 106.44L776.219 88.44H780.499ZM805.939 111.88C803.805 111.88 801.872 111.36 800.139 110.32C798.432 109.28 797.085 107.84 796.099 106C795.112 104.16 794.619 102.12 794.619 99.88C794.619 97.64 795.112 95.6 796.099 93.76C797.085 91.92 798.432 90.48 800.139 89.44C801.872 88.4 803.805 87.88 805.939 87.88C807.885 87.88 809.565 88.2667 810.979 89.04C812.392 89.8133 813.419 90.7467 814.059 91.84V88.44H818.179V111.32H814.059V107.92C813.419 109.013 812.392 109.947 810.979 110.72C809.565 111.493 807.885 111.88 805.939 111.88ZM806.299 108.24C807.819 108.24 809.165 107.88 810.339 107.16C811.539 106.413 812.472 105.413 813.139 104.16C813.805 102.88 814.139 101.453 814.139 99.88C814.139 98.3067 813.805 96.8933 813.139 95.64C812.472 94.36 811.539 93.36 810.339 92.64C809.165 91.8933 807.819 91.52 806.299 91.52C804.805 91.52 803.472 91.88 802.299 92.6C801.152 93.32 800.259 94.32 799.619 95.6C798.979 96.88 798.659 98.3067 798.659 99.88C798.659 101.453 798.979 102.88 799.619 104.16C800.259 105.44 801.152 106.44 802.299 107.16C803.472 107.88 804.805 108.24 806.299 108.24ZM828.767 88.44V91.96C829.38 90.92 830.393 89.9867 831.807 89.16C833.247 88.3067 834.98 87.88 837.007 87.88C838.313 87.88 839.353 88.0133 840.127 88.28V92.2C839.193 91.7733 838.06 91.56 836.727 91.56C835.207 91.56 833.833 91.9333 832.607 92.68C831.407 93.4 830.46 94.3733 829.767 95.6C829.1 96.8 828.767 98.0933 828.767 99.48V111.32H824.647V88.44H828.767ZM853.286 111.88C851.099 111.88 849.126 111.36 847.366 110.32C845.633 109.28 844.273 107.853 843.286 106.04C842.299 104.2 841.806 102.147 841.806 99.88C841.806 97.6133 842.299 95.5733 843.286 93.76C844.273 91.92 845.633 90.48 847.366 89.44C849.126 88.4 851.099 87.88 853.286 87.88C855.473 87.88 857.433 88.4 859.166 89.44C860.926 90.48 862.286 91.92 863.246 93.76C864.233 95.5733 864.726 97.6133 864.726 99.88C864.726 100.627 864.699 101.187 864.646 101.56H845.926C846.139 103.56 846.913 105.2 848.246 106.48C849.606 107.76 851.286 108.4 853.286 108.4C854.806 108.4 856.139 108.093 857.286 107.48C858.459 106.84 859.259 106.04 859.686 105.08H863.886C863.246 107.08 861.966 108.707 860.046 109.96C858.126 111.24 855.873 111.88 853.286 111.88ZM860.686 98.2C860.446 96.1733 859.659 94.5333 858.326 93.28C856.993 92 855.313 91.36 853.286 91.36C851.259 91.36 849.579 92 848.246 93.28C846.913 94.5333 846.139 96.1733 845.926 98.2H860.686ZM881.17 111.32V78.28H885.29V111.32H881.17ZM902.036 111.88C899.849 111.88 897.876 111.36 896.116 110.32C894.383 109.28 893.023 107.853 892.036 106.04C891.049 104.2 890.556 102.147 890.556 99.88C890.556 97.6133 891.049 95.5733 892.036 93.76C893.023 91.92 894.383 90.48 896.116 89.44C897.876 88.4 899.849 87.88 902.036 87.88C904.223 87.88 906.183 88.4 907.916 89.44C909.676 90.48 911.036 91.92 911.996 93.76C912.983 95.5733 913.476 97.6133 913.476 99.88C913.476 100.627 913.449 101.187 913.396 101.56H894.676C894.889 103.56 895.663 105.2 896.996 106.48C898.356 107.76 900.036 108.4 902.036 108.4C903.556 108.4 904.889 108.093 906.036 107.48C907.209 106.84 908.009 106.04 908.436 105.08H912.636C911.996 107.08 910.716 108.707 908.796 109.96C906.876 111.24 904.623 111.88 902.036 111.88ZM909.436 98.2C909.196 96.1733 908.409 94.5333 907.076 93.28C905.743 92 904.063 91.36 902.036 91.36C900.009 91.36 898.329 92 896.996 93.28C895.663 94.5333 894.889 96.1733 894.676 98.2H909.436ZM929.487 92.08H924.407V111.32H920.287V92.08H915.767V88.44H920.287V84.56C920.287 82.6133 920.82 81.0533 921.887 79.88C922.98 78.7067 924.487 78.12 926.407 78.12C927.474 78.12 928.367 78.2 929.087 78.36V81.84C928.714 81.76 928.06 81.72 927.127 81.72C926.274 81.72 925.607 81.9867 925.127 82.52C924.647 83.0267 924.407 83.7467 924.407 84.68V88.44H929.487V92.08ZM945.865 92.08H940.785V111.32H936.665V92.08H931.585V88.44H936.665V81.48H940.785V88.44H945.865V92.08ZM552.941 149.88C550.995 149.88 549.315 149.493 547.901 148.72C546.488 147.947 545.461 147.013 544.821 145.92V149.32H540.701V116.28H544.821V129.84C545.461 128.747 546.488 127.813 547.901 127.04C549.315 126.267 550.995 125.88 552.941 125.88C555.075 125.88 556.995 126.4 558.701 127.44C560.435 128.48 561.795 129.92 562.781 131.76C563.768 133.6 564.261 135.64 564.261 137.88C564.261 140.12 563.768 142.16 562.781 144C561.795 145.84 560.435 147.28 558.701 148.32C556.995 149.36 555.075 149.88 552.941 149.88ZM552.581 146.24C554.075 146.24 555.395 145.88 556.541 145.16C557.715 144.44 558.621 143.44 559.261 142.16C559.901 140.88 560.221 139.453 560.221 137.88C560.221 136.307 559.901 134.88 559.261 133.6C558.621 132.32 557.715 131.32 556.541 130.6C555.395 129.88 554.075 129.52 552.581 129.52C551.061 129.52 549.701 129.893 548.501 130.64C547.328 131.36 546.408 132.36 545.741 133.64C545.075 134.893 544.741 136.307 544.741 137.88C544.741 139.453 545.075 140.88 545.741 142.16C546.408 143.413 547.328 144.413 548.501 145.16C549.701 145.88 551.061 146.24 552.581 146.24ZM579.81 149.88C577.623 149.88 575.65 149.36 573.89 148.32C572.156 147.28 570.796 145.853 569.81 144.04C568.823 142.2 568.33 140.147 568.33 137.88C568.33 135.613 568.823 133.573 569.81 131.76C570.796 129.92 572.156 128.48 573.89 127.44C575.65 126.4 577.623 125.88 579.81 125.88C581.996 125.88 583.956 126.4 585.69 127.44C587.45 128.48 588.81 129.92 589.77 131.76C590.756 133.573 591.25 135.613 591.25 137.88C591.25 138.627 591.223 139.187 591.17 139.56H572.45C572.663 141.56 573.436 143.2 574.77 144.48C576.13 145.76 577.81 146.4 579.81 146.4C581.33 146.4 582.663 146.093 583.81 145.48C584.983 144.84 585.783 144.04 586.21 143.08H590.41C589.77 145.08 588.49 146.707 586.57 147.96C584.65 149.24 582.396 149.88 579.81 149.88ZM587.21 136.2C586.97 134.173 586.183 132.533 584.85 131.28C583.516 130 581.836 129.36 579.81 129.36C577.783 129.36 576.103 130 574.77 131.28C573.436 132.533 572.663 134.173 572.45 136.2H587.21ZM600.603 116.28V129.92C601.189 128.88 602.149 127.947 603.483 127.12C604.843 126.293 606.469 125.88 608.363 125.88C610.149 125.88 611.736 126.293 613.123 127.12C614.536 127.947 615.629 129.12 616.403 130.64C617.176 132.133 617.563 133.893 617.563 135.92V149.32H613.443V136.64C613.443 134.347 612.909 132.587 611.843 131.36C610.803 130.107 609.349 129.48 607.483 129.48C606.176 129.48 605.003 129.853 603.963 130.6C602.923 131.32 602.096 132.293 601.483 133.52C600.896 134.747 600.603 136.067 600.603 137.48V149.32H596.483V116.28H600.603ZM625.554 115.88C626.354 115.88 627.007 116.147 627.514 116.68C628.047 117.187 628.314 117.827 628.314 118.6C628.314 119.373 628.047 120.027 627.514 120.56C627.007 121.067 626.354 121.32 625.554 121.32C624.781 121.32 624.127 121.067 623.594 120.56C623.087 120.027 622.834 119.373 622.834 118.6C622.834 117.827 623.087 117.187 623.594 116.68C624.127 116.147 624.781 115.88 625.554 115.88ZM623.514 149.36V126.44H627.634V149.36H623.514ZM638.22 126.44V129.92C638.807 128.88 639.767 127.947 641.1 127.12C642.46 126.293 644.087 125.88 645.98 125.88C647.767 125.88 649.353 126.293 650.74 127.12C652.153 127.947 653.247 129.12 654.02 130.64C654.793 132.133 655.18 133.893 655.18 135.92V149.32H651.06V136.64C651.06 134.347 650.527 132.587 649.46 131.36C648.42 130.107 646.967 129.48 645.1 129.48C643.793 129.48 642.62 129.853 641.58 130.6C640.54 131.32 639.713 132.293 639.1 133.52C638.513 134.747 638.22 136.067 638.22 137.48V149.32H634.1V126.44H638.22ZM671.134 149.88C669.001 149.88 667.067 149.36 665.334 148.32C663.627 147.28 662.281 145.84 661.294 144C660.307 142.16 659.814 140.12 659.814 137.88C659.814 135.64 660.307 133.6 661.294 131.76C662.281 129.92 663.627 128.48 665.334 127.44C667.067 126.4 669.001 125.88 671.134 125.88C673.081 125.88 674.761 126.267 676.174 127.04C677.587 127.813 678.614 128.747 679.254 129.84V116.28H683.374V149.32H679.254V145.92C678.614 147.013 677.587 147.947 676.174 148.72C674.761 149.493 673.081 149.88 671.134 149.88ZM671.494 146.24C673.014 146.24 674.361 145.88 675.534 145.16C676.734 144.413 677.667 143.413 678.334 142.16C679.001 140.88 679.334 139.453 679.334 137.88C679.334 136.307 679.001 134.893 678.334 133.64C677.667 132.36 676.734 131.36 675.534 130.64C674.361 129.893 673.014 129.52 671.494 129.52C670.001 129.52 668.667 129.88 667.494 130.6C666.347 131.32 665.454 132.32 664.814 133.6C664.174 134.88 663.854 136.307 663.854 137.88C663.854 139.453 664.174 140.88 664.814 142.16C665.454 143.44 666.347 144.44 667.494 145.16C668.667 145.88 670.001 146.24 671.494 146.24ZM711.173 149.88C709.04 149.88 707.106 149.36 705.373 148.32C703.666 147.28 702.32 145.84 701.333 144C700.346 142.16 699.853 140.12 699.853 137.88C699.853 135.64 700.346 133.6 701.333 131.76C702.32 129.92 703.666 128.48 705.373 127.44C707.106 126.4 709.04 125.88 711.173 125.88C713.12 125.88 714.8 126.267 716.213 127.04C717.626 127.813 718.653 128.747 719.293 129.84V126.44H723.413V149.32H719.293V145.92C718.653 147.013 717.626 147.947 716.213 148.72C714.8 149.493 713.12 149.88 711.173 149.88ZM711.533 146.24C713.053 146.24 714.4 145.88 715.573 145.16C716.773 144.413 717.706 143.413 718.373 142.16C719.04 140.88 719.373 139.453 719.373 137.88C719.373 136.307 719.04 134.893 718.373 133.64C717.706 132.36 716.773 131.36 715.573 130.64C714.4 129.893 713.053 129.52 711.533 129.52C710.04 129.52 708.706 129.88 707.533 130.6C706.386 131.32 705.493 132.32 704.853 133.6C704.213 134.88 703.893 136.307 703.893 137.88C703.893 139.453 704.213 140.88 704.853 142.16C705.493 143.44 706.386 144.44 707.533 145.16C708.706 145.88 710.04 146.24 711.533 146.24ZM738.881 125.88C740.721 125.88 742.388 126.173 743.881 126.76C745.374 127.32 746.561 128.107 747.441 129.12C748.348 130.107 748.828 131.24 748.881 132.52H744.841C744.761 131.56 744.148 130.773 743.001 130.16C741.854 129.547 740.441 129.24 738.761 129.24C737.108 129.24 735.734 129.533 734.641 130.12C733.574 130.707 733.041 131.427 733.041 132.28C733.041 133.267 733.534 134.053 734.521 134.64C735.534 135.227 737.388 135.707 740.081 136.08C743.414 136.533 745.801 137.307 747.241 138.4C748.681 139.493 749.401 140.96 749.401 142.8C749.401 144.24 748.934 145.493 748.001 146.56C747.094 147.627 745.854 148.44 744.281 149C742.708 149.587 740.961 149.88 739.041 149.88C737.041 149.88 735.281 149.573 733.761 148.96C732.241 148.373 731.041 147.547 730.161 146.48C729.308 145.44 728.828 144.253 728.721 142.92H732.761C732.894 143.907 733.508 144.76 734.601 145.48C735.721 146.173 737.241 146.52 739.161 146.52C740.948 146.52 742.428 146.2 743.601 145.56C744.774 144.893 745.361 144.053 745.361 143.04C745.361 142.08 744.814 141.32 743.721 140.76C742.654 140.173 740.788 139.707 738.121 139.36C734.974 138.933 732.668 138.187 731.201 137.12C729.734 136.027 729.001 134.493 729.001 132.52C729.001 131.213 729.428 130.053 730.281 129.04C731.161 128.027 732.348 127.253 733.841 126.72C735.334 126.16 737.014 125.88 738.881 125.88ZM776.339 125.88C778.552 125.88 780.552 126.4 782.339 127.44C784.125 128.48 785.512 129.92 786.499 131.76C787.512 133.573 788.019 135.613 788.019 137.88C788.019 140.147 787.512 142.2 786.499 144.04C785.512 145.853 784.125 147.28 782.339 148.32C780.552 149.36 778.552 149.88 776.339 149.88C774.099 149.88 772.085 149.36 770.299 148.32C768.539 147.28 767.152 145.853 766.139 144.04C765.125 142.2 764.619 140.147 764.619 137.88C764.619 135.613 765.125 133.573 766.139 131.76C767.152 129.92 768.539 128.48 770.299 127.44C772.085 126.4 774.099 125.88 776.339 125.88ZM776.339 129.52C774.845 129.52 773.512 129.893 772.339 130.64C771.192 131.36 770.285 132.36 769.619 133.64C768.979 134.893 768.659 136.307 768.659 137.88C768.659 139.453 768.979 140.88 769.619 142.16C770.285 143.413 771.192 144.413 772.339 145.16C773.512 145.88 774.845 146.24 776.339 146.24C777.805 146.24 779.125 145.88 780.299 145.16C781.472 144.413 782.379 143.413 783.019 142.16C783.659 140.88 783.979 139.453 783.979 137.88C783.979 136.307 783.659 134.893 783.019 133.64C782.379 132.36 781.472 131.36 780.299 130.64C779.125 129.893 777.805 129.52 776.339 129.52ZM805.52 149.88C803.573 149.88 801.893 149.493 800.48 148.72C799.066 147.947 798.04 147.013 797.4 145.92V149.32H793.28V116.28H797.4V129.84C798.04 128.747 799.066 127.813 800.48 127.04C801.893 126.267 803.573 125.88 805.52 125.88C807.653 125.88 809.573 126.4 811.28 127.44C813.013 128.48 814.373 129.92 815.36 131.76C816.346 133.6 816.84 135.64 816.84 137.88C816.84 140.12 816.346 142.16 815.36 144C814.373 145.84 813.013 147.28 811.28 148.32C809.573 149.36 807.653 149.88 805.52 149.88ZM805.16 146.24C806.653 146.24 807.973 145.88 809.12 145.16C810.293 144.44 811.2 143.44 811.84 142.16C812.48 140.88 812.8 139.453 812.8 137.88C812.8 136.307 812.48 134.88 811.84 133.6C811.2 132.32 810.293 131.32 809.12 130.6C807.973 129.88 806.653 129.52 805.16 129.52C803.64 129.52 802.28 129.893 801.08 130.64C799.906 131.36 798.986 132.36 798.32 133.64C797.653 134.893 797.32 136.307 797.32 137.88C797.32 139.453 797.653 140.88 798.32 142.16C798.986 143.413 799.906 144.413 801.08 145.16C802.28 145.88 803.64 146.24 805.16 146.24ZM824.148 121.32C823.374 121.32 822.721 121.067 822.188 120.56C821.681 120.027 821.428 119.373 821.428 118.6C821.428 117.827 821.681 117.187 822.188 116.68C822.721 116.147 823.374 115.88 824.148 115.88C824.948 115.88 825.601 116.147 826.108 116.68C826.641 117.187 826.908 117.827 826.908 118.6C826.908 119.373 826.641 120.027 826.108 120.56C825.601 121.067 824.948 121.32 824.148 121.32ZM820.348 159.28C819.308 159.28 818.321 159.173 817.388 158.96V155.4C818.054 155.587 818.801 155.68 819.628 155.68C820.401 155.68 821.001 155.44 821.428 154.96C821.881 154.48 822.108 153.787 822.108 152.88V126.44H826.228V153.08C826.228 154.947 825.694 156.44 824.628 157.56C823.588 158.707 822.161 159.28 820.348 159.28ZM842.974 149.88C840.787 149.88 838.814 149.36 837.054 148.32C835.32 147.28 833.96 145.853 832.974 144.04C831.987 142.2 831.494 140.147 831.494 137.88C831.494 135.613 831.987 133.573 832.974 131.76C833.96 129.92 835.32 128.48 837.054 127.44C838.814 126.4 840.787 125.88 842.974 125.88C845.16 125.88 847.12 126.4 848.854 127.44C850.614 128.48 851.974 129.92 852.934 131.76C853.92 133.573 854.414 135.613 854.414 137.88C854.414 138.627 854.387 139.187 854.334 139.56H835.614C835.827 141.56 836.6 143.2 837.934 144.48C839.294 145.76 840.974 146.4 842.974 146.4C844.494 146.4 845.827 146.093 846.974 145.48C848.147 144.84 848.947 144.04 849.374 143.08H853.574C852.934 145.08 851.654 146.707 849.734 147.96C847.814 149.24 845.56 149.88 842.974 149.88ZM850.374 136.2C850.134 134.173 849.347 132.533 848.014 131.28C846.68 130 845 129.36 842.974 129.36C840.947 129.36 839.267 130 837.934 131.28C836.6 132.533 835.827 134.173 835.614 136.2H850.374ZM880.967 141.56C880.353 144.067 879.06 146.08 877.087 147.6C875.14 149.12 872.847 149.88 870.207 149.88C867.967 149.88 865.953 149.36 864.167 148.32C862.38 147.28 860.98 145.853 859.967 144.04C858.953 142.2 858.447 140.147 858.447 137.88C858.447 135.613 858.94 133.573 859.927 131.76C860.94 129.92 862.34 128.48 864.127 127.44C865.913 126.4 867.913 125.88 870.127 125.88C871.887 125.88 873.513 126.24 875.007 126.96C876.527 127.653 877.793 128.627 878.807 129.88C879.82 131.133 880.513 132.547 880.887 134.12H876.687C876.207 132.733 875.393 131.627 874.247 130.8C873.1 129.947 871.727 129.52 870.127 129.52C868.633 129.52 867.3 129.893 866.127 130.64C864.98 131.36 864.087 132.36 863.447 133.64C862.807 134.893 862.487 136.307 862.487 137.88C862.487 139.453 862.807 140.88 863.447 142.16C864.087 143.413 864.98 144.413 866.127 145.16C867.3 145.88 868.633 146.24 870.127 146.24C871.727 146.24 873.113 145.813 874.287 144.96C875.46 144.107 876.287 142.973 876.767 141.56H880.967ZM897.272 130.08H892.192V149.32H888.072V130.08H882.992V126.44H888.072V119.48H892.192V126.44H897.272V130.08ZM910.287 125.88C912.127 125.88 913.794 126.173 915.287 126.76C916.781 127.32 917.967 128.107 918.847 129.12C919.754 130.107 920.234 131.24 920.287 132.52H916.247C916.167 131.56 915.554 130.773 914.407 130.16C913.261 129.547 911.847 129.24 910.167 129.24C908.514 129.24 907.141 129.533 906.047 130.12C904.981 130.707 904.447 131.427 904.447 132.28C904.447 133.267 904.941 134.053 905.927 134.64C906.941 135.227 908.794 135.707 911.487 136.08C914.821 136.533 917.207 137.307 918.647 138.4C920.087 139.493 920.807 140.96 920.807 142.8C920.807 144.24 920.341 145.493 919.407 146.56C918.501 147.627 917.261 148.44 915.687 149C914.114 149.587 912.367 149.88 910.447 149.88C908.447 149.88 906.687 149.573 905.167 148.96C903.647 148.373 902.447 147.547 901.567 146.48C900.714 145.44 900.234 144.253 900.127 142.92H904.167C904.301 143.907 904.914 144.76 906.007 145.48C907.127 146.173 908.647 146.52 910.567 146.52C912.354 146.52 913.834 146.2 915.007 145.56C916.181 144.893 916.767 144.053 916.767 143.04C916.767 142.08 916.221 141.32 915.127 140.76C914.061 140.173 912.194 139.707 909.527 139.36C906.381 138.933 904.074 138.187 902.607 137.12C901.141 136.027 900.407 134.493 900.407 132.52C900.407 131.213 900.834 130.053 901.687 129.04C902.567 128.027 903.754 127.253 905.247 126.72C906.741 126.16 908.421 125.88 910.287 125.88ZM927.934 149.84C927.134 149.84 926.454 149.56 925.894 149C925.361 148.467 925.094 147.8 925.094 147C925.094 146.2 925.361 145.533 925.894 145C926.454 144.44 927.134 144.16 927.934 144.16C928.734 144.16 929.401 144.44 929.934 145C930.467 145.533 930.734 146.2 930.734 147C930.734 147.8 930.467 148.467 929.934 149C929.401 149.56 928.734 149.84 927.934 149.84ZM939.167 120.4C939.167 122 938.714 123.387 937.807 124.56C936.927 125.707 935.727 126.427 934.207 126.72V124.48C935.994 124 936.887 122.72 936.887 120.64H934.607V116H939.167V120.4ZM945.327 120.4C945.327 122 944.874 123.387 943.967 124.56C943.087 125.707 941.887 126.427 940.367 126.72V124.48C942.154 124 943.047 122.72 943.047 120.64H940.767V116H945.327V120.4Z" fill="#1A1A1A"/>
<path d="M472.348 41V67.16H488.628V73.6H465.068V41H472.348ZM502.138 74.16C499.925 74.16 497.952 73.6267 496.218 72.56C494.485 71.52 493.138 70.0667 492.178 68.2C491.218 66.3333 490.738 64.2267 490.738 61.88C490.738 59.5333 491.218 57.4267 492.178 55.56C493.138 53.6933 494.485 52.24 496.218 51.2C497.952 50.1333 499.925 49.6 502.138 49.6C505.152 49.6 507.392 50.5867 508.858 52.56V50.16H515.978V73.6H508.858V71.2C507.392 73.1733 505.152 74.16 502.138 74.16ZM503.258 68.08C504.992 68.08 506.378 67.5067 507.418 66.36C508.458 65.1867 508.978 63.6933 508.978 61.88C508.978 60.0667 508.458 58.5867 507.418 57.44C506.378 56.2667 504.992 55.68 503.258 55.68C501.578 55.68 500.232 56.2667 499.218 57.44C498.205 58.5867 497.698 60.0667 497.698 61.88C497.698 63.6933 498.205 65.1867 499.218 66.36C500.232 67.5067 501.578 68.08 503.258 68.08ZM521.352 50.16H528.472V52.56C529.939 50.5867 532.126 49.6 535.032 49.6C536.846 49.6 538.446 50.0267 539.832 50.88C541.219 51.7067 542.286 52.9067 543.032 54.48C543.806 56.0533 544.192 57.9067 544.192 60.04V73.6H537.072V61.24C537.072 59.4533 536.712 58.0933 535.992 57.16C535.299 56.2 534.286 55.72 532.952 55.72C531.566 55.72 530.472 56.24 529.672 57.28C528.872 58.32 528.472 59.7467 528.472 61.56V73.6H521.352V50.16ZM560.969 83.92C558.729 83.92 556.782 83.5333 555.129 82.76C553.502 82.0133 552.209 81 551.249 79.72C550.289 78.44 549.675 77.0133 549.409 75.44H556.609C557.009 77.0933 558.462 77.92 560.969 77.92C562.462 77.92 563.662 77.48 564.569 76.6C565.475 75.72 565.929 74.5467 565.929 73.08V70.6C564.462 72.5733 562.222 73.56 559.209 73.56C556.995 73.56 555.022 73.0533 553.289 72.04C551.555 71.0267 550.209 69.6133 549.249 67.8C548.289 65.9867 547.809 63.9467 547.809 61.68C547.809 59.36 548.289 57.2933 549.249 55.48C550.209 53.64 551.555 52.2 553.289 51.16C555.022 50.12 556.995 49.6 559.209 49.6C562.222 49.6 564.462 50.5867 565.929 52.56V50.16H573.049V73.16C573.049 75.24 572.529 77.0933 571.489 78.72C570.449 80.3733 569.009 81.6533 567.169 82.56C565.355 83.4667 563.289 83.92 560.969 83.92ZM560.329 67.68C562.062 67.68 563.449 67.12 564.489 66C565.529 64.88 566.049 63.44 566.049 61.68C566.049 59.92 565.529 58.48 564.489 57.36C563.449 56.24 562.062 55.68 560.329 55.68C558.649 55.68 557.302 56.24 556.289 57.36C555.275 58.48 554.769 59.92 554.769 61.68C554.769 63.44 555.275 64.88 556.289 66C557.302 67.12 558.649 67.68 560.329 67.68ZM587.223 74.16C585.409 74.16 583.809 73.7333 582.423 72.88C581.036 72.0533 579.956 70.8533 579.183 69.28C578.436 67.7067 578.063 65.8533 578.063 63.72V50.16H585.183V62.52C585.183 64.3067 585.529 65.68 586.223 66.64C586.943 67.5733 587.969 68.04 589.303 68.04C590.689 68.04 591.783 67.52 592.583 66.48C593.383 65.44 593.783 64.0133 593.783 62.2V50.16H600.903V73.6H593.783V71.2C592.316 73.1733 590.129 74.16 587.223 74.16ZM616.474 74.16C614.261 74.16 612.288 73.6267 610.554 72.56C608.821 71.52 607.474 70.0667 606.514 68.2C605.554 66.3333 605.074 64.2267 605.074 61.88C605.074 59.5333 605.554 57.4267 606.514 55.56C607.474 53.6933 608.821 52.24 610.554 51.2C612.288 50.1333 614.261 49.6 616.474 49.6C619.488 49.6 621.728 50.5867 623.194 52.56V50.16H630.314V73.6H623.194V71.2C621.728 73.1733 619.488 74.16 616.474 74.16ZM617.594 68.08C619.328 68.08 620.714 67.5067 621.754 66.36C622.794 65.1867 623.314 63.6933 623.314 61.88C623.314 60.0667 622.794 58.5867 621.754 57.44C620.714 56.2667 619.328 55.68 617.594 55.68C615.914 55.68 614.568 56.2667 613.554 57.44C612.541 58.5867 612.034 60.0667 612.034 61.88C612.034 63.6933 612.541 65.1867 613.554 66.36C614.568 67.5067 615.914 68.08 617.594 68.08ZM647.648 83.92C645.408 83.92 643.462 83.5333 641.808 82.76C640.182 82.0133 638.888 81 637.928 79.72C636.968 78.44 636.355 77.0133 636.088 75.44H643.288C643.688 77.0933 645.142 77.92 647.648 77.92C649.142 77.92 650.342 77.48 651.248 76.6C652.155 75.72 652.608 74.5467 652.608 73.08V70.6C651.142 72.5733 648.902 73.56 645.888 73.56C643.675 73.56 641.702 73.0533 639.968 72.04C638.235 71.0267 636.888 69.6133 635.928 67.8C634.968 65.9867 634.488 63.9467 634.488 61.68C634.488 59.36 634.968 57.2933 635.928 55.48C636.888 53.64 638.235 52.2 639.968 51.16C641.702 50.12 643.675 49.6 645.888 49.6C648.902 49.6 651.142 50.5867 652.608 52.56V50.16H659.728V73.16C659.728 75.24 659.208 77.0933 658.168 78.72C657.128 80.3733 655.688 81.6533 653.848 82.56C652.035 83.4667 649.968 83.92 647.648 83.92ZM647.008 67.68C648.742 67.68 650.128 67.12 651.168 66C652.208 64.88 652.728 63.44 652.728 61.68C652.728 59.92 652.208 58.48 651.168 57.36C650.128 56.24 648.742 55.68 647.008 55.68C645.328 55.68 643.982 56.24 642.968 57.36C641.955 58.48 641.448 59.92 641.448 61.68C641.448 63.44 641.955 64.88 642.968 66C643.982 67.12 645.328 67.68 647.008 67.68ZM676.102 74.16C673.756 74.16 671.649 73.6267 669.782 72.56C667.942 71.52 666.502 70.0667 665.462 68.2C664.422 66.3333 663.902 64.2267 663.902 61.88C663.902 59.5333 664.422 57.4267 665.462 55.56C666.502 53.6933 667.942 52.24 669.782 51.2C671.649 50.1333 673.756 49.6 676.102 49.6C678.449 49.6 680.542 50.1333 682.382 51.2C684.249 52.24 685.702 53.6933 686.742 55.56C687.782 57.4267 688.302 59.5333 688.302 61.88C688.302 62.6533 688.249 63.4133 688.142 64.16H670.982C671.249 65.52 671.836 66.5733 672.742 67.32C673.649 68.0667 674.769 68.44 676.102 68.44C677.116 68.44 678.009 68.28 678.782 67.96C679.582 67.6133 680.129 67.16 680.422 66.6H687.582C687.182 68.0933 686.436 69.4 685.342 70.52C684.249 71.6667 682.902 72.56 681.302 73.2C679.702 73.84 677.969 74.16 676.102 74.16ZM681.342 59.56C681.049 58.1467 680.449 57.08 679.542 56.36C678.636 55.6133 677.489 55.24 676.102 55.24C674.716 55.24 673.582 55.6133 672.702 56.36C671.822 57.08 671.236 58.1467 670.942 59.56H681.342ZM714.936 49.6C717.309 49.6 719.443 50.1333 721.336 51.2C723.229 52.24 724.709 53.6933 725.776 55.56C726.843 57.4267 727.376 59.5333 727.376 61.88C727.376 64.2267 726.843 66.3333 725.776 68.2C724.709 70.0667 723.229 71.52 721.336 72.56C719.443 73.6267 717.309 74.16 714.936 74.16C712.563 74.16 710.429 73.6267 708.536 72.56C706.643 71.52 705.163 70.0667 704.096 68.2C703.029 66.3333 702.496 64.2267 702.496 61.88C702.496 59.5333 703.029 57.4267 704.096 55.56C705.163 53.6933 706.643 52.24 708.536 51.2C710.429 50.1333 712.563 49.6 714.936 49.6ZM714.936 55.68C713.283 55.68 711.936 56.2667 710.896 57.44C709.883 58.5867 709.376 60.0667 709.376 61.88C709.376 63.6933 709.883 65.1867 710.896 66.36C711.936 67.5067 713.283 68.08 714.936 68.08C716.589 68.08 717.923 67.5067 718.936 66.36C719.976 65.1867 720.496 63.6933 720.496 61.88C720.496 60.0667 719.976 58.5867 718.936 57.44C717.923 56.2667 716.589 55.68 714.936 55.68ZM744.836 56.28H740.356V73.6H733.236V56.28H729.316V50.16H733.236V47.84C733.236 45.4667 733.943 43.5467 735.356 42.08C736.769 40.5867 738.716 39.84 741.196 39.84C742.476 39.84 743.556 39.92 744.436 40.08V46.04C744.089 45.9867 743.476 45.96 742.596 45.96C741.903 45.96 741.356 46.1733 740.956 46.6C740.556 47 740.356 47.5467 740.356 48.24V50.16H744.836V56.28ZM772.922 56.28H768.442V73.6H761.322V56.28H757.402V50.16H761.322V47.84C761.322 45.4667 762.029 43.5467 763.442 42.08C764.855 40.5867 766.802 39.84 769.282 39.84C770.562 39.84 771.642 39.92 772.522 40.08V46.04C772.175 45.9867 771.562 45.96 770.682 45.96C769.989 45.96 769.442 46.1733 769.042 46.6C768.642 47 768.442 47.5467 768.442 48.24V50.16H772.922V56.28ZM783.277 73.6H776.157V40H783.277V73.6ZM799.858 49.6C802.231 49.6 804.365 50.1333 806.258 51.2C808.151 52.24 809.631 53.6933 810.698 55.56C811.765 57.4267 812.298 59.5333 812.298 61.88C812.298 64.2267 811.765 66.3333 810.698 68.2C809.631 70.0667 808.151 71.52 806.258 72.56C804.365 73.6267 802.231 74.16 799.858 74.16C797.485 74.16 795.351 73.6267 793.458 72.56C791.565 71.52 790.085 70.0667 789.018 68.2C787.951 66.3333 787.418 64.2267 787.418 61.88C787.418 59.5333 787.951 57.4267 789.018 55.56C790.085 53.6933 791.565 52.24 793.458 51.2C795.351 50.1333 797.485 49.6 799.858 49.6ZM799.858 55.68C798.205 55.68 796.858 56.2667 795.818 57.44C794.805 58.5867 794.298 60.0667 794.298 61.88C794.298 63.6933 794.805 65.1867 795.818 66.36C796.858 67.5067 798.205 68.08 799.858 68.08C801.511 68.08 802.845 67.5067 803.858 66.36C804.898 65.1867 805.418 63.6933 805.418 61.88C805.418 60.0667 804.898 58.5867 803.858 57.44C802.845 56.2667 801.511 55.68 799.858 55.68ZM851.695 50.16L843.855 73.6H836.695L832.455 60.2L828.255 73.6H821.135L813.295 50.16H820.815L824.975 65.24L829.055 50.16H836.335L840.455 65.32L844.615 50.16H851.695ZM864.891 74.16C862.545 74.16 860.438 73.6267 858.571 72.56C856.731 71.52 855.291 70.0667 854.251 68.2C853.211 66.3333 852.691 64.2267 852.691 61.88C852.691 59.5333 853.211 57.4267 854.251 55.56C855.291 53.6933 856.731 52.24 858.571 51.2C860.438 50.1333 862.545 49.6 864.891 49.6C867.238 49.6 869.331 50.1333 871.171 51.2C873.038 52.24 874.491 53.6933 875.531 55.56C876.571 57.4267 877.091 59.5333 877.091 61.88C877.091 62.6533 877.038 63.4133 876.931 64.16H859.771C860.038 65.52 860.625 66.5733 861.531 67.32C862.438 68.0667 863.558 68.44 864.891 68.44C865.905 68.44 866.798 68.28 867.571 67.96C868.371 67.6133 868.918 67.16 869.211 66.6H876.371C875.971 68.0933 875.225 69.4 874.131 70.52C873.038 71.6667 871.691 72.56 870.091 73.2C868.491 73.84 866.758 74.16 864.891 74.16ZM870.131 59.56C869.838 58.1467 869.238 57.08 868.331 56.36C867.425 55.6133 866.278 55.24 864.891 55.24C863.505 55.24 862.371 55.6133 861.491 56.36C860.611 57.08 860.025 58.1467 859.731 59.56H870.131ZM881.274 50.16H888.394V52.56C889.861 50.5867 892.048 49.6 894.954 49.6C896.234 49.6 897.261 49.7333 898.034 50L898.114 56.68C897.101 56.1467 895.888 55.88 894.474 55.88C892.581 55.88 891.088 56.3867 889.994 57.4C888.928 58.4133 888.394 59.8133 888.394 61.6V73.6H881.274V50.16ZM911.309 49.6C913.255 49.6 915.029 49.92 916.629 50.56C918.229 51.1733 919.509 52.0533 920.469 53.2C921.429 54.3467 921.949 55.68 922.029 57.2H915.149C915.042 56.48 914.615 55.92 913.869 55.52C913.149 55.0933 912.255 54.88 911.189 54.88C910.122 54.88 909.229 55.0533 908.509 55.4C907.815 55.72 907.469 56.1467 907.469 56.68C907.469 57.24 907.882 57.6933 908.709 58.04C909.535 58.3867 910.975 58.72 913.029 59.04C916.415 59.5467 918.829 60.3867 920.269 61.56C921.709 62.7333 922.429 64.3467 922.429 66.4C922.429 67.9467 921.935 69.3067 920.949 70.48C919.962 71.6533 918.629 72.56 916.949 73.2C915.269 73.84 913.429 74.16 911.429 74.16C909.402 74.16 907.562 73.8267 905.909 73.16C904.282 72.52 902.975 71.6 901.989 70.4C901.029 69.2 900.509 67.8 900.429 66.2H907.309C907.415 66.9467 907.869 67.56 908.669 68.04C909.469 68.4933 910.429 68.72 911.549 68.72C912.695 68.72 913.642 68.5333 914.389 68.16C915.135 67.7867 915.509 67.3333 915.509 66.8C915.509 66.24 915.069 65.7733 914.189 65.4C913.309 65 911.869 64.6533 909.869 64.36C906.802 63.9067 904.482 63.1333 902.909 62.04C901.362 60.9467 900.589 59.28 900.589 57.04C900.589 55.5467 901.055 54.24 901.989 53.12C902.949 52 904.242 51.1333 905.869 50.52C907.495 49.9067 909.309 49.6 911.309 49.6ZM929.826 65.92C930.972 65.92 931.919 66.3067 932.666 67.08C933.412 67.8267 933.786 68.7733 933.786 69.92C933.786 71.0667 933.412 72.0133 932.666 72.76C931.919 73.5333 930.972 73.92 929.826 73.92C928.679 73.92 927.719 73.5333 926.946 72.76C926.199 72.0133 925.826 71.0667 925.826 69.92C925.826 68.7733 926.199 67.8267 926.946 67.08C927.719 66.3067 928.679 65.92 929.826 65.92Z" fill="#7095B9"/>
</svg>
