<svg width="313" height="114" viewBox="0 0 313 114" fill="none" xmlns="http://www.w3.org/2000/svg">
<path d="M0.432906 4.39241C0.432906 3.47345 0.685618 2.68468 1.19104 2.0261C1.71178 1.3522 2.40866 0.931014 3.28166 0.76254V2.04907C2.2555 2.32476 1.74241 3.05992 1.74241 4.25456H3.05192V6.91953H0.432906V4.39241ZM3.97088 4.39241C3.97088 3.47345 4.22359 2.68468 4.72901 2.0261C5.24975 1.3522 5.94663 0.931014 6.81963 0.76254V2.04907C5.79347 2.32476 5.28038 3.05992 5.28038 4.25456H6.58989V6.91953H3.97088V4.39241ZM11.8671 18.4064H21.9755V20.589H9.4548V2.18692H11.8671V18.4064ZM30.1894 7.12629C31.4606 7.12629 32.6093 7.42495 33.6355 8.02227C34.6616 8.61959 35.4581 9.44665 36.0248 10.5034C36.6068 11.5449 36.8978 12.7166 36.8978 14.0184C36.8978 15.3203 36.6068 16.4996 36.0248 17.5564C35.4581 18.5979 34.6616 19.4173 33.6355 20.0146C32.6093 20.6119 31.4606 20.9106 30.1894 20.9106C28.9029 20.9106 27.7465 20.6119 26.7204 20.0146C25.7095 19.4173 24.9131 18.5979 24.3311 17.5564C23.7491 16.4996 23.4581 15.3203 23.4581 14.0184C23.4581 12.7166 23.7491 11.5449 24.3311 10.5034C24.9131 9.44665 25.7095 8.61959 26.7204 8.02227C27.7465 7.42495 28.9029 7.12629 30.1894 7.12629ZM30.1894 9.21691C29.3317 9.21691 28.5659 9.43133 27.892 9.86018C27.2334 10.2737 26.7127 10.8481 26.3298 11.5832C25.9622 12.3031 25.7784 13.1148 25.7784 14.0184C25.7784 14.9221 25.9622 15.7415 26.3298 16.4766C26.7127 17.1965 27.2334 17.7708 27.892 18.1997C28.5659 18.6132 29.3317 18.82 30.1894 18.82C31.0318 18.82 31.7899 18.6132 32.4638 18.1997C33.1377 17.7708 33.6585 17.1965 34.026 16.4766C34.3936 15.7415 34.5774 14.9221 34.5774 14.0184C34.5774 13.1148 34.3936 12.3031 34.026 11.5832C33.6585 10.8481 33.1377 10.2737 32.4638 9.86018C31.7899 9.43133 31.0318 9.21691 30.1894 9.21691ZM51.5597 7.44792L46.0001 20.589H43.4959L37.9592 7.44792H40.5323L44.8284 17.901L49.1245 7.44792H51.5597ZM58.9932 20.9106C57.7373 20.9106 56.6039 20.6119 55.5931 20.0146C54.5975 19.4173 53.8164 18.5979 53.2497 17.5564C52.6831 16.4996 52.3997 15.3203 52.3997 14.0184C52.3997 12.7166 52.6831 11.5449 53.2497 10.5034C53.8164 9.44665 54.5975 8.61959 55.5931 8.02227C56.6039 7.42495 57.7373 7.12629 58.9932 7.12629C60.2491 7.12629 61.3748 7.42495 62.3704 8.02227C63.3812 8.61959 64.1623 9.44665 64.7137 10.5034C65.2804 11.5449 65.5637 12.7166 65.5637 14.0184C65.5637 14.4473 65.5484 14.7689 65.5178 14.9833H54.766C54.8885 16.132 55.3327 17.074 56.0985 17.8091C56.8796 18.5443 57.8445 18.9119 58.9932 18.9119C59.8662 18.9119 60.632 18.7357 61.2906 18.3835C61.9645 18.0159 62.424 17.5564 62.669 17.005H65.0813C64.7137 18.1537 63.9785 19.088 62.8758 19.8078C61.773 20.543 60.4788 20.9106 58.9932 20.9106ZM63.2434 13.0535C63.1055 11.8895 62.6537 10.9476 61.8879 10.2278C61.1221 9.4926 60.1572 9.12501 58.9932 9.12501C57.8292 9.12501 56.8643 9.4926 56.0985 10.2278C55.3327 10.9476 54.8885 11.8895 54.766 13.0535H63.2434ZM76.18 1.38283C76.6394 1.38283 77.0147 1.53599 77.3057 1.84231C77.612 2.13331 77.7652 2.50089 77.7652 2.94505C77.7652 3.38921 77.612 3.76445 77.3057 4.07077C77.0147 4.36177 76.6394 4.50727 76.18 4.50727C75.7358 4.50727 75.3606 4.36177 75.0542 4.07077C74.7632 3.76445 74.6177 3.38921 74.6177 2.94505C74.6177 2.50089 74.7632 2.13331 75.0542 1.84231C75.3606 1.53599 75.7358 1.38283 76.18 1.38283ZM75.0083 20.6119V7.44792H77.3746V20.6119H75.0083ZM86.2574 7.12629C87.3142 7.12629 88.2714 7.29477 89.1291 7.63172C89.9868 7.95335 90.6684 8.40517 91.1738 8.98717C91.6945 9.55386 91.9702 10.2048 92.0009 10.9399H89.6805C89.6345 10.3886 89.2823 9.93676 88.6237 9.58449C87.9651 9.23223 87.1534 9.05609 86.1885 9.05609C85.2389 9.05609 84.4501 9.22457 83.8222 9.56152C83.2095 9.89847 82.9032 10.312 82.9032 10.8021C82.9032 11.3688 83.1866 11.8206 83.7532 12.1576C84.3353 12.4945 85.3997 12.7702 86.9466 12.9846C88.8611 13.245 90.2319 13.6891 91.0589 14.3171C91.886 14.9451 92.2995 15.7874 92.2995 16.8442C92.2995 17.6713 92.0315 18.3911 91.4954 19.0038C90.9747 19.6164 90.2625 20.0835 89.3589 20.4052C88.4552 20.7421 87.452 20.9106 86.3493 20.9106C85.2006 20.9106 84.1897 20.7345 83.3167 20.3822C82.4437 20.0452 81.7545 19.5705 81.2491 18.9578C80.759 18.3605 80.4833 17.6789 80.422 16.9131H82.7424C82.819 17.4798 83.1712 17.9699 83.7992 18.3835C84.4425 18.7817 85.3155 18.9808 86.4182 18.9808C87.4444 18.9808 88.2944 18.797 88.9683 18.4294C89.6422 18.0465 89.9792 17.5641 89.9792 16.9821C89.9792 16.4307 89.6652 15.9942 89.0372 15.6726C88.4246 15.3356 87.3525 15.0676 85.8209 14.8685C84.0136 14.6234 82.6888 14.1946 81.8464 13.5819C81.004 12.954 80.5829 12.0733 80.5829 10.9399C80.5829 10.1895 80.8279 9.52323 81.318 8.94122C81.8234 8.35922 82.505 7.91506 83.3627 7.60874C84.2204 7.28711 85.1853 7.12629 86.2574 7.12629ZM107.633 20.9106C106.377 20.9106 105.244 20.6119 104.233 20.0146C103.237 19.4173 102.456 18.5979 101.89 17.5564C101.323 16.4996 101.04 15.3203 101.04 14.0184C101.04 12.7166 101.323 11.5449 101.89 10.5034C102.456 9.44665 103.237 8.61959 104.233 8.02227C105.244 7.42495 106.377 7.12629 107.633 7.12629C108.889 7.12629 110.015 7.42495 111.01 8.02227C112.021 8.61959 112.802 9.44665 113.354 10.5034C113.92 11.5449 114.204 12.7166 114.204 14.0184C114.204 14.4473 114.188 14.7689 114.158 14.9833H103.406C103.528 16.132 103.973 17.074 104.738 17.8091C105.52 18.5443 106.484 18.9119 107.633 18.9119C108.506 18.9119 109.272 18.7357 109.93 18.3835C110.604 18.0159 111.064 17.5564 111.309 17.005H113.721C113.354 18.1537 112.618 19.088 111.516 19.8078C110.413 20.543 109.119 20.9106 107.633 20.9106ZM111.883 13.0535C111.745 11.8895 111.294 10.9476 110.528 10.2278C109.762 9.4926 108.797 9.12501 107.633 9.12501C106.469 9.12501 105.504 9.4926 104.738 10.2278C103.973 10.9476 103.528 11.8895 103.406 13.0535H111.883ZM114.981 7.44792H117.876L121.643 12.2954L125.457 7.44792H128.191L123.091 13.8806L128.467 20.589H125.572L121.551 15.5117L117.531 20.589H114.797L120.104 13.9265L114.981 7.44792ZM137.768 20.9106C136.65 20.9106 135.685 20.6885 134.873 20.2443C134.061 19.8002 133.472 19.2641 133.104 18.6362V26.1716H130.738V7.44792H133.104V9.4007C133.472 8.77275 134.061 8.23669 134.873 7.79253C135.685 7.34837 136.65 7.12629 137.768 7.12629C138.993 7.12629 140.096 7.42495 141.076 8.02227C142.072 8.61959 142.853 9.44665 143.419 10.5034C143.986 11.5602 144.269 12.7319 144.269 14.0184C144.269 15.305 143.986 16.4766 143.419 17.5334C142.853 18.5902 142.072 19.4173 141.076 20.0146C140.096 20.6119 138.993 20.9106 137.768 20.9106ZM137.561 18.82C138.419 18.82 139.177 18.6132 139.835 18.1997C140.509 17.7861 141.03 17.2118 141.398 16.4766C141.765 15.7415 141.949 14.9221 141.949 14.0184C141.949 13.1148 141.765 12.2954 141.398 11.5602C141.03 10.8251 140.509 10.2507 139.835 9.8372C139.177 9.42367 138.419 9.21691 137.561 9.21691C136.688 9.21691 135.907 9.43133 135.218 9.86018C134.544 10.2737 134.015 10.8481 133.632 11.5832C133.25 12.3031 133.058 13.1148 133.058 14.0184C133.058 14.9221 133.25 15.7415 133.632 16.4766C134.015 17.1965 134.544 17.7708 135.218 18.1997C135.907 18.6132 136.688 18.82 137.561 18.82ZM149.661 7.44792V9.46962C150.014 8.8723 150.596 8.33625 151.407 7.86145C152.234 7.37135 153.23 7.12629 154.394 7.12629C155.144 7.12629 155.742 7.20287 156.186 7.35603V9.60747C155.65 9.36241 154.999 9.23988 154.233 9.23988C153.36 9.23988 152.571 9.45431 151.867 9.88315C151.178 10.2967 150.634 10.8557 150.236 11.5602C149.853 12.2495 149.661 12.9923 149.661 13.7887V20.589H147.295V7.44792H149.661ZM163.744 20.9106C162.488 20.9106 161.355 20.6119 160.344 20.0146C159.348 19.4173 158.567 18.5979 158.001 17.5564C157.434 16.4996 157.151 15.3203 157.151 14.0184C157.151 12.7166 157.434 11.5449 158.001 10.5034C158.567 9.44665 159.348 8.61959 160.344 8.02227C161.355 7.42495 162.488 7.12629 163.744 7.12629C165 7.12629 166.126 7.42495 167.121 8.02227C168.132 8.61959 168.913 9.44665 169.464 10.5034C170.031 11.5449 170.315 12.7166 170.315 14.0184C170.315 14.4473 170.299 14.7689 170.269 14.9833H159.517C159.639 16.132 160.084 17.074 160.849 17.8091C161.63 18.5443 162.595 18.9119 163.744 18.9119C164.617 18.9119 165.383 18.7357 166.041 18.3835C166.715 18.0159 167.175 17.5564 167.42 17.005H169.832C169.464 18.1537 168.729 19.088 167.627 19.8078C166.524 20.543 165.23 20.9106 163.744 20.9106ZM167.994 13.0535C167.856 11.8895 167.405 10.9476 166.639 10.2278C165.873 9.4926 164.908 9.12501 163.744 9.12501C162.58 9.12501 161.615 9.4926 160.849 10.2278C160.084 10.9476 159.639 11.8895 159.517 13.0535H167.994ZM178.489 7.12629C179.546 7.12629 180.503 7.29477 181.361 7.63172C182.219 7.95335 182.9 8.40517 183.406 8.98717C183.926 9.55386 184.202 10.2048 184.233 10.9399H181.912C181.866 10.3886 181.514 9.93676 180.856 9.58449C180.197 9.23223 179.385 9.05609 178.42 9.05609C177.471 9.05609 176.682 9.22457 176.054 9.56152C175.441 9.89847 175.135 10.312 175.135 10.8021C175.135 11.3688 175.418 11.8206 175.985 12.1576C176.567 12.4945 177.632 12.7702 179.178 12.9846C181.093 13.245 182.464 13.6891 183.291 14.3171C184.118 14.9451 184.531 15.7874 184.531 16.8442C184.531 17.6713 184.263 18.3911 183.727 19.0038C183.207 19.6164 182.494 20.0835 181.591 20.4052C180.687 20.7421 179.684 20.9106 178.581 20.9106C177.432 20.9106 176.422 20.7345 175.549 20.3822C174.676 20.0452 173.986 19.5705 173.481 18.9578C172.991 18.3605 172.715 17.6789 172.654 16.9131H174.974C175.051 17.4798 175.403 17.9699 176.031 18.3835C176.674 18.7817 177.547 18.9808 178.65 18.9808C179.676 18.9808 180.526 18.797 181.2 18.4294C181.874 18.0465 182.211 17.5641 182.211 16.9821C182.211 16.4307 181.897 15.9942 181.269 15.6726C180.656 15.3356 179.584 15.0676 178.053 14.8685C176.245 14.6234 174.921 14.1946 174.078 13.5819C173.236 12.954 172.815 12.0733 172.815 10.9399C172.815 10.1895 173.06 9.52323 173.55 8.94122C174.055 8.35922 174.737 7.91506 175.595 7.60874C176.452 7.28711 177.417 7.12629 178.489 7.12629ZM192.691 7.12629C193.748 7.12629 194.705 7.29477 195.563 7.63172C196.42 7.95335 197.102 8.40517 197.607 8.98717C198.128 9.55386 198.404 10.2048 198.434 10.9399H196.114C196.068 10.3886 195.716 9.93676 195.057 9.58449C194.399 9.23223 193.587 9.05609 192.622 9.05609C191.672 9.05609 190.884 9.22457 190.256 9.56152C189.643 9.89847 189.337 10.312 189.337 10.8021C189.337 11.3688 189.62 11.8206 190.187 12.1576C190.769 12.4945 191.833 12.7702 193.38 12.9846C195.295 13.245 196.665 13.6891 197.492 14.3171C198.319 14.9451 198.733 15.7874 198.733 16.8442C198.733 17.6713 198.465 18.3911 197.929 19.0038C197.408 19.6164 196.696 20.0835 195.792 20.4052C194.889 20.7421 193.885 20.9106 192.783 20.9106C191.634 20.9106 190.623 20.7345 189.75 20.3822C188.877 20.0452 188.188 19.5705 187.683 18.9578C187.192 18.3605 186.917 17.6789 186.855 16.9131H189.176C189.252 17.4798 189.605 17.9699 190.233 18.3835C190.876 18.7817 191.749 18.9808 192.852 18.9808C193.878 18.9808 194.728 18.797 195.402 18.4294C196.076 18.0465 196.413 17.5641 196.413 16.9821C196.413 16.4307 196.099 15.9942 195.471 15.6726C194.858 15.3356 193.786 15.0676 192.254 14.8685C190.447 14.6234 189.122 14.1946 188.28 13.5819C187.438 12.954 187.016 12.0733 187.016 10.9399C187.016 10.1895 187.261 9.52323 187.751 8.94122C188.257 8.35922 188.938 7.91506 189.796 7.60874C190.654 7.28711 191.619 7.12629 192.691 7.12629ZM207.628 20.9106C206.372 20.9106 205.238 20.6119 204.227 20.0146C203.232 19.4173 202.451 18.5979 201.884 17.5564C201.317 16.4996 201.034 15.3203 201.034 14.0184C201.034 12.7166 201.317 11.5449 201.884 10.5034C202.451 9.44665 203.232 8.61959 204.227 8.02227C205.238 7.42495 206.372 7.12629 207.628 7.12629C208.884 7.12629 210.009 7.42495 211.005 8.02227C212.016 8.61959 212.797 9.44665 213.348 10.5034C213.915 11.5449 214.198 12.7166 214.198 14.0184C214.198 14.4473 214.183 14.7689 214.152 14.9833H203.4C203.523 16.132 203.967 17.074 204.733 17.8091C205.514 18.5443 206.479 18.9119 207.628 18.9119C208.501 18.9119 209.266 18.7357 209.925 18.3835C210.599 18.0159 211.058 17.5564 211.303 17.005H213.716C213.348 18.1537 212.613 19.088 211.51 19.8078C210.407 20.543 209.113 20.9106 207.628 20.9106ZM211.878 13.0535C211.74 11.8895 211.288 10.9476 210.522 10.2278C209.757 9.4926 208.792 9.12501 207.628 9.12501C206.464 9.12501 205.499 9.4926 204.733 10.2278C203.967 10.9476 203.523 11.8895 203.4 13.0535H211.878ZM223.016 20.9106C221.791 20.9106 220.68 20.6119 219.685 20.0146C218.705 19.4173 217.931 18.5902 217.365 17.5334C216.798 16.4766 216.515 15.305 216.515 14.0184C216.515 12.7319 216.798 11.5602 217.365 10.5034C217.931 9.44665 218.705 8.61959 219.685 8.02227C220.68 7.42495 221.791 7.12629 223.016 7.12629C224.134 7.12629 225.099 7.34837 225.911 7.79253C226.723 8.23669 227.312 8.77275 227.68 9.4007V1.61257H230.046V20.589H227.68V18.6362C227.312 19.2641 226.723 19.8002 225.911 20.2443C225.099 20.6885 224.134 20.9106 223.016 20.9106ZM223.223 18.82C224.096 18.82 224.869 18.6132 225.543 18.1997C226.232 17.7708 226.769 17.1965 227.151 16.4766C227.534 15.7415 227.726 14.9221 227.726 14.0184C227.726 13.1148 227.534 12.3031 227.151 11.5832C226.769 10.8481 226.232 10.2737 225.543 9.86018C224.869 9.43133 224.096 9.21691 223.223 9.21691C222.365 9.21691 221.599 9.42367 220.926 9.8372C220.267 10.2507 219.754 10.8251 219.386 11.5602C219.019 12.2954 218.835 13.1148 218.835 14.0184C218.835 14.9221 219.019 15.7415 219.386 16.4766C219.754 17.2118 220.267 17.7861 220.926 18.1997C221.599 18.6132 222.365 18.82 223.223 18.82ZM241.372 1.38283C241.831 1.38283 242.206 1.53599 242.497 1.84231C242.804 2.13331 242.957 2.50089 242.957 2.94505C242.957 3.38921 242.804 3.76445 242.497 4.07077C242.206 4.36177 241.831 4.50727 241.372 4.50727C240.928 4.50727 240.552 4.36177 240.246 4.07077C239.955 3.76445 239.809 3.38921 239.809 2.94505C239.809 2.50089 239.955 2.13331 240.246 1.84231C240.552 1.53599 240.928 1.38283 241.372 1.38283ZM240.2 20.6119V7.44792H242.566V20.6119H240.2ZM248.646 7.44792V9.44665C248.983 8.84933 249.535 8.31327 250.3 7.83848C251.082 7.36369 252.016 7.12629 253.103 7.12629C254.129 7.12629 255.041 7.36369 255.837 7.83848C256.649 8.31327 257.277 8.98717 257.721 9.86018C258.165 10.7179 258.387 11.7287 258.387 12.8927V20.589H256.021V13.3063C256.021 11.9891 255.715 10.9782 255.102 10.2737C254.505 9.55386 253.67 9.19394 252.598 9.19394C251.847 9.19394 251.173 9.40836 250.576 9.8372C249.979 10.2507 249.504 10.8098 249.152 11.5143C248.815 12.2188 248.646 12.977 248.646 13.7887V20.589H246.28V7.44792H248.646ZM275.069 9.53854H272.151V20.589H269.785V9.53854H266.867V7.44792H269.785V3.45048H272.151V7.44792H275.069V9.53854ZM279.876 1.61257V9.44665C280.213 8.84933 280.765 8.31327 281.53 7.83848C282.312 7.36369 283.246 7.12629 284.333 7.12629C285.359 7.12629 286.271 7.36369 287.067 7.83848C287.879 8.31327 288.507 8.98717 288.951 9.86018C289.395 10.7179 289.617 11.7287 289.617 12.8927V20.589H287.251V13.3063C287.251 11.9891 286.945 10.9782 286.332 10.2737C285.735 9.55386 284.9 9.19394 283.828 9.19394C283.077 9.19394 282.403 9.40836 281.806 9.8372C281.209 10.2507 280.734 10.8098 280.382 11.5143C280.045 12.2188 279.876 12.977 279.876 13.7887V20.589H277.51V1.61257H279.876ZM298.94 20.9106C297.684 20.9106 296.55 20.6119 295.539 20.0146C294.544 19.4173 293.763 18.5979 293.196 17.5564C292.629 16.4996 292.346 15.3203 292.346 14.0184C292.346 12.7166 292.629 11.5449 293.196 10.5034C293.763 9.44665 294.544 8.61959 295.539 8.02227C296.55 7.42495 297.684 7.12629 298.94 7.12629C300.196 7.12629 301.321 7.42495 302.317 8.02227C303.328 8.61959 304.109 9.44665 304.66 10.5034C305.227 11.5449 305.51 12.7166 305.51 14.0184C305.51 14.4473 305.495 14.7689 305.464 14.9833H294.712C294.835 16.132 295.279 17.074 296.045 17.8091C296.826 18.5443 297.791 18.9119 298.94 18.9119C299.813 18.9119 300.578 18.7357 301.237 18.3835C301.911 18.0159 302.37 17.5564 302.615 17.005H305.028C304.66 18.1537 303.925 19.088 302.822 19.8078C301.719 20.543 300.425 20.9106 298.94 20.9106ZM303.19 13.0535C303.052 11.8895 302.6 10.9476 301.834 10.2278C301.069 9.4926 300.104 9.12501 298.94 9.12501C297.776 9.12501 296.811 9.4926 296.045 10.2278C295.279 10.9476 294.835 11.8895 294.712 13.0535H303.19ZM89.6003 47.3465V63.589H87.188V47.3465H80.5715V45.1869H96.1937V47.3465H89.6003ZM101.291 44.6126V52.4466C101.628 51.8493 102.179 51.3133 102.945 50.8385C103.726 50.3637 104.66 50.1263 105.748 50.1263C106.774 50.1263 107.685 50.3637 108.482 50.8385C109.293 51.3133 109.921 51.9872 110.365 52.8602C110.81 53.7179 111.032 54.7287 111.032 55.8927V63.589H108.665V56.3063C108.665 54.9891 108.359 53.9782 107.746 53.2737C107.149 52.5539 106.314 52.1939 105.242 52.1939C104.492 52.1939 103.818 52.4084 103.221 52.8372C102.623 53.2507 102.148 53.8098 101.796 54.5143C101.459 55.2188 101.291 55.977 101.291 56.7887V63.589H98.9244V44.6126H101.291ZM120.354 63.9106C119.098 63.9106 117.965 63.6119 116.954 63.0146C115.958 62.4173 115.177 61.5979 114.611 60.5564C114.044 59.4996 113.76 58.3203 113.76 57.0184C113.76 55.7166 114.044 54.5449 114.611 53.5034C115.177 52.4466 115.958 51.6196 116.954 51.0223C117.965 50.425 119.098 50.1263 120.354 50.1263C121.61 50.1263 122.736 50.425 123.731 51.0223C124.742 51.6196 125.523 52.4466 126.074 53.5034C126.641 54.5449 126.924 55.7166 126.924 57.0184C126.924 57.4473 126.909 57.7689 126.879 57.9833H116.127C116.249 59.132 116.693 60.074 117.459 60.8091C118.24 61.5443 119.205 61.9119 120.354 61.9119C121.227 61.9119 121.993 61.7357 122.651 61.3835C123.325 61.0159 123.785 60.5564 124.03 60.005H126.442C126.074 61.1537 125.339 62.088 124.237 62.8078C123.134 63.543 121.84 63.9106 120.354 63.9106ZM124.604 56.0535C124.466 54.8895 124.014 53.9476 123.249 53.2278C122.483 52.4926 121.518 52.125 120.354 52.125C119.19 52.125 118.225 52.4926 117.459 53.2278C116.693 53.9476 116.249 54.8895 116.127 56.0535H124.604ZM142.273 63.9106C141.017 63.9106 139.884 63.6119 138.873 63.0146C137.878 62.4173 137.097 61.5979 136.53 60.5564C135.963 59.4996 135.68 58.3203 135.68 57.0184C135.68 55.7166 135.963 54.5449 136.53 53.5034C137.097 52.4466 137.878 51.6196 138.873 51.0223C139.884 50.425 141.017 50.1263 142.273 50.1263C143.529 50.1263 144.655 50.425 145.65 51.0223C146.661 51.6196 147.442 52.4466 147.994 53.5034C148.561 54.5449 148.844 55.7166 148.844 57.0184C148.844 57.4473 148.829 57.7689 148.798 57.9833H138.046C138.169 59.132 138.613 60.074 139.379 60.8091C140.16 61.5443 141.125 61.9119 142.273 61.9119C143.146 61.9119 143.912 61.7357 144.571 61.3835C145.245 61.0159 145.704 60.5564 145.949 60.005H148.361C147.994 61.1537 147.259 62.088 146.156 62.8078C145.053 63.543 143.759 63.9106 142.273 63.9106ZM146.523 56.0535C146.386 54.8895 145.934 53.9476 145.168 53.2278C144.402 52.4926 143.437 52.125 142.273 52.125C141.109 52.125 140.144 52.4926 139.379 53.2278C138.613 53.9476 138.169 54.8895 138.046 56.0535H146.523ZM154.216 50.4479V52.3088C154.599 51.6962 155.104 51.1831 155.732 50.7696C156.375 50.3407 157.195 50.1263 158.19 50.1263C159.155 50.1263 159.998 50.3713 160.717 50.8615C161.437 51.3516 161.958 52.0255 162.28 52.8832C162.678 52.0408 163.283 51.3745 164.095 50.8844C164.906 50.379 165.856 50.1263 166.943 50.1263C167.878 50.1263 168.705 50.356 169.424 50.8155C170.16 51.2597 170.734 51.8953 171.147 52.7223C171.561 53.5494 171.768 54.5066 171.768 55.5941V63.589H169.401V55.9846C169.401 54.8053 169.133 53.8787 168.597 53.2048C168.061 52.5309 167.326 52.1939 166.392 52.1939C165.749 52.1939 165.167 52.3854 164.646 52.7683C164.125 53.1512 163.719 53.6719 163.428 54.3305C163.137 54.9891 162.992 55.7166 162.992 56.513V63.589H160.625V56.0765C160.625 54.8512 160.357 53.9017 159.821 53.2278C159.285 52.5385 158.55 52.1939 157.616 52.1939C156.973 52.1939 156.391 52.3854 155.87 52.7683C155.364 53.1512 154.959 53.6719 154.652 54.3305C154.361 54.9891 154.216 55.7089 154.216 56.49V63.589H151.849V50.4479H154.216ZM181.18 50.1263C182.451 50.1263 183.599 50.425 184.626 51.0223C185.652 51.6196 186.448 52.4466 187.015 53.5034C187.597 54.5449 187.888 55.7166 187.888 57.0184C187.888 58.3203 187.597 59.4996 187.015 60.5564C186.448 61.5979 185.652 62.4173 184.626 63.0146C183.599 63.6119 182.451 63.9106 181.18 63.9106C179.893 63.9106 178.737 63.6119 177.71 63.0146C176.7 62.4173 175.903 61.5979 175.321 60.5564C174.739 59.4996 174.448 58.3203 174.448 57.0184C174.448 55.7166 174.739 54.5449 175.321 53.5034C175.903 52.4466 176.7 51.6196 177.71 51.0223C178.737 50.425 179.893 50.1263 181.18 50.1263ZM181.18 52.2169C180.322 52.2169 179.556 52.4313 178.882 52.8602C178.224 53.2737 177.703 53.8481 177.32 54.5832C176.952 55.3031 176.769 56.1148 176.769 57.0184C176.769 57.9221 176.952 58.7415 177.32 59.4766C177.703 60.1965 178.224 60.7708 178.882 61.1997C179.556 61.6132 180.322 61.82 181.18 61.82C182.022 61.82 182.78 61.6132 183.454 61.1997C184.128 60.7708 184.649 60.1965 185.016 59.4766C185.384 58.7415 185.568 57.9221 185.568 57.0184C185.568 56.1148 185.384 55.3031 185.016 54.5832C184.649 53.8481 184.128 53.2737 183.454 52.8602C182.78 52.4313 182.022 52.2169 181.18 52.2169ZM197.375 52.5385H194.458V63.589H192.091V52.5385H189.174V50.4479H192.091V46.4505H194.458V50.4479H197.375V52.5385ZM200.988 44.3828C201.447 44.3828 201.823 44.536 202.114 44.8423C202.42 45.1333 202.573 45.5009 202.573 45.9451C202.573 46.3892 202.42 46.7645 202.114 47.0708C201.823 47.3618 201.447 47.5073 200.988 47.5073C200.544 47.5073 200.169 47.3618 199.862 47.0708C199.571 46.7645 199.426 46.3892 199.426 45.9451C199.426 45.5009 199.571 45.1333 199.862 44.8423C200.169 44.536 200.544 44.3828 200.988 44.3828ZM199.816 63.6119V50.4479H202.183V63.6119H199.816ZM211.938 50.1263C213.21 50.1263 214.358 50.425 215.384 51.0223C216.411 51.6196 217.207 52.4466 217.774 53.5034C218.356 54.5449 218.647 55.7166 218.647 57.0184C218.647 58.3203 218.356 59.4996 217.774 60.5564C217.207 61.5979 216.411 62.4173 215.384 63.0146C214.358 63.6119 213.21 63.9106 211.938 63.9106C210.652 63.9106 209.496 63.6119 208.469 63.0146C207.459 62.4173 206.662 61.5979 206.08 60.5564C205.498 59.4996 205.207 58.3203 205.207 57.0184C205.207 55.7166 205.498 54.5449 206.08 53.5034C206.662 52.4466 207.459 51.6196 208.469 51.0223C209.496 50.425 210.652 50.1263 211.938 50.1263ZM211.938 52.2169C211.081 52.2169 210.315 52.4313 209.641 52.8602C208.982 53.2737 208.462 53.8481 208.079 54.5832C207.711 55.3031 207.527 56.1148 207.527 57.0184C207.527 57.9221 207.711 58.7415 208.079 59.4766C208.462 60.1965 208.982 60.7708 209.641 61.1997C210.315 61.6132 211.081 61.82 211.938 61.82C212.781 61.82 213.539 61.6132 214.213 61.1997C214.887 60.7708 215.407 60.1965 215.775 59.4766C216.143 58.7415 216.326 57.9221 216.326 57.0184C216.326 56.1148 216.143 55.3031 215.775 54.5832C215.407 53.8481 214.887 53.2737 214.213 52.8602C213.539 52.4313 212.781 52.2169 211.938 52.2169ZM224.035 50.4479V52.4466C224.372 51.8493 224.923 51.3133 225.689 50.8385C226.47 50.3637 227.404 50.1263 228.492 50.1263C229.518 50.1263 230.429 50.3637 231.225 50.8385C232.037 51.3133 232.665 51.9872 233.109 52.8602C233.554 53.7179 233.776 54.7287 233.776 55.8927V63.589H231.409V56.3063C231.409 54.9891 231.103 53.9782 230.49 53.2737C229.893 52.5539 229.058 52.1939 227.986 52.1939C227.236 52.1939 226.562 52.4084 225.964 52.8372C225.367 53.2507 224.892 53.8098 224.54 54.5143C224.203 55.2188 224.035 55.977 224.035 56.7887V63.589H221.668V50.4479H224.035ZM242.295 50.1263C243.352 50.1263 244.31 50.2948 245.167 50.6317C246.025 50.9533 246.706 51.4052 247.212 51.9872C247.733 52.5539 248.008 53.2048 248.039 53.9399H245.719C245.673 53.3886 245.32 52.9368 244.662 52.5845C244.003 52.2322 243.191 52.0561 242.227 52.0561C241.277 52.0561 240.488 52.2246 239.86 52.5615C239.248 52.8985 238.941 53.312 238.941 53.8021C238.941 54.3688 239.225 54.8206 239.791 55.1576C240.373 55.4945 241.438 55.7702 242.985 55.9846C244.899 56.245 246.27 56.6891 247.097 57.3171C247.924 57.9451 248.338 58.7874 248.338 59.8442C248.338 60.6713 248.07 61.3911 247.533 62.0038C247.013 62.6164 246.301 63.0835 245.397 63.4052C244.493 63.7421 243.49 63.9106 242.387 63.9106C241.239 63.9106 240.228 63.7345 239.355 63.3822C238.482 63.0452 237.793 62.5705 237.287 61.9578C236.797 61.3605 236.521 60.6789 236.46 59.9131H238.78C238.857 60.4798 239.209 60.9699 239.837 61.3835C240.481 61.7817 241.354 61.9808 242.456 61.9808C243.482 61.9808 244.332 61.797 245.006 61.4294C245.68 61.0465 246.017 60.5641 246.017 59.9821C246.017 59.4307 245.703 58.9942 245.075 58.6726C244.463 58.3356 243.391 58.0676 241.859 57.8685C240.052 57.6234 238.727 57.1946 237.884 56.5819C237.042 55.954 236.621 55.0733 236.621 53.9399C236.621 53.1895 236.866 52.5232 237.356 51.9412C237.862 51.3592 238.543 50.9151 239.401 50.6087C240.258 50.2871 241.223 50.1263 242.295 50.1263ZM264.659 52.5385H261.741V63.589H259.375V52.5385H256.457V50.4479H259.375V46.4505H261.741V50.4479H264.659V52.5385ZM269.466 44.6126V52.4466C269.803 51.8493 270.355 51.3133 271.12 50.8385C271.902 50.3637 272.836 50.1263 273.923 50.1263C274.949 50.1263 275.861 50.3637 276.657 50.8385C277.469 51.3133 278.097 51.9872 278.541 52.8602C278.985 53.7179 279.207 54.7287 279.207 55.8927V63.589H276.841V56.3063C276.841 54.9891 276.535 53.9782 275.922 53.2737C275.325 52.5539 274.49 52.1939 273.418 52.1939C272.667 52.1939 271.993 52.4084 271.396 52.8372C270.799 53.2507 270.324 53.8098 269.972 54.5143C269.635 55.2188 269.466 55.977 269.466 56.7887V63.589H267.1V44.6126H269.466ZM288.438 63.9106C287.212 63.9106 286.102 63.6119 285.106 63.0146C284.126 62.4173 283.353 61.5902 282.786 60.5334C282.219 59.4766 281.936 58.305 281.936 57.0184C281.936 55.7319 282.219 54.5602 282.786 53.5034C283.353 52.4466 284.126 51.6196 285.106 51.0223C286.102 50.425 287.212 50.1263 288.438 50.1263C289.556 50.1263 290.521 50.3484 291.332 50.7925C292.144 51.2367 292.734 51.7727 293.101 52.4007V50.4479H295.468V63.589H293.101V61.6362C292.734 62.2641 292.144 62.8002 291.332 63.2443C290.521 63.6885 289.556 63.9106 288.438 63.9106ZM288.644 61.82C289.517 61.82 290.291 61.6132 290.965 61.1997C291.654 60.7708 292.19 60.1965 292.573 59.4766C292.956 58.7415 293.147 57.9221 293.147 57.0184C293.147 56.1148 292.956 55.3031 292.573 54.5832C292.19 53.8481 291.654 53.2737 290.965 52.8602C290.291 52.4313 289.517 52.2169 288.644 52.2169C287.787 52.2169 287.021 52.4237 286.347 52.8372C285.688 53.2507 285.175 53.8251 284.808 54.5602C284.44 55.2954 284.256 56.1148 284.256 57.0184C284.256 57.9221 284.44 58.7415 284.808 59.4766C285.175 60.2118 285.688 60.7861 286.347 61.1997C287.021 61.6132 287.787 61.82 288.644 61.82ZM306.075 52.5385H303.157V63.589H300.791V52.5385H297.873V50.4479H300.791V46.4505H303.157V50.4479H306.075V52.5385ZM50.7185 85.9106C49.6004 85.9106 48.6355 85.6885 47.8238 85.2443C47.012 84.8002 46.4224 84.2641 46.0548 83.6362V85.589H43.6885V66.6126H46.0548V74.4007C46.4224 73.7727 47.012 73.2367 47.8238 72.7925C48.6355 72.3484 49.6004 72.1263 50.7185 72.1263C51.9438 72.1263 53.0465 72.425 54.0267 73.0223C55.0222 73.6196 55.8034 74.4466 56.37 75.5034C56.9367 76.5602 57.2201 77.7319 57.2201 79.0184C57.2201 80.305 56.9367 81.4766 56.37 82.5334C55.8034 83.5902 55.0222 84.4173 54.0267 85.0146C53.0465 85.6119 51.9438 85.9106 50.7185 85.9106ZM50.5117 83.82C51.3694 83.82 52.1275 83.6132 52.7861 83.1997C53.46 82.7861 53.9808 82.2118 54.3483 81.4766C54.7159 80.7415 54.8997 79.9221 54.8997 79.0184C54.8997 78.1148 54.7159 77.2954 54.3483 76.5602C53.9808 75.8251 53.46 75.2507 52.7861 74.8372C52.1275 74.4237 51.3694 74.2169 50.5117 74.2169C49.6387 74.2169 48.8576 74.4313 48.1684 74.8602C47.4945 75.2737 46.9661 75.8481 46.5832 76.5832C46.2003 77.3031 46.0088 78.1148 46.0088 79.0184C46.0088 79.9221 46.2003 80.7415 46.5832 81.4766C46.9661 82.1965 47.4945 82.7708 48.1684 83.1997C48.8576 83.6132 49.6387 83.82 50.5117 83.82ZM60.2458 85.589V66.6126H62.6121V85.589H60.2458ZM72.3679 72.1263C73.6391 72.1263 74.7878 72.425 75.814 73.0223C76.8401 73.6196 77.6366 74.4466 78.2033 75.5034C78.7853 76.5449 79.0763 77.7166 79.0763 79.0184C79.0763 80.3203 78.7853 81.4996 78.2033 82.5564C77.6366 83.5979 76.8401 84.4173 75.814 85.0146C74.7878 85.6119 73.6391 85.9106 72.3679 85.9106C71.0814 85.9106 69.925 85.6119 68.8989 85.0146C67.888 84.4173 67.0916 83.5979 66.5096 82.5564C65.9276 81.4996 65.6366 80.3203 65.6366 79.0184C65.6366 77.7166 65.9276 76.5449 66.5096 75.5034C67.0916 74.4466 67.888 73.6196 68.8989 73.0223C69.925 72.425 71.0814 72.1263 72.3679 72.1263ZM72.3679 74.2169C71.5102 74.2169 70.7444 74.4313 70.0705 74.8602C69.4119 75.2737 68.8912 75.8481 68.5083 76.5832C68.1407 77.3031 67.9569 78.1148 67.9569 79.0184C67.9569 79.9221 68.1407 80.7415 68.5083 81.4766C68.8912 82.1965 69.4119 82.7708 70.0705 83.1997C70.7444 83.6132 71.5102 83.82 72.3679 83.82C73.2103 83.82 73.9684 83.6132 74.6423 83.1997C75.3162 82.7708 75.837 82.1965 76.2045 81.4766C76.5721 80.7415 76.7559 79.9221 76.7559 79.0184C76.7559 78.1148 76.5721 77.3031 76.2045 76.5832C75.837 75.8481 75.3162 75.2737 74.6423 74.8602C73.9684 74.4313 73.2103 74.2169 72.3679 74.2169ZM88.14 72.1263C89.4112 72.1263 90.5599 72.425 91.5861 73.0223C92.6122 73.6196 93.4086 74.4466 93.9753 75.5034C94.5573 76.5449 94.8483 77.7166 94.8483 79.0184C94.8483 80.3203 94.5573 81.4996 93.9753 82.5564C93.4086 83.5979 92.6122 84.4173 91.5861 85.0146C90.5599 85.6119 89.4112 85.9106 88.14 85.9106C86.8534 85.9106 85.6971 85.6119 84.6709 85.0146C83.6601 84.4173 82.8637 83.5979 82.2817 82.5564C81.6997 81.4996 81.4086 80.3203 81.4086 79.0184C81.4086 77.7166 81.6997 76.5449 82.2817 75.5034C82.8637 74.4466 83.6601 73.6196 84.6709 73.0223C85.6971 72.425 86.8534 72.1263 88.14 72.1263ZM88.14 74.2169C87.2823 74.2169 86.5165 74.4313 85.8426 74.8602C85.184 75.2737 84.6633 75.8481 84.2804 76.5832C83.9128 77.3031 83.729 78.1148 83.729 79.0184C83.729 79.9221 83.9128 80.7415 84.2804 81.4766C84.6633 82.1965 85.184 82.7708 85.8426 83.1997C86.5165 83.6132 87.2823 83.82 88.14 83.82C88.9824 83.82 89.7405 83.6132 90.4144 83.1997C91.0883 82.7708 91.609 82.1965 91.9766 81.4766C92.3442 80.7415 92.528 79.9221 92.528 79.0184C92.528 78.1148 92.3442 77.3031 91.9766 76.5832C91.609 75.8481 91.0883 75.2737 90.4144 74.8602C89.7405 74.4313 88.9824 74.2169 88.14 74.2169ZM100.236 72.4479V74.3088C100.619 73.6962 101.125 73.1831 101.753 72.7696C102.396 72.3407 103.215 72.1263 104.211 72.1263C105.176 72.1263 106.018 72.3713 106.738 72.8615C107.458 73.3516 107.978 74.0255 108.3 74.8832C108.698 74.0408 109.303 73.3745 110.115 72.8844C110.927 72.379 111.876 72.1263 112.964 72.1263C113.898 72.1263 114.725 72.356 115.445 72.8155C116.18 73.2597 116.754 73.8953 117.168 74.7223C117.581 75.5494 117.788 76.5066 117.788 77.5941V85.589H115.422V77.9846C115.422 76.8053 115.154 75.8787 114.618 75.2048C114.082 74.5309 113.347 74.1939 112.412 74.1939C111.769 74.1939 111.187 74.3854 110.666 74.7683C110.146 75.1512 109.74 75.6719 109.449 76.3305C109.158 76.9891 109.012 77.7166 109.012 78.513V85.589H106.646V78.0765C106.646 76.8512 106.378 75.9017 105.842 75.2278C105.306 74.5385 104.571 74.1939 103.636 74.1939C102.993 74.1939 102.411 74.3854 101.89 74.7683C101.385 75.1512 100.979 75.6719 100.673 76.3305C100.382 76.9891 100.236 77.7089 100.236 78.49V85.589H97.8699V72.4479H100.236ZM128.768 66.3828C129.228 66.3828 129.603 66.536 129.894 66.8423C130.201 67.1333 130.354 67.5009 130.354 67.9451C130.354 68.3892 130.201 68.7645 129.894 69.0708C129.603 69.3618 129.228 69.5073 128.768 69.5073C128.324 69.5073 127.949 69.3618 127.643 69.0708C127.352 68.7645 127.206 68.3892 127.206 67.9451C127.206 67.5009 127.352 67.1333 127.643 66.8423C127.949 66.536 128.324 66.3828 128.768 66.3828ZM127.597 85.6119V72.4479H129.963V85.6119H127.597ZM136.043 72.4479V74.4466C136.38 73.8493 136.931 73.3133 137.697 72.8385C138.478 72.3637 139.413 72.1263 140.5 72.1263C141.526 72.1263 142.437 72.3637 143.234 72.8385C144.046 73.3133 144.674 73.9872 145.118 74.8602C145.562 75.7179 145.784 76.7287 145.784 77.8927V85.589H143.418V78.3063C143.418 76.9891 143.111 75.9782 142.499 75.2737C141.901 74.5539 141.067 74.1939 139.995 74.1939C139.244 74.1939 138.57 74.4084 137.973 74.8372C137.376 75.2507 136.901 75.8098 136.549 76.5143C136.212 77.2188 136.043 77.977 136.043 78.7887V85.589H133.677V72.4479H136.043ZM157.94 72.4479V74.3088C158.323 73.6962 158.828 73.1831 159.456 72.7696C160.1 72.3407 160.919 72.1263 161.915 72.1263C162.879 72.1263 163.722 72.3713 164.442 72.8615C165.161 73.3516 165.682 74.0255 166.004 74.8832C166.402 74.0408 167.007 73.3745 167.819 72.8844C168.631 72.379 169.58 72.1263 170.668 72.1263C171.602 72.1263 172.429 72.356 173.149 72.8155C173.884 73.2597 174.458 73.8953 174.872 74.7223C175.285 75.5494 175.492 76.5066 175.492 77.5941V85.589H173.126V77.9846C173.126 76.8053 172.858 75.8787 172.322 75.2048C171.786 74.5309 171.05 74.1939 170.116 74.1939C169.473 74.1939 168.891 74.3854 168.37 74.7683C167.849 75.1512 167.444 75.6719 167.153 76.3305C166.862 76.9891 166.716 77.7166 166.716 78.513V85.589H164.35V78.0765C164.35 76.8512 164.082 75.9017 163.546 75.2278C163.01 74.5385 162.274 74.1939 161.34 74.1939C160.697 74.1939 160.115 74.3854 159.594 74.7683C159.089 75.1512 158.683 75.6719 158.377 76.3305C158.086 76.9891 157.94 77.7089 157.94 78.49V85.589H155.574V72.4479H157.94ZM184.766 85.9106C183.51 85.9106 182.377 85.6119 181.366 85.0146C180.37 84.4173 179.589 83.5979 179.022 82.5564C178.456 81.4996 178.172 80.3203 178.172 79.0184C178.172 77.7166 178.456 76.5449 179.022 75.5034C179.589 74.4466 180.37 73.6196 181.366 73.0223C182.377 72.425 183.51 72.1263 184.766 72.1263C186.022 72.1263 187.148 72.425 188.143 73.0223C189.154 73.6196 189.935 74.4466 190.486 75.5034C191.053 76.5449 191.336 77.7166 191.336 79.0184C191.336 79.4473 191.321 79.7689 191.291 79.9833H180.539C180.661 81.132 181.105 82.074 181.871 82.8091C182.652 83.5443 183.617 83.9119 184.766 83.9119C185.639 83.9119 186.405 83.7357 187.063 83.3835C187.737 83.0159 188.197 82.5564 188.442 82.005H190.854C190.486 83.1537 189.751 84.088 188.649 84.8078C187.546 85.543 186.252 85.9106 184.766 85.9106ZM189.016 78.0535C188.878 76.8895 188.426 75.9476 187.661 75.2278C186.895 74.4926 185.93 74.125 184.766 74.125C183.602 74.125 182.637 74.4926 181.871 75.2278C181.105 75.9476 180.661 76.8895 180.539 78.0535H189.016ZM196.708 72.4479V74.3088C197.091 73.6962 197.597 73.1831 198.225 72.7696C198.868 72.3407 199.687 72.1263 200.683 72.1263C201.648 72.1263 202.49 72.3713 203.21 72.8615C203.93 73.3516 204.451 74.0255 204.772 74.8832C205.17 74.0408 205.775 73.3745 206.587 72.8844C207.399 72.379 208.348 72.1263 209.436 72.1263C210.37 72.1263 211.197 72.356 211.917 72.8155C212.652 73.2597 213.227 73.8953 213.64 74.7223C214.054 75.5494 214.26 76.5066 214.26 77.5941V85.589H211.894V77.9846C211.894 76.8053 211.626 75.8787 211.09 75.2048C210.554 74.5309 209.819 74.1939 208.885 74.1939C208.241 74.1939 207.659 74.3854 207.139 74.7683C206.618 75.1512 206.212 75.6719 205.921 76.3305C205.63 76.9891 205.484 77.7166 205.484 78.513V85.589H203.118V78.0765C203.118 76.8512 202.85 75.9017 202.314 75.2278C201.778 74.5385 201.043 74.1939 200.109 74.1939C199.465 74.1939 198.883 74.3854 198.363 74.7683C197.857 75.1512 197.451 75.6719 197.145 76.3305C196.854 76.9891 196.708 77.7089 196.708 78.49V85.589H194.342V72.4479H196.708ZM223.672 72.1263C224.943 72.1263 226.092 72.425 227.118 73.0223C228.144 73.6196 228.941 74.4466 229.507 75.5034C230.089 76.5449 230.38 77.7166 230.38 79.0184C230.38 80.3203 230.089 81.4996 229.507 82.5564C228.941 83.5979 228.144 84.4173 227.118 85.0146C226.092 85.6119 224.943 85.9106 223.672 85.9106C222.386 85.9106 221.229 85.6119 220.203 85.0146C219.192 84.4173 218.396 83.5979 217.814 82.5564C217.232 81.4996 216.941 80.3203 216.941 79.0184C216.941 77.7166 217.232 76.5449 217.814 75.5034C218.396 74.4466 219.192 73.6196 220.203 73.0223C221.229 72.425 222.386 72.1263 223.672 72.1263ZM223.672 74.2169C222.814 74.2169 222.049 74.4313 221.375 74.8602C220.716 75.2737 220.195 75.8481 219.813 76.5832C219.445 77.3031 219.261 78.1148 219.261 79.0184C219.261 79.9221 219.445 80.7415 219.813 81.4766C220.195 82.1965 220.716 82.7708 221.375 83.1997C222.049 83.6132 222.814 83.82 223.672 83.82C224.514 83.82 225.273 83.6132 225.947 83.1997C226.62 82.7708 227.141 82.1965 227.509 81.4766C227.876 80.7415 228.06 79.9221 228.06 79.0184C228.06 78.1148 227.876 77.3031 227.509 76.5832C227.141 75.8481 226.62 75.2737 225.947 74.8602C225.273 74.4313 224.514 74.2169 223.672 74.2169ZM235.768 72.4479V74.4696C236.121 73.8723 236.703 73.3362 237.514 72.8615C238.341 72.3713 239.337 72.1263 240.501 72.1263C241.251 72.1263 241.849 72.2029 242.293 72.356V74.6075C241.757 74.3624 241.106 74.2399 240.34 74.2399C239.467 74.2399 238.678 74.4543 237.974 74.8832C237.285 75.2967 236.741 75.8557 236.343 76.5602C235.96 77.2495 235.768 77.9923 235.768 78.7887V85.589H233.402V72.4479H235.768ZM257.135 72.4479L248.933 91.1716H246.544L249.14 85.3133L243.511 72.4479H246.107L250.334 82.7861L254.676 72.4479H257.135ZM271.746 85.9106C270.52 85.9106 269.41 85.6119 268.415 85.0146C267.434 84.4173 266.661 83.5902 266.094 82.5334C265.528 81.4766 265.244 80.305 265.244 79.0184C265.244 77.7319 265.528 76.5602 266.094 75.5034C266.661 74.4466 267.434 73.6196 268.415 73.0223C269.41 72.425 270.52 72.1263 271.746 72.1263C272.864 72.1263 273.829 72.3484 274.64 72.7925C275.452 73.2367 276.042 73.7727 276.409 74.4007V72.4479H278.776V85.589H276.409V83.6362C276.042 84.2641 275.452 84.8002 274.64 85.2443C273.829 85.6885 272.864 85.9106 271.746 85.9106ZM271.953 83.82C272.826 83.82 273.599 83.6132 274.273 83.1997C274.962 82.7708 275.498 82.1965 275.881 81.4766C276.264 80.7415 276.455 79.9221 276.455 79.0184C276.455 78.1148 276.264 77.3031 275.881 76.5832C275.498 75.8481 274.962 75.2737 274.273 74.8602C273.599 74.4313 272.826 74.2169 271.953 74.2169C271.095 74.2169 270.329 74.4237 269.655 74.8372C268.997 75.2507 268.483 75.8251 268.116 76.5602C267.748 77.2954 267.565 78.1148 267.565 79.0184C267.565 79.9221 267.748 80.7415 268.116 81.4766C268.483 82.2118 268.997 82.7861 269.655 83.1997C270.329 83.6132 271.095 83.82 271.953 83.82ZM284.857 72.4479V74.4696C285.209 73.8723 285.791 73.3362 286.603 72.8615C287.43 72.3713 288.426 72.1263 289.59 72.1263C290.34 72.1263 290.937 72.2029 291.382 72.356V74.6075C290.846 74.3624 290.195 74.2399 289.429 74.2399C288.556 74.2399 287.767 74.4543 287.062 74.8832C286.373 75.2967 285.83 75.8557 285.431 76.5602C285.048 77.2495 284.857 77.9923 284.857 78.7887V85.589H282.491V72.4479H284.857ZM298.94 85.9106C297.684 85.9106 296.55 85.6119 295.539 85.0146C294.544 84.4173 293.763 83.5979 293.196 82.5564C292.629 81.4996 292.346 80.3203 292.346 79.0184C292.346 77.7166 292.629 76.5449 293.196 75.5034C293.763 74.4466 294.544 73.6196 295.539 73.0223C296.55 72.425 297.684 72.1263 298.94 72.1263C300.195 72.1263 301.321 72.425 302.317 73.0223C303.328 73.6196 304.109 74.4466 304.66 75.5034C305.227 76.5449 305.51 77.7166 305.51 79.0184C305.51 79.4473 305.495 79.7689 305.464 79.9833H294.712C294.835 81.132 295.279 82.074 296.045 82.8091C296.826 83.5443 297.791 83.9119 298.94 83.9119C299.813 83.9119 300.578 83.7357 301.237 83.3835C301.911 83.0159 302.37 82.5564 302.615 82.005H305.028C304.66 83.1537 303.925 84.088 302.822 84.8078C301.719 85.543 300.425 85.9106 298.94 85.9106ZM303.19 78.0535C303.052 76.8895 302.6 75.9476 301.834 75.2278C301.069 74.4926 300.104 74.125 298.94 74.125C297.776 74.125 296.811 74.4926 296.045 75.2278C295.279 75.9476 294.835 76.8895 294.712 78.0535H303.19ZM33.772 107.589V88.6126H36.1383V107.589H33.772ZM45.7563 107.911C44.5004 107.911 43.367 107.612 42.3562 107.015C41.3606 106.417 40.5795 105.598 40.0128 104.556C39.4462 103.5 39.1628 102.32 39.1628 101.018C39.1628 99.7166 39.4462 98.5449 40.0128 97.5034C40.5795 96.4466 41.3606 95.6196 42.3562 95.0223C43.367 94.425 44.5004 94.1263 45.7563 94.1263C47.0122 94.1263 48.1379 94.425 49.1335 95.0223C50.1443 95.6196 50.9254 96.4466 51.4768 97.5034C52.0435 98.5449 52.3268 99.7166 52.3268 101.018C52.3268 101.447 52.3115 101.769 52.2809 101.983H41.5291C41.6516 103.132 42.0958 104.074 42.8616 104.809C43.6427 105.544 44.6076 105.912 45.7563 105.912C46.6293 105.912 47.3951 105.736 48.0537 105.383C48.7276 105.016 49.1871 104.556 49.4321 104.005H51.8444C51.4768 105.154 50.7416 106.088 49.6389 106.808C48.5361 107.543 47.2419 107.911 45.7563 107.911ZM50.0065 100.054C49.8686 98.8895 49.4168 97.9476 48.651 97.2278C47.8852 96.4926 46.9203 96.125 45.7563 96.125C44.5923 96.125 43.6274 96.4926 42.8616 97.2278C42.0958 97.9476 41.6516 98.8895 41.5291 100.054H50.0065ZM61.5226 96.5385H58.605V107.589H56.2387V96.5385H53.6426V94.4479H56.2387V92.2195C56.2387 91.1014 56.545 90.2054 57.1576 89.5315C57.7856 88.8576 58.6509 88.5207 59.7536 88.5207C60.3663 88.5207 60.8794 88.5666 61.2929 88.6585V90.6572C61.0785 90.6113 60.7032 90.5883 60.1672 90.5883C59.6771 90.5883 59.2942 90.7415 59.0185 91.0478C58.7428 91.3388 58.605 91.7523 58.605 92.2884V94.4479H61.5226V96.5385ZM70.9295 96.5385H68.0119V107.589H65.6455V96.5385H62.7279V94.4479H65.6455V90.4505H68.0119V94.4479H70.9295V96.5385ZM86.8394 107.911C85.7214 107.911 84.7565 107.689 83.9447 107.244C83.133 106.8 82.5433 106.264 82.1757 105.636V107.589H79.8094V88.6126H82.1757V96.4007C82.5433 95.7727 83.133 95.2367 83.9447 94.7925C84.7565 94.3484 85.7214 94.1263 86.8394 94.1263C88.0647 94.1263 89.1675 94.425 90.1477 95.0223C91.1432 95.6196 91.9243 96.4466 92.491 97.5034C93.0577 98.5602 93.341 99.7319 93.341 101.018C93.341 102.305 93.0577 103.477 92.491 104.533C91.9243 105.59 91.1432 106.417 90.1477 107.015C89.1675 107.612 88.0647 107.911 86.8394 107.911ZM86.6327 105.82C87.4904 105.82 88.2485 105.613 88.9071 105.2C89.581 104.786 90.1017 104.212 90.4693 103.477C90.8369 102.741 91.0207 101.922 91.0207 101.018C91.0207 100.115 90.8369 99.2954 90.4693 98.5602C90.1017 97.8251 89.581 97.2507 88.9071 96.8372C88.2485 96.4237 87.4904 96.2169 86.6327 96.2169C85.7597 96.2169 84.9786 96.4313 84.2893 96.8602C83.6154 97.2737 83.087 97.8481 82.7041 98.5832C82.3212 99.3031 82.1298 100.115 82.1298 101.018C82.1298 101.922 82.3212 102.741 82.7041 103.477C83.087 104.196 83.6154 104.771 84.2893 105.2C84.9786 105.613 85.7597 105.82 86.6327 105.82ZM102.271 107.911C101.015 107.911 99.8818 107.612 98.8709 107.015C97.8754 106.417 97.0943 105.598 96.5276 104.556C95.9609 103.5 95.6775 102.32 95.6775 101.018C95.6775 99.7166 95.9609 98.5449 96.5276 97.5034C97.0943 96.4466 97.8754 95.6196 98.8709 95.0223C99.8818 94.425 101.015 94.1263 102.271 94.1263C103.527 94.1263 104.653 94.425 105.648 95.0223C106.659 95.6196 107.44 96.4466 107.992 97.5034C108.558 98.5449 108.842 99.7166 108.842 101.018C108.842 101.447 108.826 101.769 108.796 101.983H98.0438C98.1664 103.132 98.6105 104.074 99.3763 104.809C100.157 105.544 101.122 105.912 102.271 105.912C103.144 105.912 103.91 105.736 104.568 105.383C105.242 105.016 105.702 104.556 105.947 104.005H108.359C107.992 105.154 107.256 106.088 106.154 106.808C105.051 107.543 103.757 107.911 102.271 107.911ZM106.521 100.054C106.383 98.8895 105.932 97.9476 105.166 97.2278C104.4 96.4926 103.435 96.125 102.271 96.125C101.107 96.125 100.142 96.4926 99.3763 97.2278C98.6105 97.9476 98.1664 98.8895 98.0438 100.054H106.521ZM114.213 88.6126V96.4466C114.55 95.8493 115.102 95.3133 115.868 94.8385C116.649 94.3637 117.583 94.1263 118.67 94.1263C119.697 94.1263 120.608 94.3637 121.404 94.8385C122.216 95.3133 122.844 95.9872 123.288 96.8602C123.732 97.7179 123.954 98.7287 123.954 99.8927V107.589H121.588V100.306C121.588 98.9891 121.282 97.9782 120.669 97.2737C120.072 96.5539 119.237 96.1939 118.165 96.1939C117.414 96.1939 116.741 96.4084 116.143 96.8372C115.546 97.2507 115.071 97.8098 114.719 98.5143C114.382 99.2188 114.213 99.977 114.213 100.789V107.589H111.847V88.6126H114.213ZM128.544 88.3828C129.004 88.3828 129.379 88.536 129.67 88.8423C129.976 89.1333 130.129 89.5009 130.129 89.9451C130.129 90.3892 129.976 90.7645 129.67 91.0708C129.379 91.3618 129.004 91.5073 128.544 91.5073C128.1 91.5073 127.725 91.3618 127.418 91.0708C127.127 90.7645 126.982 90.3892 126.982 89.9451C126.982 89.5009 127.127 89.1333 127.418 88.8423C127.725 88.536 128.1 88.3828 128.544 88.3828ZM127.372 107.612V94.4479H129.739V107.612H127.372ZM135.819 94.4479V96.4466C136.156 95.8493 136.707 95.3133 137.473 94.8385C138.254 94.3637 139.188 94.1263 140.276 94.1263C141.302 94.1263 142.213 94.3637 143.01 94.8385C143.821 95.3133 144.449 95.9872 144.893 96.8602C145.338 97.7179 145.56 98.7287 145.56 99.8927V107.589H143.193V100.306C143.193 98.9891 142.887 97.9782 142.274 97.2737C141.677 96.5539 140.842 96.1939 139.77 96.1939C139.02 96.1939 138.346 96.4084 137.749 96.8372C137.151 97.2507 136.676 97.8098 136.324 98.5143C135.987 99.2188 135.819 99.977 135.819 100.789V107.589H133.452V94.4479H135.819ZM154.723 107.911C153.498 107.911 152.387 107.612 151.392 107.015C150.411 106.417 149.638 105.59 149.071 104.533C148.505 103.477 148.221 102.305 148.221 101.018C148.221 99.7319 148.505 98.5602 149.071 97.5034C149.638 96.4466 150.411 95.6196 151.392 95.0223C152.387 94.425 153.498 94.1263 154.723 94.1263C155.841 94.1263 156.806 94.3484 157.618 94.7925C158.429 95.2367 159.019 95.7727 159.386 96.4007V88.6126H161.753V107.589H159.386V105.636C159.019 106.264 158.429 106.8 157.618 107.244C156.806 107.689 155.841 107.911 154.723 107.911ZM154.93 105.82C155.803 105.82 156.576 105.613 157.25 105.2C157.939 104.771 158.475 104.196 158.858 103.477C159.241 102.741 159.432 101.922 159.432 101.018C159.432 100.115 159.241 99.3031 158.858 98.5832C158.475 97.8481 157.939 97.2737 157.25 96.8602C156.576 96.4313 155.803 96.2169 154.93 96.2169C154.072 96.2169 153.306 96.4237 152.632 96.8372C151.974 97.2507 151.461 97.8251 151.093 98.5602C150.725 99.2954 150.542 100.115 150.542 101.018C150.542 101.922 150.725 102.741 151.093 103.477C151.461 104.212 151.974 104.786 152.632 105.2C153.306 105.613 154.072 105.82 154.93 105.82ZM177.719 107.911C176.494 107.911 175.383 107.612 174.388 107.015C173.408 106.417 172.634 105.59 172.068 104.533C171.501 103.477 171.217 102.305 171.217 101.018C171.217 99.7319 171.501 98.5602 172.068 97.5034C172.634 96.4466 173.408 95.6196 174.388 95.0223C175.383 94.425 176.494 94.1263 177.719 94.1263C178.837 94.1263 179.802 94.3484 180.614 94.7925C181.426 95.2367 182.015 95.7727 182.383 96.4007V94.4479H184.749V107.589H182.383V105.636C182.015 106.264 181.426 106.8 180.614 107.244C179.802 107.689 178.837 107.911 177.719 107.911ZM177.926 105.82C178.799 105.82 179.572 105.613 180.246 105.2C180.935 104.771 181.471 104.196 181.854 103.477C182.237 102.741 182.429 101.922 182.429 101.018C182.429 100.115 182.237 99.3031 181.854 98.5832C181.471 97.8481 180.935 97.2737 180.246 96.8602C179.572 96.4313 178.799 96.2169 177.926 96.2169C177.068 96.2169 176.302 96.4237 175.628 96.8372C174.97 97.2507 174.457 97.8251 174.089 98.5602C173.722 99.2954 173.538 100.115 173.538 101.018C173.538 101.922 173.722 102.741 174.089 103.477C174.457 104.212 174.97 104.786 175.628 105.2C176.302 105.613 177.068 105.82 177.926 105.82ZM193.633 94.1263C194.69 94.1263 195.647 94.2948 196.505 94.6317C197.363 94.9533 198.044 95.4052 198.55 95.9872C199.07 96.5539 199.346 97.2048 199.377 97.9399H197.056C197.01 97.3886 196.658 96.9368 195.999 96.5845C195.341 96.2322 194.529 96.0561 193.564 96.0561C192.615 96.0561 191.826 96.2246 191.198 96.5615C190.585 96.8985 190.279 97.312 190.279 97.8021C190.279 98.3688 190.562 98.8206 191.129 99.1576C191.711 99.4945 192.775 99.7702 194.322 99.9846C196.237 100.245 197.608 100.689 198.435 101.317C199.262 101.945 199.675 102.787 199.675 103.844C199.675 104.671 199.407 105.391 198.871 106.004C198.35 106.616 197.638 107.084 196.735 107.405C195.831 107.742 194.828 107.911 193.725 107.911C192.576 107.911 191.565 107.734 190.692 107.382C189.819 107.045 189.13 106.57 188.625 105.958C188.135 105.36 187.859 104.679 187.798 103.913H190.118C190.195 104.48 190.547 104.97 191.175 105.383C191.818 105.782 192.691 105.981 193.794 105.981C194.82 105.981 195.67 105.797 196.344 105.429C197.018 105.047 197.355 104.564 197.355 103.982C197.355 103.431 197.041 102.994 196.413 102.673C195.8 102.336 194.728 102.068 193.197 101.868C191.389 101.623 190.065 101.195 189.222 100.582C188.38 99.954 187.959 99.0733 187.959 97.9399C187.959 97.1895 188.204 96.5232 188.694 95.9412C189.199 95.3592 189.881 94.9151 190.738 94.6087C191.596 94.2871 192.561 94.1263 193.633 94.1263ZM215.147 94.1263C216.418 94.1263 217.567 94.425 218.593 95.0223C219.619 95.6196 220.415 96.4466 220.982 97.5034C221.564 98.5449 221.855 99.7166 221.855 101.018C221.855 102.32 221.564 103.5 220.982 104.556C220.415 105.598 219.619 106.417 218.593 107.015C217.567 107.612 216.418 107.911 215.147 107.911C213.86 107.911 212.704 107.612 211.678 107.015C210.667 106.417 209.87 105.598 209.288 104.556C208.706 103.5 208.415 102.32 208.415 101.018C208.415 99.7166 208.706 98.5449 209.288 97.5034C209.87 96.4466 210.667 95.6196 211.678 95.0223C212.704 94.425 213.86 94.1263 215.147 94.1263ZM215.147 96.2169C214.289 96.2169 213.523 96.4313 212.849 96.8602C212.191 97.2737 211.67 97.8481 211.287 98.5832C210.919 99.3031 210.736 100.115 210.736 101.018C210.736 101.922 210.919 102.741 211.287 103.477C211.67 104.196 212.191 104.771 212.849 105.2C213.523 105.613 214.289 105.82 215.147 105.82C215.989 105.82 216.747 105.613 217.421 105.2C218.095 104.771 218.616 104.196 218.983 103.477C219.351 102.741 219.535 101.922 219.535 101.018C219.535 100.115 219.351 99.3031 218.983 98.5832C218.616 97.8481 218.095 97.2737 217.421 96.8602C216.747 96.4313 215.989 96.2169 215.147 96.2169ZM231.907 107.911C230.789 107.911 229.824 107.689 229.012 107.244C228.2 106.8 227.611 106.264 227.243 105.636V107.589H224.877V88.6126H227.243V96.4007C227.611 95.7727 228.2 95.2367 229.012 94.7925C229.824 94.3484 230.789 94.1263 231.907 94.1263C233.132 94.1263 234.235 94.425 235.215 95.0223C236.21 95.6196 236.991 96.4466 237.558 97.5034C238.125 98.5602 238.408 99.7319 238.408 101.018C238.408 102.305 238.125 103.477 237.558 104.533C236.991 105.59 236.21 106.417 235.215 107.015C234.235 107.612 233.132 107.911 231.907 107.911ZM231.7 105.82C232.558 105.82 233.316 105.613 233.974 105.2C234.648 104.786 235.169 104.212 235.536 103.477C235.904 102.741 236.088 101.922 236.088 101.018C236.088 100.115 235.904 99.2954 235.536 98.5602C235.169 97.8251 234.648 97.2507 233.974 96.8372C233.316 96.4237 232.558 96.2169 231.7 96.2169C230.827 96.2169 230.046 96.4313 229.357 96.8602C228.683 97.2737 228.154 97.8481 227.771 98.5832C227.388 99.3031 227.197 100.115 227.197 101.018C227.197 101.922 227.388 102.741 227.771 103.477C228.154 104.196 228.683 104.771 229.357 105.2C230.046 105.613 230.827 105.82 231.7 105.82ZM242.606 91.5073C242.161 91.5073 241.786 91.3618 241.48 91.0708C241.189 90.7645 241.043 90.3892 241.043 89.9451C241.043 89.5009 241.189 89.1333 241.48 88.8423C241.786 88.536 242.161 88.3828 242.606 88.3828C243.065 88.3828 243.44 88.536 243.731 88.8423C244.038 89.1333 244.191 89.5009 244.191 89.9451C244.191 90.3892 244.038 90.7645 243.731 91.0708C243.44 91.3618 243.065 91.5073 242.606 91.5073ZM240.423 113.309C239.826 113.309 239.259 113.248 238.723 113.126V111.081C239.106 111.188 239.535 111.242 240.01 111.242C240.454 111.242 240.798 111.104 241.043 110.828C241.304 110.553 241.434 110.154 241.434 109.634V94.4479H243.8V109.748C243.8 110.821 243.494 111.678 242.881 112.322C242.284 112.98 241.465 113.309 240.423 113.309ZM253.418 107.911C252.162 107.911 251.029 107.612 250.018 107.015C249.023 106.417 248.241 105.598 247.675 104.556C247.108 103.5 246.825 102.32 246.825 101.018C246.825 99.7166 247.108 98.5449 247.675 97.5034C248.241 96.4466 249.023 95.6196 250.018 95.0223C251.029 94.425 252.162 94.1263 253.418 94.1263C254.674 94.1263 255.8 94.425 256.795 95.0223C257.806 95.6196 258.587 96.4466 259.139 97.5034C259.705 98.5449 259.989 99.7166 259.989 101.018C259.989 101.447 259.973 101.769 259.943 101.983H249.191C249.314 103.132 249.758 104.074 250.523 104.809C251.305 105.544 252.27 105.912 253.418 105.912C254.291 105.912 255.057 105.736 255.716 105.383C256.389 105.016 256.849 104.556 257.094 104.005H259.506C259.139 105.154 258.404 106.088 257.301 106.808C256.198 107.543 254.904 107.911 253.418 107.911ZM257.668 100.054C257.531 98.8895 257.079 97.9476 256.313 97.2278C255.547 96.4926 254.582 96.125 253.418 96.125C252.254 96.125 251.289 96.4926 250.523 97.2278C249.758 97.9476 249.314 98.8895 249.191 100.054H257.668ZM275.239 103.132C274.887 104.572 274.144 105.728 273.011 106.601C271.893 107.474 270.576 107.911 269.059 107.911C267.773 107.911 266.617 107.612 265.59 107.015C264.564 106.417 263.76 105.598 263.178 104.556C262.596 103.5 262.305 102.32 262.305 101.018C262.305 99.7166 262.588 98.5449 263.155 97.5034C263.737 96.4466 264.541 95.6196 265.567 95.0223C266.594 94.425 267.742 94.1263 269.014 94.1263C270.024 94.1263 270.959 94.3331 271.816 94.7466C272.689 95.1448 273.417 95.7038 273.999 96.4237C274.581 97.1435 274.979 97.9553 275.193 98.8589H272.781C272.506 98.0625 272.038 97.4269 271.38 96.9521C270.721 96.462 269.932 96.2169 269.014 96.2169C268.156 96.2169 267.39 96.4313 266.716 96.8602C266.058 97.2737 265.544 97.8481 265.177 98.5832C264.809 99.3031 264.626 100.115 264.626 101.018C264.626 101.922 264.809 102.741 265.177 103.477C265.544 104.196 266.058 104.771 266.716 105.2C267.39 105.613 268.156 105.82 269.014 105.82C269.932 105.82 270.729 105.575 271.403 105.085C272.077 104.595 272.551 103.944 272.827 103.132H275.239ZM284.604 96.5385H281.686V107.589H279.32V96.5385H276.402V94.4479H279.32V90.4505H281.686V94.4479H284.604V96.5385ZM292.08 94.1263C293.136 94.1263 294.094 94.2948 294.951 94.6317C295.809 94.9533 296.491 95.4052 296.996 95.9872C297.517 96.5539 297.792 97.2048 297.823 97.9399H295.503C295.457 97.3886 295.104 96.9368 294.446 96.5845C293.787 96.2322 292.976 96.0561 292.011 96.0561C291.061 96.0561 290.272 96.2246 289.644 96.5615C289.032 96.8985 288.725 97.312 288.725 97.8021C288.725 98.3688 289.009 98.8206 289.575 99.1576C290.157 99.4945 291.222 99.7702 292.769 99.9846C294.683 100.245 296.054 100.689 296.881 101.317C297.708 101.945 298.122 102.787 298.122 103.844C298.122 104.671 297.854 105.391 297.318 106.004C296.797 106.616 296.085 107.084 295.181 107.405C294.277 107.742 293.274 107.911 292.171 107.911C291.023 107.911 290.012 107.734 289.139 107.382C288.266 107.045 287.577 106.57 287.071 105.958C286.581 105.36 286.305 104.679 286.244 103.913H288.565C288.641 104.48 288.993 104.97 289.621 105.383C290.265 105.782 291.138 105.981 292.24 105.981C293.267 105.981 294.117 105.797 294.79 105.429C295.464 105.047 295.801 104.564 295.801 103.982C295.801 103.431 295.487 102.994 294.859 102.673C294.247 102.336 293.175 102.068 291.643 101.868C289.836 101.623 288.511 101.195 287.669 100.582C286.826 99.954 286.405 99.0733 286.405 97.9399C286.405 97.1895 286.65 96.5232 287.14 95.9412C287.646 95.3592 288.327 94.9151 289.185 94.6087C290.043 94.2871 291.007 94.1263 292.08 94.1263ZM302.215 107.888C301.755 107.888 301.365 107.727 301.043 107.405C300.737 107.099 300.584 106.716 300.584 106.256C300.584 105.797 300.737 105.414 301.043 105.108C301.365 104.786 301.755 104.625 302.215 104.625C302.674 104.625 303.057 104.786 303.364 105.108C303.67 105.414 303.823 105.797 303.823 106.256C303.823 106.716 303.67 107.099 303.364 107.405C303.057 107.727 302.674 107.888 302.215 107.888ZM308.667 90.9789C308.667 91.8978 308.406 92.6943 307.886 93.3682C307.38 94.0267 306.691 94.4403 305.818 94.6087V93.3222C306.844 93.0465 307.357 92.3114 307.357 91.1167H306.048V88.4518H308.667V90.9789ZM312.205 90.9789C312.205 91.8978 311.944 92.6943 311.424 93.3682C310.918 94.0267 310.229 94.4403 309.356 94.6087V93.3222C310.382 93.0465 310.895 92.3114 310.895 91.1167H309.586V88.4518H312.205V90.9789Z" fill="#1A1A1A"/>
<path d="M40.5509 24.0261V39.051H49.9013V42.7498H36.3697V24.0261H40.5509ZM57.6609 43.0714C56.3897 43.0714 55.2563 42.7651 54.2607 42.1525C53.2652 41.5551 52.4918 40.7204 51.9404 39.6483C51.389 38.5762 51.1133 37.3662 51.1133 36.0184C51.1133 34.6706 51.389 33.4607 51.9404 32.3886C52.4918 31.3165 53.2652 30.4817 54.2607 29.8844C55.2563 29.2718 56.3897 28.9655 57.6609 28.9655C59.3916 28.9655 60.6781 29.5322 61.5205 30.6655V29.2871H65.6098V42.7498H61.5205V41.3713C60.6781 42.5047 59.3916 43.0714 57.6609 43.0714ZM58.3041 39.5794C59.2997 39.5794 60.0961 39.2501 60.6934 38.5915C61.2907 37.9176 61.5894 37.0599 61.5894 36.0184C61.5894 34.977 61.2907 34.1269 60.6934 33.4683C60.0961 32.7944 59.2997 32.4575 58.3041 32.4575C57.3392 32.4575 56.5658 32.7944 55.9838 33.4683C55.4018 34.1269 55.1108 34.977 55.1108 36.0184C55.1108 37.0599 55.4018 37.9176 55.9838 38.5915C56.5658 39.2501 57.3392 39.5794 58.3041 39.5794ZM68.6964 29.2871H72.7857V30.6655C73.6281 29.5322 74.884 28.9655 76.5534 28.9655C77.5949 28.9655 78.5139 29.2105 79.3103 29.7006C80.1067 30.1754 80.7194 30.8646 81.1482 31.7683C81.5924 32.6719 81.8144 33.7364 81.8144 34.9616V42.7498H77.7251V35.6509C77.7251 34.6247 77.5183 33.8436 77.1048 33.3075C76.7066 32.7562 76.1246 32.4805 75.3588 32.4805C74.5624 32.4805 73.9344 32.7791 73.4749 33.3765C73.0155 33.9738 72.7857 34.7932 72.7857 35.8347V42.7498H68.6964V29.2871ZM91.4498 48.677C90.1633 48.677 89.0452 48.4549 88.0956 48.0108C87.1614 47.5819 86.4185 46.9999 85.8672 46.2648C85.3158 45.5296 84.9635 44.7102 84.8104 43.8066H88.9457C89.1754 44.7562 90.0101 45.2309 91.4498 45.2309C92.3075 45.2309 92.9967 44.9782 93.5175 44.4728C94.0382 43.9674 94.2986 43.2935 94.2986 42.4511V41.0267C93.4562 42.1601 92.1697 42.7268 90.439 42.7268C89.1677 42.7268 88.0344 42.4358 87.0388 41.8538C86.0433 41.2718 85.2699 40.46 84.7185 39.4186C84.1671 38.3771 83.8914 37.2054 83.8914 35.9036C83.8914 34.5711 84.1671 33.3841 84.7185 32.3426C85.2699 31.2858 86.0433 30.4588 87.0388 29.8615C88.0344 29.2641 89.1677 28.9655 90.439 28.9655C92.1697 28.9655 93.4562 29.5322 94.2986 30.6655V29.2871H98.3879V42.4971C98.3879 43.6917 98.0892 44.7562 97.4919 45.6904C96.8946 46.64 96.0676 47.3752 95.0108 47.8959C93.9693 48.4167 92.7823 48.677 91.4498 48.677ZM91.0822 39.3496C92.0778 39.3496 92.8742 39.028 93.4715 38.3847C94.0688 37.7415 94.3675 36.9144 94.3675 35.9036C94.3675 34.8927 94.0688 34.0657 93.4715 33.4224C92.8742 32.7791 92.0778 32.4575 91.0822 32.4575C90.1173 32.4575 89.3439 32.7791 88.7619 33.4224C88.1799 34.0657 87.8889 34.8927 87.8889 35.9036C87.8889 36.9144 88.1799 37.7415 88.7619 38.3847C89.3439 39.028 90.1173 39.3496 91.0822 39.3496ZM106.529 43.0714C105.487 43.0714 104.568 42.8264 103.772 42.3362C102.975 41.8615 102.355 41.1722 101.911 40.2686C101.482 39.365 101.268 38.3005 101.268 37.0752V29.2871H105.357V36.386C105.357 37.4122 105.556 38.201 105.954 38.7523C106.368 39.2884 106.958 39.5564 107.723 39.5564C108.52 39.5564 109.148 39.2578 109.607 38.6604C110.067 38.0631 110.296 37.2437 110.296 36.2022V29.2871H114.386V42.7498H110.296V41.3713C109.454 42.5047 108.198 43.0714 106.529 43.0714ZM123.329 43.0714C122.058 43.0714 120.925 42.7651 119.929 42.1525C118.934 41.5551 118.16 40.7204 117.609 39.6483C117.057 38.5762 116.782 37.3662 116.782 36.0184C116.782 34.6706 117.057 33.4607 117.609 32.3886C118.16 31.3165 118.934 30.4817 119.929 29.8844C120.925 29.2718 122.058 28.9655 123.329 28.9655C125.06 28.9655 126.346 29.5322 127.189 30.6655V29.2871H131.278V42.7498H127.189V41.3713C126.346 42.5047 125.06 43.0714 123.329 43.0714ZM123.972 39.5794C124.968 39.5794 125.764 39.2501 126.362 38.5915C126.959 37.9176 127.258 37.0599 127.258 36.0184C127.258 34.977 126.959 34.1269 126.362 33.4683C125.764 32.7944 124.968 32.4575 123.972 32.4575C123.008 32.4575 122.234 32.7944 121.652 33.4683C121.07 34.1269 120.779 34.977 120.779 36.0184C120.779 37.0599 121.07 37.9176 121.652 38.5915C122.234 39.2501 123.008 39.5794 123.972 39.5794ZM141.234 48.677C139.947 48.677 138.829 48.4549 137.88 48.0108C136.945 47.5819 136.203 46.9999 135.651 46.2648C135.1 45.5296 134.748 44.7102 134.594 43.8066H138.73C138.96 44.7562 139.794 45.2309 141.234 45.2309C142.092 45.2309 142.781 44.9782 143.302 44.4728C143.822 43.9674 144.083 43.2935 144.083 42.4511V41.0267C143.24 42.1601 141.954 42.7268 140.223 42.7268C138.952 42.7268 137.818 42.4358 136.823 41.8538C135.827 41.2718 135.054 40.46 134.503 39.4186C133.951 38.3771 133.676 37.2054 133.676 35.9036C133.676 34.5711 133.951 33.3841 134.503 32.3426C135.054 31.2858 135.827 30.4588 136.823 29.8615C137.818 29.2641 138.952 28.9655 140.223 28.9655C141.954 28.9655 143.24 29.5322 144.083 30.6655V29.2871H148.172V42.4971C148.172 43.6917 147.873 44.7562 147.276 45.6904C146.679 46.64 145.852 47.3752 144.795 47.8959C143.753 48.4167 142.566 48.677 141.234 48.677ZM140.866 39.3496C141.862 39.3496 142.658 39.028 143.256 38.3847C143.853 37.7415 144.152 36.9144 144.152 35.9036C144.152 34.8927 143.853 34.0657 143.256 33.4224C142.658 32.7791 141.862 32.4575 140.866 32.4575C139.901 32.4575 139.128 32.7791 138.546 33.4224C137.964 34.0657 137.673 34.8927 137.673 35.9036C137.673 36.9144 137.964 37.7415 138.546 38.3847C139.128 39.028 139.901 39.3496 140.866 39.3496ZM157.576 43.0714C156.229 43.0714 155.019 42.7651 153.947 42.1525C152.89 41.5551 152.063 40.7204 151.465 39.6483C150.868 38.5762 150.569 37.3662 150.569 36.0184C150.569 34.6706 150.868 33.4607 151.465 32.3886C152.063 31.3165 152.89 30.4817 153.947 29.8844C155.019 29.2718 156.229 28.9655 157.576 28.9655C158.924 28.9655 160.126 29.2718 161.183 29.8844C162.255 30.4817 163.09 31.3165 163.687 32.3886C164.285 33.4607 164.583 34.6706 164.583 36.0184C164.583 36.4626 164.553 36.8991 164.492 37.3279H154.636C154.789 38.1091 155.126 38.714 155.647 39.1429C156.167 39.5717 156.811 39.7861 157.576 39.7861C158.158 39.7861 158.671 39.6943 159.116 39.5105C159.575 39.3114 159.889 39.051 160.058 38.7294H164.17C163.94 39.587 163.511 40.3375 162.883 40.9808C162.255 41.6394 161.482 42.1525 160.563 42.52C159.644 42.8876 158.649 43.0714 157.576 43.0714ZM160.586 34.686C160.417 33.8742 160.073 33.2616 159.552 32.8481C159.031 32.4192 158.373 32.2048 157.576 32.2048C156.78 32.2048 156.129 32.4192 155.624 32.8481C155.118 33.2616 154.781 33.8742 154.613 34.686H160.586ZM179.88 28.9655C181.244 28.9655 182.469 29.2718 183.556 29.8844C184.644 30.4817 185.494 31.3165 186.106 32.3886C186.719 33.4607 187.025 34.6706 187.025 36.0184C187.025 37.3662 186.719 38.5762 186.106 39.6483C185.494 40.7204 184.644 41.5551 183.556 42.1525C182.469 42.7651 181.244 43.0714 179.88 43.0714C178.517 43.0714 177.292 42.7651 176.205 42.1525C175.117 41.5551 174.267 40.7204 173.654 39.6483C173.042 38.5762 172.736 37.3662 172.736 36.0184C172.736 34.6706 173.042 33.4607 173.654 32.3886C174.267 31.3165 175.117 30.4817 176.205 29.8844C177.292 29.2718 178.517 28.9655 179.88 28.9655ZM179.88 32.4575C178.931 32.4575 178.157 32.7944 177.56 33.4683C176.978 34.1269 176.687 34.977 176.687 36.0184C176.687 37.0599 176.978 37.9176 177.56 38.5915C178.157 39.2501 178.931 39.5794 179.88 39.5794C180.83 39.5794 181.596 39.2501 182.178 38.5915C182.775 37.9176 183.074 37.0599 183.074 36.0184C183.074 34.977 182.775 34.1269 182.178 33.4683C181.596 32.7944 180.83 32.4575 179.88 32.4575ZM197.053 32.8021H194.48V42.7498H190.391V32.8021H188.139V29.2871H190.391V27.9546C190.391 26.5915 190.797 25.4888 191.609 24.6464C192.42 23.7887 193.538 23.3599 194.963 23.3599C195.698 23.3599 196.318 23.4058 196.824 23.4977V26.9208C196.624 26.8902 196.272 26.8749 195.767 26.8749C195.369 26.8749 195.055 26.9974 194.825 27.2424C194.595 27.4722 194.48 27.7862 194.48 28.1844V29.2871H197.053V32.8021ZM213.184 32.8021H210.611V42.7498H206.522V32.8021H204.271V29.2871H206.522V27.9546C206.522 26.5915 206.928 25.4888 207.74 24.6464C208.551 23.7887 209.669 23.3599 211.094 23.3599C211.829 23.3599 212.449 23.4058 212.955 23.4977V26.9208C212.756 26.8902 212.403 26.8749 211.898 26.8749C211.5 26.8749 211.186 26.9974 210.956 27.2424C210.726 27.4722 210.611 27.7862 210.611 28.1844V29.2871H213.184V32.8021ZM219.132 42.7498H215.042V23.4518H219.132V42.7498ZM228.655 28.9655C230.018 28.9655 231.243 29.2718 232.331 29.8844C233.418 30.4817 234.268 31.3165 234.881 32.3886C235.493 33.4607 235.8 34.6706 235.8 36.0184C235.8 37.3662 235.493 38.5762 234.881 39.6483C234.268 40.7204 233.418 41.5551 232.331 42.1525C231.243 42.7651 230.018 43.0714 228.655 43.0714C227.292 43.0714 226.067 42.7651 224.979 42.1525C223.892 41.5551 223.042 40.7204 222.429 39.6483C221.816 38.5762 221.51 37.3662 221.51 36.0184C221.51 34.6706 221.816 33.4607 222.429 32.3886C223.042 31.3165 223.892 30.4817 224.979 29.8844C226.067 29.2718 227.292 28.9655 228.655 28.9655ZM228.655 32.4575C227.705 32.4575 226.932 32.7944 226.335 33.4683C225.753 34.1269 225.462 34.977 225.462 36.0184C225.462 37.0599 225.753 37.9176 226.335 38.5915C226.932 39.2501 227.705 39.5794 228.655 39.5794C229.604 39.5794 230.37 39.2501 230.952 38.5915C231.55 37.9176 231.848 37.0599 231.848 36.0184C231.848 34.977 231.55 34.1269 230.952 33.4683C230.37 32.7944 229.604 32.4575 228.655 32.4575ZM258.427 29.2871L253.924 42.7498H249.812L247.377 35.0535L244.965 42.7498H240.875L236.372 29.2871H240.691L243.081 37.9482L245.424 29.2871H249.605L251.972 37.9942L254.361 29.2871H258.427ZM266.007 43.0714C264.659 43.0714 263.449 42.7651 262.377 42.1525C261.32 41.5551 260.493 40.7204 259.896 39.6483C259.298 38.5762 259 37.3662 259 36.0184C259 34.6706 259.298 33.4607 259.896 32.3886C260.493 31.3165 261.32 30.4817 262.377 29.8844C263.449 29.2718 264.659 28.9655 266.007 28.9655C267.354 28.9655 268.557 29.2718 269.613 29.8844C270.686 30.4817 271.52 31.3165 272.118 32.3886C272.715 33.4607 273.014 34.6706 273.014 36.0184C273.014 36.4626 272.983 36.8991 272.922 37.3279H263.066C263.219 38.1091 263.556 38.714 264.077 39.1429C264.598 39.5717 265.241 39.7861 266.007 39.7861C266.589 39.7861 267.102 39.6943 267.546 39.5105C268.005 39.3114 268.319 39.051 268.488 38.7294H272.6C272.37 39.587 271.941 40.3375 271.314 40.9808C270.686 41.6394 269.912 42.1525 268.993 42.52C268.074 42.8876 267.079 43.0714 266.007 43.0714ZM269.016 34.686C268.848 33.8742 268.503 33.2616 267.982 32.8481C267.462 32.4192 266.803 32.2048 266.007 32.2048C265.21 32.2048 264.559 32.4192 264.054 32.8481C263.548 33.2616 263.211 33.8742 263.043 34.686H269.016ZM275.416 29.2871H279.505V30.6655C280.348 29.5322 281.604 28.9655 283.273 28.9655C284.008 28.9655 284.598 29.0421 285.042 29.1952L285.088 33.0318C284.506 32.7255 283.809 32.5724 282.997 32.5724C281.91 32.5724 281.052 32.8634 280.424 33.4454C279.812 34.0274 279.505 34.8315 279.505 35.8576V42.7498H275.416V29.2871ZM292.666 28.9655C293.784 28.9655 294.803 29.1493 295.722 29.5168C296.641 29.8691 297.376 30.3745 297.927 31.0331C298.479 31.6917 298.777 32.4575 298.823 33.3305H294.872C294.81 32.917 294.565 32.5953 294.136 32.3656C293.723 32.1205 293.21 31.998 292.597 31.998C291.985 31.998 291.471 32.0976 291.058 32.2967C290.66 32.4805 290.461 32.7255 290.461 33.0318C290.461 33.3535 290.698 33.6138 291.173 33.813C291.648 34.0121 292.475 34.2035 293.654 34.3873C295.599 34.6783 296.985 35.1608 297.812 35.8347C298.639 36.5085 299.053 37.4352 299.053 38.6145C299.053 39.5028 298.77 40.2839 298.203 40.9578C297.636 41.6317 296.87 42.1525 295.905 42.52C294.941 42.8876 293.884 43.0714 292.735 43.0714C291.571 43.0714 290.514 42.88 289.565 42.4971C288.63 42.1295 287.88 41.6011 287.313 40.9119C286.762 40.2227 286.463 39.4186 286.417 38.4996H290.369C290.43 38.9285 290.69 39.2807 291.15 39.5564C291.609 39.8168 292.161 39.947 292.804 39.947C293.463 39.947 294.006 39.8398 294.435 39.6253C294.864 39.4109 295.078 39.1505 295.078 38.8442C295.078 38.5226 294.826 38.2546 294.32 38.0401C293.815 37.8104 292.988 37.6113 291.839 37.4428C290.078 37.1824 288.745 36.7383 287.842 36.1103C286.953 35.4824 286.509 34.5251 286.509 33.2386C286.509 32.3809 286.777 31.6304 287.313 30.9872C287.865 30.3439 288.607 29.8461 289.542 29.4939C290.476 29.1416 291.517 28.9655 292.666 28.9655ZM303.301 38.3388C303.96 38.3388 304.504 38.5609 304.933 39.005C305.361 39.4339 305.576 39.9776 305.576 40.6362C305.576 41.2948 305.361 41.8385 304.933 42.2673C304.504 42.7115 303.96 42.9336 303.301 42.9336C302.643 42.9336 302.091 42.7115 301.647 42.2673C301.218 41.8385 301.004 41.2948 301.004 40.6362C301.004 39.9776 301.218 39.4339 301.647 39.005C302.091 38.5609 302.643 38.3388 303.301 38.3388Z" fill="#7095B9"/>
</svg>
