<svg width="158" height="86" viewBox="0 0 158 86" fill="none" xmlns="http://www.w3.org/2000/svg">
<path d="M0.680931 29.1138V0.0228596H10.8514C16.9309 0.0228596 19.7718 3.48877 19.7718 7.75013C19.7718 11.5001 17.5559 13.1479 15.0559 13.8297V14.1138C17.7264 14.2842 20.9082 16.7842 20.9082 21.3865C20.9082 25.7615 18.0673 29.1138 11.1923 29.1138H0.680931ZM4.20366 25.9888H11.1923C15.7946 25.9888 17.5559 23.9433 17.5559 21.3865C17.5559 18.432 15.1696 15.8751 11.3627 15.8751H4.20366V25.9888ZM4.20366 12.807H10.7377C13.9196 12.807 16.4196 10.8183 16.4196 7.75013C16.4196 5.19331 14.715 3.14786 10.8514 3.14786H4.20366V12.807ZM26.242 29.1138V7.29559H29.4806V10.591H29.7079C30.5034 8.43195 32.7761 6.95468 35.3897 6.95468C35.8869 6.95468 36.7676 6.98309 37.1511 7.0115V10.4206C36.9238 10.3638 36.0005 10.1933 35.1056 10.1933C31.9238 10.1933 29.5943 12.3524 29.5943 15.307V29.1138H26.242ZM47.5453 29.6251C43.3975 29.6251 40.1021 27.182 40.1021 22.9206C40.1021 17.9206 44.5197 17.0257 48.568 16.5001C52.5453 15.9888 54.193 16.1308 54.193 14.5115V14.3979C54.193 11.5996 52.6731 9.96604 49.5907 9.96604C46.3947 9.96604 44.6475 11.6706 43.9089 13.2615L40.7271 12.1251C42.4316 8.14786 46.1816 7.0115 49.4771 7.0115C52.2612 7.0115 57.5453 7.80695 57.5453 14.7388V29.1138H54.193V26.1592H54.0226C53.3407 27.5797 51.3521 29.6251 47.5453 29.6251ZM48.0566 26.6138C52.0339 26.6138 54.193 23.9433 54.193 21.216V18.1479C53.6248 18.8297 49.818 19.2274 48.3976 19.3979C45.7839 19.7388 43.4544 20.5342 43.4544 23.091C43.4544 25.4206 45.3862 26.6138 48.0566 26.6138ZM67.0162 15.9888V29.1138H63.6639V7.29559H66.9025V10.7047H67.1866C68.2093 8.48877 70.2548 7.0115 73.5502 7.0115C77.9679 7.0115 80.9366 9.68195 80.9366 15.2501V29.1138H77.5843V15.4774C77.5843 12.0541 75.6951 10.0229 72.5843 10.0229C69.3741 10.0229 67.0162 12.182 67.0162 15.9888ZM95.301 29.5683C89.8464 29.5683 86.0396 25.1933 86.0396 18.2615C86.0396 11.3865 89.8464 7.0115 95.3578 7.0115C99.6191 7.0115 100.926 9.62513 101.665 10.7615H101.949V0.0228596H105.301V29.1138H102.062V25.7615H101.665C100.926 26.9547 99.5055 29.5683 95.301 29.5683ZM95.7555 26.557C99.7896 26.557 102.006 23.1479 102.006 18.2047C102.006 13.3183 99.8464 10.0229 95.7555 10.0229C91.4941 10.0229 89.3919 13.6024 89.3919 18.2047C89.3919 22.8638 91.551 26.557 95.7555 26.557ZM0.680931 77.1138V48.0229H4.20366V62.4547H4.54457L17.6127 48.0229H22.215L9.99911 61.1479L22.215 77.1138H17.9537L7.84002 63.591L4.20366 67.682V77.1138H0.680931ZM33.8663 77.5683C27.5595 77.5683 23.6958 73.0797 23.6958 66.3751C23.6958 59.6706 27.6163 55.0115 33.5254 55.0115C38.0708 55.0115 42.9004 57.7956 42.9004 65.9206V67.341H27.0623C27.2186 72.0143 29.9316 74.557 33.8663 74.557C36.4941 74.557 38.4686 73.4206 39.3208 71.1479L42.5595 72.057C41.5368 75.3524 38.2981 77.5683 33.8663 77.5683ZM27.0623 64.4433H39.4913C39.4913 60.7501 37.1618 58.0229 33.5254 58.0229C29.6902 58.0229 27.2896 61.0484 27.0623 64.4433ZM49.4949 85.2956C48.3585 85.2956 47.3926 85.0683 47.0517 84.8979L47.9039 81.9433C48.5431 82.0996 49.1113 82.199 49.6227 82.199C51.1142 82.199 52.1653 81.3893 53.0744 78.932L53.6994 77.2274L45.6312 55.2956H49.2676L55.2903 72.682H55.5176L61.5403 55.2956H65.1767L55.9153 80.2956C54.6511 83.6905 52.5204 85.2956 49.4949 85.2956ZM74.5446 77.1138L67.8968 55.2956H71.4196L76.1355 72.0001H76.3627L81.0218 55.2956H84.6014L89.2037 71.9433H89.4309L94.1468 55.2956H97.6696L91.0218 77.1138H87.7264L82.9537 60.3524H82.6127L77.84 77.1138H74.5446ZM110.223 77.5683C104.314 77.5683 100.336 73.0797 100.336 66.3183C100.336 59.5001 104.314 55.0115 110.223 55.0115C116.132 55.0115 120.109 59.5001 120.109 66.3183C120.109 73.0797 116.132 77.5683 110.223 77.5683ZM110.223 74.557C114.711 74.557 116.757 70.6933 116.757 66.3183C116.757 61.9433 114.711 58.0229 110.223 58.0229C105.734 58.0229 103.689 61.9433 103.689 66.3183C103.689 70.6933 105.734 74.557 110.223 74.557ZM125.226 77.1138V55.2956H128.465V58.591H128.692C129.488 56.4319 131.76 54.9547 134.374 54.9547C134.871 54.9547 135.752 54.9831 136.135 55.0115V58.4206C135.908 58.3638 134.985 58.1933 134.09 58.1933C130.908 58.1933 128.579 60.3524 128.579 63.307V77.1138H125.226ZM147.684 77.5683C142.229 77.5683 138.422 73.1933 138.422 66.2615C138.422 59.3865 142.229 55.0115 147.741 55.0115C152.002 55.0115 153.309 57.6251 154.047 58.7615H154.331V48.0229H157.684V77.1138H154.445V73.7615H154.047C153.309 74.9547 151.888 77.5683 147.684 77.5683ZM148.138 74.557C152.172 74.557 154.388 71.1479 154.388 66.2047C154.388 61.3183 152.229 58.0229 148.138 58.0229C143.877 58.0229 141.775 61.6024 141.775 66.2047C141.775 70.8638 143.934 74.557 148.138 74.557Z" fill="#1A1A1A"/>
</svg>
