<svg width="280" height="75" viewBox="0 0 280 75" fill="none" xmlns="http://www.w3.org/2000/svg">
<path d="M11.3382 1.13525V4.61963H13.4632V5.44775H11.3382V8.99463H10.3538V1.13525H11.3382ZM7.58817 2.05713C7.58817 5.46338 5.10379 7.96338 1.04129 9.07275L0.63504 8.27588C4.11942 7.31494 6.29129 5.37744 6.54129 2.88525H1.22879V2.05713H7.58817ZM11.3382 9.6665V14.7134H2.68192V9.6665H11.3382ZM3.66629 10.5103V13.8853H10.3538V10.5103H3.66629ZM26.5913 1.13525V9.354H25.6069V5.63525H22.6225V4.80713H25.6069V1.13525H26.5913ZM22.06 9.82275C24.9038 9.82275 26.6382 10.7446 26.6382 12.354C26.6382 13.9634 24.9038 14.8853 22.06 14.9009C19.2163 14.8853 17.4819 13.9634 17.4975 12.354C17.4819 10.7446 19.2163 9.82275 22.06 9.82275ZM22.06 10.604C19.8569 10.604 18.4507 11.2759 18.4663 12.354C18.4507 13.4321 19.8569 14.0884 22.06 14.0884C24.2632 14.0884 25.6694 13.4321 25.6694 12.354C25.6694 11.2759 24.2632 10.604 22.06 10.604ZM19.8882 3.729C19.8882 5.58838 21.4038 7.30713 23.3569 7.979L22.8413 8.77588C21.2866 8.19775 20.0132 7.00244 19.435 5.52588C18.8413 7.20557 17.4819 8.5415 15.8413 9.18213L15.3257 8.38525C17.31 7.65088 18.9038 5.7915 18.9038 3.74463V3.02588H15.6694V2.19775H23.0757V3.02588H19.8882V3.729ZM37.4694 2.69775V3.2915C37.4538 4.32275 37.4538 6.18213 37.0475 8.82275L36.0632 8.74463C36.4538 6.32275 36.485 4.58838 36.485 3.52588H30.5007V2.69775H37.4694ZM33.8132 6.63525V10.8853C35.3913 10.8306 37.0085 10.729 38.485 10.5415L38.5475 11.3071C35.6257 11.7446 32.3288 11.8071 29.86 11.8071L29.7038 10.9478C30.6491 10.9478 31.7194 10.9399 32.8288 10.9165V6.63525H33.8132ZM40.4069 1.13525V6.979H42.7663V7.83838H40.4069V14.9165H39.4225V1.13525H40.4069ZM60.4757 1.13525V14.9165H59.5069V1.13525H60.4757ZM56.4132 2.65088C56.3975 6.5415 54.4444 10.0571 49.9132 12.2446L49.3663 11.4321C53.1475 9.64307 55.171 6.82275 55.4288 3.46338H49.9757V2.65088H56.4132ZM75.135 10.0728V14.9321H74.1507V10.8696H65.9319V10.0728H75.135ZM75.135 1.13525V9.24463H74.1507V5.604H71.0725C70.8538 7.32275 69.4397 8.479 67.5569 8.46338C65.4944 8.479 63.9944 7.13525 64.01 5.19775C63.9944 3.27588 65.4944 1.93213 67.5569 1.93213C69.4319 1.93213 70.8382 3.07275 71.0569 4.76025H74.1507V1.13525H75.135ZM67.5569 2.77588C66.0569 2.77588 64.9475 3.82275 64.9475 5.19775C64.9475 6.604 66.0569 7.61963 67.5569 7.61963C69.0257 7.61963 70.135 6.604 70.135 5.19775C70.135 3.82275 69.0257 2.77588 67.5569 2.77588ZM80.4194 12.7446L79.2788 16.7915H78.3569L79.2319 12.7446H80.4194ZM95.4569 2.21338V2.9165C95.4413 3.7915 95.4413 5.1665 95.0819 6.99463L94.0975 6.9165C94.4647 5.14307 94.4882 3.92432 94.4882 3.05713H88.66V2.21338H95.4569ZM91.8632 5.229V8.2915C93.4491 8.23682 95.0819 8.11963 96.5663 7.9165L96.6288 8.6665C93.7382 9.15088 90.3788 9.19775 87.91 9.19775L87.8007 8.36963C88.7304 8.36963 89.785 8.36182 90.8944 8.32275V5.229H91.8632ZM98.5507 1.13525V5.71338H100.676V6.55713H98.5507V11.5259H97.5663V1.13525H98.5507ZM99.0038 13.7603V14.5884H89.9569V10.5728H90.9413V13.7603H99.0038ZM114.226 1.13525V14.9165H113.273V1.13525H114.226ZM111.46 1.52588V14.1821H110.507V9.32275H107.757V8.49463H110.507V5.854H107.991C107.304 8.21338 105.749 10.3306 103.132 11.9009L102.538 11.1821C105.601 9.354 107.194 6.68994 107.429 3.76025H103.085V2.9165H108.382C108.382 3.62744 108.319 4.33838 108.179 5.02588H110.507V1.52588H111.46ZM129.698 7.604V8.40088H117.088V7.604H129.698ZM128.104 9.65088V12.479H119.635V13.9634H128.573V14.7134H118.666V11.7446H127.119V10.4165H118.635V9.65088H128.104ZM128.057 1.604V4.32275H119.713V5.68213H128.291V6.43213H118.744V3.61963H127.073V2.33838H118.698V1.604H128.057ZM147.704 1.13525V14.9321H146.719V1.13525H147.704ZM138.204 2.32275V6.05713H142.673V2.32275H143.657V11.5571H137.219V2.32275H138.204ZM138.204 10.729H142.673V6.86963H138.204V10.729ZM163.582 9.49463V10.3228H157.785V14.9321H156.816V10.3228H151.019V9.49463H163.582ZM157.785 3.82275C157.785 5.69775 160.473 7.18213 162.723 7.51025L162.363 8.32275C160.332 7.979 158.16 6.87744 157.316 5.27588C156.449 6.90088 154.262 7.979 152.223 8.32275L151.863 7.51025C154.113 7.18213 156.801 5.69775 156.816 3.82275V3.69775H152.269V2.86963H156.816V1.104H157.785V2.86963H162.348V3.69775H157.785V3.82275ZM176.773 5.43213V6.26025H167.398V1.63525H168.366V5.43213H176.773ZM178.241 8.26025V9.07275H165.632V8.26025H178.241ZM176.851 13.729V14.5728H167.335V10.5728H168.304V13.729H176.851ZM196.294 10.0415V14.9165H195.31V10.854H187.091V10.0415H196.294ZM196.294 1.13525V9.24463H195.31V7.18213H191.591C190.966 7.98682 189.935 8.47119 188.716 8.46338C186.654 8.479 185.154 7.13525 185.169 5.19775C185.154 3.27588 186.654 1.93213 188.716 1.93213C189.935 1.93213 190.951 2.4165 191.576 3.21338H195.31V1.13525H196.294ZM188.716 2.77588C187.201 2.77588 186.107 3.82275 186.107 5.19775C186.107 6.604 187.201 7.61963 188.716 7.61963C190.185 7.61963 191.294 6.604 191.294 5.19775C191.294 3.82275 190.185 2.77588 188.716 2.77588ZM192.044 6.354H195.31V4.05713H192.044C192.177 4.40869 192.248 4.7915 192.248 5.19775C192.248 5.61182 192.177 6.00244 192.044 6.354ZM210.298 1.07275V4.5415H212.438V5.36963H210.298V8.74463H209.313V1.07275H210.298ZM210.298 9.51025V12.4321H202.61V13.9478H210.829V14.7446H201.641V11.6665H209.313V10.2759H201.61V9.51025H210.298ZM207.829 2.46338V3.26025H199.61V2.46338H203.235V0.963379H204.204V2.46338H207.829ZM203.719 3.979C205.704 3.979 207.001 4.854 207.001 6.24463C207.001 7.65088 205.704 8.51025 203.719 8.51025C201.719 8.51025 200.423 7.65088 200.423 6.24463C200.423 4.854 201.719 3.979 203.719 3.979ZM203.719 4.729C202.298 4.74463 201.344 5.354 201.36 6.24463C201.344 7.15088 202.298 7.74463 203.719 7.74463C205.126 7.74463 206.063 7.15088 206.079 6.24463C206.063 5.354 205.126 4.74463 203.719 4.729ZM220.457 1.38525C223.488 1.38525 225.285 2.229 225.285 3.77588C225.285 5.33838 223.488 6.19775 220.457 6.19775C217.426 6.19775 215.629 5.33838 215.629 3.77588C215.629 2.229 217.426 1.38525 220.457 1.38525ZM220.457 2.15088C218.098 2.15088 216.644 2.77588 216.644 3.77588C216.644 4.82275 218.098 5.43213 220.457 5.43213C222.832 5.43213 224.285 4.82275 224.285 3.77588C224.285 2.77588 222.832 2.15088 220.457 2.15088ZM226.754 7.229V8.0415H214.191V7.229H226.754ZM225.098 9.354V12.3071H216.738V13.9321H225.535V14.7446H215.785V11.5415H224.144V10.1353H215.738V9.354H225.098ZM244.213 1.13525V4.729H246.338V5.57275H244.213V9.11963H243.229V1.13525H244.213ZM236.557 9.74463V11.354H243.229V9.74463H244.213V14.7134H235.588V9.74463H236.557ZM236.557 13.9009H243.229V12.1509H236.557V13.9009ZM241.744 2.63525V3.44775H233.526V2.63525H237.151V0.994629H238.119V2.63525H241.744ZM237.635 4.18213C239.604 4.18213 240.916 5.11963 240.916 6.58838C240.916 8.05713 239.604 9.01025 237.635 8.99463C235.635 9.01025 234.338 8.05713 234.338 6.58838C234.338 5.11963 235.635 4.18213 237.635 4.18213ZM237.635 4.96338C236.213 4.94775 235.26 5.61963 235.276 6.58838C235.26 7.55713 236.213 8.229 237.635 8.229C239.041 8.229 239.979 7.55713 239.994 6.58838C239.979 5.61963 239.041 4.94775 237.635 4.96338ZM259.388 1.13525V14.9165H258.419V1.13525H259.388ZM250.013 2.49463V10.4321H250.138C252.294 10.4321 254.466 10.2603 256.841 9.76025L256.982 10.6196C254.529 11.1353 252.373 11.3071 250.138 11.3071H249.044V2.49463H250.013ZM273.344 1.13525V6.69775H275.719V7.52588H273.344V14.9321H272.36V1.13525H273.344ZM264.423 10.5884C267.048 10.5884 268.829 10.4946 270.923 10.104L271.063 10.9634C268.891 11.354 267.094 11.4478 264.423 11.4478H263.36V2.49463H269.782V3.32275H264.344V10.5884H264.423ZM278.723 13.7759C278.254 13.7759 277.879 13.4009 277.879 12.9478C277.879 12.479 278.254 12.104 278.723 12.104C279.176 12.104 279.551 12.479 279.551 12.9478C279.551 13.4009 279.176 13.7759 278.723 13.7759ZM60.7069 35.0259C60.6913 37.4321 62.4882 39.9321 64.3632 40.8696L63.7538 41.6665C62.2382 40.854 60.8554 39.1509 60.2382 37.1665C59.6288 39.2681 58.2147 41.0884 56.6913 41.9321L56.0507 41.1509C57.9569 40.1665 59.7225 37.5259 59.7382 35.0259V32.3696H60.7069V35.0259ZM66.8319 31.1353V36.8071H69.2069V37.6821H66.8319V44.9165H65.8475V31.1353H66.8319ZM83.4132 38.0415V38.8696H70.8507V38.0415H74.0538V35.9946C72.921 35.5806 72.2882 34.8774 72.2882 33.9321C72.2882 32.3228 74.1163 31.4165 77.1163 31.4165C80.1163 31.4165 81.9444 32.3228 81.9444 33.9321C81.9444 34.8696 81.3194 35.5728 80.2101 35.979V38.0415H83.4132ZM77.1319 40.0415C80.0851 40.0259 81.8507 40.8853 81.8507 42.4478C81.8507 44.0103 80.0851 44.8853 77.1319 44.8853C74.1476 44.8853 72.3819 44.0103 72.3819 42.4478C72.3819 40.8853 74.1476 40.0259 77.1319 40.0415ZM77.1319 40.8071C74.8194 40.8228 73.3819 41.4321 73.3819 42.4478C73.3819 43.479 74.8194 44.0884 77.1319 44.0884C79.4132 44.0884 80.8663 43.479 80.8663 42.4478C80.8663 41.4321 79.4132 40.8228 77.1319 40.8071ZM77.1163 32.1978C74.7726 32.1978 73.2882 32.8696 73.3038 33.9321C73.2882 35.0103 74.7726 35.6665 77.1163 35.6665C79.4601 35.6665 80.9444 35.0103 80.9444 33.9321C80.9444 32.8696 79.4601 32.1978 77.1163 32.1978ZM75.0382 38.0415H79.2413V36.2603C78.6241 36.3853 77.9132 36.4478 77.1163 36.4478C76.3429 36.4478 75.6476 36.3853 75.0382 36.2603V38.0415ZM89.9944 35.5259C89.9944 37.7603 91.7444 40.1978 93.6507 41.1196L93.0725 41.9009C91.5413 41.1274 90.1429 39.4399 89.5257 37.5259C88.8929 39.5962 87.3929 41.4399 85.885 42.2446L85.2757 41.4634C87.1507 40.5259 89.0257 37.9009 89.0413 35.5259V33.4165H85.76V32.5728H93.2132V33.4165H89.9944V35.5259ZM96.0882 31.1353V36.8071H98.4632V37.6509H96.0882V44.9165H95.1038V31.1353H96.0882ZM104.623 32.1665C106.794 32.1665 108.294 33.4634 108.31 35.354C108.294 37.2603 106.794 38.5415 104.623 38.5415C102.466 38.5415 100.935 37.2603 100.935 35.354C100.935 33.4634 102.466 32.1665 104.623 32.1665ZM104.623 33.0415C103.044 33.0415 101.888 34.0103 101.904 35.354C101.888 36.6978 103.044 37.6821 104.623 37.6665C106.201 37.6821 107.341 36.6978 107.341 35.354C107.341 34.0103 106.201 33.0415 104.623 33.0415ZM111.326 31.1353V44.9321H110.341V31.1353H111.326ZM100.185 40.9478C102.763 40.9634 106.294 40.9478 109.388 40.479L109.466 41.229C106.279 41.8228 102.841 41.8228 100.341 41.8228L100.185 40.9478ZM131.129 31.1353V44.9165H130.16V37.6978H127.926V44.1821H126.988V31.4634H127.926V36.8384H130.16V31.1353H131.129ZM121.113 32.854V40.3853C122.558 40.3774 124.105 40.2759 125.91 39.9165L126.035 40.8071C124.098 41.1665 122.504 41.2759 120.973 41.2603H120.129V32.854H121.113ZM140.944 32.3696V33.6509H144.398V31.1353H145.382V41.2134H144.398V37.4321H140.944V38.6978H134.694V32.3696H140.944ZM135.663 33.1821V37.9009H139.976V33.1821H135.663ZM145.71 43.7603V44.5884H136.554V40.3228H137.538V43.7603H145.71ZM140.944 36.5884H144.398V34.4946H140.944V36.5884ZM154.916 31.3853C157.948 31.3853 159.744 32.229 159.744 33.7759C159.744 35.3384 157.948 36.1978 154.916 36.1978C151.885 36.1978 150.088 35.3384 150.088 33.7759C150.088 32.229 151.885 31.3853 154.916 31.3853ZM154.916 32.1509C152.557 32.1509 151.104 32.7759 151.104 33.7759C151.104 34.8228 152.557 35.4321 154.916 35.4321C157.291 35.4321 158.744 34.8228 158.744 33.7759C158.744 32.7759 157.291 32.1509 154.916 32.1509ZM161.213 37.229V38.0415H148.651V37.229H161.213ZM159.557 39.354V42.3071H151.198V43.9321H159.994V44.7446H150.244V41.5415H158.604V40.1353H150.198V39.354H159.557ZM179.032 37.8384V38.6665H169.594V32.4634H178.891V33.2915H170.563V37.8384H179.032ZM180.563 42.1196V42.9634H167.938V42.1196H180.563ZM193.91 31.1353V44.9321H192.941V37.3853H190.113V36.5415H192.941V31.1353H193.91ZM184.129 40.729C186.66 40.729 188.394 40.6509 190.457 40.2603L190.535 41.104C188.457 41.479 186.691 41.5728 184.129 41.5884H183.098V36.3228H188.285V33.2915H183.066V32.4478H189.254V37.1509H184.082V40.729H184.129ZM208.929 31.1353V44.9165H207.96V37.6978H205.726V44.1821H204.788V31.4634H205.726V36.8384H207.96V31.1353H208.929ZM198.913 32.854V40.3853C200.358 40.3774 201.905 40.2759 203.71 39.9165L203.835 40.8071C201.898 41.1665 200.304 41.2759 198.773 41.2603H197.929V32.854H198.913ZM222.776 32.5884V33.979C222.76 35.6665 222.76 37.5415 222.276 40.2603L221.276 40.1353C221.776 37.5415 221.776 35.6353 221.791 33.979V33.4165H213.182V32.5884H222.776ZM224.385 42.0259V42.8696H211.823V42.0259H216.885V37.0415H217.854V42.0259H224.385ZM28.1038 61.1196V66.6353H30.2444V67.4946H28.1038V74.9165H27.1194V61.1196H28.1038ZM21.2444 62.604V63.4321H18.7288V70.3696C19.4085 70.3618 20.3616 70.2915 21.4007 70.0571L21.51 70.9009C20.1507 71.1978 19.0569 71.2134 18.3225 71.2134H17.7444V62.604H21.2444ZM25.7132 62.604V63.4321H23.0257V70.3853C24.1585 70.3774 25.135 70.3071 26.2444 70.0259L26.3538 70.8696C25.0569 71.1821 24.01 71.2134 22.6819 71.2134H22.0569V62.604H25.7132ZM44.4819 67.8228V68.6665H31.9194V67.8228H44.4819ZM43.3882 65.604V66.4165H38.6069V61.8071H43.2475V62.6196H39.5913V65.604H43.3882ZM37.7944 61.8071V62.6196H34.1069V65.604C35.3179 65.5962 36.5991 65.5181 38.0288 65.1821L38.1538 66.0103C36.5444 66.3696 35.185 66.4321 33.8569 66.4165H33.1069V61.8071H37.7944ZM38.7007 70.3696C38.7007 72.354 41.1382 73.6978 43.4663 74.0571L43.0757 74.854C41.06 74.4868 39.0132 73.4868 38.2163 71.8696C37.4038 73.4868 35.3569 74.4868 33.3413 74.854L32.9507 74.0571C35.2632 73.6978 37.7007 72.354 37.7007 70.3696V69.8696H38.7007V70.3696ZM57.2819 61.1353V65.7915H59.4069V66.6353H57.2819V71.479H56.2975V61.1353H57.2819ZM54.8132 62.9009V63.729H46.5944V62.9009H50.2194V61.1509H51.1882V62.9009H54.8132ZM50.7038 64.5728C52.6569 64.5728 53.985 65.5728 53.985 67.1196C53.985 68.6665 52.6569 69.6509 50.7038 69.6509C48.7194 69.6509 47.4069 68.6665 47.4069 67.1196C47.4069 65.5728 48.7194 64.5728 50.7038 64.5728ZM50.7038 65.3696C49.2819 65.3696 48.3288 66.0728 48.3444 67.1196C48.3288 68.1509 49.2819 68.854 50.7038 68.8384C52.11 68.854 53.0475 68.1509 53.0632 67.1196C53.0475 66.0728 52.11 65.3696 50.7038 65.3696ZM57.9538 73.7603V74.5884H48.7507V70.6353H49.7194V73.7603H57.9538ZM77.1944 61.1353V71.3696H76.2101V67.479H72.5069C71.8741 68.3384 70.8429 68.854 69.6163 68.854C67.5538 68.854 66.0538 67.4478 66.0694 65.4478C66.0538 63.4478 67.5538 62.0415 69.6163 62.0259C70.8272 62.0337 71.8507 62.5493 72.4757 63.3853H76.2101V61.1353H77.1944ZM77.6007 73.7603V74.5884H68.4444V70.2759H69.4288V73.7603H77.6007ZM69.6163 62.9165C68.1007 62.9321 67.0069 64.0103 67.0069 65.4478C67.0069 66.9009 68.1007 67.979 69.6163 67.979C71.0851 67.979 72.1944 66.9009 72.1944 65.4478C72.1944 64.0103 71.0851 62.9321 69.6163 62.9165ZM72.9288 64.2134C73.0694 64.5884 73.1476 65.0024 73.1476 65.4478C73.1476 65.8774 73.0694 66.2837 72.9444 66.6509H76.2101V64.2134H72.9288ZM91.8225 61.1353V68.2134H90.8382V66.6509H86.9788V65.8384H90.8382V64.0415H87.2132C86.346 66.2446 84.1507 67.7681 81.0882 68.5259L80.7132 67.6978C84.1585 66.8696 86.2991 65.104 86.51 62.6978H81.4007V61.8696H87.6038C87.6038 62.3462 87.5491 62.7993 87.4632 63.229H90.8382V61.1353H91.8225ZM91.8225 68.8853V72.104H83.9788V73.9634H92.3538V74.7759H83.01V71.3228H90.8382V69.6978H82.9632V68.8853H91.8225ZM101.357 61.3853C104.388 61.3853 106.185 62.229 106.185 63.7759C106.185 65.3384 104.388 66.1978 101.357 66.1978C98.3257 66.1978 96.5288 65.3384 96.5288 63.7759C96.5288 62.229 98.3257 61.3853 101.357 61.3853ZM101.357 62.1509C98.9976 62.1509 97.5444 62.7759 97.5444 63.7759C97.5444 64.8228 98.9976 65.4321 101.357 65.4321C103.732 65.4321 105.185 64.8228 105.185 63.7759C105.185 62.7759 103.732 62.1509 101.357 62.1509ZM107.654 67.229V68.0415H95.0913V67.229H107.654ZM105.998 69.354V72.3071H97.6382V73.9321H106.435V74.7446H96.6851V71.5415H105.044V70.1353H96.6382V69.354H105.998ZM121.316 62.4165V68.6821H115.019V62.4165H121.316ZM115.973 63.2446V67.8696H120.363V63.2446H115.973ZM125.113 61.1196V65.4009H127.238V66.229H125.113V71.2446H124.129V61.1196H125.113ZM125.785 73.7603V74.5884H116.582V70.2915H117.551V73.7603H125.785ZM141.569 67.0415V67.8696H129.007V67.0415H141.569ZM140.069 64.979V65.8071H130.726V61.6665H139.913V62.479H131.71V64.979H140.069ZM139.913 69.229V72.3071H131.554V73.9165H140.351V74.729H130.601V71.5259H138.96V70.0259H130.554V69.229H139.913ZM147.307 62.229C149.19 62.229 150.533 63.8774 150.698 66.4946H154.026V61.1353H154.994V74.9321H154.026V67.3071H150.713C150.596 70.0337 149.237 71.7603 147.307 71.7603C145.291 71.7603 143.885 69.9009 143.901 66.9946C143.885 64.0884 145.291 62.229 147.307 62.229ZM147.307 63.104C145.838 63.104 144.838 64.6978 144.838 66.9946C144.838 69.3071 145.838 70.8853 147.307 70.8853C148.76 70.8853 149.776 69.3071 149.776 66.9946C149.776 64.6978 148.76 63.104 147.307 63.104ZM169.998 61.1353V74.9165H169.029V67.6978H166.794V74.1821H165.857V61.4634H166.794V66.8384H169.029V61.1353H169.998ZM159.982 62.854V70.3853C161.427 70.3774 162.974 70.2759 164.779 69.9165L164.904 70.8071C162.966 71.1665 161.373 71.2759 159.841 71.2603H158.998V62.854H159.982ZM184.016 65.4321V66.2603H174.641V61.6353H175.61V65.4321H184.016ZM185.485 68.2603V69.0728H172.876V68.2603H185.485ZM184.094 73.729V74.5728H174.579V70.5728H175.548V73.729H184.094ZM196.648 63.3853C196.648 65.3228 198.226 67.0728 200.163 67.7603L199.616 68.5571C198.085 67.9712 196.796 66.7524 196.21 65.2446C195.632 66.9556 194.319 68.2837 192.71 68.9321L192.179 68.1353C194.179 67.3696 195.679 65.5259 195.694 63.3228V61.8384H196.648V63.3853ZM202.913 61.1353V64.8384H205.038V65.6821H202.913V69.5884H201.929V61.1353H202.913ZM198.523 69.9634C201.335 69.9634 203.023 70.8696 203.023 72.4165C203.023 73.979 201.335 74.8696 198.523 74.8696C195.694 74.8696 193.991 73.979 194.007 72.4165C193.991 70.8696 195.694 69.9634 198.523 69.9634ZM198.523 70.7759C196.351 70.7759 194.96 71.4009 194.976 72.4165C194.96 73.4478 196.351 74.0728 198.523 74.0884C200.694 74.0728 202.069 73.4478 202.069 72.4165C202.069 71.4009 200.694 70.7759 198.523 70.7759ZM218.135 61.1353V69.5103H217.151V61.1353H218.135ZM213.557 69.8384C216.432 69.8384 218.166 70.7759 218.182 72.4009C218.166 74.0415 216.432 74.979 213.557 74.979C210.682 74.979 208.932 74.0415 208.932 72.4009C208.932 70.7759 210.682 69.8384 213.557 69.8384ZM213.557 70.6353C211.323 70.6353 209.916 71.3228 209.916 72.4009C209.916 73.4946 211.323 74.1821 213.557 74.1665C215.791 74.1821 217.198 73.4946 217.213 72.4009C217.198 71.3228 215.791 70.6353 213.557 70.6353ZM211.635 63.7446C211.635 65.6665 213.26 67.3228 215.26 67.979L214.744 68.7603C213.143 68.2134 211.776 67.0337 211.166 65.5103C210.588 67.1899 209.229 68.5024 207.588 69.1353L207.057 68.3384C209.057 67.6196 210.635 65.8071 210.651 63.7446V63.104H207.307V62.2759H214.948V63.104H211.635V63.7446ZM232.763 61.1353V68.5103H231.779V61.1353H232.763ZM224.904 69.2446V71.0571H231.794V69.2446H232.763V74.7134H223.935V69.2446H224.904ZM224.904 73.9009H231.794V71.8696H224.904V73.9009ZM225.357 61.8228C227.435 61.8228 228.919 63.0884 228.919 64.979C228.919 66.8384 227.435 68.1196 225.357 68.104C223.279 68.1196 221.779 66.8384 221.794 64.979C221.779 63.0884 223.279 61.8228 225.357 61.8228ZM225.357 62.6665C223.841 62.6665 222.748 63.6353 222.748 64.979C222.748 66.3071 223.841 67.2759 225.357 67.2759C226.873 67.2759 227.966 66.3071 227.966 64.979C227.966 63.6353 226.873 62.6665 225.357 62.6665ZM247.344 61.1353V74.9165H246.376V61.1353H247.344ZM237.969 62.4946V70.4321H238.094C240.251 70.4321 242.423 70.2603 244.798 69.7603L244.938 70.6196C242.485 71.1353 240.329 71.3071 238.094 71.3071H237.001V62.4946H237.969ZM261.301 61.1353V66.6978H263.676V67.5259H261.301V74.9321H260.316V61.1353H261.301ZM252.379 70.5884C255.004 70.5884 256.785 70.4946 258.879 70.104L259.019 70.9634C256.848 71.354 255.051 71.4478 252.379 71.4478H251.316V62.4946H257.738V63.3228H252.301V70.5884H252.379ZM266.679 73.7759C266.21 73.7759 265.835 73.4009 265.835 72.9478C265.835 72.479 266.21 72.104 266.679 72.104C267.132 72.104 267.507 72.479 267.507 72.9478C267.507 73.4009 267.132 73.7759 266.679 73.7759Z" fill="#1A1A1A"/>
</svg>
