<svg width="166" height="133" viewBox="0 0 166 133" fill="none" xmlns="http://www.w3.org/2000/svg">
<path d="M9.34644 0.788086V7.81543H8.49878V0.788086H9.34644ZM6.03784 9.45605C6.03784 10.7275 8.198 11.9033 10.0984 12.1631L9.77026 12.8467C8.06128 12.5664 6.29761 11.6846 5.60034 10.5088C4.90308 11.7119 3.08472 12.5869 1.36206 12.8467L1.03394 12.1768C2.93433 11.9307 5.16284 10.7549 5.16284 9.45605V9.42871H1.53979V8.73145H5.17651V7.50098H6.02417V8.73145H9.68823V9.42871H6.03784V9.45605ZM0.938232 1.29395V3.27637H4.83472V1.29395H5.69604V6.66699H0.0905762V1.29395H0.938232ZM0.938232 5.95605H4.83472V3.95996H0.938232V5.95605ZM17.73 1.6084C20.2457 1.62207 22.105 2.9209 22.105 4.88965C22.105 6.8584 20.2457 8.15723 17.73 8.14355C15.2281 8.15723 13.3687 6.8584 13.3687 4.88965C13.3687 2.9209 15.2281 1.62207 17.73 1.6084ZM17.73 2.31934C15.7066 2.31934 14.1753 3.38574 14.1753 4.88965C14.1753 6.39355 15.7066 7.43262 17.73 7.43262C19.7535 7.43262 21.2847 6.39355 21.2847 4.88965C21.2847 3.38574 19.7535 2.31934 17.73 2.31934ZM23.2945 10.4541V11.1924H12.2476V10.4541H23.2945ZM36.0941 10.5635V11.3018H25.0472V10.5635H30.1058V8.12988H26.4691V4.52051H33.8109V2.44238H26.4281V1.71777H34.6585V5.24512H27.3167V7.40527H34.9457V8.12988H30.9671V10.5635H36.0941ZM51.8359 0.788086V9.66113H50.9746V0.788086H51.8359ZM52.2324 11.835V12.5596H44.1386V8.74512H45V11.835H52.2324ZM45.3554 1.66309C47.1464 1.66309 48.4726 2.86621 48.4726 4.58887C48.4726 6.3252 47.1464 7.54199 45.3554 7.52832C43.5644 7.54199 42.2246 6.3252 42.2382 4.58887C42.2246 2.86621 43.5644 1.66309 45.3554 1.66309ZM45.3554 2.41504C44.0429 2.41504 43.0722 3.34473 43.0722 4.58887C43.0722 5.84668 44.0429 6.7627 45.3554 6.7627C46.6543 6.7627 47.6386 5.84668 47.6386 4.58887C47.6386 3.34473 46.6543 2.41504 45.3554 2.41504ZM60.821 2.94824V3.65918H54.696V2.94824H57.321V1.15723H58.196V2.94824H60.821ZM57.7585 4.56152C59.2625 4.5752 60.3425 5.68262 60.3425 7.26855C60.3425 8.86816 59.2625 9.98926 57.7585 9.98926C56.2546 9.98926 55.1746 8.86816 55.1746 7.26855C55.1746 5.68262 56.2546 4.5752 57.7585 4.56152ZM57.7585 5.2998C56.7058 5.31348 55.9402 6.16113 55.9539 7.26855C55.9402 8.38965 56.7058 9.2373 57.7585 9.22363C58.7976 9.2373 59.5632 8.38965 59.5769 7.26855C59.5632 6.16113 58.7976 5.31348 57.7585 5.2998ZM64.95 0.788086V12.8467H64.1296V6.65332H62.3113V12.2314H61.5046V1.08887H62.3113V5.92871H64.1296V0.788086H64.95ZM81.307 6.65332V7.37793H73.0492V1.9502H81.1839V2.6748H73.8968V6.65332H81.307ZM82.6468 10.3994V11.1377H71.5999V10.3994H82.6468ZM94.3253 0.788086V12.8604H93.4777V6.25684H91.0031V5.51855H93.4777V0.788086H94.3253ZM85.7668 9.18262C87.9816 9.18262 89.4992 9.11426 91.3039 8.77246L91.3722 9.51074C89.5539 9.83887 88.0089 9.9209 85.7668 9.93457H84.8644V5.32715H89.4035V2.6748H84.8371V1.93652H90.2511V6.05176H85.7257V9.18262H85.7668ZM108.519 5.68262V6.4209H106.482V12.8467H105.621V0.788086H106.482V5.68262H108.519ZM98.58 1.97754V9.00488H98.6621C100.48 9.01855 102.299 8.88184 104.35 8.44434L104.459 9.19629C102.367 9.62012 100.521 9.74316 98.6621 9.74316H97.7324V1.97754H98.58ZM119.733 4.54785V5.27246H111.53V1.22559H112.378V4.54785H119.733ZM121.018 7.02246V7.7334H109.985V7.02246H121.018ZM119.802 11.8076V12.5459H111.475V9.0459H112.323V11.8076H119.802ZM133.287 1.62207C133.287 4.62988 130.963 6.72168 127.45 7.62402L127.094 6.91309C130.184 6.16113 132.166 4.50684 132.371 2.34668H127.696V1.62207H133.287ZM136.774 0.788086V7.43262H135.912V0.788086H136.774ZM137.02 8.14355V8.85449H135.243V11.9307H137.157V12.6553H128.83V11.9307H130.703V8.85449H128.94V8.14355H137.02ZM131.551 11.9307H134.395V8.85449H131.551V11.9307ZM149.573 0.788086V12.8604H148.712V0.788086H149.573ZM143.202 1.74512C144.98 1.74512 146.251 3.37207 146.251 5.91504C146.251 8.45801 144.98 10.085 143.202 10.085C141.411 10.085 140.153 8.45801 140.153 5.91504C140.153 3.37207 141.411 1.74512 143.202 1.74512ZM143.202 2.51074C141.903 2.51074 140.987 3.90527 140.987 5.91504C140.987 7.93848 141.903 9.31934 143.202 9.31934C144.501 9.31934 145.403 7.93848 145.403 5.91504C145.403 3.90527 144.501 2.51074 143.202 2.51074ZM156.125 1.59473C157.971 1.59473 159.297 2.71582 159.311 4.38379C159.297 5.91504 158.176 6.97461 156.562 7.13184V9.31934C157.745 9.27832 158.935 9.18945 160.035 9.0459L160.103 9.70215C157.519 10.126 154.635 10.167 152.488 10.1533L152.324 9.41504C153.329 9.4082 154.491 9.40137 155.701 9.36035V7.13184C154.047 6.98828 152.926 5.92188 152.939 4.38379C152.926 2.71582 154.238 1.59473 156.125 1.59473ZM156.125 2.33301C154.758 2.34668 153.773 3.19434 153.773 4.38379C153.773 5.57324 154.758 6.43457 156.125 6.4209C157.478 6.43457 158.449 5.57324 158.463 4.38379C158.449 3.19434 157.478 2.34668 156.125 2.33301ZM161.703 0.788086V5.84668H163.781V6.58496H161.703V12.8467H160.855V0.788086H161.703ZM30.2781 31.7451C31.3923 31.7451 32.2947 32.4082 32.8074 33.5498H36.157V30.7881H37.0046V42.8604H36.157V38.1299H32.8757C32.3699 39.3604 31.447 40.085 30.2781 40.085C28.5144 40.085 27.2839 38.458 27.2976 35.915C27.2839 33.3721 28.5144 31.7451 30.2781 31.7451ZM30.2781 32.5107C28.9929 32.5107 28.1179 33.9053 28.1179 35.915C28.1179 37.9385 28.9929 39.3193 30.2781 39.3193C31.5496 39.3193 32.4382 37.9385 32.4382 35.915C32.4382 33.9053 31.5496 32.5107 30.2781 32.5107ZM33.0671 34.2881C33.1833 34.7734 33.2585 35.3203 33.2585 35.915C33.2585 36.4482 33.197 36.9473 33.0945 37.3916H36.157V34.2881H33.0671ZM50.8843 36.9951V37.7334H45.8941V40.3174H45.0191V37.7334H39.8511V36.9951H50.8843ZM49.6539 41.8076V42.5596H41.314V39.0596H42.1617V41.8076H49.6539ZM45.3472 31.1162C47.9175 31.1162 49.5718 32.0322 49.5718 33.5225C49.5718 34.999 47.9175 35.9014 45.3472 35.9014C42.7906 35.9014 41.1226 34.999 41.1363 33.5225C41.1226 32.0322 42.7906 31.1162 45.3472 31.1162ZM45.3472 31.8408C43.3785 31.8408 42.0386 32.4971 42.0386 33.5225C42.0386 34.5205 43.3785 35.1768 45.3472 35.1768C47.3296 35.1768 48.6695 34.5205 48.6695 33.5225C48.6695 32.4971 47.3296 31.8408 45.3472 31.8408ZM58.1468 31.0068C60.7992 31.0068 62.3714 31.7451 62.3714 33.0986C62.3714 34.4658 60.7992 35.2178 58.1468 35.2178C55.4945 35.2178 53.9222 34.4658 53.9222 33.0986C53.9222 31.7451 55.4945 31.0068 58.1468 31.0068ZM58.1468 31.6768C56.0824 31.6768 54.8109 32.2236 54.8109 33.0986C54.8109 34.0146 56.0824 34.5479 58.1468 34.5479C60.225 34.5479 61.4964 34.0146 61.4964 33.0986C61.4964 32.2236 60.225 31.6768 58.1468 31.6768ZM63.6566 36.1201V36.8311H52.6644V36.1201H63.6566ZM62.2074 37.9795V40.5635H54.8929V41.9854H62.5902V42.6963H54.0589V39.8936H61.3734V38.6631H54.0179V37.9795H62.2074ZM73.4921 31.6904C75.3925 31.6904 76.705 32.8252 76.7187 34.4795C76.705 36.1475 75.3925 37.2686 73.4921 37.2686C71.6054 37.2686 70.2656 36.1475 70.2656 34.4795C70.2656 32.8252 71.6054 31.6904 73.4921 31.6904ZM73.4921 32.4561C72.1113 32.4561 71.0996 33.3037 71.1132 34.4795C71.0996 35.6553 72.1113 36.5166 73.4921 36.5029C74.873 36.5166 75.871 35.6553 75.871 34.4795C75.871 33.3037 74.873 32.4561 73.4921 32.4561ZM79.3574 30.7881V42.8604H78.496V30.7881H79.3574ZM69.6093 39.374C71.8652 39.3877 74.955 39.374 77.6621 38.9639L77.7304 39.6201C74.9414 40.1396 71.9335 40.1396 69.746 40.1396L69.6093 39.374ZM88.5613 32.0049V39.7568H83.0652V32.0049H88.5613ZM83.9265 32.7021V39.0322H87.7273V32.7021H83.9265ZM92.239 30.7881V42.8604H91.3777V30.7881H92.239ZM104.533 30.7881V33.9326H106.392V34.6709H104.533V37.7744H103.671V30.7881H104.533ZM97.8335 38.3213V39.7295H103.671V38.3213H104.533V42.6689H96.9859V38.3213H97.8335ZM97.8335 41.958H103.671V40.4268H97.8335V41.958ZM102.373 32.1006V32.8115H95.1812V32.1006H98.3531V30.665H99.2007V32.1006H102.373ZM98.7769 33.4541C100.5 33.4541 101.648 34.2744 101.648 35.5596C101.648 36.8447 100.5 37.6787 98.7769 37.665C97.0269 37.6787 95.8921 36.8447 95.8921 35.5596C95.8921 34.2744 97.0269 33.4541 98.7769 33.4541ZM98.7769 34.1377C97.5328 34.124 96.6988 34.7119 96.7124 35.5596C96.6988 36.4072 97.5328 36.9951 98.7769 36.9951C100.007 36.9951 100.828 36.4072 100.841 35.5596C100.828 34.7119 100.007 34.124 98.7769 34.1377ZM117.811 30.7881V42.8467H116.963V30.7881H117.811ZM109.608 31.9775V38.9229H109.717C111.604 38.9229 113.504 38.7725 115.582 38.335L115.705 39.0869C113.559 39.5381 111.672 39.6885 109.717 39.6885H108.76V31.9775H109.608ZM130.023 30.7881V35.6553H132.101V36.3799H130.023V42.8604H129.161V30.7881H130.023ZM122.216 39.0596C124.513 39.0596 126.071 38.9775 127.903 38.6357L128.027 39.3877C126.126 39.7295 124.554 39.8115 122.216 39.8115H121.286V31.9775H126.905V32.7021H122.148V39.0596H122.216ZM134.728 41.8486C134.318 41.8486 133.99 41.5205 133.99 41.124C133.99 40.7139 134.318 40.3857 134.728 40.3857C135.125 40.3857 135.453 40.7139 135.453 41.124C135.453 41.5205 135.125 41.8486 134.728 41.8486ZM21.5855 60.7881V63.8369H23.4449V64.5615H21.5855V67.665H20.7242V60.7881H21.5855ZM18.3042 61.5947C18.3042 64.5752 16.1304 66.7627 12.5757 67.7334L12.2203 67.0361C15.2691 66.1953 17.1695 64.5 17.3882 62.3193H12.7398V61.5947H18.3042ZM21.5855 68.2529V72.6689H14.0113V68.2529H21.5855ZM14.8726 68.9912V71.9443H20.7242V68.9912H14.8726ZM34.932 60.7881V67.9795H34.0706V64.7256H31.4593V64.001H34.0706V60.7881H34.932ZM30.9671 68.3896C33.4554 68.3896 34.973 69.1963 34.973 70.6045C34.973 72.0127 33.4554 72.8193 30.9671 72.833C28.4789 72.8193 26.9613 72.0127 26.9749 70.6045C26.9613 69.1963 28.4789 68.3896 30.9671 68.3896ZM30.9671 69.0732C29.0394 69.0732 27.8089 69.6611 27.8226 70.6045C27.8089 71.5479 29.0394 72.1221 30.9671 72.1221C32.8949 72.1221 34.1253 71.5479 34.1253 70.6045C34.1253 69.6611 32.8949 69.0732 30.9671 69.0732ZM29.0667 63.0576C29.0667 64.6846 30.3929 66.1885 32.1019 66.7764L31.6507 67.4736C30.2904 66.9678 29.1761 65.9219 28.6703 64.6299C28.1507 66.0996 26.9613 67.2686 25.5257 67.8291L25.0746 67.1318C26.8109 66.4893 28.2054 64.8623 28.2054 63.0713V62.4424H25.3753V61.7178H31.8558V62.4424H29.0667V63.0576ZM41.7433 61.6904C43.6437 61.6904 44.9562 62.8252 44.9699 64.4795C44.9562 66.1475 43.6437 67.2686 41.7433 67.2686C39.8566 67.2686 38.5167 66.1475 38.5167 64.4795C38.5167 62.8252 39.8566 61.6904 41.7433 61.6904ZM41.7433 62.4561C40.3624 62.4561 39.3507 63.3037 39.3644 64.4795C39.3507 65.6553 40.3624 66.5166 41.7433 66.5029C43.1242 66.5166 44.1222 65.6553 44.1222 64.4795C44.1222 63.3037 43.1242 62.4561 41.7433 62.4561ZM47.6085 60.7881V72.8604H46.7472V60.7881H47.6085ZM37.8605 69.374C40.1164 69.3877 43.2062 69.374 45.9132 68.9639L45.9816 69.6201C43.1925 70.1396 40.1847 70.1396 37.9972 70.1396L37.8605 69.374ZM64.5671 60.7881V72.8604H63.7058V60.7881H64.5671ZM58.196 61.7451C59.9734 61.7451 61.2449 63.3721 61.2449 65.915C61.2449 68.458 59.9734 70.085 58.196 70.085C56.405 70.085 55.1472 68.458 55.1472 65.915C55.1472 63.3721 56.405 61.7451 58.196 61.7451ZM58.196 62.5107C56.8972 62.5107 55.9812 63.9053 55.9812 65.915C55.9812 67.9385 56.8972 69.3193 58.196 69.3193C59.4949 69.3193 60.3972 67.9385 60.3972 65.915C60.3972 63.9053 59.4949 62.5107 58.196 62.5107ZM73.5249 61.8682V62.9893H76.5464V60.7881H77.4078V69.6064H76.5464V66.2979H73.5249V67.4053H68.0562V61.8682H73.5249ZM68.9039 62.5791V66.708H72.6773V62.5791H68.9039ZM77.6949 71.835V72.5596H69.6832V68.8271H70.5445V71.835H77.6949ZM73.5249 65.5596H76.5464V63.7275H73.5249V65.5596ZM85.7503 61.0068C88.4027 61.0068 89.9749 61.7451 89.9749 63.0986C89.9749 64.4658 88.4027 65.2178 85.7503 65.2178C83.098 65.2178 81.5257 64.4658 81.5257 63.0986C81.5257 61.7451 83.098 61.0068 85.7503 61.0068ZM85.7503 61.6768C83.6859 61.6768 82.4144 62.2236 82.4144 63.0986C82.4144 64.0146 83.6859 64.5479 85.7503 64.5479C87.8285 64.5479 89.0999 64.0146 89.0999 63.0986C89.0999 62.2236 87.8285 61.6768 85.7503 61.6768ZM91.2601 66.1201V66.8311H80.2679V66.1201H91.2601ZM89.8109 67.9795V70.5635H82.4964V71.9854H90.1937V72.6963H81.6624V69.8936H88.9769V68.6631H81.6214V67.9795H89.8109ZM108.191 70.5908V71.3154H97.1445V70.5908H100.33V67.5283H98.1699V66.79H100.139V62.6885H98.1562V61.9639H107.084V62.6885H105.102V66.79H107.07V67.5283H104.91V70.5908H108.191ZM101 66.79H104.254V62.6885H101V66.79ZM101.205 70.5908H104.049V67.5283H101.205V70.5908ZM119.884 60.7881V70.0029H119.022V67.2959H116.766V66.585H119.022V64.8076H116.766V64.0693H119.022V60.7881H119.884ZM116.821 62.333V63.0576H109.944V62.333H112.993V60.7881H113.841V62.333H116.821ZM113.417 63.7959C115.016 63.7959 116.124 64.6982 116.124 66.0791C116.124 67.4463 115.016 68.3623 113.417 68.3623C111.803 68.3623 110.696 67.4463 110.71 66.0791C110.696 64.6982 111.803 63.7959 113.417 63.7959ZM113.417 64.4932C112.282 64.5068 111.503 65.1631 111.516 66.0791C111.503 67.0088 112.282 67.665 113.417 67.665C114.538 67.665 115.303 67.0088 115.317 66.0791C115.303 65.1631 114.538 64.5068 113.417 64.4932ZM120.171 71.835V72.5596H112.159V69.1689H113.02V71.835H120.171ZM132.027 60.7881V65.833H134.105V66.5713H132.027V72.8467H131.166V60.7881H132.027ZM129.88 62.7705V63.4951H122.675V62.7705H125.888V60.9111H126.75V62.7705H129.88ZM126.339 64.6025C128.035 64.6025 129.252 65.7236 129.252 67.3369C129.252 68.9502 128.035 70.0713 126.339 70.0713C124.644 70.0713 123.414 68.9502 123.427 67.3369C123.414 65.7236 124.644 64.6025 126.339 64.6025ZM126.339 65.3271C125.136 65.3408 124.248 66.1885 124.248 67.3369C124.248 68.4854 125.136 69.333 126.339 69.3193C127.543 69.333 128.431 68.4854 128.431 67.3369C128.431 66.1885 127.543 65.3408 126.339 65.3271ZM141.463 62.0186V63.7412H144.635V60.7881H145.483V72.8604H144.635V67.8018H141.463V69.7568H136.049V62.0186H141.463ZM136.897 62.7158V69.0459H140.616V62.7158H136.897ZM141.463 67.0771H144.635V64.4658H141.463V67.0771ZM150.107 70.9463L149.109 74.4873H148.302L149.068 70.9463H150.107ZM40.171 100.454V101.179H29.1242V100.454H40.171ZM31.339 91.6768V94.0146H37.9289V91.6768H38.7765V97.8975H30.464V91.6768H31.339ZM31.339 97.2002H37.9289V94.7256H31.339V97.2002ZM52.123 90.7881V99.7842H51.3027V95.1904H49.4023V99.4014H48.582V91.0205H49.4023V94.4521H51.3027V90.7881H52.123ZM52.5195 101.835V102.56H44.3027V98.9639H45.164V101.835H52.5195ZM47.0234 91.8408V95.1768H43.3456V97.2002C45.0068 97.2002 46.2919 97.125 47.83 96.8174L47.9394 97.5283C46.3261 97.8428 44.9999 97.9248 43.2773 97.9248H42.498V94.4795H46.2031V92.5654H42.4706V91.8408H47.0234ZM64.4304 96.6533V97.3779H56.1726V91.9502H64.3074V92.6748H57.0203V96.6533H64.4304ZM65.7703 100.399V101.138H54.7234V100.399H65.7703ZM76.8062 90.7881V95.7783H78.8433V96.5166H76.8062V102.847H75.9449V90.7881H76.8062ZM73.7164 92.1006C73.7027 95.4502 72.0347 98.5537 68.1382 100.481L67.6597 99.7979C70.8726 98.2119 72.6226 95.7373 72.8414 92.8252H68.1929V92.1006H73.7164ZM95.3918 98.1025V98.8271H90.3195V102.86H89.4718V98.8271H84.3996V98.1025H95.3918ZM90.3195 93.1396C90.3195 94.7803 92.6711 96.0791 94.6398 96.3662L94.3253 97.0771C92.548 96.7764 90.6476 95.8125 89.9093 94.4111C89.1505 95.833 87.2365 96.7764 85.4523 97.0771L85.1378 96.3662C87.1066 96.0791 89.4582 94.7803 89.4718 93.1396V93.0303H85.4933V92.3057H89.4718V90.7607H90.3195V92.3057H94.3117V93.0303H90.3195V93.1396ZM106.687 91.5947V92.6475C106.674 93.7959 106.674 95.04 106.332 96.79H108.191V97.5283H103.105V102.86H102.258V97.5283H97.1992V96.79H105.443C105.826 95.0537 105.826 93.7617 105.826 92.6475V92.3193H98.621V91.5947H106.687ZM119.282 90.7881V95.833H121.36V96.5713H119.282V102.847H118.421V90.7881H119.282ZM117.135 92.7705V93.4951H109.93V92.7705H113.143V90.9111H114.005V92.7705H117.135ZM113.594 94.6025C115.29 94.6025 116.507 95.7236 116.507 97.3369C116.507 98.9502 115.29 100.071 113.594 100.071C111.899 100.071 110.669 98.9502 110.682 97.3369C110.669 95.7236 111.899 94.6025 113.594 94.6025ZM113.594 95.3271C112.391 95.3408 111.503 96.1885 111.503 97.3369C111.503 98.4854 112.391 99.333 113.594 99.3193C114.798 99.333 115.686 98.4854 115.686 97.3369C115.686 96.1885 114.798 95.3408 113.594 95.3271ZM132.533 94.5479V95.2725H124.33V91.2256H125.177V94.5479H132.533ZM133.818 97.0225V97.7334H122.785V97.0225H133.818ZM132.601 101.808V102.546H124.275V99.0459H125.123V101.808H132.601ZM11.0158 121.472V122.347C11.0158 123.311 11.0158 124.459 10.715 126.011H12.506V126.749H9.30679V129.757H8.4728V126.749H5.95718V129.757H5.12319V126.749H1.45913V126.011H9.85366C10.1544 124.438 10.1544 123.304 10.1544 122.347V122.183H2.86733V121.472H11.0158ZM11.3302 131.835V132.56H2.86733V128.841H3.72866V131.835H11.3302ZM21.1357 122.21V122.921H14.2587V122.21H17.3076V120.679H18.1552V122.21H21.1357ZM17.7314 123.618C19.331 123.618 20.4384 124.493 20.4384 125.847C20.4384 127.187 19.331 128.062 17.7314 128.062C16.1044 128.062 15.0107 127.187 15.0244 125.847C15.0107 124.493 16.1044 123.618 17.7314 123.618ZM17.7314 124.288C16.583 124.288 15.8173 124.931 15.831 125.847C15.8173 126.763 16.583 127.392 17.7314 127.392C18.8525 127.392 19.6318 126.763 19.6318 125.847C19.6318 124.931 18.8525 124.288 17.7314 124.288ZM24.1982 120.788V128.622H23.3369V126.817H21.081V126.093H23.3369V124.493H21.081V123.769H23.3369V120.788H24.1982ZM20.2744 128.731C22.7626 128.731 24.2665 129.47 24.2665 130.769C24.2665 132.067 22.7626 132.806 20.2744 132.806C17.7451 132.806 16.2412 132.067 16.2412 130.769C16.2412 129.47 17.7451 128.731 20.2744 128.731ZM20.2744 129.415C18.3466 129.415 17.1298 129.921 17.1298 130.769C17.1298 131.616 18.3466 132.122 20.2744 132.122C22.1748 132.122 23.3779 131.616 23.3779 130.769C23.3779 129.921 22.1748 129.415 20.2744 129.415ZM33.7166 122.155V122.675C33.7029 123.577 33.7029 125.204 33.3474 127.515L32.4861 127.446C32.8279 125.327 32.8552 123.81 32.8552 122.88H27.6189V122.155H33.7166ZM30.5173 125.601V129.319C31.8982 129.271 33.3132 129.183 34.6052 129.019L34.6599 129.688C32.1033 130.071 29.2185 130.126 27.0583 130.126L26.9216 129.374C27.7488 129.374 28.6853 129.367 29.656 129.347V125.601H30.5173ZM36.2869 120.788V125.901H38.3513V126.653H36.2869V132.847H35.4255V120.788H36.2869ZM53.847 120.788V127.241H52.9857V120.788H53.847ZM46.9701 127.884V129.47H52.9994V127.884H53.847V132.669H46.1224V127.884H46.9701ZM46.9701 131.958H52.9994V130.181H46.9701V131.958ZM47.3665 121.39C49.1849 121.39 50.4837 122.497 50.4837 124.151C50.4837 125.778 49.1849 126.899 47.3665 126.886C45.5482 126.899 44.2357 125.778 44.2494 124.151C44.2357 122.497 45.5482 121.39 47.3665 121.39ZM47.3665 122.128C46.0404 122.128 45.0833 122.976 45.0833 124.151C45.0833 125.313 46.0404 126.161 47.3665 126.161C48.6927 126.161 49.6497 125.313 49.6497 124.151C49.6497 122.976 48.6927 122.128 47.3665 122.128ZM60.1935 124.521C60.1935 126.489 61.2873 128.513 62.9005 129.388L62.3947 130.044C61.1642 129.354 60.2277 128.014 59.797 126.476C59.3664 128.103 58.4435 129.545 57.213 130.304L56.6798 129.647C58.2931 128.704 59.3595 126.544 59.3732 124.521V123.81H56.9669V123.085H59.3732V121.239H60.2072V123.085H62.5724V123.81H60.1935V124.521ZM67.0021 120.788V132.847H66.1681V120.788H67.0021ZM64.5685 121.103V132.19H63.7482V126.353H61.6974V125.614H63.7482V121.103H64.5685ZM78.9267 120.788V123.837H80.7861V124.562H78.9267V127.665H78.0654V120.788H78.9267ZM75.6454 121.595C75.6454 124.575 73.4716 126.763 69.9169 127.733L69.5615 127.036C72.6103 126.195 74.5107 124.5 74.7294 122.319H70.081V121.595H75.6454ZM78.9267 128.253V132.669H71.3525V128.253H78.9267ZM72.2138 128.991V131.944H78.0654V128.991H72.2138ZM87.8162 121.007C90.4685 121.007 92.0408 121.745 92.0408 123.099C92.0408 124.466 90.4685 125.218 87.8162 125.218C85.1638 125.218 83.5916 124.466 83.5916 123.099C83.5916 121.745 85.1638 121.007 87.8162 121.007ZM87.8162 121.677C85.7517 121.677 84.4802 122.224 84.4802 123.099C84.4802 124.015 85.7517 124.548 87.8162 124.548C89.8943 124.548 91.1658 124.015 91.1658 123.099C91.1658 122.224 89.8943 121.677 87.8162 121.677ZM93.3259 126.12V126.831H82.3337V126.12H93.3259ZM91.8767 127.979V130.563H84.5623V131.985H92.2595V132.696H83.7283V129.894H91.0427V128.663H83.6873V127.979H91.8767ZM102.902 121.376C104.665 121.376 105.882 122.306 105.882 123.728C105.882 125.006 104.877 125.901 103.367 126.052V127.323C104.556 127.269 105.766 127.166 106.88 126.995L106.949 127.651C104.365 128.116 101.439 128.157 99.3197 128.157L99.2103 127.419C100.174 127.426 101.316 127.419 102.505 127.364V126.065C100.96 125.929 99.9212 125.026 99.9212 123.728C99.9212 122.306 101.138 121.376 102.902 121.376ZM102.902 122.046C101.63 122.046 100.728 122.743 100.742 123.728C100.728 124.712 101.63 125.396 102.902 125.409C104.187 125.396 105.062 124.712 105.076 123.728C105.062 122.743 104.187 122.046 102.902 122.046ZM108.548 120.788V124.972H110.435V125.71H108.548V130.03H107.687V120.788H108.548ZM108.999 131.808V132.546H101.029V129.224H101.89V131.808H108.999ZM116.016 122.771C116.016 124.521 117.369 126.038 119.092 126.64L118.6 127.31C117.26 126.797 116.139 125.771 115.619 124.438C115.12 125.949 113.951 127.104 112.502 127.679L112.037 126.968C113.815 126.325 115.168 124.726 115.182 122.798V121.485H116.016V122.771ZM121.949 120.788V127.952H121.088V124.206H118.272V123.481H121.088V120.788H121.949ZM117.985 128.308C120.473 128.321 121.99 129.142 121.99 130.577C121.99 131.999 120.473 132.806 117.985 132.806C115.496 132.806 113.979 131.999 113.992 130.577C113.979 129.142 115.496 128.321 117.985 128.308ZM117.985 129.019C116.057 129.019 114.826 129.606 114.84 130.577C114.826 131.521 116.057 132.108 117.985 132.108C119.912 132.108 121.143 131.521 121.143 130.577C121.143 129.606 119.912 129.019 117.985 129.019ZM134.202 120.788V123.933H136.061V124.671H134.202V127.774H133.341V120.788H134.202ZM127.503 128.321V129.729H133.341V128.321H134.202V132.669H126.655V128.321H127.503ZM127.503 131.958H133.341V130.427H127.503V131.958ZM132.042 122.101V122.812H124.851V122.101H128.022V120.665H128.87V122.101H132.042ZM128.446 123.454C130.169 123.454 131.317 124.274 131.317 125.56C131.317 126.845 130.169 127.679 128.446 127.665C126.696 127.679 125.561 126.845 125.561 125.56C125.561 124.274 126.696 123.454 128.446 123.454ZM128.446 124.138C127.202 124.124 126.368 124.712 126.382 125.56C126.368 126.407 127.202 126.995 128.446 126.995C129.677 126.995 130.497 126.407 130.511 125.56C130.497 124.712 129.677 124.124 128.446 124.138ZM147.48 120.788V132.847H146.633V120.788H147.48ZM139.277 121.978V128.923H139.386C141.273 128.923 143.174 128.772 145.252 128.335L145.375 129.087C143.228 129.538 141.342 129.688 139.386 129.688H138.429V121.978H139.277ZM159.692 120.788V125.655H161.77V126.38H159.692V132.86H158.831V120.788H159.692ZM151.885 129.06C154.182 129.06 155.741 128.978 157.573 128.636L157.696 129.388C155.795 129.729 154.223 129.812 151.885 129.812H150.956V121.978H156.575V122.702H151.817V129.06H151.885ZM164.398 131.849C163.988 131.849 163.66 131.521 163.66 131.124C163.66 130.714 163.988 130.386 164.398 130.386C164.794 130.386 165.122 130.714 165.122 131.124C165.122 131.521 164.794 131.849 164.398 131.849Z" fill="#1A1A1A"/>
</svg>
