<svg width="110" height="27" viewBox="0 0 110 27" fill="none" xmlns="http://www.w3.org/2000/svg">
<path d="M12.8929 25.496C13.8649 25.496 14.8009 25.1 15.4489 24.38L16.5289 23.228V26H0.0409375L0.112938 25.928C0.832938 25.28 1.22894 24.344 1.22894 23.372V3.428C1.22894 2.456 0.832938 1.52 0.112938 0.872L0.0409375 0.763999H16.5289V3.572L15.4489 2.42C14.8009 1.7 13.8649 1.304 12.8929 1.304H3.85694V13.148H7.70894C8.68094 13.148 9.61694 12.716 10.2649 12.032L11.3449 10.88V15.92L10.2649 14.768C9.61694 14.048 8.68094 13.652 7.70894 13.652H3.85694V25.496H12.8929ZM24.002 10.34H21.05V20.312C21.05 20.996 21.086 21.716 21.194 22.436C21.23 22.904 21.338 23.372 21.446 23.804C21.554 24.236 21.77 24.596 22.058 24.92C22.49 25.316 23.066 25.532 23.642 25.496V26C22.922 26.036 22.238 25.892 21.59 25.64C21.086 25.388 20.582 25.1 20.186 24.704C19.682 24.272 19.286 23.732 18.998 23.12C18.638 22.22 18.422 21.284 18.422 20.312V10.34H16.478C18.854 9.332 21.05 4.724 21.05 4.724V9.836H24.002V10.34ZM41.2261 25.928L41.3341 26H36.2581L36.3661 25.928C37.0861 25.28 37.4821 24.344 37.4821 23.372V15.992C37.4821 12.968 36.6541 10.664 34.6021 10.664C33.2341 10.7 31.9381 11.24 30.9301 12.176C30.2461 12.824 29.5981 13.58 29.0941 14.372V23.372C29.0941 24.344 29.4901 25.28 30.2101 25.928L30.3181 26.036H25.2781L25.3501 25.928C26.0701 25.28 26.4661 24.344 26.4661 23.372V6.164C26.4661 5.156 26.7181 4.184 27.1861 3.284C27.5101 2.672 27.9781 2.168 28.5181 1.808C28.9861 1.484 29.5261 1.232 30.0661 1.052C30.7141 0.872 31.3981 0.763999 32.0821 0.763999V1.304C31.0381 1.232 30.0661 1.88 29.6701 2.852C29.5261 3.248 29.3821 3.68 29.3101 4.148C29.1661 4.796 29.0941 5.48 29.0941 6.164V13.472C30.4621 11.636 32.6221 9.836 34.9981 9.836C35.3941 9.8 35.7901 9.836 36.1861 9.908C36.5461 9.98 36.8701 10.052 37.1941 10.196C37.7341 10.484 38.2381 10.844 38.6341 11.312C39.4621 12.248 40.0741 13.616 40.1101 16.028V23.372C40.1101 24.344 40.5061 25.28 41.2261 25.928ZM58.0465 21.32L58.5145 21.464L58.4425 21.716C58.4425 21.752 57.1105 25.82 51.4225 25.928H51.2065C51.2065 25.928 50.9185 25.928 50.8825 25.928C50.7385 25.928 50.5585 25.892 50.4145 25.892C49.6585 25.82 48.9025 25.64 48.1465 25.352C47.3905 25.1 46.6705 24.704 46.0225 24.236C45.2305 23.66 44.5825 22.976 44.1145 22.148C42.6025 19.52 42.6025 16.316 44.1145 13.688C44.5825 12.896 45.2305 12.176 46.0225 11.6C46.6705 11.132 47.3905 10.736 48.1465 10.484C48.9025 10.196 49.6585 10.016 50.4145 9.944C50.6665 9.908 50.9185 9.908 51.1705 9.908H51.4225C52.3945 9.944 53.3665 10.16 54.3025 10.52C56.1025 11.204 57.5065 12.68 58.1185 14.552C58.1905 14.696 58.2265 14.84 58.2625 14.984C58.2625 15.02 58.2625 15.02 58.2625 15.056H46.0225C45.7345 15.992 45.5905 16.964 45.5905 17.936C45.5905 19.016 45.7705 20.096 46.1305 21.14C46.3825 21.86 46.7065 22.508 47.1385 23.12C47.4985 23.732 47.9665 24.236 48.5425 24.596C49.1905 25.064 49.9465 25.316 50.7025 25.388C50.8465 25.388 50.9905 25.424 51.1705 25.424H51.2065C56.6785 25.388 57.9025 21.716 57.9385 21.572L58.0465 21.32ZM47.1385 12.716C46.7425 13.292 46.4545 13.904 46.2025 14.552H55.8145C55.7425 14.048 55.5985 13.616 55.3825 13.184C55.0225 12.464 54.4825 11.816 53.8345 11.348C53.0785 10.772 52.1425 10.448 51.1705 10.412H51.1345L51.0985 10.448C50.1625 10.448 49.2985 10.736 48.5065 11.24C47.9665 11.636 47.4985 12.14 47.1385 12.716ZM70.7213 11.204C70.7213 11.24 70.7573 11.312 70.7573 11.348C70.7573 11.564 70.6853 11.78 70.5413 11.96C70.3253 12.176 70.1093 12.392 69.8573 12.572C69.7133 12.716 69.4973 12.788 69.3173 12.86H69.2813C69.2093 12.86 69.1373 12.86 69.0653 12.86C69.0293 12.824 68.9933 12.824 68.9573 12.788C68.6333 12.356 68.1293 12.104 67.5893 12.104C66.9053 12.14 66.2213 12.392 65.6813 12.824C65.0333 13.328 64.5653 13.976 64.2413 14.732C64.2413 14.876 64.2413 15.056 64.2413 15.2H64.2773V23.372C64.2773 24.344 64.6733 25.28 65.3933 25.928L65.4653 26.036H60.4253L60.5333 25.928C61.2533 25.28 61.6493 24.344 61.6493 23.372V15.2C61.6493 14.552 61.5773 13.868 61.4333 13.184C61.3613 12.752 61.2173 12.32 61.0733 11.888C60.6773 10.916 59.7053 10.304 58.6613 10.34V9.836C59.3453 9.836 60.0293 9.908 60.6773 10.124C61.2173 10.268 61.7573 10.52 62.2253 10.844C62.7653 11.24 63.2333 11.744 63.5573 12.32C63.8093 12.788 63.9893 13.256 64.0973 13.724C64.3493 13.184 64.6373 12.68 64.9973 12.176C65.5373 11.384 66.3293 10.772 67.2293 10.448C68.0213 10.16 68.8853 10.196 69.6773 10.484C69.8213 10.52 69.9653 10.592 70.0733 10.628L70.4333 10.844C70.5773 10.916 70.6853 11.06 70.7213 11.204ZM86.1715 21.32L86.6395 21.464L86.5675 21.716C86.5675 21.752 85.2355 25.82 79.5475 25.928H79.3315C79.3315 25.928 79.0435 25.928 79.0075 25.928C78.8635 25.928 78.6835 25.892 78.5395 25.892C77.7835 25.82 77.0275 25.64 76.2715 25.352C75.5155 25.1 74.7955 24.704 74.1475 24.236C73.3555 23.66 72.7075 22.976 72.2395 22.148C70.7275 19.52 70.7275 16.316 72.2395 13.688C72.7075 12.896 73.3555 12.176 74.1475 11.6C74.7955 11.132 75.5155 10.736 76.2715 10.484C77.0275 10.196 77.7835 10.016 78.5395 9.944C78.7915 9.908 79.0435 9.908 79.2955 9.908H79.5475C80.5195 9.944 81.4915 10.16 82.4275 10.52C84.2275 11.204 85.6315 12.68 86.2435 14.552C86.3155 14.696 86.3515 14.84 86.3875 14.984C86.3875 15.02 86.3875 15.02 86.3875 15.056H74.1475C73.8595 15.992 73.7155 16.964 73.7155 17.936C73.7155 19.016 73.8955 20.096 74.2555 21.14C74.5075 21.86 74.8315 22.508 75.2635 23.12C75.6235 23.732 76.0915 24.236 76.6675 24.596C77.3155 25.064 78.0715 25.316 78.8275 25.388C78.9715 25.388 79.1155 25.424 79.2955 25.424H79.3315C84.8035 25.388 86.0275 21.716 86.0635 21.572L86.1715 21.32ZM75.2635 12.716C74.8675 13.292 74.5795 13.904 74.3275 14.552H83.9395C83.8675 14.048 83.7235 13.616 83.5075 13.184C83.1475 12.464 82.6075 11.816 81.9595 11.348C81.2035 10.772 80.2675 10.448 79.2955 10.412H79.2595L79.2235 10.448C78.2875 10.448 77.4235 10.736 76.6315 11.24C76.0915 11.636 75.6235 12.14 75.2635 12.716ZM103.002 26L99.1501 26.036V24.092C98.6821 24.452 98.1781 24.776 97.6381 25.064C97.1341 25.316 96.5941 25.532 96.0541 25.64C95.6941 25.748 95.3341 25.82 94.9741 25.892C94.1461 26.036 93.3181 26.036 92.5261 25.928C91.6621 25.82 90.8701 25.532 90.1501 25.064L89.8621 24.884C89.7541 24.812 89.6821 24.74 89.5741 24.632C89.3941 24.488 89.2141 24.272 89.0701 24.092C88.9261 23.84 88.7821 23.624 88.6741 23.372C88.5661 23.12 88.4941 22.904 88.4221 22.652C88.2061 21.716 88.2781 20.708 88.6381 19.808C88.9981 18.98 89.5381 18.296 90.2221 17.756C90.9421 17.252 91.6981 16.856 92.4901 16.568C93.3181 16.244 94.1821 15.992 95.0461 15.812C98.8261 14.876 98.9701 13.652 98.9701 13.616H99.0061C98.9701 13.436 98.9341 13.256 98.8981 13.076C98.7901 12.644 98.6101 12.212 98.3581 11.816C98.1421 11.42 97.8181 11.096 97.4581 10.844C96.9181 10.484 96.3061 10.34 95.6581 10.34C94.8661 10.34 94.1101 10.592 93.4621 11.06C92.4541 11.852 91.8421 13.04 91.8061 14.336C91.7701 14.588 91.4101 14.696 90.9421 14.66C90.6181 14.66 90.3301 14.624 90.0421 14.516C89.5741 14.372 89.2861 13.976 89.4661 13.688C89.7901 12.86 90.2941 12.14 90.9061 11.528C91.4821 10.916 92.2381 10.448 93.0301 10.196C93.8941 9.944 94.7581 9.8 95.6581 9.836C96.3781 9.836 97.0621 9.908 97.7821 10.052C98.3581 10.16 98.8981 10.376 99.4021 10.628C100.05 10.988 100.554 11.492 100.95 12.104C101.49 13.004 101.778 14.084 101.778 15.128V23.372C101.778 24.344 102.174 25.28 102.894 25.928L103.002 26ZM97.3861 24.596C98.0341 24.272 98.6101 23.876 99.1501 23.408V15.128C99.1501 14.876 99.1501 14.66 99.1141 14.444C98.6461 14.984 97.5661 15.74 95.1541 16.316C93.3181 16.784 92.0221 17.756 91.3741 18.836C91.0861 19.304 90.8701 19.88 90.8341 20.42C90.7981 20.96 90.8341 21.5 90.9781 22.004C90.9781 22.148 91.0501 22.292 91.0861 22.436C91.1221 22.508 91.1221 22.616 91.1941 22.724C91.2301 22.832 91.3021 22.94 91.3741 23.012L91.4821 23.192L91.5901 23.336C91.9861 23.768 92.4541 24.164 92.9581 24.452C93.5701 24.776 94.2541 24.992 94.9741 25.064C95.8021 25.136 96.6301 24.956 97.3861 24.596ZM105.707 23.372V6.164C105.707 5.48 105.635 4.796 105.491 4.148C105.419 3.68 105.275 3.248 105.131 2.852C104.735 1.88 103.763 1.232 102.719 1.304V0.763999C103.403 0.763999 104.087 0.872 104.735 1.052C105.275 1.232 105.815 1.484 106.283 1.808C106.823 2.168 107.291 2.672 107.615 3.284C108.083 4.184 108.335 5.156 108.299 6.164V23.372C108.299 24.344 108.731 25.28 109.451 25.928L109.523 26H104.483L104.591 25.928C105.311 25.28 105.707 24.344 105.707 23.372Z" fill="#1A1A1A"/>
</svg>
