<svg width="135" height="28" viewBox="0 0 135 28" fill="none" xmlns="http://www.w3.org/2000/svg">
<path d="M0.146262 27V0.818181H15.9474V3.63068H3.31672V12.4773H15.1292V15.2898H3.31672V24.1875H16.1519V27H0.146262ZM29.7926 7.36364V9.92045H25.5994V21.375C25.5994 23.9318 26.8778 24.3409 28.2073 24.3409C28.8721 24.3409 29.2812 24.2386 29.5369 24.1875L30.1505 26.8977C29.7414 27.0511 29.0255 27.2557 27.9005 27.2557C25.3437 27.2557 22.5823 25.6193 22.5823 22.1932V9.92045H19.6164V7.36364H22.5823V2.65909H25.5994V7.36364H29.7926ZM37.7698 15.1875V27H34.7528V0.818181H37.7698V10.4318H38.0255C38.946 8.39915 40.7102 7.10795 43.8039 7.10795C47.8181 7.10795 50.5028 9.47301 50.5028 14.5227V27H47.4858V14.7273C47.4858 11.608 45.7727 9.81818 42.9346 9.81818C39.9559 9.81818 37.7698 11.7614 37.7698 15.1875ZM64.2553 27.4091C58.5791 27.4091 55.1019 23.3693 55.1019 17.3352C55.1019 11.3011 58.6303 7.10795 63.9485 7.10795C68.0394 7.10795 72.386 9.61364 72.386 16.9261V18.2045H58.1317C58.2723 22.4105 60.7141 24.6989 64.2553 24.6989C66.6203 24.6989 68.3973 23.6761 69.1644 21.6307L72.0791 22.4489C71.1587 25.4148 68.2439 27.4091 64.2553 27.4091ZM58.1317 15.5966H69.3178C69.3178 12.2727 67.2212 9.81818 63.9485 9.81818C60.4968 9.81818 58.3362 12.5412 58.1317 15.5966ZM76.9755 27V7.36364H79.8902V10.3295H80.0948C80.8107 8.38636 82.8561 7.05682 85.2084 7.05682C85.6559 7.05682 86.4485 7.08239 86.7936 7.10795V10.1761C86.5891 10.125 85.7581 9.97159 84.9527 9.97159C82.0891 9.97159 79.9925 11.9148 79.9925 14.5739V27H76.9755ZM98.0053 27.4091C92.3291 27.4091 88.8519 23.3693 88.8519 17.3352C88.8519 11.3011 92.3803 7.10795 97.6985 7.10795C101.789 7.10795 106.136 9.61364 106.136 16.9261V18.2045H91.8817C92.0223 22.4105 94.4641 24.6989 98.0053 24.6989C100.37 24.6989 102.147 23.6761 102.914 21.6307L105.829 22.4489C104.909 25.4148 101.994 27.4091 98.0053 27.4091ZM91.8817 15.5966H103.068C103.068 12.2727 100.971 9.81818 97.6985 9.81818C94.2468 9.81818 92.0862 12.5412 91.8817 15.5966ZM116.504 27.4602C112.771 27.4602 109.805 25.2614 109.805 21.4261C109.805 16.9261 113.781 16.1207 117.424 15.6477C121.004 15.1875 122.487 15.3153 122.487 13.858V13.7557C122.487 11.2372 121.119 9.76705 118.345 9.76705C115.468 9.76705 113.896 11.3011 113.231 12.733L110.367 11.7102C111.902 8.13068 115.277 7.10795 118.242 7.10795C120.748 7.10795 125.504 7.82386 125.504 14.0625V27H122.487V24.3409H122.333C121.72 25.6193 119.93 27.4602 116.504 27.4602ZM116.964 24.75C120.544 24.75 122.487 22.3466 122.487 19.892V17.1307C121.975 17.7443 118.549 18.1023 117.271 18.2557C114.919 18.5625 112.822 19.2784 112.822 21.5795C112.822 23.6761 114.561 24.75 116.964 24.75ZM134.028 0.818181V27H131.011V0.818181H134.028Z" fill="#1A1A1A"/>
</svg>
