<svg width="115" height="27" viewBox="0 0 115 27" fill="none" xmlns="http://www.w3.org/2000/svg">
<path d="M16.6337 19.124C16.8857 21.464 15.6977 23.732 13.5737 24.812C12.8537 25.208 12.0977 25.496 11.3057 25.676C10.6937 25.82 10.0817 25.928 9.46973 25.964H9.36174C9.25373 25.964 9.18173 26 9.07373 26C8.85774 26 8.60573 26 8.38973 26C7.41773 26.036 6.44573 25.928 5.47373 25.784C3.63773 25.424 1.94573 24.596 0.577734 23.372C0.469734 23.228 0.397734 23.012 0.433734 22.796C0.433734 22.58 0.577734 22.4 0.721734 22.292C0.973734 22.076 1.22573 21.932 1.47773 21.788C1.90973 21.572 2.30573 21.572 2.44973 21.788C3.24173 23.12 4.39373 24.164 5.76173 24.848C6.58973 25.28 7.48973 25.496 8.38973 25.496C8.42573 25.496 8.46174 25.496 8.49773 25.496C9.43374 25.496 10.3337 25.352 11.1977 25.064C11.9177 24.848 12.5657 24.524 13.1777 24.092C14.1137 23.372 14.7257 22.328 14.8697 21.14C14.9417 20.6 14.8697 20.024 14.7257 19.448C14.6177 19.16 14.5097 18.872 14.3657 18.62C14.2937 18.476 14.1857 18.332 14.1137 18.224C14.0057 18.08 13.8977 17.972 13.7897 17.864C13.1417 17.288 12.3857 16.82 11.5937 16.46C10.6217 15.92 9.54174 15.416 8.24573 14.768C7.02173 14.228 5.86973 13.58 4.75373 12.86C3.78173 12.284 2.95373 11.528 2.23373 10.628C1.62173 9.872 1.18973 9.008 0.973734 8.036C0.829734 7.208 0.865734 6.38 1.08173 5.588C1.51373 4.148 2.41373 2.924 3.63773 2.132C4.93373 1.268 6.62573 0.763999 8.82173 0.763999C9.82973 0.763999 10.8017 0.907999 11.7377 1.16C12.6377 1.412 13.4657 1.844 14.1857 2.384C14.9417 2.96 15.5897 3.644 16.1297 4.4C16.2377 4.58 16.2737 4.796 16.2017 5.012C16.1297 5.192 15.9857 5.336 15.8057 5.444C15.5177 5.588 15.2297 5.696 14.9417 5.768C14.4737 5.912 14.0777 5.84 14.0057 5.552C13.5377 4.112 12.6017 2.888 11.3417 2.06C10.5857 1.556 9.72173 1.304 8.82173 1.304C6.69773 1.304 5.14973 1.916 4.17773 2.816C3.27773 3.572 2.70173 4.688 2.62973 5.876C2.55773 6.992 2.88173 8.072 3.96173 9.152C4.60973 9.764 5.29373 10.304 6.08573 10.736C6.98573 11.276 8.06573 11.816 9.36174 12.428C10.0097 12.752 10.6217 13.04 11.1977 13.328C11.4857 13.508 11.8097 13.652 12.0617 13.796L12.8177 14.228C13.8257 14.804 14.7257 15.488 15.5177 16.352C15.6977 16.568 15.8417 16.82 15.9857 17.072C16.0937 17.288 16.2017 17.504 16.3097 17.756C16.4537 18.188 16.5617 18.656 16.6337 19.124ZM34.3843 25.928L34.4923 26H29.4163L29.5243 25.928C30.2443 25.28 30.6403 24.344 30.6403 23.372V15.992C30.6403 12.968 29.8123 10.664 27.7603 10.664C26.3923 10.7 25.0963 11.24 24.0883 12.176C23.4043 12.824 22.7563 13.58 22.2523 14.372V23.372C22.2523 24.344 22.6483 25.28 23.3683 25.928L23.4763 26.036H18.4363L18.5083 25.928C19.2283 25.28 19.6243 24.344 19.6243 23.372V6.164C19.6243 5.156 19.8763 4.184 20.3443 3.284C20.6683 2.672 21.1363 2.168 21.6763 1.808C22.1443 1.484 22.6843 1.232 23.2243 1.052C23.8723 0.872 24.5563 0.763999 25.2403 0.763999V1.304C24.1963 1.232 23.2243 1.88 22.8283 2.852C22.6843 3.248 22.5403 3.68 22.4683 4.148C22.3243 4.796 22.2523 5.48 22.2523 6.164V13.472C23.6203 11.636 25.7803 9.836 28.1563 9.836C28.5523 9.8 28.9483 9.836 29.3443 9.908C29.7043 9.98 30.0283 10.052 30.3523 10.196C30.8923 10.484 31.3963 10.844 31.7923 11.312C32.6203 12.248 33.2323 13.616 33.2683 16.028V23.372C33.2683 24.344 33.6643 25.28 34.3843 25.928ZM50.8087 26L46.9567 26.036V24.092C46.4887 24.452 45.9847 24.776 45.4447 25.064C44.9407 25.316 44.4007 25.532 43.8607 25.64C43.5007 25.748 43.1407 25.82 42.7807 25.892C41.9527 26.036 41.1247 26.036 40.3327 25.928C39.4687 25.82 38.6767 25.532 37.9567 25.064L37.6687 24.884C37.5607 24.812 37.4887 24.74 37.3807 24.632C37.2007 24.488 37.0207 24.272 36.8767 24.092C36.7327 23.84 36.5887 23.624 36.4807 23.372C36.3727 23.12 36.3007 22.904 36.2287 22.652C36.0127 21.716 36.0847 20.708 36.4447 19.808C36.8047 18.98 37.3447 18.296 38.0287 17.756C38.7487 17.252 39.5047 16.856 40.2967 16.568C41.1247 16.244 41.9887 15.992 42.8527 15.812C46.6327 14.876 46.7767 13.652 46.7767 13.616H46.8127C46.7767 13.436 46.7407 13.256 46.7047 13.076C46.5967 12.644 46.4167 12.212 46.1647 11.816C45.9487 11.42 45.6247 11.096 45.2647 10.844C44.7247 10.484 44.1127 10.34 43.4647 10.34C42.6727 10.34 41.9167 10.592 41.2687 11.06C40.2607 11.852 39.6487 13.04 39.6127 14.336C39.5767 14.588 39.2167 14.696 38.7487 14.66C38.4247 14.66 38.1367 14.624 37.8487 14.516C37.3807 14.372 37.0927 13.976 37.2727 13.688C37.5967 12.86 38.1007 12.14 38.7127 11.528C39.2887 10.916 40.0447 10.448 40.8367 10.196C41.7007 9.944 42.5647 9.8 43.4647 9.836C44.1847 9.836 44.8687 9.908 45.5887 10.052C46.1647 10.16 46.7047 10.376 47.2087 10.628C47.8567 10.988 48.3607 11.492 48.7567 12.104C49.2967 13.004 49.5847 14.084 49.5847 15.128V23.372C49.5847 24.344 49.9807 25.28 50.7007 25.928L50.8087 26ZM45.1927 24.596C45.8407 24.272 46.4167 23.876 46.9567 23.408V15.128C46.9567 14.876 46.9567 14.66 46.9207 14.444C46.4527 14.984 45.3727 15.74 42.9607 16.316C41.1247 16.784 39.8287 17.756 39.1807 18.836C38.8927 19.304 38.6767 19.88 38.6407 20.42C38.6047 20.96 38.6407 21.5 38.7847 22.004C38.7847 22.148 38.8567 22.292 38.8927 22.436C38.9287 22.508 38.9287 22.616 39.0007 22.724C39.0367 22.832 39.1087 22.94 39.1807 23.012L39.2887 23.192L39.3967 23.336C39.7927 23.768 40.2607 24.164 40.7647 24.452C41.3767 24.776 42.0607 24.992 42.7807 25.064C43.6087 25.136 44.4367 24.956 45.1927 24.596ZM67.8052 26L63.9892 26.036V23.444C62.8732 25.028 61.3252 26 59.5972 26C59.3452 26 59.0932 26 58.8412 25.964C58.1212 25.856 57.4372 25.64 56.7892 25.28C56.1052 24.956 55.4932 24.488 54.9172 23.984C54.2692 23.372 53.7652 22.652 53.3692 21.824C52.2532 19.34 52.2532 16.496 53.3692 14.012C53.7652 13.22 54.2692 12.464 54.9172 11.852C55.4932 11.348 56.1052 10.916 56.7892 10.556C57.4372 10.232 58.1212 9.98 58.8412 9.872C59.0932 9.836 59.3452 9.836 59.5972 9.836C61.3252 9.836 62.8732 10.808 63.9892 12.392V6.272C63.9892 5.552 63.9172 4.868 63.7732 4.184C63.6652 3.752 63.5572 3.32 63.3772 2.888C63.2332 2.492 62.9452 2.132 62.6212 1.844C62.1532 1.484 61.5772 1.268 60.9652 1.304V0.763999C61.6492 0.763999 62.3692 0.872 63.0172 1.088C63.5572 1.268 64.0972 1.52 64.5652 1.844C65.1052 2.24 65.5732 2.744 65.8972 3.356C66.3652 4.256 66.5812 5.228 66.5812 6.272V23.372C66.5812 24.344 66.9772 25.28 67.6972 25.928L67.8052 26ZM59.5972 25.496C61.3612 25.496 62.9812 24.308 63.9892 22.472V13.364C62.9812 11.528 61.3612 10.34 59.5972 10.34H59.5252C58.6972 10.376 57.8692 10.7 57.2572 11.276C56.7892 11.708 56.4292 12.212 56.1772 12.788C55.8892 13.436 55.6732 14.12 55.5292 14.804C54.9892 16.856 54.9892 18.98 55.5292 21.032C55.6732 21.716 55.8892 22.4 56.1772 23.048C56.4292 23.624 56.7892 24.164 57.2572 24.596C57.9052 25.172 58.7332 25.496 59.5972 25.496ZM84.8551 13.688C86.3671 16.316 86.3671 19.52 84.8551 22.148C84.3871 23.012 83.7391 23.732 82.9471 24.272C82.2991 24.776 81.5791 25.172 80.7871 25.424C80.0671 25.712 79.3111 25.892 78.5191 25.964C78.2671 26 78.0511 26 77.7991 26H77.7631C77.5111 26 77.2591 26 77.0431 25.964C76.2511 25.892 75.4951 25.712 74.7751 25.424C73.9831 25.172 73.2631 24.776 72.6151 24.272C71.8231 23.732 71.1751 23.012 70.6711 22.148C69.1951 19.52 69.1951 16.316 70.6711 13.688C71.1751 12.86 71.8231 12.104 72.6151 11.564C73.2631 11.06 73.9831 10.664 74.7751 10.412C75.4951 10.124 76.2511 9.944 77.0431 9.872C77.2591 9.836 77.5111 9.836 77.7631 9.836C78.0151 9.836 78.2671 9.836 78.5191 9.872C79.3111 9.944 80.0671 10.124 80.7871 10.412C81.5791 10.664 82.2991 11.06 82.9471 11.564C83.7391 12.104 84.3871 12.86 84.8551 13.688ZM82.8031 21.176C83.5591 19.052 83.5591 16.784 82.8031 14.66C82.5871 13.94 82.2271 13.292 81.8311 12.644C81.4711 12.068 80.9671 11.564 80.4271 11.168C79.6351 10.628 78.7351 10.34 77.7631 10.34H77.7271C76.7911 10.34 75.8911 10.628 75.1351 11.168C74.5591 11.564 74.0911 12.068 73.7311 12.644C73.2991 13.292 72.9751 13.94 72.7591 14.66C72.0031 16.784 72.0031 19.052 72.7591 21.176C72.9751 21.896 73.2991 22.58 73.7311 23.192C74.0911 23.768 74.5591 24.308 75.1351 24.704C75.9271 25.208 76.8271 25.496 77.7631 25.496H77.7991H77.8351C78.7711 25.496 79.6711 25.208 80.4271 24.668C81.0031 24.272 81.4711 23.768 81.8311 23.192C82.2271 22.544 82.5871 21.896 82.8031 21.176ZM110.953 9.836H114.337C113.041 10.592 111.997 11.708 111.349 13.076L105.265 26L100.009 14.912L94.7889 26.036L89.6049 15.092C88.8849 13.472 88.5249 12.644 88.0929 11.924C87.8769 11.492 87.5529 11.132 87.1569 10.88C86.6169 10.52 85.9689 10.34 85.3209 10.34V9.836C86.0409 9.836 86.7609 9.908 87.4809 10.088C88.0569 10.232 88.6329 10.448 89.1369 10.772C90.1089 11.312 91.0449 12.212 91.9809 13.976L92.2329 14.552L95.9409 22.364L101.161 11.24L106.417 22.364L111.385 11.78C111.709 11.096 111.529 10.304 110.953 9.836Z" fill="#1A1A1A"/>
</svg>
