<svg width="56" height="83" viewBox="0 0 56 83" fill="none" xmlns="http://www.w3.org/2000/svg">
<g filter="url(#filter0_f_2198_275)">
<ellipse cx="33.1074" cy="25.7166" rx="10.2383" ry="16.5496" fill="#A7C7E7"/>
<path d="M40.8312 59.4529C41.0731 55.3155 38.7484 49.8167 37.2692 47.0904C36.6399 45.5576 37.861 46.4201 38.2129 46.7351C44.3687 52.2388 45.943 58.0269 46.1387 60.584C46.3418 63.2382 44.9996 70.416 40.8312 72.7318C37.0725 74.8201 37.2928 71.9532 37.8728 70.416C38.6269 68.4728 40.4673 65.6798 40.8312 59.4529Z" fill="#A7C7E7"/>
<path d="M10.4097 57.9801C18.8506 53.9431 25.5011 48.6523 27.7713 46.5115C27.9448 46.3479 28.439 45.9311 28.6813 46.1172C28.9233 46.3032 28.9141 47.0911 27.7713 48.77C24.9129 52.9692 21.2785 55.6511 18.1732 57.6978C15.0678 59.7445 11.7861 60.0268 10.6922 60.1326C9.59826 60.2385 7.69272 59.2504 10.4097 57.9801Z" fill="#A7C7E7"/>
<path d="M27.2577 58.5544C25.0423 61.6559 20.6118 65.3388 18.6734 66.7925C17.8232 67.357 16.5557 68.5566 18.2876 68.839C20.0195 69.1214 22.6355 68.423 23.7271 68.0386C25.827 67.3001 30.5807 64.6048 32.796 59.7311C35.0896 54.6852 34.7306 50.398 33.7773 47.888C33.4991 47.1557 32.9245 45.8119 32.4154 47.3883C30.9616 51.8882 30.0269 54.6776 27.2577 58.5544Z" fill="#A7C7E7"/>
</g>
<ellipse cx="33.1074" cy="25.7166" rx="10.2383" ry="16.5496" fill="#1A1A1A"/>
<path d="M40.8312 59.4529C41.0731 55.3155 38.7484 49.8167 37.2692 47.0904C36.6399 45.5576 37.861 46.4201 38.2129 46.7351C44.3687 52.2388 45.943 58.0269 46.1387 60.584C46.3418 63.2382 44.9996 70.416 40.8312 72.7318C37.0725 74.8201 37.2928 71.9532 37.8728 70.416C38.6269 68.4728 40.4673 65.6798 40.8312 59.4529Z" fill="#1A1A1A"/>
<path d="M10.4097 57.9801C18.8506 53.9431 25.5011 48.6523 27.7713 46.5115C27.9448 46.3479 28.439 45.9311 28.6813 46.1172C28.9233 46.3032 28.9141 47.0911 27.7713 48.77C24.9129 52.9692 21.2785 55.6511 18.1732 57.6978C15.0678 59.7445 11.7861 60.0268 10.6922 60.1326C9.59826 60.2385 7.69272 59.2504 10.4097 57.9801Z" fill="#1A1A1A"/>
<path d="M27.2577 58.5544C25.0423 61.6559 20.6118 65.3388 18.6734 66.7925C17.8232 67.357 16.5557 68.5566 18.2876 68.839C20.0195 69.1214 22.6355 68.423 23.7271 68.0386C25.827 67.3001 30.5807 64.6048 32.796 59.7311C35.0896 54.6852 34.7306 50.398 33.7773 47.888C33.4991 47.1557 32.9245 45.8119 32.4154 47.3883C30.9616 51.8882 30.0269 54.6776 27.2577 58.5544Z" fill="#1A1A1A"/>
<defs>
<filter id="filter0_f_2198_275" x="0.116602" y="0.266993" width="54.9416" height="82.0998" filterUnits="userSpaceOnUse" color-interpolation-filters="sRGB">
<feFlood flood-opacity="0" result="BackgroundImageFix"/>
<feBlend mode="normal" in="SourceGraphic" in2="BackgroundImageFix" result="shape"/>
<feGaussianBlur stdDeviation="4.45" result="effect1_foregroundBlur_2198_275"/>
</filter>
</defs>
</svg>
