<svg width="233" height="103" viewBox="0 0 233 103" fill="none" xmlns="http://www.w3.org/2000/svg">
<path d="M37.9709 0.788086V10.0029H37.1096V7.2959H34.8537V6.58496H37.1096V4.80762H34.8537V4.06934H37.1096V0.788086H37.9709ZM34.9084 2.33301V3.05762H28.0315V2.33301H31.0803V0.788086H31.928V2.33301H34.9084ZM31.5041 3.7959C33.1037 3.7959 34.2112 4.69824 34.2112 6.0791C34.2112 7.44629 33.1037 8.3623 31.5041 8.3623C29.8908 8.3623 28.7834 7.44629 28.7971 6.0791C28.7834 4.69824 29.8908 3.7959 31.5041 3.7959ZM31.5041 4.49316C30.3694 4.50684 29.5901 5.16309 29.6037 6.0791C29.5901 7.00879 30.3694 7.66504 31.5041 7.66504C32.6252 7.66504 33.3908 7.00879 33.4045 6.0791C33.3908 5.16309 32.6252 4.50684 31.5041 4.49316ZM38.258 11.835V12.5596H30.2463V9.16895H31.1076V11.835H38.258ZM50.7295 0.788086V7.09082H49.8819V0.788086H50.7295ZM50.7432 7.71973V10.4814H43.8526V11.9717H51.208V12.6963H43.0186V9.79785H49.8955V8.43066H42.9776V7.71973H50.7432ZM44.9873 2.08691C44.9737 3.86426 46.4229 5.39551 48.1592 5.99707L47.708 6.68066C46.293 6.16797 45.1035 5.10156 44.5635 3.71387C44.044 5.19727 42.8408 6.36621 41.419 6.91309L40.9678 6.21582C42.7041 5.58691 44.1123 3.94629 44.126 2.08691V1.15723H44.9873V2.08691ZM60.2889 2.15527V2.6748C60.2752 3.57715 60.2752 5.2041 59.9198 7.51465L59.0584 7.44629C59.4002 5.32715 59.4276 3.80957 59.4276 2.87988H54.1912V2.15527H60.2889ZM57.0897 5.60059V9.31934C58.4705 9.27148 59.8856 9.18262 61.1776 9.01855L61.2323 9.68848C58.6756 10.0713 55.7908 10.126 53.6307 10.126L53.494 9.37402C54.3211 9.37402 55.2576 9.36719 56.2283 9.34668V5.60059H57.0897ZM62.8592 0.788086V5.90137H64.9237V6.65332H62.8592V12.8467H61.9979V0.788086H62.8592ZM75.4565 1.37598V1.6084C75.4565 2.19629 75.4565 3.61133 74.9916 5.57324H78.9565C79.3188 3.98047 79.3735 2.83203 79.3803 2.10059H76.4272V1.37598H80.2143V1.75879C80.2143 2.42188 80.2143 3.73438 79.8315 5.57324H81.5405V6.29785H76.3998V8.49902H80.1186V12.6689H71.8881V8.49902H75.5658V6.29785H70.5072V5.57324H74.1303C74.5063 4.00098 74.5883 2.83203 74.6088 2.10059H71.601V1.37598H75.4565ZM72.7358 9.20996V11.9443H79.2709V9.20996H72.7358ZM87.258 1.69043C89.1584 1.69043 90.4709 2.8252 90.4846 4.47949C90.4709 6.14746 89.1584 7.26855 87.258 7.26855C85.3713 7.26855 84.0315 6.14746 84.0315 4.47949C84.0315 2.8252 85.3713 1.69043 87.258 1.69043ZM87.258 2.45605C85.8772 2.45605 84.8655 3.30371 84.8791 4.47949C84.8655 5.65527 85.8772 6.5166 87.258 6.50293C88.6389 6.5166 89.6369 5.65527 89.6369 4.47949C89.6369 3.30371 88.6389 2.45605 87.258 2.45605ZM93.1233 0.788086V12.8604H92.2619V0.788086H93.1233ZM83.3752 9.37402C85.6311 9.3877 88.7209 9.37402 91.428 8.96387L91.4963 9.62012C88.7073 10.1396 85.6994 10.1396 83.5119 10.1396L83.3752 9.37402ZM110.123 0.788086V8.12988H109.262V6.36621H105.885V5.62793H109.262V3.83691H106.035C105.228 5.79883 103.307 7.24121 100.73 8.02051L100.361 7.32324C103.314 6.42773 105.297 4.69141 105.502 2.45605H100.976V1.71777H106.431C106.431 2.2168 106.37 2.68848 106.254 3.13965H109.262V0.788086H110.123ZM106.199 8.23926C108.646 8.23926 110.191 9.08691 110.191 10.5088C110.191 11.9443 108.646 12.792 106.199 12.792C103.738 12.792 102.193 11.9443 102.193 10.5088C102.193 9.08691 103.738 8.23926 106.199 8.23926ZM106.199 8.9502C104.285 8.9502 103.041 9.53809 103.041 10.5088C103.041 11.4795 104.285 12.0811 106.199 12.0811C108.086 12.0811 109.33 11.4795 109.33 10.5088C109.33 9.53809 108.086 8.9502 106.199 8.9502ZM123.264 0.788086V12.8467H122.43V0.788086H123.264ZM120.844 1.12988V12.2041H120.01V7.95215H117.604V7.22754H120.01V4.91699H117.809C117.208 6.98145 115.847 8.83398 113.557 10.208L113.038 9.5791C115.717 7.97949 117.112 5.64844 117.317 3.08496H113.516V2.34668H118.151C118.151 2.96875 118.096 3.59082 117.973 4.19238H120.01V1.12988H120.844ZM136.078 0.788086V12.8467H135.244V0.788086H136.078ZM133.685 1.06152V12.2178H132.851V6.29785H131.115C131.012 8.63574 130.007 10.1123 128.517 10.1123C126.958 10.1123 125.947 8.49902 125.947 5.9834C125.947 3.4541 126.958 1.85449 128.517 1.85449C129.987 1.85449 130.985 3.27637 131.101 5.55957H132.851V1.06152H133.685ZM128.517 2.66113C127.451 2.66113 126.753 3.9873 126.767 5.9834C126.753 7.96582 127.451 9.30566 128.517 9.30566C129.597 9.30566 130.294 7.96582 130.294 5.9834C130.294 3.9873 129.597 2.66113 128.517 2.66113ZM142.711 4.19238C142.711 6.33887 144.283 8.54004 145.951 9.31934L145.432 10.0303C144.072 9.3125 142.827 7.78809 142.301 6.02441C141.768 7.88379 140.537 9.50391 139.184 10.249L138.623 9.56543C140.291 8.71777 141.836 6.39355 141.85 4.19238V1.86816H142.711V4.19238ZM148.522 0.788086V12.8604H147.674V5.72363H144.639V4.99902H147.674V0.788086H148.522ZM165.207 6.28418V7.00879H156.853V1.84082H157.715V6.28418H165.207ZM166.506 10.3584V11.0967H155.459V10.3584H166.506ZM178.157 0.788086V12.8467H177.309V8.08887H174.069C173.652 9.07324 173.098 10.0234 172.36 10.8779L171.635 10.4131C173.59 8.21875 174.213 5.2998 174.301 2.85254H172.223V2.11426H175.122C175.122 2.76367 175.094 3.4541 175.012 4.17871H177.309V0.788086H178.157ZM171.868 2.11426C171.868 4.84863 171.061 7.77441 168.86 10.0576L168.176 9.55176C170.036 7.68555 170.897 5.24512 171.047 2.85254H168.546V2.11426H171.868ZM174.342 7.35059H177.309V4.88965H174.93C174.8 5.70312 174.616 6.53027 174.342 7.35059ZM185.255 4.62988C185.255 6.69434 186.91 8.78613 188.605 9.52441L188.113 10.208C186.725 9.55859 185.399 8.11621 184.831 6.39355C184.271 8.20508 182.952 9.80469 181.605 10.5088L181.085 9.8252C182.726 9.01855 184.38 6.72168 184.394 4.62988V2.78418H181.455V2.0459H188.236V2.78418H185.255V4.62988ZM190.956 0.788086V12.8467H190.095V0.788086H190.956ZM203.592 4.54785V5.27246H195.389V1.22559H196.237V4.54785H203.592ZM204.877 7.02246V7.7334H193.844V7.02246H204.877ZM203.66 11.8076V12.5459H195.334V9.0459H196.182V11.8076H203.66ZM10.3127 30.7881V37.7607H9.45139V33.9736H6.63499V33.2627H9.45139V30.7881H10.3127ZM10.3127 38.4033V42.6689H2.50608V38.4033H10.3127ZM3.35374 39.1143V41.958H9.46507V39.1143H3.35374ZM4.33811 32.6475C4.33811 34.2881 5.71897 35.792 7.42796 36.3662L6.94944 37.0771C5.59592 36.5645 4.46116 35.5322 3.94163 34.2334C3.43577 35.6895 2.29417 36.8037 0.865456 37.3506L0.400612 36.6533C2.17796 36.0381 3.50413 34.4795 3.5178 32.6064V31.2939H4.33811V32.6475ZM16.6592 34.3428C16.6592 36.2432 17.7256 38.335 19.3116 39.251L18.792 39.9209C17.6026 39.2031 16.6934 37.8496 16.2627 36.3252C15.8252 37.9863 14.8545 39.4219 13.6377 40.167L13.0635 39.5244C14.6905 38.5947 15.8252 36.4482 15.8389 34.3701V31.9502H16.6592V34.3428ZM23.4678 30.7881V42.8467H22.6338V30.7881H23.4678ZM20.9795 31.0615V42.2178H20.1592V35.9424H17.958V35.1904H20.1592V31.0615H20.9795ZM35.2557 30.7881V35.833H37.3338V36.5713H35.2557V42.8467H34.3944V30.7881H35.2557ZM33.1092 32.7705V33.4951H25.9041V32.7705H29.117V30.9111H29.9783V32.7705H33.1092ZM29.5682 34.6025C31.2635 34.6025 32.4803 35.7236 32.4803 37.3369C32.4803 38.9502 31.2635 40.0713 29.5682 40.0713C27.8729 40.0713 26.6424 38.9502 26.6561 37.3369C26.6424 35.7236 27.8729 34.6025 29.5682 34.6025ZM29.5682 35.3271C28.3651 35.3408 27.4764 36.1885 27.4764 37.3369C27.4764 38.4854 28.3651 39.333 29.5682 39.3193C30.7713 39.333 31.66 38.4854 31.66 37.3369C31.66 36.1885 30.7713 35.3408 29.5682 35.3271ZM48.3561 32.0596V33.2764C48.3424 34.7529 48.3424 36.3936 47.9186 38.7725L47.0436 38.6631C47.4811 36.3936 47.4811 34.7256 47.4948 33.2764V32.7842H39.9615V32.0596H48.3561ZM49.7643 40.3174V41.0557H38.7721V40.3174H43.2018V35.9561H44.0494V40.3174H49.7643ZM65.0412 30.7881V33.8369H66.9006V34.5615H65.0412V37.665H64.1799V30.7881H65.0412ZM61.76 31.5947C61.76 34.5752 59.5862 36.7627 56.0315 37.7334L55.676 37.0361C58.7248 36.1953 60.6252 34.5 60.844 32.3193H56.1955V31.5947H61.76ZM65.0412 38.2529V42.6689H57.467V38.2529H65.0412ZM58.3283 38.9912V41.9443H64.1799V38.9912H58.3283ZM72.4541 32.7705C72.4541 34.5205 73.8076 36.0381 75.5303 36.6396L75.0381 37.3096C73.6983 36.7969 72.5772 35.7715 72.0576 34.4385C71.5586 35.9492 70.3897 37.1045 68.9405 37.6787L68.4756 36.9678C70.253 36.3252 71.6065 34.7256 71.6201 32.7979V31.4854H72.4541V32.7705ZM78.3877 30.7881V37.9521H77.5264V34.2061H74.71V33.4814H77.5264V30.7881H78.3877ZM74.4229 38.3076C76.9112 38.3213 78.4287 39.1416 78.4287 40.5771C78.4287 41.999 76.9112 42.8057 74.4229 42.8057C71.9346 42.8057 70.417 41.999 70.4307 40.5771C70.417 39.1416 71.9346 38.3213 74.4229 38.3076ZM74.4229 39.0186C72.4951 39.0186 71.2647 39.6064 71.2783 40.5771C71.2647 41.5205 72.4951 42.1084 74.4229 42.1084C76.3506 42.1084 77.5811 41.5205 77.5811 40.5771C77.5811 39.6064 76.3506 39.0186 74.4229 39.0186ZM85.3221 33.085C85.3221 34.6982 86.6483 36.2021 88.3573 36.8037L87.9061 37.4873C86.5389 36.9814 85.4246 35.9424 84.9119 34.6436C84.3992 36.0928 83.2098 37.2344 81.7811 37.7881L81.3299 37.1045C83.0526 36.4756 84.4608 34.8623 84.4608 33.0986V32.3877H81.6307V31.6631H88.1112V32.3877H85.3221V33.085ZM91.1873 38.7041V42.8467H90.326V39.415H83.1346V38.7041H91.1873ZM91.1873 30.7881V38.0205H90.326V34.7529H87.7147V34.0283H90.326V30.7881H91.1873ZM103.96 30.7881V39.6611H103.098V30.7881H103.96ZM104.356 41.835V42.5596H96.2623V38.7451H97.1237V41.835H104.356ZM97.4791 31.6631C99.2701 31.6631 100.596 32.8662 100.596 34.5889C100.596 36.3252 99.2701 37.542 97.4791 37.5283C95.6881 37.542 94.3483 36.3252 94.3619 34.5889C94.3483 32.8662 95.6881 31.6631 97.4791 31.6631ZM97.4791 32.415C96.1666 32.415 95.1959 33.3447 95.1959 34.5889C95.1959 35.8467 96.1666 36.7627 97.4791 36.7627C98.778 36.7627 99.7623 35.8467 99.7623 34.5889C99.7623 33.3447 98.778 32.415 97.4791 32.415ZM121.944 37.2275V37.9521H116.912V40.4404H116.065V37.9521H110.91V37.2275H121.944ZM120.713 41.835V42.5596H112.36V39.2783H113.221V41.835H120.713ZM113.262 31.1709V32.8115H119.606V31.1709H120.467V35.9424H112.401V31.1709H113.262ZM113.262 35.2178H119.606V33.4951H113.262V35.2178ZM127.702 31.3896C129.493 31.3896 130.778 32.3604 130.778 33.8232C130.778 35.2861 129.493 36.2842 127.702 36.2705C125.911 36.2842 124.64 35.2861 124.653 33.8232C124.64 32.3604 125.911 31.3896 127.702 31.3896ZM127.702 32.1143C126.417 32.1006 125.474 32.8389 125.487 33.8232C125.474 34.835 126.417 35.5459 127.702 35.5459C129.015 35.5459 129.958 34.835 129.958 33.8232C129.958 32.8389 129.015 32.1006 127.702 32.1143ZM133.608 30.7881V42.8604H132.761V30.7881H133.608ZM123.683 37.3916C125.98 37.4053 129.11 37.3506 131.817 36.9541L131.886 37.624C130.676 37.8359 129.425 37.9658 128.208 38.0342V42.4639H127.347V38.0752C126.068 38.1436 124.852 38.1504 123.806 38.1572L123.683 37.3916ZM146.435 30.7881V42.8467H145.588V30.7881H146.435ZM142.881 32.1143C142.867 35.5186 141.158 38.5947 137.193 40.5088L136.715 39.7979C140.023 38.2324 141.794 35.7646 142.019 32.8252H137.248V32.1143H142.881ZM160.342 36.4482V37.1455H149.309V36.4482H160.342ZM158.948 38.2393V40.7139H151.538V42.0127H159.358V42.6689H150.69V40.0713H158.087V38.9092H150.663V38.2393H158.948ZM158.907 31.1982V33.5771H151.606V34.7666H159.112V35.4229H150.758V32.9619H158.046V31.8408H150.717V31.1982H158.907ZM170.11 32.7568C170.11 34.4521 171.49 35.9834 173.186 36.585L172.707 37.2822C171.367 36.7695 170.239 35.7031 169.727 34.3838C169.221 35.8809 168.072 37.043 166.664 37.6104L166.199 36.9131C167.949 36.2432 169.262 34.6299 169.276 32.7021V31.4033H170.11V32.7568ZM175.592 30.7881V34.0283H177.451V34.7666H175.592V38.1846H174.731V30.7881H175.592ZM171.75 38.5127C174.211 38.5127 175.688 39.3057 175.688 40.6592C175.688 42.0264 174.211 42.8057 171.75 42.8057C169.276 42.8057 167.785 42.0264 167.799 40.6592C167.785 39.3057 169.276 38.5127 171.75 38.5127ZM171.75 39.2236C169.85 39.2236 168.633 39.7705 168.647 40.6592C168.633 41.5615 169.85 42.1084 171.75 42.1221C173.651 42.1084 174.854 41.5615 174.854 40.6592C174.854 39.7705 173.651 39.2236 171.75 39.2236ZM188.911 30.7881V38.1162H188.05V30.7881H188.911ZM184.905 38.4033C187.421 38.4033 188.939 39.2236 188.952 40.6455C188.939 42.0811 187.421 42.9014 184.905 42.9014C182.39 42.9014 180.858 42.0811 180.858 40.6455C180.858 39.2236 182.39 38.4033 184.905 38.4033ZM184.905 39.1006C182.95 39.1006 181.72 39.7021 181.72 40.6455C181.72 41.6025 182.95 42.2041 184.905 42.1904C186.86 42.2041 188.091 41.6025 188.105 40.6455C188.091 39.7021 186.86 39.1006 184.905 39.1006ZM183.224 33.0713C183.224 34.7529 184.646 36.2021 186.396 36.7764L185.944 37.46C184.543 36.9814 183.347 35.9492 182.814 34.6162C182.308 36.0859 181.118 37.2344 179.683 37.7881L179.218 37.0908C180.968 36.4619 182.349 34.876 182.362 33.0713V32.5107H179.437V31.7861H186.122V32.5107H183.224V33.0713ZM201.191 30.7881V33.9326H203.051V34.6709H201.191V37.7744H200.33V30.7881H201.191ZM194.492 38.3213V39.7295H200.33V38.3213H201.191V42.6689H193.644V38.3213H194.492ZM194.492 41.958H200.33V40.4268H194.492V41.958ZM199.031 32.1006V32.8115H191.84V32.1006H195.012V30.665H195.859V32.1006H199.031ZM195.435 33.4541C197.158 33.4541 198.306 34.2744 198.306 35.5596C198.306 36.8447 197.158 37.6787 195.435 37.665C193.685 37.6787 192.551 36.8447 192.551 35.5596C192.551 34.2744 193.685 33.4541 195.435 33.4541ZM195.435 34.1377C194.191 34.124 193.357 34.7119 193.371 35.5596C193.357 36.4072 194.191 36.9951 195.435 36.9951C196.666 36.9951 197.486 36.4072 197.5 35.5596C197.486 34.7119 196.666 34.124 195.435 34.1377ZM214.469 30.7881V42.8467H213.622V30.7881H214.469ZM206.266 31.9775V38.9229H206.376C208.262 38.9229 210.163 38.7725 212.241 38.335L212.364 39.0869C210.217 39.5381 208.331 39.6885 206.376 39.6885H205.419V31.9775H206.266ZM226.681 30.7881V35.6553H228.759V36.3799H226.681V42.8604H225.82V30.7881H226.681ZM218.874 39.0596C221.171 39.0596 222.73 38.9775 224.562 38.6357L224.685 39.3877C222.785 39.7295 221.212 39.8115 218.874 39.8115H217.945V31.9775H223.564V32.7021H218.806V39.0596H218.874ZM231.387 41.8486C230.977 41.8486 230.649 41.5205 230.649 41.124C230.649 40.7139 230.977 40.3857 231.387 40.3857C231.783 40.3857 232.112 40.7139 232.112 41.124C232.112 41.5205 231.783 41.8486 231.387 41.8486ZM13.6705 62.21V62.9209H6.79358V62.21H9.84241V60.6787H10.6901V62.21H13.6705ZM10.2662 63.6182C11.8658 63.6182 12.9733 64.4932 12.9733 65.8467C12.9733 67.1865 11.8658 68.0615 10.2662 68.0615C8.63928 68.0615 7.54553 67.1865 7.5592 65.8467C7.54553 64.4932 8.63928 63.6182 10.2662 63.6182ZM10.2662 64.2881C9.1178 64.2881 8.35217 64.9307 8.36584 65.8467C8.35217 66.7627 9.1178 67.3916 10.2662 67.3916C11.3873 67.3916 12.1666 66.7627 12.1666 65.8467C12.1666 64.9307 11.3873 64.2881 10.2662 64.2881ZM16.733 60.7881V68.6221H15.8717V66.8174H13.6158V66.0928H15.8717V64.4932H13.6158V63.7686H15.8717V60.7881H16.733ZM12.8092 68.7314C15.2975 68.7314 16.8014 69.4697 16.8014 70.7686C16.8014 72.0674 15.2975 72.8057 12.8092 72.8057C10.2799 72.8057 8.776 72.0674 8.776 70.7686C8.776 69.4697 10.2799 68.7314 12.8092 68.7314ZM12.8092 69.415C10.8815 69.415 9.66467 69.9209 9.66467 70.7686C9.66467 71.6162 10.8815 72.1221 12.8092 72.1221C14.7096 72.1221 15.9127 71.6162 15.9127 70.7686C15.9127 69.9209 14.7096 69.415 12.8092 69.415ZM24.8432 62.2236V62.9346H20.933V65.4092H24.6791V66.1338H20.933V69.0322C22.8608 69.0459 24.0092 68.9775 25.3627 68.7041L25.4721 69.4424C24.0365 69.7295 22.8881 69.7842 20.8647 69.7842H20.1127V62.2236H24.8432ZM29.8881 60.7881V72.8467H29.0541V66.4072H27.1948V72.2178H26.3471V61.0615H27.1948V65.6826H29.0541V60.7881H29.8881ZM42.1272 64.5479V65.2725H33.924V61.2256H34.7717V64.5479H42.1272ZM43.4123 67.0225V67.7334H32.3791V67.0225H43.4123ZM42.1955 71.8076V72.5459H33.8694V69.0459H34.717V71.8076H42.1955ZM51.4979 67.8564V69.4697H53.9998V67.8564H54.7928V72.6689H50.6776V67.8564H51.4979ZM51.4979 71.9717H53.9998V70.1533H51.4979V71.9717ZM58.1834 68.8545C58.1834 70.1396 59.0037 71.5205 60.4803 72.0947L60.0155 72.7646C58.8739 72.2861 58.1219 71.3701 57.7596 70.3174C57.3905 71.3633 56.6248 72.2793 55.5174 72.7646L55.0662 72.0947C56.5155 71.4932 57.3358 70.1123 57.3494 68.8545V67.7881H58.1834V68.8545ZM52.578 61.3486C54.2186 61.3486 55.4354 62.2783 55.6405 63.7002H58.3475V60.7881H59.2088V67.1729H58.3475V64.4385H55.6541C55.4696 65.8877 54.2391 66.8447 52.578 66.8447C50.7459 66.8447 49.4608 65.7373 49.4744 64.0967C49.4608 62.4561 50.7459 61.3486 52.578 61.3486ZM52.578 62.0732C51.2381 62.0732 50.2948 62.9346 50.2948 64.0967C50.2948 65.2588 51.2381 66.1201 52.578 66.1338C53.8905 66.1201 54.8338 65.2588 54.8338 64.0967C54.8338 62.9346 53.8905 62.0732 52.578 62.0732ZM66.2662 64.6299C66.2662 66.6943 67.9205 68.7861 69.6158 69.5244L69.1237 70.208C67.736 69.5586 66.4098 68.1162 65.8424 66.3936C65.2819 68.2051 63.9625 69.8047 62.6158 70.5088L62.0963 69.8252C63.7369 69.0186 65.3912 66.7217 65.4049 64.6299V62.7842H62.4655V62.0459H69.2467V62.7842H66.2662V64.6299ZM71.9674 60.7881V72.8467H71.1061V60.7881H71.9674ZM80.9389 61.9092V67.3916H75.4291V61.9092H80.9389ZM76.2631 62.6338V66.6807H80.1049V62.6338H76.2631ZM84.2612 60.7744V64.5205H86.1205V65.2451H84.2612V69.6338H83.3998V60.7744H84.2612ZM84.849 71.835V72.5596H76.7963V68.7998H77.644V71.835H84.849ZM102.765 67.2275V67.9521H97.7334V70.4404H96.8858V67.9521H91.7315V67.2275H102.765ZM101.534 71.835V72.5596H93.1807V69.2783H94.042V71.835H101.534ZM94.083 61.1709V62.8115H100.427V61.1709H101.288V65.9424H93.2217V61.1709H94.083ZM94.083 65.2178H100.427V63.4951H94.083V65.2178ZM114.484 60.7881V67.9521H113.623V65.9287H110.601V67.0088H105.133V61.7178H110.601V62.8115H113.623V60.7881H114.484ZM105.98 62.4287V66.2979H109.754V62.4287H105.98ZM110.519 68.3076C113.008 68.3213 114.525 69.1416 114.525 70.5771C114.525 71.999 113.008 72.8057 110.519 72.8057C108.031 72.8057 106.514 71.999 106.527 70.5771C106.514 69.1416 108.031 68.3213 110.519 68.3076ZM110.519 69.0049C108.592 69.0186 107.361 69.6064 107.375 70.5771C107.361 71.5205 108.592 72.1084 110.519 72.1084C112.447 72.1084 113.678 71.5205 113.678 70.5771C113.678 69.6064 112.447 69.0186 110.519 69.0049ZM110.601 65.2041H113.623V63.5361H110.601V65.2041ZM127.243 60.7881V72.8467H126.381V60.7881H127.243ZM124.946 62.7842V63.5088H117.618V62.7842H120.844V60.8838H121.706V62.7842H124.946ZM121.309 64.6025C123.032 64.6025 124.262 65.7236 124.262 67.3369C124.262 68.9502 123.032 70.0713 121.309 70.0713C119.573 70.0713 118.342 68.9502 118.342 67.3369C118.342 65.7236 119.573 64.6025 121.309 64.6025ZM121.309 65.3271C120.065 65.3408 119.163 66.1885 119.163 67.3369C119.163 68.4854 120.065 69.333 121.309 69.3193C122.54 69.333 123.442 68.4854 123.442 67.3369C123.442 66.1885 122.54 65.3408 121.309 65.3271ZM140.25 62.2646C140.25 63.8916 142.52 65.1084 144.502 65.3818L144.147 66.0928C142.315 65.792 140.366 64.8145 139.717 63.3311C139.068 64.8213 137.119 65.792 135.287 66.0928L134.946 65.3818C136.914 65.1084 139.184 63.8916 139.184 62.2646V62.1279H135.233V61.4033H144.229V62.1279H140.25V62.2646ZM143.996 71.835V72.5596H135.67V69.1553H136.545V71.835H143.996ZM145.254 67.3643V68.0889H134.221V67.3643H139.293V65.2314H140.141V67.3643H145.254ZM157.329 60.7881V72.8467H156.495V66.4893H154.649V72.2178H153.829V61.0615H154.649V65.7373H156.495V60.7881H157.329ZM150.507 64.1787C150.507 66.4072 151.505 68.3486 153.187 69.1963L152.667 69.8799C151.423 69.2031 150.534 67.9658 150.11 66.4209C149.693 68.1777 148.777 69.5244 147.485 70.29L146.925 69.6338C148.647 68.6904 149.673 66.667 149.673 64.1787V63.0166H147.185V62.2783H152.872V63.0166H150.507V64.1787ZM169.103 60.7881V65.833H171.181V66.5713H169.103V72.8467H168.242V60.7881H169.103ZM166.957 62.7705V63.4951H159.752V62.7705H162.965V60.9111H163.826V62.7705H166.957ZM163.416 64.6025C165.111 64.6025 166.328 65.7236 166.328 67.3369C166.328 68.9502 165.111 70.0713 163.416 70.0713C161.721 70.0713 160.49 68.9502 160.504 67.3369C160.49 65.7236 161.721 64.6025 163.416 64.6025ZM163.416 65.3271C162.213 65.3408 161.324 66.1885 161.324 67.3369C161.324 68.4854 162.213 69.333 163.416 69.3193C164.619 69.333 165.508 68.4854 165.508 67.3369C165.508 66.1885 164.619 65.3408 163.416 65.3271ZM182.354 64.5479V65.2725H174.151V61.2256H174.999V64.5479H182.354ZM183.639 67.0225V67.7334H172.606V67.0225H183.639ZM182.422 71.8076V72.5459H174.096V69.0459H174.944V71.8076H182.422ZM198.889 60.7881V63.8369H200.748V64.5615H198.889V67.665H198.028V60.7881H198.889ZM195.608 61.5947C195.608 64.5752 193.434 66.7627 189.879 67.7334L189.524 67.0361C192.572 66.1953 194.473 64.5 194.692 62.3193H190.043V61.5947H195.608ZM198.889 68.2529V72.6689H191.315V68.2529H198.889ZM192.176 68.9912V71.9443H198.028V68.9912H192.176ZM212.235 60.7881V67.9795H211.374V64.7256H208.763V64.001H211.374V60.7881H212.235ZM208.271 68.3896C210.759 68.3896 212.276 69.1963 212.276 70.6045C212.276 72.0127 210.759 72.8193 208.271 72.833C205.782 72.8193 204.265 72.0127 204.278 70.6045C204.265 69.1963 205.782 68.3896 208.271 68.3896ZM208.271 69.0732C206.343 69.0732 205.112 69.6611 205.126 70.6045C205.112 71.5479 206.343 72.1221 208.271 72.1221C210.198 72.1221 211.429 71.5479 211.429 70.6045C211.429 69.6611 210.198 69.0732 208.271 69.0732ZM206.37 63.0576C206.37 64.6846 207.696 66.1885 209.405 66.7764L208.954 67.4736C207.594 66.9678 206.48 65.9219 205.974 64.6299C205.454 66.0996 204.265 67.2686 202.829 67.8291L202.378 67.1318C204.114 66.4893 205.509 64.8623 205.509 63.0713V62.4424H202.679V61.7178H209.159V62.4424H206.37V63.0576ZM220.578 61.0068C223.23 61.0068 224.803 61.7451 224.803 63.0986C224.803 64.4658 223.23 65.2178 220.578 65.2178C217.926 65.2178 216.353 64.4658 216.353 63.0986C216.353 61.7451 217.926 61.0068 220.578 61.0068ZM220.578 61.6768C218.514 61.6768 217.242 62.2236 217.242 63.0986C217.242 64.0146 218.514 64.5479 220.578 64.5479C222.656 64.5479 223.928 64.0146 223.928 63.0986C223.928 62.2236 222.656 61.6768 220.578 61.6768ZM226.088 66.1201V66.8311H215.096V66.1201H226.088ZM224.639 67.9795V70.5635H217.324V71.9854H225.021V72.6963H216.49V69.8936H223.805V68.6631H216.449V67.9795H224.639ZM73.4727 90.7881V93.8232H75.3321V94.5479H73.4727V97.6514H72.6114V90.7881H73.4727ZM65.5977 96.1201C68.0449 96.1338 69.4805 96.0518 71.1758 95.71L71.2989 96.4346C69.5352 96.7764 68.0723 96.8584 65.5977 96.8584H64.6817V91.6221H70.0137V92.333H65.543V96.1201H65.5977ZM73.4727 98.3213V102.669H65.9395V98.3213H73.4727ZM66.7735 99.0322V101.944H72.6114V99.0322H66.7735ZM80.0926 91.7451C81.8563 91.7451 83.1004 93.3721 83.1004 95.915C83.1004 98.458 81.8563 100.085 80.0926 100.085C78.3289 100.085 77.0985 98.458 77.1121 95.915C77.0985 93.3721 78.3289 91.7451 80.0926 91.7451ZM80.0926 92.5107C78.8211 92.5107 77.9188 93.9053 77.9188 95.915C77.9188 97.9385 78.8211 99.3193 80.0926 99.3193C81.3914 99.3193 82.2664 97.9385 82.2801 95.915C82.2664 93.9053 81.3914 92.5107 80.0926 92.5107ZM86.1629 90.7881V95.6963H88.241V96.4346H86.1629V102.847H85.3016V90.7881H86.1629ZM99.9469 90.7881V102.847H99.0992V96.5303H97.1442V102.204H96.3239V91.0752H97.1442V95.7783H99.0992V90.7881H99.9469ZM91.1832 92.292V98.8818C92.4479 98.875 93.8014 98.7861 95.3805 98.4717L95.4899 99.251C93.7946 99.5654 92.4 99.6611 91.0602 99.6475H90.3219V92.292H91.1832ZM112.063 92.0596V93.2764C112.049 94.7529 112.049 96.3936 111.625 98.7725L110.75 98.6631C111.188 96.3936 111.188 94.7256 111.202 93.2764V92.7842H103.668V92.0596H112.063ZM113.471 100.317V101.056H102.479V100.317H106.909V95.9561H107.756V100.317H113.471ZM119.23 94.6299C119.23 96.585 120.761 98.7178 122.429 99.5244L121.923 100.208C120.583 99.5312 119.36 98.0547 118.82 96.3799C118.266 98.1914 116.953 99.8047 115.634 100.509L115.101 99.8252C116.741 99.0049 118.382 96.708 118.396 94.6299V92.7842H115.525V92.0459H122.046V92.7842H119.23V94.6299ZM124.562 90.7881V95.751H126.64V96.4893H124.562V102.847H123.7V90.7881H124.562ZM141.548 90.7881V93.9326H143.407V94.6709H141.548V97.7744H140.686V90.7881H141.548ZM134.848 98.3213V99.7295H140.686V98.3213H141.548V102.669H134.001V98.3213H134.848ZM134.848 101.958H140.686V100.427H134.848V101.958ZM139.388 92.1006V92.8115H132.196V92.1006H135.368V90.665H136.216V92.1006H139.388ZM135.792 93.4541C137.514 93.4541 138.663 94.2744 138.663 95.5596C138.663 96.8447 137.514 97.6787 135.792 97.665C134.042 97.6787 132.907 96.8447 132.907 95.5596C132.907 94.2744 134.042 93.4541 135.792 93.4541ZM135.792 94.1377C134.548 94.124 133.714 94.7119 133.727 95.5596C133.714 96.4072 134.548 96.9951 135.792 96.9951C137.022 96.9951 137.843 96.4072 137.856 95.5596C137.843 94.7119 137.022 94.124 135.792 94.1377ZM154.826 90.7881V102.847H153.978V90.7881H154.826ZM146.623 91.9775V98.9229H146.732C148.619 98.9229 150.519 98.7725 152.597 98.335L152.72 99.0869C150.574 99.5381 148.687 99.6885 146.732 99.6885H145.775V91.9775H146.623ZM167.038 90.7881V95.6553H169.116V96.3799H167.038V102.86H166.176V90.7881H167.038ZM159.231 99.0596C161.528 99.0596 163.086 98.9775 164.918 98.6357L165.041 99.3877C163.141 99.7295 161.569 99.8115 159.231 99.8115H158.301V91.9775H163.92V92.7021H159.163V99.0596H159.231ZM171.743 101.849C171.333 101.849 171.005 101.521 171.005 101.124C171.005 100.714 171.333 100.386 171.743 100.386C172.14 100.386 172.468 100.714 172.468 101.124C172.468 101.521 172.14 101.849 171.743 101.849Z" fill="#1A1A1A"/>
</svg>
