<svg width="81" height="35" viewBox="0 0 81 35" fill="none" xmlns="http://www.w3.org/2000/svg">
<path d="M0.1304 27V0.818181H3.30086V24.1875H15.4713V27H0.1304ZM19.9713 27V7.36364H22.9884V27H19.9713ZM21.5054 4.09091C20.3293 4.09091 19.3577 3.17045 19.3577 2.04545C19.3577 0.920455 20.3293 0 21.5054 0C22.6815 0 23.6531 0.920455 23.6531 2.04545C23.6531 3.17045 22.6815 4.09091 21.5054 4.09091ZM36.4404 34.7727C32.0555 34.7727 29.6393 32.8935 28.412 30.8352L30.8154 29.1477C31.6208 30.2344 32.8737 32.1136 36.4404 32.1136C39.6109 32.1136 41.912 30.6307 41.912 27.358V23.3693H41.6563C40.9916 24.4432 39.7643 26.6932 35.9291 26.6932C31.1734 26.6932 27.5938 23.2159 27.5938 17.0795C27.5938 11.0455 31.02 7.10795 35.9802 7.10795C39.8154 7.10795 41.0427 9.46023 41.7075 10.483H42.0143V7.36364H44.9291V27.5625C44.9291 32.625 41.145 34.7727 36.4404 34.7727ZM36.3381 23.983C39.9688 23.983 41.9631 21.375 41.9631 17.0284C41.9631 12.7841 40.02 9.81818 36.3381 9.81818C32.5029 9.81818 30.6109 13.0398 30.6109 17.0284C30.6109 21.1193 32.5541 23.983 36.3381 23.983ZM53.4688 15.1875V27H50.4518V0.818181H53.4688V10.4318H53.7245C54.645 8.39915 56.4092 7.10795 59.5029 7.10795C63.5171 7.10795 66.2018 9.47301 66.2018 14.5227V27H63.1847V14.7273C63.1847 11.608 61.4717 9.81818 58.6336 9.81818C55.6549 9.81818 53.4688 11.7614 53.4688 15.1875ZM80.2611 7.36364V9.92045H76.0679V21.375C76.0679 23.9318 77.3463 24.3409 78.6759 24.3409C79.3406 24.3409 79.7497 24.2386 80.0054 24.1875L80.619 26.8977C80.2099 27.0511 79.494 27.2557 78.369 27.2557C75.8122 27.2557 73.0509 25.6193 73.0509 22.1932V9.92045H70.0849V7.36364H73.0509V2.65909H76.0679V7.36364H80.2611Z" fill="#1A1A1A"/>
</svg>
