<svg width="134" height="28" viewBox="0 0 134 28" fill="none" xmlns="http://www.w3.org/2000/svg">
<path d="M15.5735 7.36364C15.2666 4.78125 12.8632 3.27273 9.69277 3.27273C6.2155 3.27273 3.91436 5.11364 3.91436 7.61932C3.91436 10.4318 7.03368 11.4545 8.97686 11.9659L11.636 12.6818C14.3462 13.3977 18.9996 14.983 18.9996 19.892C18.9996 24.1364 15.5735 27.4602 9.53936 27.4602C3.91436 27.4602 0.437089 24.5455 0.130271 20.25H3.403C3.65868 23.2159 6.42004 24.5966 9.53936 24.5966C13.17 24.5966 15.9314 22.7045 15.9314 19.8409C15.9314 17.233 13.4769 16.2614 10.7155 15.4943L7.49391 14.5739C3.403 13.3977 0.84618 11.3011 0.84618 7.77273C0.84618 3.375 4.78368 0.460226 9.79504 0.460226C14.8575 0.460226 18.501 3.41335 18.6416 7.36364H15.5735ZM26.8203 15.1875V27H23.8032V0.818181H26.8203V10.4318H27.0759C27.9964 8.39915 29.7606 7.10795 32.8543 7.10795C36.8686 7.10795 39.5532 9.47301 39.5532 14.5227V27H36.5362V14.7273C36.5362 11.608 34.8231 9.81818 31.985 9.81818C29.0063 9.81818 26.8203 11.7614 26.8203 15.1875ZM50.8512 27.4602C47.1182 27.4602 44.1523 25.2614 44.1523 21.4261C44.1523 16.9261 48.1281 16.1207 51.7716 15.6477C55.3512 15.1875 56.8341 15.3153 56.8341 13.858V13.7557C56.8341 11.2372 55.4662 9.76705 52.6921 9.76705C49.8156 9.76705 48.2432 11.3011 47.5784 12.733L44.7148 11.7102C46.2489 8.13068 49.6239 7.10795 52.5898 7.10795C55.0955 7.10795 59.8512 7.82386 59.8512 14.0625V27H56.8341V24.3409H56.6807C56.0671 25.6193 54.2773 27.4602 50.8512 27.4602ZM51.3114 24.75C54.8909 24.75 56.8341 22.3466 56.8341 19.892V17.1307C56.3227 17.7443 52.8966 18.1023 51.6182 18.2557C49.2659 18.5625 47.1693 19.2784 47.1693 21.5795C47.1693 23.6761 48.908 24.75 51.3114 24.75ZM72.7727 27.4091C67.8636 27.4091 64.4374 23.4716 64.4374 17.233C64.4374 11.0455 67.8636 7.10795 72.8238 7.10795C76.659 7.10795 77.8352 9.46023 78.4999 10.483H78.7556V0.818181H81.7727V27H78.8579V23.983H78.4999C77.8352 25.0568 76.5568 27.4091 72.7727 27.4091ZM73.1818 24.6989C76.8124 24.6989 78.8068 21.6307 78.8068 17.1818C78.8068 12.7841 76.8636 9.81818 73.1818 9.81818C69.3465 9.81818 67.4545 13.0398 67.4545 17.1818C67.4545 21.375 69.3977 24.6989 73.1818 24.6989ZM95.6945 27.4091C90.3764 27.4091 86.7968 23.3693 86.7968 17.2841C86.7968 11.1477 90.3764 7.10795 95.6945 7.10795C101.013 7.10795 104.592 11.1477 104.592 17.2841C104.592 23.3693 101.013 27.4091 95.6945 27.4091ZM95.6945 24.6989C99.7343 24.6989 101.575 21.2216 101.575 17.2841C101.575 13.3466 99.7343 9.81818 95.6945 9.81818C91.6548 9.81818 89.8139 13.3466 89.8139 17.2841C89.8139 21.2216 91.6548 24.6989 95.6945 24.6989ZM112.979 27L106.996 7.36364H110.166L114.41 22.3977H114.615L118.808 7.36364H122.03L126.172 22.3466H126.376L130.621 7.36364H133.791L127.808 27H124.842L120.547 11.9148H120.24L115.945 27H112.979Z" fill="#1A1A1A"/>
</svg>
