<svg width="245" height="73" viewBox="0 0 245 73" fill="none" xmlns="http://www.w3.org/2000/svg">
<path d="M10.0958 0.788086V3.83691H11.9552V4.56152H10.0958V7.66504H9.23446V0.788086H10.0958ZM6.81454 1.59473C6.81454 4.5752 4.64071 6.7627 1.08602 7.7334L0.730553 7.03613C3.77938 6.19531 5.67977 4.5 5.89852 2.31934H1.25008V1.59473H6.81454ZM10.0958 8.25293V12.6689H2.52157V8.25293H10.0958ZM3.3829 8.99121V11.9443H9.23446V8.99121H3.3829ZM23.4423 0.788086V7.97949H22.5809V4.72559H19.9696V4.00098H22.5809V0.788086H23.4423ZM19.4774 8.38965C21.9657 8.38965 23.4833 9.19629 23.4833 10.6045C23.4833 12.0127 21.9657 12.8193 19.4774 12.833C16.9891 12.8193 15.4716 12.0127 15.4852 10.6045C15.4716 9.19629 16.9891 8.38965 19.4774 8.38965ZM19.4774 9.07324C17.5497 9.07324 16.3192 9.66113 16.3329 10.6045C16.3192 11.5479 17.5497 12.1221 19.4774 12.1221C21.4052 12.1221 22.6356 11.5479 22.6356 10.6045C22.6356 9.66113 21.4052 9.07324 19.4774 9.07324ZM17.577 3.05762C17.577 4.68457 18.9032 6.18848 20.6122 6.77637L20.161 7.47363C18.8007 6.96777 17.6864 5.92188 17.1806 4.62988C16.661 6.09961 15.4716 7.26855 14.036 7.8291L13.5849 7.13184C15.3212 6.48926 16.7157 4.8623 16.7157 3.07129V2.44238H13.8856V1.71777H20.3661V2.44238H17.577V3.05762ZM32.9606 2.15527V2.6748C32.947 3.57715 32.947 5.2041 32.5915 7.51465L31.7302 7.44629C32.072 5.32715 32.0993 3.80957 32.0993 2.87988H26.863V2.15527H32.9606ZM29.7614 5.60059V9.31934C31.1423 9.27148 32.5573 9.18262 33.8493 9.01855L33.904 9.68848C31.3474 10.0713 28.4626 10.126 26.3024 10.126L26.1657 9.37402C26.9929 9.37402 27.9294 9.36719 28.9001 9.34668V5.60059H29.7614ZM35.5309 0.788086V5.90137H37.5954V6.65332H35.5309V12.8467H34.6696V0.788086H35.5309ZM53.0911 0.788086V12.8467H52.2434V0.788086H53.0911ZM49.5364 2.11426C49.5227 5.51855 47.8138 8.59473 43.8489 10.5088L43.3704 9.79785C46.679 8.23242 48.4495 5.76465 48.6751 2.8252H43.9036V2.11426H49.5364ZM65.9181 8.6084V12.8604H65.0567V9.30566H57.8653V8.6084H65.9181ZM65.9181 0.788086V7.88379H65.0567V4.69824H62.3634C62.172 6.20215 60.9347 7.21387 59.2872 7.2002C57.4825 7.21387 56.17 6.03809 56.1837 4.34277C56.17 2.66113 57.4825 1.48535 59.2872 1.48535C60.9278 1.48535 62.1583 2.4834 62.3497 3.95996H65.0567V0.788086H65.9181ZM59.2872 2.22363C57.9747 2.22363 57.004 3.13965 57.004 4.34277C57.004 5.57324 57.9747 6.46191 59.2872 6.46191C60.5723 6.46191 61.5431 5.57324 61.5431 4.34277C61.5431 3.13965 60.5723 2.22363 59.2872 2.22363ZM70.5419 10.9463L69.5438 14.4873H68.7372L69.5028 10.9463H70.5419ZM83.6997 1.73145V2.34668C83.686 3.1123 83.686 4.31543 83.3716 5.91504L82.5102 5.84668C82.8315 4.29492 82.852 3.22852 82.852 2.46973H77.7524V1.73145H83.6997ZM80.5552 4.37012V7.0498C81.9429 7.00195 83.3716 6.89941 84.6704 6.72168L84.7251 7.37793C82.1958 7.80176 79.2563 7.84277 77.0962 7.84277L77.0005 7.11816C77.8139 7.11816 78.7368 7.11133 79.7075 7.07715V4.37012H80.5552ZM86.4067 0.788086V4.79395H88.2661V5.53223H86.4067V9.87988H85.5454V0.788086H86.4067ZM86.8032 11.835V12.5596H78.8872V9.0459H79.7485V11.835H86.8032ZM100.122 0.788086V12.8467H99.2884V0.788086H100.122ZM97.7024 1.12988V12.2041H96.8684V7.95215H94.4622V7.22754H96.8684V4.91699H94.6673C94.0657 6.98145 92.7054 8.83398 90.4153 10.208L89.8958 9.5791C92.5755 7.97949 93.97 5.64844 94.1751 3.08496H90.3743V2.34668H95.0091C95.0091 2.96875 94.9544 3.59082 94.8313 4.19238H96.8684V1.12988H97.7024ZM113.66 6.44824V7.14551H102.627V6.44824H113.66ZM112.266 8.23926V10.7139H104.856V12.0127H112.676V12.6689H104.008V10.0713H111.404V8.90918H103.981V8.23926H112.266ZM112.225 1.19824V3.57715H104.924V4.7666H112.43V5.42285H104.076V2.96191H111.363V1.84082H104.035V1.19824H112.225ZM129.416 0.788086V12.8604H128.554V0.788086H129.416ZM121.103 1.82715V5.09473H125.013V1.82715H125.875V9.90723H120.242V1.82715H121.103ZM121.103 9.18262H125.013V5.80566H121.103V9.18262ZM143.309 8.10254V8.82715H138.237V12.8604H137.389V8.82715H132.317V8.10254H143.309ZM138.237 3.13965C138.237 4.78027 140.588 6.0791 142.557 6.36621L142.243 7.07715C140.465 6.77637 138.565 5.8125 137.827 4.41113C137.068 5.83301 135.154 6.77637 133.37 7.07715L133.055 6.36621C135.024 6.0791 137.375 4.78027 137.389 3.13965V3.03027H133.411V2.30566H137.389V0.760742H138.237V2.30566H142.229V3.03027H138.237V3.13965ZM154.851 4.54785V5.27246H146.648V1.22559H147.495V4.54785H154.851ZM156.136 7.02246V7.7334H145.103V7.02246H156.136ZM154.919 11.8076V12.5459H146.593V9.0459H147.441V11.8076H154.919ZM171.932 8.58105V12.8467H171.071V9.29199H163.88V8.58105H171.932ZM171.932 0.788086V7.88379H171.071V6.0791H167.817C167.27 6.7832 166.368 7.20703 165.302 7.2002C163.497 7.21387 162.184 6.03809 162.198 4.34277C162.184 2.66113 163.497 1.48535 165.302 1.48535C166.368 1.48535 167.257 1.90918 167.804 2.60645H171.071V0.788086H171.932ZM165.302 2.22363C163.975 2.22363 163.018 3.13965 163.018 4.34277C163.018 5.57324 163.975 6.46191 165.302 6.46191C166.587 6.46191 167.557 5.57324 167.557 4.34277C167.557 3.13965 166.587 2.22363 165.302 2.22363ZM168.214 5.35449H171.071V3.34473H168.214C168.33 3.65234 168.391 3.9873 168.391 4.34277C168.391 4.70508 168.33 5.04688 168.214 5.35449ZM184.185 0.733398V3.76855H186.058V4.49316H184.185V7.44629H183.324V0.733398H184.185ZM184.185 8.11621V10.6729H177.459V11.999H184.65V12.6963H176.611V10.0029H183.324V8.78613H176.584V8.11621H184.185ZM182.025 1.9502V2.64746H174.834V1.9502H178.006V0.637695H178.853V1.9502H182.025ZM178.429 3.27637C180.166 3.27637 181.3 4.04199 181.3 5.25879C181.3 6.48926 180.166 7.24121 178.429 7.24121C176.679 7.24121 175.545 6.48926 175.545 5.25879C175.545 4.04199 176.679 3.27637 178.429 3.27637ZM178.429 3.93262C177.185 3.94629 176.351 4.47949 176.365 5.25879C176.351 6.05176 177.185 6.57129 178.429 6.57129C179.66 6.57129 180.48 6.05176 180.494 5.25879C180.48 4.47949 179.66 3.94629 178.429 3.93262ZM193.075 1.00684C195.727 1.00684 197.299 1.74512 197.299 3.09863C197.299 4.46582 195.727 5.21777 193.075 5.21777C190.422 5.21777 188.85 4.46582 188.85 3.09863C188.85 1.74512 190.422 1.00684 193.075 1.00684ZM193.075 1.67676C191.01 1.67676 189.739 2.22363 189.739 3.09863C189.739 4.01465 191.01 4.54785 193.075 4.54785C195.153 4.54785 196.424 4.01465 196.424 3.09863C196.424 2.22363 195.153 1.67676 193.075 1.67676ZM198.584 6.12012V6.83105H187.592V6.12012H198.584ZM197.135 7.97949V10.5635H189.821V11.9854H197.518V12.6963H188.987V9.89355H196.301V8.66309H188.946V7.97949H197.135ZM213.861 0.788086V3.93262H215.721V4.6709H213.861V7.77441H213V0.788086H213.861ZM207.162 8.32129V9.72949H213V8.32129H213.861V12.6689H206.315V8.32129H207.162ZM207.162 11.958H213V10.4268H207.162V11.958ZM211.701 2.10059V2.81152H204.51V2.10059H207.682V0.665039H208.529V2.10059H211.701ZM208.106 3.4541C209.828 3.4541 210.977 4.27441 210.977 5.55957C210.977 6.84473 209.828 7.67871 208.106 7.66504C206.356 7.67871 205.221 6.84473 205.221 5.55957C205.221 4.27441 206.356 3.4541 208.106 3.4541ZM208.106 4.1377C206.861 4.12402 206.027 4.71191 206.041 5.55957C206.027 6.40723 206.861 6.99512 208.106 6.99512C209.336 6.99512 210.156 6.40723 210.17 5.55957C210.156 4.71191 209.336 4.12402 208.106 4.1377ZM227.14 0.788086V12.8467H226.292V0.788086H227.14ZM218.936 1.97754V8.92285H219.046C220.932 8.92285 222.833 8.77246 224.911 8.33496L225.034 9.08691C222.888 9.53809 221.001 9.68848 219.046 9.68848H218.089V1.97754H218.936ZM239.351 0.788086V5.65527H241.429V6.37988H239.351V12.8604H238.49V0.788086H239.351ZM231.545 9.05957C233.841 9.05957 235.4 8.97754 237.232 8.63574L237.355 9.3877C235.455 9.72949 233.883 9.81152 231.545 9.81152H230.615V1.97754H236.234V2.70215H231.476V9.05957H231.545ZM244.057 11.8486C243.647 11.8486 243.319 11.5205 243.319 11.124C243.319 10.7139 243.647 10.3857 244.057 10.3857C244.454 10.3857 244.782 10.7139 244.782 11.124C244.782 11.5205 244.454 11.8486 244.057 11.8486ZM53.2934 34.1924C53.2798 36.2979 54.852 38.4854 56.4927 39.3057L55.9595 40.0029C54.6333 39.292 53.4233 37.8018 52.8833 36.0654C52.3501 37.9043 51.1128 39.4971 49.7798 40.2354L49.2192 39.5518C50.8872 38.6904 52.4321 36.3799 52.4458 34.1924V31.8682H53.2934V34.1924ZM58.6528 30.7881V35.751H60.7309V36.5166H58.6528V42.8467H57.7915V30.7881H58.6528ZM73.1614 36.8311V37.5557H62.1692V36.8311H64.972V35.04C63.9807 34.6777 63.427 34.0625 63.427 33.2354C63.427 31.8271 65.0266 31.0342 67.6516 31.0342C70.2766 31.0342 71.8763 31.8271 71.8763 33.2354C71.8763 34.0557 71.3294 34.6709 70.3587 35.0264V36.8311H73.1614ZM67.6653 38.5811C70.2493 38.5674 71.7942 39.3193 71.7942 40.6865C71.7942 42.0537 70.2493 42.8193 67.6653 42.8193C65.054 42.8193 63.5091 42.0537 63.5091 40.6865C63.5091 39.3193 65.054 38.5674 67.6653 38.5811ZM67.6653 39.251C65.6419 39.2646 64.3841 39.7979 64.3841 40.6865C64.3841 41.5889 65.6419 42.1221 67.6653 42.1221C69.6614 42.1221 70.9329 41.5889 70.9329 40.6865C70.9329 39.7979 69.6614 39.2646 67.6653 39.251ZM67.6516 31.7178C65.6009 31.7178 64.302 32.3057 64.3157 33.2354C64.302 34.1787 65.6009 34.7529 67.6516 34.7529C69.7024 34.7529 71.0013 34.1787 71.0013 33.2354C71.0013 32.3057 69.7024 31.7178 67.6516 31.7178ZM65.8333 36.8311H69.511V35.2725C68.971 35.3818 68.3489 35.4365 67.6516 35.4365C66.9749 35.4365 66.3665 35.3818 65.8333 35.2725V36.8311ZM78.92 34.6299C78.92 36.585 80.4513 38.7178 82.1192 39.5244L81.6134 40.208C80.2735 39.5312 79.0499 38.0547 78.5098 36.3799C77.9561 38.1914 76.6436 39.8047 75.3243 40.5088L74.7911 39.8252C76.4317 39.0049 78.0723 36.708 78.086 34.6299V32.7842H75.2149V32.0459H81.7364V32.7842H78.92V34.6299ZM84.252 30.7881V35.751H86.3302V36.4893H84.252V42.8467H83.3907V30.7881H84.252ZM91.7196 31.6904C93.62 31.6904 94.9325 32.8252 94.9462 34.4795C94.9325 36.1475 93.62 37.2686 91.7196 37.2686C89.8329 37.2686 88.493 36.1475 88.493 34.4795C88.493 32.8252 89.8329 31.6904 91.7196 31.6904ZM91.7196 32.4561C90.3388 32.4561 89.327 33.3037 89.3407 34.4795C89.327 35.6553 90.3388 36.5166 91.7196 36.5029C93.1005 36.5166 94.0985 35.6553 94.0985 34.4795C94.0985 33.3037 93.1005 32.4561 91.7196 32.4561ZM97.5848 30.7881V42.8604H96.7235V30.7881H97.5848ZM87.8368 39.374C90.0927 39.3877 93.1825 39.374 95.8895 38.9639L95.9579 39.6201C93.1688 40.1396 90.161 40.1396 87.9735 40.1396L87.8368 39.374ZM114.913 30.7881V42.8467H114.065V36.5303H112.11V42.2041H111.29V31.0752H112.11V35.7783H114.065V30.7881H114.913ZM106.149 32.292V38.8818C107.414 38.875 108.767 38.7861 110.346 38.4717L110.456 39.251C108.76 39.5654 107.366 39.6611 106.026 39.6475H105.288V32.292H106.149ZM123.501 31.8682V32.9893H126.523V30.7881H127.384V39.6064H126.523V36.2979H123.501V37.4053H118.033V31.8682H123.501ZM118.88 32.5791V36.708H122.654V32.5791H118.88ZM127.671 41.835V42.5596H119.659V38.8271H120.521V41.835H127.671ZM123.501 35.5596H126.523V33.7275H123.501V35.5596ZM135.727 31.0068C138.379 31.0068 139.951 31.7451 139.951 33.0986C139.951 34.4658 138.379 35.2178 135.727 35.2178C133.074 35.2178 131.502 34.4658 131.502 33.0986C131.502 31.7451 133.074 31.0068 135.727 31.0068ZM135.727 31.6768C133.662 31.6768 132.391 32.2236 132.391 33.0986C132.391 34.0146 133.662 34.5479 135.727 34.5479C137.805 34.5479 139.076 34.0146 139.076 33.0986C139.076 32.2236 137.805 31.6768 135.727 31.6768ZM141.236 36.1201V36.8311H130.244V36.1201H141.236ZM139.787 37.9795V40.5635H132.473V41.9854H140.17V42.6963H131.639V39.8936H138.953V38.6631H131.598V37.9795H139.787ZM156.828 36.6533V37.3779H148.57V31.9502H156.705V32.6748H149.418V36.6533H156.828ZM158.168 40.3994V41.1377H147.121V40.3994H158.168ZM169.846 30.7881V42.8604H168.999V36.2568H166.524V35.5186H168.999V30.7881H169.846ZM161.288 39.1826C163.502 39.1826 165.02 39.1143 166.825 38.7725L166.893 39.5107C165.075 39.8389 163.53 39.9209 161.288 39.9346H160.385V35.3271H164.924V32.6748H160.358V31.9365H165.772V36.0518H161.247V39.1826H161.288ZM182.988 30.7881V42.8467H182.14V36.5303H180.185V42.2041H179.365V31.0752H180.185V35.7783H182.14V30.7881H182.988ZM174.224 32.292V38.8818C175.489 38.875 176.842 38.7861 178.421 38.4717L178.531 39.251C176.835 39.5654 175.441 39.6611 174.101 39.6475H173.363V32.292H174.224ZM195.104 32.0596V33.2764C195.09 34.7529 195.09 36.3936 194.666 38.7725L193.791 38.6631C194.229 36.3936 194.229 34.7256 194.242 33.2764V32.7842H186.709V32.0596H195.104ZM196.512 40.3174V41.0557H185.52V40.3174H189.949V35.9561H190.797V40.3174H196.512ZM24.7657 60.7744V65.6006H26.6388V66.3525H24.7657V72.8467H23.9044V60.7744H24.7657ZM18.7638 62.0732V62.7979H16.5626V68.8682C17.1573 68.8613 17.9913 68.7998 18.9005 68.5947L18.9962 69.333C17.8067 69.5928 16.8497 69.6064 16.2071 69.6064H15.7013V62.0732H18.7638ZM22.6739 62.0732V62.7979H20.3223V68.8818C21.3136 68.875 22.1681 68.8135 23.1388 68.5674L23.2345 69.3057C22.0997 69.5791 21.1837 69.6064 20.0216 69.6064H19.4747V62.0732H22.6739ZM39.0966 66.6396V67.3779H28.1044V66.6396H39.0966ZM38.1395 64.6982V65.4092H33.9559V61.376H38.0165V62.0869H34.8173V64.6982H38.1395ZM33.245 61.376V62.0869H30.0184V64.6982C31.078 64.6914 32.1991 64.623 33.4501 64.3291L33.5595 65.0537C32.1513 65.3682 30.9618 65.4229 29.7997 65.4092H29.1434V61.376H33.245ZM34.038 68.8682C34.038 70.6045 36.1708 71.7803 38.2079 72.0947L37.8661 72.792C36.1024 72.4707 34.3114 71.5957 33.6141 70.1807C32.9032 71.5957 31.1122 72.4707 29.3485 72.792L29.0067 72.0947C31.0302 71.7803 33.163 70.6045 33.163 68.8682V68.4307H34.038V68.8682ZM50.2966 60.7881V64.8623H52.1559V65.6006H50.2966V69.8389H49.4352V60.7881H50.2966ZM48.1364 62.333V63.0576H40.945V62.333H44.1169V60.8018H44.9645V62.333H48.1364ZM44.5407 63.7959C46.2497 63.7959 47.4118 64.6709 47.4118 66.0244C47.4118 67.3779 46.2497 68.2393 44.5407 68.2393C42.8044 68.2393 41.6559 67.3779 41.6559 66.0244C41.6559 64.6709 42.8044 63.7959 44.5407 63.7959ZM44.5407 64.4932C43.2966 64.4932 42.4626 65.1084 42.4763 66.0244C42.4626 66.9268 43.2966 67.542 44.5407 67.5283C45.7712 67.542 46.5915 66.9268 46.6052 66.0244C46.5915 65.1084 45.7712 64.4932 44.5407 64.4932ZM50.8845 71.835V72.5596H42.8317V69.1006H43.6794V71.835H50.8845ZM67.72 60.7881V69.7432H66.8587V66.3389H63.6184C63.0647 67.0908 62.1624 67.542 61.0891 67.542C59.2845 67.542 57.972 66.3115 57.9856 64.5615C57.972 62.8115 59.2845 61.5811 61.0891 61.5674C62.1487 61.5742 63.0442 62.0254 63.5911 62.7568H66.8587V60.7881H67.72ZM68.0755 71.835V72.5596H60.0638V68.7861H60.9251V71.835H68.0755ZM61.0891 62.3467C59.763 62.3604 58.8059 63.3037 58.8059 64.5615C58.8059 65.833 59.763 66.7764 61.0891 66.7764C62.3743 66.7764 63.345 65.833 63.345 64.5615C63.345 63.3037 62.3743 62.3604 61.0891 62.3467ZM63.9876 63.4814C64.1106 63.8096 64.179 64.1719 64.179 64.5615C64.179 64.9375 64.1106 65.293 64.0013 65.6143H66.8587V63.4814H63.9876ZM80.5196 60.7881V66.9814H79.6583V65.6143H76.2813V64.9033H79.6583V63.3311H76.4864C75.7276 65.2588 73.8067 66.5918 71.127 67.2549L70.7989 66.5303C73.8136 65.8057 75.6866 64.2607 75.8712 62.1553H71.4005V61.4307H76.8282C76.8282 61.8477 76.7804 62.2441 76.7052 62.6201H79.6583V60.7881H80.5196ZM80.5196 67.5693V70.3857H73.6563V72.0127H80.9845V72.7236H72.8087V69.7021H79.6583V68.2803H72.7677V67.5693H80.5196ZM88.8622 61.0068C91.5145 61.0068 93.0868 61.7451 93.0868 63.0986C93.0868 64.4658 91.5145 65.2178 88.8622 65.2178C86.2098 65.2178 84.6376 64.4658 84.6376 63.0986C84.6376 61.7451 86.2098 61.0068 88.8622 61.0068ZM88.8622 61.6768C86.7977 61.6768 85.5263 62.2236 85.5263 63.0986C85.5263 64.0146 86.7977 64.5479 88.8622 64.5479C90.9403 64.5479 92.2118 64.0146 92.2118 63.0986C92.2118 62.2236 90.9403 61.6768 88.8622 61.6768ZM94.372 66.1201V66.8311H83.3798V66.1201H94.372ZM92.9227 67.9795V70.5635H85.6083V71.9854H93.3055V72.6963H84.7743V69.8936H92.0888V68.6631H84.7333V67.9795H92.9227ZM106.327 61.9092V67.3916H100.817V61.9092H106.327ZM101.651 62.6338V66.6807H105.493V62.6338H101.651ZM109.649 60.7744V64.5205H111.508V65.2451H109.649V69.6338H108.788V60.7744H109.649ZM110.237 71.835V72.5596H102.184V68.7998H103.032V71.835H110.237ZM124.048 65.9561V66.6807H113.056V65.9561H124.048ZM122.736 64.1514V64.876H114.56V61.2529H122.599V61.9639H115.421V64.1514H122.736ZM122.599 67.8701V70.5635H115.284V71.9717H122.982V72.6826H114.45V69.8799H121.765V68.5674H114.409V67.8701H122.599ZM129.068 61.7451C130.716 61.7451 131.892 63.1875 132.035 65.4775H134.947V60.7881H135.795V72.8604H134.947V66.1885H132.049C131.946 68.5742 130.757 70.085 129.068 70.085C127.305 70.085 126.074 68.458 126.088 65.915C126.074 63.3721 127.305 61.7451 129.068 61.7451ZM129.068 62.5107C127.783 62.5107 126.908 63.9053 126.908 65.915C126.908 67.9385 127.783 69.3193 129.068 69.3193C130.34 69.3193 131.229 67.9385 131.229 65.915C131.229 63.9053 130.34 62.5107 129.068 62.5107ZM148.923 60.7881V72.8467H148.075V66.5303H146.12V72.2041H145.3V61.0752H146.12V65.7783H148.075V60.7881H148.923ZM140.159 62.292V68.8818C141.424 68.875 142.777 68.7861 144.356 68.4717L144.466 69.251C142.77 69.5654 141.376 69.6611 140.036 69.6475H139.298V62.292H140.159ZM161.189 64.5479V65.2725H152.986V61.2256H153.834V64.5479H161.189ZM162.474 67.0225V67.7334H151.441V67.0225H162.474ZM161.258 71.8076V72.5459H152.931V69.0459H153.779V71.8076H161.258ZM172.241 62.7568C172.241 64.4521 173.622 65.9834 175.318 66.585L174.839 67.2822C173.499 66.7695 172.371 65.7031 171.859 64.3838C171.353 65.8809 170.204 67.043 168.796 67.6104L168.331 66.9131C170.081 66.2432 171.394 64.6299 171.408 62.7021V61.4033H172.241V62.7568ZM177.724 60.7881V64.0283H179.583V64.7666H177.724V68.1846H176.863V60.7881H177.724ZM173.882 68.5127C176.343 68.5127 177.82 69.3057 177.82 70.6592C177.82 72.0264 176.343 72.8057 173.882 72.8057C171.408 72.8057 169.917 72.0264 169.931 70.6592C169.917 69.3057 171.408 68.5127 173.882 68.5127ZM173.882 69.2236C171.982 69.2236 170.765 69.7705 170.779 70.6592C170.765 71.5615 171.982 72.1084 173.882 72.1221C175.783 72.1084 176.986 71.5615 176.986 70.6592C176.986 69.7705 175.783 69.2236 173.882 69.2236ZM191.043 60.7881V68.1162H190.182V60.7881H191.043ZM187.037 68.4033C189.553 68.4033 191.07 69.2236 191.084 70.6455C191.07 72.0811 189.553 72.9014 187.037 72.9014C184.522 72.9014 182.99 72.0811 182.99 70.6455C182.99 69.2236 184.522 68.4033 187.037 68.4033ZM187.037 69.1006C185.082 69.1006 183.852 69.7021 183.852 70.6455C183.852 71.6025 185.082 72.2041 187.037 72.1904C188.992 72.2041 190.223 71.6025 190.236 70.6455C190.223 69.7021 188.992 69.1006 187.037 69.1006ZM185.356 63.0713C185.356 64.7529 186.777 66.2021 188.527 66.7764L188.076 67.46C186.675 66.9814 185.479 65.9492 184.945 64.6162C184.44 66.0859 183.25 67.2344 181.815 67.7881L181.35 67.0908C183.1 66.4619 184.481 64.876 184.494 63.0713V62.5107H181.568V61.7861H188.254V62.5107H185.356V63.0713ZM203.843 60.7881V67.2412H202.981V60.7881H203.843ZM196.966 67.8838V69.4697H202.995V67.8838H203.843V72.6689H196.118V67.8838H196.966ZM196.966 71.958H202.995V70.1807H196.966V71.958ZM197.362 61.3896C199.181 61.3896 200.479 62.4971 200.479 64.1514C200.479 65.7783 199.181 66.8994 197.362 66.8857C195.544 66.8994 194.231 65.7783 194.245 64.1514C194.231 62.4971 195.544 61.3896 197.362 61.3896ZM197.362 62.1279C196.036 62.1279 195.079 62.9756 195.079 64.1514C195.079 65.3135 196.036 66.1611 197.362 66.1611C198.688 66.1611 199.645 65.3135 199.645 64.1514C199.645 62.9756 198.688 62.1279 197.362 62.1279ZM216.601 60.7881V72.8467H215.754V60.7881H216.601ZM208.398 61.9775V68.9229H208.508C210.394 68.9229 212.295 68.7725 214.373 68.335L214.496 69.0869C212.349 69.5381 210.463 69.6885 208.508 69.6885H207.55V61.9775H208.398ZM228.813 60.7881V65.6553H230.891V66.3799H228.813V72.8604H227.952V60.7881H228.813ZM221.006 69.0596C223.303 69.0596 224.862 68.9775 226.694 68.6357L226.817 69.3877C224.917 69.7295 223.344 69.8115 221.006 69.8115H220.077V61.9775H225.696V62.7021H220.938V69.0596H221.006ZM233.519 71.8486C233.109 71.8486 232.781 71.5205 232.781 71.124C232.781 70.7139 233.109 70.3857 233.519 70.3857C233.915 70.3857 234.243 70.7139 234.243 71.124C234.243 71.5205 233.915 71.8486 233.519 71.8486Z" fill="#1A1A1A"/>
</svg>
