<svg width="266" height="105" viewBox="0 0 266 105" fill="none" xmlns="http://www.w3.org/2000/svg">
<path d="M43.7393 0.67627V11.2075H42.7549V8.11377H40.1768V7.30127H42.7549V5.27002H40.1768V4.42627H42.7549V0.67627H43.7393ZM40.2393 2.44189V3.27002H32.3799V2.44189H35.8643V0.67627H36.833V2.44189H40.2393ZM36.3487 4.11377C38.1768 4.11377 39.4424 5.14502 39.4424 6.72314C39.4424 8.28564 38.1768 9.33252 36.3487 9.33252C34.5049 9.33252 33.2393 8.28564 33.2549 6.72314C33.2393 5.14502 34.5049 4.11377 36.3487 4.11377ZM36.3487 4.91064C35.0518 4.92627 34.1612 5.67627 34.1768 6.72314C34.1612 7.78564 35.0518 8.53564 36.3487 8.53564C37.6299 8.53564 38.5049 7.78564 38.5205 6.72314C38.5049 5.67627 37.6299 4.92627 36.3487 4.91064ZM44.0674 13.3013V14.1294H34.9112V10.2544H35.8955V13.3013H44.0674ZM58.3205 0.67627V7.87939H57.3518V0.67627H58.3205ZM58.3362 8.59814V11.7544H50.4612V13.4575H58.8674V14.2856H49.508V10.9731H57.3674V9.41064H49.4612V8.59814H58.3362ZM51.758 2.16064C51.7424 4.19189 53.3987 5.94189 55.383 6.62939L54.8674 7.41064C53.2502 6.82471 51.8908 5.60596 51.2737 4.02002C50.6799 5.71533 49.3049 7.05127 47.6799 7.67627L47.1643 6.87939C49.1487 6.16064 50.758 4.28564 50.7737 2.16064V1.09814H51.758V2.16064ZM69.2455 2.23877V2.83252C69.2299 3.86377 69.2299 5.72314 68.8237 8.36377L67.8393 8.28564C68.2299 5.86377 68.2612 4.12939 68.2612 3.06689H62.2768V2.23877H69.2455ZM65.5893 6.17627V10.4263C67.1674 10.3716 68.7846 10.27 70.2612 10.0825L70.3237 10.8481C67.4018 11.2856 64.1049 11.3481 61.6362 11.3481L61.4799 10.4888C62.4252 10.4888 63.4955 10.481 64.6049 10.4575V6.17627H65.5893ZM72.183 0.67627V6.52002H74.5424V7.37939H72.183V14.4575H71.1987V0.67627H72.183ZM86.5799 1.34814V1.61377C86.5799 2.28564 86.5799 3.90283 86.0487 6.14502H90.5799C90.994 4.32471 91.0565 3.01221 91.0643 2.17627H87.6893V1.34814H92.0174V1.78564C92.0174 2.54346 92.0174 4.04346 91.5799 6.14502H93.533V6.97314H87.658V9.48877H91.908V14.2544H82.5018V9.48877H86.7049V6.97314H80.9237V6.14502H85.0643C85.494 4.34814 85.5877 3.01221 85.6112 2.17627H82.1737V1.34814H86.5799ZM83.4705 10.3013V13.4263H90.9393V10.3013H83.4705ZM100.067 1.70752C102.239 1.70752 103.739 3.00439 103.755 4.89502C103.739 6.80127 102.239 8.08252 100.067 8.08252C97.9112 8.08252 96.3799 6.80127 96.3799 4.89502C96.3799 3.00439 97.9112 1.70752 100.067 1.70752ZM100.067 2.58252C98.4893 2.58252 97.333 3.55127 97.3487 4.89502C97.333 6.23877 98.4893 7.22314 100.067 7.20752C101.646 7.22314 102.786 6.23877 102.786 4.89502C102.786 3.55127 101.646 2.58252 100.067 2.58252ZM106.771 0.67627V14.4731H105.786V0.67627H106.771ZM95.6299 10.4888C98.208 10.5044 101.739 10.4888 104.833 10.02L104.911 10.77C101.724 11.3638 98.2862 11.3638 95.7862 11.3638L95.6299 10.4888ZM126.199 0.67627V9.06689H125.214V7.05127H121.355V6.20752H125.214V4.16064H121.527C120.605 6.40283 118.41 8.05127 115.464 8.94189L115.042 8.14502C118.417 7.12158 120.683 5.13721 120.917 2.58252H115.746V1.73877H121.98C121.98 2.30908 121.91 2.84814 121.777 3.36377H125.214V0.67627H126.199ZM121.714 9.19189C124.511 9.19189 126.277 10.1606 126.277 11.7856C126.277 13.4263 124.511 14.395 121.714 14.395C118.902 14.395 117.136 13.4263 117.136 11.7856C117.136 10.1606 118.902 9.19189 121.714 9.19189ZM121.714 10.0044C119.527 10.0044 118.105 10.6763 118.105 11.7856C118.105 12.895 119.527 13.5825 121.714 13.5825C123.871 13.5825 125.292 12.895 125.292 11.7856C125.292 10.6763 123.871 10.0044 121.714 10.0044ZM141.217 0.67627V14.4575H140.264V0.67627H141.217ZM138.452 1.06689V13.7231H137.499V8.86377H134.749V8.03564H137.499V5.39502H134.983C134.296 7.75439 132.741 9.87158 130.124 11.4419L129.53 10.7231C132.592 8.89502 134.186 6.23096 134.421 3.30127H130.077V2.45752H135.374C135.374 3.16846 135.311 3.87939 135.171 4.56689H137.499V1.06689H138.452ZM155.861 0.67627V14.4575H154.908V0.67627H155.861ZM153.127 0.98877V13.7388H152.174V6.97314H150.189C150.072 9.64502 148.924 11.3325 147.221 11.3325C145.439 11.3325 144.283 9.48877 144.283 6.61377C144.283 3.72314 145.439 1.89502 147.221 1.89502C148.9 1.89502 150.041 3.52002 150.174 6.12939H152.174V0.98877H153.127ZM147.221 2.81689C146.002 2.81689 145.205 4.33252 145.221 6.61377C145.205 8.87939 146.002 10.4106 147.221 10.4106C148.455 10.4106 149.252 8.87939 149.252 6.61377C149.252 4.33252 148.455 2.81689 147.221 2.81689ZM163.442 4.56689C163.442 7.02002 165.239 9.53564 167.146 10.4263L166.552 11.2388C164.997 10.4185 163.575 8.67627 162.974 6.66064C162.364 8.78564 160.958 10.6372 159.411 11.4888L158.771 10.7075C160.677 9.73877 162.442 7.08252 162.458 4.56689V1.91064H163.442V4.56689ZM170.083 0.67627V14.4731H169.114V6.31689H165.646V5.48877H169.114V0.67627H170.083ZM189.152 6.95752V7.78564H179.605V1.87939H180.589V6.95752H189.152ZM190.636 11.6138V12.4575H178.011V11.6138H190.636ZM203.952 0.67627V14.4575H202.983V9.02002H199.28C198.803 10.145 198.171 11.231 197.327 12.2075L196.499 11.6763C198.733 9.16846 199.444 5.83252 199.546 3.03564H197.171V2.19189H200.483C200.483 2.93408 200.452 3.72314 200.358 4.55127H202.983V0.67627H203.952ZM196.764 2.19189C196.764 5.31689 195.842 8.66064 193.327 11.27L192.546 10.6919C194.671 8.55908 195.655 5.77002 195.827 3.03564H192.967V2.19189H196.764ZM199.592 8.17627H202.983V5.36377H200.264C200.116 6.29346 199.905 7.23877 199.592 8.17627ZM212.064 5.06689C212.064 7.42627 213.955 9.81689 215.892 10.6606L215.33 11.4419C213.744 10.6997 212.228 9.05127 211.58 7.08252C210.939 9.15283 209.431 10.981 207.892 11.7856L207.299 11.0044C209.174 10.0825 211.064 7.45752 211.08 5.06689V2.95752H207.721V2.11377H215.471V2.95752H212.064V5.06689ZM218.58 0.67627V14.4575H217.596V0.67627H218.58ZM233.021 4.97314V5.80127H223.646V1.17627H224.614V4.97314H233.021ZM234.489 7.80127V8.61377H221.88V7.80127H234.489ZM233.099 13.27V14.1138H223.583V10.1138H224.552V13.27H233.099ZM12.1299 30.6763V38.645H11.1455V34.3169H7.92679V33.5044H11.1455V30.6763H12.1299ZM12.1299 39.3794V44.2544H3.20804V39.3794H12.1299ZM4.17679 40.1919V43.4419H11.1612V40.1919H4.17679ZM5.30179 32.8013C5.30179 34.6763 6.87991 36.395 8.83304 37.0513L8.28616 37.8638C6.73929 37.2778 5.44241 36.0981 4.84866 34.6138C4.27054 36.2778 2.96585 37.5513 1.33304 38.1763L0.801788 37.3794C2.83304 36.6763 4.34866 34.895 4.36429 32.7544V31.2544H5.30179V32.8013ZM19.383 34.7388C19.383 36.9106 20.6018 39.3013 22.4143 40.3481L21.8205 41.1138C20.4612 40.2935 19.4221 38.7466 18.9299 37.0044C18.4299 38.9028 17.3205 40.5435 15.9299 41.395L15.2737 40.6606C17.133 39.5981 18.4299 37.145 18.4455 34.77V32.0044H19.383V34.7388ZM27.1643 30.6763V44.4575H26.2112V30.6763H27.1643ZM24.3205 30.9888V43.7388H23.383V36.5669H20.8674V35.7075H23.383V30.9888H24.3205ZM40.6362 30.6763V36.4419H43.0112V37.2856H40.6362V44.4575H39.6518V30.6763H40.6362ZM38.183 32.9419V33.77H29.9487V32.9419H33.6205V30.8169H34.6049V32.9419H38.183ZM34.1362 35.0356C36.0737 35.0356 37.4643 36.3169 37.4643 38.1606C37.4643 40.0044 36.0737 41.2856 34.1362 41.2856C32.1987 41.2856 30.7924 40.0044 30.808 38.1606C30.7924 36.3169 32.1987 35.0356 34.1362 35.0356ZM34.1362 35.8638C32.7612 35.8794 31.7455 36.8481 31.7455 38.1606C31.7455 39.4731 32.7612 40.4419 34.1362 40.4263C35.5112 40.4419 36.5268 39.4731 36.5268 38.1606C36.5268 36.8481 35.5112 35.8794 34.1362 35.8638ZM55.608 32.1294V33.52C55.5924 35.2075 55.5924 37.0825 55.108 39.8013L54.108 39.6763C54.608 37.0825 54.608 35.1763 54.6237 33.52V32.9575H46.0143V32.1294H55.608ZM57.2174 41.5669V42.4106H44.6549V41.5669H49.7174V36.5825H50.6862V41.5669H57.2174ZM74.6768 30.6763V34.1606H76.8018V34.9888H74.6768V38.5356H73.6924V30.6763H74.6768ZM70.9268 31.5981C70.9268 35.0044 68.4424 37.5044 64.3799 38.6138L63.9737 37.8169C67.458 36.856 69.6299 34.9185 69.8799 32.4263H64.5674V31.5981H70.9268ZM74.6768 39.2075V44.2544H66.0205V39.2075H74.6768ZM67.0049 40.0513V43.4263H73.6924V40.0513H67.0049ZM83.1487 32.9419C83.1487 34.9419 84.6955 36.6763 86.6643 37.3638L86.1018 38.1294C84.5705 37.5435 83.2893 36.3716 82.6955 34.8481C82.1252 36.5747 80.7893 37.895 79.133 38.5513L78.6018 37.7388C80.633 37.0044 82.1799 35.1763 82.1955 32.9731V31.4731H83.1487V32.9419ZM89.9299 30.6763V38.8638H88.9455V34.5825H85.7268V33.7544H88.9455V30.6763H89.9299ZM85.3987 39.27C88.2424 39.2856 89.9768 40.2231 89.9768 41.8638C89.9768 43.4888 88.2424 44.4106 85.3987 44.4106C82.5549 44.4106 80.8205 43.4888 80.8362 41.8638C80.8205 40.2231 82.5549 39.2856 85.3987 39.27ZM85.3987 40.0825C83.1955 40.0825 81.7893 40.7544 81.8049 41.8638C81.7893 42.9419 83.1955 43.6138 85.3987 43.6138C87.6018 43.6138 89.008 42.9419 89.008 41.8638C89.008 40.7544 87.6018 40.0825 85.3987 40.0825ZM97.8549 33.3013C97.8549 35.145 99.3705 36.8638 101.324 37.5513L100.808 38.3325C99.2455 37.7544 97.9721 36.5669 97.3862 35.0825C96.8002 36.7388 95.4408 38.0435 93.808 38.6763L93.2924 37.895C95.2612 37.1763 96.8705 35.3325 96.8705 33.3169V32.5044H93.6362V31.6763H101.042V32.5044H97.8549V33.3013ZM104.558 39.7231V44.4575H103.574V40.5356H95.3549V39.7231H104.558ZM104.558 30.6763V38.9419H103.574V35.2075H100.589V34.3794H103.574V30.6763H104.558ZM119.155 30.6763V40.8169H118.171V30.6763H119.155ZM119.608 43.3013V44.1294H110.358V39.77H111.342V43.3013H119.608ZM111.749 31.6763C113.796 31.6763 115.311 33.0513 115.311 35.02C115.311 37.0044 113.796 38.395 111.749 38.3794C109.702 38.395 108.171 37.0044 108.186 35.02C108.171 33.0513 109.702 31.6763 111.749 31.6763ZM111.749 32.5356C110.249 32.5356 109.139 33.5981 109.139 35.02C109.139 36.4575 110.249 37.5044 111.749 37.5044C113.233 37.5044 114.358 36.4575 114.358 35.02C114.358 33.5981 113.233 32.5356 111.749 32.5356ZM139.708 38.0356V38.8638H133.958V41.7075H132.989V38.8638H127.099V38.0356H139.708ZM138.302 43.3013V44.1294H128.755V40.3794H129.739V43.3013H138.302ZM129.786 31.1138V32.9888H137.036V31.1138H138.021V36.5669H128.802V31.1138H129.786ZM129.786 35.7388H137.036V33.77H129.786V35.7388ZM146.289 31.3638C148.336 31.3638 149.805 32.4731 149.805 34.145C149.805 35.8169 148.336 36.9575 146.289 36.9419C144.242 36.9575 142.789 35.8169 142.805 34.145C142.789 32.4731 144.242 31.3638 146.289 31.3638ZM146.289 32.1919C144.821 32.1763 143.742 33.02 143.758 34.145C143.742 35.3013 144.821 36.1138 146.289 36.1138C147.789 36.1138 148.867 35.3013 148.867 34.145C148.867 33.02 147.789 32.1763 146.289 32.1919ZM153.039 30.6763V44.4731H152.071V30.6763H153.039ZM141.696 38.2231C144.321 38.2388 147.899 38.1763 150.992 37.7231L151.071 38.4888C149.688 38.731 148.258 38.8794 146.867 38.9575V44.02H145.883V39.0044C144.422 39.0825 143.031 39.0903 141.836 39.0981L141.696 38.2231ZM167.699 30.6763V44.4575H166.73V30.6763H167.699ZM163.636 32.1919C163.621 36.0825 161.667 39.5981 157.136 41.7856L156.589 40.9731C160.371 39.1841 162.394 36.3638 162.652 33.0044H157.199V32.1919H163.636ZM183.592 37.145V37.9419H170.983V37.145H183.592ZM181.999 39.1919V42.02H173.53V43.5044H182.467V44.2544H172.561V41.2856H181.014V39.9575H172.53V39.1919H181.999ZM181.952 31.145V33.8638H173.608V35.2231H182.186V35.9731H172.639V33.1606H180.967V31.8794H172.592V31.145H181.952ZM194.755 32.9263C194.755 34.8638 196.333 36.6138 198.271 37.3013L197.724 38.0981C196.192 37.5122 194.903 36.2935 194.317 34.7856C193.739 36.4966 192.427 37.8247 190.817 38.4731L190.286 37.6763C192.286 36.9106 193.786 35.0669 193.802 32.8638V31.3794H194.755V32.9263ZM201.021 30.6763V34.3794H203.146V35.2231H201.021V39.1294H200.036V30.6763H201.021ZM196.63 39.5044C199.442 39.5044 201.13 40.4106 201.13 41.9575C201.13 43.52 199.442 44.4106 196.63 44.4106C193.802 44.4106 192.099 43.52 192.114 41.9575C192.099 40.4106 193.802 39.5044 196.63 39.5044ZM196.63 40.3169C194.458 40.3169 193.067 40.9419 193.083 41.9575C193.067 42.9888 194.458 43.6138 196.63 43.6294C198.802 43.6138 200.177 42.9888 200.177 41.9575C200.177 40.9419 198.802 40.3169 196.63 40.3169ZM216.242 30.6763V39.0513H215.258V30.6763H216.242ZM211.664 39.3794C214.539 39.3794 216.274 40.3169 216.289 41.9419C216.274 43.5825 214.539 44.52 211.664 44.52C208.789 44.52 207.039 43.5825 207.039 41.9419C207.039 40.3169 208.789 39.3794 211.664 39.3794ZM211.664 40.1763C209.43 40.1763 208.024 40.8638 208.024 41.9419C208.024 43.0356 209.43 43.7231 211.664 43.7075C213.899 43.7231 215.305 43.0356 215.321 41.9419C215.305 40.8638 213.899 40.1763 211.664 40.1763ZM209.742 33.2856C209.742 35.2075 211.367 36.8638 213.367 37.52L212.852 38.3013C211.25 37.7544 209.883 36.5747 209.274 35.0513C208.696 36.731 207.336 38.0435 205.696 38.6763L205.164 37.8794C207.164 37.1606 208.742 35.3481 208.758 33.2856V32.645H205.414V31.8169H213.055V32.645H209.742V33.2856ZM230.277 30.6763V34.27H232.402V35.1138H230.277V38.6606H229.292V30.6763H230.277ZM222.621 39.2856V40.895H229.292V39.2856H230.277V44.2544H221.652V39.2856H222.621ZM222.621 43.4419H229.292V41.6919H222.621V43.4419ZM227.808 32.1763V32.9888H219.589V32.1763H223.214V30.5356H224.183V32.1763H227.808ZM223.699 33.7231C225.667 33.7231 226.98 34.6606 226.98 36.1294C226.98 37.5981 225.667 38.5513 223.699 38.5356C221.699 38.5513 220.402 37.5981 220.402 36.1294C220.402 34.6606 221.699 33.7231 223.699 33.7231ZM223.699 34.5044C222.277 34.4888 221.324 35.1606 221.339 36.1294C221.324 37.0981 222.277 37.77 223.699 37.77C225.105 37.77 226.042 37.0981 226.058 36.1294C226.042 35.1606 225.105 34.4888 223.699 34.5044ZM245.452 30.6763V44.4575H244.483V30.6763H245.452ZM236.077 32.0356V39.9731H236.202C238.358 39.9731 240.53 39.8013 242.905 39.3013L243.046 40.1606C240.592 40.6763 238.436 40.8481 236.202 40.8481H235.108V32.0356H236.077ZM259.408 30.6763V36.2388H261.783V37.0669H259.408V44.4731H258.424V30.6763H259.408ZM250.486 40.1294C253.111 40.1294 254.892 40.0356 256.986 39.645L257.127 40.5044C254.955 40.895 253.158 40.9888 250.486 40.9888H249.424V32.0356H255.846V32.8638H250.408V40.1294H250.486ZM264.786 43.3169C264.317 43.3169 263.942 42.9419 263.942 42.4888C263.942 42.02 264.317 41.645 264.786 41.645C265.239 41.645 265.614 42.02 265.614 42.4888C265.614 42.9419 265.239 43.3169 264.786 43.3169ZM15.9674 62.3013V63.1138H8.10803V62.3013H11.5924V60.5513H12.5612V62.3013H15.9674ZM12.0768 63.9106C13.9049 63.9106 15.1705 64.9106 15.1705 66.4575C15.1705 67.9888 13.9049 68.9888 12.0768 68.9888C10.2174 68.9888 8.96741 67.9888 8.98303 66.4575C8.96741 64.9106 10.2174 63.9106 12.0768 63.9106ZM12.0768 64.6763C10.7643 64.6763 9.88928 65.4106 9.90491 66.4575C9.88928 67.5044 10.7643 68.2231 12.0768 68.2231C13.358 68.2231 14.2487 67.5044 14.2487 66.4575C14.2487 65.4106 13.358 64.6763 12.0768 64.6763ZM19.4674 60.6763V69.6294H18.483V67.5669H15.9049V66.7388H18.483V64.9106H15.9049V64.0825H18.483V60.6763H19.4674ZM14.983 69.7544C17.8268 69.7544 19.5455 70.5981 19.5455 72.0825C19.5455 73.5669 17.8268 74.4106 14.983 74.4106C12.0924 74.4106 10.3737 73.5669 10.3737 72.0825C10.3737 70.5981 12.0924 69.7544 14.983 69.7544ZM14.983 70.5356C12.7799 70.5356 11.3893 71.1138 11.3893 72.0825C11.3893 73.0513 12.7799 73.6294 14.983 73.6294C17.1549 73.6294 18.5299 73.0513 18.5299 72.0825C18.5299 71.1138 17.1549 70.5356 14.983 70.5356ZM28.7362 62.3169V63.1294H24.2674V65.9575H28.5487V66.7856H24.2674V70.0981C26.4705 70.1138 27.783 70.0356 29.3299 69.7231L29.4549 70.5669C27.8143 70.895 26.5018 70.9575 24.1893 70.9575H23.3299V62.3169H28.7362ZM34.5018 60.6763V74.4575H33.5487V67.0981H31.4237V73.7388H30.4549V60.9888H31.4237V66.27H33.5487V60.6763H34.5018ZM48.4893 64.9731V65.8013H39.1143V61.1763H40.083V64.9731H48.4893ZM49.958 67.8013V68.6138H37.3487V67.8013H49.958ZM48.5674 73.27V74.1138H39.0518V70.1138H40.0205V73.27H48.5674ZM59.1987 68.7544V70.5981H62.058V68.7544H62.9643V74.2544H58.2612V68.7544H59.1987ZM59.1987 73.4575H62.058V71.3794H59.1987V73.4575ZM66.8393 69.895C66.8393 71.3638 67.7768 72.9419 69.4643 73.5981L68.933 74.3638C67.6283 73.8169 66.769 72.77 66.3549 71.5669C65.933 72.7622 65.058 73.8091 63.7924 74.3638L63.2768 73.5981C64.933 72.9106 65.8705 71.3325 65.8862 69.895V68.6763H66.8393V69.895ZM60.433 61.3169C62.308 61.3169 63.6987 62.3794 63.933 64.0044H67.0268V60.6763H68.0112V67.9731H67.0268V64.8481H63.9487C63.7377 66.5044 62.3315 67.5981 60.433 67.5981C58.3393 67.5981 56.8705 66.3325 56.8862 64.4575C56.8705 62.5825 58.3393 61.3169 60.433 61.3169ZM60.433 62.145C58.9018 62.145 57.8237 63.1294 57.8237 64.4575C57.8237 65.7856 58.9018 66.77 60.433 66.7856C61.933 66.77 63.0112 65.7856 63.0112 64.4575C63.0112 63.1294 61.933 62.145 60.433 62.145ZM76.0768 65.0669C76.0768 67.4263 77.9674 69.8169 79.9049 70.6606L79.3424 71.4419C77.7565 70.6997 76.2408 69.0513 75.5924 67.0825C74.9518 69.1528 73.444 70.981 71.9049 71.7856L71.3112 71.0044C73.1862 70.0825 75.0768 67.4575 75.0924 65.0669V62.9575H71.733V62.1138H79.483V62.9575H76.0768V65.0669ZM82.5924 60.6763V74.4575H81.608V60.6763H82.5924ZM92.8455 61.9575V68.2231H86.5487V61.9575H92.8455ZM87.5018 62.7856V67.4106H91.8924V62.7856H87.5018ZM96.6424 60.6606V64.9419H98.7674V65.77H96.6424V70.7856H95.658V60.6606H96.6424ZM97.3143 73.3013V74.1294H88.1112V69.8325H89.0799V73.3013H97.3143ZM117.789 68.0356V68.8638H112.039V71.7075H111.071V68.8638H105.18V68.0356H117.789ZM116.383 73.3013V74.1294H106.836V70.3794H107.821V73.3013H116.383ZM107.867 61.1138V62.9888H115.117V61.1138H116.102V66.5669H106.883V61.1138H107.867ZM107.867 65.7388H115.117V63.77H107.867V65.7388ZM131.183 60.6763V68.8638H130.199V66.5513H126.746V67.7856H120.496V61.7388H126.746V62.9888H130.199V60.6763H131.183ZM121.464 62.5513V66.9731H125.777V62.5513H121.464ZM126.652 69.27C129.496 69.2856 131.23 70.2231 131.23 71.8638C131.23 73.4888 129.496 74.4106 126.652 74.4106C123.808 74.4106 122.074 73.4888 122.089 71.8638C122.074 70.2231 123.808 69.2856 126.652 69.27ZM126.652 70.0669C124.449 70.0825 123.042 70.7544 123.058 71.8638C123.042 72.9419 124.449 73.6138 126.652 73.6138C128.855 73.6138 130.261 72.9419 130.261 71.8638C130.261 70.7544 128.855 70.0825 126.652 70.0669ZM126.746 65.7231H130.199V63.8169H126.746V65.7231ZM145.764 60.6763V74.4575H144.78V60.6763H145.764ZM143.139 62.9575V63.7856H134.764V62.9575H138.452V60.7856H139.436V62.9575H143.139ZM138.983 65.0356C140.952 65.0356 142.358 66.3169 142.358 68.1606C142.358 70.0044 140.952 71.2856 138.983 71.2856C136.999 71.2856 135.592 70.0044 135.592 68.1606C135.592 66.3169 136.999 65.0356 138.983 65.0356ZM138.983 65.8638C137.561 65.8794 136.53 66.8481 136.53 68.1606C136.53 69.4731 137.561 70.4419 138.983 70.4263C140.389 70.4419 141.421 69.4731 141.421 68.1606C141.421 66.8481 140.389 65.8794 138.983 65.8638ZM160.63 62.3638C160.63 64.2231 163.224 65.6138 165.489 65.9263L165.083 66.7388C162.989 66.395 160.763 65.2778 160.021 63.5825C159.278 65.2856 157.052 66.395 154.958 66.7388L154.567 65.9263C156.817 65.6138 159.411 64.2231 159.411 62.3638V62.2075H154.896V61.3794H165.177V62.2075H160.63V62.3638ZM164.911 73.3013V74.1294H155.396V70.2388H156.396V73.3013H164.911ZM166.349 68.1919V69.02H153.739V68.1919H159.536V65.7544H160.505V68.1919H166.349ZM180.149 60.6763V74.4575H179.196V67.1919H177.086V73.7388H176.149V60.9888H177.086V66.3325H179.196V60.6763H180.149ZM172.352 64.5513C172.352 67.0981 173.492 69.3169 175.414 70.2856L174.821 71.0669C173.399 70.2935 172.383 68.8794 171.899 67.1138C171.422 69.1216 170.375 70.6606 168.899 71.5356L168.258 70.7856C170.227 69.7075 171.399 67.395 171.399 64.5513V63.2231H168.555V62.3794H175.055V63.2231H172.352V64.5513ZM193.605 60.6763V66.4419H195.98V67.2856H193.605V74.4575H192.621V60.6763H193.605ZM191.152 62.9419V63.77H182.917V62.9419H186.589V60.8169H187.574V62.9419H191.152ZM187.105 65.0356C189.042 65.0356 190.433 66.3169 190.433 68.1606C190.433 70.0044 189.042 71.2856 187.105 71.2856C185.167 71.2856 183.761 70.0044 183.777 68.1606C183.761 66.3169 185.167 65.0356 187.105 65.0356ZM187.105 65.8638C185.73 65.8794 184.714 66.8481 184.714 68.1606C184.714 69.4731 185.73 70.4419 187.105 70.4263C188.48 70.4419 189.496 69.4731 189.496 68.1606C189.496 66.8481 188.48 65.8794 187.105 65.8638ZM208.749 64.9731V65.8013H199.374V61.1763H200.342V64.9731H208.749ZM210.217 67.8013V68.6138H197.608V67.8013H210.217ZM208.827 73.27V74.1138H199.311V70.1138H200.28V73.27H208.827ZM227.646 60.6763V64.1606H229.771V64.9888H227.646V68.5356H226.661V60.6763H227.646ZM223.896 61.5981C223.896 65.0044 221.411 67.5044 217.349 68.6138L216.942 67.8169C220.427 66.856 222.599 64.9185 222.849 62.4263H217.536V61.5981H223.896ZM227.646 69.2075V74.2544H218.989V69.2075H227.646ZM219.974 70.0513V73.4263H226.661V70.0513H219.974ZM242.899 60.6763V68.895H241.914V65.1763H238.93V64.3481H241.914V60.6763H242.899ZM238.367 69.3638C241.211 69.3638 242.946 70.2856 242.946 71.895C242.946 73.5044 241.211 74.4263 238.367 74.4419C235.524 74.4263 233.789 73.5044 233.805 71.895C233.789 70.2856 235.524 69.3638 238.367 69.3638ZM238.367 70.145C236.164 70.145 234.758 70.8169 234.774 71.895C234.758 72.9731 236.164 73.6294 238.367 73.6294C240.571 73.6294 241.977 72.9731 241.977 71.895C241.977 70.8169 240.571 70.145 238.367 70.145ZM236.196 63.27C236.196 65.1294 237.711 66.8481 239.664 67.52L239.149 68.3169C237.594 67.7388 236.321 66.5435 235.742 65.0669C235.149 66.7466 233.789 68.0825 232.149 68.7231L231.633 67.9263C233.617 67.1919 235.211 65.3325 235.211 63.2856V62.5669H231.977V61.7388H239.383V62.5669H236.196V63.27ZM252.433 60.9263C255.464 60.9263 257.261 61.77 257.261 63.3169C257.261 64.8794 255.464 65.7388 252.433 65.7388C249.402 65.7388 247.605 64.8794 247.605 63.3169C247.605 61.77 249.402 60.9263 252.433 60.9263ZM252.433 61.6919C250.074 61.6919 248.621 62.3169 248.621 63.3169C248.621 64.3638 250.074 64.9731 252.433 64.9731C254.808 64.9731 256.261 64.3638 256.261 63.3169C256.261 62.3169 254.808 61.6919 252.433 61.6919ZM258.73 66.77V67.5825H246.167V66.77H258.73ZM257.074 68.895V71.8481H248.714V73.4731H257.511V74.2856H247.761V71.0825H256.121V69.6763H247.714V68.895H257.074ZM84.3127 90.6763V94.145H86.4377V94.9731H84.3127V98.52H83.3283V90.6763H84.3127ZM75.3127 96.77C78.1096 96.7856 79.7502 96.6919 81.6877 96.3013L81.8283 97.1294C79.8127 97.52 78.1408 97.6138 75.3127 97.6138H74.2658V91.6294H80.3596V92.4419H75.2502V96.77H75.3127ZM84.3127 99.2856V104.254H75.7033V99.2856H84.3127ZM76.6565 100.098V103.426H83.3283V100.098H76.6565ZM91.8783 91.77C93.894 91.77 95.3158 93.6294 95.3158 96.5356C95.3158 99.4419 93.894 101.301 91.8783 101.301C89.8627 101.301 88.4565 99.4419 88.4721 96.5356C88.4565 93.6294 89.8627 91.77 91.8783 91.77ZM91.8783 92.645C90.4252 92.645 89.394 94.2388 89.394 96.5356C89.394 98.8481 90.4252 100.426 91.8783 100.426C93.3627 100.426 94.3627 98.8481 94.3783 96.5356C94.3627 94.2388 93.3627 92.645 91.8783 92.645ZM98.8158 90.6763V96.2856H101.191V97.1294H98.8158V104.458H97.8315V90.6763H98.8158ZM114.569 90.6763V104.458H113.6V97.2388H111.366V103.723H110.428V91.0044H111.366V96.3794H113.6V90.6763H114.569ZM104.553 92.395V99.9263C105.999 99.9185 107.546 99.8169 109.35 99.4575L109.475 100.348C107.538 100.708 105.944 100.817 104.413 100.801H103.569V92.395H104.553ZM128.416 92.1294V93.52C128.4 95.2075 128.4 97.0825 127.916 99.8013L126.916 99.6763C127.416 97.0825 127.416 95.1763 127.431 93.52V92.9575H118.822V92.1294H128.416ZM130.025 101.567V102.411H117.463V101.567H122.525V96.5825H123.494V101.567H130.025ZM136.606 95.0669C136.606 97.3013 138.356 99.7388 140.263 100.661L139.685 101.442C138.153 100.668 136.755 98.981 136.138 97.0669C135.505 99.1372 134.005 100.981 132.497 101.786L131.888 101.004C133.763 100.067 135.638 97.4419 135.653 95.0669V92.9575H132.372V92.1138H139.825V92.9575H136.606V95.0669ZM142.7 90.6763V96.3481H145.075V97.1919H142.7V104.458H141.716V90.6763H142.7ZM162.113 90.6763V94.27H164.238V95.1138H162.113V98.6606H161.128V90.6763H162.113ZM154.456 99.2856V100.895H161.128V99.2856H162.113V104.254H153.488V99.2856H154.456ZM154.456 103.442H161.128V101.692H154.456V103.442ZM159.644 92.1763V92.9888H151.425V92.1763H155.05V90.5356H156.019V92.1763H159.644ZM155.535 93.7231C157.503 93.7231 158.816 94.6606 158.816 96.1294C158.816 97.5981 157.503 98.5513 155.535 98.5356C153.535 98.5513 152.238 97.5981 152.238 96.1294C152.238 94.6606 153.535 93.7231 155.535 93.7231ZM155.535 94.5044C154.113 94.4888 153.16 95.1606 153.175 96.1294C153.16 97.0981 154.113 97.77 155.535 97.77C156.941 97.77 157.878 97.0981 157.894 96.1294C157.878 95.1606 156.941 94.4888 155.535 94.5044ZM177.288 90.6763V104.458H176.319V90.6763H177.288ZM167.913 92.0356V99.9731H168.038C170.194 99.9731 172.366 99.8013 174.741 99.3013L174.881 100.161C172.428 100.676 170.272 100.848 168.038 100.848H166.944V92.0356H167.913ZM191.244 90.6763V96.2388H193.619V97.0669H191.244V104.473H190.26V90.6763H191.244ZM182.322 100.129C184.947 100.129 186.728 100.036 188.822 99.645L188.963 100.504C186.791 100.895 184.994 100.989 182.322 100.989H181.26V92.0356H187.681V92.8638H182.244V100.129H182.322ZM196.622 103.317C196.153 103.317 195.778 102.942 195.778 102.489C195.778 102.02 196.153 101.645 196.622 101.645C197.075 101.645 197.45 102.02 197.45 102.489C197.45 102.942 197.075 103.317 196.622 103.317Z" fill="#1A1A1A"/>
</svg>
