<svg width="73" height="36" viewBox="0 0 73 36" fill="none" xmlns="http://www.w3.org/2000/svg">
<path d="M21.792 23.228V26H0.912031L1.02003 25.928C1.70403 25.244 2.13603 24.344 2.13603 23.372V3.428C2.13603 2.456 1.70403 1.52 1.02003 0.872L0.912031 0.763999H5.95203L5.84403 0.872C5.12403 1.52 4.72803 2.456 4.72803 3.428V25.496H18.192C19.164 25.496 20.1 25.1 20.748 24.38L21.792 23.228ZM26.3047 9.836C25.5847 9.836 25.0087 9.224 25.0087 8.504C25.0087 7.784 25.5847 7.208 26.3047 7.208C27.0247 7.208 27.6367 7.784 27.6367 8.504C27.6367 9.224 27.0247 9.836 26.3047 9.836ZM25.0087 15.2C25.0087 14.552 24.9367 13.868 24.7927 13.184C24.7207 12.752 24.5767 12.32 24.4327 11.888C24.0367 10.916 23.0647 10.304 22.0207 10.34V9.836C22.7047 9.836 23.3887 9.908 24.0367 10.124C24.5767 10.268 25.1167 10.52 25.5847 10.844C26.1247 11.24 26.5927 11.744 26.9167 12.32C27.3847 13.22 27.6367 14.228 27.6007 15.2V23.372C27.6007 24.344 28.0327 25.28 28.7527 25.928L28.8247 26H23.7847L23.8927 25.928C24.6127 25.28 25.0087 24.344 25.0087 23.372V15.2ZM45.7382 10.88C45.4142 11.132 45.1622 11.492 44.9822 11.888C44.8382 12.176 44.7662 12.5 44.6942 12.788C44.8742 13.112 45.0542 13.472 45.1622 13.832C45.6302 15.164 45.6302 16.64 45.0902 17.972C44.8742 18.476 44.6222 18.944 44.2622 19.376C43.7582 19.988 43.1462 20.492 42.4262 20.852C41.8142 21.104 41.2022 21.32 40.5542 21.464C39.7982 21.608 39.0422 21.716 38.2862 21.716H38.2502H38.1062C37.3142 21.68 36.4862 21.572 35.6942 21.356C35.0822 21.212 34.4342 20.996 33.8582 20.672C33.2462 20.348 32.6702 19.88 32.2382 19.34C31.9502 19.628 31.7342 19.952 31.6262 20.312C31.4462 20.78 31.3742 21.284 31.4102 21.788C31.4102 22.184 31.5182 22.544 31.7342 22.868C31.7702 22.976 31.8062 23.012 31.8782 23.084C31.9142 23.156 31.9502 23.192 32.0222 23.264C32.1302 23.372 32.2742 23.444 32.3822 23.516L32.5622 23.624L32.7782 23.732C32.9222 23.768 33.0662 23.804 33.2102 23.84C33.9662 24.02 34.7222 24.092 35.4782 24.092C35.9462 24.092 36.4502 24.092 37.0622 24.092H38.0342C38.3582 24.092 38.7542 24.056 39.1862 24.092C40.5542 24.056 41.9222 24.272 43.2542 24.668C44.2262 24.956 45.0902 25.532 45.7742 26.288C46.3142 26.972 46.6382 27.836 46.6382 28.736C46.6382 28.952 46.6382 29.168 46.6022 29.42C46.6022 29.672 46.5662 29.888 46.5302 30.14C46.4222 30.716 46.2422 31.256 45.9542 31.76C45.5582 32.444 45.0182 33.02 44.3702 33.488C43.7582 33.92 43.0742 34.28 42.3542 34.568C41.0582 35.036 39.7262 35.36 38.3582 35.468C36.9902 35.648 35.5862 35.648 34.2182 35.432C33.6782 35.396 33.2462 34.892 33.3182 34.352C33.3542 34.064 33.4622 33.776 33.6422 33.524C33.8582 33.128 34.3262 32.912 34.7942 33.056C35.9462 33.452 37.1342 33.704 38.3582 33.776C39.5822 33.92 40.8422 33.848 42.0662 33.632C42.7502 33.524 43.4342 33.272 44.0462 32.948C44.6582 32.588 45.1622 32.084 45.4862 31.508C45.5582 31.4 45.5942 31.292 45.6302 31.184C45.9542 30.464 46.0262 29.6 45.8102 28.844C45.6302 28.232 45.2342 27.728 44.6942 27.44C44.0822 27.116 43.3982 26.936 42.7142 26.9C41.5262 26.756 40.3382 26.684 39.1502 26.684L37.9982 26.648C37.6382 26.648 37.2782 26.648 36.9542 26.612C36.3422 26.54 35.7662 26.468 35.1542 26.324C34.2182 26.144 33.3542 25.784 32.5622 25.28C32.3822 25.136 32.2022 25.028 32.0582 24.848L31.8062 24.632L31.5902 24.416C31.4462 24.236 31.3382 24.056 31.1942 23.84C31.1582 23.768 31.1222 23.66 31.0502 23.552C31.0142 23.444 30.9782 23.336 30.9422 23.228C30.7982 22.76 30.7622 22.256 30.7982 21.788C30.7982 21.356 30.8702 20.924 31.0142 20.492C31.0142 20.384 31.0862 20.24 31.1222 20.132V20.096C31.3022 19.664 31.5542 19.268 31.9142 18.908C31.6622 18.548 31.4462 18.116 31.3022 17.72C30.8342 16.352 30.8342 14.876 31.3742 13.544C31.5902 13.04 31.8782 12.572 32.2022 12.14C32.7062 11.528 33.3542 11.024 34.0382 10.664C34.6502 10.412 35.2622 10.196 35.9102 10.052C37.5302 9.692 39.1862 9.728 40.7702 10.16C41.2382 10.268 41.7062 10.448 42.1382 10.628C42.3902 10.736 42.3902 10.736 42.7862 10.952C42.9662 11.06 43.1102 11.168 43.2902 11.276C43.4702 11.132 43.6502 10.952 43.8302 10.844C44.2982 10.52 44.8022 10.268 45.3782 10.124C46.0262 9.908 46.7102 9.836 47.3942 9.836V10.34C46.8182 10.34 46.2062 10.52 45.7382 10.88ZM42.7142 17.144C42.9662 16.28 42.9662 15.416 42.7862 14.552C42.6782 14.228 42.5702 13.868 42.4262 13.544C42.2102 13.004 41.9582 12.536 41.6342 12.068C41.3102 11.6 40.9142 11.24 40.4462 10.952C39.9062 10.628 39.2942 10.412 38.6822 10.376C38.5742 10.34 38.4662 10.34 38.3222 10.34H38.2862C37.5662 10.34 36.8462 10.52 36.1982 10.88C35.7302 11.132 35.3342 11.492 34.9742 11.924C34.6502 12.392 34.3622 12.86 34.1102 13.4C33.9662 13.724 33.8582 14.048 33.7502 14.372C33.5342 15.236 33.4982 16.1 33.7142 16.964C33.7862 17.324 33.8942 17.648 34.0382 17.972V18.044C34.2542 18.548 34.5422 19.016 34.8662 19.484C35.1902 19.916 35.5862 20.276 36.0182 20.6C36.5582 20.924 37.1702 21.104 37.7822 21.176C37.8902 21.176 37.9982 21.176 38.1422 21.176H38.1782C38.8982 21.212 39.6182 21.032 40.2662 20.672C40.7342 20.384 41.1302 20.024 41.4902 19.592C41.8142 19.16 42.1382 18.656 42.3542 18.152C42.4982 17.828 42.6062 17.468 42.7142 17.144ZM64.3511 25.928L64.4591 26H59.3831L59.4911 25.928C60.2111 25.28 60.6071 24.344 60.6071 23.372V15.992C60.6071 12.968 59.7791 10.664 57.7271 10.664C56.3591 10.7 55.0631 11.24 54.0551 12.176C53.3711 12.824 52.7231 13.58 52.2191 14.372V23.372C52.2191 24.344 52.6151 25.28 53.3351 25.928L53.4431 26.036H48.4031L48.4751 25.928C49.1951 25.28 49.5911 24.344 49.5911 23.372V6.164C49.5911 5.156 49.8431 4.184 50.3111 3.284C50.6351 2.672 51.1031 2.168 51.6431 1.808C52.1111 1.484 52.6511 1.232 53.1911 1.052C53.8391 0.872 54.5231 0.763999 55.2071 0.763999V1.304C54.1631 1.232 53.1911 1.88 52.7951 2.852C52.6511 3.248 52.5071 3.68 52.4351 4.148C52.2911 4.796 52.2191 5.48 52.2191 6.164V13.472C53.5871 11.636 55.7471 9.836 58.1231 9.836C58.5191 9.8 58.9151 9.836 59.3111 9.908C59.6711 9.98 59.9951 10.052 60.3191 10.196C60.8591 10.484 61.3631 10.844 61.7591 11.312C62.5871 12.248 63.1991 13.616 63.2351 16.028V23.372C63.2351 24.344 63.6311 25.28 64.3511 25.928ZM72.0528 10.34H69.1008V20.312C69.1008 20.996 69.1368 21.716 69.2448 22.436C69.2808 22.904 69.3888 23.372 69.4968 23.804C69.6048 24.236 69.8208 24.596 70.1088 24.92C70.5408 25.316 71.1168 25.532 71.6928 25.496V26C70.9728 26.036 70.2888 25.892 69.6408 25.64C69.1368 25.388 68.6328 25.1 68.2368 24.704C67.7328 24.272 67.3368 23.732 67.0488 23.12C66.6888 22.22 66.4728 21.284 66.4728 20.312V10.34H64.5288C66.9048 9.332 69.1008 4.724 69.1008 4.724V9.836H72.0528V10.34Z" fill="#1A1A1A"/>
</svg>
