<svg width="190" height="135" viewBox="0 0 190 135" fill="none" xmlns="http://www.w3.org/2000/svg">
<path d="M11.3572 0.374023V8.40527H10.3884V0.374023H11.3572ZM7.57593 10.2803C7.57593 11.7334 10.0447 13.0771 12.2166 13.374L11.8416 14.1553C9.88843 13.835 7.8728 12.8271 7.07593 11.4834C6.27905 12.8584 4.20093 13.8584 2.23218 14.1553L1.85718 13.3896C4.02905 13.1084 6.57593 11.7646 6.57593 10.2803V10.249H2.4353V9.45215H6.59155V8.0459H7.5603V9.45215H11.7478V10.249H7.57593V10.2803ZM1.7478 0.952148V3.21777H6.20093V0.952148H7.1853V7.09277H0.779053V0.952148H1.7478ZM1.7478 6.28027H6.20093V3.99902H1.7478V6.28027ZM20.9384 1.31152C23.8134 1.32715 25.9384 2.81152 25.9384 5.06152C25.9384 7.31152 23.8134 8.7959 20.9384 8.78027C18.0791 8.7959 15.9541 7.31152 15.9541 5.06152C15.9541 2.81152 18.0791 1.32715 20.9384 1.31152ZM20.9384 2.12402C18.6259 2.12402 16.8759 3.34277 16.8759 5.06152C16.8759 6.78027 18.6259 7.96777 20.9384 7.96777C23.2509 7.96777 25.0009 6.78027 25.0009 5.06152C25.0009 3.34277 23.2509 2.12402 20.9384 2.12402ZM27.2978 11.4209V12.2646H14.6728V11.4209H27.2978ZM41.9259 11.5459V12.3896H29.3009V11.5459H35.0822V8.76465H30.9259V4.63965H39.3166V2.26465H30.8791V1.43652H40.2853V5.46777H31.8947V7.93652H40.6134V8.76465H36.0666V11.5459H41.9259ZM59.9165 0.374023V10.5146H58.9322V0.374023H59.9165ZM60.3697 12.999V13.8271H51.1197V9.46777H52.104V12.999H60.3697ZM52.5103 1.37402C54.5572 1.37402 56.0728 2.74902 56.0728 4.71777C56.0728 6.70215 54.5572 8.09277 52.5103 8.07715C50.4634 8.09277 48.9322 6.70215 48.9478 4.71777C48.9322 2.74902 50.4634 1.37402 52.5103 1.37402ZM52.5103 2.2334C51.0103 2.2334 49.9009 3.2959 49.9009 4.71777C49.9009 6.15527 51.0103 7.20215 52.5103 7.20215C53.9947 7.20215 55.1197 6.15527 55.1197 4.71777C55.1197 3.2959 53.9947 2.2334 52.5103 2.2334ZM70.1853 2.84277V3.65527H63.1853V2.84277H66.1853V0.795898H67.1853V2.84277H70.1853ZM66.6853 4.68652C68.4041 4.70215 69.6384 5.96777 69.6384 7.78027C69.6384 9.6084 68.4041 10.8896 66.6853 10.8896C64.9666 10.8896 63.7322 9.6084 63.7322 7.78027C63.7322 5.96777 64.9666 4.70215 66.6853 4.68652ZM66.6853 5.53027C65.4822 5.5459 64.6072 6.51465 64.6228 7.78027C64.6072 9.06152 65.4822 10.0303 66.6853 10.0146C67.8728 10.0303 68.7478 9.06152 68.7634 7.78027C68.7478 6.51465 67.8728 5.5459 66.6853 5.53027ZM74.9041 0.374023V14.1553H73.9666V7.07715H71.8884V13.4521H70.9666V0.717773H71.8884V6.24902H73.9666V0.374023H74.9041ZM93.5978 7.07715V7.90527H84.1603V1.70215H93.4572V2.53027H85.1291V7.07715H93.5978ZM95.1291 11.3584V12.2021H82.5041V11.3584H95.1291ZM108.476 0.374023V14.1709H107.507V6.62402H104.679V5.78027H107.507V0.374023H108.476ZM98.6947 9.96777C101.226 9.96777 102.96 9.88965 105.023 9.49902L105.101 10.3428C103.023 10.7178 101.257 10.8115 98.6947 10.8271H97.6634V5.56152H102.851V2.53027H97.6322V1.68652H103.82V6.38965H98.6478V9.96777H98.6947ZM124.698 5.96777V6.81152H122.37V14.1553H121.385V0.374023H122.37V5.96777H124.698ZM113.338 1.7334V9.76465H113.432C115.51 9.78027 117.588 9.62402 119.932 9.12402L120.057 9.9834C117.667 10.4678 115.557 10.6084 113.432 10.6084H112.37V1.7334H113.338ZM137.513 4.6709V5.49902H128.138V0.874023H129.107V4.6709H137.513ZM138.982 7.49902V8.31152H126.373V7.49902H138.982ZM137.592 12.9678V13.8115H128.076V9.81152H129.045V12.9678H137.592ZM153.004 1.32715C153.004 4.76465 150.348 7.15527 146.332 8.18652L145.926 7.37402C149.457 6.51465 151.723 4.62402 151.957 2.15527H146.613V1.32715H153.004ZM156.988 0.374023V7.96777H156.004V0.374023H156.988ZM157.27 8.78027V9.59277H155.238V13.1084H157.426V13.9365H147.91V13.1084H150.051V9.59277H148.035V8.78027H157.27ZM151.02 13.1084H154.27V9.59277H151.02V13.1084ZM171.617 0.374023V14.1709H170.632V0.374023H171.617ZM164.335 1.46777C166.367 1.46777 167.82 3.32715 167.82 6.2334C167.82 9.13965 166.367 10.999 164.335 10.999C162.288 10.999 160.851 9.13965 160.851 6.2334C160.851 3.32715 162.288 1.46777 164.335 1.46777ZM164.335 2.34277C162.851 2.34277 161.804 3.93652 161.804 6.2334C161.804 8.5459 162.851 10.124 164.335 10.124C165.82 10.124 166.851 8.5459 166.851 6.2334C166.851 3.93652 165.82 2.34277 164.335 2.34277ZM179.104 1.2959C181.213 1.2959 182.729 2.57715 182.745 4.4834C182.729 6.2334 181.448 7.44434 179.604 7.62402V10.124C180.956 10.0771 182.315 9.97559 183.573 9.81152L183.651 10.5615C180.698 11.0459 177.401 11.0928 174.948 11.0771L174.76 10.2334C175.909 10.2256 177.237 10.2178 178.62 10.1709V7.62402C176.729 7.45996 175.448 6.24121 175.463 4.4834C175.448 2.57715 176.948 1.2959 179.104 1.2959ZM179.104 2.13965C177.542 2.15527 176.417 3.12402 176.417 4.4834C176.417 5.84277 177.542 6.82715 179.104 6.81152C180.651 6.82715 181.76 5.84277 181.776 4.4834C181.76 3.12402 180.651 2.15527 179.104 2.13965ZM185.479 0.374023V6.15527H187.854V6.99902H185.479V14.1553H184.51V0.374023H185.479ZM35.2791 31.4678C36.5525 31.4678 37.5837 32.2256 38.1697 33.5303H41.9978V30.374H42.9666V44.1709H41.9978V38.7646H38.2478C37.6697 40.1709 36.615 40.999 35.2791 40.999C33.2634 40.999 31.8572 39.1396 31.8728 36.2334C31.8572 33.3271 33.2634 31.4678 35.2791 31.4678ZM35.2791 32.3428C33.8103 32.3428 32.8103 33.9365 32.8103 36.2334C32.8103 38.5459 33.8103 40.124 35.2791 40.124C36.7322 40.124 37.7478 38.5459 37.7478 36.2334C37.7478 33.9365 36.7322 32.3428 35.2791 32.3428ZM38.4666 34.374C38.5994 34.9287 38.6853 35.5537 38.6853 36.2334C38.6853 36.8428 38.615 37.4131 38.4978 37.9209H41.9978V34.374H38.4666ZM58.8291 37.4678V38.3115H53.1259V41.2646H52.1259V38.3115H46.2197V37.4678H58.8291ZM57.4228 42.9678V43.8271H47.8916V39.8271H48.8603V42.9678H57.4228ZM52.5009 30.749C55.4384 30.749 57.3291 31.7959 57.3291 33.499C57.3291 35.1865 55.4384 36.2178 52.5009 36.2178C49.5791 36.2178 47.6728 35.1865 47.6884 33.499C47.6728 31.7959 49.5791 30.749 52.5009 30.749ZM52.5009 31.5771C50.2509 31.5771 48.7197 32.3271 48.7197 33.499C48.7197 34.6396 50.2509 35.3896 52.5009 35.3896C54.7666 35.3896 56.2978 34.6396 56.2978 33.499C56.2978 32.3271 54.7666 31.5771 52.5009 31.5771ZM67.1291 30.624C70.1603 30.624 71.9572 31.4678 71.9572 33.0146C71.9572 34.5771 70.1603 35.4365 67.1291 35.4365C64.0978 35.4365 62.3009 34.5771 62.3009 33.0146C62.3009 31.4678 64.0978 30.624 67.1291 30.624ZM67.1291 31.3896C64.7697 31.3896 63.3166 32.0146 63.3166 33.0146C63.3166 34.0615 64.7697 34.6709 67.1291 34.6709C69.5041 34.6709 70.9572 34.0615 70.9572 33.0146C70.9572 32.0146 69.5041 31.3896 67.1291 31.3896ZM73.4259 36.4678V37.2803H60.8634V36.4678H73.4259ZM71.7697 38.5928V41.5459H63.4103V43.1709H72.2072V43.9834H62.4572V40.7803H70.8166V39.374H62.4103V38.5928H71.7697ZM84.6665 31.4053C86.8384 31.4053 88.3384 32.7021 88.354 34.5928C88.3384 36.499 86.8384 37.7803 84.6665 37.7803C82.5103 37.7803 80.979 36.499 80.979 34.5928C80.979 32.7021 82.5103 31.4053 84.6665 31.4053ZM84.6665 32.2803C83.0884 32.2803 81.9322 33.249 81.9478 34.5928C81.9322 35.9365 83.0884 36.9209 84.6665 36.9053C86.2447 36.9209 87.3853 35.9365 87.3853 34.5928C87.3853 33.249 86.2447 32.2803 84.6665 32.2803ZM91.3697 30.374V44.1709H90.3853V30.374H91.3697ZM80.229 40.1865C82.8072 40.2021 86.3384 40.1865 89.4322 39.7178L89.5103 40.4678C86.3228 41.0615 82.8853 41.0615 80.3853 41.0615L80.229 40.1865ZM101.888 31.7646V40.624H95.6072V31.7646H101.888ZM96.5916 32.5615V39.7959H100.935V32.5615H96.5916ZM106.092 30.374V44.1709H105.107V30.374H106.092ZM120.142 30.374V33.9678H122.267V34.8115H120.142V38.3584H119.157V30.374H120.142ZM112.485 38.9834V40.5928H119.157V38.9834H120.142V43.9521H111.517V38.9834H112.485ZM112.485 43.1396H119.157V41.3896H112.485V43.1396ZM117.673 31.874V32.6865H109.454V31.874H113.079V30.2334H114.048V31.874H117.673ZM113.563 33.4209C115.532 33.4209 116.845 34.3584 116.845 35.8271C116.845 37.2959 115.532 38.249 113.563 38.2334C111.563 38.249 110.267 37.2959 110.267 35.8271C110.267 34.3584 111.563 33.4209 113.563 33.4209ZM113.563 34.2021C112.142 34.1865 111.188 34.8584 111.204 35.8271C111.188 36.7959 112.142 37.4678 113.563 37.4678C114.97 37.4678 115.907 36.7959 115.923 35.8271C115.907 34.8584 114.97 34.1865 113.563 34.2021ZM135.317 30.374V44.1553H134.348V30.374H135.317ZM125.942 31.7334V39.6709H126.067C128.223 39.6709 130.395 39.499 132.77 38.999L132.91 39.8584C130.457 40.374 128.301 40.5459 126.067 40.5459H124.973V31.7334H125.942ZM149.273 30.374V35.9365H151.648V36.7646H149.273V44.1709H148.288V30.374H149.273ZM140.351 39.8271C142.976 39.8271 144.757 39.7334 146.851 39.3428L146.992 40.2021C144.82 40.5928 143.023 40.6865 140.351 40.6865H139.288V31.7334H145.71V32.5615H140.273V39.8271H140.351ZM154.651 43.0146C154.182 43.0146 153.807 42.6396 153.807 42.1865C153.807 41.7178 154.182 41.3428 154.651 41.3428C155.104 41.3428 155.479 41.7178 155.479 42.1865C155.479 42.6396 155.104 43.0146 154.651 43.0146ZM25.3447 60.374V63.8584H27.4697V64.6865H25.3447V68.2334H24.3603V60.374H25.3447ZM21.5947 61.2959C21.5947 64.7021 19.1103 67.2021 15.0478 68.3115L14.6416 67.5146C18.1259 66.5537 20.2978 64.6162 20.5478 62.124H15.2353V61.2959H21.5947ZM25.3447 68.9053V73.9521H16.6884V68.9053H25.3447ZM17.6728 69.749V73.124H24.3603V69.749H17.6728ZM40.5978 60.374V68.5928H39.6134V64.874H36.6291V64.0459H39.6134V60.374H40.5978ZM36.0666 69.0615C38.9103 69.0615 40.6447 69.9834 40.6447 71.5928C40.6447 73.2021 38.9103 74.124 36.0666 74.1396C33.2228 74.124 31.4884 73.2021 31.5041 71.5928C31.4884 69.9834 33.2228 69.0615 36.0666 69.0615ZM36.0666 69.8428C33.8634 69.8428 32.4572 70.5146 32.4728 71.5928C32.4572 72.6709 33.8634 73.3271 36.0666 73.3271C38.2697 73.3271 39.6759 72.6709 39.6759 71.5928C39.6759 70.5146 38.2697 69.8428 36.0666 69.8428ZM33.8947 62.9678C33.8947 64.8271 35.4103 66.5459 37.3634 67.2178L36.8478 68.0146C35.2931 67.4365 34.0197 66.2412 33.4416 64.7646C32.8478 66.4443 31.4884 67.7803 29.8478 68.4209L29.3322 67.624C31.3166 66.8896 32.9103 65.0303 32.9103 62.9834V62.2646H29.6759V61.4365H37.0822V62.2646H33.8947V62.9678ZM48.3822 61.4053C50.5541 61.4053 52.0541 62.7021 52.0697 64.5928C52.0541 66.499 50.5541 67.7803 48.3822 67.7803C46.2259 67.7803 44.6947 66.499 44.6947 64.5928C44.6947 62.7021 46.2259 61.4053 48.3822 61.4053ZM48.3822 62.2803C46.8041 62.2803 45.6478 63.249 45.6634 64.5928C45.6478 65.9365 46.8041 66.9209 48.3822 66.9053C49.9603 66.9209 51.1009 65.9365 51.1009 64.5928C51.1009 63.249 49.9603 62.2803 48.3822 62.2803ZM55.0853 60.374V74.1709H54.1009V60.374H55.0853ZM43.9447 70.1865C46.5228 70.2021 50.0541 70.1865 53.1478 69.7178L53.2259 70.4678C50.0384 71.0615 46.6009 71.0615 44.1009 71.0615L43.9447 70.1865ZM74.4666 60.374V74.1709H73.4822V60.374H74.4666ZM67.1853 61.4678C69.2166 61.4678 70.6697 63.3271 70.6697 66.2334C70.6697 69.1396 69.2166 70.999 67.1853 70.999C65.1384 70.999 63.7009 69.1396 63.7009 66.2334C63.7009 63.3271 65.1384 61.4678 67.1853 61.4678ZM67.1853 62.3428C65.7009 62.3428 64.6541 63.9365 64.6541 66.2334C64.6541 68.5459 65.7009 70.124 67.1853 70.124C68.6697 70.124 69.7009 68.5459 69.7009 66.2334C69.7009 63.9365 68.6697 62.3428 67.1853 62.3428ZM84.7041 61.6084V62.8896H88.1572V60.374H89.1416V70.4521H88.1572V66.6709H84.7041V67.9365H78.4541V61.6084H84.7041ZM79.4228 62.4209V67.1396H83.7353V62.4209H79.4228ZM89.4697 72.999V73.8271H80.3134V69.5615H81.2978V72.999H89.4697ZM84.7041 65.8271H88.1572V63.7334H84.7041V65.8271ZM98.6759 60.624C101.707 60.624 103.504 61.4678 103.504 63.0146C103.504 64.5771 101.707 65.4365 98.6759 65.4365C95.6447 65.4365 93.8478 64.5771 93.8478 63.0146C93.8478 61.4678 95.6447 60.624 98.6759 60.624ZM98.6759 61.3896C96.3166 61.3896 94.8634 62.0146 94.8634 63.0146C94.8634 64.0615 96.3166 64.6709 98.6759 64.6709C101.051 64.6709 102.504 64.0615 102.504 63.0146C102.504 62.0146 101.051 61.3896 98.6759 61.3896ZM104.973 66.4678V67.2803H92.4103V66.4678H104.973ZM103.317 68.5928V71.5459H94.9572V73.1709H103.754V73.9834H94.0041V70.7803H102.363V69.374H93.9572V68.5928H103.317ZM124.323 71.5771V72.4053H111.698V71.5771H115.338V68.0771H112.87V67.2334H115.12V62.5459H112.854V61.7178H123.057V62.5459H120.792V67.2334H123.042V68.0771H120.573V71.5771H124.323ZM116.104 67.2334H119.823V62.5459H116.104V67.2334ZM116.338 71.5771H119.588V68.0771H116.338V71.5771ZM137.685 60.374V70.9053H136.701V67.8115H134.123V66.999H136.701V64.9678H134.123V64.124H136.701V60.374H137.685ZM134.185 62.1396V62.9678H126.326V62.1396H129.81V60.374H130.779V62.1396H134.185ZM130.295 63.8115C132.123 63.8115 133.388 64.8428 133.388 66.4209C133.388 67.9834 132.123 69.0303 130.295 69.0303C128.451 69.0303 127.185 67.9834 127.201 66.4209C127.185 64.8428 128.451 63.8115 130.295 63.8115ZM130.295 64.6084C128.998 64.624 128.107 65.374 128.123 66.4209C128.107 67.4834 128.998 68.2334 130.295 68.2334C131.576 68.2334 132.451 67.4834 132.467 66.4209C132.451 65.374 131.576 64.624 130.295 64.6084ZM138.013 72.999V73.8271H128.857V69.9521H129.842V72.999H138.013ZM151.563 60.374V66.1396H153.938V66.9834H151.563V74.1553H150.579V60.374H151.563ZM149.11 62.6396V63.4678H140.876V62.6396H144.548V60.5146H145.532V62.6396H149.11ZM145.063 64.7334C147.001 64.7334 148.392 66.0146 148.392 67.8584C148.392 69.7021 147.001 70.9834 145.063 70.9834C143.126 70.9834 141.72 69.7021 141.735 67.8584C141.72 66.0146 143.126 64.7334 145.063 64.7334ZM145.063 65.5615C143.688 65.5771 142.673 66.5459 142.673 67.8584C142.673 69.1709 143.688 70.1396 145.063 70.124C146.438 70.1396 147.454 69.1709 147.454 67.8584C147.454 66.5459 146.438 65.5771 145.063 65.5615ZM162.348 61.7803V63.749H165.973V60.374H166.942V74.1709H165.973V68.3896H162.348V70.624H156.16V61.7803H162.348ZM157.129 62.5771V69.8115H161.379V62.5771H157.129ZM162.348 67.5615H165.973V64.5771H162.348V67.5615ZM172.226 71.9834L171.085 76.0303H170.163L171.038 71.9834H172.226ZM46.5853 101.421V102.249H33.9603V101.421H46.5853ZM36.4916 91.3896V94.0615H44.0228V91.3896H44.9916V98.499H35.4916V91.3896H36.4916ZM36.4916 97.7021H44.0228V94.874H36.4916V97.7021ZM60.2447 90.374V100.655H59.3072V95.4053H57.1353V100.218H56.1978V90.6396H57.1353V94.5615H59.3072V90.374H60.2447ZM60.6978 102.999V103.827H51.3072V99.7178H52.2916V102.999H60.6978ZM54.4166 91.5771V95.3896H50.2134V97.7021C52.1119 97.7021 53.5806 97.6162 55.3384 97.2646L55.4634 98.0771C53.6197 98.4365 52.1041 98.5303 50.1353 98.5303H49.2447V94.5928H53.4791V92.4053H49.2134V91.5771H54.4166ZM74.3103 97.0771V97.9053H64.8728V91.7021H74.1697V92.5303H65.8416V97.0771H74.3103ZM75.8416 101.358V102.202H63.2166V101.358H75.8416ZM88.4541 90.374V96.0771H90.7822V96.9209H88.4541V104.155H87.4697V90.374H88.4541ZM84.9228 91.874C84.9072 95.7021 83.0009 99.249 78.5478 101.452L78.0009 100.671C81.6728 98.8584 83.6728 96.0303 83.9228 92.7021H78.6103V91.874H84.9228ZM109.695 98.7334V99.5615H103.898V104.171H102.929V99.5615H97.1322V98.7334H109.695ZM103.898 93.0615C103.898 94.9365 106.585 96.4209 108.835 96.749L108.476 97.5615C106.445 97.2178 104.273 96.1162 103.429 94.5146C102.562 96.1396 100.374 97.2178 98.3353 97.5615L97.9759 96.749C100.226 96.4209 102.913 94.9365 102.929 93.0615V92.9365H98.3822V92.1084H102.929V90.3428H103.898V92.1084H108.46V92.9365H103.898V93.0615ZM122.604 91.2959V92.499C122.588 93.8115 122.588 95.2334 122.198 97.2334H124.323V98.0771H118.51V104.171H117.542V98.0771H111.76V97.2334H121.182C121.62 95.249 121.62 93.7725 121.62 92.499V92.124H113.385V91.2959H122.604ZM136.998 90.374V96.1396H139.373V96.9834H136.998V104.155H136.013V90.374H136.998ZM134.545 92.6396V93.4678H126.31V92.6396H129.982V90.5146H130.967V92.6396H134.545ZM130.498 94.7334C132.435 94.7334 133.826 96.0146 133.826 97.8584C133.826 99.7021 132.435 100.983 130.498 100.983C128.56 100.983 127.154 99.7021 127.17 97.8584C127.154 96.0146 128.56 94.7334 130.498 94.7334ZM130.498 95.5615C129.123 95.5771 128.107 96.5459 128.107 97.8584C128.107 99.1709 129.123 100.14 130.498 100.124C131.873 100.14 132.888 99.1709 132.888 97.8584C132.888 96.5459 131.873 95.5771 130.498 95.5615ZM152.142 94.6709V95.499H142.767V90.874H143.735V94.6709H152.142ZM153.61 97.499V98.3115H141.001V97.499H153.61ZM152.22 102.968V103.812H142.704V99.8115H143.673V102.968H152.22ZM13.265 121.155V122.155C13.265 123.257 13.265 124.569 12.9212 126.343H14.9681V127.187H11.3119V130.624H10.3587V127.187H7.48374V130.624H6.53062V127.187H2.34312V126.343H11.9369C12.2806 124.546 12.2806 123.249 12.2806 122.155V121.968H3.95249V121.155H13.265ZM13.6244 132.999V133.827H3.95249V129.577H4.93687V132.999H13.6244ZM24.8306 121.999V122.812H16.9712V121.999H20.4556V120.249H21.4244V121.999H24.8306ZM20.94 123.608C22.7681 123.608 24.0337 124.608 24.0337 126.155C24.0337 127.687 22.7681 128.687 20.94 128.687C19.0806 128.687 17.8306 127.687 17.8462 126.155C17.8306 124.608 19.0806 123.608 20.94 123.608ZM20.94 124.374C19.6275 124.374 18.7525 125.108 18.7681 126.155C18.7525 127.202 19.6275 127.921 20.94 127.921C22.2212 127.921 23.1119 127.202 23.1119 126.155C23.1119 125.108 22.2212 124.374 20.94 124.374ZM28.3306 120.374V129.327H27.3462V127.265H24.7681V126.437H27.3462V124.608H24.7681V123.78H27.3462V120.374H28.3306ZM23.8462 129.452C26.69 129.452 28.4087 130.296 28.4087 131.78C28.4087 133.265 26.69 134.108 23.8462 134.108C20.9556 134.108 19.2369 133.265 19.2369 131.78C19.2369 130.296 20.9556 129.452 23.8462 129.452ZM23.8462 130.233C21.6431 130.233 20.2525 130.812 20.2525 131.78C20.2525 132.749 21.6431 133.327 23.8462 133.327C26.0181 133.327 27.3931 132.749 27.3931 131.78C27.3931 130.812 26.0181 130.233 23.8462 130.233ZM39.2087 121.937V122.53C39.1931 123.562 39.1931 125.421 38.7869 128.062L37.8025 127.983C38.1931 125.562 38.2244 123.827 38.2244 122.765H32.24V121.937H39.2087ZM35.5525 125.874V130.124C37.1306 130.069 38.7478 129.968 40.2244 129.78L40.2869 130.546C37.365 130.983 34.0681 131.046 31.5994 131.046L31.4431 130.187C32.3884 130.187 33.4587 130.179 34.5681 130.155V125.874H35.5525ZM42.1462 120.374V126.218H44.5056V127.077H42.1462V134.155H41.1619V120.374H42.1462ZM62.215 120.374V127.749H61.2306V120.374H62.215ZM54.3556 128.483V130.296H61.2462V128.483H62.215V133.952H53.3869V128.483H54.3556ZM54.3556 133.14H61.2462V131.108H54.3556V133.14ZM54.8087 121.062C56.8869 121.062 58.3712 122.327 58.3712 124.218C58.3712 126.077 56.8869 127.358 54.8087 127.343C52.7306 127.358 51.2306 126.077 51.2462 124.218C51.2306 122.327 52.7306 121.062 54.8087 121.062ZM54.8087 121.905C53.2931 121.905 52.1994 122.874 52.1994 124.218C52.1994 125.546 53.2931 126.515 54.8087 126.515C56.3244 126.515 57.4181 125.546 57.4181 124.218C57.4181 122.874 56.3244 121.905 54.8087 121.905ZM69.4681 124.64C69.4681 126.89 70.7181 129.202 72.5619 130.202L71.9837 130.952C70.5775 130.163 69.5072 128.632 69.015 126.874C68.5228 128.733 67.4681 130.382 66.0619 131.249L65.4525 130.499C67.2962 129.421 68.515 126.952 68.5306 124.64V123.827H65.7806V122.999H68.5306V120.89H69.4837V122.999H72.1869V123.827H69.4681V124.64ZM77.2494 120.374V134.155H76.2962V120.374H77.2494ZM74.4681 120.733V133.405H73.5306V126.733H71.1869V125.89H73.5306V120.733H74.4681ZM90.8775 120.374V123.858H93.0025V124.687H90.8775V128.233H89.8931V120.374H90.8775ZM87.1275 121.296C87.1275 124.702 84.6431 127.202 80.5806 128.312L80.1744 127.515C83.6588 126.554 85.8306 124.616 86.0806 122.124H80.7681V121.296H87.1275ZM90.8775 128.905V133.952H82.2213V128.905H90.8775ZM83.2056 129.749V133.124H89.8931V129.749H83.2056ZM101.037 120.624C104.068 120.624 105.865 121.468 105.865 123.015C105.865 124.577 104.068 125.437 101.037 125.437C98.0056 125.437 96.2087 124.577 96.2087 123.015C96.2087 121.468 98.0056 120.624 101.037 120.624ZM101.037 121.39C98.6775 121.39 97.2244 122.015 97.2244 123.015C97.2244 124.062 98.6775 124.671 101.037 124.671C103.412 124.671 104.865 124.062 104.865 123.015C104.865 122.015 103.412 121.39 101.037 121.39ZM107.334 126.468V127.28H94.7712V126.468H107.334ZM105.677 128.593V131.546H97.3181V133.171H106.115V133.983H96.365V130.78H104.724V129.374H96.3181V128.593H105.677ZM118.277 121.046C120.293 121.046 121.684 122.108 121.684 123.733C121.684 125.194 120.535 126.218 118.809 126.39V127.843C120.168 127.78 121.551 127.663 122.824 127.468L122.902 128.218C119.949 128.749 116.606 128.796 114.184 128.796L114.059 127.952C115.16 127.96 116.465 127.952 117.824 127.89V126.405C116.059 126.249 114.871 125.218 114.871 123.733C114.871 122.108 116.262 121.046 118.277 121.046ZM118.277 121.812C116.824 121.812 115.793 122.608 115.809 123.733C115.793 124.858 116.824 125.64 118.277 125.655C119.746 125.64 120.746 124.858 120.762 123.733C120.746 122.608 119.746 121.812 118.277 121.812ZM124.731 120.374V125.155H126.887V125.999H124.731V130.937H123.746V120.374H124.731ZM125.246 132.968V133.812H116.137V130.015H117.121V132.968H125.246ZM133.265 122.64C133.265 124.64 134.812 126.374 136.781 127.062L136.218 127.827C134.687 127.241 133.406 126.069 132.812 124.546C132.242 126.272 130.906 127.593 129.249 128.249L128.718 127.437C130.749 126.702 132.296 124.874 132.312 122.671V121.171H133.265V122.64ZM140.046 120.374V128.562H139.062V124.28H135.843V123.452H139.062V120.374H140.046ZM135.515 128.968C138.359 128.983 140.093 129.921 140.093 131.562C140.093 133.187 138.359 134.108 135.515 134.108C132.671 134.108 130.937 133.187 130.952 131.562C130.937 129.921 132.671 128.983 135.515 128.968ZM135.515 129.78C133.312 129.78 131.906 130.452 131.921 131.562C131.906 132.64 133.312 133.312 135.515 133.312C137.718 133.312 139.124 132.64 139.124 131.562C139.124 130.452 137.718 129.78 135.515 129.78ZM154.049 120.374V123.968H156.174V124.812H154.049V128.358H153.065V120.374H154.049ZM146.393 128.983V130.593H153.065V128.983H154.049V133.952H145.424V128.983H146.393ZM146.393 133.14H153.065V131.39H146.393V133.14ZM151.581 121.874V122.687H143.362V121.874H146.987V120.233H147.956V121.874H151.581ZM147.471 123.421C149.44 123.421 150.753 124.358 150.753 125.827C150.753 127.296 149.44 128.249 147.471 128.233C145.471 128.249 144.174 127.296 144.174 125.827C144.174 124.358 145.471 123.421 147.471 123.421ZM147.471 124.202C146.049 124.187 145.096 124.858 145.112 125.827C145.096 126.796 146.049 127.468 147.471 127.468C148.878 127.468 149.815 126.796 149.831 125.827C149.815 124.858 148.878 124.187 147.471 124.202ZM169.224 120.374V134.155H168.256V120.374H169.224ZM159.849 121.733V129.671H159.974C162.131 129.671 164.302 129.499 166.677 128.999L166.818 129.858C164.365 130.374 162.209 130.546 159.974 130.546H158.881V121.733H159.849ZM183.181 120.374V125.937H185.556V126.765H183.181V134.171H182.196V120.374H183.181ZM174.259 129.827C176.884 129.827 178.665 129.733 180.759 129.343L180.899 130.202C178.727 130.593 176.931 130.687 174.259 130.687H173.196V121.733H179.618V122.562H174.181V129.827H174.259ZM188.559 133.015C188.09 133.015 187.715 132.64 187.715 132.187C187.715 131.718 188.09 131.343 188.559 131.343C189.012 131.343 189.387 131.718 189.387 132.187C189.387 132.64 189.012 133.015 188.559 133.015Z" fill="#1A1A1A"/>
</svg>
