<svg width="67" height="76" viewBox="0 0 67 76" fill="none" xmlns="http://www.w3.org/2000/svg">
<g filter="url(#filter0_f_2198_249)">
<path d="M10.1121 41.567C6.40927 52.7543 12.968 60.8036 16.8087 63.7253C13.3618 58.8014 11.0871 54.292 12.968 47.0819C14.7407 40.2868 23.9291 35.777 34.7322 33.7871C45.9589 31.7191 51.2063 28.0692 53.3204 25.7825C57.0595 21.7382 58.9583 15.9621 57.4811 9.16699C53.4631 22.0876 40.0501 25.2193 33.8459 26.3027C28.3273 27.2664 13.5762 31.1011 10.1121 41.567Z" fill="#A7C7E7"/>
<path d="M18.483 47.7719C13.362 52.3414 15.1018 60.3116 16.6119 63.7255C16.6119 61.9527 16.6119 58.2108 19.2708 54.0746C21.9297 49.9384 29.4143 48.9536 32.6641 48.5597C35.914 48.1658 40.1486 47.7719 46.0574 45.0144C51.9662 42.257 55.0542 35.9946 56.8269 29.9873C51.1697 38.2372 41.4288 39.9918 37.1942 41.0751C32.9595 42.1584 24.8842 42.0599 18.483 47.7719Z" fill="#A7C7E7"/>
<path d="M27.9096 55.3109C19.0857 56.9654 18.9807 63.6817 20.0311 66.8331C21.8038 58.7576 29.4853 59.8412 31.8488 59.7427C34.2123 59.6442 38.5455 59.1518 40.3181 58.364C42.0907 57.5761 45.4391 55.3109 47.2117 51.1748C37.1667 56.4927 33.713 54.2228 27.9096 55.3109Z" fill="#A7C7E7"/>
</g>
<path d="M10.1121 41.567C6.40927 52.7543 12.968 60.8036 16.8087 63.7253C13.3618 58.8014 11.0871 54.292 12.968 47.0819C14.7407 40.2868 23.9291 35.777 34.7322 33.7871C45.9589 31.7191 51.2063 28.0692 53.3204 25.7825C57.0595 21.7382 58.9583 15.9621 57.4811 9.16699C53.4631 22.0876 40.0501 25.2193 33.8459 26.3027C28.3273 27.2664 13.5762 31.1011 10.1121 41.567Z" fill="#1A1A1A"/>
<path d="M18.483 47.7719C13.362 52.3414 15.1018 60.3116 16.6119 63.7255C16.6119 61.9527 16.6119 58.2108 19.2708 54.0746C21.9297 49.9384 29.4143 48.9536 32.6641 48.5597C35.914 48.1658 40.1486 47.7719 46.0574 45.0144C51.9662 42.257 55.0542 35.9946 56.8269 29.9873C51.1697 38.2372 41.4288 39.9918 37.1942 41.0751C32.9595 42.1584 24.8842 42.0599 18.483 47.7719Z" fill="#1A1A1A"/>
<path d="M27.9096 55.3109C19.0857 56.9654 18.9807 63.6817 20.0311 66.8331C21.8038 58.7576 29.4853 59.8412 31.8488 59.7427C34.2123 59.6442 38.5455 59.1518 40.3181 58.364C42.0907 57.5761 45.4391 55.3109 47.2117 51.1748C37.1667 56.4927 33.713 54.2228 27.9096 55.3109Z" fill="#1A1A1A"/>
<defs>
<filter id="filter0_f_2198_249" x="0.116602" y="0.266993" width="66.7668" height="75.466" filterUnits="userSpaceOnUse" color-interpolation-filters="sRGB">
<feFlood flood-opacity="0" result="BackgroundImageFix"/>
<feBlend mode="normal" in="SourceGraphic" in2="BackgroundImageFix" result="shape"/>
<feGaussianBlur stdDeviation="4.45" result="effect1_foregroundBlur_2198_249"/>
</filter>
</defs>
</svg>
