<svg width="87" height="89" viewBox="0 0 87 89" fill="none" xmlns="http://www.w3.org/2000/svg">
<g filter="url(#filter0_f_2198_258)">
<path d="M38.2235 44.7465L44.112 9.11698L49.4299 44.7465L44.1123 79.7746L38.2235 44.7465Z" fill="#A7C7E7"/>
<path d="M63.0198 25.7415L69.5211 20.2108L64.4676 27.0987L59.0865 34.3765C58.3456 35.3786 56.8964 35.5101 55.9872 34.6577C55.0746 33.8023 55.1165 32.341 56.0766 31.5393L63.0198 25.7415Z" fill="#A7C7E7"/>
<path d="M64.9042 61.8025L69.8863 68.7331L63.4335 63.1348L56.6188 57.1781C55.6804 56.358 55.6675 54.9028 56.5912 54.0661C57.5182 53.2263 58.9712 53.3873 59.692 54.4096L64.9042 61.8025Z" fill="#A7C7E7"/>
<path d="M23.6256 63.1066L17.2019 68.7272L22.159 61.7697L27.4384 54.4178C28.1653 53.4055 29.6126 53.2538 30.5336 54.0935C31.458 54.9362 31.4364 56.3978 30.4875 57.2129L23.6256 63.1066Z" fill="#A7C7E7"/>
<path d="M22.2225 27.1024L17.2672 20.1525L23.6984 25.7758L30.4899 31.7588C31.4251 32.5826 31.4324 34.0378 30.5055 34.8709C29.5752 35.7071 28.1229 35.5405 27.406 34.5154L22.2225 27.1024Z" fill="#A7C7E7"/>
<path d="M69.0089 43.3701L77.4902 44.3307L69.0089 45.3546L60.0191 46.406C58.7813 46.5508 57.6942 45.5835 57.6942 44.3372C57.6942 43.0863 58.789 42.1176 60.0306 42.2697L69.0089 43.3701Z" fill="#A7C7E7"/>
<path d="M17.9901 45.373L9.50879 44.4125L17.9901 43.3886L26.9799 42.3371C28.2177 42.1923 29.3048 43.1597 29.3048 44.406C29.3048 45.6568 28.21 46.6256 26.9685 46.4734L17.9901 45.373Z" fill="#A7C7E7"/>
</g>
<path d="M38.2235 44.7465L44.112 9.11698L49.4299 44.7465L44.1123 79.7746L38.2235 44.7465Z" fill="#1A1A1A"/>
<path d="M63.0198 25.7415L69.5211 20.2108L64.4676 27.0987L59.0865 34.3765C58.3456 35.3786 56.8964 35.5101 55.9872 34.6577C55.0746 33.8023 55.1165 32.341 56.0766 31.5393L63.0198 25.7415Z" fill="#1A1A1A"/>
<path d="M64.9042 61.8025L69.8863 68.7331L63.4335 63.1348L56.6188 57.1781C55.6804 56.358 55.6675 54.9028 56.5912 54.0661C57.5182 53.2263 58.9712 53.3873 59.692 54.4096L64.9042 61.8025Z" fill="#1A1A1A"/>
<path d="M23.6256 63.1066L17.2019 68.7272L22.159 61.7697L27.4384 54.4178C28.1653 53.4055 29.6126 53.2538 30.5336 54.0935C31.458 54.9362 31.4364 56.3978 30.4875 57.2129L23.6256 63.1066Z" fill="#1A1A1A"/>
<path d="M22.2225 27.1024L17.2672 20.1525L23.6984 25.7758L30.4899 31.7588C31.4251 32.5826 31.4324 34.0378 30.5055 34.8709C29.5752 35.7071 28.1229 35.5405 27.406 34.5154L22.2225 27.1024Z" fill="#1A1A1A"/>
<path d="M69.0089 43.3701L77.4902 44.3307L69.0089 45.3546L60.0191 46.406C58.7813 46.5508 57.6942 45.5835 57.6942 44.3372C57.6942 43.0863 58.789 42.1176 60.0306 42.2697L69.0089 43.3701Z" fill="#1A1A1A"/>
<path d="M17.9901 45.373L9.50879 44.4125L17.9901 43.3886L26.9799 42.3371C28.2177 42.1923 29.3048 43.1597 29.3048 44.406C29.3048 45.6568 28.21 46.6256 26.9685 46.4734L17.9901 45.373Z" fill="#1A1A1A"/>
<defs>
<filter id="filter0_f_2198_258" x="0.608789" y="0.217188" width="85.7814" height="88.4572" filterUnits="userSpaceOnUse" color-interpolation-filters="sRGB">
<feFlood flood-opacity="0" result="BackgroundImageFix"/>
<feBlend mode="normal" in="SourceGraphic" in2="BackgroundImageFix" result="shape"/>
<feGaussianBlur stdDeviation="4.45" result="effect1_foregroundBlur_2198_258"/>
</filter>
</defs>
</svg>
