<svg width="159" height="6" viewBox="0 0 159 6" fill="none" xmlns="http://www.w3.org/2000/svg">
<path d="M155.752 0.508138C154.279 0.508138 153.085 1.70205 153.085 3.1748C153.085 4.64756 154.279 5.84147 155.752 5.84147C157.225 5.84147 158.419 4.64756 158.419 3.1748C158.419 1.70205 157.225 0.508138 155.752 0.508138ZM2.75549 0.508138C1.28273 0.508138 0.0888214 1.70205 0.0888214 3.1748C0.0888214 4.64756 1.28273 5.84147 2.75549 5.84147C4.22824 5.84147 5.42215 4.64756 5.42215 3.1748C5.42215 1.70205 4.22824 0.508138 2.75549 0.508138ZM155.752 3.1748V2.6748L2.75549 2.6748V3.1748V3.6748L155.752 3.6748V3.1748Z" fill="black"/>
</svg>
