<svg width="337" height="45" viewBox="0 0 337 45" fill="none" xmlns="http://www.w3.org/2000/svg">
<path d="M0.531838 35.0488V0.139736H12.7364C20.0318 0.139736 23.4409 4.29883 23.4409 9.41246C23.4409 13.9125 20.7818 15.8897 17.7818 16.7079V17.0488C20.9864 17.2534 24.8046 20.2534 24.8046 25.7761C24.8046 31.0261 21.3955 35.0488 13.1455 35.0488H0.531838ZM4.75911 31.2988H13.1455C18.6682 31.2988 20.7818 28.8443 20.7818 25.7761C20.7818 22.2306 17.9182 19.1625 13.35 19.1625H4.75911V31.2988ZM4.75911 15.4806H12.6C16.4182 15.4806 19.4182 13.0943 19.4182 9.41246C19.4182 6.34428 17.3727 3.88974 12.7364 3.88974H4.75911V15.4806ZM31.2051 35.0488V8.86701H35.0915V12.8216H35.3642C36.3188 10.2306 39.046 8.45792 42.1824 8.45792C42.779 8.45792 43.8358 8.49201 44.296 8.5261V12.617C44.0233 12.5488 42.9154 12.3443 41.8415 12.3443C38.0233 12.3443 35.2279 14.9352 35.2279 18.4806V35.0488H31.2051ZM56.7691 35.6625C51.7918 35.6625 47.8372 32.7306 47.8372 27.617C47.8372 21.617 53.1384 20.5431 57.9963 19.9125C62.7691 19.2988 64.7463 19.4693 64.7463 17.5261V17.3897C64.7463 14.0318 62.9225 12.0716 59.2236 12.0716C55.3884 12.0716 53.2918 14.117 52.4054 16.0261L48.5872 14.6625C50.6327 9.88974 55.1327 8.5261 59.0872 8.5261C62.4281 8.5261 68.7691 9.48064 68.7691 17.7988V35.0488H64.7463V31.5034H64.5418C63.7236 33.2079 61.3372 35.6625 56.7691 35.6625ZM57.3827 32.0488C62.1554 32.0488 64.7463 28.8443 64.7463 25.5716V21.8897C64.0645 22.7079 59.4963 23.1852 57.7918 23.3897C54.6554 23.7988 51.86 24.7534 51.86 27.8216C51.86 30.617 54.1781 32.0488 57.3827 32.0488ZM80.1341 19.2988V35.0488H76.1114V8.86701H79.9977V12.9579H80.3387C81.5659 10.2988 84.0205 8.5261 87.975 8.5261C93.2762 8.5261 96.8387 11.7306 96.8387 18.4125V35.0488H92.8159V18.6852C92.8159 14.5772 90.5489 12.1397 86.8159 12.1397C82.9637 12.1397 80.1341 14.7306 80.1341 19.2988ZM114.076 35.5943C107.53 35.5943 102.962 30.3443 102.962 22.0261C102.962 13.7761 107.53 8.5261 114.144 8.5261C119.258 8.5261 120.826 11.6625 121.712 13.0261H122.053V0.139736H126.076V35.0488H122.19V31.0261H121.712C120.826 32.4579 119.121 35.5943 114.076 35.5943ZM114.621 31.9806C119.462 31.9806 122.121 27.8897 122.121 21.9579C122.121 16.0943 119.53 12.1397 114.621 12.1397C109.508 12.1397 106.985 16.4352 106.985 21.9579C106.985 27.5488 109.576 31.9806 114.621 31.9806ZM148.047 35.0488V0.139736H152.275V17.4579H152.684L168.366 0.139736H173.888L159.229 15.8897L173.888 35.0488H168.775L156.638 18.8216L152.275 23.7306V35.0488H148.047ZM187.87 35.5943C180.302 35.5943 175.665 30.2079 175.665 22.1625C175.665 14.117 180.37 8.5261 187.461 8.5261C192.915 8.5261 198.711 11.867 198.711 21.617V23.3216H179.705C179.893 28.9295 183.148 31.9806 187.87 31.9806C191.023 31.9806 193.393 30.617 194.415 27.8897L198.302 28.9806C197.074 32.9352 193.188 35.5943 187.87 35.5943ZM179.705 19.8443H194.62C194.62 15.4125 191.824 12.1397 187.461 12.1397C182.859 12.1397 179.978 15.7704 179.705 19.8443ZM206.624 44.867C205.261 44.867 204.101 44.5943 203.692 44.3897L204.715 40.8443C205.482 41.0318 206.164 41.1511 206.778 41.1511C208.567 41.1511 209.829 40.1795 210.92 37.2306L211.67 35.1852L201.988 8.86701H206.351L213.579 29.7306H213.851L221.079 8.86701H225.442L214.329 38.867C212.812 42.9409 210.255 44.867 206.624 44.867ZM236.684 35.0488L228.707 8.86701H232.934L238.593 28.9125H238.866L244.457 8.86701H248.752L254.275 28.8443H254.547L260.207 8.86701H264.434L256.457 35.0488H252.502L246.775 14.9352H246.366L240.638 35.0488H236.684ZM279.498 35.5943C272.407 35.5943 267.634 30.2079 267.634 22.0943C267.634 13.9125 272.407 8.5261 279.498 8.5261C286.589 8.5261 291.361 13.9125 291.361 22.0943C291.361 30.2079 286.589 35.5943 279.498 35.5943ZM279.498 31.9806C284.884 31.9806 287.339 27.3443 287.339 22.0943C287.339 16.8443 284.884 12.1397 279.498 12.1397C274.111 12.1397 271.657 16.8443 271.657 22.0943C271.657 27.3443 274.111 31.9806 279.498 31.9806ZM297.502 35.0488V8.86701H301.388V12.8216H301.661C302.616 10.2306 305.343 8.45792 308.479 8.45792C309.076 8.45792 310.133 8.49201 310.593 8.5261V12.617C310.32 12.5488 309.212 12.3443 308.138 12.3443C304.32 12.3443 301.525 14.9352 301.525 18.4806V35.0488H297.502ZM324.451 35.5943C317.905 35.5943 313.337 30.3443 313.337 22.0261C313.337 13.7761 317.905 8.5261 324.519 8.5261C329.633 8.5261 331.201 11.6625 332.087 13.0261H332.428V0.139736H336.451V35.0488H332.565V31.0261H332.087C331.201 32.4579 329.496 35.5943 324.451 35.5943ZM324.996 31.9806C329.837 31.9806 332.496 27.8897 332.496 21.9579C332.496 16.0943 329.905 12.1397 324.996 12.1397C319.883 12.1397 317.36 16.4352 317.36 21.9579C317.36 27.5488 319.951 31.9806 324.996 31.9806Z" fill="#1A1A1A"/>
</svg>
