<svg width="297" height="46" viewBox="0 0 297 46" fill="none" xmlns="http://www.w3.org/2000/svg">
<path d="M25.3686 22.0008C25.6566 23.0568 25.8486 24.1608 25.8006 25.2168C25.8486 26.3208 25.6566 27.4248 25.3206 28.4328C25.0806 29.2968 24.6486 30.0648 24.1206 30.7848C23.3046 31.7928 22.2486 32.6088 21.0486 33.0888C19.2246 33.8088 17.6406 34.0008 15.0006 34.0968H0.408628L0.552628 33.9528C1.46463 33.0888 2.04063 31.8408 2.04063 30.5448V3.95283C2.04063 2.65683 1.46463 1.40883 0.552628 0.544827L0.408628 0.400826H13.4646C14.6166 0.448826 15.7206 0.592827 16.8246 0.832827C17.6886 1.07283 18.5526 1.40883 19.3686 1.79283C20.3286 2.32083 21.1926 3.04083 21.8166 3.90483C22.0566 4.19283 22.2486 4.52883 22.3926 4.81683C22.5846 5.15283 22.7766 5.53683 22.8726 5.92083C23.0646 6.35283 23.1606 6.78483 23.2086 7.26483C23.3046 7.50483 23.3046 7.74483 23.3046 7.98483C23.3526 8.12883 23.3526 8.22483 23.3526 8.36883C23.3526 8.51283 23.3526 8.65683 23.3526 8.75283C23.3526 8.84883 23.3526 8.99283 23.3526 9.13683C23.3526 9.23283 23.3526 9.37683 23.3046 9.52083C23.3046 9.61683 23.3046 9.76083 23.3046 9.90483C23.2566 10.0008 23.2566 10.1448 23.2566 10.2408C23.2086 10.4808 23.1606 10.7208 23.1126 10.9608L22.9206 11.5848C22.7766 11.9688 22.5846 12.3048 22.3926 12.6888C22.2486 12.9768 22.0566 13.2648 21.8646 13.5528C21.1926 14.4648 20.3286 15.1848 19.3686 15.7128C18.7446 16.0488 18.0246 16.2888 17.3526 16.4808C17.4966 16.5288 17.6886 16.5768 17.8326 16.5768C17.8806 16.6248 17.9766 16.6248 18.0246 16.6248C19.0806 16.7688 20.0886 17.0088 21.0486 17.3448C22.2486 17.8248 23.3046 18.6408 24.1206 19.6488C24.3606 19.9848 24.6006 20.3688 24.7926 20.7048C25.0326 21.1368 25.2246 21.5688 25.3686 22.0008ZM5.49663 1.12083V16.3848H13.4646H13.5606C14.5686 16.3848 15.5766 16.0968 16.4406 15.5688C17.0646 15.1848 17.6406 14.6568 18.0726 14.0808C18.5526 13.4088 18.9366 12.7368 19.2246 12.0168C19.3206 11.8248 19.3686 11.5848 19.4646 11.3448C19.5606 11.1048 19.6086 10.8648 19.7046 10.5768C19.7046 10.4808 19.7526 10.3368 19.7526 10.1928C19.8006 10.0488 19.8006 9.90483 19.8486 9.76083C19.8486 9.66483 19.8486 9.61683 19.8486 9.52083C19.8486 9.42483 19.8486 9.37683 19.8486 9.28083C19.8486 9.18483 19.8486 9.08883 19.8966 9.04083C19.8966 8.94483 19.8966 8.84883 19.8966 8.75283C19.8966 8.60883 19.8966 8.56083 19.8966 8.46483C19.8966 8.36883 19.8486 8.27283 19.8486 8.22483C19.8486 8.03283 19.8486 7.88883 19.8486 7.74483C19.8006 7.45683 19.7526 7.16883 19.7046 6.88083C19.6086 6.64083 19.5606 6.40083 19.4646 6.16083C19.3686 5.92083 19.3206 5.68083 19.2246 5.48883C18.9366 4.76883 18.5526 4.04883 18.0726 3.42483C17.5926 2.80083 17.0646 2.27283 16.3926 1.88883C15.5286 1.36083 14.5206 1.12083 13.4646 1.12083H5.49663ZM22.1046 27.5208C22.2966 26.7528 22.3446 25.9848 22.3446 25.2168C22.3446 24.9768 22.3446 24.7848 22.3446 24.5448C22.3446 24.3528 22.2966 24.1608 22.2966 23.9688C22.2486 23.7768 22.2486 23.5848 22.2006 23.4408C22.2006 23.2488 22.1526 23.1048 22.1046 22.9608C22.0566 22.6248 21.9606 22.3368 21.8646 22.0488C21.7686 21.8088 21.6726 21.5688 21.5766 21.3288C21.1926 20.5128 20.6166 19.7448 19.9926 19.1208C19.3206 18.5448 18.5526 18.0648 17.7366 17.7288C16.5846 17.2488 15.3846 17.0568 14.1366 17.0568H5.49663V33.3768H14.2326C17.2566 33.3288 18.7446 32.4168 19.9926 31.3128C20.6166 30.6888 21.1446 29.9688 21.5286 29.1528C21.8166 28.6248 22.0086 28.0488 22.1046 27.5208ZM42.5241 14.3208C42.5241 14.3688 42.5721 14.4648 42.5721 14.5128C42.5721 14.8008 42.4761 15.0888 42.2841 15.3288C41.9961 15.6168 41.7081 15.9048 41.3721 16.1448C41.1801 16.3368 40.8921 16.4328 40.6521 16.5288H40.6041C40.5081 16.5288 40.4121 16.5288 40.3161 16.5288C40.2681 16.4808 40.2201 16.4808 40.1721 16.4328C39.7401 15.8568 39.0681 15.5208 38.3481 15.5208C37.4361 15.5688 36.5241 15.9048 35.8041 16.4808C34.9401 17.1528 34.3161 18.0168 33.8841 19.0248C33.8841 19.2168 33.8841 19.4568 33.8841 19.6488H33.9321V30.5448C33.9321 31.8408 34.4601 33.0888 35.4201 33.9528L35.5161 34.0968H28.7961L28.9401 33.9528C29.9001 33.0888 30.4281 31.8408 30.4281 30.5448V19.6488C30.4281 18.7848 30.3321 17.8728 30.1401 16.9608C30.0441 16.3848 29.8521 15.8088 29.6601 15.2328C29.1321 13.9368 27.8361 13.1208 26.4441 13.1688V12.4968C27.3561 12.4968 28.2681 12.5928 29.1321 12.8808C29.8521 13.0728 30.5721 13.4088 31.1961 13.8408C31.9161 14.3688 32.5401 15.0408 32.9721 15.8088C33.3081 16.4328 33.5481 17.0568 33.6921 17.6808C34.0281 16.9608 34.4121 16.2888 34.8921 15.6168C35.6121 14.5608 36.6681 13.7448 37.8681 13.3128C38.9241 12.9288 40.0761 12.9768 41.1321 13.3608C41.3241 13.4088 41.5161 13.5048 41.6601 13.5528L42.1401 13.8408C42.3321 13.9368 42.4761 14.1288 42.5241 14.3208ZM62.6433 34.0488L57.5073 34.0968V31.5048C56.8833 31.9848 56.2113 32.4168 55.4913 32.8008C54.8193 33.1368 54.0993 33.4248 53.3793 33.5688C52.8993 33.7128 52.4193 33.8088 51.9393 33.9048C50.8353 34.0968 49.7313 34.0968 48.6753 33.9528C47.5233 33.8088 46.4673 33.4248 45.5073 32.8008L45.1233 32.5608C44.9793 32.4648 44.8833 32.3688 44.7393 32.2248C44.4993 32.0328 44.2593 31.7448 44.0673 31.5048C43.8753 31.1688 43.6833 30.8808 43.5393 30.5448C43.3953 30.2088 43.2993 29.9208 43.2033 29.5848C42.9153 28.3368 43.0113 26.9928 43.4913 25.7928C43.9713 24.6888 44.6913 23.7768 45.6033 23.0568C46.5633 22.3848 47.5713 21.8568 48.6273 21.4728C49.7313 21.0408 50.8833 20.7048 52.0353 20.4648C57.0753 19.2168 57.2673 17.5848 57.2673 17.5368H57.3153C57.2673 17.2968 57.2193 17.0568 57.1713 16.8168C57.0273 16.2408 56.7873 15.6648 56.4513 15.1368C56.1633 14.6088 55.7313 14.1768 55.2513 13.8408C54.5313 13.3608 53.7153 13.1688 52.8513 13.1688C51.7953 13.1688 50.7873 13.5048 49.9233 14.1288C48.5793 15.1848 47.7633 16.7688 47.7153 18.4968C47.6673 18.8328 47.1873 18.9768 46.5633 18.9288C46.1313 18.9288 45.7473 18.8808 45.3633 18.7368C44.7393 18.5448 44.3553 18.0168 44.5953 17.6328C45.0273 16.5288 45.6993 15.5688 46.5153 14.7528C47.2833 13.9368 48.2913 13.3128 49.3473 12.9768C50.4993 12.6408 51.6513 12.4488 52.8513 12.4968C53.8113 12.4968 54.7233 12.5928 55.6833 12.7848C56.4513 12.9288 57.1713 13.2168 57.8433 13.5528C58.7073 14.0328 59.3793 14.7048 59.9073 15.5208C60.6273 16.7208 61.0113 18.1608 61.0113 19.5528V30.5448C61.0113 31.8408 61.5393 33.0888 62.4993 33.9528L62.6433 34.0488ZM55.1553 32.1768C56.0193 31.7448 56.7873 31.2168 57.5073 30.5928V19.5528C57.5073 19.2168 57.5073 18.9288 57.4593 18.6408C56.8353 19.3608 55.3953 20.3688 52.1793 21.1368C49.7313 21.7608 48.0033 23.0568 47.1393 24.4968C46.7553 25.1208 46.4673 25.8888 46.4193 26.6088C46.3713 27.3288 46.4193 28.0488 46.6113 28.7208C46.6113 28.9128 46.7073 29.1048 46.7553 29.2968C46.8033 29.3928 46.8033 29.5368 46.8993 29.6808C46.9473 29.8248 47.0433 29.9688 47.1393 30.0648L47.2833 30.3048L47.4273 30.4968C47.9553 31.0728 48.5793 31.6008 49.2513 31.9848C50.0673 32.4168 50.9793 32.7048 51.9393 32.8008C53.0433 32.8968 54.1473 32.6568 55.1553 32.1768ZM82.5693 20.7528V20.7048C82.5693 16.6728 81.4653 13.6008 78.7293 13.6008C76.9053 13.6488 75.1293 14.3688 73.8333 15.6168C72.8733 16.5288 72.0093 17.5368 71.2893 18.6408C71.3373 18.9768 71.3373 19.3128 71.3373 19.6488V30.5448C71.3373 31.8408 71.9133 33.0888 72.8253 33.9528L72.9693 34.0488H66.2493L66.3933 33.9528C67.3533 33.0888 67.8813 31.8408 67.8813 30.5448V19.6488C67.8813 18.7848 67.7853 17.8728 67.5933 16.9608C67.4973 16.3848 67.3053 15.8088 67.1133 15.2328C66.5853 13.9368 65.2893 13.0728 63.8973 13.1688V12.4968C64.8093 12.4968 65.7213 12.5928 66.5853 12.8808C67.3053 13.0728 68.0253 13.4088 68.6493 13.8408C69.3693 14.3688 69.9933 15.0408 70.4253 15.8088C70.7613 16.3848 71.0013 17.0568 71.1453 17.6808C72.9213 15.0888 75.8973 12.4968 79.2573 12.4968C79.7853 12.4488 80.3133 12.4968 80.8413 12.5928C81.2733 12.6888 81.7533 12.7848 82.1373 12.9768C82.9053 13.3608 83.5773 13.8408 84.1053 14.4648C85.2093 15.7128 86.0253 17.5368 86.0253 20.7528V30.5448C86.0253 31.8408 86.6013 33.0888 87.5613 33.9528L87.6573 34.0488H80.9373L81.0813 33.9528C82.0413 33.0888 82.5693 31.8408 82.5693 30.5448V20.7528ZM110.337 34.0488L105.249 34.0968V30.6408C103.761 32.7528 101.697 34.0488 99.3925 34.0488C99.0565 34.0488 98.7205 34.0488 98.3845 34.0008C97.4245 33.8568 96.5125 33.5688 95.6485 33.0888C94.7365 32.6568 93.9205 32.0328 93.1525 31.3608C92.2885 30.5448 91.6165 29.5848 91.0885 28.4808C89.6005 25.1688 89.6005 21.3768 91.0885 18.0648C91.6165 17.0088 92.2885 16.0008 93.1525 15.1848C93.9205 14.5128 94.7365 13.9368 95.6485 13.4568C96.5125 13.0248 97.4245 12.6888 98.3845 12.5448C98.7205 12.4968 99.0565 12.4968 99.3925 12.4968C101.697 12.4968 103.761 13.7928 105.249 15.9048V7.74483C105.249 6.78483 105.153 5.87283 104.961 4.96083C104.817 4.38483 104.673 3.80883 104.433 3.23283C104.241 2.70483 103.857 2.22483 103.425 1.84083C102.801 1.36083 102.033 1.07283 101.217 1.12083V0.400826C102.129 0.400826 103.089 0.544827 103.953 0.832827C104.673 1.07283 105.393 1.40883 106.017 1.84083C106.737 2.36883 107.361 3.04083 107.793 3.85683C108.417 5.05683 108.705 6.35283 108.705 7.74483V30.5448C108.705 31.8408 109.233 33.0888 110.193 33.9528L110.337 34.0488ZM99.3925 33.3768C101.745 33.3768 103.905 31.7928 105.249 29.3448V17.2008C103.905 14.7528 101.745 13.1688 99.3925 13.1688H99.2965C98.1925 13.2168 97.0885 13.6488 96.2725 14.4168C95.6485 14.9928 95.1685 15.6648 94.8325 16.4328C94.4485 17.2968 94.1605 18.2088 93.9685 19.1208C93.2485 21.8568 93.2485 24.6888 93.9685 27.4248C94.1605 28.3368 94.4485 29.2488 94.8325 30.1128C95.1685 30.8808 95.6485 31.6008 96.2725 32.1768C97.1365 32.9448 98.2405 33.3768 99.3925 33.3768ZM155.271 34.0488H148.551C148.743 33.4248 148.599 32.7048 148.167 32.1288L136.167 16.9608L130.887 23.1528V30.5448C130.887 31.8408 131.415 33.0888 132.375 33.9528L132.519 34.0488H125.799L125.895 33.9528C126.855 33.0888 127.383 31.8408 127.383 30.5448V3.95283C127.383 2.65683 126.855 1.40883 125.895 0.544827L125.799 0.400826H132.519L132.375 0.544827C131.415 1.40883 130.887 2.65683 130.887 3.95283V22.0968L144.567 5.96883C145.959 4.33683 145.959 2.03283 144.615 0.400826H151.335L149.031 2.12883C148.503 2.56083 147.975 3.04083 147.543 3.56883L138.423 14.2248L152.103 31.5048C152.871 32.5128 153.879 33.3288 154.983 33.9048L155.271 34.0488ZM174.312 27.8088L174.936 28.0008L174.84 28.3368C174.84 28.3848 173.064 33.8088 165.48 33.9528H165.192C165.192 33.9528 164.808 33.9528 164.76 33.9528C164.568 33.9528 164.328 33.9048 164.136 33.9048C163.128 33.8088 162.12 33.5688 161.112 33.1848C160.104 32.8488 159.144 32.3208 158.28 31.6968C157.224 30.9288 156.36 30.0168 155.736 28.9128C153.72 25.4088 153.72 21.1368 155.736 17.6328C156.36 16.5768 157.224 15.6168 158.28 14.8488C159.144 14.2248 160.104 13.6968 161.112 13.3608C162.12 12.9768 163.128 12.7368 164.136 12.6408C164.472 12.5928 164.808 12.5928 165.144 12.5928H165.48C166.776 12.6408 168.072 12.9288 169.32 13.4088C171.72 14.3208 173.592 16.2888 174.408 18.7848C174.504 18.9768 174.552 19.1688 174.6 19.3608C174.6 19.4088 174.6 19.4088 174.6 19.4568H158.28C157.896 20.7048 157.704 22.0008 157.704 23.2968C157.704 24.7368 157.944 26.1768 158.424 27.5688C158.76 28.5288 159.192 29.3928 159.768 30.2088C160.248 31.0248 160.872 31.6968 161.64 32.1768C162.504 32.8008 163.512 33.1368 164.52 33.2328C164.712 33.2328 164.904 33.2808 165.144 33.2808H165.192C172.488 33.2328 174.12 28.3368 174.168 28.1448L174.312 27.8088ZM159.768 16.3368C159.24 17.1048 158.856 17.9208 158.52 18.7848H171.336C171.24 18.1128 171.048 17.5368 170.76 16.9608C170.28 16.0008 169.56 15.1368 168.696 14.5128C167.688 13.7448 166.44 13.3128 165.144 13.2648H165.096L165.048 13.3128C163.8 13.3128 162.648 13.6968 161.592 14.3688C160.872 14.8968 160.248 15.5688 159.768 16.3368ZM199.767 12.4968C197.991 13.4568 196.551 14.9448 195.735 16.7688C192.375 23.9208 184.359 40.9608 184.167 41.2488C183.687 42.3048 183.015 43.2648 182.199 44.0328L182.007 44.2248C181.911 44.2728 181.863 44.3688 181.767 44.4648L181.431 44.7048C180.759 45.1368 180.039 45.4248 179.271 45.6168C178.503 45.7608 177.687 45.8088 176.919 45.7608C176.535 45.7128 176.151 45.6648 175.815 45.5688C175.335 45.4248 175.143 44.8488 175.383 44.2248C175.575 43.8888 175.767 43.5048 176.007 43.1688C176.391 42.6408 176.775 42.4008 177.015 42.5448C177.207 42.6888 177.399 42.7848 177.591 42.8808C178.071 43.1208 178.599 43.2648 179.127 43.3608C179.655 43.4568 180.183 43.4088 180.711 43.2648L181.047 43.1688C181.143 43.1688 181.191 43.1208 181.239 43.0728L181.479 43.0248C182.391 42.5928 183.111 41.8248 183.591 40.9128C183.735 40.5768 185.271 37.4088 187.191 33.2808L180.855 19.8408V19.7928C180.327 18.5928 179.895 17.7288 179.559 17.0088C179.223 16.3848 178.887 15.7608 178.455 15.1848C178.119 14.6088 177.639 14.1768 177.063 13.8408C176.295 13.4088 175.383 13.1688 174.519 13.1688V12.4968C175.479 12.4968 176.487 12.5928 177.447 12.7848C178.263 12.9288 179.031 13.1688 179.751 13.5048C181.191 14.2248 182.823 15.5688 184.119 18.6408L189.111 29.2008C191.607 23.9208 194.295 18.1608 195.831 14.9448C196.215 14.0808 195.975 13.0728 195.255 12.4968H199.767ZM234.101 12.4968H238.613C236.885 13.5048 235.493 14.9928 234.629 16.8168L226.517 34.0488L219.509 19.2648L212.549 34.0968L205.637 19.5048C204.677 17.3448 204.197 16.2408 203.621 15.2808C203.333 14.7048 202.901 14.2248 202.373 13.8888C201.653 13.4088 200.789 13.1688 199.925 13.1688V12.4968C200.885 12.4968 201.845 12.5928 202.805 12.8328C203.573 13.0248 204.341 13.3128 205.013 13.7448C206.309 14.4648 207.557 15.6648 208.805 18.0168L209.141 18.7848L214.085 29.2008L221.045 14.3688L228.053 29.2008L234.677 15.0888C235.109 14.1768 234.869 13.1208 234.101 12.4968ZM258.039 17.6328C260.055 21.1368 260.055 25.4088 258.039 28.9128C257.415 30.0648 256.551 31.0248 255.495 31.7448C254.631 32.4168 253.671 32.9448 252.615 33.2808C251.655 33.6648 250.647 33.9048 249.591 34.0008C249.255 34.0488 248.967 34.0488 248.631 34.0488H248.583C248.247 34.0488 247.911 34.0488 247.623 34.0008C246.567 33.9048 245.559 33.6648 244.599 33.2808C243.543 32.9448 242.583 32.4168 241.719 31.7448C240.663 31.0248 239.799 30.0648 239.127 28.9128C237.159 25.4088 237.159 21.1368 239.127 17.6328C239.799 16.5288 240.663 15.5208 241.719 14.8008C242.583 14.1288 243.543 13.6008 244.599 13.2648C245.559 12.8808 246.567 12.6408 247.623 12.5448C247.911 12.4968 248.247 12.4968 248.583 12.4968C248.919 12.4968 249.255 12.4968 249.591 12.5448C250.647 12.6408 251.655 12.8808 252.615 13.2648C253.671 13.6008 254.631 14.1288 255.495 14.8008C256.551 15.5208 257.415 16.5288 258.039 17.6328ZM255.303 27.6168C256.311 24.7848 256.311 21.7608 255.303 18.9288C255.015 17.9688 254.535 17.1048 254.007 16.2408C253.527 15.4728 252.855 14.8008 252.135 14.2728C251.079 13.5528 249.879 13.1688 248.583 13.1688H248.535C247.287 13.1688 246.087 13.5528 245.079 14.2728C244.311 14.8008 243.687 15.4728 243.207 16.2408C242.631 17.1048 242.199 17.9688 241.911 18.9288C240.903 21.7608 240.903 24.7848 241.911 27.6168C242.199 28.5768 242.631 29.4888 243.207 30.3048C243.687 31.0728 244.311 31.7928 245.079 32.3208C246.135 32.9928 247.335 33.3768 248.583 33.3768H248.631H248.679C249.927 33.3768 251.127 32.9928 252.135 32.2728C252.903 31.7448 253.527 31.0728 254.007 30.3048C254.535 29.4408 255.015 28.5768 255.303 27.6168ZM275.868 14.3208C275.868 14.3688 275.916 14.4648 275.916 14.5128C275.916 14.8008 275.82 15.0888 275.628 15.3288C275.34 15.6168 275.052 15.9048 274.716 16.1448C274.524 16.3368 274.236 16.4328 273.996 16.5288H273.948C273.852 16.5288 273.756 16.5288 273.66 16.5288C273.612 16.4808 273.564 16.4808 273.516 16.4328C273.084 15.8568 272.412 15.5208 271.692 15.5208C270.78 15.5688 269.868 15.9048 269.148 16.4808C268.284 17.1528 267.66 18.0168 267.228 19.0248C267.228 19.2168 267.228 19.4568 267.228 19.6488H267.276V30.5448C267.276 31.8408 267.804 33.0888 268.764 33.9528L268.86 34.0968H262.14L262.284 33.9528C263.244 33.0888 263.772 31.8408 263.772 30.5448V19.6488C263.772 18.7848 263.676 17.8728 263.484 16.9608C263.388 16.3848 263.196 15.8088 263.004 15.2328C262.476 13.9368 261.18 13.1208 259.788 13.1688V12.4968C260.7 12.4968 261.612 12.5928 262.476 12.8808C263.196 13.0728 263.916 13.4088 264.54 13.8408C265.26 14.3688 265.884 15.0408 266.316 15.8088C266.652 16.4328 266.892 17.0568 267.036 17.6808C267.372 16.9608 267.756 16.2888 268.236 15.6168C268.956 14.5608 270.012 13.7448 271.212 13.3128C272.268 12.9288 273.42 12.9768 274.476 13.3608C274.668 13.4088 274.86 13.5048 275.004 13.5528L275.484 13.8408C275.676 13.9368 275.82 14.1288 275.868 14.3208ZM296.946 34.0488L291.858 34.0968V30.6408C290.37 32.7528 288.306 34.0488 286.002 34.0488C285.666 34.0488 285.33 34.0488 284.994 34.0008C284.034 33.8568 283.122 33.5688 282.258 33.0888C281.346 32.6568 280.53 32.0328 279.762 31.3608C278.898 30.5448 278.226 29.5848 277.698 28.4808C276.21 25.1688 276.21 21.3768 277.698 18.0648C278.226 17.0088 278.898 16.0008 279.762 15.1848C280.53 14.5128 281.346 13.9368 282.258 13.4568C283.122 13.0248 284.034 12.6888 284.994 12.5448C285.33 12.4968 285.666 12.4968 286.002 12.4968C288.306 12.4968 290.37 13.7928 291.858 15.9048V7.74483C291.858 6.78483 291.762 5.87283 291.57 4.96083C291.426 4.38483 291.282 3.80883 291.042 3.23283C290.85 2.70483 290.466 2.22483 290.034 1.84083C289.41 1.36083 288.642 1.07283 287.826 1.12083V0.400826C288.738 0.400826 289.698 0.544827 290.562 0.832827C291.282 1.07283 292.002 1.40883 292.626 1.84083C293.346 2.36883 293.97 3.04083 294.402 3.85683C295.026 5.05683 295.314 6.35283 295.314 7.74483V30.5448C295.314 31.8408 295.842 33.0888 296.802 33.9528L296.946 34.0488ZM286.002 33.3768C288.354 33.3768 290.514 31.7928 291.858 29.3448V17.2008C290.514 14.7528 288.354 13.1688 286.002 13.1688H285.906C284.802 13.2168 283.698 13.6488 282.882 14.4168C282.258 14.9928 281.778 15.6648 281.442 16.4328C281.058 17.2968 280.77 18.2088 280.578 19.1208C279.858 21.8568 279.858 24.6888 280.578 27.4248C280.77 28.3368 281.058 29.2488 281.442 30.1128C281.778 30.8808 282.258 31.6008 282.882 32.1768C283.746 32.9448 284.85 33.3768 286.002 33.3768Z" fill="#1A1A1A"/>
</svg>
