<svg width="207" height="28" viewBox="0 0 207 28" fill="none" xmlns="http://www.w3.org/2000/svg">
<path d="M10.7145 0.415998C12.5705 0.415998 14.2451 0.746665 15.7385 1.408C17.2318 2.048 18.4265 2.95466 19.3225 4.128C20.2185 5.30133 20.7198 6.624 20.8265 8.096H17.3705C17.1785 6.688 16.4745 5.536 15.2585 4.64C14.0638 3.744 12.4958 3.296 10.5545 3.296C8.59179 3.296 7.04513 3.66933 5.91446 4.416C4.80513 5.14133 4.25046 6.09067 4.25046 7.264C4.25046 8.13867 4.51713 8.87467 5.05046 9.472C5.58379 10.048 6.40513 10.5493 7.51446 10.976C8.64513 11.4027 10.1705 11.8187 12.0905 12.224C15.1838 12.8853 17.4238 13.8347 18.8105 15.072C20.2185 16.288 20.9225 17.8667 20.9225 19.808C20.9225 21.3013 20.4745 22.6133 19.5785 23.744C18.6825 24.8533 17.4558 25.7067 15.8985 26.304C14.3411 26.9227 12.6131 27.232 10.7145 27.232C8.73046 27.232 6.94913 26.8907 5.37046 26.208C3.81313 25.5253 2.56513 24.5653 1.62646 23.328C0.687794 22.0907 0.165128 20.6507 0.058461 19.008H3.51446C3.68513 20.5867 4.43179 21.8667 5.75446 22.848C7.09846 23.8293 8.82646 24.32 10.9385 24.32C12.1971 24.32 13.3278 24.1387 14.3305 23.776C15.3331 23.4133 16.1118 22.9013 16.6665 22.24C17.2211 21.5787 17.4985 20.832 17.4985 20C17.4985 19.0613 17.2318 18.2827 16.6985 17.664C16.1651 17.0453 15.3331 16.5227 14.2025 16.096C13.0931 15.648 11.5571 15.2213 9.59446 14.816C6.60779 14.1973 4.39979 13.3013 2.97046 12.128C1.56246 10.9547 0.858461 9.33333 0.858461 7.264C0.858461 5.87733 1.27446 4.672 2.10646 3.648C2.95979 2.60266 4.13313 1.80267 5.62646 1.248C7.1198 0.693332 8.81579 0.415998 10.7145 0.415998ZM33.2447 27.104C31.4954 27.104 29.9167 26.688 28.5087 25.856C27.122 25.024 26.034 23.8827 25.2447 22.432C24.4554 20.96 24.0607 19.3173 24.0607 17.504C24.0607 15.6907 24.4554 14.0587 25.2447 12.608C26.034 11.136 27.122 9.984 28.5087 9.152C29.9167 8.32 31.4954 7.904 33.2447 7.904C34.994 7.904 36.562 8.32 37.9487 9.152C39.3567 9.984 40.4447 11.136 41.2127 12.608C42.002 14.0587 42.3967 15.6907 42.3967 17.504C42.3967 18.1013 42.3754 18.5493 42.3327 18.848H27.3567C27.5274 20.448 28.146 21.76 29.2127 22.784C30.3007 23.808 31.6447 24.32 33.2447 24.32C34.4607 24.32 35.5274 24.0747 36.4447 23.584C37.3834 23.072 38.0234 22.432 38.3647 21.664H41.7247C41.2127 23.264 40.1887 24.5653 38.6527 25.568C37.1167 26.592 35.314 27.104 33.2447 27.104ZM39.1647 16.16C38.9727 14.5387 38.3434 13.2267 37.2767 12.224C36.21 11.2 34.866 10.688 33.2447 10.688C31.6234 10.688 30.2794 11.2 29.2127 12.224C28.146 13.2267 27.5274 14.5387 27.3567 16.16H39.1647ZM46.5832 26.656V0.223999H49.8792V26.656H46.5832ZM64.268 11.264H60.204V26.656H56.908V11.264H53.292V8.352H56.908V5.248C56.908 3.69067 57.3346 2.44267 58.188 1.504C59.0626 0.565332 60.268 0.0959988 61.804 0.0959988C62.6573 0.0959988 63.372 0.159999 63.948 0.287998V3.072C63.6493 3.008 63.1266 2.976 62.38 2.976C61.6973 2.976 61.164 3.18933 60.78 3.616C60.396 4.02133 60.204 4.59733 60.204 5.344V8.352H64.268V11.264ZM77.8582 15.808H66.6582V12.928H77.8582V15.808ZM90.4635 27.104C88.7141 27.104 87.1355 26.688 85.7275 25.856C84.3408 25.024 83.2528 23.8827 82.4635 22.432C81.6741 20.96 81.2795 19.3173 81.2795 17.504C81.2795 15.6907 81.6741 14.0587 82.4635 12.608C83.2528 11.136 84.3408 9.984 85.7275 9.152C87.1355 8.32 88.7141 7.904 90.4635 7.904C92.2128 7.904 93.7808 8.32 95.1675 9.152C96.5755 9.984 97.6635 11.136 98.4315 12.608C99.2208 14.0587 99.6155 15.6907 99.6155 17.504C99.6155 18.1013 99.5941 18.5493 99.5515 18.848H84.5755C84.7461 20.448 85.3648 21.76 86.4315 22.784C87.5195 23.808 88.8635 24.32 90.4635 24.32C91.6795 24.32 92.7461 24.0747 93.6635 23.584C94.6021 23.072 95.2421 22.432 95.5835 21.664H98.9435C98.4315 23.264 97.4075 24.5653 95.8715 25.568C94.3355 26.592 92.5328 27.104 90.4635 27.104ZM96.3835 16.16C96.1915 14.5387 95.5621 13.2267 94.4955 12.224C93.4288 11.2 92.0848 10.688 90.4635 10.688C88.8421 10.688 87.4981 11.2 86.4315 12.224C85.3648 13.2267 84.7461 14.5387 84.5755 16.16H96.3835ZM111.002 7.904C112.474 7.904 113.807 8.13867 115.002 8.608C116.197 9.056 117.146 9.68533 117.85 10.496C118.575 11.2853 118.959 12.192 119.002 13.216H115.77C115.706 12.448 115.215 11.8187 114.298 11.328C113.381 10.8373 112.25 10.592 110.906 10.592C109.583 10.592 108.485 10.8267 107.61 11.296C106.757 11.7653 106.33 12.3413 106.33 13.024C106.33 13.8133 106.725 14.4427 107.514 14.912C108.325 15.3813 109.807 15.7653 111.962 16.064C114.629 16.4267 116.538 17.0453 117.69 17.92C118.842 18.7947 119.418 19.968 119.418 21.44C119.418 22.592 119.045 23.5947 118.298 24.448C117.573 25.3013 116.581 25.952 115.322 26.4C114.063 26.8693 112.666 27.104 111.13 27.104C109.53 27.104 108.122 26.8587 106.906 26.368C105.69 25.8987 104.73 25.2373 104.026 24.384C103.343 23.552 102.959 22.6027 102.874 21.536H106.106C106.213 22.3253 106.703 23.008 107.578 23.584C108.474 24.1387 109.69 24.416 111.226 24.416C112.655 24.416 113.839 24.16 114.778 23.648C115.717 23.1147 116.186 22.4427 116.186 21.632C116.186 20.864 115.749 20.256 114.874 19.808C114.021 19.3387 112.527 18.9653 110.394 18.688C107.877 18.3467 106.031 17.7493 104.858 16.896C103.685 16.0213 103.098 14.7947 103.098 13.216C103.098 12.1707 103.439 11.2427 104.122 10.432C104.826 9.62133 105.775 9.00267 106.97 8.576C108.165 8.128 109.509 7.904 111.002 7.904ZM132.996 11.264H128.932V26.656H125.636V11.264H121.572V8.352H125.636V2.784H128.932V8.352H132.996V11.264ZM144.026 27.104C142.277 27.104 140.698 26.688 139.29 25.856C137.903 25.024 136.815 23.8827 136.026 22.432C135.237 20.96 134.842 19.3173 134.842 17.504C134.842 15.6907 135.237 14.0587 136.026 12.608C136.815 11.136 137.903 9.984 139.29 9.152C140.698 8.32 142.277 7.904 144.026 7.904C145.775 7.904 147.343 8.32 148.73 9.152C150.138 9.984 151.226 11.136 151.994 12.608C152.783 14.0587 153.178 15.6907 153.178 17.504C153.178 18.1013 153.157 18.5493 153.114 18.848H138.138C138.309 20.448 138.927 21.76 139.994 22.784C141.082 23.808 142.426 24.32 144.026 24.32C145.242 24.32 146.309 24.0747 147.226 23.584C148.165 23.072 148.805 22.432 149.146 21.664H152.506C151.994 23.264 150.97 24.5653 149.434 25.568C147.898 26.592 146.095 27.104 144.026 27.104ZM149.946 16.16C149.754 14.5387 149.125 13.2267 148.058 12.224C146.991 11.2 145.647 10.688 144.026 10.688C142.405 10.688 141.061 11.2 139.994 12.224C138.927 13.2267 138.309 14.5387 138.138 16.16H149.946ZM165.588 27.104C163.839 27.104 162.26 26.688 160.852 25.856C159.466 25.024 158.378 23.8827 157.588 22.432C156.799 20.96 156.404 19.3173 156.404 17.504C156.404 15.6907 156.799 14.0587 157.588 12.608C158.378 11.136 159.466 9.984 160.852 9.152C162.26 8.32 163.839 7.904 165.588 7.904C167.338 7.904 168.906 8.32 170.292 9.152C171.7 9.984 172.788 11.136 173.556 12.608C174.346 14.0587 174.74 15.6907 174.74 17.504C174.74 18.1013 174.719 18.5493 174.676 18.848H159.7C159.871 20.448 160.49 21.76 161.556 22.784C162.644 23.808 163.988 24.32 165.588 24.32C166.804 24.32 167.871 24.0747 168.788 23.584C169.727 23.072 170.367 22.432 170.708 21.664H174.068C173.556 23.264 172.532 24.5653 170.996 25.568C169.46 26.592 167.658 27.104 165.588 27.104ZM171.508 16.16C171.316 14.5387 170.687 13.2267 169.62 12.224C168.554 11.2 167.21 10.688 165.588 10.688C163.967 10.688 162.623 11.2 161.556 12.224C160.49 13.2267 159.871 14.5387 159.7 16.16H171.508ZM182.223 8.352V10.944C182.756 10.0907 183.46 9.376 184.335 8.8C185.231 8.20267 186.372 7.904 187.759 7.904C189.103 7.904 190.276 8.24533 191.279 8.928C192.282 9.61067 193.007 10.5493 193.455 11.744C194.01 10.5707 194.852 9.64267 195.983 8.96C197.114 8.256 198.436 7.904 199.951 7.904C201.252 7.904 202.404 8.224 203.407 8.864C204.431 9.48267 205.231 10.368 205.807 11.52C206.383 12.672 206.671 14.0053 206.671 15.52V26.656H203.375V16.064C203.375 14.4213 203.002 13.1307 202.255 12.192C201.508 11.2533 200.484 10.784 199.183 10.784C198.287 10.784 197.476 11.0507 196.751 11.584C196.026 12.1173 195.46 12.8427 195.055 13.76C194.65 14.6773 194.447 15.6907 194.447 16.8V26.656H191.151V16.192C191.151 14.4853 190.778 13.1627 190.031 12.224C189.284 11.264 188.26 10.784 186.959 10.784C186.063 10.784 185.252 11.0507 184.527 11.584C183.823 12.1173 183.258 12.8427 182.831 13.76C182.426 14.6773 182.223 15.68 182.223 16.768V26.656H178.927V8.352H182.223Z" fill="#595B5A"/>
</svg>
