<svg width="41" height="11" viewBox="0 0 41 11" fill="none" xmlns="http://www.w3.org/2000/svg">
<path d="M8.46143 6.90956C8.55143 7.23956 8.61143 7.58456 8.59643 7.91456C8.61143 8.25956 8.55143 8.60456 8.44643 8.91956C8.37143 9.18956 8.23643 9.42956 8.07143 9.65456C7.81643 9.96956 7.48643 10.2246 7.11143 10.3746C6.54143 10.5996 6.04643 10.6596 5.22143 10.6896H0.661426L0.706426 10.6446C0.991426 10.3746 1.17143 9.98456 1.17143 9.57956V1.26956C1.17143 0.86456 0.991426 0.47456 0.706426 0.20456L0.661426 0.15956H4.74143C5.10143 0.17456 5.44643 0.21956 5.79143 0.29456C6.06143 0.36956 6.33143 0.47456 6.58643 0.59456C6.88643 0.75956 7.15643 0.98456 7.35143 1.25456C7.42643 1.34456 7.48643 1.44956 7.53143 1.53956C7.59143 1.64456 7.65143 1.76456 7.68143 1.88456C7.74143 2.01956 7.77143 2.15456 7.78643 2.30456C7.81643 2.37956 7.81643 2.45456 7.81643 2.52956C7.83143 2.57456 7.83143 2.60456 7.83143 2.64956C7.83143 2.69456 7.83143 2.73956 7.83143 2.76956C7.83143 2.79956 7.83143 2.84456 7.83143 2.88956C7.83143 2.91956 7.83143 2.96456 7.81643 3.00956C7.81643 3.03956 7.81643 3.08456 7.81643 3.12956C7.80143 3.15956 7.80143 3.20456 7.80143 3.23456C7.78643 3.30956 7.77143 3.38456 7.75643 3.45956L7.69643 3.65456C7.65143 3.77456 7.59143 3.87956 7.53143 3.99956C7.48643 4.08956 7.42643 4.17956 7.36643 4.26956C7.15643 4.55456 6.88643 4.77956 6.58643 4.94456C6.39143 5.04956 6.16643 5.12456 5.95643 5.18456C6.00143 5.19956 6.06143 5.21456 6.10643 5.21456C6.12143 5.22956 6.15143 5.22956 6.16643 5.22956C6.49643 5.27456 6.81143 5.34956 7.11143 5.45456C7.48643 5.60456 7.81643 5.85956 8.07143 6.17456C8.14643 6.27956 8.22143 6.39956 8.28143 6.50456C8.35643 6.63956 8.41643 6.77456 8.46143 6.90956ZM2.25143 0.38456V5.15456H4.74143H4.77143C5.08643 5.15456 5.40143 5.06456 5.67143 4.89956C5.86643 4.77956 6.04643 4.61456 6.18143 4.43456C6.33143 4.22456 6.45143 4.01456 6.54143 3.78956C6.57143 3.72956 6.58643 3.65456 6.61643 3.57956C6.64643 3.50456 6.66143 3.42956 6.69143 3.33956C6.69143 3.30956 6.70643 3.26456 6.70643 3.21956C6.72143 3.17456 6.72143 3.12956 6.73643 3.08456C6.73643 3.05456 6.73643 3.03956 6.73643 3.00956C6.73643 2.97956 6.73643 2.96456 6.73643 2.93456C6.73643 2.90456 6.73643 2.87456 6.75143 2.85956C6.75143 2.82956 6.75143 2.79956 6.75143 2.76956C6.75143 2.72456 6.75143 2.70956 6.75143 2.67956C6.75143 2.64956 6.73643 2.61956 6.73643 2.60456C6.73643 2.54456 6.73643 2.49956 6.73643 2.45456C6.72143 2.36456 6.70643 2.27456 6.69143 2.18456C6.66143 2.10956 6.64643 2.03456 6.61643 1.95956C6.58643 1.88456 6.57143 1.80956 6.54143 1.74956C6.45143 1.52456 6.33143 1.29956 6.18143 1.10456C6.03143 0.90956 5.86643 0.74456 5.65643 0.62456C5.38643 0.45956 5.07143 0.38456 4.74143 0.38456H2.25143ZM7.44143 8.63456C7.50143 8.39456 7.51643 8.15456 7.51643 7.91456C7.51643 7.83956 7.51643 7.77956 7.51643 7.70456C7.51643 7.64456 7.50143 7.58456 7.50143 7.52456C7.48643 7.46456 7.48643 7.40456 7.47143 7.35956C7.47143 7.29956 7.45643 7.25456 7.44143 7.20956C7.42643 7.10456 7.39643 7.01456 7.36643 6.92456C7.33643 6.84956 7.30643 6.77456 7.27643 6.69956C7.15643 6.44456 6.97643 6.20456 6.78143 6.00956C6.57143 5.82956 6.33143 5.67956 6.07643 5.57456C5.71643 5.42456 5.34143 5.36456 4.95143 5.36456H2.25143V10.4646H4.98143C5.92643 10.4496 6.39143 10.1646 6.78143 9.81956C6.97643 9.62456 7.14143 9.39956 7.26143 9.14456C7.35143 8.97956 7.41143 8.79956 7.44143 8.63456ZM13.8225 4.50956C13.8225 4.52456 13.8375 4.55456 13.8375 4.56956C13.8375 4.65956 13.8075 4.74956 13.7475 4.82456C13.6575 4.91456 13.5675 5.00456 13.4625 5.07956C13.4025 5.13956 13.3125 5.16956 13.2375 5.19956H13.2225C13.1925 5.19956 13.1625 5.19956 13.1325 5.19956C13.1175 5.18456 13.1025 5.18456 13.0875 5.16956C12.9525 4.98956 12.7425 4.88456 12.5175 4.88456C12.2325 4.89956 11.9475 5.00456 11.7225 5.18456C11.4525 5.39456 11.2575 5.66456 11.1225 5.97956C11.1225 6.03956 11.1225 6.11456 11.1225 6.17456H11.1375V9.57956C11.1375 9.98456 11.3025 10.3746 11.6025 10.6446L11.6325 10.6896H9.53252L9.57752 10.6446C9.87752 10.3746 10.0425 9.98456 10.0425 9.57956V6.17456C10.0425 5.90456 10.0125 5.61956 9.95252 5.33456C9.92252 5.15456 9.86252 4.97456 9.80252 4.79456C9.63752 4.38956 9.23252 4.13456 8.79752 4.14956V3.93956C9.08252 3.93956 9.36752 3.96956 9.63752 4.05956C9.86252 4.11956 10.0875 4.22456 10.2825 4.35956C10.5075 4.52456 10.7025 4.73456 10.8375 4.97456C10.9425 5.16956 11.0175 5.36456 11.0625 5.55956C11.1675 5.33456 11.2875 5.12456 11.4375 4.91456C11.6625 4.58456 11.9925 4.32956 12.3675 4.19456C12.6975 4.07456 13.0575 4.08956 13.3875 4.20956C13.4475 4.22456 13.5075 4.25456 13.5525 4.26956L13.7025 4.35956C13.7625 4.38956 13.8075 4.44956 13.8225 4.50956ZM20.1097 10.6746L18.5047 10.6896V9.87956C18.3097 10.0296 18.0997 10.1646 17.8747 10.2846C17.6647 10.3896 17.4397 10.4796 17.2147 10.5246C17.0647 10.5696 16.9147 10.5996 16.7647 10.6296C16.4197 10.6896 16.0747 10.6896 15.7447 10.6446C15.3847 10.5996 15.0547 10.4796 14.7547 10.2846L14.6347 10.2096C14.5897 10.1796 14.5597 10.1496 14.5147 10.1046C14.4397 10.0446 14.3647 9.95456 14.3047 9.87956C14.2447 9.77456 14.1847 9.68456 14.1397 9.57956C14.0947 9.47456 14.0647 9.38456 14.0347 9.27956C13.9447 8.88956 13.9747 8.46956 14.1247 8.09456C14.2747 7.74956 14.4997 7.46456 14.7847 7.23956C15.0847 7.02956 15.3997 6.86456 15.7297 6.74456C16.0747 6.60956 16.4347 6.50456 16.7947 6.42956C18.3697 6.03956 18.4297 5.52956 18.4297 5.51456H18.4447C18.4297 5.43956 18.4147 5.36456 18.3997 5.28956C18.3547 5.10956 18.2797 4.92956 18.1747 4.76456C18.0847 4.59956 17.9497 4.46456 17.7997 4.35956C17.5747 4.20956 17.3197 4.14956 17.0497 4.14956C16.7197 4.14956 16.4047 4.25456 16.1347 4.44956C15.7147 4.77956 15.4597 5.27456 15.4447 5.81456C15.4297 5.91956 15.2797 5.96456 15.0847 5.94956C14.9497 5.94956 14.8297 5.93456 14.7097 5.88956C14.5147 5.82956 14.3947 5.66456 14.4697 5.54456C14.6047 5.19956 14.8147 4.89956 15.0697 4.64456C15.3097 4.38956 15.6247 4.19456 15.9547 4.08956C16.3147 3.98456 16.6747 3.92456 17.0497 3.93956C17.3497 3.93956 17.6347 3.96956 17.9347 4.02956C18.1747 4.07456 18.3997 4.16456 18.6097 4.26956C18.8797 4.41956 19.0897 4.62956 19.2547 4.88456C19.4797 5.25956 19.5997 5.70956 19.5997 6.14456V9.57956C19.5997 9.98456 19.7647 10.3746 20.0647 10.6446L20.1097 10.6746ZM17.7697 10.0896C18.0397 9.95456 18.2797 9.78956 18.5047 9.59456V6.14456C18.5047 6.03956 18.5047 5.94956 18.4897 5.85956C18.2947 6.08456 17.8447 6.39956 16.8397 6.63956C16.0747 6.83456 15.5347 7.23956 15.2647 7.68956C15.1447 7.88456 15.0547 8.12456 15.0397 8.34956C15.0247 8.57456 15.0397 8.79956 15.0997 9.00956C15.0997 9.06956 15.1297 9.12956 15.1447 9.18956C15.1597 9.21956 15.1597 9.26456 15.1897 9.30956C15.2047 9.35456 15.2347 9.39956 15.2647 9.42956L15.3097 9.50456L15.3547 9.56456C15.5197 9.74456 15.7147 9.90956 15.9247 10.0296C16.1797 10.1646 16.4647 10.2546 16.7647 10.2846C17.1097 10.3146 17.4547 10.2396 17.7697 10.0896ZM26.3366 6.51956V6.50456C26.3366 5.24456 25.9916 4.28456 25.1366 4.28456C24.5666 4.29956 24.0116 4.52456 23.6066 4.91456C23.3066 5.19956 23.0366 5.51456 22.8116 5.85956C22.8266 5.96456 22.8266 6.06956 22.8266 6.17456V9.57956C22.8266 9.98456 23.0066 10.3746 23.2916 10.6446L23.3366 10.6746H21.2366L21.2816 10.6446C21.5816 10.3746 21.7466 9.98456 21.7466 9.57956V6.17456C21.7466 5.90456 21.7166 5.61956 21.6566 5.33456C21.6266 5.15456 21.5666 4.97456 21.5066 4.79456C21.3416 4.38956 20.9366 4.11956 20.5016 4.14956V3.93956C20.7866 3.93956 21.0716 3.96956 21.3416 4.05956C21.5666 4.11956 21.7916 4.22456 21.9866 4.35956C22.2116 4.52456 22.4066 4.73456 22.5416 4.97456C22.6466 5.15456 22.7216 5.36456 22.7666 5.55956C23.3216 4.74956 24.2516 3.93956 25.3016 3.93956C25.4666 3.92456 25.6316 3.93956 25.7966 3.96956C25.9316 3.99956 26.0816 4.02956 26.2016 4.08956C26.4416 4.20956 26.6516 4.35956 26.8166 4.55456C27.1616 4.94456 27.4166 5.51456 27.4166 6.51956V9.57956C27.4166 9.98456 27.5966 10.3746 27.8966 10.6446L27.9266 10.6746H25.8266L25.8716 10.6446C26.1716 10.3746 26.3366 9.98456 26.3366 9.57956V6.51956ZM35.0139 10.6746L33.4239 10.6896V9.60956C32.9589 10.2696 32.3139 10.6746 31.5939 10.6746C31.4889 10.6746 31.3839 10.6746 31.2789 10.6596C30.9789 10.6146 30.6939 10.5246 30.4239 10.3746C30.1389 10.2396 29.8839 10.0446 29.6439 9.83456C29.3739 9.57956 29.1639 9.27956 28.9989 8.93456C28.5339 7.89956 28.5339 6.71456 28.9989 5.67956C29.1639 5.34956 29.3739 5.03456 29.6439 4.77956C29.8839 4.56956 30.1389 4.38956 30.4239 4.23956C30.6939 4.10456 30.9789 3.99956 31.2789 3.95456C31.3839 3.93956 31.4889 3.93956 31.5939 3.93956C32.3139 3.93956 32.9589 4.34456 33.4239 5.00456V2.45456C33.4239 2.15456 33.3939 1.86956 33.3339 1.58456C33.2889 1.40456 33.2439 1.22456 33.1689 1.04456C33.1089 0.87956 32.9889 0.72956 32.8539 0.60956C32.6589 0.45956 32.4189 0.36956 32.1639 0.38456V0.15956C32.4489 0.15956 32.7489 0.20456 33.0189 0.29456C33.2439 0.36956 33.4689 0.47456 33.6639 0.60956C33.8889 0.77456 34.0839 0.98456 34.2189 1.23956C34.4139 1.61456 34.5039 2.01956 34.5039 2.45456V9.57956C34.5039 9.98456 34.6689 10.3746 34.9689 10.6446L35.0139 10.6746ZM31.5939 10.4646C32.3289 10.4646 33.0039 9.96956 33.4239 9.20456V5.40956C33.0039 4.64456 32.3289 4.14956 31.5939 4.14956H31.5639C31.2189 4.16456 30.8739 4.29956 30.6189 4.53956C30.4239 4.71956 30.2739 4.92956 30.1689 5.16956C30.0489 5.43956 29.9589 5.72456 29.8989 6.00956C29.6739 6.86456 29.6739 7.74956 29.8989 8.60456C29.9589 8.88956 30.0489 9.17456 30.1689 9.44456C30.2739 9.68456 30.4239 9.90956 30.6189 10.0896C30.8889 10.3296 31.2339 10.4646 31.5939 10.4646ZM40.303 8.78456C40.333 9.02456 40.288 9.26456 40.213 9.47456C40.063 9.87956 39.778 10.1946 39.388 10.3746C39.013 10.5546 38.593 10.6596 38.158 10.6746C38.113 10.6746 38.053 10.6746 37.993 10.6746H37.978C37.693 10.6746 37.408 10.6446 37.138 10.5846C36.598 10.4646 36.118 10.1796 35.743 9.78956C35.653 9.69956 35.728 9.53456 35.893 9.42956C35.998 9.35456 36.103 9.29456 36.223 9.24956C36.418 9.17456 36.553 9.14456 36.583 9.21956C36.718 9.62456 36.958 9.96956 37.288 10.2246C37.498 10.3746 37.738 10.4646 37.993 10.4646H38.008C38.443 10.4796 38.863 10.3446 39.208 10.0746C39.433 9.89456 39.568 9.62456 39.583 9.32456C39.583 9.20456 39.553 9.06956 39.508 8.93456C39.478 8.87456 39.448 8.81456 39.418 8.75456C39.388 8.72456 39.373 8.69456 39.358 8.66456C39.328 8.64956 39.313 8.61956 39.283 8.60456C39.118 8.48456 38.938 8.36456 38.743 8.27456C38.473 8.15456 38.203 8.01956 37.858 7.85456C37.168 7.52456 36.583 7.17956 36.223 6.69956C36.058 6.47456 35.938 6.20456 35.878 5.93456C35.848 5.69456 35.863 5.45456 35.938 5.22956C36.073 4.82456 36.343 4.49456 36.688 4.28456C37.123 4.02956 37.603 3.90956 38.098 3.93956C38.398 3.93956 38.683 3.96956 38.953 4.04456C39.223 4.11956 39.478 4.25456 39.688 4.44956C39.898 4.62956 40.093 4.85456 40.243 5.09456C40.303 5.18456 40.198 5.33456 40.018 5.40956C39.898 5.45456 39.763 5.48456 39.643 5.51456C39.448 5.54456 39.298 5.52956 39.298 5.45456C39.268 5.04956 39.073 4.67456 38.773 4.40456C38.593 4.23956 38.353 4.14956 38.098 4.14956C38.023 4.14956 37.963 4.14956 37.903 4.16456C37.528 4.17956 37.183 4.31456 36.913 4.55456C36.688 4.76456 36.568 5.04956 36.583 5.34956C36.583 5.63456 36.718 5.88956 36.943 6.06956C37.213 6.32456 37.648 6.54956 38.323 6.87956C38.638 7.01456 38.953 7.17956 39.253 7.35956C39.538 7.52456 39.778 7.73456 39.988 7.97456C40.048 8.03456 40.093 8.10956 40.138 8.18456C40.228 8.37956 40.288 8.57456 40.303 8.78456Z" fill="black"/>
</svg>
