<svg width="52" height="11" viewBox="0 0 52 11" fill="none" xmlns="http://www.w3.org/2000/svg">
<path d="M8.77117 3.17456C8.78617 3.21956 8.78617 3.27956 8.78617 3.32456C8.78617 3.35456 8.78617 3.41456 8.77117 3.47456C8.77117 3.51956 8.77117 3.57956 8.77117 3.62456C8.75617 3.72956 8.74117 3.81956 8.72617 3.92456C8.69617 4.08956 8.63617 4.26956 8.57617 4.43456C8.47117 4.71956 8.30617 4.97456 8.12617 5.19956C7.84117 5.52956 7.51117 5.79956 7.12117 5.97956C6.80617 6.12956 6.46117 6.24956 6.11617 6.32456C5.68117 6.42956 5.23117 6.47456 4.78117 6.47456H2.36617V9.57956C2.36617 9.98456 2.53117 10.3746 2.83117 10.6446L2.87617 10.6896H0.776172L0.806172 10.6446C1.10617 10.3746 1.27117 9.98456 1.27117 9.57956V1.26956C1.27117 0.86456 1.10617 0.47456 0.806172 0.20456L0.776172 0.15956H4.78117C5.23117 0.15956 5.68117 0.21956 6.11617 0.32456C6.46117 0.39956 6.80617 0.50456 7.12117 0.65456C7.51117 0.84956 7.84117 1.11956 8.12617 1.43456C8.30617 1.67456 8.47117 1.92956 8.57617 2.19956C8.63617 2.36456 8.69617 2.54456 8.72617 2.72456C8.74117 2.81456 8.75617 2.91956 8.77117 3.00956C8.77117 3.06956 8.77117 3.11456 8.77117 3.17456ZM7.69117 3.42956C7.69117 3.39956 7.69117 3.36956 7.69117 3.32456C7.69117 3.26456 7.69117 3.23456 7.69117 3.20456C7.69117 3.17456 7.69117 3.12956 7.69117 3.09956C7.69117 3.03956 7.67617 2.96456 7.66117 2.90456C7.64617 2.78456 7.61617 2.66456 7.58617 2.55956C7.52617 2.36456 7.45117 2.16956 7.34617 1.98956C7.18117 1.70456 6.98617 1.43456 6.74617 1.19456C6.53617 0.96956 6.28117 0.78956 5.99617 0.65456C5.62117 0.47456 5.20117 0.38456 4.78117 0.38456H2.36617V6.26456H4.78117H4.81117C5.23117 6.26456 5.63617 6.17456 6.01117 5.97956C6.28117 5.84456 6.53617 5.66456 6.76117 5.43956C6.98617 5.21456 7.18117 4.94456 7.34617 4.65956C7.45117 4.47956 7.52617 4.28456 7.58617 4.08956C7.61617 3.96956 7.64617 3.84956 7.66117 3.72956C7.67617 3.66956 7.69117 3.60956 7.69117 3.53456C7.69117 3.50456 7.69117 3.47456 7.69117 3.42956ZM14.1277 4.50956C14.1277 4.52456 14.1427 4.55456 14.1427 4.56956C14.1427 4.65956 14.1127 4.74956 14.0527 4.82456C13.9627 4.91456 13.8727 5.00456 13.7677 5.07956C13.7077 5.13956 13.6177 5.16956 13.5427 5.19956H13.5277C13.4977 5.19956 13.4677 5.19956 13.4377 5.19956C13.4227 5.18456 13.4077 5.18456 13.3927 5.16956C13.2577 4.98956 13.0477 4.88456 12.8227 4.88456C12.5377 4.89956 12.2527 5.00456 12.0277 5.18456C11.7577 5.39456 11.5627 5.66456 11.4277 5.97956C11.4277 6.03956 11.4277 6.11456 11.4277 6.17456H11.4427V9.57956C11.4427 9.98456 11.6077 10.3746 11.9077 10.6446L11.9377 10.6896H9.8377L9.8827 10.6446C10.1827 10.3746 10.3477 9.98456 10.3477 9.57956V6.17456C10.3477 5.90456 10.3177 5.61956 10.2577 5.33456C10.2277 5.15456 10.1677 4.97456 10.1077 4.79456C9.9427 4.38956 9.5377 4.13456 9.1027 4.14956V3.93956C9.3877 3.93956 9.6727 3.96956 9.9427 4.05956C10.1677 4.11956 10.3927 4.22456 10.5877 4.35956C10.8127 4.52456 11.0077 4.73456 11.1427 4.97456C11.2477 5.16956 11.3227 5.36456 11.3677 5.55956C11.4727 5.33456 11.5927 5.12456 11.7427 4.91456C11.9677 4.58456 12.2977 4.32956 12.6727 4.19456C13.0027 4.07456 13.3627 4.08956 13.6927 4.20956C13.7527 4.22456 13.8127 4.25456 13.8577 4.26956L14.0077 4.35956C14.0677 4.38956 14.1127 4.44956 14.1277 4.50956ZM20.6703 5.54456C21.3003 6.63956 21.3003 7.97456 20.6703 9.06956C20.4753 9.42956 20.2053 9.72956 19.8753 9.95456C19.6053 10.1646 19.3053 10.3296 18.9753 10.4346C18.6753 10.5546 18.3603 10.6296 18.0303 10.6596C17.9253 10.6746 17.8353 10.6746 17.7303 10.6746H17.7153C17.6103 10.6746 17.5053 10.6746 17.4153 10.6596C17.0853 10.6296 16.7703 10.5546 16.4703 10.4346C16.1403 10.3296 15.8403 10.1646 15.5703 9.95456C15.2403 9.72956 14.9703 9.42956 14.7603 9.06956C14.1453 7.97456 14.1453 6.63956 14.7603 5.54456C14.9703 5.19956 15.2403 4.88456 15.5703 4.65956C15.8403 4.44956 16.1403 4.28456 16.4703 4.17956C16.7703 4.05956 17.0853 3.98456 17.4153 3.95456C17.5053 3.93956 17.6103 3.93956 17.7153 3.93956C17.8203 3.93956 17.9253 3.93956 18.0303 3.95456C18.3603 3.98456 18.6753 4.05956 18.9753 4.17956C19.3053 4.28456 19.6053 4.44956 19.8753 4.65956C20.2053 4.88456 20.4753 5.19956 20.6703 5.54456ZM19.8153 8.66456C20.1303 7.77956 20.1303 6.83456 19.8153 5.94956C19.7253 5.64956 19.5753 5.37956 19.4103 5.10956C19.2603 4.86956 19.0503 4.65956 18.8253 4.49456C18.4953 4.26956 18.1203 4.14956 17.7153 4.14956H17.7003C17.3103 4.14956 16.9353 4.26956 16.6203 4.49456C16.3803 4.65956 16.1853 4.86956 16.0353 5.10956C15.8553 5.37956 15.7203 5.64956 15.6303 5.94956C15.3153 6.83456 15.3153 7.77956 15.6303 8.66456C15.7203 8.96456 15.8553 9.24956 16.0353 9.50456C16.1853 9.74456 16.3803 9.96956 16.6203 10.1346C16.9503 10.3446 17.3253 10.4646 17.7153 10.4646H17.7303H17.7453C18.1353 10.4646 18.5103 10.3446 18.8253 10.1196C19.0653 9.95456 19.2603 9.74456 19.4103 9.50456C19.5753 9.23456 19.7253 8.96456 19.8153 8.66456ZM28.3318 10.6746L26.7418 10.6896V9.60956C26.2768 10.2696 25.6318 10.6746 24.9118 10.6746C24.8068 10.6746 24.7018 10.6746 24.5968 10.6596C24.2968 10.6146 24.0118 10.5246 23.7418 10.3746C23.4568 10.2396 23.2018 10.0446 22.9618 9.83456C22.6918 9.57956 22.4818 9.27956 22.3168 8.93456C21.8518 7.89956 21.8518 6.71456 22.3168 5.67956C22.4818 5.34956 22.6918 5.03456 22.9618 4.77956C23.2018 4.56956 23.4568 4.38956 23.7418 4.23956C24.0118 4.10456 24.2968 3.99956 24.5968 3.95456C24.7018 3.93956 24.8068 3.93956 24.9118 3.93956C25.6318 3.93956 26.2768 4.34456 26.7418 5.00456V2.45456C26.7418 2.15456 26.7118 1.86956 26.6518 1.58456C26.6068 1.40456 26.5618 1.22456 26.4868 1.04456C26.4268 0.87956 26.3068 0.72956 26.1718 0.60956C25.9768 0.45956 25.7368 0.36956 25.4818 0.38456V0.15956C25.7668 0.15956 26.0668 0.20456 26.3368 0.29456C26.5618 0.36956 26.7868 0.47456 26.9818 0.60956C27.2068 0.77456 27.4018 0.98456 27.5368 1.23956C27.7318 1.61456 27.8218 2.01956 27.8218 2.45456V9.57956C27.8218 9.98456 27.9868 10.3746 28.2868 10.6446L28.3318 10.6746ZM24.9118 10.4646C25.6468 10.4646 26.3218 9.96956 26.7418 9.20456V5.40956C26.3218 4.64456 25.6468 4.14956 24.9118 4.14956H24.8818C24.5368 4.16456 24.1918 4.29956 23.9368 4.53956C23.7418 4.71956 23.5918 4.92956 23.4868 5.16956C23.3668 5.43956 23.2768 5.72456 23.2168 6.00956C22.9918 6.86456 22.9918 7.74956 23.2168 8.60456C23.2768 8.88956 23.3668 9.17456 23.4868 9.44456C23.5918 9.68456 23.7418 9.90956 23.9368 10.0896C24.2068 10.3296 24.5518 10.4646 24.9118 10.4646ZM35.2109 9.57956C35.2109 9.98456 35.3909 10.3746 35.6759 10.6446L35.7209 10.6746H34.1309V9.95456C33.6809 10.4046 33.0659 10.6596 32.4209 10.6446H32.3309C32.0459 10.6446 31.7459 10.5996 31.4609 10.5246C31.2209 10.4496 30.9959 10.3446 30.8009 10.1946C30.5609 10.0146 30.3809 9.78956 30.2459 9.51956C30.0659 9.12956 29.9759 8.70956 29.9759 8.28956V6.18956V6.17456C29.9759 5.90456 29.9459 5.61956 29.8859 5.33456C29.8559 5.15456 29.7959 4.97456 29.7359 4.79456C29.5709 4.38956 29.1659 4.13456 28.7309 4.14956V3.93956C29.0159 3.93956 29.3009 3.96956 29.5709 4.05956C29.7959 4.11956 30.0209 4.22456 30.2159 4.35956C30.4409 4.52456 30.6359 4.73456 30.7709 4.97456C30.9659 5.34956 31.0709 5.76956 31.0559 6.17456H31.0709V8.28956C31.0709 8.58956 31.0859 8.90456 31.1459 9.20456C31.1759 9.39956 31.2209 9.57956 31.2959 9.77456C31.3559 9.93956 31.4759 10.0896 31.6109 10.2096C31.7909 10.3296 32.0009 10.4046 32.2109 10.4196C32.2559 10.4196 32.3009 10.4346 32.3309 10.4346H32.4209C33.0959 10.4346 33.7109 10.1346 34.1309 9.62456V5.03456C34.1309 4.62956 33.9659 4.25456 33.6659 3.96956L33.6209 3.93956H35.7209L35.6759 3.96956C35.3909 4.25456 35.2109 4.62956 35.2109 5.03456V9.57956ZM42.8327 8.73956L43.0427 8.79956L43.0127 8.90456C42.9977 8.91956 42.4427 10.6296 40.0427 10.6746H39.9527H39.8327C39.7577 10.6746 39.6827 10.6746 39.6227 10.6596C39.2927 10.6296 38.9777 10.5546 38.6777 10.4496C38.3477 10.3296 38.0477 10.1646 37.7777 9.96956C37.4477 9.72956 37.1777 9.42956 36.9677 9.08456C36.3377 7.97456 36.3377 6.63956 36.9677 5.52956C37.1777 5.18456 37.4477 4.88456 37.7777 4.64456C38.0477 4.44956 38.3477 4.28456 38.6777 4.16456C38.9777 4.05956 39.2927 3.98456 39.6227 3.95456C39.7277 3.93956 39.8327 3.93956 39.9377 3.93956H40.0427C40.3577 3.95456 40.6577 4.01456 40.9427 4.10456C41.2577 4.20956 41.5427 4.38956 41.7677 4.62956C42.0227 4.88456 42.2027 5.19956 42.2927 5.54456C42.3227 5.67956 42.1877 5.81456 41.9927 5.84456C41.8727 5.85956 41.7377 5.85956 41.6177 5.84456C41.4077 5.81456 41.2727 5.75456 41.2877 5.67956C41.3027 5.45456 41.2727 5.24456 41.1977 5.03456C41.0927 4.80956 40.9427 4.61456 40.7477 4.46456C40.5227 4.26956 40.2377 4.14956 39.9377 4.14956H39.9077C39.5177 4.14956 39.1427 4.26956 38.8277 4.49456C38.5877 4.65956 38.3927 4.86956 38.2277 5.10956C38.0627 5.36456 37.9277 5.64956 37.8227 5.94956C37.5077 6.83456 37.5077 7.79456 37.8227 8.66456C37.9277 8.96456 38.0627 9.24956 38.2427 9.50456C38.3927 9.75956 38.5877 9.96956 38.8277 10.1346C39.1577 10.3446 39.5477 10.4646 39.9377 10.4646H39.9527C42.2777 10.4496 42.7877 8.85956 42.8027 8.84456L42.8327 8.73956ZM46.3264 4.14956H45.0964V8.30456C45.0964 8.58956 45.1114 8.88956 45.1564 9.18956C45.1714 9.38456 45.2164 9.57956 45.2614 9.75956C45.3064 9.93956 45.3964 10.0896 45.5164 10.2246C45.6964 10.3896 45.9364 10.4796 46.1764 10.4646V10.6746C45.8764 10.6896 45.5914 10.6296 45.3214 10.5246C45.1114 10.4196 44.9014 10.2996 44.7364 10.1346C44.5264 9.95456 44.3614 9.72956 44.2414 9.47456C44.0914 9.09956 44.0014 8.70956 44.0014 8.30456V4.14956H43.1914C44.1814 3.72956 45.0964 1.80956 45.0964 1.80956V3.93956H46.3264V4.14956ZM51.448 8.78456C51.478 9.02456 51.433 9.26456 51.358 9.47456C51.208 9.87956 50.923 10.1946 50.533 10.3746C50.158 10.5546 49.738 10.6596 49.303 10.6746C49.258 10.6746 49.198 10.6746 49.138 10.6746H49.123C48.838 10.6746 48.553 10.6446 48.283 10.5846C47.743 10.4646 47.263 10.1796 46.888 9.78956C46.798 9.69956 46.873 9.53456 47.038 9.42956C47.143 9.35456 47.248 9.29456 47.368 9.24956C47.563 9.17456 47.698 9.14456 47.728 9.21956C47.863 9.62456 48.103 9.96956 48.433 10.2246C48.643 10.3746 48.883 10.4646 49.138 10.4646H49.153C49.588 10.4796 50.008 10.3446 50.353 10.0746C50.578 9.89456 50.713 9.62456 50.728 9.32456C50.728 9.20456 50.698 9.06956 50.653 8.93456C50.623 8.87456 50.593 8.81456 50.563 8.75456C50.533 8.72456 50.518 8.69456 50.503 8.66456C50.473 8.64956 50.458 8.61956 50.428 8.60456C50.263 8.48456 50.083 8.36456 49.888 8.27456C49.618 8.15456 49.348 8.01956 49.003 7.85456C48.313 7.52456 47.728 7.17956 47.368 6.69956C47.203 6.47456 47.083 6.20456 47.023 5.93456C46.993 5.69456 47.008 5.45456 47.083 5.22956C47.218 4.82456 47.488 4.49456 47.833 4.28456C48.268 4.02956 48.748 3.90956 49.243 3.93956C49.543 3.93956 49.828 3.96956 50.098 4.04456C50.368 4.11956 50.623 4.25456 50.833 4.44956C51.043 4.62956 51.238 4.85456 51.388 5.09456C51.448 5.18456 51.343 5.33456 51.163 5.40956C51.043 5.45456 50.908 5.48456 50.788 5.51456C50.593 5.54456 50.443 5.52956 50.443 5.45456C50.413 5.04956 50.218 4.67456 49.918 4.40456C49.738 4.23956 49.498 4.14956 49.243 4.14956C49.168 4.14956 49.108 4.14956 49.048 4.16456C48.673 4.17956 48.328 4.31456 48.058 4.55456C47.833 4.76456 47.713 5.04956 47.728 5.34956C47.728 5.63456 47.863 5.88956 48.088 6.06956C48.358 6.32456 48.793 6.54956 49.468 6.87956C49.783 7.01456 50.098 7.17956 50.398 7.35956C50.683 7.52456 50.923 7.73456 51.133 7.97456C51.193 8.03456 51.238 8.10956 51.283 8.18456C51.373 8.37956 51.433 8.57456 51.448 8.78456Z" fill="black"/>
</svg>
