<svg width="36" height="11" viewBox="0 0 36 11" fill="none" xmlns="http://www.w3.org/2000/svg">
<path d="M7.23932 7.80956C7.34432 8.78456 6.84932 9.72956 5.96432 10.1796C5.66432 10.3446 5.34932 10.4646 5.01932 10.5396C4.76432 10.5996 4.50932 10.6446 4.25432 10.6596H4.20932C4.16432 10.6596 4.13432 10.6746 4.08932 10.6746C3.99932 10.6746 3.89432 10.6746 3.80432 10.6746C3.39932 10.6896 2.99432 10.6446 2.58932 10.5846C1.82432 10.4346 1.11932 10.0896 0.549316 9.57956C0.504316 9.51956 0.474316 9.42956 0.489316 9.33956C0.489316 9.24956 0.549316 9.17456 0.609316 9.12956C0.714316 9.03956 0.819316 8.97956 0.924316 8.91956C1.10432 8.82956 1.26932 8.82956 1.32932 8.91956C1.65932 9.47456 2.13932 9.90956 2.70932 10.1946C3.05432 10.3746 3.42932 10.4646 3.80432 10.4646C3.81932 10.4646 3.83432 10.4646 3.84932 10.4646C4.23932 10.4646 4.61432 10.4046 4.97432 10.2846C5.27432 10.1946 5.54432 10.0596 5.79932 9.87956C6.18932 9.57956 6.44432 9.14456 6.50432 8.64956C6.53432 8.42456 6.50432 8.18456 6.44432 7.94456C6.39932 7.82456 6.35432 7.70456 6.29432 7.59956C6.26432 7.53956 6.21932 7.47956 6.18932 7.43456C6.14432 7.37456 6.09932 7.32956 6.05432 7.28456C5.78432 7.04456 5.46932 6.84956 5.13932 6.69956C4.73432 6.47456 4.28432 6.26456 3.74432 5.99456C3.23432 5.76956 2.75432 5.49956 2.28932 5.19956C1.88432 4.95956 1.53932 4.64456 1.23932 4.26956C0.984316 3.95456 0.804316 3.59456 0.714316 3.18956C0.654316 2.84456 0.669316 2.49956 0.759316 2.16956C0.939316 1.56956 1.31432 1.05956 1.82432 0.72956C2.36432 0.36956 3.06932 0.15956 3.98432 0.15956C4.40432 0.15956 4.80932 0.21956 5.19932 0.32456C5.57432 0.42956 5.91932 0.60956 6.21932 0.83456C6.53432 1.07456 6.80432 1.35956 7.02932 1.67456C7.07432 1.74956 7.08932 1.83956 7.05932 1.92956C7.02932 2.00456 6.96932 2.06456 6.89432 2.10956C6.77432 2.16956 6.65432 2.21456 6.53432 2.24456C6.33932 2.30456 6.17432 2.27456 6.14432 2.15456C5.94932 1.55456 5.55932 1.04456 5.03432 0.69956C4.71932 0.48956 4.35932 0.38456 3.98432 0.38456C3.09932 0.38456 2.45432 0.63956 2.04932 1.01456C1.67432 1.32956 1.43432 1.79456 1.40432 2.28956C1.37432 2.75456 1.50932 3.20456 1.95932 3.65456C2.22932 3.90956 2.51432 4.13456 2.84432 4.31456C3.21932 4.53956 3.66932 4.76456 4.20932 5.01956C4.47932 5.15456 4.73432 5.27456 4.97432 5.39456C5.09432 5.46956 5.22932 5.52956 5.33432 5.58956L5.64932 5.76956C6.06932 6.00956 6.44432 6.29456 6.77432 6.65456C6.84932 6.74456 6.90932 6.84956 6.96932 6.95456C7.01432 7.04456 7.05932 7.13456 7.10432 7.23956C7.16432 7.41956 7.20932 7.61456 7.23932 7.80956ZM14.2904 8.72456L14.4854 8.78456L14.4554 8.88956C14.4554 8.90456 13.9004 10.5996 11.5304 10.6446H11.4404C11.4404 10.6446 11.3204 10.6446 11.3054 10.6446C11.2454 10.6446 11.1704 10.6296 11.1104 10.6296C10.7954 10.5996 10.4804 10.5246 10.1654 10.4046C9.85037 10.2996 9.55037 10.1346 9.28037 9.93956C8.95037 9.69956 8.68037 9.41456 8.48537 9.06956C7.85537 7.97456 7.85537 6.63956 8.48537 5.54456C8.68037 5.21456 8.95037 4.91456 9.28037 4.67456C9.55037 4.47956 9.85037 4.31456 10.1654 4.20956C10.4804 4.08956 10.7954 4.01456 11.1104 3.98456C11.2154 3.96956 11.3204 3.96956 11.4254 3.96956H11.5304C11.9354 3.98456 12.3404 4.07456 12.7304 4.22456C13.4804 4.50956 14.0654 5.12456 14.3204 5.90456C14.3504 5.96456 14.3654 6.02456 14.3804 6.08456C14.3804 6.09956 14.3804 6.09956 14.3804 6.11456H9.28037C9.16037 6.50456 9.10037 6.90956 9.10037 7.31456C9.10037 7.76456 9.17537 8.21456 9.32537 8.64956C9.43037 8.94956 9.56537 9.21956 9.74537 9.47456C9.89537 9.72956 10.0904 9.93956 10.3304 10.0896C10.6004 10.2846 10.9154 10.3896 11.2304 10.4196C11.2904 10.4196 11.3504 10.4346 11.4254 10.4346H11.4404C13.7204 10.4196 14.2304 8.88956 14.2454 8.82956L14.2904 8.72456ZM9.74537 5.13956C9.58037 5.37956 9.46037 5.63456 9.35537 5.90456H13.3604C13.3304 5.69456 13.2704 5.51456 13.1804 5.33456C13.0304 5.03456 12.8054 4.76456 12.5354 4.56956C12.2204 4.32956 11.8304 4.19456 11.4254 4.17956H11.4104L11.3954 4.19456C11.0054 4.19456 10.6454 4.31456 10.3154 4.52456C10.0904 4.68956 9.89537 4.89956 9.74537 5.13956ZM19.5715 4.50956C19.5715 4.52456 19.5865 4.55456 19.5865 4.56956C19.5865 4.65956 19.5565 4.74956 19.4965 4.82456C19.4065 4.91456 19.3165 5.00456 19.2115 5.07956C19.1515 5.13956 19.0615 5.16956 18.9865 5.19956H18.9715C18.9415 5.19956 18.9115 5.19956 18.8815 5.19956C18.8665 5.18456 18.8515 5.18456 18.8365 5.16956C18.7015 4.98956 18.4915 4.88456 18.2665 4.88456C17.9815 4.89956 17.6965 5.00456 17.4715 5.18456C17.2015 5.39456 17.0065 5.66456 16.8715 5.97956C16.8715 6.03956 16.8715 6.11456 16.8715 6.17456H16.8865V9.57956C16.8865 9.98456 17.0515 10.3746 17.3515 10.6446L17.3815 10.6896H15.2815L15.3265 10.6446C15.6265 10.3746 15.7915 9.98456 15.7915 9.57956V6.17456C15.7915 5.90456 15.7615 5.61956 15.7015 5.33456C15.6715 5.15456 15.6115 4.97456 15.5515 4.79456C15.3865 4.38956 14.9815 4.13456 14.5465 4.14956V3.93956C14.8315 3.93956 15.1165 3.96956 15.3865 4.05956C15.6115 4.11956 15.8365 4.22456 16.0315 4.35956C16.2565 4.52456 16.4515 4.73456 16.5865 4.97456C16.6915 5.16956 16.7665 5.36456 16.8115 5.55956C16.9165 5.33456 17.0365 5.12456 17.1865 4.91456C17.4115 4.58456 17.7415 4.32956 18.1165 4.19456C18.4465 4.07456 18.8065 4.08956 19.1365 4.20956C19.1965 4.22456 19.2565 4.25456 19.3015 4.26956L19.4515 4.35956C19.5115 4.38956 19.5565 4.44956 19.5715 4.50956ZM21.5903 3.93956C21.2903 3.93956 21.0503 3.68456 21.0503 3.38456C21.0503 3.08456 21.2903 2.84456 21.5903 2.84456C21.8903 2.84456 22.1453 3.08456 22.1453 3.38456C22.1453 3.68456 21.8903 3.93956 21.5903 3.93956ZM21.0503 6.17456C21.0503 5.90456 21.0203 5.61956 20.9603 5.33456C20.9303 5.15456 20.8703 4.97456 20.8103 4.79456C20.6453 4.38956 20.2403 4.13456 19.8053 4.14956V3.93956C20.0903 3.93956 20.3753 3.96956 20.6453 4.05956C20.8703 4.11956 21.0953 4.22456 21.2903 4.35956C21.5153 4.52456 21.7103 4.73456 21.8453 4.97456C22.0403 5.34956 22.1453 5.76956 22.1303 6.17456V9.57956C22.1303 9.98456 22.3103 10.3746 22.6103 10.6446L22.6403 10.6746H20.5403L20.5853 10.6446C20.8853 10.3746 21.0503 9.98456 21.0503 9.57956V6.17456ZM29.6126 8.72456L29.8076 8.78456L29.7776 8.88956C29.7776 8.90456 29.2226 10.5996 26.8526 10.6446H26.7626C26.7626 10.6446 26.6426 10.6446 26.6276 10.6446C26.5676 10.6446 26.4926 10.6296 26.4326 10.6296C26.1176 10.5996 25.8026 10.5246 25.4876 10.4046C25.1726 10.2996 24.8726 10.1346 24.6026 9.93956C24.2726 9.69956 24.0026 9.41456 23.8076 9.06956C23.1776 7.97456 23.1776 6.63956 23.8076 5.54456C24.0026 5.21456 24.2726 4.91456 24.6026 4.67456C24.8726 4.47956 25.1726 4.31456 25.4876 4.20956C25.8026 4.08956 26.1176 4.01456 26.4326 3.98456C26.5376 3.96956 26.6426 3.96956 26.7476 3.96956H26.8526C27.2576 3.98456 27.6626 4.07456 28.0526 4.22456C28.8026 4.50956 29.3876 5.12456 29.6426 5.90456C29.6726 5.96456 29.6876 6.02456 29.7026 6.08456C29.7026 6.09956 29.7026 6.09956 29.7026 6.11456H24.6026C24.4826 6.50456 24.4226 6.90956 24.4226 7.31456C24.4226 7.76456 24.4976 8.21456 24.6476 8.64956C24.7526 8.94956 24.8876 9.21956 25.0676 9.47456C25.2176 9.72956 25.4126 9.93956 25.6526 10.0896C25.9226 10.2846 26.2376 10.3896 26.5526 10.4196C26.6126 10.4196 26.6726 10.4346 26.7476 10.4346H26.7626C29.0426 10.4196 29.5526 8.88956 29.5676 8.82956L29.6126 8.72456ZM25.0676 5.13956C24.9026 5.37956 24.7826 5.63456 24.6776 5.90456H28.6826C28.6526 5.69456 28.5926 5.51456 28.5026 5.33456C28.3526 5.03456 28.1276 4.76456 27.8576 4.56956C27.5426 4.32956 27.1526 4.19456 26.7476 4.17956H26.7326L26.7176 4.19456C26.3276 4.19456 25.9676 4.31456 25.6376 4.52456C25.4126 4.68956 25.2176 4.89956 25.0676 5.13956ZM35.0804 8.78456C35.1104 9.02456 35.0654 9.26456 34.9904 9.47456C34.8404 9.87956 34.5554 10.1946 34.1654 10.3746C33.7904 10.5546 33.3704 10.6596 32.9354 10.6746C32.8904 10.6746 32.8304 10.6746 32.7704 10.6746H32.7554C32.4704 10.6746 32.1854 10.6446 31.9154 10.5846C31.3754 10.4646 30.8954 10.1796 30.5204 9.78956C30.4304 9.69956 30.5054 9.53456 30.6704 9.42956C30.7754 9.35456 30.8804 9.29456 31.0004 9.24956C31.1954 9.17456 31.3304 9.14456 31.3604 9.21956C31.4954 9.62456 31.7354 9.96956 32.0654 10.2246C32.2754 10.3746 32.5154 10.4646 32.7704 10.4646H32.7854C33.2204 10.4796 33.6404 10.3446 33.9854 10.0746C34.2104 9.89456 34.3454 9.62456 34.3604 9.32456C34.3604 9.20456 34.3304 9.06956 34.2854 8.93456C34.2554 8.87456 34.2254 8.81456 34.1954 8.75456C34.1654 8.72456 34.1504 8.69456 34.1354 8.66456C34.1054 8.64956 34.0904 8.61956 34.0604 8.60456C33.8954 8.48456 33.7154 8.36456 33.5204 8.27456C33.2504 8.15456 32.9804 8.01956 32.6354 7.85456C31.9454 7.52456 31.3604 7.17956 31.0004 6.69956C30.8354 6.47456 30.7154 6.20456 30.6554 5.93456C30.6254 5.69456 30.6404 5.45456 30.7154 5.22956C30.8504 4.82456 31.1204 4.49456 31.4654 4.28456C31.9004 4.02956 32.3804 3.90956 32.8754 3.93956C33.1754 3.93956 33.4604 3.96956 33.7304 4.04456C34.0004 4.11956 34.2554 4.25456 34.4654 4.44956C34.6754 4.62956 34.8704 4.85456 35.0204 5.09456C35.0804 5.18456 34.9754 5.33456 34.7954 5.40956C34.6754 5.45456 34.5404 5.48456 34.4204 5.51456C34.2254 5.54456 34.0754 5.52956 34.0754 5.45456C34.0454 5.04956 33.8504 4.67456 33.5504 4.40456C33.3704 4.23956 33.1304 4.14956 32.8754 4.14956C32.8004 4.14956 32.7404 4.14956 32.6804 4.16456C32.3054 4.17956 31.9604 4.31456 31.6904 4.55456C31.4654 4.76456 31.3454 5.04956 31.3604 5.34956C31.3604 5.63456 31.4954 5.88956 31.7204 6.06956C31.9904 6.32456 32.4254 6.54956 33.1004 6.87956C33.4154 7.01456 33.7304 7.17956 34.0304 7.35956C34.3154 7.52456 34.5554 7.73456 34.7654 7.97456C34.8254 8.03456 34.8704 8.10956 34.9154 8.18456C35.0054 8.37956 35.0654 8.57456 35.0804 8.78456Z" fill="black"/>
</svg>
