<svg width="31" height="15" viewBox="0 0 31 15" fill="none" xmlns="http://www.w3.org/2000/svg">
<path d="M7.54596 7.80956C7.65096 8.78456 7.15596 9.72956 6.27096 10.1796C5.97096 10.3446 5.65596 10.4646 5.32596 10.5396C5.07096 10.5996 4.81596 10.6446 4.56096 10.6596H4.51596C4.47096 10.6596 4.44096 10.6746 4.39596 10.6746C4.30596 10.6746 4.20096 10.6746 4.11096 10.6746C3.70596 10.6896 3.30096 10.6446 2.89596 10.5846C2.13096 10.4346 1.42596 10.0896 0.855957 9.57956C0.810957 9.51956 0.780957 9.42956 0.795957 9.33956C0.795957 9.24956 0.855957 9.17456 0.915957 9.12956C1.02096 9.03956 1.12596 8.97956 1.23096 8.91956C1.41096 8.82956 1.57596 8.82956 1.63596 8.91956C1.96596 9.47456 2.44596 9.90956 3.01596 10.1946C3.36096 10.3746 3.73596 10.4646 4.11096 10.4646C4.12596 10.4646 4.14096 10.4646 4.15596 10.4646C4.54596 10.4646 4.92096 10.4046 5.28096 10.2846C5.58096 10.1946 5.85096 10.0596 6.10596 9.87956C6.49596 9.57956 6.75096 9.14456 6.81096 8.64956C6.84096 8.42456 6.81096 8.18456 6.75096 7.94456C6.70596 7.82456 6.66096 7.70456 6.60096 7.59956C6.57096 7.53956 6.52596 7.47956 6.49596 7.43456C6.45096 7.37456 6.40596 7.32956 6.36096 7.28456C6.09096 7.04456 5.77596 6.84956 5.44596 6.69956C5.04096 6.47456 4.59096 6.26456 4.05096 5.99456C3.54096 5.76956 3.06096 5.49956 2.59596 5.19956C2.19096 4.95956 1.84596 4.64456 1.54596 4.26956C1.29096 3.95456 1.11096 3.59456 1.02096 3.18956C0.960957 2.84456 0.975957 2.49956 1.06596 2.16956C1.24596 1.56956 1.62096 1.05956 2.13096 0.72956C2.67096 0.36956 3.37596 0.15956 4.29096 0.15956C4.71096 0.15956 5.11596 0.21956 5.50596 0.32456C5.88096 0.42956 6.22596 0.60956 6.52596 0.83456C6.84096 1.07456 7.11096 1.35956 7.33596 1.67456C7.38096 1.74956 7.39596 1.83956 7.36596 1.92956C7.33596 2.00456 7.27596 2.06456 7.20096 2.10956C7.08096 2.16956 6.96096 2.21456 6.84096 2.24456C6.64596 2.30456 6.48096 2.27456 6.45096 2.15456C6.25596 1.55456 5.86596 1.04456 5.34096 0.69956C5.02596 0.48956 4.66596 0.38456 4.29096 0.38456C3.40596 0.38456 2.76096 0.63956 2.35596 1.01456C1.98096 1.32956 1.74096 1.79456 1.71096 2.28956C1.68096 2.75456 1.81596 3.20456 2.26596 3.65456C2.53596 3.90956 2.82096 4.13456 3.15096 4.31456C3.52596 4.53956 3.97596 4.76456 4.51596 5.01956C4.78596 5.15456 5.04096 5.27456 5.28096 5.39456C5.40096 5.46956 5.53596 5.52956 5.64096 5.58956L5.95596 5.76956C6.37596 6.00956 6.75096 6.29456 7.08096 6.65456C7.15596 6.74456 7.21596 6.84956 7.27596 6.95456C7.32096 7.04456 7.36596 7.13456 7.41096 7.23956C7.47096 7.41956 7.51596 7.61456 7.54596 7.80956ZM14.942 10.6446L14.987 10.6746H12.872L12.917 10.6446C13.217 10.3746 13.382 9.98456 13.382 9.57956V6.50456C13.382 5.24456 13.037 4.28456 12.182 4.28456C11.612 4.29956 11.072 4.52456 10.652 4.91456C10.367 5.18456 10.097 5.49956 9.88701 5.82956V9.57956C9.88701 9.98456 10.052 10.3746 10.352 10.6446L10.397 10.6896H8.29701L8.32701 10.6446C8.62701 10.3746 8.79201 9.98456 8.79201 9.57956V2.40956C8.79201 1.98956 8.89701 1.58456 9.09201 1.20956C9.22701 0.954561 9.42201 0.74456 9.64701 0.59456C9.84201 0.45956 10.067 0.35456 10.292 0.27956C10.562 0.20456 10.847 0.15956 11.132 0.15956V0.38456C10.697 0.35456 10.292 0.62456 10.127 1.02956C10.067 1.19456 10.007 1.37456 9.97701 1.56956C9.91701 1.83956 9.88701 2.12456 9.88701 2.40956V5.45456C10.457 4.68956 11.357 3.93956 12.347 3.93956C12.512 3.92456 12.677 3.93956 12.842 3.96956C12.992 3.99956 13.127 4.02956 13.262 4.08956C13.487 4.20956 13.697 4.35956 13.862 4.55456C14.207 4.94456 14.462 5.51456 14.477 6.51956V9.57956C14.477 9.98456 14.642 10.3746 14.942 10.6446ZM22.0555 5.54456C22.6855 6.63956 22.6855 7.97456 22.0555 9.06956C21.8605 9.42956 21.5905 9.72956 21.2605 9.95456C20.9905 10.1646 20.6905 10.3296 20.3605 10.4346C20.0605 10.5546 19.7455 10.6296 19.4155 10.6596C19.3105 10.6746 19.2205 10.6746 19.1155 10.6746H19.1005C18.9955 10.6746 18.8905 10.6746 18.8005 10.6596C18.4705 10.6296 18.1555 10.5546 17.8555 10.4346C17.5255 10.3296 17.2255 10.1646 16.9555 9.95456C16.6255 9.72956 16.3555 9.42956 16.1455 9.06956C15.5305 7.97456 15.5305 6.63956 16.1455 5.54456C16.3555 5.19956 16.6255 4.88456 16.9555 4.65956C17.2255 4.44956 17.5255 4.28456 17.8555 4.17956C18.1555 4.05956 18.4705 3.98456 18.8005 3.95456C18.8905 3.93956 18.9955 3.93956 19.1005 3.93956C19.2055 3.93956 19.3105 3.93956 19.4155 3.95456C19.7455 3.98456 20.0605 4.05956 20.3605 4.17956C20.6905 4.28456 20.9905 4.44956 21.2605 4.65956C21.5905 4.88456 21.8605 5.19956 22.0555 5.54456ZM21.2005 8.66456C21.5155 7.77956 21.5155 6.83456 21.2005 5.94956C21.1105 5.64956 20.9605 5.37956 20.7955 5.10956C20.6455 4.86956 20.4355 4.65956 20.2105 4.49456C19.8805 4.26956 19.5055 4.14956 19.1005 4.14956H19.0855C18.6955 4.14956 18.3205 4.26956 18.0055 4.49456C17.7655 4.65956 17.5705 4.86956 17.4205 5.10956C17.2405 5.37956 17.1055 5.64956 17.0155 5.94956C16.7005 6.83456 16.7005 7.77956 17.0155 8.66456C17.1055 8.96456 17.2405 9.24956 17.4205 9.50456C17.5705 9.74456 17.7655 9.96956 18.0055 10.1346C18.3355 10.3446 18.7105 10.4646 19.1005 10.4646H19.1155H19.1305C19.5205 10.4646 19.8955 10.3446 20.2105 10.1196C20.4505 9.95456 20.6455 9.74456 20.7955 9.50456C20.9605 9.23456 21.1105 8.96456 21.2005 8.66456ZM30.1172 5.54456C30.7322 6.63956 30.7322 7.97456 30.1172 9.06956C29.9222 9.41456 29.6522 9.71456 29.3222 9.95456C29.0522 10.1496 28.7522 10.3146 28.4372 10.4346C28.1372 10.5546 27.8222 10.6296 27.5072 10.6596C27.4022 10.6746 27.2972 10.6746 27.1922 10.6746C26.2772 10.6596 25.4372 10.2096 24.9122 9.45956V13.3446C24.9122 13.7496 25.0922 14.1396 25.3772 14.4096L25.4222 14.4546H23.3222L23.3672 14.4096C23.6672 14.1396 23.8322 13.7496 23.8322 13.3446V6.17456C23.8322 5.90456 23.8022 5.61956 23.7422 5.33456C23.7122 5.15456 23.6522 4.97456 23.5922 4.79456C23.4272 4.38956 23.0222 4.13456 22.5872 4.14956V3.93956C22.8722 3.93956 23.1572 3.96956 23.4272 4.05956C23.6522 4.11956 23.8772 4.22456 24.0722 4.35956C24.2972 4.52456 24.4922 4.73456 24.6272 4.97456C24.6872 5.09456 24.7472 5.21456 24.7922 5.34956C25.3322 4.49456 26.2022 3.93956 27.1922 3.93956C27.2972 3.93956 27.4172 3.93956 27.5222 3.95456C27.8372 3.99956 28.1522 4.07456 28.4522 4.17956C28.7672 4.29956 29.0672 4.46456 29.3372 4.65956C29.6522 4.89956 29.9222 5.19956 30.1172 5.54456ZM29.2622 8.66456C29.5622 7.77956 29.5622 6.83456 29.2622 5.94956C29.1572 5.66456 29.0222 5.37956 28.8572 5.10956C28.7072 4.86956 28.5122 4.65956 28.2722 4.49456C27.9572 4.26956 27.5822 4.14956 27.1922 4.14956C26.2172 4.14956 25.3472 4.74956 24.8672 5.64956C24.8972 5.82956 24.9122 5.99456 24.9122 6.17456V9.06956C25.4072 9.90956 26.2472 10.4646 27.1922 10.4646C27.5822 10.4646 27.9572 10.3446 28.2722 10.1196C28.5122 9.95456 28.7072 9.74456 28.8572 9.50456C29.0222 9.23456 29.1572 8.94956 29.2622 8.66456Z" fill="black"/>
</svg>
