<svg width="535" height="169" viewBox="0 0 535 169" fill="none" xmlns="http://www.w3.org/2000/svg">
<path d="M-0.00878906 6.89453L1.3623 2.11328H2.66309L1.69629 6.89453H-0.00878906ZM3.33105 6.89453L4.70215 2.11328H6.00293L5.03613 6.89453H3.33105ZM20.4697 1.26953V1.88477C20.4697 2.78125 20.4697 4.3457 20.0127 6.41992L18.6768 6.24414C19.0371 4.5127 19.0986 3.28223 19.1162 2.41211H15.1611V1.26953H20.4697ZM22.0869 7.36914V8.51172H7.86621V7.36914H14.5986V4.66211H15.9697V7.36914H22.0869ZM13.8604 1.26953V1.84961C13.8604 2.72852 13.8604 4.31055 13.1396 6.41992L11.7861 6.19141C12.3662 4.47754 12.4805 3.26465 12.5068 2.41211H9.09668V1.26953H13.8604ZM20.2061 10.6738V11.7812H15.6533C15.8379 13.4248 18.2725 14.8047 20.8564 15.1387L20.3467 16.1934C18.0264 15.8506 15.873 14.7783 14.9502 13.2227C14.0273 14.7695 11.8828 15.8506 9.57129 16.1934L9.0791 15.1387C11.6279 14.8047 14.0449 13.4248 14.2471 11.7812H9.69434V10.6738H14.2646V9.05664H15.6357V10.6738H20.2061ZM37.6436 8.89844V10.0234H23.4053V8.89844H37.6436ZM36.0615 14.7871V15.9473H25.251V11.3945H26.6396V14.7871H36.0615ZM30.5244 1.2168C33.8818 1.19922 36.0439 2.35938 36.0439 4.31055C36.0439 6.26172 33.8818 7.42188 30.5244 7.42188C27.1318 7.42188 24.9873 6.26172 24.9873 4.31055C24.9873 2.35938 27.1318 1.19922 30.5244 1.2168ZM30.5244 2.32422C28.0107 2.32422 26.3936 3.08008 26.4111 4.31055C26.3936 5.54102 28.0107 6.29688 30.5244 6.29688C33.0205 6.29688 34.6377 5.54102 34.6377 4.31055C34.6377 3.08008 33.0205 2.32422 30.5244 2.32422ZM58.1045 6.89453V8.05469H55.5732V16.2812H54.2021V0.654297H55.5732V6.89453H58.1045ZM45.501 2.20117V11.1484C47.7861 11.1396 50.1152 10.9639 52.6904 10.4277L52.8662 11.6055C50.1768 12.1504 47.751 12.3086 45.3779 12.3086H44.1299V2.20117H45.501ZM68.8447 5.45312C68.8271 7.9668 70.6377 10.7266 72.9053 11.7988L72.1143 12.8887C70.3564 12.0361 68.8711 10.1729 68.1768 8.05469C67.4561 10.3574 65.8828 12.3789 64.1338 13.2754L63.29 12.1855C65.54 11.0957 67.4736 8.125 67.4912 5.45312V3.41406H63.8525V2.27148H72.3604V3.41406H68.8447V5.45312ZM75.6475 0.654297V6.98242H78.2666V8.16016H75.6475V16.2812H74.2764V0.654297H75.6475ZM92.0127 0.671875V12.1328H90.6416V0.671875H92.0127ZM92.5049 14.7871V15.9473H81.9229V11.0781H83.2939V14.7871H92.5049ZM84.6475 3.11523C84.6299 5.48828 86.2646 7.63281 88.585 8.47656L87.8643 9.58398C86.0537 8.88965 84.6475 7.4834 83.9619 5.68164C83.2676 7.59766 81.8438 9.13574 80.0244 9.86523L79.2686 8.79297C81.6416 7.87891 83.2412 5.57617 83.2412 3.11523V1.55078H84.6475V3.11523ZM107.552 0.654297V16.3164H106.163V0.654297H107.552ZM99.2373 1.86719C101.558 1.88477 103.228 3.99414 103.228 7.31641C103.228 10.6387 101.558 12.748 99.2373 12.748C96.8994 12.748 95.2471 10.6387 95.2471 7.31641C95.2471 3.99414 96.8994 1.88477 99.2373 1.86719ZM99.2373 3.09766C97.6729 3.11523 96.583 4.76758 96.583 7.31641C96.583 9.86523 97.6729 11.5176 99.2373 11.5176C100.802 11.5176 101.892 9.86523 101.892 7.31641C101.892 4.76758 100.802 3.11523 99.2373 3.09766ZM122.317 0.654297V6.8418H124.937V8.00195H122.317V16.3164H120.946V0.654297H122.317ZM118.204 2.18359V3.32617H112.28V11.2363C115.11 11.2363 117.114 11.1045 119.435 10.6738L119.61 11.8691C117.167 12.3086 115.11 12.3965 112.14 12.3965H110.909V2.18359H118.204ZM127.433 14.9629C126.817 14.9629 126.29 14.4531 126.308 13.8203C126.29 13.2051 126.817 12.6953 127.433 12.6953C128.048 12.6953 128.558 13.2051 128.558 13.8203C128.558 14.4531 128.048 14.9629 127.433 14.9629ZM18.7646 43.1172V44.2773H4.45605V43.1172H10.9072V39.3203H12.2959V43.1172H18.7646ZM12.2959 33.625C12.2959 36.1211 15.3896 38.2656 18.0791 38.7051L17.5166 39.7949C15.126 39.3291 12.6035 37.8086 11.6104 35.6289C10.5996 37.8174 8.08594 39.373 5.73926 39.8652L5.15918 38.7578C7.7959 38.3008 10.8721 36.1211 10.8721 33.625V33.2383H5.63379V32.0781H17.5342V33.2383H12.2959V33.625ZM32.9678 30.6543V39.918H31.5791V37.457H27.9229V38.793H20.751V31.8496H27.9229V33.2031H31.5791V30.6543H32.9678ZM22.1221 32.9746V37.668H26.5693V32.9746H22.1221ZM27.7822 40.375C31.0342 40.375 33.0205 41.4473 33.0205 43.3281C33.0205 45.1914 31.0342 46.2461 27.7822 46.2461C24.5303 46.2461 22.5439 45.1914 22.5439 43.3281C22.5439 41.4473 24.5303 40.375 27.7822 40.375ZM27.7822 41.4473C25.3916 41.4648 23.8975 42.1504 23.915 43.3281C23.8975 44.4531 25.3916 45.1562 27.7822 45.1562C30.1729 45.1562 31.6494 44.4531 31.6494 43.3281C31.6494 42.1504 30.1729 41.4648 27.7822 41.4473ZM27.9229 36.2969H31.5791V34.3457H27.9229V36.2969ZM48.4541 30.6543V46.3164H47.0654V30.6543H48.4541ZM40.1396 31.8672C42.46 31.8848 44.1299 33.9941 44.1299 37.3164C44.1299 40.6387 42.46 42.748 40.1396 42.748C37.8018 42.748 36.1494 40.6387 36.1494 37.3164C36.1494 33.9941 37.8018 31.8848 40.1396 31.8672ZM40.1396 33.0977C38.5752 33.1152 37.4854 34.7676 37.4854 37.3164C37.4854 39.8652 38.5752 41.5176 40.1396 41.5176C41.7041 41.5176 42.7939 39.8652 42.7939 37.3164C42.7939 34.7676 41.7041 33.1152 40.1396 33.0977ZM68.5283 30.6543V46.3164H67.1396V30.6543H68.5283ZM57.9287 31.9902V36.1211H62.5869V31.9902H63.9404V42.5371H56.5576V31.9902H57.9287ZM57.9287 41.377H62.5869V37.2285H57.9287V41.377ZM76.9658 33.5547C76.9658 35.1191 78.5303 36.4727 80.7275 36.9473L80.1299 38.0371C78.3457 37.5889 76.957 36.6221 76.2979 35.3301C75.6387 36.7363 74.2236 37.7822 72.3779 38.248L71.7803 37.1934C73.9775 36.6836 75.542 35.2246 75.542 33.5547V33.502H72.1143V32.3945H75.5771V30.707H76.9482V32.3945H80.376V33.502H76.9658V33.5547ZM84.1377 30.6719V46.2988H82.7314V42.6777H79.1279V41.5703H82.7314V30.6719H84.1377ZM71.1299 39.2676C74.1006 39.2852 78.0557 39.25 81.501 38.7578L81.5889 39.8125C80.042 40.0762 78.4512 40.2344 76.8955 40.3223V45.8066H75.5068V40.3926C74.0127 40.4453 72.5801 40.4541 71.3232 40.4453L71.1299 39.2676ZM99.6416 30.6543V38.7754H98.2881V30.6543H99.6416ZM99.6592 39.5312V43.2578H90.8877V44.998H100.222V46.1055H89.5342V42.2207H98.2881V40.6211H89.499V39.5312H99.6592ZM92.3818 32.8691C92.3818 34.9082 94.0518 36.6836 96.4072 37.3867L95.7217 38.459C93.876 37.8789 92.4082 36.6396 91.7139 35.0312C91.0371 36.7891 89.543 38.1602 87.6357 38.793L86.9854 37.7031C89.3232 36.9297 90.9932 35.0137 90.9932 32.8691V32.6934H87.3369V31.5508H95.9854V32.6934H92.3818V32.8691ZM117.185 31.0059V37.0527H119.083V30.6543H120.401V46.2812H119.083V38.1953H117.185V45.5078H115.901V31.0059H117.185ZM110.698 32.6406V33.7832H108.589V41.0254C109.178 41.0078 109.951 40.9375 110.804 40.7266L110.927 41.9043C109.608 42.2031 108.589 42.2031 107.921 42.2031H107.306V32.6406H110.698ZM114.847 32.6406V33.7832H112.632V41.0254C113.361 41.0166 114.231 40.9463 115.181 40.6738L115.304 41.8516C114.003 42.2031 112.931 42.2031 112.017 42.2031H111.384V32.6406H114.847ZM139.79 30.6543V46.3164H138.401V30.6543H139.79ZM129.19 31.9902V36.1211H133.849V31.9902H135.202V42.5371H127.819V31.9902H129.19ZM129.19 41.377H133.849V37.2285H129.19V41.377ZM156.771 43.1875V44.3477H142.462V43.1875H148.896V40.2344H144.255V35.418H153.606V32.957H144.22V31.8145H154.96V36.543H145.626V39.0918H155.329V40.2344H150.249V43.1875H156.771ZM172.327 43.0996V44.2422H158.019V43.0996H164.417V39.2676H165.771V43.0996H172.327ZM165.806 32.9219C165.806 35.541 168.899 37.8262 171.624 38.3008L171.009 39.4434C168.627 38.96 166.113 37.3428 165.103 35.084C164.074 37.334 161.578 38.96 159.196 39.4434L158.581 38.3008C161.306 37.8262 164.364 35.541 164.364 32.9219V31.7266H165.806V32.9219ZM190.415 32.3242V33.8887C190.415 35.8574 190.415 38.0898 189.835 41.4824L188.429 41.3418C189.062 38.1426 189.062 35.8047 189.062 33.8887V33.4668H179.64V32.3242H190.415ZM192.331 42.8359V43.9785H178.093V42.8359H192.331ZM202.351 31.8672C204.653 31.8848 206.288 33.9941 206.306 37.3164C206.288 40.6387 204.653 42.748 202.351 42.748C200.03 42.748 198.413 40.6387 198.413 37.3164C198.413 33.9941 200.03 31.8848 202.351 31.8672ZM202.351 33.0977C200.804 33.1152 199.714 34.7676 199.714 37.3164C199.714 39.8652 200.804 41.5176 202.351 41.5176C203.915 41.5176 204.97 39.8652 204.97 37.3164C204.97 34.7676 203.915 33.1152 202.351 33.0977ZM210.261 30.6543V36.8945H212.88V38.0898H210.261V46.2812H208.89V30.6543H210.261ZM228.015 38.7227V39.8652H213.706V38.7227H228.015ZM226.169 31.041V34.7324H216.94V36.2969H226.503V37.3691H215.569V33.6953H224.78V32.1484H215.517V31.041H226.169ZM226.169 41.2891V46.0703H215.657V41.2891H226.169ZM217.011 42.4141V44.9453H224.815V42.4141H217.011ZM241.374 30.6543V36.8418H243.993V38.002H241.374V46.3164H240.003V30.6543H241.374ZM237.261 32.1836V33.3262H231.337V41.2363C234.167 41.2363 236.171 41.1045 238.491 40.6738L238.667 41.8691C236.224 42.3086 234.167 42.3965 231.196 42.3965H229.966V32.1836H237.261ZM251.956 30.9531C255.349 30.9531 257.476 32.043 257.476 33.9062C257.476 35.7344 255.349 36.8066 251.956 36.8066C248.563 36.8066 246.419 35.7344 246.419 33.9062C246.419 32.043 248.563 30.9531 251.956 30.9531ZM251.956 32.043C249.425 32.043 247.825 32.7285 247.843 33.9062C247.825 35.0488 249.425 35.7168 251.956 35.7168C254.452 35.7168 256.069 35.0488 256.069 33.9062C256.069 32.7285 254.452 32.043 251.956 32.043ZM257.335 40.9375V46.0703H246.577V40.9375H251.271V39.1445H244.837V38.002H259.075V39.1445H252.624V40.9375H257.335ZM247.948 42.0449V44.9453H255.981V42.0449H247.948ZM273.278 30.6543V46.3164H271.89V30.6543H273.278ZM264.964 31.8672C267.284 31.8848 268.954 33.9941 268.954 37.3164C268.954 40.6387 267.284 42.748 264.964 42.748C262.626 42.748 260.974 40.6387 260.974 37.3164C260.974 33.9941 262.626 31.8848 264.964 31.8672ZM264.964 33.0977C263.399 33.1152 262.31 34.7676 262.31 37.3164C262.31 39.8652 263.399 41.5176 264.964 41.5176C266.528 41.5176 267.618 39.8652 267.618 37.3164C267.618 34.7676 266.528 33.1152 264.964 33.0977ZM293.089 38.1777V39.3203H282.296V32.1133H292.931V33.2559H283.667V38.1777H293.089ZM294.776 42.9941V44.1543H280.468V42.9941H294.776ZM308.962 30.6543V46.3164H307.591V37.8262H304.55V36.666H307.591V30.6543H308.962ZM303.601 32.1133V37.5801H297.993V41.377C300.683 41.377 302.634 41.2979 304.919 40.8672L305.024 42.0273C302.669 42.4492 300.647 42.5371 297.817 42.5547H296.622V36.4375H302.265V33.2559H296.569V32.1133H303.601ZM326.206 36.8945V38.0547H323.675V46.2812H322.304V30.6543H323.675V36.8945H326.206ZM313.603 32.2012V41.1484C315.888 41.1396 318.217 40.9639 320.792 40.4277L320.968 41.6055C318.278 42.1504 315.853 42.3086 313.479 42.3086H312.231V32.2012H313.603ZM332.728 35.4531C332.728 38.1074 334.661 40.7969 336.964 41.7988L336.19 42.8887C334.362 42.0537 332.78 40.252 332.06 38.0898C331.321 40.3838 329.748 42.3789 327.964 43.2754L327.138 42.1855C329.37 41.1133 331.321 38.1602 331.339 35.4531V33.4141H327.647V32.2715H336.454V33.4141H332.728V35.4531ZM340.022 30.6543V46.2812H338.634V30.6543H340.022ZM350.587 32.0781V39.2676H343.362V32.0781H350.587ZM344.716 33.2031V38.1602H349.251V33.2031H344.716ZM354.911 30.6543V35.418H357.267V36.5781H354.911V42.1152H353.54V30.6543H354.911ZM355.632 44.7871V45.9473H345.138V41.0254H346.491V44.7871H355.632ZM360.817 43.6797L359.446 48.4609H358.146L359.112 43.6797H360.817ZM381.63 38.3887V39.4961H367.374V38.3887H373.825V36.5605H369.185V31.3926H379.854V32.5H370.538V35.4355H379.96V36.5605H375.161V38.3887H381.63ZM374.493 40.6387C377.851 40.6387 379.854 41.6582 379.872 43.4512C379.854 45.2617 377.851 46.2637 374.493 46.2812C371.118 46.2637 369.097 45.2617 369.097 43.4512C369.097 41.6582 371.118 40.6387 374.493 40.6387ZM374.493 41.7285C371.979 41.7285 370.485 42.3789 370.503 43.4512C370.485 44.541 371.979 45.1738 374.493 45.1738C376.972 45.1738 378.483 44.541 378.483 43.4512C378.483 42.3789 376.972 41.7285 374.493 41.7285ZM388.485 34.8555C388.468 37.7031 390.419 40.5859 392.722 41.623L391.878 42.7129C390.103 41.8428 388.564 40.0059 387.817 37.7734C387.088 40.1377 385.55 42.1064 383.722 43.0293L382.843 41.8691C385.163 40.7969 387.097 37.8262 387.114 34.8555V32.0078H388.485V34.8555ZM395.815 30.6543V46.3164H394.427V30.6543H395.815ZM411.882 30.6543V46.2812H410.546V30.6543H411.882ZM408.735 30.9883V45.4902H407.417V37.8965H405.413C405.264 40.9375 403.972 42.8359 402.038 42.8359C399.999 42.8359 398.681 40.7266 398.681 37.4043C398.681 34.082 399.999 31.9727 402.038 31.9727C403.937 31.9727 405.22 33.8096 405.396 36.7539H407.417V30.9883H408.735ZM402.038 33.2734C400.772 33.2734 399.964 34.8555 399.981 37.4043C399.964 39.9355 400.772 41.5352 402.038 41.5176C403.304 41.5352 404.112 39.9355 404.112 37.4043C404.112 34.8555 403.304 33.2734 402.038 33.2734ZM430.884 32.3242V33.8887C430.884 35.8574 430.884 38.0898 430.304 41.4824L428.897 41.3418C429.53 38.1426 429.53 35.8047 429.53 33.8887V33.4668H420.108V32.3242H430.884ZM432.8 42.8359V43.9785H418.562V42.8359H432.8ZM447.021 30.6719V39.9355H445.649V30.6719H447.021ZM442.046 31.6211V35.8574H436.28V38.0195C439.075 38.0371 441.167 37.9492 443.698 37.5273L443.856 38.6875C441.237 39.0918 439.093 39.1797 436.21 39.1797H434.944V34.7676H440.675V32.7285H434.909V31.6211H442.046ZM447.021 40.7793V46.0703H436.86V40.7793H447.021ZM438.214 41.9043V44.9453H445.667V41.9043H438.214ZM454.966 35.4531C454.948 37.9668 456.759 40.7266 459.026 41.7988L458.235 42.8887C456.478 42.0361 454.992 40.1729 454.298 38.0547C453.577 40.3574 452.004 42.3789 450.255 43.2754L449.411 42.1855C451.661 41.0957 453.595 38.125 453.612 35.4531V33.4141H449.974V32.2715H458.481V33.4141H454.966V35.4531ZM461.769 30.6543V36.9824H464.388V38.1602H461.769V46.2812H460.397V30.6543H461.769ZM477.853 37.9844V39.1094H473.019V43.1523H479.54V44.3125H465.231V43.1523H471.665V39.1094H467.06V31.9375H477.694V33.0625H468.448V37.9844H477.853ZM489.964 33.7656C489.964 35.4883 491.177 37.2461 493.181 38.002L492.46 39.0566C490.957 38.4766 489.876 37.3604 489.313 36.0156C488.733 37.5098 487.617 38.8369 486.079 39.4961L485.323 38.4238C487.38 37.5273 488.646 35.5059 488.646 33.7656V31.6387H489.964V33.7656ZM498.577 30.6719V40.3223H497.259V36.0156H495.185V39.8301H493.884V30.9707H495.185V34.873H497.259V30.6719H498.577ZM493.409 40.6738C496.644 40.6738 498.665 41.6934 498.665 43.4688C498.665 45.2266 496.644 46.2461 493.409 46.2461C490.157 46.2461 488.153 45.2266 488.171 43.4688C488.153 41.6934 490.157 40.6738 493.409 40.6738ZM493.409 41.7285C491.019 41.7285 489.524 42.3789 489.542 43.4688C489.524 44.541 491.019 45.1738 493.409 45.1738C495.782 45.1738 497.276 44.541 497.294 43.4688C497.276 42.3789 495.782 41.7285 493.409 41.7285ZM513.747 30.6719V42.0273H512.358V30.6719H513.747ZM509.212 31.8496C509.194 35.8926 506.276 38.8984 501.688 40.3223L501.126 39.1973C504.914 38.0459 507.384 35.8047 507.683 33.0098H501.952V31.8496H509.212ZM514.169 44.7871V45.9473H503.569V41.0957H504.958V44.7871H514.169ZM528.513 30.6543V36.8418H531.132V38.002H528.513V46.3164H527.142V30.6543H528.513ZM524.399 32.1836V33.3262H518.476V41.2363C521.306 41.2363 523.31 41.1045 525.63 40.6738L525.806 41.8691C523.362 42.3086 521.306 42.3965 518.335 42.3965H517.104V32.1836H524.399ZM533.628 44.9629C533.013 44.9629 532.485 44.4531 532.503 43.8203C532.485 43.2051 533.013 42.6953 533.628 42.6953C534.243 42.6953 534.753 43.2051 534.753 43.8203C534.753 44.4531 534.243 44.9629 533.628 44.9629ZM16.7783 62.3242V63.8887C16.7783 65.8574 16.7783 68.0898 16.1982 71.4824L14.792 71.3418C15.4248 68.1426 15.4248 65.8047 15.4248 63.8887V63.4668H6.00293V62.3242H16.7783ZM18.6943 72.8359V73.9785H4.45605V72.8359H18.6943ZM32.915 60.6719V69.9355H31.5439V60.6719H32.915ZM27.9404 61.6211V65.8574H22.1748V68.0195C24.9697 68.0371 27.0615 67.9492 29.5928 67.5273L29.751 68.6875C27.1318 69.0918 24.9873 69.1797 22.1045 69.1797H20.8389V64.7676H26.5693V62.7285H20.8037V61.6211H27.9404ZM32.915 70.7793V76.0703H22.7549V70.7793H32.915ZM24.1084 71.9043V74.9453H31.5615V71.9043H24.1084ZM40.8604 65.4531C40.8428 67.9668 42.6533 70.7266 44.9209 71.7988L44.1299 72.8887C42.3721 72.0361 40.8867 70.1729 40.1924 68.0547C39.4717 70.3574 37.8984 72.3789 36.1494 73.2754L35.3057 72.1855C37.5557 71.0957 39.4893 68.125 39.5068 65.4531V63.4141H35.8682V62.2715H44.376V63.4141H40.8604V65.4531ZM47.6631 60.6543V66.9824H50.2822V68.1602H47.6631V76.2812H46.292V60.6543H47.6631ZM63.7646 65.4004V66.5078H53.0596V61.2344H54.4307V65.4004H63.7646ZM65.417 68.6348V69.7598H51.1084V68.6348H65.417ZM63.8525 74.752V75.8945H52.9717V71.3594H54.3428V74.752H63.8525ZM84.542 60.6543V76.2812H83.1885V68.1953H80.9385V75.4727H79.6377V61.0059H80.9385V67.0176H83.1885V60.6543H84.542ZM73.3623 62.5703V71.0078C74.918 70.9902 76.5703 70.8848 78.4775 70.498L78.6533 71.7285C76.4736 72.1152 74.6807 72.2383 72.958 72.2383H71.9912V62.5703H73.3623ZM98.8506 60.6543V67.0176H101.382V68.1777H98.8506V76.2812H97.4795V60.6543H98.8506ZM94.8076 62.3418C94.8076 66.7715 92.7334 70.7969 87.6357 73.3105L86.8623 72.2207C90.9053 70.208 93.1025 67.2021 93.4189 63.502H87.583V62.3418H94.8076ZM111.946 61.6738C114.407 61.6914 116.147 63.168 116.147 65.3477C116.147 67.3164 114.724 68.7139 112.632 68.9512V71.623C114.179 71.5439 115.752 71.4121 117.237 71.1836L117.343 72.2031C113.774 72.8711 109.925 72.8887 107.112 72.8887L106.919 71.7285C108.193 71.7285 109.679 71.7285 111.243 71.6758V68.9512C109.151 68.7051 107.71 67.3164 107.728 65.3477C107.71 63.168 109.485 61.6914 111.946 61.6738ZM111.946 62.8867C110.276 62.8867 109.063 63.8887 109.081 65.3477C109.063 66.8066 110.276 67.8262 111.946 67.8086C113.599 67.8262 114.794 66.8066 114.794 65.3477C114.794 63.8887 113.599 62.8867 111.946 62.8867ZM119.646 60.6543V76.3164H118.274V60.6543H119.646ZM130.298 62.0254V63.4141H133.954V60.6719H135.343V72.0801H133.954V67.9141H130.298V69.3203H123.126V62.0254H130.298ZM124.497 63.168V68.2129H128.944V63.168H124.497ZM135.694 74.7871V75.9473H125.235V71.0605H126.624V74.7871H135.694ZM130.298 66.7715H133.954V64.5742H130.298V66.7715ZM150.038 60.6543V67.1055H152.657V68.248H150.038V76.2812H148.667V60.6543H150.038ZM147.155 63.168V64.3105H137.856V63.168H141.882V60.8477H143.253V63.168H147.155ZM142.585 65.6113C144.8 65.6113 146.399 67.0879 146.417 69.1973C146.399 71.3066 144.8 72.7832 142.585 72.7832C140.353 72.7832 138.735 71.3066 138.753 69.1973C138.735 67.0879 140.353 65.6113 142.585 65.6113ZM142.585 66.7715C141.126 66.7715 140.054 67.791 140.071 69.1973C140.054 70.6211 141.126 71.623 142.585 71.6055C144.026 71.623 145.081 70.6211 145.099 69.1973C145.081 67.791 144.026 66.7715 142.585 66.7715ZM166.034 62.2363V63.8008C166.017 65.7168 166.017 67.8613 165.454 71.0078L164.048 70.8496C164.646 67.8613 164.646 65.6641 164.646 63.8008V63.3789H155.013V62.2363H166.034ZM167.739 72.9238V74.0664H153.501V72.9238H159.091V67.334H160.444V72.9238H167.739ZM186.478 60.6719V69.3555H185.106V60.6719H186.478ZM179.112 62.7812C179.095 64.9434 180.782 66.8945 183.103 67.6504L182.435 68.7402C180.589 68.1162 179.13 66.8154 178.427 65.1191C177.724 66.9385 176.247 68.3623 174.384 69.0215L173.681 67.9316C176.036 67.1055 177.706 65.0488 177.706 62.7812V61.252H179.112V62.7812ZM186.583 70.2871V71.4121H184.421V74.9453H186.741V76.0703H175.931V74.9453H178.269V71.4121H176.071V70.2871H186.583ZM179.622 74.9453H183.05V71.4121H179.622V74.9453ZM194.511 71.1309C194.511 72.5283 195.249 74.0049 196.743 74.8574C198.237 73.9258 199.011 72.335 199.011 71.1309V70.1816H200.364V71.1309C200.364 72.748 201.524 74.3652 203.563 75.0508L202.843 76.0879C201.287 75.5254 200.197 74.4268 199.679 73.0996C199.178 74.3828 198.22 75.5869 196.761 76.2109C195.258 75.6396 194.3 74.4795 193.825 73.1699C193.263 74.4268 192.19 75.5166 190.696 76.0879L190.011 75.0508C191.997 74.3301 193.175 72.6426 193.192 71.1309V70.1816H194.511V71.1309ZM193.438 61.5508C195.495 61.5508 197.104 62.7812 197.411 64.5918H200.698V60.6543H202.087V69.584H200.698V65.7344H197.429C197.156 67.6064 195.53 68.8633 193.438 68.8633C191.101 68.8633 189.396 67.3691 189.396 65.207C189.396 63.0625 191.101 61.5508 193.438 61.5508ZM193.438 62.7285C191.874 62.7109 190.714 63.748 190.731 65.207C190.714 66.6484 191.874 67.7031 193.438 67.7207C194.968 67.7031 196.128 66.6484 196.128 65.207C196.128 63.748 194.968 62.7109 193.438 62.7285ZM212.792 61.9727V63.1152H206.956V68.6348C209.76 68.6348 211.57 68.5381 213.671 68.125L213.847 69.2676C211.614 69.6543 209.716 69.7773 206.78 69.7773H205.603V61.9727H212.792ZM217.644 60.6719V72.0801H216.255V66.1387H211.772V65.0137H216.255V60.6719H217.644ZM218.065 74.9102V76.0352H207.571V71.2188H208.96V74.9102H218.065ZM236.979 60.6543V64.4863H239.335V65.6289H236.979V69.5312H235.608V60.6543H236.979ZM232.708 61.6738C232.69 65.6113 229.931 68.4238 225.308 69.6895L224.745 68.582C228.595 67.5449 230.941 65.4619 231.231 62.8164H225.448V61.6738H232.708ZM236.979 70.252V76.0703H227.083V70.252H236.979ZM228.454 71.3945V74.9453H235.608V71.3945H228.454ZM253.274 60.6543V69.9707H251.886V65.875H248.739V64.7324H251.886V60.6543H253.274ZM248.089 70.4629C251.341 70.4629 253.327 71.5176 253.327 73.3633C253.327 75.209 251.341 76.2637 248.089 76.2812C244.837 76.2637 242.851 75.209 242.851 73.3633C242.851 71.5176 244.837 70.4629 248.089 70.4629ZM248.089 71.5352C245.698 71.5352 244.204 72.2207 244.222 73.3633C244.204 74.4883 245.698 75.1738 248.089 75.1738C250.479 75.1738 251.956 74.4883 251.956 73.3633C251.956 72.2207 250.479 71.5352 248.089 71.5352ZM245.751 63.5195C245.751 65.5586 247.315 67.4922 249.601 68.2832L248.88 69.3906C247.122 68.7578 245.76 67.4482 245.101 65.8223C244.415 67.6592 242.965 69.127 241.11 69.8301L240.39 68.7227C242.71 67.8789 244.362 65.7695 244.362 63.5371V62.957H240.829V61.7969H249.249V62.957H245.751V63.5195ZM258.442 73.6797L257.071 78.4609H255.771L256.737 73.6797H258.442ZM277.497 70.9375V76.0703H266.739V70.9375H271.433V69.0039H264.999V67.8438H279.237V69.0039H272.804V70.9375H277.497ZM268.11 72.0449V74.9453H276.144V72.0449H268.11ZM272.839 61.5508C272.839 63.502 275.687 65.2422 278.429 65.5938L277.919 66.6836C275.493 66.3232 273.12 65.084 272.136 63.3262C271.134 65.1016 268.743 66.3232 266.335 66.6836L265.808 65.5938C268.585 65.2246 271.415 63.5371 271.415 61.5508V60.8125H272.839V61.5508ZM293.476 60.6543V76.2812H292.087V60.6543H293.476ZM288.853 62.3594C288.835 66.8594 286.743 70.832 281.505 73.3457L280.749 72.2207C284.977 70.2168 287.13 67.2197 287.446 63.4844H281.47V62.3594H288.853ZM308.646 62.2363V63.8008C308.628 65.7168 308.628 67.8613 308.065 71.0078L306.659 70.8496C307.257 67.8613 307.257 65.6641 307.257 63.8008V63.3789H297.624V62.2363H308.646ZM310.351 72.9238V74.0664H296.112V72.9238H301.702V67.334H303.056V72.9238H310.351ZM329.089 60.6719V69.3555H327.718V60.6719H329.089ZM321.724 62.7812C321.706 64.9434 323.394 66.8945 325.714 67.6504L325.046 68.7402C323.2 68.1162 321.741 66.8154 321.038 65.1191C320.335 66.9385 318.858 68.3623 316.995 69.0215L316.292 67.9316C318.647 67.1055 320.317 65.0488 320.317 62.7812V61.252H321.724V62.7812ZM329.194 70.2871V71.4121H327.032V74.9453H329.353V76.0703H318.542V74.9453H320.88V71.4121H318.683V70.2871H329.194ZM322.233 74.9453H325.661V71.4121H322.233V74.9453ZM337.122 71.1309C337.122 72.5283 337.86 74.0049 339.354 74.8574C340.849 73.9258 341.622 72.335 341.622 71.1309V70.1816H342.976V71.1309C342.976 72.748 344.136 74.3652 346.175 75.0508L345.454 76.0879C343.898 75.5254 342.809 74.4268 342.29 73.0996C341.789 74.3828 340.831 75.5869 339.372 76.2109C337.869 75.6396 336.911 74.4795 336.437 73.1699C335.874 74.4268 334.802 75.5166 333.308 76.0879L332.622 75.0508C334.608 74.3301 335.786 72.6426 335.804 71.1309V70.1816H337.122V71.1309ZM336.05 61.5508C338.106 61.5508 339.715 62.7812 340.022 64.5918H343.31V60.6543H344.698V69.584H343.31V65.7344H340.04C339.768 67.6064 338.142 68.8633 336.05 68.8633C333.712 68.8633 332.007 67.3691 332.007 65.207C332.007 63.0625 333.712 61.5508 336.05 61.5508ZM336.05 62.7285C334.485 62.7109 333.325 63.748 333.343 65.207C333.325 66.6484 334.485 67.7031 336.05 67.7207C337.579 67.7031 338.739 66.6484 338.739 65.207C338.739 63.748 337.579 62.7109 336.05 62.7285ZM355.403 61.9727V63.1152H349.567V68.6348C352.371 68.6348 354.182 68.5381 356.282 68.125L356.458 69.2676C354.226 69.6543 352.327 69.7773 349.392 69.7773H348.214V61.9727H355.403ZM360.255 60.6719V72.0801H358.866V66.1387H354.384V65.0137H358.866V60.6719H360.255ZM360.677 74.9102V76.0352H350.183V71.2188H351.571V74.9102H360.677ZM381.683 73.1172V74.2773H367.374V73.1172H373.808V69.3027H369.062V61.9727H379.907V69.3027H375.161V73.1172H381.683ZM370.415 63.0801V68.1953H378.571V63.0801H370.415ZM386.112 70.041V71.8691H393.917V70.041H395.306V76.0703H384.741V70.041H386.112ZM386.112 74.9629H393.917V72.959H386.112V74.9629ZM397.169 67.791V68.9336H382.931V67.791H397.169ZM390.771 61.5684C390.771 63.502 393.618 65.2246 396.36 65.5762L395.851 66.6836C393.425 66.3232 391.052 65.084 390.067 63.3262C389.065 65.0928 386.675 66.3232 384.267 66.6836L383.739 65.5762C386.517 65.207 389.347 63.5547 389.347 61.5684V60.8301H390.771V61.5684ZM411.372 60.6543V76.3164H409.983V60.6543H411.372ZM403.058 61.8672C405.378 61.8848 407.048 63.9941 407.048 67.3164C407.048 70.6387 405.378 72.748 403.058 72.748C400.72 72.748 399.067 70.6387 399.067 67.3164C399.067 63.9941 400.72 61.8848 403.058 61.8672ZM403.058 63.0977C401.493 63.1152 400.403 64.7676 400.403 67.3164C400.403 69.8652 401.493 71.5176 403.058 71.5176C404.622 71.5176 405.712 69.8652 405.712 67.3164C405.712 64.7676 404.622 63.1152 403.058 63.0977ZM426.138 60.6543V66.8418H428.757V68.002H426.138V76.3164H424.767V60.6543H426.138ZM422.024 62.1836V63.3262H416.101V71.2363C418.931 71.2363 420.935 71.1045 423.255 70.6738L423.431 71.8691C420.987 72.3086 418.931 72.3965 415.96 72.3965H414.729V62.1836H422.024ZM431.253 74.9629C430.638 74.9629 430.11 74.4531 430.128 73.8203C430.11 73.2051 430.638 72.6953 431.253 72.6953C431.868 72.6953 432.378 73.2051 432.378 73.8203C432.378 74.4531 431.868 74.9629 431.253 74.9629ZM16.5498 90.6543V97.1055H19.1689V98.248H16.5498V106.281H15.1787V90.6543H16.5498ZM13.667 93.168V94.3105H4.36816V93.168H8.39355V90.8477H9.76465V93.168H13.667ZM9.09668 95.6113C11.3115 95.6113 12.9111 97.0879 12.9287 99.1973C12.9111 101.307 11.3115 102.783 9.09668 102.783C6.86426 102.783 5.24707 101.307 5.26465 99.1973C5.24707 97.0879 6.86426 95.6113 9.09668 95.6113ZM9.09668 96.7715C7.6377 96.7715 6.56543 97.791 6.58301 99.1973C6.56543 100.621 7.6377 101.623 9.09668 101.605C10.5381 101.623 11.5928 100.621 11.6104 99.1973C11.5928 97.791 10.5381 96.7715 9.09668 96.7715ZM25.6025 95.4531C25.6025 98.1074 27.5361 100.797 29.8389 101.799L29.0654 102.889C27.2373 102.054 25.6553 100.252 24.9346 98.0898C24.1963 100.384 22.623 102.379 20.8389 103.275L20.0127 102.186C22.2451 101.113 24.1963 98.1602 24.2139 95.4531V93.4141H20.5225V92.2715H29.3291V93.4141H25.6025V95.4531ZM32.8975 90.6543V106.281H31.5088V90.6543H32.8975ZM43.4619 92.0781V99.2676H36.2373V92.0781H43.4619ZM37.5908 93.2031V98.1602H42.126V93.2031H37.5908ZM47.7861 90.6543V95.418H50.1416V96.5781H47.7861V102.115H46.415V90.6543H47.7861ZM48.5068 104.787V105.947H38.0127V101.025H39.3662V104.787H48.5068ZM67.9658 92.3242V93.8887C67.9658 95.8574 67.9658 98.0898 67.3857 101.482L65.9795 101.342C66.6123 98.1426 66.6123 95.8047 66.6123 93.8887V93.4668H57.1904V92.3242H67.9658ZM69.8818 102.836V103.979H55.6436V102.836H69.8818ZM88.04 92.3242V93.8887C88.04 95.8574 88.04 98.0898 87.46 101.482L86.0537 101.342C86.6865 98.1426 86.6865 95.8047 86.6865 93.8887V93.4668H77.2646V92.3242H88.04ZM89.9561 102.836V103.979H75.7178V102.836H89.9561ZM104.177 90.6719V99.9355H102.806V90.6719H104.177ZM99.2021 91.6211V95.8574H93.4365V98.0195C96.2314 98.0371 98.3232 97.9492 100.854 97.5273L101.013 98.6875C98.3936 99.0918 96.249 99.1797 93.3662 99.1797H92.1006V94.7676H97.8311V92.7285H92.0654V91.6211H99.2021ZM104.177 100.779V106.07H94.0166V100.779H104.177ZM95.3701 101.904V104.945H102.823V101.904H95.3701ZM112.122 95.4531C112.104 97.9668 113.915 100.727 116.183 101.799L115.392 102.889C113.634 102.036 112.148 100.173 111.454 98.0547C110.733 100.357 109.16 102.379 107.411 103.275L106.567 102.186C108.817 101.096 110.751 98.125 110.769 95.4531V93.4141H107.13V92.2715H115.638V93.4141H112.122V95.4531ZM118.925 90.6543V96.9824H121.544V98.1602H118.925V106.281H117.554V90.6543H118.925ZM139.86 100.727V106.281H138.472V101.834H129.349V100.727H139.86ZM139.86 90.6543V99.8652H138.472V97.6152H134.446C133.717 98.5029 132.565 99.0303 131.212 99.0215C128.874 99.0391 127.151 97.4922 127.151 95.2773C127.151 93.0977 128.874 91.5508 131.212 91.5508C132.557 91.5508 133.708 92.0781 134.446 92.957H138.472V90.6543H139.86ZM131.212 92.7285C129.612 92.7285 128.47 93.8008 128.47 95.2773C128.47 96.8066 129.612 97.8613 131.212 97.8613C132.741 97.8613 133.919 96.8066 133.919 95.2773C133.919 93.8008 132.741 92.7285 131.212 92.7285ZM135.062 96.4727H138.472V94.0996H135.062C135.185 94.4688 135.255 94.8555 135.255 95.2773C135.255 95.6992 135.185 96.1035 135.062 96.4727ZM148.017 94.8555C147.999 97.7031 149.95 100.586 152.253 101.623L151.409 102.713C149.634 101.843 148.096 100.006 147.349 97.7734C146.619 100.138 145.081 102.106 143.253 103.029L142.374 101.869C144.694 100.797 146.628 97.8262 146.646 94.8555V92.0078H148.017V94.8555ZM155.347 90.6543V106.316H153.958V90.6543H155.347ZM177.161 96.8945V98.0547H174.63V106.281H173.259V90.6543H174.63V96.8945H177.161ZM164.558 92.2012V101.148C166.843 101.14 169.172 100.964 171.747 100.428L171.923 101.605C169.233 102.15 166.808 102.309 164.435 102.309H163.187V92.2012H164.558ZM191.487 90.6543V106.281H190.151V90.6543H191.487ZM188.341 90.9883V105.49H187.022V97.8965H185.019C184.869 100.938 183.577 102.836 181.644 102.836C179.604 102.836 178.286 100.727 178.286 97.4043C178.286 94.082 179.604 91.9727 181.644 91.9727C183.542 91.9727 184.825 93.8096 185.001 96.7539H187.022V90.9883H188.341ZM181.644 93.2734C180.378 93.2734 179.569 94.8555 179.587 97.4043C179.569 99.9355 180.378 101.535 181.644 101.518C182.909 101.535 183.718 99.9355 183.718 97.4043C183.718 94.8555 182.909 93.2734 181.644 93.2734ZM207.026 90.6543V106.281H205.708V90.6543H207.026ZM203.739 91.0762V105.49H202.421V98.1953H199.116C198.158 100.015 196.655 101.623 194.476 102.906L193.667 101.904C197.068 99.8916 198.773 97.0703 199.028 93.8008H194.335V92.6582H200.399C200.391 94.1963 200.145 95.6816 199.626 97.0703H202.421V91.0762H203.739ZM214.708 94.8555C214.708 97.6855 216.519 100.533 218.786 101.57L217.96 102.695C216.185 101.781 214.717 99.9092 214.022 97.6855C213.328 100.023 211.86 102.027 210.085 102.977L209.188 101.869C211.474 100.744 213.302 97.7383 213.302 94.8555V92.0078H214.708V94.8555ZM222.161 90.6543V106.316H220.79V97.123H217.081V95.998H220.79V90.6543H222.161ZM242.165 90.6543V106.316H240.776V90.6543H242.165ZM231.565 91.9902V96.1211H236.224V91.9902H237.577V102.537H230.194V91.9902H231.565ZM231.565 101.377H236.224V97.2285H231.565V101.377ZM259.128 99.0918V100.234H244.819V99.0918H251.288V97.5273H246.683V93.8008H255.894V92.2363H246.63V91.1465H257.282V94.8379H248.054V96.4375H257.616V97.5273H252.642V99.0918H259.128ZM252.677 101.377C252.677 103.346 255.12 104.787 257.985 105.156L257.476 106.211C255.094 105.868 252.914 104.84 251.974 103.205C251.033 104.84 248.854 105.868 246.472 106.211L245.962 105.156C248.81 104.787 251.271 103.346 251.271 101.377V101.061H252.677V101.377ZM269.481 95.7871V96.9121H266.317V99.0918C267.776 99.0303 269.235 98.9248 270.589 98.7754L270.694 99.7949C267.337 100.252 263.61 100.357 260.675 100.357L260.464 99.2324C261.835 99.2236 263.373 99.2061 264.946 99.1445V96.9121H261.888V91.6738H269.358V92.8164H263.276V95.7871H269.481ZM273.278 90.6719V102.361H271.89V90.6719H273.278ZM273.788 104.787V105.947H263.136V101.553H264.507V104.787H273.788ZM293.423 90.6719V101.254H292.034V96.2266H288.606V95.0664H292.034V90.6719H293.423ZM288.536 91.9023C288.519 95.9102 285.847 98.793 281.347 100.234L280.731 99.127C284.467 97.9756 286.77 95.8047 287.06 93.0273H281.505V91.9023H288.536ZM289.028 100.604C289.028 102.889 291.524 104.594 294.284 105.086L293.704 106.193C291.401 105.745 289.283 104.541 288.36 102.713C287.402 104.55 285.258 105.771 282.929 106.229L282.366 105.139C285.126 104.664 287.657 102.906 287.675 100.604V99.8828H289.028V100.604ZM308.909 90.6543V106.316H307.521V90.6543H308.909ZM300.595 91.8672C302.915 91.8848 304.585 93.9941 304.585 97.3164C304.585 100.639 302.915 102.748 300.595 102.748C298.257 102.748 296.604 100.639 296.604 97.3164C296.604 93.9941 298.257 91.8848 300.595 91.8672ZM300.595 93.0977C299.03 93.1152 297.94 94.7676 297.94 97.3164C297.94 99.8652 299.03 101.518 300.595 101.518C302.159 101.518 303.249 99.8652 303.249 97.3164C303.249 94.7676 302.159 93.1152 300.595 93.0977ZM319.333 92.2188V94.416H323.165V90.6543H324.536V106.316H323.165V99.8652H319.333V102.326H312.214V92.2188H319.333ZM313.585 93.3086V101.219H317.997V93.3086H313.585ZM319.333 98.7227H323.165V95.5586H319.333V98.7227ZM329.704 103.68L328.333 108.461H327.032L327.999 103.68H329.704ZM350.886 96.8945V98.0547H348.354V106.281H346.983V90.6543H348.354V96.8945H350.886ZM338.282 92.2012V101.148C340.567 101.14 342.896 100.964 345.472 100.428L345.647 101.605C342.958 102.15 340.532 102.309 338.159 102.309H336.911V92.2012H338.282ZM356.933 91.7969C359.394 91.7969 361.134 93.291 361.134 95.4707C361.134 97.6504 359.394 99.1445 356.933 99.1445C354.472 99.1445 352.696 97.6504 352.714 95.4707C352.696 93.291 354.472 91.7969 356.933 91.7969ZM356.933 93.0098C355.263 93.0098 354.05 94.0117 354.067 95.4707C354.05 96.9297 355.263 97.9316 356.933 97.9316C358.585 97.9316 359.78 96.9297 359.78 95.4707C359.78 94.0117 358.585 93.0098 356.933 93.0098ZM364.632 90.6543V106.316H363.261V90.6543H364.632ZM351.905 101.693C354.788 101.693 358.761 101.676 362.224 101.166L362.329 102.186C358.761 102.854 354.911 102.871 352.099 102.871L351.905 101.693ZM376.321 91.2344C378.659 91.252 380.364 92.6582 380.364 94.6973C380.364 96.7363 378.659 98.1426 376.321 98.1426C373.948 98.1426 372.261 96.7363 372.261 94.6973C372.261 92.6582 373.948 91.252 376.321 91.2344ZM376.321 92.3945C374.757 92.3945 373.597 93.3438 373.614 94.6973C373.597 96.0684 374.757 97.0176 376.321 97.0176C377.868 97.0176 379.028 96.0684 379.028 94.6973C379.028 93.3438 377.868 92.3945 376.321 92.3945ZM384.794 90.6543V98.6875H383.423V90.6543H384.794ZM384.794 99.4434V103.205H376.022V104.963H385.356V106.07H374.669V102.168H383.423V100.551H374.634V99.4434H384.794ZM401.739 99.9355V101.061H395.218V106.281H393.864V101.061H387.431V99.9355H401.739ZM390.63 91.3047V93.4668H398.505V91.3047H399.894V98.0371H389.259V91.3047H390.63ZM390.63 96.9121H398.505V94.5918H390.63V96.9121ZM415.099 90.6543V96.8418H417.718V98.002H415.099V106.316H413.728V90.6543H415.099ZM410.985 92.1836V93.3262H405.062V101.236C407.892 101.236 409.896 101.104 412.216 100.674L412.392 101.869C409.948 102.309 407.892 102.396 404.921 102.396H403.69V92.1836H410.985ZM420.214 104.963C419.599 104.963 419.071 104.453 419.089 103.82C419.071 103.205 419.599 102.695 420.214 102.695C420.829 102.695 421.339 103.205 421.339 103.82C421.339 104.453 420.829 104.963 420.214 104.963ZM10.0811 124.012C10.0811 126.121 11.751 128.02 14.0889 128.758L13.3857 129.865C11.5664 129.25 10.1162 127.967 9.41309 126.314C8.72754 128.099 7.25977 129.505 5.40527 130.182L4.68457 129.074C7.02246 128.248 8.69238 126.227 8.69238 124.012V123.098H5.03613V121.973H13.6846V123.098H10.0811V124.012ZM17.3584 120.672V132.133H15.9873V120.672H17.3584ZM17.8506 134.787V135.947H7.26855V131.043H8.63965V134.787H17.8506ZM32.9678 120.654V129.971H31.5791V125.875H28.4326V124.732H31.5791V120.654H32.9678ZM27.7822 130.463C31.0342 130.463 33.0205 131.518 33.0205 133.363C33.0205 135.209 31.0342 136.264 27.7822 136.281C24.5303 136.264 22.5439 135.209 22.5439 133.363C22.5439 131.518 24.5303 130.463 27.7822 130.463ZM27.7822 131.535C25.3916 131.535 23.8975 132.221 23.915 133.363C23.8975 134.488 25.3916 135.174 27.7822 135.174C30.1729 135.174 31.6494 134.488 31.6494 133.363C31.6494 132.221 30.1729 131.535 27.7822 131.535ZM25.4443 123.52C25.4443 125.559 27.0088 127.492 29.2939 128.283L28.5732 129.391C26.8154 128.758 25.4531 127.448 24.7939 125.822C24.1084 127.659 22.6582 129.127 20.8037 129.83L20.083 128.723C22.4033 127.879 24.0557 125.77 24.0557 123.537V122.957H20.5225V121.797H28.9424V122.957H25.4443V123.52ZM47.7861 120.672V125.822H50.1416V126.982H47.7861V132.379H46.415V120.672H47.7861ZM44.9209 122.588V123.713H35.6045V122.588H39.5771V120.672H40.9482V122.588H44.9209ZM40.2627 124.574C42.4951 124.574 44.0068 125.717 44.0244 127.492C44.0068 129.25 42.4951 130.375 40.2627 130.375C38.0127 130.375 36.4834 129.25 36.501 127.492C36.4834 125.717 38.0127 124.574 40.2627 124.574ZM40.2627 125.664C38.7861 125.664 37.8018 126.385 37.8193 127.492C37.8018 128.6 38.7861 129.303 40.2627 129.285C41.7217 129.303 42.7061 128.6 42.7236 127.492C42.7061 126.385 41.7217 125.664 40.2627 125.664ZM48.5068 134.787V135.947H38.0127V131.447H39.3662V134.787H48.5068ZM60.9346 125.453C60.917 127.967 62.7275 130.727 64.9951 131.799L64.2041 132.889C62.4463 132.036 60.9609 130.173 60.2666 128.055C59.5459 130.357 57.9727 132.379 56.2236 133.275L55.3799 132.186C57.6299 131.096 59.5635 128.125 59.5811 125.453V123.414H55.9424V122.271H64.4502V123.414H60.9346V125.453ZM67.7373 120.654V126.982H70.3564V128.16H67.7373V136.281H66.3662V120.654H67.7373ZM84.1201 120.654V136.281H82.7314V120.654H84.1201ZM79.4971 122.359C79.4795 126.859 77.3877 130.832 72.1494 133.346L71.3936 132.221C75.6211 130.217 77.7744 127.22 78.0908 123.484H72.1143V122.359H79.4971ZM90.3076 121.973C92.3467 121.973 93.665 124.082 93.6826 127.404C93.665 130.727 92.3467 132.836 90.3076 132.836C88.2686 132.836 86.9502 130.727 86.9502 127.404C86.9502 124.082 88.2686 121.973 90.3076 121.973ZM90.3076 123.273C89.042 123.273 88.2334 124.855 88.251 127.404C88.2334 129.936 89.042 131.535 90.3076 131.518C91.5732 131.535 92.3818 129.936 92.3818 127.404C92.3818 124.855 91.5732 123.273 90.3076 123.273ZM100.151 120.654V136.281H98.8154V128.002H96.6357V135.49H95.3174V120.988H96.6357V126.859H98.8154V120.654H100.151ZM114.952 125.4V126.508H104.247V121.234H105.618V125.4H114.952ZM116.604 128.635V129.76H102.296V128.635H116.604ZM115.04 134.752V135.895H104.159V131.359H105.53V134.752H115.04ZM137.013 126.895V128.055H134.481V136.281H133.11V120.654H134.481V126.895H137.013ZM124.409 122.201V131.148C126.694 131.14 129.023 130.964 131.599 130.428L131.774 131.605C129.085 132.15 126.659 132.309 124.286 132.309H123.038V122.201H124.409ZM143.06 121.797C145.521 121.797 147.261 123.291 147.261 125.471C147.261 127.65 145.521 129.145 143.06 129.145C140.599 129.145 138.823 127.65 138.841 125.471C138.823 123.291 140.599 121.797 143.06 121.797ZM143.06 123.01C141.39 123.01 140.177 124.012 140.194 125.471C140.177 126.93 141.39 127.932 143.06 127.932C144.712 127.932 145.907 126.93 145.907 125.471C145.907 124.012 144.712 123.01 143.06 123.01ZM150.759 120.654V136.316H149.388V120.654H150.759ZM138.032 131.693C140.915 131.693 144.888 131.676 148.351 131.166L148.456 132.186C144.888 132.854 141.038 132.871 138.226 132.871L138.032 131.693ZM160.04 121.41V123.713H164.593V121.41H165.964V128.283H158.687V121.41H160.04ZM160.04 127.176H164.593V124.768H160.04V127.176ZM170.235 120.654V124.1H172.591V125.277H170.235V129.004H168.864V120.654H170.235ZM164.733 129.865V133.416H160.989V135.051C163.178 135.042 164.347 134.98 165.771 134.699L165.929 135.754C164.329 136.07 163.099 136.105 160.567 136.105H159.653V132.396H163.397V130.938H159.618V129.865H164.733ZM170.235 129.865V136.229H168.864V130.973H165.419V129.865H170.235ZM187.813 128.898V130.023H173.575V128.898H187.813ZM186.231 134.787V135.947H175.421V131.395H176.81V134.787H186.231ZM180.694 121.217C184.052 121.199 186.214 122.359 186.214 124.311C186.214 126.262 184.052 127.422 180.694 127.422C177.302 127.422 175.157 126.262 175.157 124.311C175.157 122.359 177.302 121.199 180.694 121.217ZM180.694 122.324C178.181 122.324 176.563 123.08 176.581 124.311C176.563 125.541 178.181 126.297 180.694 126.297C183.19 126.297 184.808 125.541 184.808 124.311C184.808 123.08 183.19 122.324 180.694 122.324ZM201.56 122.025V123.414H205.216V120.672H206.604V132.08H205.216V127.914H201.56V129.32H194.388V122.025H201.56ZM195.759 123.168V128.213H200.206V123.168H195.759ZM206.956 134.787V135.947H196.497V131.061H197.886V134.787H206.956ZM201.56 126.771H205.216V124.574H201.56V126.771ZM217.099 122.078V129.268H209.874V122.078H217.099ZM211.228 123.203V128.16H215.763V123.203H211.228ZM221.423 120.654V125.418H223.778V126.578H221.423V132.115H220.052V120.654H221.423ZM222.144 134.787V135.947H211.649V131.025H213.003V134.787H222.144ZM237.647 120.654V136.316H236.259V120.654H237.647ZM229.333 121.867C231.653 121.885 233.323 123.994 233.323 127.316C233.323 130.639 231.653 132.748 229.333 132.748C226.995 132.748 225.343 130.639 225.343 127.316C225.343 123.994 226.995 121.885 229.333 121.867ZM229.333 123.098C227.769 123.115 226.679 124.768 226.679 127.316C226.679 129.865 227.769 131.518 229.333 131.518C230.897 131.518 231.987 129.865 231.987 127.316C231.987 124.768 230.897 123.115 229.333 123.098ZM249.021 121.867C251.323 121.885 252.958 123.994 252.976 127.316C252.958 130.639 251.323 132.748 249.021 132.748C246.7 132.748 245.083 130.639 245.083 127.316C245.083 123.994 246.7 121.885 249.021 121.867ZM249.021 123.098C247.474 123.115 246.384 124.768 246.384 127.316C246.384 129.865 247.474 131.518 249.021 131.518C250.585 131.518 251.64 129.865 251.64 127.316C251.64 124.768 250.585 123.115 249.021 123.098ZM256.931 120.654V126.895H259.55V128.09H256.931V136.281H255.56V120.654H256.931ZM273.278 120.654V136.281H271.907V120.654H273.278ZM262.767 122.201V131.061C265.148 131.052 267.618 130.858 270.237 130.305L270.431 131.482C267.653 132.062 265.175 132.256 262.679 132.256H261.413V122.201H262.767ZM288.044 120.654V126.877H290.663V128.037H288.044V136.316H286.673V120.654H288.044ZM283.667 122.113V127.703H277.972V131.359C280.872 131.359 282.894 131.263 285.267 130.814L285.407 131.957C282.946 132.414 280.854 132.52 277.849 132.537H276.601V126.561H282.296V123.256H276.565V122.113H283.667ZM294.073 133.68L292.702 138.461H291.401L292.368 133.68H294.073ZM312.952 122.324V123.889C312.952 125.857 312.952 128.09 312.372 131.482L310.966 131.342C311.599 128.143 311.599 125.805 311.599 123.889V123.467H302.177V122.324H312.952ZM314.868 132.836V133.979H300.63V132.836H314.868ZM333.026 122.324V123.889C333.026 125.857 333.026 128.09 332.446 131.482L331.04 131.342C331.673 128.143 331.673 125.805 331.673 123.889V123.467H322.251V122.324H333.026ZM334.942 132.836V133.979H320.704V132.836H334.942ZM349.163 120.672V129.936H347.792V120.672H349.163ZM344.188 121.621V125.857H338.423V128.02C341.218 128.037 343.31 127.949 345.841 127.527L345.999 128.688C343.38 129.092 341.235 129.18 338.353 129.18H337.087V124.768H342.817V122.729H337.052V121.621H344.188ZM349.163 130.779V136.07H339.003V130.779H349.163ZM340.356 131.904V134.945H347.81V131.904H340.356ZM357.108 125.453C357.091 127.967 358.901 130.727 361.169 131.799L360.378 132.889C358.62 132.036 357.135 130.173 356.44 128.055C355.72 130.357 354.146 132.379 352.397 133.275L351.554 132.186C353.804 131.096 355.737 128.125 355.755 125.453V123.414H352.116V122.271H360.624V123.414H357.108V125.453ZM363.911 120.654V126.982H366.53V128.16H363.911V136.281H362.54V120.654H363.911ZM379.749 120.654V127.105H382.122V128.266H379.749V136.281H378.36V120.654H379.749ZM372.12 122.359C372.103 126.086 371.259 129.742 368.429 132.748L367.321 131.957C369.686 129.54 370.635 126.631 370.819 123.52H367.813V122.359H372.12ZM376.409 122.359C376.392 126.068 375.847 130.375 372.929 133.785L371.804 133.012C374.247 130.252 374.985 126.78 375.108 123.52H372.612V122.359H376.409ZM388.521 125.453C388.521 128.107 390.454 130.797 392.757 131.799L391.983 132.889C390.155 132.054 388.573 130.252 387.853 128.09C387.114 130.384 385.541 132.379 383.757 133.275L382.931 132.186C385.163 131.113 387.114 128.16 387.132 125.453V123.414H383.44V122.271H392.247V123.414H388.521V125.453ZM395.815 120.654V136.281H394.427V120.654H395.815ZM415.89 120.654V136.281H414.536V130.217H410.599C410.08 131.465 409.395 132.669 408.472 133.768L407.312 133.012C409.711 130.252 410.484 126.78 410.616 123.52H408.173V122.359H411.935C411.935 123.186 411.899 124.047 411.812 124.926H414.536V120.654H415.89ZM407.698 122.359C407.698 126.051 406.767 129.742 403.972 132.695L402.864 131.904C405.167 129.54 406.178 126.622 406.362 123.52H403.409V122.359H407.698ZM411.021 129.057H414.536V126.051H411.688C411.539 127.053 411.328 128.063 411.021 129.057ZM430.778 120.654V125.418H433.134V126.578H430.778V132.186H429.407V120.654H430.778ZM431.499 134.787V135.947H421.005V130.99H422.358V134.787H431.499ZM422.956 121.762C425.294 121.762 427.052 123.344 427.069 125.611C427.052 127.879 425.294 129.461 422.956 129.461C420.618 129.461 418.843 127.879 418.86 125.611C418.843 123.344 420.618 121.762 422.956 121.762ZM422.956 122.975C421.409 122.975 420.196 124.064 420.214 125.611C420.196 127.158 421.409 128.248 422.956 128.248C424.538 128.248 425.716 127.158 425.716 125.611C425.716 124.064 424.538 122.975 422.956 122.975ZM446.757 125.4V126.508H436.052V121.234H437.423V125.4H446.757ZM448.409 128.635V129.76H434.101V128.635H448.409ZM446.845 134.752V135.895H435.964V131.359H437.335V134.752H446.845ZM467.147 120.672V131.254H465.759V126.227H462.331V125.066H465.759V120.672H467.147ZM462.261 121.902C462.243 125.91 459.571 128.793 455.071 130.234L454.456 129.127C458.191 127.976 460.494 125.805 460.784 123.027H455.229V121.902H462.261ZM462.753 130.604C462.753 132.889 465.249 134.594 468.009 135.086L467.429 136.193C465.126 135.745 463.008 134.541 462.085 132.713C461.127 134.55 458.982 135.771 456.653 136.229L456.091 135.139C458.851 134.664 461.382 132.906 461.399 130.604V129.883H462.753V130.604ZM482.634 120.654V136.316H481.245V120.654H482.634ZM474.319 121.867C476.64 121.885 478.31 123.994 478.31 127.316C478.31 130.639 476.64 132.748 474.319 132.748C471.981 132.748 470.329 130.639 470.329 127.316C470.329 123.994 471.981 121.885 474.319 121.867ZM474.319 123.098C472.755 123.115 471.665 124.768 471.665 127.316C471.665 129.865 472.755 131.518 474.319 131.518C475.884 131.518 476.974 129.865 476.974 127.316C476.974 124.768 475.884 123.115 474.319 123.098ZM497.399 120.654V126.842H500.019V128.002H497.399V136.316H496.028V120.654H497.399ZM493.286 122.184V123.326H487.362V131.236C490.192 131.236 492.196 131.104 494.517 130.674L494.692 131.869C492.249 132.309 490.192 132.396 487.222 132.396H485.991V122.184H493.286ZM502.515 134.963C501.899 134.963 501.372 134.453 501.39 133.82C501.372 133.205 501.899 132.695 502.515 132.695C503.13 132.695 503.64 133.205 503.64 133.82C503.64 134.453 503.13 134.963 502.515 134.963ZM17.3408 150.654V159.742H15.9873V150.654H17.3408ZM17.7451 160.85V161.939H13.1045C13.1836 163.425 15.6445 164.884 18.29 165.209L17.7803 166.281C15.4424 165.947 13.3066 164.849 12.3838 163.398C11.4521 164.884 9.25488 165.965 6.89941 166.281L6.40723 165.227C9.05273 164.937 11.6016 163.478 11.6807 161.939H7.05762V160.85H11.6982V159.338H13.0693V160.85H17.7451ZM6.65332 151.322V153.748H11.2588V151.322H12.6299V158.301H5.28223V151.322H6.65332ZM6.65332 157.193H11.2588V154.82H6.65332V157.193ZM28.6787 152.395V153.203C28.6611 154.434 28.6611 156.508 28.2217 159.408L26.833 159.285C27.2549 156.666 27.29 154.768 27.29 153.52H20.7334V152.395H28.6787ZM24.583 156.859V161.605C26.3145 161.544 28.0898 161.43 29.7158 161.236L29.7861 162.273C26.499 162.783 22.8252 162.854 20.0303 162.836L19.8545 161.693C20.8828 161.685 22.0254 161.676 23.2295 161.641V156.859H24.583ZM32.0713 150.654V157.193H34.6025V158.389H32.0713V166.281H30.7002V150.654H32.0713ZM52.4092 152.324V153.889C52.4092 155.857 52.4092 158.09 51.8291 161.482L50.4229 161.342C51.0557 158.143 51.0557 155.805 51.0557 153.889V153.467H41.6338V152.324H52.4092ZM54.3252 162.836V163.979H40.0869V162.836H54.3252ZM68.5459 150.672V159.936H67.1748V150.672H68.5459ZM63.5713 151.621V155.857H57.8057V158.02C60.6006 158.037 62.6924 157.949 65.2236 157.527L65.3818 158.688C62.7627 159.092 60.6182 159.18 57.7354 159.18H56.4697V154.768H62.2002V152.729H56.4346V151.621H63.5713ZM68.5459 160.779V166.07H58.3857V160.779H68.5459ZM59.7393 161.904V164.945H67.1924V161.904H59.7393ZM76.4912 155.453C76.4736 157.967 78.2842 160.727 80.5518 161.799L79.7607 162.889C78.0029 162.036 76.5176 160.173 75.8232 158.055C75.1025 160.357 73.5293 162.379 71.7803 163.275L70.9365 162.186C73.1865 161.096 75.1201 158.125 75.1377 155.453V153.414H71.499V152.271H80.0068V153.414H76.4912V155.453ZM83.2939 150.654V156.982H85.9131V158.16H83.2939V166.281H81.9229V150.654H83.2939ZM98.8506 150.654V157.018H101.382V158.178H98.8506V166.281H97.4795V150.654H98.8506ZM94.8076 152.342C94.8076 156.771 92.7334 160.797 87.6357 163.311L86.8623 162.221C90.9053 160.208 93.1025 157.202 93.4189 153.502H87.583V152.342H94.8076ZM113.897 160.533C117.255 160.533 119.382 161.588 119.382 163.398C119.382 165.191 117.255 166.246 113.897 166.246C110.558 166.246 108.431 165.191 108.431 163.398C108.431 161.588 110.558 160.533 113.897 160.533ZM113.897 161.588C111.401 161.605 109.784 162.291 109.802 163.398C109.784 164.488 111.401 165.156 113.897 165.156C116.394 165.156 117.993 164.488 118.011 163.398C117.993 162.291 116.394 161.605 113.897 161.588ZM119.259 151.463V152.781C119.259 154.047 119.259 155.312 118.819 156.93L117.466 156.771C117.888 155.154 117.888 154.012 117.888 152.781V152.588H108.536V151.463H119.259ZM121.069 157.949V159.074H106.849V157.949H112.737V154.926H114.091V157.949H121.069ZM130.403 152.605C130.386 154.539 133.022 156.121 135.782 156.473L135.237 157.598C132.715 157.202 130.359 155.954 129.507 154.117C128.663 155.954 126.316 157.202 123.776 157.598L123.267 156.473C126.026 156.121 128.61 154.539 128.61 152.605V152.57H123.688V151.428H135.36V152.57H130.403V152.605ZM135.044 164.787V165.947H124.233V161.5H125.622V164.787H135.044ZM136.679 159.092V160.234H122.388V159.092H128.821V156.473H130.175V159.092H136.679ZM150.161 150.602V154.398H152.534V155.541H150.161V159.25H148.79V150.602H150.161ZM150.161 160.059V163.521H141.583V165.051H150.741V166.105H140.229V162.502H148.79V161.096H140.194V160.059H150.161ZM147.296 152.078V153.186H137.979V152.078H141.952V150.496H143.323V152.078H147.296ZM142.638 153.889C144.905 153.889 146.382 154.873 146.399 156.455C146.382 158.037 144.905 159.021 142.638 159.021C140.353 159.021 138.858 158.037 138.876 156.455C138.858 154.873 140.353 153.889 142.638 153.889ZM142.638 154.908C141.161 154.908 140.177 155.523 140.194 156.455C140.177 157.404 141.161 157.984 142.638 157.984C144.114 157.984 145.081 157.404 145.099 156.455C145.081 155.523 144.114 154.908 142.638 154.908ZM168.372 151.006V157.053H170.271V150.654H171.589V166.281H170.271V158.195H168.372V165.508H167.089V151.006H168.372ZM161.886 152.641V153.783H159.776V161.025C160.365 161.008 161.139 160.938 161.991 160.727L162.114 161.904C160.796 162.203 159.776 162.203 159.108 162.203H158.493V152.641H161.886ZM166.034 152.641V153.783H163.819V161.025C164.549 161.017 165.419 160.946 166.368 160.674L166.491 161.852C165.19 162.203 164.118 162.203 163.204 162.203H162.571V152.641H166.034ZM176.142 163.68L174.771 168.461H173.47L174.437 163.68H176.142ZM197.323 156.895V158.055H194.792V166.281H193.421V150.654H194.792V156.895H197.323ZM184.72 152.201V161.148C187.005 161.14 189.334 160.964 191.909 160.428L192.085 161.605C189.396 162.15 186.97 162.309 184.597 162.309H183.349V152.201H184.72ZM210.894 155.4V156.508H200.188V151.234H201.56V155.4H210.894ZM212.546 158.635V159.76H198.237V158.635H212.546ZM210.981 164.752V165.895H200.101V161.359H201.472V164.752H210.981ZM232.954 156.895V158.055H230.423V166.281H229.052V150.654H230.423V156.895H232.954ZM220.351 152.201V161.148C222.636 161.14 224.965 160.964 227.54 160.428L227.716 161.605C225.026 162.15 222.601 162.309 220.228 162.309H218.979V152.201H220.351ZM248.177 157.914V159.004H233.868V157.914H248.177ZM246.384 160.252V163.574H236.997V165.068H246.894V166.07H235.608V162.625H245.013V161.289H235.591V160.252H246.384ZM246.331 151.129V154.363H237.103V155.734H246.612V156.736H235.731V153.414H244.942V152.131H235.679V151.129H246.331ZM268.198 158.986V160.129H253.96V158.986H260.394V157.352C257.396 157.202 255.542 156.068 255.542 154.223C255.542 152.307 257.687 151.129 261.079 151.129C264.437 151.129 266.599 152.307 266.599 154.223C266.599 156.068 264.727 157.202 261.765 157.352V158.986H268.198ZM266.616 164.787V165.947H255.806V161.395H257.194V164.787H266.616ZM261.079 152.254C258.565 152.254 256.948 153.027 256.966 154.223C256.948 155.488 258.565 156.227 261.079 156.227C263.575 156.227 265.192 155.488 265.192 154.223C265.192 153.027 263.575 152.254 261.079 152.254ZM282.472 150.672V162.133H281.083V156.139H277.866V154.996H281.083V150.672H282.472ZM282.911 164.787V165.947H272.435V161.096H273.823V164.787H282.911ZM274.948 153.889C274.948 155.91 276.513 157.879 278.798 158.652L278.077 159.76C276.311 159.127 274.948 157.809 274.28 156.191C273.604 157.993 272.162 159.435 270.308 160.129L269.587 159.004C271.89 158.195 273.56 156.139 273.56 153.889V153.08H270.026V151.938H278.446V153.08H274.948V153.889ZM297.958 150.654V166.281H296.569V150.654H297.958ZM294.882 153.203V154.328H285.425V153.203H289.45V150.812H290.839V153.203H294.882ZM290.188 155.611C292.438 155.611 294.056 157.088 294.056 159.197C294.056 161.307 292.438 162.783 290.188 162.783C287.921 162.783 286.286 161.307 286.304 159.197C286.286 157.088 287.921 155.611 290.188 155.611ZM290.188 156.771C288.694 156.771 287.604 157.791 287.604 159.197C287.604 160.621 288.694 161.623 290.188 161.605C291.665 161.623 292.737 160.621 292.737 159.197C292.737 157.791 291.665 156.771 290.188 156.771ZM310.386 154.855C310.386 157.615 312.214 160.445 314.429 161.535L313.585 162.643C311.862 161.737 310.421 159.892 309.735 157.721C309.032 160.032 307.556 162.001 305.798 162.941L304.919 161.834C307.204 160.709 309.015 157.703 309.032 154.855V152.008H310.386V154.855ZM317.241 150.654V157H319.86V158.195H317.241V166.281H315.87V150.654H317.241ZM332.921 150.672V154.592H335.294V155.752H332.921V160.111H331.55V150.672H332.921ZM328.456 151.639V155.857H322.761V158.037C325.538 158.037 327.551 157.94 329.985 157.527L330.126 158.688C327.612 159.109 325.521 159.197 322.62 159.197H321.407V154.768H327.103V152.781H321.372V151.639H328.456ZM327.911 160.586C331.093 160.586 333.062 161.641 333.062 163.434C333.062 165.227 331.093 166.246 327.911 166.246C324.677 166.246 322.726 165.227 322.726 163.434C322.726 161.641 324.677 160.586 327.911 160.586ZM327.911 161.676C325.521 161.676 324.062 162.326 324.079 163.434C324.062 164.523 325.521 165.174 327.911 165.174C330.284 165.174 331.726 164.523 331.726 163.434C331.726 162.326 330.284 161.676 327.911 161.676ZM348.478 150.602V154.398H350.851V155.541H348.478V159.25H347.106V150.602H348.478ZM348.478 160.059V163.521H339.899V165.051H349.058V166.105H338.546V162.502H347.106V161.096H338.511V160.059H348.478ZM345.612 152.078V153.186H336.296V152.078H340.269V150.496H341.64V152.078H345.612ZM340.954 153.889C343.222 153.889 344.698 154.873 344.716 156.455C344.698 158.037 343.222 159.021 340.954 159.021C338.669 159.021 337.175 158.037 337.192 156.455C337.175 154.873 338.669 153.889 340.954 153.889ZM340.954 154.908C339.478 154.908 338.493 155.523 338.511 156.455C338.493 157.404 339.478 157.984 340.954 157.984C342.431 157.984 343.397 157.404 343.415 156.455C343.397 155.523 342.431 154.908 340.954 154.908ZM364.175 152.113C364.175 154.311 367.058 156.227 369.87 156.613L369.308 157.738C366.882 157.334 364.482 155.989 363.472 154.064C362.47 155.998 360.062 157.334 357.636 157.738L357.073 156.613C359.886 156.227 362.751 154.346 362.751 152.113V151.217H364.175V152.113ZM370.573 159.461V160.621H364.104V166.281H362.751V160.621H356.335V159.461H370.573ZM381.7 161.148C381.7 162.528 382.438 163.996 383.933 164.84C385.409 163.917 386.2 162.361 386.2 161.148V160.287H387.554V161.148C387.554 162.748 388.731 164.365 390.735 165.051L390.05 166.07C388.485 165.517 387.387 164.427 386.851 163.117C386.367 164.383 385.409 165.578 383.968 166.193C382.447 165.613 381.48 164.462 381.015 163.152C380.461 164.418 379.38 165.508 377.886 166.07L377.183 165.051C379.151 164.312 380.347 162.643 380.364 161.148V160.287H381.7V161.148ZM389.312 150.672V159.602H387.94V150.672H389.312ZM380.874 151.586C383.247 151.586 384.97 153.062 384.97 155.242C384.97 157.387 383.247 158.863 380.874 158.863C378.501 158.863 376.778 157.387 376.778 155.242C376.778 153.062 378.501 151.586 380.874 151.586ZM380.874 152.764C379.274 152.746 378.114 153.783 378.132 155.242C378.114 156.684 379.274 157.703 380.874 157.721C382.456 157.703 383.616 156.684 383.616 155.242C383.616 153.783 382.456 152.746 380.874 152.764ZM404.06 150.654V156.842H406.679V158.002H404.06V166.316H402.688V150.654H404.06ZM399.946 152.184V153.326H394.022V161.236C396.853 161.236 398.856 161.104 401.177 160.674L401.353 161.869C398.909 162.309 396.853 162.396 393.882 162.396H392.651V152.184H399.946ZM409.175 164.963C408.56 164.963 408.032 164.453 408.05 163.82C408.032 163.205 408.56 162.695 409.175 162.695C409.79 162.695 410.3 163.205 410.3 163.82C410.3 164.453 409.79 164.963 409.175 164.963ZM417.63 152.148L416.259 156.93H414.958L415.925 152.148H417.63ZM414.29 152.148L412.919 156.93H411.618L412.585 152.148H414.29Z" fill="#1A1A1A"/>
</svg>
