<svg width="268" height="44" viewBox="0 0 268 44" fill="none" xmlns="http://www.w3.org/2000/svg">
<path d="M0.842231 3.51152H8.13823L27.6742 27.0315V3.03152H36.4102V42.1515H29.1142L9.57823 18.6315V42.6315H0.842231V3.51152ZM55.311 43.3035C52.655 43.3035 50.287 42.6635 48.207 41.3835C46.127 40.1355 44.511 38.3915 43.359 36.1515C42.207 33.9115 41.631 31.3835 41.631 28.5675C41.631 25.7515 42.207 23.2235 43.359 20.9835C44.511 18.7435 46.127 16.9995 48.207 15.7515C50.287 14.4715 52.655 13.8315 55.311 13.8315C58.927 13.8315 61.615 15.0155 63.375 17.3835V14.5035H71.919V42.6315H63.375V39.7515C61.615 42.1195 58.927 43.3035 55.311 43.3035ZM56.655 36.0075C58.735 36.0075 60.399 35.3195 61.647 33.9435C62.895 32.5355 63.519 30.7435 63.519 28.5675C63.519 26.3915 62.895 24.6155 61.647 23.2395C60.399 21.8315 58.735 21.1275 56.655 21.1275C54.639 21.1275 53.023 21.8315 51.807 23.2395C50.591 24.6155 49.983 26.3915 49.983 28.5675C49.983 30.7435 50.591 32.5355 51.807 33.9435C53.023 35.3195 54.639 36.0075 56.655 36.0075ZM78.3679 14.5035H86.9119V17.3835C88.6719 15.0155 91.2959 13.8315 94.7839 13.8315C96.3199 13.8315 97.5519 13.9915 98.4799 14.3115L98.5759 22.3275C97.3599 21.6875 95.9039 21.3675 94.2079 21.3675C91.9359 21.3675 90.1439 21.9755 88.8319 23.1915C87.5519 24.4075 86.9119 26.0875 86.9119 28.2315V42.6315H78.3679V14.5035ZM129.122 32.5035C128.386 35.7675 126.754 38.3755 124.226 40.3275C121.698 42.3115 118.658 43.3035 115.106 43.3035C112.258 43.3035 109.698 42.6635 107.426 41.3835C105.154 40.1355 103.378 38.3915 102.098 36.1515C100.818 33.9115 100.178 31.3835 100.178 28.5675C100.178 25.7515 100.818 23.2235 102.098 20.9835C103.378 18.7435 105.154 16.9995 107.426 15.7515C109.698 14.4715 112.258 13.8315 115.106 13.8315C117.506 13.8315 119.698 14.3115 121.682 15.2715C123.666 16.1995 125.298 17.4795 126.578 19.1115C127.858 20.7435 128.658 22.5515 128.978 24.5355H120.338C119.986 23.5435 119.346 22.7595 118.418 22.1835C117.522 21.5755 116.418 21.2715 115.106 21.2715C113.122 21.2715 111.522 21.9595 110.306 23.3355C109.122 24.6795 108.53 26.4235 108.53 28.5675C108.53 30.7115 109.122 32.4715 110.306 33.8475C111.522 35.1915 113.122 35.8635 115.106 35.8635C116.418 35.8635 117.538 35.5595 118.466 34.9515C119.426 34.3435 120.098 33.5275 120.482 32.5035H129.122ZM137.999 0.919521C139.503 0.919521 140.751 1.41552 141.743 2.40752C142.735 3.39952 143.231 4.64752 143.231 6.15152C143.231 7.65552 142.735 8.90352 141.743 9.89552C140.751 10.8875 139.503 11.3835 137.999 11.3835C136.495 11.3835 135.247 10.8875 134.255 9.89552C133.263 8.90352 132.767 7.65552 132.767 6.15152C132.767 4.64752 133.263 3.39952 134.255 2.40752C135.247 1.41552 136.495 0.919521 137.999 0.919521ZM142.271 42.7275H133.727V14.5035H142.271V42.7275ZM160.44 13.8315C162.776 13.8315 164.904 14.2155 166.824 14.9835C168.744 15.7195 170.28 16.7755 171.432 18.1515C172.584 19.5275 173.208 21.1275 173.304 22.9515H165.048C164.92 22.0875 164.408 21.4155 163.512 20.9355C162.648 20.4235 161.576 20.1675 160.296 20.1675C159.016 20.1675 157.944 20.3755 157.08 20.7915C156.248 21.1755 155.832 21.6875 155.832 22.3275C155.832 22.9995 156.328 23.5435 157.32 23.9595C158.312 24.3755 160.04 24.7755 162.504 25.1595C166.568 25.7675 169.464 26.7755 171.192 28.1835C172.92 29.5915 173.784 31.5275 173.784 33.9915C173.784 35.8475 173.192 37.4795 172.008 38.8875C170.824 40.2955 169.224 41.3835 167.208 42.1515C165.192 42.9195 162.984 43.3035 160.584 43.3035C158.152 43.3035 155.944 42.9035 153.96 42.1035C152.008 41.3355 150.44 40.2315 149.256 38.7915C148.104 37.3515 147.48 35.6715 147.384 33.7515H155.64C155.768 34.6475 156.312 35.3835 157.272 35.9595C158.232 36.5035 159.384 36.7755 160.728 36.7755C162.104 36.7755 163.24 36.5515 164.136 36.1035C165.032 35.6555 165.48 35.1115 165.48 34.4715C165.48 33.7995 164.952 33.2395 163.896 32.7915C162.84 32.3115 161.112 31.8955 158.712 31.5435C155.032 30.9995 152.248 30.0715 150.36 28.7595C148.504 27.4475 147.576 25.4475 147.576 22.7595C147.576 20.9675 148.136 19.3995 149.256 18.0555C150.408 16.7115 151.96 15.6715 153.912 14.9355C155.864 14.1995 158.04 13.8315 160.44 13.8315ZM190.581 13.8315C192.917 13.8315 195.045 14.2155 196.965 14.9835C198.885 15.7195 200.421 16.7755 201.573 18.1515C202.725 19.5275 203.349 21.1275 203.445 22.9515H195.189C195.061 22.0875 194.549 21.4155 193.653 20.9355C192.789 20.4235 191.717 20.1675 190.437 20.1675C189.157 20.1675 188.085 20.3755 187.221 20.7915C186.389 21.1755 185.973 21.6875 185.973 22.3275C185.973 22.9995 186.469 23.5435 187.461 23.9595C188.453 24.3755 190.181 24.7755 192.645 25.1595C196.709 25.7675 199.605 26.7755 201.333 28.1835C203.061 29.5915 203.925 31.5275 203.925 33.9915C203.925 35.8475 203.333 37.4795 202.149 38.8875C200.965 40.2955 199.365 41.3835 197.349 42.1515C195.333 42.9195 193.125 43.3035 190.725 43.3035C188.293 43.3035 186.085 42.9035 184.101 42.1035C182.149 41.3355 180.581 40.2315 179.397 38.7915C178.245 37.3515 177.621 35.6715 177.525 33.7515H185.781C185.909 34.6475 186.453 35.3835 187.413 35.9595C188.373 36.5035 189.525 36.7755 190.869 36.7755C192.245 36.7755 193.381 36.5515 194.277 36.1035C195.173 35.6555 195.621 35.1115 195.621 34.4715C195.621 33.7995 195.093 33.2395 194.037 32.7915C192.981 32.3115 191.253 31.8955 188.853 31.5435C185.173 30.9995 182.389 30.0715 180.501 28.7595C178.645 27.4475 177.717 25.4475 177.717 22.7595C177.717 20.9675 178.277 19.3995 179.397 18.0555C180.549 16.7115 182.101 15.6715 184.053 14.9355C186.005 14.1995 188.181 13.8315 190.581 13.8315ZM219.522 43.3035C217.346 43.3035 215.426 42.7915 213.762 41.7675C212.098 40.7755 210.802 39.3355 209.874 37.4475C208.978 35.5595 208.53 33.3355 208.53 30.7755V14.5035H217.074V29.3355C217.074 31.4795 217.49 33.1275 218.322 34.2795C219.186 35.3995 220.418 35.9595 222.018 35.9595C223.682 35.9595 224.994 35.3355 225.954 34.0875C226.914 32.8395 227.394 31.1275 227.394 28.9515V14.5035H235.938V42.6315H227.394V39.7515C225.634 42.1195 223.01 43.3035 219.522 43.3035ZM254.143 13.8315C256.479 13.8315 258.607 14.2155 260.527 14.9835C262.447 15.7195 263.983 16.7755 265.135 18.1515C266.287 19.5275 266.911 21.1275 267.007 22.9515H258.751C258.623 22.0875 258.111 21.4155 257.215 20.9355C256.351 20.4235 255.279 20.1675 253.999 20.1675C252.719 20.1675 251.647 20.3755 250.783 20.7915C249.951 21.1755 249.535 21.6875 249.535 22.3275C249.535 22.9995 250.031 23.5435 251.023 23.9595C252.015 24.3755 253.743 24.7755 256.207 25.1595C260.271 25.7675 263.167 26.7755 264.895 28.1835C266.623 29.5915 267.487 31.5275 267.487 33.9915C267.487 35.8475 266.895 37.4795 265.711 38.8875C264.527 40.2955 262.927 41.3835 260.911 42.1515C258.895 42.9195 256.687 43.3035 254.287 43.3035C251.855 43.3035 249.647 42.9035 247.663 42.1035C245.711 41.3355 244.143 40.2315 242.959 38.7915C241.807 37.3515 241.183 35.6715 241.087 33.7515H249.343C249.471 34.6475 250.015 35.3835 250.975 35.9595C251.935 36.5035 253.087 36.7755 254.431 36.7755C255.807 36.7755 256.943 36.5515 257.839 36.1035C258.735 35.6555 259.183 35.1115 259.183 34.4715C259.183 33.7995 258.655 33.2395 257.599 32.7915C256.543 32.3115 254.815 31.8955 252.415 31.5435C248.735 30.9995 245.951 30.0715 244.063 28.7595C242.207 27.4475 241.279 25.4475 241.279 22.7595C241.279 20.9675 241.839 19.3995 242.959 18.0555C244.111 16.7115 245.663 15.6715 247.615 14.9355C249.567 14.1995 251.743 13.8315 254.143 13.8315Z" fill="#1A1A1A"/>
</svg>
