<svg width="314" height="115" viewBox="0 0 314 115" fill="none" xmlns="http://www.w3.org/2000/svg">
<path d="M0.8125 5.14502L1.87891 1.42627H2.89062L2.13867 5.14502H0.8125ZM3.41016 5.14502L4.47656 1.42627H5.48828L4.73633 5.14502H3.41016ZM16.7402 0.77002V1.24854C16.7402 1.9458 16.7402 3.1626 16.3848 4.77588L15.3457 4.63916C15.626 3.29248 15.6738 2.33545 15.6875 1.65869H12.6113V0.77002H16.7402ZM17.998 5.51416V6.40283H6.9375V5.51416H12.1738V3.40869H13.2402V5.51416H17.998ZM11.5996 0.77002V1.22119C11.5996 1.90479 11.5996 3.13525 11.0391 4.77588L9.98633 4.59814C10.4375 3.26514 10.5264 2.32178 10.5469 1.65869H7.89453V0.77002H11.5996ZM16.5352 8.08447V8.9458H12.9941C13.1377 10.2241 15.0312 11.2974 17.041 11.5571L16.6445 12.3774C14.8398 12.1108 13.165 11.2769 12.4473 10.0669C11.7295 11.27 10.0615 12.1108 8.26367 12.3774L7.88086 11.5571C9.86328 11.2974 11.7432 10.2241 11.9004 8.9458H8.35938V8.08447H11.9141V6.82666H12.9805V8.08447H16.5352ZM30.0977 6.70361V7.57861H19.0234V6.70361H30.0977ZM28.8672 11.2837V12.186H20.459V8.64502H21.5391V11.2837H28.8672ZM24.5605 0.729004C27.1719 0.715332 28.8535 1.61768 28.8535 3.13525C28.8535 4.65283 27.1719 5.55518 24.5605 5.55518C21.9219 5.55518 20.2539 4.65283 20.2539 3.13525C20.2539 1.61768 21.9219 0.715332 24.5605 0.729004ZM24.5605 1.59033C22.6055 1.59033 21.3477 2.17822 21.3613 3.13525C21.3477 4.09229 22.6055 4.68018 24.5605 4.68018C26.502 4.68018 27.7598 4.09229 27.7598 3.13525C27.7598 2.17822 26.502 1.59033 24.5605 1.59033ZM46.0117 5.14502V6.04736H44.043V12.4458H42.9766V0.291504H44.043V5.14502H46.0117ZM36.209 1.49463V8.45361C37.9863 8.44678 39.7979 8.31006 41.8008 7.89307L41.9375 8.80908C39.8457 9.23291 37.959 9.35596 36.1133 9.35596H35.1426V1.49463H36.209ZM54.3652 4.02393C54.3516 5.979 55.7598 8.12549 57.5234 8.95947L56.9082 9.80713C55.541 9.14404 54.3857 7.69482 53.8457 6.04736C53.2852 7.83838 52.0615 9.41064 50.7012 10.1079L50.0449 9.26025C51.7949 8.4126 53.2988 6.10205 53.3125 4.02393V2.43799H50.4824V1.54932H57.0996V2.43799H54.3652V4.02393ZM59.6562 0.291504V5.21338H61.6934V6.12939H59.6562V12.4458H58.5898V0.291504H59.6562ZM72.3848 0.305176V9.21924H71.3184V0.305176H72.3848ZM72.7676 11.2837V12.186H64.5371V8.39893H65.6035V11.2837H72.7676ZM66.6562 2.20557C66.6426 4.05127 67.9141 5.71924 69.7188 6.37549L69.1582 7.23682C67.75 6.69678 66.6562 5.60303 66.123 4.20166C65.583 5.69189 64.4756 6.88818 63.0605 7.45557L62.4727 6.62158C64.3184 5.91064 65.5625 4.11963 65.5625 2.20557V0.98877H66.6562V2.20557ZM84.4707 0.291504V12.4731H83.3906V0.291504H84.4707ZM78.0039 1.23486C79.8086 1.24854 81.1074 2.88916 81.1074 5.47314C81.1074 8.05713 79.8086 9.69775 78.0039 9.69775C76.1855 9.69775 74.9004 8.05713 74.9004 5.47314C74.9004 2.88916 76.1855 1.24854 78.0039 1.23486ZM78.0039 2.19189C76.7871 2.20557 75.9395 3.49072 75.9395 5.47314C75.9395 7.45557 76.7871 8.74072 78.0039 8.74072C79.2207 8.74072 80.0684 7.45557 80.0684 5.47314C80.0684 3.49072 79.2207 2.20557 78.0039 2.19189ZM95.9551 0.291504V5.104H97.9922V6.00635H95.9551V12.4731H94.8887V0.291504H95.9551ZM92.7559 1.48096V2.36963H88.1484V8.52197C90.3496 8.52197 91.9082 8.41943 93.7129 8.08447L93.8496 9.01416C91.9492 9.35596 90.3496 9.42432 88.0391 9.42432H87.082V1.48096H92.7559ZM99.9336 11.4204C99.4551 11.4204 99.0449 11.0239 99.0586 10.5317C99.0449 10.0532 99.4551 9.65674 99.9336 9.65674C100.412 9.65674 100.809 10.0532 100.809 10.5317C100.809 11.0239 100.412 11.4204 99.9336 11.4204ZM116.818 9.98486V10.8872H105.689V9.98486H110.707V7.03174H111.787V9.98486H116.818ZM111.787 2.60205C111.787 4.54346 114.193 6.21143 116.285 6.55322L115.848 7.40088C113.988 7.03857 112.026 5.85596 111.254 4.16064C110.468 5.86279 108.513 7.07275 106.688 7.45557L106.236 6.59424C108.287 6.23877 110.68 4.54346 110.68 2.60205V2.30127H106.605V1.39893H115.861V2.30127H111.787V2.60205ZM127.865 0.291504V7.49658H126.785V5.58252H123.941V6.62158H118.363V1.22119H123.941V2.27393H126.785V0.291504H127.865ZM119.43 2.09619V5.74658H122.889V2.09619H119.43ZM123.832 7.85205C126.361 7.85205 127.906 8.68604 127.906 10.1489C127.906 11.5981 126.361 12.4185 123.832 12.4185C121.303 12.4185 119.758 11.5981 119.758 10.1489C119.758 8.68604 121.303 7.85205 123.832 7.85205ZM123.832 8.68604C121.973 8.69971 120.811 9.23291 120.824 10.1489C120.811 11.0239 121.973 11.5708 123.832 11.5708C125.691 11.5708 126.84 11.0239 126.84 10.1489C126.84 9.23291 125.691 8.69971 123.832 8.68604ZM123.941 4.68018H126.785V3.1626H123.941V4.68018ZM139.91 0.291504V12.4731H138.83V0.291504H139.91ZM133.443 1.23486C135.248 1.24854 136.547 2.88916 136.547 5.47314C136.547 8.05713 135.248 9.69775 133.443 9.69775C131.625 9.69775 130.34 8.05713 130.34 5.47314C130.34 2.88916 131.625 1.24854 133.443 1.23486ZM133.443 2.19189C132.227 2.20557 131.379 3.49072 131.379 5.47314C131.379 7.45557 132.227 8.74072 133.443 8.74072C134.66 8.74072 135.508 7.45557 135.508 5.47314C135.508 3.49072 134.66 2.20557 133.443 2.19189ZM155.523 0.291504V12.4731H154.443V0.291504H155.523ZM147.279 1.33057V4.54346H150.902V1.33057H151.955V9.53369H146.213V1.33057H147.279ZM147.279 8.63135H150.902V5.40479H147.279V8.63135ZM162.086 2.54736C162.086 3.76416 163.303 4.81689 165.012 5.18604L164.547 6.03369C163.159 5.68506 162.079 4.93311 161.566 3.92822C161.054 5.02197 159.953 5.83545 158.518 6.19775L158.053 5.37744C159.762 4.98096 160.979 3.84619 160.979 2.54736V2.50635H158.312V1.64502H161.006V0.33252H162.072V1.64502H164.738V2.50635H162.086V2.54736ZM167.664 0.305176V12.4595H166.57V9.64307H163.768V8.78174H166.57V0.305176H167.664ZM157.547 6.99072C159.857 7.00439 162.934 6.97705 165.613 6.59424L165.682 7.41455C164.479 7.61963 163.241 7.74268 162.031 7.81104V12.0767H160.951V7.86572C159.789 7.90674 158.675 7.91357 157.697 7.90674L157.547 6.99072ZM179.723 0.291504V6.60791H178.67V0.291504H179.723ZM179.736 7.1958V10.0942H172.914V11.4478H180.174V12.3091H171.861V9.2876H178.67V8.04346H171.834V7.1958H179.736ZM174.076 2.01416C174.076 3.6001 175.375 4.98096 177.207 5.52783L176.674 6.36182C175.238 5.91064 174.097 4.94678 173.557 3.6958C173.03 5.06299 171.868 6.12939 170.385 6.62158L169.879 5.77393C171.697 5.17236 172.996 3.68213 172.996 2.01416V1.87744H170.152V0.98877H176.879V1.87744H174.076V2.01416ZM193.367 0.564941V5.26807H194.844V0.291504H195.869V12.4458H194.844V6.15674H193.367V11.8442H192.369V0.564941H193.367ZM188.322 1.83643V2.7251H186.682V8.35791C187.14 8.34424 187.741 8.28955 188.404 8.12549L188.5 9.0415C187.475 9.27393 186.682 9.27393 186.162 9.27393H185.684V1.83643H188.322ZM191.549 1.83643V2.7251H189.826V8.35791C190.394 8.35107 191.07 8.29639 191.809 8.08447L191.904 9.00049C190.893 9.27393 190.059 9.27393 189.348 9.27393H188.855V1.83643H191.549ZM210.949 0.291504V12.4731H209.869V0.291504H210.949ZM202.705 1.33057V4.54346H206.328V1.33057H207.381V9.53369H201.639V1.33057H202.705ZM202.705 8.63135H206.328V5.40479H202.705V8.63135ZM224.156 10.0396V10.9419H213.027V10.0396H218.031V7.74268H214.422V3.99658H221.695V2.08252H214.395V1.19385H222.748V4.87158H215.488V6.854H223.035V7.74268H219.084V10.0396H224.156ZM236.256 9.97119V10.8599H225.127V9.97119H230.104V6.99072H231.156V9.97119H236.256ZM231.184 2.05518C231.184 4.09229 233.59 5.86963 235.709 6.23877L235.23 7.12744C233.378 6.75146 231.423 5.49365 230.637 3.73682C229.837 5.48682 227.896 6.75146 226.043 7.12744L225.564 6.23877C227.684 5.86963 230.062 4.09229 230.062 2.05518V1.12549H231.184V2.05518ZM250.324 1.59033V2.80713C250.324 4.33838 250.324 6.07471 249.873 8.71338L248.779 8.604C249.271 6.11572 249.271 4.29736 249.271 2.80713V2.479H241.943V1.59033H250.324ZM251.814 9.76611V10.6548H240.74V9.76611H251.814ZM259.607 1.23486C261.398 1.24854 262.67 2.88916 262.684 5.47314C262.67 8.05713 261.398 9.69775 259.607 9.69775C257.803 9.69775 256.545 8.05713 256.545 5.47314C256.545 2.88916 257.803 1.24854 259.607 1.23486ZM259.607 2.19189C258.404 2.20557 257.557 3.49072 257.557 5.47314C257.557 7.45557 258.404 8.74072 259.607 8.74072C260.824 8.74072 261.645 7.45557 261.645 5.47314C261.645 3.49072 260.824 2.20557 259.607 2.19189ZM265.76 0.291504V5.14502H267.797V6.07471H265.76V12.4458H264.693V0.291504H265.76ZM279.568 6.56689V7.45557H268.439V6.56689H279.568ZM278.133 0.592285V3.46338H270.955V4.68018H278.393V5.51416H269.889V2.65674H277.053V1.45361H269.848V0.592285H278.133ZM278.133 8.56299V12.2817H269.957V8.56299H278.133ZM271.01 9.43799V11.4067H277.08V9.43799H271.01ZM289.959 0.291504V5.104H291.996V6.00635H289.959V12.4731H288.893V0.291504H289.959ZM286.76 1.48096V2.36963H282.152V8.52197C284.354 8.52197 285.912 8.41943 287.717 8.08447L287.854 9.01416C285.953 9.35596 284.354 9.42432 282.043 9.42432H281.086V1.48096H286.76ZM298.189 0.523926C300.828 0.523926 302.482 1.37158 302.482 2.8208C302.482 4.24268 300.828 5.07666 298.189 5.07666C295.551 5.07666 293.883 4.24268 293.883 2.8208C293.883 1.37158 295.551 0.523926 298.189 0.523926ZM298.189 1.37158C296.221 1.37158 294.977 1.90479 294.99 2.8208C294.977 3.70947 296.221 4.229 298.189 4.229C300.131 4.229 301.389 3.70947 301.389 2.8208C301.389 1.90479 300.131 1.37158 298.189 1.37158ZM302.373 8.28955V12.2817H294.006V8.28955H297.656V6.89502H292.652V6.00635H303.727V6.89502H298.709V8.28955H302.373ZM295.072 9.15088V11.4067H301.32V9.15088H295.072ZM10.793 17.2915V29.4731H9.71289V17.2915H10.793ZM4.32617 18.2349C6.13086 18.2485 7.42969 19.8892 7.42969 22.4731C7.42969 25.0571 6.13086 26.6978 4.32617 26.6978C2.50781 26.6978 1.22266 25.0571 1.22266 22.4731C1.22266 19.8892 2.50781 18.2485 4.32617 18.2349ZM4.32617 19.1919C3.10938 19.2056 2.26172 20.4907 2.26172 22.4731C2.26172 24.4556 3.10938 25.7407 4.32617 25.7407C5.54297 25.7407 6.39062 24.4556 6.39062 22.4731C6.39062 20.4907 5.54297 19.2056 4.32617 19.1919ZM26.2012 23.1431V24.0317H17.8066V18.4263H26.0781V19.3149H18.873V23.1431H26.2012ZM27.5137 26.8892V27.7915H16.3848V26.8892H27.5137ZM38.5469 17.2915V29.4731H37.4805V22.8696H35.1152V21.9673H37.4805V17.2915H38.5469ZM34.377 18.4263V22.6782H30.0156V25.6313C32.1074 25.6313 33.625 25.5698 35.4023 25.2349L35.4844 26.1372C33.6523 26.4653 32.0801 26.5337 29.8789 26.5474H28.9492V21.7896H33.3379V19.3149H28.9082V18.4263H34.377ZM51.959 22.145V23.0474H49.9902V29.4458H48.9238V17.2915H49.9902V22.145H51.959ZM42.1562 18.4946V25.4536C43.9336 25.4468 45.7451 25.3101 47.748 24.8931L47.8848 25.8091C45.793 26.2329 43.9062 26.356 42.0605 26.356H41.0898V18.4946H42.1562ZM57.0312 21.0239C57.0312 23.0884 58.5352 25.1802 60.3262 25.9595L59.7246 26.8071C58.3027 26.1577 57.0723 24.7563 56.5117 23.0747C55.9375 24.8589 54.7139 26.4106 53.3262 27.1079L52.6836 26.2603C54.4199 25.4263 55.9375 23.1294 55.9512 21.0239V19.438H53.0801V18.5493H59.9297V19.438H57.0312V21.0239ZM62.7051 17.2915V29.4458H61.625V17.2915H62.7051ZM70.9219 18.3989V23.9907H65.3027V18.3989H70.9219ZM66.3555 19.2739V23.1294H69.8828V19.2739H66.3555ZM74.2852 17.2915V20.9966H76.1172V21.8989H74.2852V26.2056H73.2188V17.2915H74.2852ZM74.8457 28.2837V29.186H66.6836V25.3579H67.7363V28.2837H74.8457ZM78.8789 27.4224L77.8125 31.1411H76.8008L77.5527 27.4224H78.8789ZM95.0664 23.3071V24.1685H83.9785V23.3071H88.9961V21.8853H85.3867V17.8657H93.6855V18.7271H86.4395V21.0103H93.7676V21.8853H90.0352V23.3071H95.0664ZM89.5156 25.0571C92.127 25.0571 93.6855 25.8501 93.6992 27.2446C93.6855 28.6528 92.127 29.4321 89.5156 29.4458C86.8906 29.4321 85.3184 28.6528 85.3184 27.2446C85.3184 25.8501 86.8906 25.0571 89.5156 25.0571ZM89.5156 25.9048C87.5605 25.9048 86.3984 26.4106 86.4121 27.2446C86.3984 28.0923 87.5605 28.5845 89.5156 28.5845C91.4434 28.5845 92.6191 28.0923 92.6191 27.2446C92.6191 26.4106 91.4434 25.9048 89.5156 25.9048ZM100.398 20.5591C100.385 22.7739 101.902 25.0161 103.693 25.8228L103.037 26.6704C101.656 25.9937 100.46 24.5649 99.8789 22.8286C99.3115 24.6675 98.1152 26.1987 96.6934 26.9165L96.0098 26.0142C97.8145 25.1802 99.3184 22.8696 99.332 20.5591V18.3442H100.398V20.5591ZM106.1 17.2915V29.4731H105.02V17.2915H106.1ZM118.596 17.2915V29.4458H117.557V17.2915H118.596ZM116.148 17.5513V28.8306H115.123V22.9243H113.564C113.448 25.2896 112.443 26.7661 110.939 26.7661C109.354 26.7661 108.328 25.1255 108.328 22.5415C108.328 19.9575 109.354 18.3169 110.939 18.3169C112.416 18.3169 113.414 19.7456 113.551 22.0356H115.123V17.5513H116.148ZM110.939 19.3286C109.955 19.3286 109.326 20.5591 109.34 22.5415C109.326 24.5103 109.955 25.7544 110.939 25.7407C111.924 25.7544 112.553 24.5103 112.553 22.5415C112.553 20.5591 111.924 19.3286 110.939 19.3286ZM133.375 18.5903V19.8071C133.375 21.3384 133.375 23.0747 132.924 25.7134L131.83 25.604C132.322 23.1157 132.322 21.2974 132.322 19.8071V19.479H124.994V18.5903H133.375ZM134.865 26.7661V27.6548H123.791V26.7661H134.865ZM145.926 17.3052V24.5103H144.859V17.3052H145.926ZM142.057 18.0435V21.3384H137.572V23.02C139.746 23.0337 141.373 22.9653 143.342 22.6372L143.465 23.5396C141.428 23.854 139.76 23.9224 137.518 23.9224H136.533V20.4907H140.99V18.9048H136.506V18.0435H142.057ZM145.926 25.1665V29.2817H138.023V25.1665H145.926ZM139.076 26.0415V28.4067H144.873V26.0415H139.076ZM152.105 21.0239C152.092 22.979 153.5 25.1255 155.264 25.9595L154.648 26.8071C153.281 26.144 152.126 24.6948 151.586 23.0474C151.025 24.8384 149.802 26.4106 148.441 27.1079L147.785 26.2603C149.535 25.4126 151.039 23.1021 151.053 21.0239V19.438H148.223V18.5493H154.84V19.438H152.105V21.0239ZM157.396 17.2915V22.2134H159.434V23.1294H157.396V29.4458H156.33V17.2915H157.396ZM169.906 22.9927V23.8677H166.146V27.0122H171.219V27.9146H160.09V27.0122H165.094V23.8677H161.512V18.2896H169.783V19.1646H162.592V22.9927H169.906ZM179.326 19.7114C179.326 21.0513 180.27 22.4185 181.828 23.0063L181.268 23.8267C180.099 23.3755 179.258 22.5073 178.82 21.4614C178.369 22.6235 177.501 23.6558 176.305 24.1685L175.717 23.3345C177.316 22.6372 178.301 21.0649 178.301 19.7114V18.0571H179.326V19.7114ZM186.025 17.3052V24.811H185V21.4614H183.387V24.4282H182.375V17.5376H183.387V20.5728H185V17.3052H186.025ZM182.006 25.0845C184.521 25.0845 186.094 25.8774 186.094 27.2583C186.094 28.6255 184.521 29.4185 182.006 29.4185C179.477 29.4185 177.918 28.6255 177.932 27.2583C177.918 25.8774 179.477 25.0845 182.006 25.0845ZM182.006 25.9048C180.146 25.9048 178.984 26.4106 178.998 27.2583C178.984 28.0923 180.146 28.5845 182.006 28.5845C183.852 28.5845 185.014 28.0923 185.027 27.2583C185.014 26.4106 183.852 25.9048 182.006 25.9048ZM197.824 17.3052V26.1372H196.744V17.3052H197.824ZM194.297 18.2212C194.283 21.3657 192.014 23.7036 188.445 24.811L188.008 23.936C190.954 23.0405 192.875 21.2974 193.107 19.1235H188.65V18.2212H194.297ZM198.152 28.2837V29.186H189.908V25.4126H190.988V28.2837H198.152ZM209.309 17.2915V22.104H211.346V23.0063H209.309V29.4731H208.242V17.2915H209.309ZM206.109 18.481V19.3696H201.502V25.522C203.703 25.522 205.262 25.4194 207.066 25.0845L207.203 26.0142C205.303 26.356 203.703 26.4243 201.393 26.4243H200.436V18.481H206.109ZM213.287 28.4204C212.809 28.4204 212.398 28.0239 212.412 27.5317C212.398 27.0532 212.809 26.6567 213.287 26.6567C213.766 26.6567 214.162 27.0532 214.162 27.5317C214.162 28.0239 213.766 28.4204 213.287 28.4204ZM10.3555 35.5903V36.8071C10.3555 38.3384 10.3555 40.0747 9.9043 42.7134L8.81055 42.604C9.30273 40.1157 9.30273 38.2974 9.30273 36.8071V36.479H1.97461V35.5903H10.3555ZM11.8457 43.7661V44.6548H0.771484V43.7661H11.8457ZM22.9062 34.3052V41.5103H21.8398V34.3052H22.9062ZM19.0371 35.0435V38.3384H14.5527V40.02C16.7266 40.0337 18.3535 39.9653 20.3223 39.6372L20.4453 40.5396C18.4082 40.854 16.7402 40.9224 14.498 40.9224H13.5137V37.4907H17.9707V35.9048H13.4863V35.0435H19.0371ZM22.9062 42.1665V46.2817H15.0039V42.1665H22.9062ZM16.0566 43.0415V45.4067H21.8535V43.0415H16.0566ZM29.0859 38.0239C29.0723 39.979 30.4805 42.1255 32.2441 42.9595L31.6289 43.8071C30.2617 43.144 29.1064 41.6948 28.5664 40.0474C28.0059 41.8384 26.7822 43.4106 25.4219 44.1079L24.7656 43.2603C26.5156 42.4126 28.0195 40.1021 28.0332 38.0239V36.438H25.2031V35.5493H31.8203V36.438H29.0859V38.0239ZM34.377 34.2915V39.2134H36.4141V40.1294H34.377V46.4458H33.3105V34.2915H34.377ZM46.9004 37.9829V38.8442H38.5742V34.7427H39.6406V37.9829H46.9004ZM48.1855 40.4985V41.3735H37.0566V40.4985H48.1855ZM46.9688 45.2563V46.145H38.5059V42.6177H39.5723V45.2563H46.9688ZM63.0605 34.2915V46.4458H62.0078V40.1567H60.2578V45.8169H59.2461V34.5649H60.2578V39.2407H62.0078V34.2915H63.0605ZM54.3652 35.7817V42.3442C55.5752 42.3306 56.8604 42.2485 58.3438 41.9478L58.4805 42.9048C56.7852 43.2056 55.3906 43.3013 54.0508 43.3013H53.2988V35.7817H54.3652ZM74.1895 34.2915V39.2407H76.1582V40.1431H74.1895V46.4458H73.123V34.2915H74.1895ZM71.0449 35.604C71.0449 39.0493 69.4316 42.1802 65.4668 44.1353L64.8652 43.2876C68.0098 41.7222 69.7188 39.3843 69.9648 36.5063H65.4258V35.604H71.0449ZM84.375 35.0845C86.2891 35.0981 87.6426 36.2466 87.6426 37.9419C87.6426 39.4731 86.5352 40.5601 84.9082 40.7446V42.8228C86.1113 42.7612 87.335 42.6587 88.4902 42.481L88.5723 43.2739C85.7969 43.7935 82.8027 43.8071 80.6152 43.8071L80.4648 42.9048C81.4561 42.9048 82.6113 42.9048 83.8281 42.8638V40.7446C82.2012 40.5532 81.0801 39.4731 81.0938 37.9419C81.0801 36.2466 82.4609 35.0981 84.375 35.0845ZM84.375 36.0278C83.0762 36.0278 82.1328 36.8071 82.1465 37.9419C82.1328 39.0767 83.0762 39.8696 84.375 39.856C85.6602 39.8696 86.5898 39.0767 86.5898 37.9419C86.5898 36.8071 85.6602 36.0278 84.375 36.0278ZM90.3633 34.2915V46.4731H89.2969V34.2915H90.3633ZM98.6484 35.3579V36.438H101.492V34.3052H102.572V43.1782H101.492V39.938H98.6484V41.0317H93.0703V35.3579H98.6484ZM94.1367 36.2466V40.1704H97.5957V36.2466H94.1367ZM102.846 45.2837V46.186H94.7109V42.3853H95.791V45.2837H102.846ZM98.6484 39.0493H101.492V37.3403H98.6484V39.0493ZM114.002 34.2915V39.3091H116.039V40.1978H114.002V46.4458H112.936V34.2915H114.002ZM111.76 36.2466V37.1353H104.527V36.2466H107.658V34.4419H108.725V36.2466H111.76ZM108.205 38.147C109.928 38.147 111.172 39.2954 111.186 40.936C111.172 42.5767 109.928 43.7251 108.205 43.7251C106.469 43.7251 105.211 42.5767 105.225 40.936C105.211 39.2954 106.469 38.147 108.205 38.147ZM108.205 39.0493C107.07 39.0493 106.236 39.8423 106.25 40.936C106.236 42.0435 107.07 42.8228 108.205 42.8091C109.326 42.8228 110.146 42.0435 110.16 40.936C110.146 39.8423 109.326 39.0493 108.205 39.0493ZM126.443 35.522V36.7388C126.43 38.229 126.43 39.897 125.992 42.3442L124.898 42.2212C125.363 39.897 125.363 38.188 125.363 36.7388V36.4106H117.871V35.522H126.443ZM127.77 43.8345V44.7231H116.695V43.8345H121.043V39.4868H122.096V43.8345H127.77ZM142.344 34.3052V41.0591H141.277V34.3052H142.344ZM136.615 35.9458C136.602 37.6274 137.914 39.145 139.719 39.7329L139.199 40.5806C137.764 40.0952 136.629 39.0835 136.082 37.7642C135.535 39.1792 134.387 40.2866 132.938 40.7993L132.391 39.9517C134.223 39.3091 135.521 37.7095 135.521 35.9458V34.7563H136.615V35.9458ZM142.426 41.7837V42.6587H140.744V45.4067H142.549V46.2817H134.141V45.4067H135.959V42.6587H134.25V41.7837H142.426ZM137.012 45.4067H139.678V42.6587H137.012V45.4067ZM148.592 42.4399C148.592 43.5269 149.166 44.6753 150.328 45.3384C151.49 44.6138 152.092 43.3765 152.092 42.4399V41.7017H153.145V42.4399C153.145 43.6978 154.047 44.9556 155.633 45.4888L155.072 46.2954C153.862 45.8579 153.015 45.0034 152.611 43.9712C152.222 44.9692 151.477 45.9058 150.342 46.3911C149.173 45.9468 148.428 45.0444 148.059 44.0259C147.621 45.0034 146.787 45.8511 145.625 46.2954L145.092 45.4888C146.637 44.9282 147.553 43.6157 147.566 42.4399V41.7017H148.592V42.4399ZM147.758 34.9888C149.357 34.9888 150.608 35.9458 150.848 37.354H153.404V34.2915H154.484V41.2368H153.404V38.2427H150.861C150.649 39.6987 149.385 40.6763 147.758 40.6763C145.939 40.6763 144.613 39.5142 144.613 37.8325C144.613 36.1646 145.939 34.9888 147.758 34.9888ZM147.758 35.9048C146.541 35.8911 145.639 36.6978 145.652 37.8325C145.639 38.9536 146.541 39.7739 147.758 39.7876C148.947 39.7739 149.85 38.9536 149.85 37.8325C149.85 36.6978 148.947 35.8911 147.758 35.9048ZM162.811 35.3169V36.2056H158.271V40.4985C160.452 40.4985 161.86 40.4233 163.494 40.1021L163.631 40.9907C161.895 41.2915 160.418 41.3872 158.135 41.3872H157.219V35.3169H162.811ZM166.584 34.3052V43.1782H165.504V38.5571H162.018V37.6821H165.504V34.3052H166.584ZM166.912 45.3794V46.2544H158.75V42.5083H159.83V45.3794H166.912ZM181.623 34.2915V37.272H183.455V38.1606H181.623V41.1958H180.557V34.2915H181.623ZM178.301 35.0845C178.287 38.147 176.141 40.3345 172.545 41.3188L172.107 40.4575C175.102 39.6509 176.927 38.0308 177.152 35.9731H172.654V35.0845H178.301ZM181.623 41.7563V46.2817H173.926V41.7563H181.623ZM174.992 42.645V45.4067H180.557V42.645H174.992ZM194.297 34.2915V41.5376H193.217V38.3521H190.77V37.4634H193.217V34.2915H194.297ZM190.264 41.9204C192.793 41.9204 194.338 42.7407 194.338 44.1763C194.338 45.6118 192.793 46.4321 190.264 46.4458C187.734 46.4321 186.189 45.6118 186.189 44.1763C186.189 42.7407 187.734 41.9204 190.264 41.9204ZM190.264 42.7544C188.404 42.7544 187.242 43.2876 187.256 44.1763C187.242 45.0513 188.404 45.5845 190.264 45.5845C192.123 45.5845 193.271 45.0513 193.271 44.1763C193.271 43.2876 192.123 42.7544 190.264 42.7544ZM188.445 36.52C188.445 38.106 189.662 39.6099 191.439 40.2251L190.879 41.0864C189.512 40.5942 188.452 39.5757 187.939 38.311C187.406 39.7397 186.278 40.8813 184.836 41.4282L184.275 40.5669C186.08 39.9106 187.365 38.27 187.365 36.5337V36.0825H184.617V35.1802H191.166V36.0825H188.445V36.52ZM198.316 44.4224L197.25 48.1411H196.238L196.99 44.4224H198.316ZM213.137 42.2896V46.2817H204.77V42.2896H208.42V40.7856H203.416V39.8833H214.49V40.7856H209.486V42.2896H213.137ZM205.836 43.1509V45.4067H212.084V43.1509H205.836ZM209.514 34.9888C209.514 36.5063 211.729 37.8599 213.861 38.1333L213.465 38.981C211.578 38.7007 209.732 37.7368 208.967 36.3696C208.188 37.7505 206.328 38.7007 204.455 38.981L204.045 38.1333C206.205 37.8462 208.406 36.5337 208.406 34.9888V34.4146H209.514V34.9888ZM225.564 34.2915V46.4458H224.484V34.2915H225.564ZM221.969 35.6177C221.955 39.1177 220.328 42.2075 216.254 44.1626L215.666 43.2876C218.954 41.729 220.629 39.3979 220.875 36.4927H216.227V35.6177H221.969ZM237.363 35.522V36.7388C237.35 38.229 237.35 39.897 236.912 42.3442L235.818 42.2212C236.283 39.897 236.283 38.188 236.283 36.7388V36.4106H228.791V35.522H237.363ZM238.689 43.8345V44.7231H227.615V43.8345H231.963V39.4868H233.016V43.8345H238.689ZM253.264 34.3052V41.0591H252.197V34.3052H253.264ZM247.535 35.9458C247.521 37.6274 248.834 39.145 250.639 39.7329L250.119 40.5806C248.684 40.0952 247.549 39.0835 247.002 37.7642C246.455 39.1792 245.307 40.2866 243.857 40.7993L243.311 39.9517C245.143 39.3091 246.441 37.7095 246.441 35.9458V34.7563H247.535V35.9458ZM253.346 41.7837V42.6587H251.664V45.4067H253.469V46.2817H245.061V45.4067H246.879V42.6587H245.17V41.7837H253.346ZM247.932 45.4067H250.598V42.6587H247.932V45.4067ZM259.512 42.4399C259.512 43.5269 260.086 44.6753 261.248 45.3384C262.41 44.6138 263.012 43.3765 263.012 42.4399V41.7017H264.064V42.4399C264.064 43.6978 264.967 44.9556 266.553 45.4888L265.992 46.2954C264.782 45.8579 263.935 45.0034 263.531 43.9712C263.142 44.9692 262.396 45.9058 261.262 46.3911C260.093 45.9468 259.348 45.0444 258.979 44.0259C258.541 45.0034 257.707 45.8511 256.545 46.2954L256.012 45.4888C257.557 44.9282 258.473 43.6157 258.486 42.4399V41.7017H259.512V42.4399ZM258.678 34.9888C260.277 34.9888 261.528 35.9458 261.768 37.354H264.324V34.2915H265.404V41.2368H264.324V38.2427H261.781C261.569 39.6987 260.305 40.6763 258.678 40.6763C256.859 40.6763 255.533 39.5142 255.533 37.8325C255.533 36.1646 256.859 34.9888 258.678 34.9888ZM258.678 35.9048C257.461 35.8911 256.559 36.6978 256.572 37.8325C256.559 38.9536 257.461 39.7739 258.678 39.7876C259.867 39.7739 260.77 38.9536 260.77 37.8325C260.77 36.6978 259.867 35.8911 258.678 35.9048ZM273.73 35.3169V36.2056H269.191V40.4985C271.372 40.4985 272.78 40.4233 274.414 40.1021L274.551 40.9907C272.814 41.2915 271.338 41.3872 269.055 41.3872H268.139V35.3169H273.73ZM277.504 34.3052V43.1782H276.424V38.5571H272.938V37.6821H276.424V34.3052H277.504ZM277.832 45.3794V46.2544H269.67V42.5083H270.75V45.3794H277.832ZM294.17 43.9849V44.8872H283.041V43.9849H288.045V41.0181H284.354V35.3169H292.789V41.0181H289.098V43.9849H294.17ZM285.406 36.1782V40.1567H291.75V36.1782H285.406ZM297.615 41.5923V43.0142H303.686V41.5923H304.766V46.2817H296.549V41.5923H297.615ZM297.615 45.4204H303.686V43.8618H297.615V45.4204ZM306.215 39.8423V40.731H295.141V39.8423H306.215ZM301.238 35.0024C301.238 36.5063 303.453 37.8462 305.586 38.1196L305.189 38.981C303.303 38.7007 301.457 37.7368 300.691 36.3696C299.912 37.7437 298.053 38.7007 296.18 38.981L295.77 38.1196C297.93 37.8325 300.131 36.5474 300.131 35.0024V34.4282H301.238V35.0024ZM10.793 51.2915V63.4731H9.71289V51.2915H10.793ZM4.32617 52.2349C6.13086 52.2485 7.42969 53.8892 7.42969 56.4731C7.42969 59.0571 6.13086 60.6978 4.32617 60.6978C2.50781 60.6978 1.22266 59.0571 1.22266 56.4731C1.22266 53.8892 2.50781 52.2485 4.32617 52.2349ZM4.32617 53.1919C3.10938 53.2056 2.26172 54.4907 2.26172 56.4731C2.26172 58.4556 3.10938 59.7407 4.32617 59.7407C5.54297 59.7407 6.39062 58.4556 6.39062 56.4731C6.39062 54.4907 5.54297 53.2056 4.32617 53.1919ZM22.2773 51.2915V56.104H24.3145V57.0063H22.2773V63.4731H21.2109V51.2915H22.2773ZM19.0781 52.481V53.3696H14.4707V59.522C16.6719 59.522 18.2305 59.4194 20.0352 59.0845L20.1719 60.0142C18.2715 60.356 16.6719 60.4243 14.3613 60.4243H13.4043V52.481H19.0781ZM26.2559 62.4204C25.7773 62.4204 25.3672 62.0239 25.3809 61.5317C25.3672 61.0532 25.7773 60.6567 26.2559 60.6567C26.7344 60.6567 27.1309 61.0532 27.1309 61.5317C27.1309 62.0239 26.7344 62.4204 26.2559 62.4204ZM41.418 51.2915V56.3091H43.4551V57.1978H41.418V63.4458H40.3516V51.2915H41.418ZM39.1758 53.2466V54.1353H31.9434V53.2466H35.0742V51.4419H36.1406V53.2466H39.1758ZM35.6211 55.147C37.3438 55.147 38.5879 56.2954 38.6016 57.936C38.5879 59.5767 37.3438 60.7251 35.6211 60.7251C33.8848 60.7251 32.627 59.5767 32.6406 57.936C32.627 56.2954 33.8848 55.147 35.6211 55.147ZM35.6211 56.0493C34.4863 56.0493 33.6523 56.8423 33.666 57.936C33.6523 59.0435 34.4863 59.8228 35.6211 59.8091C36.7422 59.8228 37.5625 59.0435 37.5762 57.936C37.5625 56.8423 36.7422 56.0493 35.6211 56.0493ZM48.459 55.0239C48.459 57.0884 49.9629 59.1802 51.7539 59.9595L51.1523 60.8071C49.7305 60.1577 48.5 58.7563 47.9395 57.0747C47.3652 58.8589 46.1416 60.4106 44.7539 61.1079L44.1113 60.2603C45.8477 59.4263 47.3652 57.1294 47.3789 55.0239V53.438H44.5078V52.5493H51.3574V53.438H48.459V55.0239ZM54.1328 51.2915V63.4458H53.0527V51.2915H54.1328ZM62.3496 52.3989V57.9907H56.7305V52.3989H62.3496ZM57.7832 53.2739V57.1294H61.3105V53.2739H57.7832ZM65.7129 51.2915V54.9966H67.5449V55.8989H65.7129V60.2056H64.6465V51.2915H65.7129ZM66.2734 62.2837V63.186H58.1113V59.3579H59.1641V62.2837H66.2734ZM81.4082 52.5903V53.8071C81.4082 55.3384 81.4082 57.0747 80.957 59.7134L79.8633 59.604C80.3555 57.1157 80.3555 55.2974 80.3555 53.8071V53.479H73.0273V52.5903H81.4082ZM82.8984 60.7661V61.6548H71.8242V60.7661H82.8984ZM97.0215 52.5903V53.8071C97.0215 55.3384 97.0215 57.0747 96.5703 59.7134L95.4766 59.604C95.9688 57.1157 95.9688 55.2974 95.9688 53.8071V53.479H88.6406V52.5903H97.0215ZM98.5117 60.7661V61.6548H87.4375V60.7661H98.5117ZM109.572 51.3052V58.5103H108.506V51.3052H109.572ZM105.703 52.0435V55.3384H101.219V57.02C103.393 57.0337 105.02 56.9653 106.988 56.6372L107.111 57.5396C105.074 57.854 103.406 57.9224 101.164 57.9224H100.18V54.4907H104.637V52.9048H100.152V52.0435H105.703ZM109.572 59.1665V63.2817H101.67V59.1665H109.572ZM102.723 60.0415V62.4067H108.52V60.0415H102.723ZM115.752 55.0239C115.738 56.979 117.146 59.1255 118.91 59.9595L118.295 60.8071C116.928 60.144 115.772 58.6948 115.232 57.0474C114.672 58.8384 113.448 60.4106 112.088 61.1079L111.432 60.2603C113.182 59.4126 114.686 57.1021 114.699 55.0239V53.438H111.869V52.5493H118.486V53.438H115.752V55.0239ZM121.043 51.2915V56.2134H123.08V57.1294H121.043V63.4458H119.977V51.2915H121.043ZM137.326 59.1255V63.4458H136.246V59.9868H129.15V59.1255H137.326ZM137.326 51.2915V58.4556H136.246V56.7056H133.115C132.548 57.396 131.652 57.8062 130.6 57.7993C128.781 57.813 127.441 56.6099 127.441 54.8872C127.441 53.1919 128.781 51.9888 130.6 51.9888C131.646 51.9888 132.541 52.3989 133.115 53.0825H136.246V51.2915H137.326ZM130.6 52.9048C129.355 52.9048 128.467 53.7388 128.467 54.8872C128.467 56.0767 129.355 56.897 130.6 56.897C131.789 56.897 132.705 56.0767 132.705 54.8872C132.705 53.7388 131.789 52.9048 130.6 52.9048ZM133.594 55.8169H136.246V53.9712H133.594C133.689 54.2583 133.744 54.5591 133.744 54.8872C133.744 55.2153 133.689 55.5298 133.594 55.8169ZM143.67 54.5591C143.656 56.7739 145.174 59.0161 146.965 59.8228L146.309 60.6704C144.928 59.9937 143.731 58.5649 143.15 56.8286C142.583 58.6675 141.387 60.1987 139.965 60.9165L139.281 60.0142C141.086 59.1802 142.59 56.8696 142.604 54.5591V52.3442H143.67V54.5591ZM149.371 51.2915V63.4731H148.291V51.2915H149.371ZM166.338 56.145V57.0474H164.369V63.4458H163.303V51.2915H164.369V56.145H166.338ZM156.535 52.4946V59.4536C158.312 59.4468 160.124 59.3101 162.127 58.8931L162.264 59.8091C160.172 60.2329 158.285 60.356 156.439 60.356H155.469V52.4946H156.535ZM177.48 51.2915V63.4458H176.441V51.2915H177.48ZM175.033 51.5513V62.8306H174.008V56.9243H172.449C172.333 59.2896 171.328 60.7661 169.824 60.7661C168.238 60.7661 167.213 59.1255 167.213 56.5415C167.213 53.9575 168.238 52.3169 169.824 52.3169C171.301 52.3169 172.299 53.7456 172.436 56.0356H174.008V51.5513H175.033ZM169.824 53.3286C168.84 53.3286 168.211 54.5591 168.225 56.5415C168.211 58.5103 168.84 59.7544 169.824 59.7407C170.809 59.7544 171.438 58.5103 171.438 56.5415C171.438 54.5591 170.809 53.3286 169.824 53.3286ZM189.566 51.2915V63.4458H188.541V51.2915H189.566ZM187.01 51.6196V62.8306H185.984V57.1567H183.414C182.669 58.5718 181.5 59.8228 179.805 60.8208L179.176 60.0415C181.821 58.4761 183.147 56.2817 183.346 53.7388H179.695V52.8501H184.412C184.405 54.0464 184.214 55.2017 183.811 56.2817H185.984V51.6196H187.01ZM195.541 54.5591C195.541 56.7603 196.949 58.9751 198.713 59.7817L198.07 60.6567C196.689 59.9458 195.548 58.4897 195.008 56.7603C194.468 58.5786 193.326 60.1372 191.945 60.8755L191.248 60.0142C193.025 59.1392 194.447 56.8013 194.447 54.5591V52.3442H195.541V54.5591ZM201.338 51.2915V63.4731H200.271V56.3228H197.387V55.4478H200.271V51.2915H201.338ZM216.896 51.2915V63.4731H215.816V51.2915H216.896ZM208.652 52.3306V55.5435H212.275V52.3306H213.328V60.5337H207.586V52.3306H208.652ZM208.652 59.6313H212.275V56.4048H208.652V59.6313ZM230.09 57.854V58.7427H218.961V57.854H223.992V56.6372H220.41V53.7388H227.574V52.522H220.369V51.6743H228.654V54.5454H221.477V55.7896H228.914V56.6372H225.045V57.854H230.09ZM225.072 59.6313C225.072 61.1626 226.973 62.2837 229.201 62.5708L228.805 63.3911C226.952 63.1245 225.257 62.3247 224.525 61.0532C223.794 62.3247 222.099 63.1245 220.246 63.3911L219.85 62.5708C222.064 62.2837 223.979 61.1626 223.979 59.6313V59.3853H225.072V59.6313ZM238.143 55.2837V56.1587H235.682V57.854C236.816 57.8062 237.951 57.7241 239.004 57.6079L239.086 58.4009C236.475 58.7563 233.576 58.8384 231.293 58.8384L231.129 57.9634C232.195 57.9565 233.392 57.9429 234.615 57.895V56.1587H232.236V52.0845H238.047V52.9731H233.316V55.2837H238.143ZM241.096 51.3052V60.397H240.016V51.3052H241.096ZM241.492 62.2837V63.186H233.207V59.7681H234.273V62.2837H241.492ZM256.764 51.3052V59.5356H255.684V55.6255H253.018V54.7231H255.684V51.3052H256.764ZM252.963 52.2622C252.949 55.3794 250.871 57.6216 247.371 58.7427L246.893 57.8813C249.798 56.9858 251.589 55.2974 251.814 53.1372H247.494V52.2622H252.963ZM253.346 59.0298C253.346 60.8071 255.287 62.1333 257.434 62.5161L256.982 63.3774C255.191 63.0288 253.544 62.0923 252.826 60.6704C252.081 62.0991 250.413 63.0493 248.602 63.4048L248.164 62.5571C250.311 62.188 252.279 60.8208 252.293 59.0298V58.4692H253.346V59.0298ZM268.809 51.2915V63.4731H267.729V51.2915H268.809ZM262.342 52.2349C264.146 52.2485 265.445 53.8892 265.445 56.4731C265.445 59.0571 264.146 60.6978 262.342 60.6978C260.523 60.6978 259.238 59.0571 259.238 56.4731C259.238 53.8892 260.523 52.2485 262.342 52.2349ZM262.342 53.1919C261.125 53.2056 260.277 54.4907 260.277 56.4731C260.277 58.4556 261.125 59.7407 262.342 59.7407C263.559 59.7407 264.406 58.4556 264.406 56.4731C264.406 54.4907 263.559 53.2056 262.342 53.1919ZM276.916 52.5083V54.2173H279.896V51.2915H280.963V63.4731H279.896V58.4556H276.916V60.3696H271.379V52.5083H276.916ZM272.445 53.356V59.5083H275.877V53.356H272.445ZM276.916 57.5669H279.896V55.106H276.916V57.5669ZM284.982 61.4224L283.916 65.1411H282.904L283.656 61.4224H284.982ZM301.457 56.145V57.0474H299.488V63.4458H298.422V51.2915H299.488V56.145H301.457ZM291.654 52.4946V59.4536C293.432 59.4468 295.243 59.3101 297.246 58.8931L297.383 59.8091C295.291 60.2329 293.404 60.356 291.559 60.356H290.588V52.4946H291.654ZM306.16 52.1802C308.074 52.1802 309.428 53.3423 309.428 55.0376C309.428 56.7329 308.074 57.895 306.16 57.895C304.246 57.895 302.865 56.7329 302.879 55.0376C302.865 53.3423 304.246 52.1802 306.16 52.1802ZM306.16 53.1235C304.861 53.1235 303.918 53.9028 303.932 55.0376C303.918 56.1724 304.861 56.9517 306.16 56.9517C307.445 56.9517 308.375 56.1724 308.375 55.0376C308.375 53.9028 307.445 53.1235 306.16 53.1235ZM312.148 51.2915V63.4731H311.082V51.2915H312.148ZM302.25 59.8774C304.492 59.8774 307.582 59.8638 310.275 59.4673L310.357 60.2603C307.582 60.7798 304.588 60.7935 302.4 60.7935L302.25 59.8774ZM4.2168 68.7427C6.03516 68.7563 7.36133 69.8501 7.36133 71.436C7.36133 73.022 6.03516 74.1157 4.2168 74.1157C2.37109 74.1157 1.05859 73.022 1.05859 71.436C1.05859 69.8501 2.37109 68.7563 4.2168 68.7427ZM4.2168 69.645C3 69.645 2.09766 70.3833 2.11133 71.436C2.09766 72.5024 3 73.2407 4.2168 73.2407C5.41992 73.2407 6.32227 72.5024 6.32227 71.436C6.32227 70.3833 5.41992 69.645 4.2168 69.645ZM10.8066 68.2915V74.5396H9.74023V68.2915H10.8066ZM10.8066 75.1274V78.0532H3.98438V79.4204H11.2441V80.2817H2.93164V77.2466H9.74023V75.9888H2.9043V75.1274H10.8066ZM23.9863 75.5103V76.3853H18.9141V80.4458H17.8613V76.3853H12.8574V75.5103H23.9863ZM15.3457 68.7974V70.479H21.4707V68.7974H22.5508V74.0337H14.2793V68.7974H15.3457ZM15.3457 73.1587H21.4707V71.354H15.3457V73.1587ZM34.377 68.2915V73.104H36.4141V74.0063H34.377V80.4731H33.3105V68.2915H34.377ZM31.1777 69.481V70.3696H26.5703V76.522C28.7715 76.522 30.3301 76.4194 32.1348 76.0845L32.2715 77.0142C30.3711 77.356 28.7715 77.4243 26.4609 77.4243H25.5039V69.481H31.1777ZM38.3555 79.4204C37.877 79.4204 37.4668 79.0239 37.4805 78.5317C37.4668 78.0532 37.877 77.6567 38.3555 77.6567C38.834 77.6567 39.2305 78.0532 39.2305 78.5317C39.2305 79.0239 38.834 79.4204 38.3555 79.4204ZM48.4863 70.9028C48.4863 72.5435 49.7852 74.02 51.6035 74.5942L51.0566 75.4556C49.6416 74.9771 48.5137 73.979 47.9668 72.6938C47.4336 74.0815 46.292 75.1753 44.8496 75.7017L44.2891 74.8403C46.1074 74.1978 47.4062 72.6255 47.4062 70.9028V70.1919H44.5625V69.3169H51.2891V70.1919H48.4863V70.9028ZM54.1465 68.3052V77.2192H53.0801V68.3052H54.1465ZM54.5293 79.2837V80.186H46.2988V76.3716H47.3652V79.2837H54.5293ZM66.2871 68.2915V75.5376H65.207V72.3521H62.7598V71.4634H65.207V68.2915H66.2871ZM62.2539 75.9204C64.7832 75.9204 66.3281 76.7407 66.3281 78.1763C66.3281 79.6118 64.7832 80.4321 62.2539 80.4458C59.7246 80.4321 58.1797 79.6118 58.1797 78.1763C58.1797 76.7407 59.7246 75.9204 62.2539 75.9204ZM62.2539 76.7544C60.3945 76.7544 59.2324 77.2876 59.2461 78.1763C59.2324 79.0513 60.3945 79.5845 62.2539 79.5845C64.1133 79.5845 65.2617 79.0513 65.2617 78.1763C65.2617 77.2876 64.1133 76.7544 62.2539 76.7544ZM60.4355 70.52C60.4355 72.106 61.6523 73.6099 63.4297 74.2251L62.8691 75.0864C61.502 74.5942 60.4424 73.5757 59.9297 72.311C59.3965 73.7397 58.2686 74.8813 56.8262 75.4282L56.2656 74.5669C58.0703 73.9106 59.3555 72.27 59.3555 70.5337V70.0825H56.6074V69.1802H63.1562V70.0825H60.4355V70.52ZM77.8125 68.3052V72.311H79.6445V73.2134H77.8125V77.4106H76.7461V68.3052H77.8125ZM75.584 69.7954V70.6704H68.3379V69.7954H71.4277V68.3052H72.4941V69.7954H75.584ZM71.9609 71.3403C73.6973 71.3403 74.873 72.229 74.8867 73.6099C74.873 74.9771 73.6973 75.8521 71.9609 75.8521C70.2109 75.8521 69.0215 74.9771 69.0352 73.6099C69.0215 72.229 70.2109 71.3403 71.9609 71.3403ZM71.9609 72.188C70.8125 72.188 70.0469 72.7485 70.0605 73.6099C70.0469 74.4712 70.8125 75.0181 71.9609 75.0044C73.0957 75.0181 73.8613 74.4712 73.875 73.6099C73.8613 72.7485 73.0957 72.188 71.9609 72.188ZM78.373 79.2837V80.186H70.2109V76.686H71.2637V79.2837H78.373ZM88.0391 72.0239C88.0254 73.979 89.4336 76.1255 91.1973 76.9595L90.582 77.8071C89.2148 77.144 88.0596 75.6948 87.5195 74.0474C86.959 75.8384 85.7354 77.4106 84.375 78.1079L83.7188 77.2603C85.4688 76.4126 86.9727 74.1021 86.9863 72.0239V70.438H84.1562V69.5493H90.7734V70.438H88.0391V72.0239ZM93.3301 68.2915V73.2134H95.3672V74.1294H93.3301V80.4458H92.2637V68.2915H93.3301ZM106.072 68.2915V80.4458H104.992V68.2915H106.072ZM102.477 69.6177C102.463 73.1177 100.836 76.2075 96.7617 78.1626L96.1738 77.2876C99.4619 75.729 101.137 73.3979 101.383 70.4927H96.7344V69.6177H102.477ZM110.885 69.3169C112.471 69.3169 113.496 70.9575 113.51 73.5415C113.496 76.1255 112.471 77.7661 110.885 77.7661C109.299 77.7661 108.273 76.1255 108.273 73.5415C108.273 70.9575 109.299 69.3169 110.885 69.3169ZM110.885 70.3286C109.9 70.3286 109.271 71.5591 109.285 73.5415C109.271 75.5103 109.9 76.7544 110.885 76.7407C111.869 76.7544 112.498 75.5103 112.498 73.5415C112.498 71.5591 111.869 70.3286 110.885 70.3286ZM118.541 68.2915V80.4458H117.502V74.0063H115.807V79.8306H114.781V68.5513H115.807V73.1177H117.502V68.2915H118.541ZM130.053 71.9829V72.8442H121.727V68.7427H122.793V71.9829H130.053ZM131.338 74.4985V75.3735H120.209V74.4985H131.338ZM130.121 79.2563V80.145H121.658V76.6177H122.725V79.2563H130.121ZM147.211 73.145V74.0474H145.242V80.4458H144.176V68.2915H145.242V73.145H147.211ZM137.408 69.4946V76.4536C139.186 76.4468 140.997 76.3101 143 75.8931L143.137 76.8091C141.045 77.2329 139.158 77.356 137.312 77.356H136.342V69.4946H137.408ZM151.914 69.1802C153.828 69.1802 155.182 70.3423 155.182 72.0376C155.182 73.7329 153.828 74.895 151.914 74.895C150 74.895 148.619 73.7329 148.633 72.0376C148.619 70.3423 150 69.1802 151.914 69.1802ZM151.914 70.1235C150.615 70.1235 149.672 70.9028 149.686 72.0376C149.672 73.1724 150.615 73.9517 151.914 73.9517C153.199 73.9517 154.129 73.1724 154.129 72.0376C154.129 70.9028 153.199 70.1235 151.914 70.1235ZM157.902 68.2915V80.4731H156.836V68.2915H157.902ZM148.004 76.8774C150.246 76.8774 153.336 76.8638 156.029 76.4673L156.111 77.2603C153.336 77.7798 150.342 77.7935 148.154 77.7935L148.004 76.8774ZM165.121 68.8794V70.6704H168.662V68.8794H169.729V74.2251H164.068V68.8794H165.121ZM165.121 73.3638H168.662V71.4907H165.121V73.3638ZM173.051 68.2915V70.9712H174.883V71.8872H173.051V74.7856H171.984V68.2915H173.051ZM168.771 75.4556V78.2173H165.859V79.4888C167.562 79.4819 168.471 79.4341 169.578 79.2153L169.701 80.0356C168.457 80.2817 167.5 80.3091 165.531 80.3091H164.82V77.4243H167.732V76.2896H164.793V75.4556H168.771ZM173.051 75.4556V80.4048H171.984V76.3169H169.305V75.4556H173.051ZM186.723 74.7036V75.5786H175.648V74.7036H186.723ZM185.492 79.2837V80.186H177.084V76.645H178.164V79.2837H185.492ZM181.186 68.729C183.797 68.7153 185.479 69.6177 185.479 71.1353C185.479 72.6528 183.797 73.5552 181.186 73.5552C178.547 73.5552 176.879 72.6528 176.879 71.1353C176.879 69.6177 178.547 68.7153 181.186 68.729ZM181.186 69.5903C179.23 69.5903 177.973 70.1782 177.986 71.1353C177.973 72.0923 179.23 72.6802 181.186 72.6802C183.127 72.6802 184.385 72.0923 184.385 71.1353C184.385 70.1782 183.127 69.5903 181.186 69.5903ZM197.414 69.3579V70.438H200.258V68.3052H201.338V77.1782H200.258V73.938H197.414V75.0317H191.836V69.3579H197.414ZM192.902 70.2466V74.1704H196.361V70.2466H192.902ZM201.611 79.2837V80.186H193.477V76.3853H194.557V79.2837H201.611ZM197.414 73.0493H200.258V71.3403H197.414V73.0493ZM209.5 69.3989V74.9907H203.881V69.3989H209.5ZM204.934 70.2739V74.1294H208.461V70.2739H204.934ZM212.863 68.2915V71.9966H214.695V72.8989H212.863V77.2056H211.797V68.2915H212.863ZM213.424 79.2837V80.186H205.262V76.3579H206.314V79.2837H213.424ZM225.482 68.2915V80.4731H224.402V68.2915H225.482ZM219.016 69.2349C220.82 69.2485 222.119 70.8892 222.119 73.4731C222.119 76.0571 220.82 77.6978 219.016 77.6978C217.197 77.6978 215.912 76.0571 215.912 73.4731C215.912 70.8892 217.197 69.2485 219.016 69.2349ZM219.016 70.1919C217.799 70.2056 216.951 71.4907 216.951 73.4731C216.951 75.4556 217.799 76.7407 219.016 76.7407C220.232 76.7407 221.08 75.4556 221.08 73.4731C221.08 71.4907 220.232 70.2056 219.016 70.1919ZM234.328 69.2349C236.119 69.2485 237.391 70.8892 237.404 73.4731C237.391 76.0571 236.119 77.6978 234.328 77.6978C232.523 77.6978 231.266 76.0571 231.266 73.4731C231.266 70.8892 232.523 69.2485 234.328 69.2349ZM234.328 70.1919C233.125 70.2056 232.277 71.4907 232.277 73.4731C232.277 75.4556 233.125 76.7407 234.328 76.7407C235.545 76.7407 236.365 75.4556 236.365 73.4731C236.365 71.4907 235.545 70.2056 234.328 70.1919ZM240.48 68.2915V73.145H242.518V74.0747H240.48V80.4458H239.414V68.2915H240.48ZM253.195 68.2915V80.4458H252.129V68.2915H253.195ZM245.02 69.4946V76.3853C246.872 76.3784 248.793 76.228 250.83 75.7974L250.98 76.7134C248.82 77.1646 246.893 77.3149 244.951 77.3149H243.967V69.4946H245.02ZM264.68 68.2915V73.1313H266.717V74.0337H264.68V80.4731H263.613V68.2915H264.68ZM261.275 69.4263V73.7739H256.846V76.6177C259.102 76.6177 260.674 76.5425 262.52 76.1938L262.629 77.0825C260.715 77.438 259.088 77.52 256.75 77.5337H255.779V72.8853H260.209V70.3149H255.752V69.4263H261.275ZM269.369 78.4224L268.303 82.1411H267.291L268.043 78.4224H269.369ZM284.053 69.5903V70.8071C284.053 72.3384 284.053 74.0747 283.602 76.7134L282.508 76.604C283 74.1157 283 72.2974 283 70.8071V70.479H275.672V69.5903H284.053ZM285.543 77.7661V78.6548H274.469V77.7661H285.543ZM299.666 69.5903V70.8071C299.666 72.3384 299.666 74.0747 299.215 76.7134L298.121 76.604C298.613 74.1157 298.613 72.2974 298.613 70.8071V70.479H291.285V69.5903H299.666ZM301.156 77.7661V78.6548H290.082V77.7661H301.156ZM312.217 68.3052V75.5103H311.15V68.3052H312.217ZM308.348 69.0435V72.3384H303.863V74.02C306.037 74.0337 307.664 73.9653 309.633 73.6372L309.756 74.5396C307.719 74.854 306.051 74.9224 303.809 74.9224H302.824V71.4907H307.281V69.9048H302.797V69.0435H308.348ZM312.217 76.1665V80.2817H304.314V76.1665H312.217ZM305.367 77.0415V79.4067H311.164V77.0415H305.367ZM4.88672 89.0239C4.87305 90.979 6.28125 93.1255 8.04492 93.9595L7.42969 94.8071C6.0625 94.144 4.90723 92.6948 4.36719 91.0474C3.80664 92.8384 2.58301 94.4106 1.22266 95.1079L0.566406 94.2603C2.31641 93.4126 3.82031 91.1021 3.83398 89.0239V87.438H1.00391V86.5493H7.62109V87.438H4.88672V89.0239ZM10.1777 85.2915V90.2134H12.2148V91.1294H10.1777V97.4458H9.11133V85.2915H10.1777ZM22.4961 85.2915V90.3091H24.3418V91.2114H22.4961V97.4458H21.416V85.2915H22.4961ZM16.5625 86.6177C16.5488 89.5161 15.8926 92.3599 13.6914 94.6978L12.8301 94.0825C14.6689 92.2026 15.4072 89.9399 15.5508 87.52H13.2129V86.6177H16.5625ZM19.8984 86.6177C19.8848 89.5024 19.4609 92.8521 17.1914 95.5044L16.3164 94.9028C18.2168 92.7563 18.791 90.0562 18.8867 87.52H16.9453V86.6177H19.8984ZM29.3184 89.0239C29.3184 91.0884 30.8223 93.1802 32.6133 93.9595L32.0117 94.8071C30.5898 94.1577 29.3594 92.7563 28.7988 91.0747C28.2246 92.8589 27.001 94.4106 25.6133 95.1079L24.9707 94.2603C26.707 93.4263 28.2246 91.1294 28.2383 89.0239V87.438H25.3672V86.5493H32.2168V87.438H29.3184V89.0239ZM34.9922 85.2915V97.4458H33.9121V85.2915H34.9922ZM50.6055 85.2915V97.4458H49.5527V92.729H46.4902C46.0869 93.6997 45.5537 94.6362 44.8359 95.4907L43.9336 94.9028C45.7998 92.7563 46.4014 90.0562 46.5039 87.52H44.6035V86.6177H47.5293C47.5293 87.2603 47.502 87.9302 47.4336 88.6138H49.5527V85.2915H50.6055ZM44.2344 86.6177C44.2344 89.4888 43.5098 92.3599 41.3359 94.6567L40.4746 94.0415C42.2656 92.2026 43.0518 89.9331 43.1953 87.52H40.8984V86.6177H44.2344ZM46.8184 91.8267H49.5527V89.4888H47.3379C47.2217 90.2681 47.0576 91.0542 46.8184 91.8267ZM62.1855 85.2915V88.9966H64.0176V89.8989H62.1855V94.2603H61.1191V85.2915H62.1855ZM62.7461 96.2837V97.186H54.584V93.3306H55.6367V96.2837H62.7461ZM56.1016 86.1528C57.9199 86.1528 59.2871 87.3833 59.3008 89.147C59.2871 90.9106 57.9199 92.1411 56.1016 92.1411C54.2832 92.1411 52.9023 90.9106 52.916 89.147C52.9023 87.3833 54.2832 86.1528 56.1016 86.1528ZM56.1016 87.0962C54.8984 87.0962 53.9551 87.9438 53.9688 89.147C53.9551 90.3501 54.8984 91.1978 56.1016 91.1978C57.332 91.1978 58.248 90.3501 58.248 89.147C58.248 87.9438 57.332 87.0962 56.1016 87.0962ZM74.6133 88.9829V89.8442H66.2871V85.7427H67.3535V88.9829H74.6133ZM75.8984 91.4985V92.3735H64.7695V91.4985H75.8984ZM74.6816 96.2563V97.145H66.2188V93.6177H67.2852V96.2563H74.6816ZM90.4727 85.3052V93.5356H89.3926V89.6255H86.7266V88.7231H89.3926V85.3052H90.4727ZM86.6719 86.2622C86.6582 89.3794 84.5801 91.6216 81.0801 92.7427L80.6016 91.8813C83.5068 90.9858 85.2979 89.2974 85.5234 87.1372H81.2031V86.2622H86.6719ZM87.0547 93.0298C87.0547 94.8071 88.9961 96.1333 91.1426 96.5161L90.6914 97.3774C88.9004 97.0288 87.2529 96.0923 86.5352 94.6704C85.79 96.0991 84.1221 97.0493 82.3105 97.4048L81.873 96.5571C84.0195 96.188 85.9883 94.8208 86.002 93.0298V92.4692H87.0547V93.0298ZM102.518 85.2915V97.4731H101.438V85.2915H102.518ZM96.0508 86.2349C97.8555 86.2485 99.1543 87.8892 99.1543 90.4731C99.1543 93.0571 97.8555 94.6978 96.0508 94.6978C94.2324 94.6978 92.9473 93.0571 92.9473 90.4731C92.9473 87.8892 94.2324 86.2485 96.0508 86.2349ZM96.0508 87.1919C94.834 87.2056 93.9863 88.4907 93.9863 90.4731C93.9863 92.4556 94.834 93.7407 96.0508 93.7407C97.2676 93.7407 98.1152 92.4556 98.1152 90.4731C98.1152 88.4907 97.2676 87.2056 96.0508 87.1919ZM114.002 85.2915V90.104H116.039V91.0063H114.002V97.4731H112.936V85.2915H114.002ZM110.803 86.481V87.3696H106.195V93.522C108.396 93.522 109.955 93.4194 111.76 93.0845L111.896 94.0142C109.996 94.356 108.396 94.4243 106.086 94.4243H105.129V86.481H110.803ZM117.98 96.4204C117.502 96.4204 117.092 96.0239 117.105 95.5317C117.092 95.0532 117.502 94.6567 117.98 94.6567C118.459 94.6567 118.855 95.0532 118.855 95.5317C118.855 96.0239 118.459 96.4204 117.98 96.4204ZM133.758 85.2915V92.3599H132.705V85.2915H133.758ZM134.072 93.2212V94.0688H130.463C130.524 95.2241 132.438 96.3589 134.496 96.6118L134.1 97.4458C132.281 97.186 130.62 96.3315 129.902 95.2036C129.178 96.3589 127.469 97.1997 125.637 97.4458L125.254 96.6255C127.312 96.3999 129.294 95.2651 129.355 94.0688H125.76V93.2212H129.369V92.0454H130.436V93.2212H134.072ZM125.445 85.811V87.6978H129.027V85.811H130.094V91.2388H124.379V85.811H125.445ZM125.445 90.3774H129.027V88.5317H125.445V90.3774ZM142.576 86.645V87.2739C142.562 88.231 142.562 89.8442 142.221 92.1001L141.141 92.0044C141.469 89.9673 141.496 88.4907 141.496 87.52H136.396V86.645H142.576ZM139.391 90.1177V93.8091C140.737 93.7612 142.118 93.6724 143.383 93.522L143.438 94.3286C140.881 94.7251 138.023 94.7798 135.85 94.7661L135.713 93.8774C136.513 93.8706 137.401 93.8638 138.338 93.8364V90.1177H139.391ZM145.215 85.2915V90.3774H147.184V91.3071H145.215V97.4458H144.148V85.2915H145.215ZM161.033 86.5903V87.8071C161.033 89.3384 161.033 91.0747 160.582 93.7134L159.488 93.604C159.98 91.1157 159.98 89.2974 159.98 87.8071V87.479H152.652V86.5903H161.033ZM162.523 94.7661V95.6548H151.449V94.7661H162.523ZM173.584 85.3052V92.5103H172.518V85.3052H173.584ZM169.715 86.0435V89.3384H165.23V91.02C167.404 91.0337 169.031 90.9653 171 90.6372L171.123 91.5396C169.086 91.854 167.418 91.9224 165.176 91.9224H164.191V88.4907H168.648V86.9048H164.164V86.0435H169.715ZM173.584 93.1665V97.2817H165.682V93.1665H173.584ZM166.734 94.0415V96.4067H172.531V94.0415H166.734ZM179.764 89.0239C179.75 90.979 181.158 93.1255 182.922 93.9595L182.307 94.8071C180.939 94.144 179.784 92.6948 179.244 91.0474C178.684 92.8384 177.46 94.4106 176.1 95.1079L175.443 94.2603C177.193 93.4126 178.697 91.1021 178.711 89.0239V87.438H175.881V86.5493H182.498V87.438H179.764V89.0239ZM185.055 85.2915V90.2134H187.092V91.1294H185.055V97.4458H183.988V85.2915H185.055ZM197.154 85.2915V90.2407H199.123V91.1431H197.154V97.4458H196.088V85.2915H197.154ZM194.01 86.604C194.01 90.0493 192.396 93.1802 188.432 95.1353L187.83 94.2876C190.975 92.7222 192.684 90.3843 192.93 87.5063H188.391V86.604H194.01ZM208.857 92.9751C211.469 92.9751 213.123 93.7954 213.123 95.2036C213.123 96.5981 211.469 97.4185 208.857 97.4185C206.26 97.4185 204.605 96.5981 204.605 95.2036C204.605 93.7954 206.26 92.9751 208.857 92.9751ZM208.857 93.7954C206.916 93.8091 205.658 94.3423 205.672 95.2036C205.658 96.0513 206.916 96.5708 208.857 96.5708C210.799 96.5708 212.043 96.0513 212.057 95.2036C212.043 94.3423 210.799 93.8091 208.857 93.7954ZM213.027 85.9204V86.9458C213.027 87.9302 213.027 88.9146 212.686 90.1724L211.633 90.0493C211.961 88.7915 211.961 87.9028 211.961 86.9458V86.7954H204.688V85.9204H213.027ZM214.436 90.9653V91.8403H203.375V90.9653H207.955V88.6138H209.008V90.9653H214.436ZM221.695 86.8091C221.682 88.313 223.732 89.5435 225.879 89.8169L225.455 90.6919C223.493 90.3843 221.661 89.4136 220.998 87.9849C220.342 89.4136 218.517 90.3843 216.541 90.6919L216.145 89.8169C218.291 89.5435 220.301 88.313 220.301 86.8091V86.7817H216.473V85.8931H225.551V86.7817H221.695V86.8091ZM225.305 96.2837V97.186H216.896V93.7271H217.977V96.2837H225.305ZM226.576 91.854V92.7427H215.461V91.854H220.465V89.8169H221.518V91.854H226.576ZM237.062 85.2505V88.2036H238.908V89.0923H237.062V91.9771H235.996V85.2505H237.062ZM237.062 92.606V95.2993H230.391V96.4888H237.514V97.3091H229.338V94.5063H235.996V93.4126H229.311V92.606H237.062ZM234.834 86.3989V87.2603H227.588V86.3989H230.678V85.1685H231.744V86.3989H234.834ZM231.211 87.8071C232.975 87.8071 234.123 88.5728 234.137 89.8032C234.123 91.0337 232.975 91.7993 231.211 91.7993C229.434 91.7993 228.271 91.0337 228.285 89.8032C228.271 88.5728 229.434 87.8071 231.211 87.8071ZM231.211 88.6001C230.062 88.6001 229.297 89.0786 229.311 89.8032C229.297 90.5415 230.062 90.9927 231.211 90.9927C232.359 90.9927 233.111 90.5415 233.125 89.8032C233.111 89.0786 232.359 88.6001 231.211 88.6001ZM251.227 85.5649V90.2681H252.703V85.2915H253.729V97.4458H252.703V91.1567H251.227V96.8442H250.229V85.5649H251.227ZM246.182 86.8364V87.7251H244.541V93.3579C244.999 93.3442 245.601 93.2896 246.264 93.1255L246.359 94.0415C245.334 94.2739 244.541 94.2739 244.021 94.2739H243.543V86.8364H246.182ZM249.408 86.8364V87.7251H247.686V93.3579C248.253 93.3511 248.93 93.2964 249.668 93.0845L249.764 94.0005C248.752 94.2739 247.918 94.2739 247.207 94.2739H246.715V86.8364H249.408ZM257.27 95.4224L256.203 99.1411H255.191L255.943 95.4224H257.27ZM273.744 90.145V91.0474H271.775V97.4458H270.709V85.2915H271.775V90.145H273.744ZM263.941 86.4946V93.4536C265.719 93.4468 267.53 93.3101 269.533 92.8931L269.67 93.8091C267.578 94.2329 265.691 94.356 263.846 94.356H262.875V86.4946H263.941ZM284.299 88.9829V89.8442H275.973V85.7427H277.039V88.9829H284.299ZM285.584 91.4985V92.3735H274.455V91.4985H285.584ZM284.367 96.2563V97.145H275.904V93.6177H276.971V96.2563H284.367ZM301.457 90.145V91.0474H299.488V97.4458H298.422V85.2915H299.488V90.145H301.457ZM291.654 86.4946V93.4536C293.432 93.4468 295.243 93.3101 297.246 92.8931L297.383 93.8091C295.291 94.2329 293.404 94.356 291.559 94.356H290.588V86.4946H291.654ZM313.297 90.938V91.7856H302.168V90.938H313.297ZM311.902 92.7563V95.3403H304.602V96.5024H312.299V97.2817H303.521V94.6021H310.836V93.563H303.508V92.7563H311.902ZM311.861 85.6606V88.1763H304.684V89.2427H312.08V90.022H303.617V87.438H310.781V86.4399H303.576V85.6606H311.861ZM11.8457 108.772V109.661H0.771484V108.772H5.77539V107.5C3.44434 107.384 2.00195 106.502 2.00195 105.067C2.00195 103.577 3.66992 102.661 6.30859 102.661C8.91992 102.661 10.6016 103.577 10.6016 105.067C10.6016 106.502 9.14551 107.384 6.8418 107.5V108.772H11.8457ZM10.6152 113.284V114.186H2.20703V110.645H3.28711V113.284H10.6152ZM6.30859 103.536C4.35352 103.536 3.0957 104.137 3.10938 105.067C3.0957 106.051 4.35352 106.625 6.30859 106.625C8.25 106.625 9.50781 106.051 9.50781 105.067C9.50781 104.137 8.25 103.536 6.30859 103.536ZM22.9473 102.305V111.219H21.8672V106.557H19.3652V105.668H21.8672V102.305H22.9473ZM23.2891 113.284V114.186H15.1406V110.413H16.2207V113.284H23.2891ZM17.0957 104.807C17.0957 106.379 18.3125 107.911 20.0898 108.512L19.5293 109.374C18.1553 108.881 17.0957 107.856 16.5762 106.598C16.0498 108 14.9287 109.121 13.4863 109.661L12.9258 108.786C14.7168 108.157 16.0156 106.557 16.0156 104.807V104.178H13.2676V103.29H19.8164V104.178H17.0957V104.807ZM34.9922 102.292V114.446H33.9121V102.292H34.9922ZM32.5996 104.274V105.149H25.2441V104.274H28.375V102.415H29.4551V104.274H32.5996ZM28.9492 106.147C30.6992 106.147 31.957 107.295 31.957 108.936C31.957 110.577 30.6992 111.725 28.9492 111.725C27.1855 111.725 25.9141 110.577 25.9277 108.936C25.9141 107.295 27.1855 106.147 28.9492 106.147ZM28.9492 107.049C27.7871 107.049 26.9395 107.842 26.9395 108.936C26.9395 110.043 27.7871 110.823 28.9492 110.809C30.0977 110.823 30.9316 110.043 30.9316 108.936C30.9316 107.842 30.0977 107.049 28.9492 107.049ZM44.6582 105.559C44.6582 107.706 46.0801 109.907 47.8027 110.754L47.1465 111.616C45.8066 110.912 44.6855 109.476 44.1523 107.788C43.6055 109.585 42.457 111.117 41.0898 111.848L40.4062 110.987C42.1836 110.112 43.5918 107.774 43.6055 105.559V103.344H44.6582V105.559ZM49.9902 102.292V107.227H52.0273V108.157H49.9902V114.446H48.9238V102.292H49.9902ZM62.1855 102.305V105.354H64.0312V106.256H62.1855V109.647H61.1191V102.305H62.1855ZM58.7129 103.057V106.338H54.2832V108.034C56.4434 108.034 58.0088 107.958 59.9023 107.637L60.0117 108.54C58.0566 108.868 56.4297 108.936 54.1738 108.936H53.2305V105.491H57.6602V103.946H53.2031V103.057H58.7129ZM58.2891 110.016C60.7637 110.016 62.2949 110.836 62.2949 112.231C62.2949 113.625 60.7637 114.418 58.2891 114.418C55.7734 114.418 54.2559 113.625 54.2559 112.231C54.2559 110.836 55.7734 110.016 58.2891 110.016ZM58.2891 110.864C56.4297 110.864 55.2949 111.37 55.3086 112.231C55.2949 113.079 56.4297 113.584 58.2891 113.584C60.1348 113.584 61.2559 113.079 61.2559 112.231C61.2559 111.37 60.1348 110.864 58.2891 110.864ZM74.2852 102.25V105.204H76.1309V106.092H74.2852V108.977H73.2188V102.25H74.2852ZM74.2852 109.606V112.299H67.6133V113.489H74.7363V114.309H66.5605V111.506H73.2188V110.413H66.5332V109.606H74.2852ZM72.0566 103.399V104.26H64.8105V103.399H67.9004V102.168H68.9668V103.399H72.0566ZM68.4336 104.807C70.1973 104.807 71.3457 105.573 71.3594 106.803C71.3457 108.034 70.1973 108.799 68.4336 108.799C66.6562 108.799 65.4941 108.034 65.5078 106.803C65.4941 105.573 66.6562 104.807 68.4336 104.807ZM68.4336 105.6C67.2852 105.6 66.5195 106.079 66.5332 106.803C66.5195 107.542 67.2852 107.993 68.4336 107.993C69.582 107.993 70.334 107.542 70.3477 106.803C70.334 106.079 69.582 105.6 68.4336 105.6ZM86.4941 103.426C86.4941 105.135 88.7363 106.625 90.9238 106.926L90.4863 107.801C88.5996 107.487 86.7334 106.441 85.9473 104.944C85.168 106.448 83.2949 107.487 81.4082 107.801L80.9707 106.926C83.1582 106.625 85.3867 105.163 85.3867 103.426V102.729H86.4941V103.426ZM91.4707 109.141V110.043H86.4395V114.446H85.3867V110.043H80.3965V109.141H91.4707ZM100.125 110.454C100.125 111.527 100.699 112.668 101.861 113.325C103.01 112.607 103.625 111.397 103.625 110.454V109.784H104.678V110.454C104.678 111.698 105.594 112.956 107.152 113.489L106.619 114.282C105.402 113.851 104.548 113.003 104.131 111.985C103.755 112.969 103.01 113.899 101.889 114.377C100.706 113.926 99.9541 113.031 99.5918 112.012C99.1611 112.997 98.3203 113.844 97.1582 114.282L96.6113 113.489C98.1426 112.915 99.0723 111.616 99.0859 110.454V109.784H100.125V110.454ZM106.045 102.305V109.25H104.979V102.305H106.045ZM99.4824 103.016C101.328 103.016 102.668 104.165 102.668 105.86C102.668 107.528 101.328 108.676 99.4824 108.676C97.6367 108.676 96.2969 107.528 96.2969 105.86C96.2969 104.165 97.6367 103.016 99.4824 103.016ZM99.4824 103.932C98.2383 103.918 97.3359 104.725 97.3496 105.86C97.3359 106.981 98.2383 107.774 99.4824 107.788C100.713 107.774 101.615 106.981 101.615 105.86C101.615 104.725 100.713 103.918 99.4824 103.932ZM117.516 102.292V107.104H119.553V108.006H117.516V114.473H116.449V102.292H117.516ZM114.316 103.481V104.37H109.709V110.522C111.91 110.522 113.469 110.419 115.273 110.084L115.41 111.014C113.51 111.356 111.91 111.424 109.6 111.424H108.643V103.481H114.316ZM121.494 113.42C121.016 113.42 120.605 113.024 120.619 112.532C120.605 112.053 121.016 111.657 121.494 111.657C121.973 111.657 122.369 112.053 122.369 112.532C122.369 113.024 121.973 113.42 121.494 113.42ZM128.07 103.454L127.004 107.172H125.992L126.744 103.454H128.07ZM125.473 103.454L124.406 107.172H123.395L124.146 103.454H125.473Z" fill="#1A1A1A"/>
</svg>
