<svg width="170" height="19" viewBox="0 0 170 19" fill="none" xmlns="http://www.w3.org/2000/svg">
<path d="M29.1454 14.1802V13.2687L32.5683 9.52169C32.97 9.08284 33.3009 8.70139 33.5608 8.37732C33.8207 8.04988 34.0131 7.74269 34.138 7.45575C34.2663 7.16544 34.3305 6.86162 34.3305 6.54431C34.3305 6.17973 34.2427 5.8641 34.0672 5.59742C33.895 5.33074 33.6587 5.12482 33.3583 4.97966C33.0578 4.83451 32.7202 4.76193 32.3455 4.76193C31.9472 4.76193 31.5995 4.84463 31.3024 5.01004C31.0088 5.17208 30.7809 5.39994 30.6189 5.69362C30.4602 5.98731 30.3809 6.33164 30.3809 6.72659H29.1859C29.1859 6.11897 29.326 5.5856 29.6061 5.12651C29.8863 4.66741 30.2678 4.30958 30.7505 4.05303C31.2366 3.79647 31.7818 3.6682 32.386 3.6682C32.9937 3.6682 33.5321 3.79647 34.0013 4.05303C34.4706 4.30958 34.8385 4.65559 35.1052 5.09106C35.3719 5.52653 35.5052 6.01094 35.5052 6.54431C35.5052 6.92576 35.436 7.29878 35.2976 7.66336C35.1626 8.02456 34.9263 8.42796 34.5887 8.87355C34.2545 9.31577 33.7903 9.85588 33.1962 10.4939L30.867 12.9852V13.0662H35.6875V14.1802H29.1454ZM41.1612 14.322C40.3983 14.322 39.7485 14.1143 39.2117 13.6991C38.675 13.2805 38.2649 12.6746 37.9813 11.8813C37.6977 11.0846 37.556 10.1226 37.556 8.99508C37.556 7.87434 37.6977 6.91732 37.9813 6.12403C38.2682 5.32736 38.6801 4.71973 39.2168 4.30114C39.7569 3.87918 40.4051 3.6682 41.1612 3.6682C41.9174 3.6682 42.5638 3.87918 43.1006 4.30114C43.6407 4.71973 44.0525 5.32736 44.3361 6.12403C44.623 6.91732 44.7665 7.87434 44.7665 8.99508C44.7665 10.1226 44.6247 11.0846 44.3411 11.8813C44.0576 12.6746 43.6474 13.2805 43.1107 13.6991C42.574 14.1143 41.9241 14.322 41.1612 14.322ZM41.1612 13.208C41.9174 13.208 42.5048 12.8434 42.9233 12.1142C43.3419 11.3851 43.5512 10.3454 43.5512 8.99508C43.5512 8.09714 43.455 7.33254 43.2626 6.70128C43.0736 6.07002 42.8001 5.58898 42.4423 5.25816C42.0879 4.92734 41.6608 4.76193 41.1612 4.76193C40.4118 4.76193 39.8261 5.13157 39.4042 5.87085C38.9822 6.60676 38.7712 7.64816 38.7712 8.99508C38.7712 9.89302 38.8657 10.6559 39.0548 11.2838C39.2438 11.9117 39.5156 12.3894 39.87 12.7168C40.2278 13.0442 40.6582 13.208 41.1612 13.208ZM46.6906 14.1802V13.2687L50.1136 9.52169C50.5153 9.08284 50.8462 8.70139 51.1061 8.37732C51.366 8.04988 51.5584 7.74269 51.6833 7.45575C51.8116 7.16544 51.8757 6.86162 51.8757 6.54431C51.8757 6.17973 51.788 5.8641 51.6124 5.59742C51.4403 5.33074 51.204 5.12482 50.9035 4.97966C50.6031 4.83451 50.2655 4.76193 49.8908 4.76193C49.4925 4.76193 49.1448 4.84463 48.8477 5.01004C48.554 5.17208 48.3262 5.39994 48.1641 5.69362C48.0055 5.98731 47.9262 6.33164 47.9262 6.72659H46.7312C46.7312 6.11897 46.8712 5.5856 47.1514 5.12651C47.4316 4.66741 47.8131 4.30958 48.2958 4.05303C48.7819 3.79647 49.3271 3.6682 49.9313 3.6682C50.539 3.6682 51.0774 3.79647 51.5466 4.05303C52.0158 4.30958 52.3838 4.65559 52.6505 5.09106C52.9172 5.52653 53.0505 6.01094 53.0505 6.54431C53.0505 6.92576 52.9813 7.29878 52.8429 7.66336C52.7079 8.02456 52.4716 8.42796 52.134 8.87355C51.7998 9.31577 51.3356 9.85588 50.7415 10.4939L48.4123 12.9852V13.0662H53.2328V14.1802H46.6906ZM58.5647 14.322C57.9706 14.322 57.4356 14.2038 56.9596 13.9675C56.4836 13.7312 56.1021 13.4071 55.8152 12.9953C55.5283 12.5835 55.3713 12.1142 55.3443 11.5876H56.5596C56.6068 12.0569 56.8195 12.4451 57.1976 12.7522C57.579 13.0561 58.0347 13.208 58.5647 13.208C58.9901 13.208 59.3682 13.1084 59.699 12.9092C60.0332 12.7101 60.2948 12.4366 60.4838 12.0889C60.6762 11.7378 60.7724 11.3412 60.7724 10.899C60.7724 10.4466 60.6729 10.0432 60.4737 9.68879C60.2779 9.33096 60.0078 9.04909 59.6635 8.84317C59.3192 8.63725 58.9259 8.5326 58.4837 8.52923C58.1664 8.52585 57.8406 8.5748 57.5064 8.67607C57.1722 8.77397 56.8971 8.90056 56.6811 9.05584L55.5063 8.91406L56.1342 3.80998H61.5219V4.92396H57.1874L56.8229 7.98236H56.8836C57.0963 7.81358 57.363 7.67348 57.6837 7.56208C58.0044 7.45069 58.3386 7.39499 58.6863 7.39499C59.3209 7.39499 59.8863 7.54689 60.3826 7.85071C60.8822 8.15115 61.2737 8.56298 61.5573 9.08622C61.8442 9.60946 61.9877 10.207 61.9877 10.8787C61.9877 11.5404 61.8392 12.1311 61.5421 12.651C61.2484 13.1675 60.8433 13.5759 60.3269 13.8764C59.8104 14.1734 59.223 14.322 58.5647 14.322ZM68.1918 14.1802V3.80998H74.4099V4.92396H69.4476V8.42796H73.9441V9.54194H69.4476V14.1802H68.1918ZM76.3986 14.1802V6.40253H77.5936V14.1802H76.3986ZM77.0063 5.10625C76.7733 5.10625 76.5725 5.02692 76.4037 4.86826C76.2383 4.7096 76.1556 4.51888 76.1556 4.29608C76.1556 4.07328 76.2383 3.88255 76.4037 3.72389C76.5725 3.56524 76.7733 3.48591 77.0063 3.48591C77.2392 3.48591 77.4384 3.56524 77.6038 3.72389C77.7725 3.88255 77.8569 4.07328 77.8569 4.29608C77.8569 4.51888 77.7725 4.7096 77.6038 4.86826C77.4384 5.02692 77.2392 5.10625 77.0063 5.10625ZM79.7824 14.1802V6.40253H80.9369V7.57728H81.0179C81.1597 7.19244 81.4162 6.88019 81.7875 6.64051C82.1589 6.40084 82.5775 6.281 83.0433 6.281C83.1311 6.281 83.2408 6.28269 83.3724 6.28606C83.5041 6.28944 83.6037 6.2945 83.6712 6.30125V7.51651C83.6307 7.50638 83.5379 7.49119 83.3927 7.47094C83.2509 7.44731 83.1007 7.43549 82.942 7.43549C82.564 7.43549 82.2264 7.51482 81.9293 7.67348C81.6356 7.82877 81.4027 8.04481 81.2306 8.32162C81.0618 8.59505 80.9774 8.90731 80.9774 9.25838V14.1802H79.7824ZM90.5969 8.1444L89.5234 8.44821C89.4559 8.2693 89.3563 8.09545 89.2247 7.92666C89.0964 7.7545 88.9209 7.61272 88.6981 7.50132C88.4753 7.38992 88.19 7.33422 87.8423 7.33422C87.3663 7.33422 86.9697 7.44393 86.6524 7.66336C86.3384 7.8794 86.1815 8.15452 86.1815 8.48872C86.1815 8.78578 86.2895 9.02039 86.5055 9.19256C86.7216 9.36472 87.0591 9.50818 87.5182 9.62296L88.6727 9.90652C89.3681 10.0753 89.8863 10.3335 90.2273 10.6812C90.5682 11.0256 90.7387 11.4695 90.7387 12.013C90.7387 12.4586 90.6104 12.8569 90.3538 13.208C90.1007 13.559 89.7462 13.8359 89.2905 14.0384C88.8348 14.2409 88.3048 14.3422 87.7005 14.3422C86.9072 14.3422 86.2507 14.17 85.7308 13.8257C85.2109 13.4814 84.8818 12.9784 84.7434 12.3168L85.8776 12.0332C85.9857 12.4518 86.1899 12.7658 86.4903 12.975C86.7942 13.1843 87.1908 13.289 87.6803 13.289C88.2373 13.289 88.6795 13.1708 89.0069 12.9345C89.3378 12.6949 89.5032 12.4079 89.5032 12.0737C89.5032 11.8037 89.4086 11.5775 89.2196 11.3952C89.0306 11.2095 88.7403 11.0711 88.3487 10.98L87.0524 10.6762C86.3401 10.5074 85.8169 10.2458 85.4827 9.89133C85.1519 9.5335 84.9865 9.08622 84.9865 8.54948C84.9865 8.11064 85.1097 7.72243 85.3561 7.38486C85.6059 7.04729 85.9452 6.78229 86.3739 6.58988C86.806 6.39746 87.2954 6.30125 87.8423 6.30125C88.612 6.30125 89.2162 6.47004 89.6551 6.80761C90.0973 7.14518 90.4112 7.59078 90.5969 8.1444ZM95.92 6.40253V7.41524H91.8894V6.40253H95.92ZM93.0641 4.53913H94.2591V11.9522C94.2591 12.2898 94.3081 12.543 94.406 12.7117C94.5072 12.8771 94.6355 12.9885 94.7908 13.0459C94.9495 13.0999 95.1166 13.127 95.2921 13.127C95.4237 13.127 95.5318 13.1202 95.6162 13.1067C95.7006 13.0898 95.7681 13.0763 95.8187 13.0662L96.0618 14.1397C95.9807 14.17 95.8677 14.2004 95.7225 14.2308C95.5773 14.2646 95.3934 14.2814 95.1706 14.2814C94.833 14.2814 94.5022 14.2089 94.1781 14.0637C93.8574 13.9186 93.5907 13.6974 93.3781 13.4004C93.1688 13.1033 93.0641 12.7286 93.0641 12.2763V4.53913ZM107.561 6.40253C107.5 5.88942 107.254 5.49108 106.822 5.20752C106.39 4.92396 105.86 4.78218 105.232 4.78218C104.773 4.78218 104.371 4.85645 104.027 5.00498C103.686 5.15351 103.419 5.35774 103.227 5.61767C103.038 5.8776 102.943 6.17298 102.943 6.5038C102.943 6.78061 103.009 7.01859 103.141 7.21776C103.276 7.41355 103.448 7.57727 103.657 7.70893C103.866 7.8372 104.086 7.94354 104.315 8.02793C104.545 8.10895 104.756 8.17478 104.948 8.22541L106.002 8.50897C106.272 8.57986 106.572 8.67776 106.903 8.80266C107.237 8.92756 107.556 9.09803 107.86 9.31408C108.167 9.52675 108.42 9.80018 108.619 10.1344C108.819 10.4686 108.918 10.8787 108.918 11.3648C108.918 11.9252 108.771 12.4316 108.478 12.8839C108.187 13.3362 107.762 13.6958 107.202 13.9624C106.645 14.2291 105.968 14.3625 105.171 14.3625C104.428 14.3625 103.785 14.2426 103.242 14.003C102.702 13.7633 102.276 13.4291 101.966 13.0004C101.659 12.5716 101.485 12.0737 101.444 11.5066H102.741C102.774 11.8982 102.906 12.2223 103.136 12.4788C103.369 12.732 103.662 12.921 104.017 13.0459C104.374 13.1675 104.759 13.2282 105.171 13.2282C105.65 13.2282 106.081 13.1506 106.462 12.9953C106.844 12.8366 107.146 12.6172 107.369 12.337C107.592 12.0535 107.703 11.7227 107.703 11.3446C107.703 11.0003 107.607 10.7201 107.414 10.504C107.222 10.288 106.969 10.1124 106.655 9.97741C106.341 9.84238 106.002 9.72423 105.637 9.62296L104.361 9.25838C103.551 9.02546 102.909 8.69295 102.437 8.26086C101.964 7.82877 101.728 7.26333 101.728 6.56456C101.728 5.98394 101.885 5.47758 102.199 5.04549C102.516 4.61002 102.941 4.27245 103.475 4.03277C104.012 3.78972 104.611 3.6682 105.272 3.6682C105.941 3.6682 106.535 3.78803 107.055 4.02771C107.575 4.26401 107.986 4.58808 108.29 4.99992C108.597 5.41175 108.76 5.87929 108.776 6.40253H107.561ZM114.082 14.3422C113.332 14.3422 112.686 14.1768 112.142 13.846C111.602 13.5118 111.185 13.0459 110.892 12.4484C110.601 11.8476 110.456 11.1488 110.456 10.3521C110.456 9.55544 110.601 8.8533 110.892 8.24567C111.185 7.63466 111.594 7.15869 112.117 6.81774C112.644 6.47342 113.258 6.30125 113.96 6.30125C114.365 6.30125 114.765 6.36877 115.16 6.5038C115.555 6.63883 115.915 6.85825 116.239 7.16206C116.563 7.4625 116.821 7.86084 117.014 8.35707C117.206 8.8533 117.302 9.4643 117.302 10.1901V10.6964H111.307V9.66347H116.087C116.087 9.22462 115.999 8.83304 115.824 8.48872C115.651 8.1444 115.405 7.87265 115.084 7.67348C114.767 7.47432 114.392 7.37473 113.96 7.37473C113.484 7.37473 113.072 7.49288 112.725 7.72918C112.38 7.96211 112.115 8.26592 111.93 8.64063C111.744 9.01533 111.651 9.41704 111.651 9.84576V10.5344C111.651 11.1218 111.753 11.6197 111.955 12.0282C112.161 12.4332 112.446 12.7421 112.811 12.9548C113.175 13.1641 113.599 13.2687 114.082 13.2687C114.396 13.2687 114.679 13.2248 114.932 13.1371C115.189 13.0459 115.41 12.9109 115.596 12.732C115.781 12.5497 115.925 12.3235 116.026 12.0535L117.181 12.3775C117.059 12.7691 116.855 13.1134 116.568 13.4105C116.281 13.7042 115.927 13.9337 115.505 14.0992C115.083 14.2612 114.608 14.3422 114.082 14.3422ZM119.12 14.1802V6.40253H120.275V7.57728H120.356C120.497 7.19244 120.754 6.88019 121.125 6.64051C121.497 6.40084 121.915 6.281 122.381 6.281C122.469 6.281 122.578 6.28269 122.71 6.28606C122.842 6.28944 122.941 6.2945 123.009 6.30125V7.51651C122.968 7.50638 122.875 7.49119 122.73 7.47094C122.589 7.44731 122.438 7.43549 122.28 7.43549C121.902 7.43549 121.564 7.51482 121.267 7.67348C120.973 7.82877 120.74 8.04481 120.568 8.32162C120.399 8.59505 120.315 8.90731 120.315 9.25838V14.1802H119.12ZM124.425 14.1802V6.40253H125.62V14.1802H124.425ZM125.033 5.10625C124.8 5.10625 124.599 5.02692 124.43 4.86826C124.265 4.7096 124.182 4.51888 124.182 4.29608C124.182 4.07328 124.265 3.88255 124.43 3.72389C124.599 3.56524 124.8 3.48591 125.033 3.48591C125.266 3.48591 125.465 3.56524 125.63 3.72389C125.799 3.88255 125.884 4.07328 125.884 4.29608C125.884 4.51888 125.799 4.7096 125.63 4.86826C125.465 5.02692 125.266 5.10625 125.033 5.10625ZM131.07 14.3422C130.321 14.3422 129.674 14.1768 129.131 13.846C128.591 13.5118 128.174 13.0459 127.88 12.4484C127.59 11.8476 127.445 11.1488 127.445 10.3521C127.445 9.55544 127.59 8.8533 127.88 8.24567C128.174 7.63466 128.582 7.15869 129.105 6.81774C129.632 6.47342 130.246 6.30125 130.949 6.30125C131.354 6.30125 131.754 6.36877 132.149 6.5038C132.544 6.63883 132.903 6.85825 133.227 7.16206C133.551 7.4625 133.809 7.86084 134.002 8.35707C134.194 8.8533 134.29 9.4643 134.29 10.1901V10.6964H128.295V9.66347H133.075C133.075 9.22462 132.987 8.83304 132.812 8.48872C132.64 8.1444 132.393 7.87265 132.073 7.67348C131.755 7.47432 131.381 7.37473 130.949 7.37473C130.473 7.37473 130.061 7.49288 129.713 7.72918C129.369 7.96211 129.104 8.26592 128.918 8.64063C128.732 9.01533 128.64 9.41704 128.64 9.84576V10.5344C128.64 11.1218 128.741 11.6197 128.943 12.0282C129.149 12.4332 129.435 12.7421 129.799 12.9548C130.164 13.1641 130.587 13.2687 131.07 13.2687C131.384 13.2687 131.668 13.2248 131.921 13.1371C132.177 13.0459 132.398 12.9109 132.584 12.732C132.77 12.5497 132.913 12.3235 133.014 12.0535L134.169 12.3775C134.047 12.7691 133.843 13.1134 133.556 13.4105C133.269 13.7042 132.915 13.9337 132.493 14.0992C132.071 14.2612 131.597 14.3422 131.07 14.3422ZM141.617 8.1444L140.544 8.44821C140.476 8.2693 140.377 8.09545 140.245 7.92666C140.117 7.7545 139.941 7.61272 139.719 7.50132C139.496 7.38992 139.211 7.33422 138.863 7.33422C138.387 7.33422 137.99 7.44393 137.673 7.66336C137.359 7.8794 137.202 8.15452 137.202 8.48872C137.202 8.78578 137.31 9.02039 137.526 9.19256C137.742 9.36472 138.08 9.50818 138.539 9.62296L139.693 9.90652C140.389 10.0753 140.907 10.3335 141.248 10.6812C141.589 11.0256 141.759 11.4695 141.759 12.013C141.759 12.4586 141.631 12.8569 141.374 13.208C141.121 13.559 140.767 13.8359 140.311 14.0384C139.855 14.2409 139.325 14.3422 138.721 14.3422C137.928 14.3422 137.271 14.17 136.751 13.8257C136.232 13.4814 135.902 12.9784 135.764 12.3168L136.898 12.0332C137.006 12.4518 137.21 12.7658 137.511 12.975C137.815 13.1843 138.211 13.289 138.701 13.289C139.258 13.289 139.7 13.1708 140.028 12.9345C140.358 12.6949 140.524 12.4079 140.524 12.0737C140.524 11.8037 140.429 11.5775 140.24 11.3952C140.051 11.2095 139.761 11.0711 139.369 10.98L138.073 10.6762C137.361 10.5074 136.837 10.2458 136.503 9.89133C136.172 9.5335 136.007 9.08622 136.007 8.54948C136.007 8.11064 136.13 7.72243 136.377 7.38486C136.626 7.04729 136.966 6.78229 137.394 6.58988C137.827 6.39746 138.316 6.30125 138.863 6.30125C139.633 6.30125 140.237 6.47004 140.676 6.80761C141.118 7.14518 141.432 7.59078 141.617 8.1444Z" fill="#1A1A1A"/>
</svg>
