<svg width="308" height="46" viewBox="0 0 308 46" fill="none" xmlns="http://www.w3.org/2000/svg">
<path d="M26.5531 45.2832L19.6989 45.3473V41.8881C18.8661 42.5287 17.9693 43.1052 17.0084 43.6177C16.1116 44.0661 15.1507 44.4504 14.1899 44.6426C13.5493 44.8348 12.9087 44.9629 12.2681 45.091C10.7948 45.3473 9.32143 45.3473 7.91215 45.1551C6.37475 44.9629 4.96546 44.4504 3.68429 43.6177L3.17183 43.2974C2.97965 43.1693 2.85154 43.0412 2.65936 42.849C2.33907 42.5928 2.01878 42.2084 1.76254 41.8881C1.50631 41.4397 1.25008 41.0553 1.0579 40.6069C0.865725 40.1585 0.737609 39.7742 0.609492 39.3258C0.225142 37.6603 0.353258 35.8666 0.993842 34.2652C1.63443 32.7918 2.5953 31.5747 3.81241 30.6138C5.09358 29.717 6.43881 29.0124 7.84809 28.4999C9.32143 27.9234 10.8588 27.475 12.3962 27.1547C19.1224 25.4892 19.3786 23.3112 19.3786 23.2471H19.4427C19.3786 22.9268 19.3145 22.6065 19.2505 22.2862C19.0583 21.5175 18.738 20.7488 18.2896 20.0442C17.9053 19.3396 17.3287 18.763 16.6881 18.3146C15.7273 17.674 14.6383 17.4178 13.4852 17.4178C12.0759 17.4178 10.7307 17.8662 9.57767 18.699C7.78403 20.1083 6.69504 22.2222 6.63098 24.5283C6.56692 24.9767 5.92634 25.1689 5.09358 25.1048C4.51705 25.1048 4.00459 25.0408 3.49212 24.8486C2.65936 24.5923 2.14689 23.8877 2.46719 23.3752C3.04371 21.9019 3.94053 20.6207 5.02952 19.5317C6.05446 18.4427 7.39968 17.61 8.80897 17.1616C10.3464 16.7132 11.8838 16.4569 13.4852 16.521C14.7664 16.521 15.9835 16.6491 17.2647 16.9053C18.2896 17.0975 19.2505 17.4819 20.1473 17.9303C21.3004 18.5709 22.1972 19.4677 22.9018 20.5567C23.8627 22.1581 24.3752 24.0799 24.3752 25.9376V40.6069C24.3752 42.3365 25.0798 44.002 26.361 45.1551L26.5531 45.2832ZM16.56 42.7849C17.7131 42.2084 18.738 41.5038 19.6989 40.671V25.9376C19.6989 25.4892 19.6989 25.1048 19.6348 24.7205C18.8021 25.6813 16.8803 27.0266 12.5884 28.0515C9.32143 28.8843 7.01533 30.6138 5.86228 32.5356C5.34981 33.3683 4.96546 34.3933 4.9014 35.3542C4.83735 36.315 4.9014 37.2759 5.15764 38.1727C5.15764 38.429 5.28575 38.6852 5.34981 38.9414C5.41387 39.0695 5.41387 39.2617 5.54199 39.4539C5.60605 39.6461 5.73416 39.8382 5.86228 39.9664L6.05446 40.2866L6.24663 40.5429C6.95127 41.3116 7.78403 42.0162 8.68085 42.5287C9.76984 43.1052 10.987 43.4896 12.2681 43.6177C13.7415 43.7458 15.2148 43.4255 16.56 42.7849ZM55.0671 23.9518C57.117 28.3718 57.117 33.4324 55.0671 37.8524C54.3625 39.3258 53.4657 40.6069 52.3126 41.6959C51.2877 42.5928 50.1987 43.4255 48.9816 44.002C47.8285 44.6426 46.6114 45.027 45.3303 45.2191C44.8818 45.2832 44.4334 45.2832 44.0491 45.3473C40.9102 45.3473 38.0917 43.5536 36.1699 40.671V45.3473H29.3797L29.5078 45.1551C30.789 44.002 31.4936 42.3365 31.4936 40.6069V9.98703C31.4936 8.19339 31.9421 6.46382 32.7748 4.86236C33.3513 3.77337 34.1841 2.87655 35.145 2.23596C35.9777 1.65944 36.9386 1.21103 37.8995 0.890739C39.0525 0.570448 40.2696 0.378271 41.4868 0.378271V1.33915C39.6291 1.21103 37.8995 2.36408 37.1948 4.09366C36.9386 4.7983 36.6824 5.567 36.5543 6.39976C36.298 7.55281 36.1699 8.76992 36.1699 9.98703V21.1332C38.0917 18.3146 40.9102 16.521 44.0491 16.521C44.4975 16.521 45.01 16.521 45.4584 16.6491C46.6755 16.8413 47.8926 17.2256 49.0456 17.8022C50.1987 18.4427 51.3517 19.2114 52.3126 20.1083C53.4657 21.2613 54.4265 22.5425 55.0671 23.9518ZM51.2877 36.4431C52.1845 32.7918 52.1845 29.0124 51.2877 25.361C50.9674 24.1439 50.583 22.9268 50.0706 21.7738C49.6222 20.7488 48.9816 19.852 48.1488 19.0193C46.9958 17.9943 45.5224 17.4178 44.0491 17.4178C40.7821 17.4178 37.9635 19.5958 36.1699 22.9268V38.9414C37.9635 42.2084 40.7821 44.3864 44.0491 44.3864C45.5224 44.3864 46.9958 43.8099 48.1488 42.7849C48.9816 42.0162 49.6222 41.0553 50.0706 40.0304C50.583 38.8774 50.9674 37.6603 51.2877 36.4431ZM87.323 23.3752C90.0135 28.0515 90.0135 33.7527 87.323 38.429C86.4903 39.9664 85.3372 41.2475 83.9279 42.2084C82.7749 43.1052 81.4937 43.8099 80.0844 44.2583C78.8033 44.7707 77.458 45.091 76.0488 45.2191C75.6003 45.2832 75.216 45.2832 74.7676 45.2832H74.7035C74.2551 45.2832 73.8067 45.2832 73.4224 45.2191C72.0131 45.091 70.6678 44.7707 69.3867 44.2583C67.9774 43.8099 66.6962 43.1052 65.5432 42.2084C64.1339 41.2475 62.9808 39.9664 62.084 38.429C59.4576 33.7527 59.4576 28.0515 62.084 23.3752C62.9808 21.9019 64.1339 20.5567 65.5432 19.5958C66.6962 18.699 67.9774 17.9943 69.3867 17.5459C70.6678 17.0335 72.0131 16.7132 73.4224 16.585C73.8067 16.521 74.2551 16.521 74.7035 16.521C75.1519 16.521 75.6003 16.521 76.0488 16.585C77.458 16.7132 78.8033 17.0335 80.0844 17.5459C81.4937 17.9943 82.7749 18.699 83.9279 19.5958C85.3372 20.5567 86.4903 21.9019 87.323 23.3752ZM83.6717 36.6994C85.0169 32.9199 85.0169 28.8843 83.6717 25.1048C83.2873 23.8236 82.6468 22.6706 81.9421 21.5175C81.3015 20.4926 80.4047 19.5958 79.4438 18.8911C78.0346 17.9303 76.4331 17.4178 74.7035 17.4178H74.6395C72.9739 17.4178 71.3725 17.9303 70.0273 18.8911C69.0023 19.5958 68.1696 20.4926 67.529 21.5175C66.7603 22.6706 66.1838 23.8236 65.7994 25.1048C64.4542 28.8843 64.4542 32.9199 65.7994 36.6994C66.1838 37.9805 66.7603 39.1977 67.529 40.2866C68.1696 41.3116 69.0023 42.2725 70.0273 42.9771C71.4365 43.8739 73.038 44.3864 74.7035 44.3864H74.7676H74.8316C76.4972 44.3864 78.0986 43.8739 79.4438 42.913C80.4688 42.2084 81.3015 41.3116 81.9421 40.2866C82.6468 39.1336 83.2873 37.9805 83.6717 36.6994ZM117.265 40.6069C117.265 42.3365 118.034 44.002 119.251 45.1551L119.443 45.2832H112.653V42.2084C110.731 44.1302 108.105 45.2191 105.35 45.1551H104.966C103.749 45.1551 102.468 44.9629 101.251 44.6426C100.226 44.3223 99.2649 43.8739 98.4322 43.2333C97.4072 42.4646 96.6385 41.5038 96.062 40.3507C95.2933 38.6852 94.9089 36.8916 94.9089 35.0979V26.1297V26.0657C94.9089 24.9126 94.7808 23.6955 94.5246 22.4784C94.3965 21.7097 94.1402 20.941 93.884 20.1723C93.1794 18.4427 91.4498 17.3537 89.5921 17.4178V16.521C90.8092 16.521 92.0263 16.6491 93.1794 17.0335C94.1402 17.2897 95.1011 17.7381 95.9339 18.3146C96.8948 19.0193 97.7275 19.9161 98.304 20.941C99.1368 22.5425 99.5852 24.3361 99.5211 26.0657H99.5852V35.0979C99.5852 36.3791 99.6493 37.7243 99.9055 39.0055C100.034 39.8382 100.226 40.6069 100.546 41.4397C100.802 42.1443 101.315 42.7849 101.891 43.2974C102.66 43.8099 103.557 44.1302 104.454 44.1942C104.646 44.1942 104.838 44.2583 104.966 44.2583H105.35C108.233 44.2583 110.859 42.9771 112.653 40.7991V21.1972C112.653 19.4677 111.948 17.8662 110.667 16.6491L110.475 16.521H119.443L119.251 16.6491C118.034 17.8662 117.265 19.4677 117.265 21.1972V40.6069ZM135.145 17.4178H129.892V35.162C129.892 36.3791 129.956 37.6603 130.149 38.9414C130.213 39.7742 130.405 40.6069 130.597 41.3756C130.789 42.1443 131.174 42.7849 131.686 43.3615C132.455 44.0661 133.48 44.4504 134.505 44.3864V45.2832C133.223 45.3473 132.006 45.091 130.853 44.6426C129.956 44.1942 129.06 43.6817 128.355 42.9771C127.458 42.2084 126.753 41.2475 126.241 40.1585C125.6 38.5571 125.216 36.8916 125.216 35.162V17.4178H121.757C125.985 15.6242 129.892 7.42469 129.892 7.42469V16.521H135.145V17.4178ZM192.22 40.3507V45.2832H155.066L155.258 45.1551C156.475 43.938 157.244 42.3365 157.244 40.6069V5.11859C157.244 3.38901 156.475 1.7235 155.258 0.570448L155.066 0.378271H164.034L163.842 0.570448C162.561 1.7235 161.856 3.38901 161.856 5.11859V44.3864H185.814C187.543 44.3864 189.209 43.6817 190.362 42.4006L192.22 40.3507ZM230.357 11.5885C233.881 18.6349 233.881 26.9625 230.357 34.0089C229.14 36.315 227.603 38.3008 225.681 39.9664C224.848 40.671 224.016 41.3116 223.119 41.9522L221.71 42.7209C221.261 43.0412 220.685 43.2333 220.172 43.4896C218.314 44.3223 216.329 44.8989 214.343 45.1551C213.574 45.2832 212.805 45.2832 212.101 45.2832H212.037C211.268 45.2832 210.563 45.2832 209.795 45.1551C207.745 44.8989 205.823 44.3223 203.965 43.4896C203.453 43.2333 202.876 43.0412 202.428 42.7209L201.019 41.9522C200.122 41.3116 199.289 40.671 198.456 39.9664C196.535 38.3008 194.933 36.315 193.78 34.0089C190.257 26.9625 190.257 18.6349 193.78 11.5885C194.997 9.34644 196.535 7.36064 198.456 5.63106C199.289 4.92642 200.122 4.28583 201.019 3.70931L202.428 2.87655C202.876 2.62032 203.453 2.42814 203.965 2.17191C205.823 1.33915 207.745 0.76262 209.795 0.506386C210.563 0.378271 211.268 0.314214 212.037 0.314214H212.101C212.805 0.314214 213.574 0.378271 214.343 0.506386C216.329 0.76262 218.314 1.33915 220.172 2.17191C220.685 2.42814 221.261 2.62032 221.71 2.87655L223.119 3.70931C224.016 4.28583 224.848 4.92642 225.681 5.63106C227.603 7.36064 229.14 9.34644 230.357 11.5885ZM226.642 32.3434C228.948 26.1938 228.948 19.4036 226.642 13.254C225.873 11.2682 224.848 9.28239 223.631 7.55281C223.055 6.78411 222.478 6.01541 221.774 5.37483L220.685 4.34989C220.3 4.0296 219.916 3.77337 219.467 3.45307C217.289 2.04379 214.727 1.27509 212.101 1.27509H212.037H211.909C209.282 1.27509 206.784 2.04379 204.606 3.51713L203.965 3.96554L203.645 4.15772L203.389 4.41395L202.3 5.37483C201.659 6.07947 201.019 6.78411 200.506 7.55281C199.225 9.34644 198.264 11.2682 197.495 13.254C195.189 19.4036 195.189 26.1938 197.495 32.3434C198.264 34.3933 199.225 36.315 200.506 38.1087C201.083 38.8774 201.659 39.582 202.3 40.2866L203.389 41.2475C203.837 41.5678 204.222 41.8881 204.67 42.1443C206.848 43.6177 209.41 44.3864 212.037 44.3864H212.101H212.229C214.791 44.3223 217.354 43.5536 219.532 42.1443L220.172 41.6959L220.492 41.4397L220.749 41.2475L221.838 40.2866C222.478 39.582 223.055 38.8774 223.631 38.1087C224.848 36.315 225.873 34.3933 226.642 32.3434ZM270.757 0.378271H276.779L275.369 1.21103C274.024 2.04379 272.935 3.2609 272.231 4.67019L253.077 45.2832L233.667 4.22177C233.027 2.87655 232.002 1.7235 230.721 0.890739L229.952 0.378271H238.92C238.216 1.53132 238.152 2.87655 238.728 4.09366L255.127 38.8133L271.27 4.54207C271.91 3.2609 271.782 1.78756 270.949 0.634505L270.757 0.378271ZM301.047 44.3864C302.776 44.3864 304.442 43.6817 305.595 42.4006L307.517 40.3507V45.2832H278.178L278.306 45.1551C279.587 44.002 280.292 42.3365 280.292 40.6069V5.11859C280.292 3.38901 279.587 1.7235 278.306 0.570448L278.178 0.378271H307.517V5.37483L305.595 3.32496C304.442 2.04379 302.776 1.33915 301.047 1.33915H284.968V22.4144H291.822C293.552 22.4144 295.218 21.6457 296.371 20.4285L298.292 18.3787V27.3469L296.371 25.297C295.218 24.0158 293.552 23.3112 291.822 23.3112H284.968V44.3864H301.047Z" fill="#1A1A1A"/>
</svg>
