<svg width="963" height="133" viewBox="0 0 963 133" fill="none" xmlns="http://www.w3.org/2000/svg">
<path d="M147.451 5.036V30.488H143.671V5.036H133.303V1.652H157.783V5.036H147.451ZM165.77 0.751999V13.028C166.298 12.092 167.162 11.252 168.362 10.508C169.586 9.764 171.05 9.392 172.754 9.392C174.362 9.392 175.79 9.764 177.038 10.508C178.31 11.252 179.294 12.308 179.99 13.676C180.686 15.02 181.034 16.604 181.034 18.428V30.488H177.326V19.076C177.326 17.012 176.846 15.428 175.886 14.324C174.95 13.196 173.642 12.632 171.962 12.632C170.786 12.632 169.73 12.968 168.794 13.64C167.858 14.288 167.114 15.164 166.562 16.268C166.034 17.372 165.77 18.56 165.77 19.832V30.488H162.062V0.751999H165.77ZM195.498 30.992C193.578 30.992 191.838 30.524 190.278 29.588C188.742 28.652 187.53 27.356 186.642 25.7C185.754 24.044 185.31 22.208 185.31 20.192C185.31 18.176 185.754 16.34 186.642 14.684C187.53 13.028 188.742 11.732 190.278 10.796C191.838 9.86 193.578 9.392 195.498 9.392C197.25 9.392 198.762 9.74 200.034 10.436C201.306 11.132 202.23 11.972 202.806 12.956V9.896H206.514V30.488H202.806V27.428C202.23 28.412 201.306 29.252 200.034 29.948C198.762 30.644 197.25 30.992 195.498 30.992ZM195.822 27.716C197.19 27.716 198.402 27.392 199.458 26.744C200.538 26.072 201.378 25.172 201.978 24.044C202.578 22.892 202.878 21.608 202.878 20.192C202.878 18.776 202.578 17.504 201.978 16.376C201.378 15.224 200.538 14.324 199.458 13.676C198.402 13.004 197.19 12.668 195.822 12.668C194.478 12.668 193.278 12.992 192.222 13.64C191.19 14.288 190.386 15.188 189.81 16.34C189.234 17.492 188.946 18.776 188.946 20.192C188.946 21.608 189.234 22.892 189.81 24.044C190.386 25.196 191.19 26.096 192.222 26.744C193.278 27.392 194.478 27.716 195.822 27.716ZM223.136 13.172H218.564V30.488H214.856V13.172H210.284V9.896H214.856V3.632H218.564V9.896H223.136V13.172ZM226.421 8.528L226.061 0.499998H229.553L229.193 8.528H226.421ZM241.881 9.392C243.537 9.392 245.037 9.656 246.381 10.184C247.725 10.688 248.793 11.396 249.585 12.308C250.401 13.196 250.833 14.216 250.881 15.368H247.245C247.173 14.504 246.621 13.796 245.589 13.244C244.557 12.692 243.285 12.416 241.773 12.416C240.285 12.416 239.049 12.68 238.065 13.208C237.105 13.736 236.625 14.384 236.625 15.152C236.625 16.04 237.069 16.748 237.957 17.276C238.869 17.804 240.537 18.236 242.961 18.572C245.961 18.98 248.109 19.676 249.405 20.66C250.701 21.644 251.349 22.964 251.349 24.62C251.349 25.916 250.929 27.044 250.089 28.004C249.273 28.964 248.157 29.696 246.741 30.2C245.325 30.728 243.753 30.992 242.025 30.992C240.225 30.992 238.641 30.716 237.273 30.164C235.905 29.636 234.825 28.892 234.033 27.932C233.265 26.996 232.833 25.928 232.737 24.728H236.373C236.493 25.616 237.045 26.384 238.029 27.032C239.037 27.656 240.405 27.968 242.133 27.968C243.741 27.968 245.073 27.68 246.129 27.104C247.185 26.504 247.713 25.748 247.713 24.836C247.713 23.972 247.221 23.288 246.237 22.784C245.277 22.256 243.597 21.836 241.197 21.524C238.365 21.14 236.289 20.468 234.969 19.508C233.649 18.524 232.989 17.144 232.989 15.368C232.989 14.192 233.373 13.148 234.141 12.236C234.933 11.324 236.001 10.628 237.345 10.148C238.689 9.644 240.201 9.392 241.881 9.392ZM284.114 24.728V27.5H263.234L263.342 27.428C264.026 26.744 264.458 25.844 264.458 24.872V4.928C264.458 3.956 264.026 3.02 263.342 2.372L263.234 2.264H268.274L268.166 2.372C267.446 3.02 267.05 3.956 267.05 4.928V26.996H280.514C281.486 26.996 282.422 26.6 283.07 25.88L284.114 24.728ZM305.547 8.564C307.527 12.524 307.527 17.204 305.547 21.164C304.863 22.46 303.999 23.576 302.919 24.512C302.451 24.908 301.983 25.268 301.479 25.628L300.687 26.06C300.435 26.24 300.111 26.348 299.823 26.492C298.779 26.96 297.663 27.284 296.547 27.428C296.115 27.5 295.683 27.5 295.287 27.5H295.251C294.819 27.5 294.423 27.5 293.991 27.428C292.839 27.284 291.759 26.96 290.715 26.492C290.427 26.348 290.103 26.24 289.851 26.06L289.059 25.628C288.555 25.268 288.087 24.908 287.619 24.512C286.539 23.576 285.639 22.46 284.991 21.164C283.011 17.204 283.011 12.524 284.991 8.564C285.675 7.304 286.539 6.188 287.619 5.216C288.087 4.82 288.555 4.46 289.059 4.136L289.851 3.668C290.103 3.524 290.427 3.416 290.715 3.272C291.759 2.804 292.839 2.48 293.991 2.336C294.423 2.264 294.819 2.228 295.251 2.228H295.287C295.683 2.228 296.115 2.264 296.547 2.336C297.663 2.48 298.779 2.804 299.823 3.272C300.111 3.416 300.435 3.524 300.687 3.668L301.479 4.136C301.983 4.46 302.451 4.82 302.919 5.216C303.999 6.188 304.863 7.304 305.547 8.564ZM303.459 20.228C304.755 16.772 304.755 12.956 303.459 9.5C303.027 8.384 302.451 7.268 301.767 6.296C301.443 5.864 301.119 5.432 300.723 5.072L300.111 4.496C299.895 4.316 299.679 4.172 299.427 3.992C298.203 3.2 296.763 2.768 295.287 2.768H295.251H295.179C293.703 2.768 292.299 3.2 291.075 4.028L290.715 4.28L290.535 4.388L290.391 4.532L289.779 5.072C289.419 5.468 289.059 5.864 288.771 6.296C288.051 7.304 287.511 8.384 287.079 9.5C285.783 12.956 285.783 16.772 287.079 20.228C287.511 21.38 288.051 22.46 288.771 23.468C289.095 23.9 289.419 24.296 289.779 24.692L290.391 25.232C290.643 25.412 290.859 25.592 291.111 25.736C292.335 26.564 293.775 26.996 295.251 26.996H295.287H295.359C296.799 26.96 298.239 26.528 299.463 25.736L299.823 25.484L300.003 25.34L300.147 25.232L300.759 24.692C301.119 24.296 301.443 23.9 301.767 23.468C302.451 22.46 303.027 21.38 303.459 20.228ZM328.251 2.264H331.635L330.843 2.732C330.087 3.2 329.475 3.884 329.079 4.676L318.315 27.5L307.407 4.424C307.047 3.668 306.471 3.02 305.751 2.552L305.319 2.264H310.359C309.963 2.912 309.927 3.668 310.251 4.352L319.467 23.864L328.539 4.604C328.899 3.884 328.827 3.056 328.359 2.408L328.251 2.264ZM345.274 26.996C346.246 26.996 347.182 26.6 347.83 25.88L348.91 24.728V27.5H332.422L332.494 27.428C333.214 26.78 333.61 25.844 333.61 24.872V4.928C333.61 3.956 333.214 3.02 332.494 2.372L332.422 2.264H348.91V5.072L347.83 3.92C347.182 3.2 346.246 2.804 345.274 2.804H336.238V14.648H340.09C341.062 14.648 341.998 14.216 342.646 13.532L343.726 12.38V17.42L342.646 16.268C341.998 15.548 341.062 15.152 340.09 15.152H336.238V26.996H345.274ZM370.796 9.392C372.788 9.392 374.588 9.86 376.196 10.796C377.804 11.732 379.052 13.028 379.94 14.684C380.852 16.316 381.308 18.152 381.308 20.192C381.308 22.232 380.852 24.08 379.94 25.736C379.052 27.368 377.804 28.652 376.196 29.588C374.588 30.524 372.788 30.992 370.796 30.992C368.78 30.992 366.968 30.524 365.36 29.588C363.776 28.652 362.528 27.368 361.616 25.736C360.704 24.08 360.248 22.232 360.248 20.192C360.248 18.152 360.704 16.316 361.616 14.684C362.528 13.028 363.776 11.732 365.36 10.796C366.968 9.86 368.78 9.392 370.796 9.392ZM370.796 12.668C369.452 12.668 368.252 13.004 367.196 13.676C366.164 14.324 365.348 15.224 364.748 16.376C364.172 17.504 363.884 18.776 363.884 20.192C363.884 21.608 364.172 22.892 364.748 24.044C365.348 25.172 366.164 26.072 367.196 26.744C368.252 27.392 369.452 27.716 370.796 27.716C372.116 27.716 373.304 27.392 374.36 26.744C375.416 26.072 376.232 25.172 376.808 24.044C377.384 22.892 377.672 21.608 377.672 20.192C377.672 18.776 377.384 17.504 376.808 16.376C376.232 15.224 375.416 14.324 374.36 13.676C373.304 13.004 372.116 12.668 370.796 12.668ZM395.743 13.172H391.171V30.488H387.463V13.172H383.395V9.896H387.463V6.404C387.463 4.652 387.943 3.248 388.903 2.192C389.887 1.136 391.243 0.607999 392.971 0.607999C393.931 0.607999 394.735 0.679998 395.383 0.823998V3.956C395.047 3.884 394.459 3.848 393.619 3.848C392.851 3.848 392.251 4.088 391.819 4.568C391.387 5.024 391.171 5.672 391.171 6.512V9.896H395.743V13.172ZM410.483 13.172H405.911V30.488H402.203V13.172H397.631V9.896H402.203V3.632H405.911V9.896H410.483V13.172ZM422.892 30.992C420.924 30.992 419.148 30.524 417.564 29.588C416.004 28.652 414.78 27.368 413.892 25.736C413.004 24.08 412.56 22.232 412.56 20.192C412.56 18.152 413.004 16.316 413.892 14.684C414.78 13.028 416.004 11.732 417.564 10.796C419.148 9.86 420.924 9.392 422.892 9.392C424.86 9.392 426.624 9.86 428.184 10.796C429.768 11.732 430.992 13.028 431.856 14.684C432.744 16.316 433.188 18.152 433.188 20.192C433.188 20.864 433.164 21.368 433.116 21.704H416.268C416.46 23.504 417.156 24.98 418.356 26.132C419.58 27.284 421.092 27.86 422.892 27.86C424.26 27.86 425.46 27.584 426.492 27.032C427.548 26.456 428.268 25.736 428.652 24.872H432.432C431.856 26.672 430.704 28.136 428.976 29.264C427.248 30.416 425.22 30.992 422.892 30.992ZM429.552 18.68C429.336 16.856 428.628 15.38 427.428 14.252C426.228 13.1 424.716 12.524 422.892 12.524C421.068 12.524 419.556 13.1 418.356 14.252C417.156 15.38 416.46 16.856 416.268 18.68H429.552ZM441.606 9.896V13.028C442.134 12.092 442.998 11.252 444.198 10.508C445.422 9.764 446.886 9.392 448.59 9.392C450.198 9.392 451.626 9.764 452.874 10.508C454.146 11.252 455.13 12.308 455.826 13.676C456.522 15.02 456.87 16.604 456.87 18.428V30.488H453.162V19.076C453.162 17.012 452.682 15.428 451.722 14.324C450.786 13.196 449.478 12.632 447.798 12.632C446.622 12.632 445.566 12.968 444.63 13.64C443.694 14.288 442.95 15.164 442.398 16.268C441.87 17.372 441.606 18.56 441.606 19.832V30.488H437.898V9.896H441.606ZM482.579 13.172H478.007V30.488H474.299V13.172H470.231V9.896H474.299V6.404C474.299 4.652 474.779 3.248 475.739 2.192C476.723 1.136 478.079 0.607999 479.807 0.607999C480.767 0.607999 481.571 0.679998 482.219 0.823998V3.956C481.883 3.884 481.295 3.848 480.455 3.848C479.687 3.848 479.087 4.088 478.655 4.568C478.223 5.024 478.007 5.672 478.007 6.512V9.896H482.579V13.172ZM494.752 30.992C492.784 30.992 491.008 30.524 489.424 29.588C487.864 28.652 486.64 27.368 485.752 25.736C484.864 24.08 484.42 22.232 484.42 20.192C484.42 18.152 484.864 16.316 485.752 14.684C486.64 13.028 487.864 11.732 489.424 10.796C491.008 9.86 492.784 9.392 494.752 9.392C496.72 9.392 498.484 9.86 500.044 10.796C501.628 11.732 502.852 13.028 503.716 14.684C504.604 16.316 505.048 18.152 505.048 20.192C505.048 20.864 505.024 21.368 504.976 21.704H488.128C488.32 23.504 489.016 24.98 490.216 26.132C491.44 27.284 492.952 27.86 494.752 27.86C496.12 27.86 497.32 27.584 498.352 27.032C499.408 26.456 500.128 25.736 500.512 24.872H504.292C503.716 26.672 502.564 28.136 500.836 29.264C499.108 30.416 497.08 30.992 494.752 30.992ZM501.412 18.68C501.196 16.856 500.488 15.38 499.288 14.252C498.088 13.1 496.576 12.524 494.752 12.524C492.928 12.524 491.416 13.1 490.216 14.252C489.016 15.38 488.32 16.856 488.128 18.68H501.412ZM519.01 30.992C517.042 30.992 515.266 30.524 513.682 29.588C512.122 28.652 510.898 27.368 510.01 25.736C509.122 24.08 508.678 22.232 508.678 20.192C508.678 18.152 509.122 16.316 510.01 14.684C510.898 13.028 512.122 11.732 513.682 10.796C515.266 9.86 517.042 9.392 519.01 9.392C520.978 9.392 522.742 9.86 524.302 10.796C525.886 11.732 527.11 13.028 527.974 14.684C528.862 16.316 529.306 18.152 529.306 20.192C529.306 20.864 529.282 21.368 529.234 21.704H512.386C512.578 23.504 513.274 24.98 514.474 26.132C515.698 27.284 517.21 27.86 519.01 27.86C520.378 27.86 521.578 27.584 522.61 27.032C523.666 26.456 524.386 25.736 524.77 24.872H528.55C527.974 26.672 526.822 28.136 525.094 29.264C523.366 30.416 521.338 30.992 519.01 30.992ZM525.67 18.68C525.454 16.856 524.746 15.38 523.546 14.252C522.346 13.1 520.834 12.524 519.01 12.524C517.186 12.524 515.674 13.1 514.474 14.252C513.274 15.38 512.578 16.856 512.386 18.68H525.67ZM534.015 30.488V0.751999H537.723V30.488H534.015ZM551.643 9.392C553.299 9.392 554.799 9.656 556.143 10.184C557.487 10.688 558.555 11.396 559.347 12.308C560.163 13.196 560.595 14.216 560.643 15.368H557.007C556.935 14.504 556.383 13.796 555.351 13.244C554.319 12.692 553.047 12.416 551.535 12.416C550.047 12.416 548.811 12.68 547.827 13.208C546.867 13.736 546.387 14.384 546.387 15.152C546.387 16.04 546.831 16.748 547.719 17.276C548.631 17.804 550.299 18.236 552.723 18.572C555.723 18.98 557.871 19.676 559.167 20.66C560.463 21.644 561.111 22.964 561.111 24.62C561.111 25.916 560.691 27.044 559.851 28.004C559.035 28.964 557.919 29.696 556.503 30.2C555.087 30.728 553.515 30.992 551.787 30.992C549.987 30.992 548.403 30.716 547.035 30.164C545.667 29.636 544.587 28.892 543.795 27.932C543.027 26.996 542.595 25.928 542.499 24.728H546.135C546.255 25.616 546.807 26.384 547.791 27.032C548.799 27.656 550.167 27.968 551.895 27.968C553.503 27.968 554.835 27.68 555.891 27.104C556.947 26.504 557.475 25.748 557.475 24.836C557.475 23.972 556.983 23.288 555.999 22.784C555.039 22.256 553.359 21.836 550.959 21.524C548.127 21.14 546.051 20.468 544.731 19.508C543.411 18.524 542.751 17.144 542.751 15.368C542.751 14.192 543.135 13.148 543.903 12.236C544.695 11.324 545.763 10.628 547.107 10.148C548.451 9.644 549.963 9.392 551.643 9.392ZM575.886 30.488V0.751999H579.594V30.488H575.886ZM587.25 0.391999C587.97 0.391999 588.558 0.631999 589.014 1.112C589.494 1.568 589.734 2.144 589.734 2.84C589.734 3.536 589.494 4.124 589.014 4.604C588.558 5.06 587.97 5.288 587.25 5.288C586.554 5.288 585.966 5.06 585.486 4.604C585.03 4.124 584.802 3.536 584.802 2.84C584.802 2.144 585.03 1.568 585.486 1.112C585.966 0.631999 586.554 0.391999 587.25 0.391999ZM585.414 30.524V9.896H589.122V30.524H585.414ZM602.501 21.056L598.433 25.34V30.488H594.725V0.751999H598.433V20.912L608.693 9.896H613.049L604.841 18.572L613.913 30.488H609.521L602.501 21.056ZM625.041 30.992C623.073 30.992 621.297 30.524 619.713 29.588C618.153 28.652 616.929 27.368 616.041 25.736C615.153 24.08 614.709 22.232 614.709 20.192C614.709 18.152 615.153 16.316 616.041 14.684C616.929 13.028 618.153 11.732 619.713 10.796C621.297 9.86 623.073 9.392 625.041 9.392C627.009 9.392 628.773 9.86 630.333 10.796C631.917 11.732 633.141 13.028 634.005 14.684C634.893 16.316 635.337 18.152 635.337 20.192C635.337 20.864 635.313 21.368 635.265 21.704H618.417C618.609 23.504 619.305 24.98 620.505 26.132C621.729 27.284 623.241 27.86 625.041 27.86C626.409 27.86 627.609 27.584 628.641 27.032C629.697 26.456 630.417 25.736 630.801 24.872H634.581C634.005 26.672 632.853 28.136 631.125 29.264C629.397 30.416 627.369 30.992 625.041 30.992ZM631.701 18.68C631.485 16.856 630.777 15.38 629.577 14.252C628.377 13.1 626.865 12.524 625.041 12.524C623.217 12.524 621.705 13.1 620.505 14.252C619.305 15.38 618.609 16.856 618.417 18.68H631.701ZM659.244 30.992C657.324 30.992 655.584 30.524 654.024 29.588C652.488 28.652 651.276 27.356 650.388 25.7C649.5 24.044 649.056 22.208 649.056 20.192C649.056 18.176 649.5 16.34 650.388 14.684C651.276 13.028 652.488 11.732 654.024 10.796C655.584 9.86 657.324 9.392 659.244 9.392C660.996 9.392 662.508 9.74 663.78 10.436C665.052 11.132 665.976 11.972 666.552 12.956V9.896H670.26V30.488H666.552V27.428C665.976 28.412 665.052 29.252 663.78 29.948C662.508 30.644 660.996 30.992 659.244 30.992ZM659.568 27.716C660.936 27.716 662.148 27.392 663.204 26.744C664.284 26.072 665.124 25.172 665.724 24.044C666.324 22.892 666.624 21.608 666.624 20.192C666.624 18.776 666.324 17.504 665.724 16.376C665.124 15.224 664.284 14.324 663.204 13.676C662.148 13.004 660.936 12.668 659.568 12.668C658.224 12.668 657.024 12.992 655.968 13.64C654.936 14.288 654.132 15.188 653.556 16.34C652.98 17.492 652.692 18.776 652.692 20.192C652.692 21.608 652.98 22.892 653.556 24.044C654.132 25.196 654.936 26.096 655.968 26.744C657.024 27.392 658.224 27.716 659.568 27.716ZM695.28 30.992C693.36 30.992 691.62 30.524 690.06 29.588C688.524 28.652 687.312 27.356 686.424 25.7C685.536 24.044 685.092 22.208 685.092 20.192C685.092 18.176 685.536 16.34 686.424 14.684C687.312 13.028 688.524 11.732 690.06 10.796C691.62 9.86 693.36 9.392 695.28 9.392C697.032 9.392 698.544 9.74 699.816 10.436C701.088 11.132 702.012 11.972 702.588 12.956V0.751999H706.296V30.488H702.588V27.428C702.012 28.412 701.088 29.252 699.816 29.948C698.544 30.644 697.032 30.992 695.28 30.992ZM695.604 27.716C696.972 27.716 698.184 27.392 699.24 26.744C700.32 26.072 701.16 25.172 701.76 24.044C702.36 22.892 702.66 21.608 702.66 20.192C702.66 18.776 702.36 17.504 701.76 16.376C701.16 15.224 700.32 14.324 699.24 13.676C698.184 13.004 696.972 12.668 695.604 12.668C694.26 12.668 693.06 12.992 692.004 13.64C690.972 14.288 690.168 15.188 689.592 16.34C689.016 17.492 688.728 18.776 688.728 20.192C688.728 21.608 689.016 22.892 689.592 24.044C690.168 25.196 690.972 26.096 692.004 26.744C693.06 27.392 694.26 27.716 695.604 27.716ZM715.825 9.896V13.064C716.377 12.128 717.289 11.288 718.561 10.544C719.857 9.776 721.417 9.392 723.241 9.392C724.417 9.392 725.353 9.512 726.049 9.752V13.28C725.209 12.896 724.189 12.704 722.989 12.704C721.621 12.704 720.385 13.04 719.281 13.712C718.201 14.36 717.349 15.236 716.725 16.34C716.125 17.42 715.825 18.584 715.825 19.832V30.488H712.117V9.896H715.825ZM737.892 30.992C735.924 30.992 734.148 30.524 732.564 29.588C731.004 28.652 729.78 27.368 728.892 25.736C728.004 24.08 727.56 22.232 727.56 20.192C727.56 18.152 728.004 16.316 728.892 14.684C729.78 13.028 731.004 11.732 732.564 10.796C734.148 9.86 735.924 9.392 737.892 9.392C739.86 9.392 741.624 9.86 743.184 10.796C744.768 11.732 745.992 13.028 746.856 14.684C747.744 16.316 748.188 18.152 748.188 20.192C748.188 20.864 748.164 21.368 748.116 21.704H731.268C731.46 23.504 732.156 24.98 733.356 26.132C734.58 27.284 736.092 27.86 737.892 27.86C739.26 27.86 740.46 27.584 741.492 27.032C742.548 26.456 743.268 25.736 743.652 24.872H747.432C746.856 26.672 745.704 28.136 743.976 29.264C742.248 30.416 740.22 30.992 737.892 30.992ZM744.552 18.68C744.336 16.856 743.628 15.38 742.428 14.252C741.228 13.1 739.716 12.524 737.892 12.524C736.068 12.524 734.556 13.1 733.356 14.252C732.156 15.38 731.46 16.856 731.268 18.68H744.552ZM762.006 30.992C760.086 30.992 758.346 30.524 756.786 29.588C755.25 28.652 754.038 27.356 753.15 25.7C752.262 24.044 751.818 22.208 751.818 20.192C751.818 18.176 752.262 16.34 753.15 14.684C754.038 13.028 755.25 11.732 756.786 10.796C758.346 9.86 760.086 9.392 762.006 9.392C763.758 9.392 765.27 9.74 766.542 10.436C767.814 11.132 768.738 11.972 769.314 12.956V9.896H773.022V30.488H769.314V27.428C768.738 28.412 767.814 29.252 766.542 29.948C765.27 30.644 763.758 30.992 762.006 30.992ZM762.33 27.716C763.698 27.716 764.91 27.392 765.966 26.744C767.046 26.072 767.886 25.172 768.486 24.044C769.086 22.892 769.386 21.608 769.386 20.192C769.386 18.776 769.086 17.504 768.486 16.376C767.886 15.224 767.046 14.324 765.966 13.676C764.91 13.004 763.698 12.668 762.33 12.668C760.986 12.668 759.786 12.992 758.73 13.64C757.698 14.288 756.894 15.188 756.318 16.34C755.742 17.492 755.454 18.776 755.454 20.192C755.454 21.608 755.742 22.892 756.318 24.044C756.894 25.196 757.698 26.096 758.73 26.744C759.786 27.392 760.986 27.716 762.33 27.716ZM782.551 9.896V12.812C783.151 11.852 783.943 11.048 784.927 10.4C785.935 9.728 787.219 9.392 788.779 9.392C790.291 9.392 791.611 9.776 792.739 10.544C793.867 11.312 794.683 12.368 795.187 13.712C795.811 12.392 796.759 11.348 798.031 10.58C799.303 9.788 800.791 9.392 802.495 9.392C803.959 9.392 805.255 9.752 806.383 10.472C807.535 11.168 808.435 12.164 809.083 13.46C809.731 14.756 810.055 16.256 810.055 17.96V30.488H806.347V18.572C806.347 16.724 805.927 15.272 805.087 14.216C804.247 13.16 803.095 12.632 801.631 12.632C800.623 12.632 799.711 12.932 798.895 13.532C798.079 14.132 797.443 14.948 796.987 15.98C796.531 17.012 796.303 18.152 796.303 19.4V30.488H792.595V18.716C792.595 16.796 792.175 15.308 791.335 14.252C790.495 13.172 789.343 12.632 787.879 12.632C786.871 12.632 785.959 12.932 785.143 13.532C784.351 14.132 783.715 14.948 783.235 15.98C782.779 17.012 782.551 18.14 782.551 19.364V30.488H778.843V9.896H782.551ZM817.352 34.124H814.4L815.552 25.988H819.152L817.352 34.124ZM10.5765 76.992C8.65649 76.992 6.91649 76.524 5.35649 75.588C3.82049 74.652 2.60849 73.356 1.72049 71.7C0.83249 70.044 0.38849 68.208 0.38849 66.192C0.38849 64.176 0.83249 62.34 1.72049 60.684C2.60849 59.028 3.82049 57.732 5.35649 56.796C6.91649 55.86 8.65649 55.392 10.5765 55.392C12.3285 55.392 13.8405 55.74 15.1125 56.436C16.3845 57.132 17.3085 57.972 17.8845 58.956V55.896H21.5925V76.488H17.8845V73.428C17.3085 74.412 16.3845 75.252 15.1125 75.948C13.8405 76.644 12.3285 76.992 10.5765 76.992ZM10.9005 73.716C12.2685 73.716 13.4805 73.392 14.5365 72.744C15.6165 72.072 16.4565 71.172 17.0565 70.044C17.6565 68.892 17.9565 67.608 17.9565 66.192C17.9565 64.776 17.6565 63.504 17.0565 62.376C16.4565 61.224 15.6165 60.324 14.5365 59.676C13.4805 59.004 12.2685 58.668 10.9005 58.668C9.55649 58.668 8.35649 58.992 7.30049 59.64C6.26849 60.288 5.46449 61.188 4.88849 62.34C4.31249 63.492 4.02449 64.776 4.02449 66.192C4.02449 67.608 4.31249 68.892 4.88849 70.044C5.46449 71.196 6.26849 72.096 7.30049 72.744C8.35649 73.392 9.55649 73.716 10.9005 73.716ZM31.1218 55.896V59.028C31.6498 58.092 32.5138 57.252 33.7138 56.508C34.9378 55.764 36.4018 55.392 38.1058 55.392C39.7138 55.392 41.1418 55.764 42.3898 56.508C43.6618 57.252 44.6458 58.308 45.3418 59.676C46.0378 61.02 46.3858 62.604 46.3858 64.428V76.488H42.6778V65.076C42.6778 63.012 42.1978 61.428 41.2378 60.324C40.3018 59.196 38.9938 58.632 37.3138 58.632C36.1378 58.632 35.0818 58.968 34.1458 59.64C33.2098 60.288 32.4658 61.164 31.9138 62.268C31.3858 63.372 31.1218 64.56 31.1218 65.832V76.488H27.4138V55.896H31.1218ZM60.7445 76.992C58.8245 76.992 57.0845 76.524 55.5245 75.588C53.9885 74.652 52.7765 73.356 51.8885 71.7C51.0005 70.044 50.5565 68.208 50.5565 66.192C50.5565 64.176 51.0005 62.34 51.8885 60.684C52.7765 59.028 53.9885 57.732 55.5245 56.796C57.0845 55.86 58.8245 55.392 60.7445 55.392C62.4965 55.392 64.0085 55.74 65.2805 56.436C66.5525 57.132 67.4765 57.972 68.0525 58.956V46.752H71.7605V76.488H68.0525V73.428C67.4765 74.412 66.5525 75.252 65.2805 75.948C64.0085 76.644 62.4965 76.992 60.7445 76.992ZM61.0685 73.716C62.4365 73.716 63.6485 73.392 64.7045 72.744C65.7845 72.072 66.6245 71.172 67.2245 70.044C67.8245 68.892 68.1245 67.608 68.1245 66.192C68.1245 64.776 67.8245 63.504 67.2245 62.376C66.6245 61.224 65.7845 60.324 64.7045 59.676C63.6485 59.004 62.4365 58.668 61.0685 58.668C59.7245 58.668 58.5245 58.992 57.4685 59.64C56.4365 60.288 55.6325 61.188 55.0565 62.34C54.4805 63.492 54.1925 64.776 54.1925 66.192C54.1925 67.608 54.4805 68.892 55.0565 70.044C55.6325 71.196 56.4365 72.096 57.4685 72.744C58.5245 73.392 59.7245 73.716 61.0685 73.716ZM118.596 55.896L111.324 76.488H107.58L102.144 60.72L96.7436 76.488H92.9996L85.7276 55.896H89.5796L94.9796 71.88L100.344 55.896H104.088L109.488 71.988L114.924 55.896H118.596ZM126.184 46.752V59.028C126.712 58.092 127.576 57.252 128.776 56.508C130 55.764 131.464 55.392 133.168 55.392C134.776 55.392 136.204 55.764 137.452 56.508C138.724 57.252 139.708 58.308 140.404 59.676C141.1 61.02 141.448 62.604 141.448 64.428V76.488H137.74V65.076C137.74 63.012 137.26 61.428 136.3 60.324C135.364 59.196 134.056 58.632 132.376 58.632C131.2 58.632 130.144 58.968 129.208 59.64C128.272 60.288 127.528 61.164 126.976 62.268C126.448 63.372 126.184 64.56 126.184 65.832V76.488H122.476V46.752H126.184ZM155.912 76.992C153.992 76.992 152.252 76.524 150.692 75.588C149.156 74.652 147.944 73.356 147.056 71.7C146.168 70.044 145.724 68.208 145.724 66.192C145.724 64.176 146.168 62.34 147.056 60.684C147.944 59.028 149.156 57.732 150.692 56.796C152.252 55.86 153.992 55.392 155.912 55.392C157.664 55.392 159.176 55.74 160.448 56.436C161.72 57.132 162.644 57.972 163.22 58.956V55.896H166.928V76.488H163.22V73.428C162.644 74.412 161.72 75.252 160.448 75.948C159.176 76.644 157.664 76.992 155.912 76.992ZM156.236 73.716C157.604 73.716 158.816 73.392 159.872 72.744C160.952 72.072 161.792 71.172 162.392 70.044C162.992 68.892 163.292 67.608 163.292 66.192C163.292 64.776 162.992 63.504 162.392 62.376C161.792 61.224 160.952 60.324 159.872 59.676C158.816 59.004 157.604 58.668 156.236 58.668C154.892 58.668 153.692 58.992 152.636 59.64C151.604 60.288 150.8 61.188 150.224 62.34C149.648 63.492 149.36 64.776 149.36 66.192C149.36 67.608 149.648 68.892 150.224 70.044C150.8 71.196 151.604 72.096 152.636 72.744C153.692 73.392 154.892 73.716 156.236 73.716ZM183.55 59.172H178.978V76.488H175.27V59.172H170.698V55.896H175.27V49.632H178.978V55.896H183.55V59.172ZM201.173 55.896V59.064C201.725 58.128 202.637 57.288 203.909 56.544C205.205 55.776 206.765 55.392 208.589 55.392C209.765 55.392 210.701 55.512 211.397 55.752V59.28C210.557 58.896 209.537 58.704 208.337 58.704C206.969 58.704 205.733 59.04 204.629 59.712C203.549 60.36 202.697 61.236 202.073 62.34C201.473 63.42 201.173 64.584 201.173 65.832V76.488H197.465V55.896H201.173ZM223.24 76.992C221.272 76.992 219.496 76.524 217.912 75.588C216.352 74.652 215.128 73.368 214.24 71.736C213.352 70.08 212.908 68.232 212.908 66.192C212.908 64.152 213.352 62.316 214.24 60.684C215.128 59.028 216.352 57.732 217.912 56.796C219.496 55.86 221.272 55.392 223.24 55.392C225.208 55.392 226.972 55.86 228.532 56.796C230.116 57.732 231.34 59.028 232.204 60.684C233.092 62.316 233.536 64.152 233.536 66.192C233.536 66.864 233.512 67.368 233.464 67.704H216.616C216.808 69.504 217.504 70.98 218.704 72.132C219.928 73.284 221.44 73.86 223.24 73.86C224.608 73.86 225.808 73.584 226.84 73.032C227.896 72.456 228.616 71.736 229 70.872H232.78C232.204 72.672 231.052 74.136 229.324 75.264C227.596 76.416 225.568 76.992 223.24 76.992ZM229.9 64.68C229.684 62.856 228.976 61.38 227.776 60.252C226.576 59.1 225.064 58.524 223.24 58.524C221.416 58.524 219.904 59.1 218.704 60.252C217.504 61.38 216.808 62.856 216.616 64.68H229.9ZM241.954 55.896V58.812C242.554 57.852 243.346 57.048 244.33 56.4C245.338 55.728 246.622 55.392 248.182 55.392C249.694 55.392 251.014 55.776 252.142 56.544C253.27 57.312 254.086 58.368 254.59 59.712C255.214 58.392 256.162 57.348 257.434 56.58C258.706 55.788 260.194 55.392 261.898 55.392C263.362 55.392 264.658 55.752 265.786 56.472C266.938 57.168 267.838 58.164 268.486 59.46C269.134 60.756 269.458 62.256 269.458 63.96V76.488H265.75V64.572C265.75 62.724 265.33 61.272 264.49 60.216C263.65 59.16 262.498 58.632 261.034 58.632C260.026 58.632 259.114 58.932 258.298 59.532C257.482 60.132 256.846 60.948 256.39 61.98C255.934 63.012 255.706 64.152 255.706 65.4V76.488H251.998V64.716C251.998 62.796 251.578 61.308 250.738 60.252C249.898 59.172 248.746 58.632 247.282 58.632C246.274 58.632 245.362 58.932 244.546 59.532C243.754 60.132 243.118 60.948 242.638 61.98C242.182 63.012 241.954 64.14 241.954 65.364V76.488H238.246V55.896H241.954ZM283.846 76.992C281.926 76.992 280.186 76.524 278.626 75.588C277.09 74.652 275.878 73.356 274.99 71.7C274.102 70.044 273.658 68.208 273.658 66.192C273.658 64.176 274.102 62.34 274.99 60.684C275.878 59.028 277.09 57.732 278.626 56.796C280.186 55.86 281.926 55.392 283.846 55.392C285.598 55.392 287.11 55.74 288.382 56.436C289.654 57.132 290.578 57.972 291.154 58.956V55.896H294.862V76.488H291.154V73.428C290.578 74.412 289.654 75.252 288.382 75.948C287.11 76.644 285.598 76.992 283.846 76.992ZM284.17 73.716C285.538 73.716 286.75 73.392 287.806 72.744C288.886 72.072 289.726 71.172 290.326 70.044C290.926 68.892 291.226 67.608 291.226 66.192C291.226 64.776 290.926 63.504 290.326 62.376C289.726 61.224 288.886 60.324 287.806 59.676C286.75 59.004 285.538 58.668 284.17 58.668C282.826 58.668 281.626 58.992 280.57 59.64C279.538 60.288 278.734 61.188 278.158 62.34C277.582 63.492 277.294 64.776 277.294 66.192C277.294 67.608 277.582 68.892 278.158 70.044C278.734 71.196 279.538 72.096 280.57 72.744C281.626 73.392 282.826 73.716 284.17 73.716ZM302.519 46.392C303.239 46.392 303.827 46.632 304.283 47.112C304.763 47.568 305.003 48.144 305.003 48.84C305.003 49.536 304.763 50.124 304.283 50.604C303.827 51.06 303.239 51.288 302.519 51.288C301.823 51.288 301.235 51.06 300.755 50.604C300.299 50.124 300.071 49.536 300.071 48.84C300.071 48.144 300.299 47.568 300.755 47.112C301.235 46.632 301.823 46.392 302.519 46.392ZM300.683 76.524V55.896H304.391V76.524H300.683ZM313.919 55.896V59.028C314.447 58.092 315.311 57.252 316.511 56.508C317.735 55.764 319.199 55.392 320.903 55.392C322.511 55.392 323.939 55.764 325.187 56.508C326.459 57.252 327.443 58.308 328.139 59.676C328.835 61.02 329.183 62.604 329.183 64.428V76.488H325.475V65.076C325.475 63.012 324.995 61.428 324.035 60.324C323.099 59.196 321.791 58.632 320.111 58.632C318.935 58.632 317.879 58.968 316.943 59.64C316.007 60.288 315.263 61.164 314.711 62.268C314.183 63.372 313.919 64.56 313.919 65.832V76.488H310.211V55.896H313.919ZM342.533 55.392C344.189 55.392 345.689 55.656 347.033 56.184C348.377 56.688 349.445 57.396 350.237 58.308C351.053 59.196 351.485 60.216 351.533 61.368H347.897C347.825 60.504 347.273 59.796 346.241 59.244C345.209 58.692 343.937 58.416 342.425 58.416C340.937 58.416 339.701 58.68 338.717 59.208C337.757 59.736 337.277 60.384 337.277 61.152C337.277 62.04 337.721 62.748 338.609 63.276C339.521 63.804 341.189 64.236 343.613 64.572C346.613 64.98 348.761 65.676 350.057 66.66C351.353 67.644 352.001 68.964 352.001 70.62C352.001 71.916 351.581 73.044 350.741 74.004C349.925 74.964 348.809 75.696 347.393 76.2C345.977 76.728 344.405 76.992 342.677 76.992C340.877 76.992 339.293 76.716 337.925 76.164C336.557 75.636 335.477 74.892 334.685 73.932C333.917 72.996 333.485 71.928 333.389 70.728H337.025C337.145 71.616 337.697 72.384 338.681 73.032C339.689 73.656 341.057 73.968 342.785 73.968C344.393 73.968 345.725 73.68 346.781 73.104C347.837 72.504 348.365 71.748 348.365 70.836C348.365 69.972 347.873 69.288 346.889 68.784C345.929 68.256 344.249 67.836 341.849 67.524C339.017 67.14 336.941 66.468 335.621 65.508C334.301 64.524 333.641 63.144 333.641 61.368C333.641 60.192 334.025 59.148 334.793 58.236C335.585 57.324 336.653 56.628 337.997 56.148C339.341 55.644 340.853 55.392 342.533 55.392ZM375.885 76.992C373.965 76.992 372.225 76.524 370.665 75.588C369.129 74.652 367.917 73.356 367.029 71.7C366.141 70.044 365.697 68.208 365.697 66.192C365.697 64.176 366.141 62.34 367.029 60.684C367.917 59.028 369.129 57.732 370.665 56.796C372.225 55.86 373.965 55.392 375.885 55.392C377.637 55.392 379.149 55.74 380.421 56.436C381.693 57.132 382.617 57.972 383.193 58.956V55.896H386.901V76.488H383.193V73.428C382.617 74.412 381.693 75.252 380.421 75.948C379.149 76.644 377.637 76.992 375.885 76.992ZM376.209 73.716C377.577 73.716 378.789 73.392 379.845 72.744C380.925 72.072 381.765 71.172 382.365 70.044C382.965 68.892 383.265 67.608 383.265 66.192C383.265 64.776 382.965 63.504 382.365 62.376C381.765 61.224 380.925 60.324 379.845 59.676C378.789 59.004 377.577 58.668 376.209 58.668C374.865 58.668 373.665 58.992 372.609 59.64C371.577 60.288 370.773 61.188 370.197 62.34C369.621 63.492 369.333 64.776 369.333 66.192C369.333 67.608 369.621 68.892 370.197 70.044C370.773 71.196 371.577 72.096 372.609 72.744C373.665 73.392 374.865 73.716 376.209 73.716ZM403.522 59.172H398.95V76.488H395.242V59.172H390.67V55.896H395.242V49.632H398.95V55.896H403.522V59.172ZM428.237 59.172H423.665V76.488H419.957V59.172H415.385V55.896H419.957V49.632H423.665V55.896H428.237V59.172ZM435.77 46.752V59.028C436.298 58.092 437.162 57.252 438.362 56.508C439.586 55.764 441.05 55.392 442.754 55.392C444.362 55.392 445.79 55.764 447.038 56.508C448.31 57.252 449.294 58.308 449.99 59.676C450.686 61.02 451.034 62.604 451.034 64.428V76.488H447.326V65.076C447.326 63.012 446.846 61.428 445.886 60.324C444.95 59.196 443.642 58.632 441.962 58.632C440.786 58.632 439.73 58.968 438.794 59.64C437.858 60.288 437.114 61.164 436.562 62.268C436.034 63.372 435.77 64.56 435.77 65.832V76.488H432.062V46.752H435.77ZM465.642 76.992C463.674 76.992 461.898 76.524 460.314 75.588C458.754 74.652 457.53 73.368 456.642 71.736C455.754 70.08 455.31 68.232 455.31 66.192C455.31 64.152 455.754 62.316 456.642 60.684C457.53 59.028 458.754 57.732 460.314 56.796C461.898 55.86 463.674 55.392 465.642 55.392C467.61 55.392 469.374 55.86 470.934 56.796C472.518 57.732 473.742 59.028 474.606 60.684C475.494 62.316 475.938 64.152 475.938 66.192C475.938 66.864 475.914 67.368 475.866 67.704H459.018C459.21 69.504 459.906 70.98 461.106 72.132C462.33 73.284 463.842 73.86 465.642 73.86C467.01 73.86 468.21 73.584 469.242 73.032C470.298 72.456 471.018 71.736 471.402 70.872H475.182C474.606 72.672 473.454 74.136 471.726 75.264C469.998 76.416 467.97 76.992 465.642 76.992ZM472.302 64.68C472.086 62.856 471.378 61.38 470.178 60.252C468.978 59.1 467.466 58.524 465.642 58.524C463.818 58.524 462.306 59.1 461.106 60.252C459.906 61.38 459.21 62.856 459.018 64.68H472.302ZM499.99 76.992C498.022 76.992 496.246 76.524 494.662 75.588C493.102 74.652 491.878 73.368 490.99 71.736C490.102 70.08 489.658 68.232 489.658 66.192C489.658 64.152 490.102 62.316 490.99 60.684C491.878 59.028 493.102 57.732 494.662 56.796C496.246 55.86 498.022 55.392 499.99 55.392C501.958 55.392 503.722 55.86 505.282 56.796C506.866 57.732 508.09 59.028 508.954 60.684C509.842 62.316 510.286 64.152 510.286 66.192C510.286 66.864 510.262 67.368 510.214 67.704H493.366C493.558 69.504 494.254 70.98 495.454 72.132C496.678 73.284 498.19 73.86 499.99 73.86C501.358 73.86 502.558 73.584 503.59 73.032C504.646 72.456 505.366 71.736 505.75 70.872H509.53C508.954 72.672 507.802 74.136 506.074 75.264C504.346 76.416 502.318 76.992 499.99 76.992ZM506.65 64.68C506.434 62.856 505.726 61.38 504.526 60.252C503.326 59.1 501.814 58.524 499.99 58.524C498.166 58.524 496.654 59.1 495.454 60.252C494.254 61.38 493.558 62.856 493.366 64.68H506.65ZM518.704 55.896V59.028C519.232 58.092 520.096 57.252 521.296 56.508C522.52 55.764 523.984 55.392 525.688 55.392C527.296 55.392 528.724 55.764 529.972 56.508C531.244 57.252 532.228 58.308 532.924 59.676C533.62 61.02 533.968 62.604 533.968 64.428V76.488H530.26V65.076C530.26 63.012 529.78 61.428 528.82 60.324C527.884 59.196 526.576 58.632 524.896 58.632C523.72 58.632 522.664 58.968 521.728 59.64C520.792 60.288 520.048 61.164 519.496 62.268C518.968 63.372 518.704 64.56 518.704 65.832V76.488H514.996V55.896H518.704ZM548.326 76.992C546.406 76.992 544.666 76.524 543.106 75.588C541.57 74.652 540.358 73.356 539.47 71.7C538.582 70.044 538.138 68.208 538.138 66.192C538.138 64.176 538.582 62.34 539.47 60.684C540.358 59.028 541.57 57.732 543.106 56.796C544.666 55.86 546.406 55.392 548.326 55.392C550.078 55.392 551.59 55.74 552.862 56.436C554.134 57.132 555.058 57.972 555.634 58.956V46.752H559.342V76.488H555.634V73.428C555.058 74.412 554.134 75.252 552.862 75.948C551.59 76.644 550.078 76.992 548.326 76.992ZM548.65 73.716C550.018 73.716 551.23 73.392 552.286 72.744C553.366 72.072 554.206 71.172 554.806 70.044C555.406 68.892 555.706 67.608 555.706 66.192C555.706 64.776 555.406 63.504 554.806 62.376C554.206 61.224 553.366 60.324 552.286 59.676C551.23 59.004 550.018 58.668 548.65 58.668C547.306 58.668 546.106 58.992 545.05 59.64C544.018 60.288 543.214 61.188 542.638 62.34C542.062 63.492 541.774 64.776 541.774 66.192C541.774 67.608 542.062 68.892 542.638 70.044C543.214 71.196 544.018 72.096 545.05 72.744C546.106 73.392 547.306 73.716 548.65 73.716ZM577.09 46.392C577.81 46.392 578.398 46.632 578.854 47.112C579.334 47.568 579.574 48.144 579.574 48.84C579.574 49.536 579.334 50.124 578.854 50.604C578.398 51.06 577.81 51.288 577.09 51.288C576.394 51.288 575.806 51.06 575.326 50.604C574.87 50.124 574.642 49.536 574.642 48.84C574.642 48.144 574.87 47.568 575.326 47.112C575.806 46.632 576.394 46.392 577.09 46.392ZM575.254 76.524V55.896H578.962V76.524H575.254ZM592.881 55.392C594.537 55.392 596.037 55.656 597.381 56.184C598.725 56.688 599.793 57.396 600.585 58.308C601.401 59.196 601.833 60.216 601.881 61.368H598.245C598.173 60.504 597.621 59.796 596.589 59.244C595.557 58.692 594.285 58.416 592.773 58.416C591.285 58.416 590.049 58.68 589.065 59.208C588.105 59.736 587.625 60.384 587.625 61.152C587.625 62.04 588.069 62.748 588.957 63.276C589.869 63.804 591.537 64.236 593.961 64.572C596.961 64.98 599.109 65.676 600.405 66.66C601.701 67.644 602.349 68.964 602.349 70.62C602.349 71.916 601.929 73.044 601.089 74.004C600.273 74.964 599.157 75.696 597.741 76.2C596.325 76.728 594.753 76.992 593.025 76.992C591.225 76.992 589.641 76.716 588.273 76.164C586.905 75.636 585.825 74.892 585.033 73.932C584.265 72.996 583.833 71.928 583.737 70.728H587.373C587.493 71.616 588.045 72.384 589.029 73.032C590.037 73.656 591.405 73.968 593.133 73.968C594.741 73.968 596.073 73.68 597.129 73.104C598.185 72.504 598.713 71.748 598.713 70.836C598.713 69.972 598.221 69.288 597.237 68.784C596.277 68.256 594.597 67.836 592.197 67.524C589.365 67.14 587.289 66.468 585.969 65.508C584.649 64.524 583.989 63.144 583.989 61.368C583.989 60.192 584.373 59.148 585.141 58.236C585.933 57.324 587.001 56.628 588.345 56.148C589.689 55.644 591.201 55.392 592.881 55.392ZM617.125 76.488V46.752H620.833V76.488H617.125ZM628.488 46.392C629.208 46.392 629.796 46.632 630.252 47.112C630.732 47.568 630.972 48.144 630.972 48.84C630.972 49.536 630.732 50.124 630.252 50.604C629.796 51.06 629.208 51.288 628.488 51.288C627.792 51.288 627.204 51.06 626.724 50.604C626.268 50.124 626.04 49.536 626.04 48.84C626.04 48.144 626.268 47.568 626.724 47.112C627.204 46.632 627.792 46.392 628.488 46.392ZM626.652 76.524V55.896H630.36V76.524H626.652ZM646.259 85.74C643.475 85.74 641.243 85.044 639.563 83.652C637.907 82.284 636.887 80.544 636.503 78.432H640.283C640.523 79.632 641.135 80.616 642.119 81.384C643.127 82.152 644.507 82.536 646.259 82.536C648.155 82.536 649.679 81.936 650.831 80.736C652.007 79.56 652.595 77.976 652.595 75.984V73.14C652.019 74.124 651.095 74.964 649.823 75.66C648.551 76.356 647.039 76.704 645.287 76.704C643.367 76.704 641.627 76.236 640.067 75.3C638.531 74.388 637.319 73.128 636.431 71.52C635.543 69.888 635.099 68.076 635.099 66.084C635.099 64.092 635.543 62.28 636.431 60.648C637.319 59.016 638.531 57.732 640.067 56.796C641.627 55.86 643.367 55.392 645.287 55.392C647.039 55.392 648.551 55.74 649.823 56.436C651.095 57.132 652.019 57.972 652.595 58.956V55.896H656.303V76.02C656.303 77.892 655.871 79.56 655.007 81.024C654.167 82.512 652.979 83.664 651.443 84.48C649.931 85.32 648.203 85.74 646.259 85.74ZM645.611 73.5C646.979 73.5 648.191 73.176 649.247 72.528C650.327 71.88 651.167 70.992 651.767 69.864C652.367 68.736 652.667 67.476 652.667 66.084C652.667 64.692 652.367 63.432 651.767 62.304C651.167 61.176 650.327 60.288 649.247 59.64C648.191 58.992 646.979 58.668 645.611 58.668C644.267 58.668 643.067 58.992 642.011 59.64C640.979 60.288 640.175 61.176 639.599 62.304C639.023 63.432 638.735 64.692 638.735 66.084C638.735 67.476 639.023 68.736 639.599 69.864C640.175 70.992 640.979 71.88 642.011 72.528C643.067 73.176 644.267 73.5 645.611 73.5ZM665.833 46.752V59.028C666.361 58.092 667.225 57.252 668.425 56.508C669.649 55.764 671.113 55.392 672.817 55.392C674.425 55.392 675.853 55.764 677.101 56.508C678.373 57.252 679.357 58.308 680.053 59.676C680.749 61.02 681.097 62.604 681.097 64.428V76.488H677.389V65.076C677.389 63.012 676.909 61.428 675.949 60.324C675.013 59.196 673.705 58.632 672.025 58.632C670.849 58.632 669.793 58.968 668.857 59.64C667.921 60.288 667.177 61.164 666.625 62.268C666.097 63.372 665.833 64.56 665.833 65.832V76.488H662.125V46.752H665.833ZM696.936 59.172H692.364V76.488H688.656V59.172H684.084V55.896H688.656V49.632H692.364V55.896H696.936V59.172ZM701.512 80.124H698.56L699.712 71.988H703.312L701.512 80.124ZM727.412 76.992C725.492 76.992 723.752 76.524 722.192 75.588C720.656 74.652 719.444 73.356 718.556 71.7C717.668 70.044 717.224 68.208 717.224 66.192C717.224 64.176 717.668 62.34 718.556 60.684C719.444 59.028 720.656 57.732 722.192 56.796C723.752 55.86 725.492 55.392 727.412 55.392C729.164 55.392 730.676 55.74 731.948 56.436C733.22 57.132 734.144 57.972 734.72 58.956V55.896H738.428V76.488H734.72V73.428C734.144 74.412 733.22 75.252 731.948 75.948C730.676 76.644 729.164 76.992 727.412 76.992ZM727.736 73.716C729.104 73.716 730.316 73.392 731.372 72.744C732.452 72.072 733.292 71.172 733.892 70.044C734.492 68.892 734.792 67.608 734.792 66.192C734.792 64.776 734.492 63.504 733.892 62.376C733.292 61.224 732.452 60.324 731.372 59.676C730.316 59.004 729.104 58.668 727.736 58.668C726.392 58.668 725.192 58.992 724.136 59.64C723.104 60.288 722.3 61.188 721.724 62.34C721.148 63.492 720.86 64.776 720.86 66.192C720.86 67.608 721.148 68.892 721.724 70.044C722.3 71.196 723.104 72.096 724.136 72.744C725.192 73.392 726.392 73.716 727.736 73.716ZM754.618 59.172H750.046V76.488H746.338V59.172H742.27V55.896H746.338V52.404C746.338 50.652 746.818 49.248 747.778 48.192C748.762 47.136 750.118 46.608 751.846 46.608C752.806 46.608 753.61 46.68 754.258 46.824V49.956C753.922 49.884 753.334 49.848 752.494 49.848C751.726 49.848 751.126 50.088 750.694 50.568C750.262 51.024 750.046 51.672 750.046 52.512V55.896H754.618V59.172ZM769.358 59.172H764.786V76.488H761.078V59.172H756.506V55.896H761.078V49.632H764.786V55.896H769.358V59.172ZM781.767 76.992C779.799 76.992 778.023 76.524 776.439 75.588C774.879 74.652 773.655 73.368 772.767 71.736C771.879 70.08 771.435 68.232 771.435 66.192C771.435 64.152 771.879 62.316 772.767 60.684C773.655 59.028 774.879 57.732 776.439 56.796C778.023 55.86 779.799 55.392 781.767 55.392C783.735 55.392 785.499 55.86 787.059 56.796C788.643 57.732 789.867 59.028 790.731 60.684C791.619 62.316 792.063 64.152 792.063 66.192C792.063 66.864 792.039 67.368 791.991 67.704H775.143C775.335 69.504 776.031 70.98 777.231 72.132C778.455 73.284 779.967 73.86 781.767 73.86C783.135 73.86 784.335 73.584 785.367 73.032C786.423 72.456 787.143 71.736 787.527 70.872H791.307C790.731 72.672 789.579 74.136 787.851 75.264C786.123 76.416 784.095 76.992 781.767 76.992ZM788.427 64.68C788.211 62.856 787.503 61.38 786.303 60.252C785.103 59.1 783.591 58.524 781.767 58.524C779.943 58.524 778.431 59.1 777.231 60.252C776.031 61.38 775.335 62.856 775.143 64.68H788.427ZM800.481 55.896V59.064C801.033 58.128 801.945 57.288 803.217 56.544C804.513 55.776 806.073 55.392 807.897 55.392C809.073 55.392 810.009 55.512 810.705 55.752V59.28C809.865 58.896 808.845 58.704 807.645 58.704C806.277 58.704 805.041 59.04 803.937 59.712C802.857 60.36 802.005 61.236 801.381 62.34C800.781 63.42 800.481 64.584 800.481 65.832V76.488H796.773V55.896H800.481ZM816.222 46.392C816.942 46.392 817.53 46.632 817.986 47.112C818.466 47.568 818.706 48.144 818.706 48.84C818.706 49.536 818.466 50.124 817.986 50.604C817.53 51.06 816.942 51.288 816.222 51.288C815.526 51.288 814.938 51.06 814.458 50.604C814.002 50.124 813.774 49.536 813.774 48.84C813.774 48.144 814.002 47.568 814.458 47.112C814.938 46.632 815.526 46.392 816.222 46.392ZM814.386 76.524V55.896H818.094V76.524H814.386ZM827.622 55.896V58.812C828.222 57.852 829.014 57.048 829.998 56.4C831.006 55.728 832.29 55.392 833.85 55.392C835.362 55.392 836.682 55.776 837.81 56.544C838.938 57.312 839.754 58.368 840.258 59.712C840.882 58.392 841.83 57.348 843.102 56.58C844.374 55.788 845.862 55.392 847.566 55.392C849.03 55.392 850.326 55.752 851.454 56.472C852.606 57.168 853.506 58.164 854.154 59.46C854.802 60.756 855.126 62.256 855.126 63.96V76.488H851.418V64.572C851.418 62.724 850.998 61.272 850.158 60.216C849.318 59.16 848.166 58.632 846.702 58.632C845.694 58.632 844.782 58.932 843.966 59.532C843.15 60.132 842.514 60.948 842.058 61.98C841.602 63.012 841.374 64.152 841.374 65.4V76.488H837.666V64.716C837.666 62.796 837.246 61.308 836.406 60.252C835.566 59.172 834.414 58.632 832.95 58.632C831.942 58.632 831.03 58.932 830.214 59.532C829.422 60.132 828.786 60.948 828.306 61.98C827.85 63.012 827.622 64.14 827.622 65.364V76.488H823.914V55.896H827.622ZM869.514 76.992C867.594 76.992 865.854 76.524 864.294 75.588C862.758 74.652 861.546 73.356 860.658 71.7C859.77 70.044 859.326 68.208 859.326 66.192C859.326 64.176 859.77 62.34 860.658 60.684C861.546 59.028 862.758 57.732 864.294 56.796C865.854 55.86 867.594 55.392 869.514 55.392C871.266 55.392 872.778 55.74 874.05 56.436C875.322 57.132 876.246 57.972 876.822 58.956V55.896H880.53V76.488H876.822V73.428C876.246 74.412 875.322 75.252 874.05 75.948C872.778 76.644 871.266 76.992 869.514 76.992ZM869.838 73.716C871.206 73.716 872.418 73.392 873.474 72.744C874.554 72.072 875.394 71.172 875.994 70.044C876.594 68.892 876.894 67.608 876.894 66.192C876.894 64.776 876.594 63.504 875.994 62.376C875.394 61.224 874.554 60.324 873.474 59.676C872.418 59.004 871.206 58.668 869.838 58.668C868.494 58.668 867.294 58.992 866.238 59.64C865.206 60.288 864.402 61.188 863.826 62.34C863.25 63.492 862.962 64.776 862.962 66.192C862.962 67.608 863.25 68.892 863.826 70.044C864.402 71.196 865.206 72.096 866.238 72.744C867.294 73.392 868.494 73.716 869.838 73.716ZM896.431 85.74C893.647 85.74 891.415 85.044 889.735 83.652C888.079 82.284 887.059 80.544 886.675 78.432H890.455C890.695 79.632 891.307 80.616 892.291 81.384C893.299 82.152 894.679 82.536 896.431 82.536C898.327 82.536 899.851 81.936 901.003 80.736C902.179 79.56 902.767 77.976 902.767 75.984V73.14C902.191 74.124 901.267 74.964 899.995 75.66C898.723 76.356 897.211 76.704 895.459 76.704C893.539 76.704 891.799 76.236 890.239 75.3C888.703 74.388 887.491 73.128 886.603 71.52C885.715 69.888 885.271 68.076 885.271 66.084C885.271 64.092 885.715 62.28 886.603 60.648C887.491 59.016 888.703 57.732 890.239 56.796C891.799 55.86 893.539 55.392 895.459 55.392C897.211 55.392 898.723 55.74 899.995 56.436C901.267 57.132 902.191 57.972 902.767 58.956V55.896H906.475V76.02C906.475 77.892 906.043 79.56 905.179 81.024C904.339 82.512 903.151 83.664 901.615 84.48C900.103 85.32 898.375 85.74 896.431 85.74ZM895.783 73.5C897.151 73.5 898.363 73.176 899.419 72.528C900.499 71.88 901.339 70.992 901.939 69.864C902.539 68.736 902.839 67.476 902.839 66.084C902.839 64.692 902.539 63.432 901.939 62.304C901.339 61.176 900.499 60.288 899.419 59.64C898.363 58.992 897.151 58.668 895.783 58.668C894.439 58.668 893.239 58.992 892.183 59.64C891.151 60.288 890.347 61.176 889.771 62.304C889.195 63.432 888.907 64.692 888.907 66.084C888.907 67.476 889.195 68.736 889.771 69.864C890.347 70.992 891.151 71.88 892.183 72.528C893.239 73.176 894.439 73.5 895.783 73.5ZM921.549 76.992C919.581 76.992 917.805 76.524 916.221 75.588C914.661 74.652 913.437 73.368 912.549 71.736C911.661 70.08 911.217 68.232 911.217 66.192C911.217 64.152 911.661 62.316 912.549 60.684C913.437 59.028 914.661 57.732 916.221 56.796C917.805 55.86 919.581 55.392 921.549 55.392C923.517 55.392 925.281 55.86 926.841 56.796C928.425 57.732 929.649 59.028 930.513 60.684C931.401 62.316 931.845 64.152 931.845 66.192C931.845 66.864 931.821 67.368 931.773 67.704H914.925C915.117 69.504 915.813 70.98 917.013 72.132C918.237 73.284 919.749 73.86 921.549 73.86C922.917 73.86 924.117 73.584 925.149 73.032C926.205 72.456 926.925 71.736 927.309 70.872H931.089C930.513 72.672 929.361 74.136 927.633 75.264C925.905 76.416 923.877 76.992 921.549 76.992ZM928.209 64.68C927.993 62.856 927.285 61.38 926.085 60.252C924.885 59.1 923.373 58.524 921.549 58.524C919.725 58.524 918.213 59.1 917.013 60.252C915.813 61.38 915.117 62.856 914.925 64.68H928.209ZM944.654 55.392C946.31 55.392 947.81 55.656 949.154 56.184C950.498 56.688 951.566 57.396 952.358 58.308C953.174 59.196 953.606 60.216 953.654 61.368H950.018C949.946 60.504 949.394 59.796 948.362 59.244C947.33 58.692 946.058 58.416 944.546 58.416C943.058 58.416 941.822 58.68 940.838 59.208C939.878 59.736 939.398 60.384 939.398 61.152C939.398 62.04 939.842 62.748 940.73 63.276C941.642 63.804 943.31 64.236 945.734 64.572C948.734 64.98 950.882 65.676 952.178 66.66C953.474 67.644 954.122 68.964 954.122 70.62C954.122 71.916 953.702 73.044 952.862 74.004C952.046 74.964 950.93 75.696 949.514 76.2C948.098 76.728 946.526 76.992 944.798 76.992C942.998 76.992 941.414 76.716 940.046 76.164C938.678 75.636 937.598 74.892 936.806 73.932C936.038 72.996 935.606 71.928 935.51 70.728H939.146C939.266 71.616 939.818 72.384 940.802 73.032C941.81 73.656 943.178 73.968 944.906 73.968C946.514 73.968 947.846 73.68 948.902 73.104C949.958 72.504 950.486 71.748 950.486 70.836C950.486 69.972 949.994 69.288 949.01 68.784C948.05 68.256 946.37 67.836 943.97 67.524C941.138 67.14 939.062 66.468 937.742 65.508C936.422 64.524 935.762 63.144 935.762 61.368C935.762 60.192 936.146 59.148 936.914 58.236C937.706 57.324 938.774 56.628 940.118 56.148C941.462 55.644 942.974 55.392 944.654 55.392ZM960.824 80.124H957.872L959.024 71.988H962.624L960.824 80.124ZM70.1488 123.992C68.2288 123.992 66.4888 123.524 64.9288 122.588C63.3928 121.652 62.1808 120.356 61.2928 118.7C60.4048 117.044 59.9608 115.208 59.9608 113.192C59.9608 111.176 60.4048 109.34 61.2928 107.684C62.1808 106.028 63.3928 104.732 64.9288 103.796C66.4888 102.86 68.2288 102.392 70.1488 102.392C71.9008 102.392 73.4128 102.74 74.6848 103.436C75.9568 104.132 76.8808 104.972 77.4568 105.956V102.896H81.1648V123.488H77.4568V120.428C76.8808 121.412 75.9568 122.252 74.6848 122.948C73.4128 123.644 71.9008 123.992 70.1488 123.992ZM70.4728 120.716C71.8408 120.716 73.0528 120.392 74.1088 119.744C75.1888 119.072 76.0288 118.172 76.6288 117.044C77.2288 115.892 77.5288 114.608 77.5288 113.192C77.5288 111.776 77.2288 110.504 76.6288 109.376C76.0288 108.224 75.1888 107.324 74.1088 106.676C73.0528 106.004 71.8408 105.668 70.4728 105.668C69.1288 105.668 67.9288 105.992 66.8728 106.64C65.8408 107.288 65.0368 108.188 64.4608 109.34C63.8848 110.492 63.5968 111.776 63.5968 113.192C63.5968 114.608 63.8848 115.892 64.4608 117.044C65.0368 118.196 65.8408 119.096 66.8728 119.744C67.9288 120.392 69.1288 120.716 70.4728 120.716ZM90.6941 102.896V106.028C91.2221 105.092 92.0861 104.252 93.2861 103.508C94.5101 102.764 95.9741 102.392 97.6781 102.392C99.2861 102.392 100.714 102.764 101.962 103.508C103.234 104.252 104.218 105.308 104.914 106.676C105.61 108.02 105.958 109.604 105.958 111.428V123.488H102.25V112.076C102.25 110.012 101.77 108.428 100.81 107.324C99.8741 106.196 98.5661 105.632 96.8861 105.632C95.7101 105.632 94.6541 105.968 93.7181 106.64C92.7821 107.288 92.0381 108.164 91.4861 109.268C90.9581 110.372 90.6941 111.56 90.6941 112.832V123.488H86.9861V102.896H90.6941ZM120.317 123.992C118.397 123.992 116.657 123.524 115.097 122.588C113.561 121.652 112.349 120.356 111.461 118.7C110.573 117.044 110.129 115.208 110.129 113.192C110.129 111.176 110.573 109.34 111.461 107.684C112.349 106.028 113.561 104.732 115.097 103.796C116.657 102.86 118.397 102.392 120.317 102.392C122.069 102.392 123.581 102.74 124.853 103.436C126.125 104.132 127.049 104.972 127.625 105.956V93.752H131.333V123.488H127.625V120.428C127.049 121.412 126.125 122.252 124.853 122.948C123.581 123.644 122.069 123.992 120.317 123.992ZM120.641 120.716C122.009 120.716 123.221 120.392 124.277 119.744C125.357 119.072 126.197 118.172 126.797 117.044C127.397 115.892 127.697 114.608 127.697 113.192C127.697 111.776 127.397 110.504 126.797 109.376C126.197 108.224 125.357 107.324 124.277 106.676C123.221 106.004 122.009 105.668 120.641 105.668C119.297 105.668 118.097 105.992 117.041 106.64C116.009 107.288 115.205 108.188 114.629 109.34C114.053 110.492 113.765 111.776 113.765 113.192C113.765 114.608 114.053 115.892 114.629 117.044C115.205 118.196 116.009 119.096 117.041 119.744C118.097 120.392 119.297 120.716 120.641 120.716ZM158.044 106.172H153.472V123.488H149.764V106.172H145.192V102.896H149.764V96.632H153.472V102.896H158.044V106.172ZM165.577 102.896V106.064C166.129 105.128 167.041 104.288 168.313 103.544C169.609 102.776 171.169 102.392 172.993 102.392C174.169 102.392 175.105 102.512 175.801 102.752V106.28C174.961 105.896 173.941 105.704 172.741 105.704C171.373 105.704 170.137 106.04 169.033 106.712C167.953 107.36 167.101 108.236 166.477 109.34C165.877 110.42 165.577 111.584 165.577 112.832V123.488H161.869V102.896H165.577ZM187.5 123.992C185.58 123.992 183.84 123.524 182.28 122.588C180.744 121.652 179.532 120.356 178.644 118.7C177.756 117.044 177.312 115.208 177.312 113.192C177.312 111.176 177.756 109.34 178.644 107.684C179.532 106.028 180.744 104.732 182.28 103.796C183.84 102.86 185.58 102.392 187.5 102.392C189.252 102.392 190.764 102.74 192.036 103.436C193.308 104.132 194.232 104.972 194.808 105.956V102.896H198.516V123.488H194.808V120.428C194.232 121.412 193.308 122.252 192.036 122.948C190.764 123.644 189.252 123.992 187.5 123.992ZM187.824 120.716C189.192 120.716 190.404 120.392 191.46 119.744C192.54 119.072 193.38 118.172 193.98 117.044C194.58 115.892 194.88 114.608 194.88 113.192C194.88 111.776 194.58 110.504 193.98 109.376C193.38 108.224 192.54 107.324 191.46 106.676C190.404 106.004 189.192 105.668 187.824 105.668C186.48 105.668 185.28 105.992 184.224 106.64C183.192 107.288 182.388 108.188 181.812 109.34C181.236 110.492 180.948 111.776 180.948 113.192C180.948 114.608 181.236 115.892 181.812 117.044C182.388 118.196 183.192 119.096 184.224 119.744C185.28 120.392 186.48 120.716 187.824 120.716ZM223.526 116.504C222.974 118.76 221.81 120.572 220.034 121.94C218.282 123.308 216.218 123.992 213.842 123.992C211.826 123.992 210.014 123.524 208.406 122.588C206.798 121.652 205.538 120.368 204.626 118.736C203.714 117.08 203.258 115.232 203.258 113.192C203.258 111.152 203.702 109.316 204.59 107.684C205.502 106.028 206.762 104.732 208.37 103.796C209.978 102.86 211.778 102.392 213.77 102.392C215.354 102.392 216.818 102.716 218.162 103.364C219.53 103.988 220.67 104.864 221.582 105.992C222.494 107.12 223.118 108.392 223.454 109.808H219.674C219.242 108.56 218.51 107.564 217.478 106.82C216.446 106.052 215.21 105.668 213.77 105.668C212.426 105.668 211.226 106.004 210.17 106.676C209.138 107.324 208.334 108.224 207.758 109.376C207.182 110.504 206.894 111.776 206.894 113.192C206.894 114.608 207.182 115.892 207.758 117.044C208.334 118.172 209.138 119.072 210.17 119.744C211.226 120.392 212.426 120.716 213.77 120.716C215.21 120.716 216.458 120.332 217.514 119.564C218.57 118.796 219.314 117.776 219.746 116.504H223.526ZM237.32 123.992C235.352 123.992 233.576 123.524 231.992 122.588C230.432 121.652 229.208 120.368 228.32 118.736C227.432 117.08 226.988 115.232 226.988 113.192C226.988 111.152 227.432 109.316 228.32 107.684C229.208 106.028 230.432 104.732 231.992 103.796C233.576 102.86 235.352 102.392 237.32 102.392C239.288 102.392 241.052 102.86 242.612 103.796C244.196 104.732 245.42 106.028 246.284 107.684C247.172 109.316 247.616 111.152 247.616 113.192C247.616 113.864 247.592 114.368 247.544 114.704H230.696C230.888 116.504 231.584 117.98 232.784 119.132C234.008 120.284 235.52 120.86 237.32 120.86C238.688 120.86 239.888 120.584 240.92 120.032C241.976 119.456 242.696 118.736 243.08 117.872H246.86C246.284 119.672 245.132 121.136 243.404 122.264C241.676 123.416 239.648 123.992 237.32 123.992ZM243.98 111.68C243.764 109.856 243.056 108.38 241.856 107.252C240.656 106.1 239.144 105.524 237.32 105.524C235.496 105.524 233.984 106.1 232.784 107.252C231.584 108.38 230.888 109.856 230.696 111.68H243.98ZM260.426 102.392C262.082 102.392 263.582 102.656 264.926 103.184C266.27 103.688 267.338 104.396 268.13 105.308C268.946 106.196 269.378 107.216 269.426 108.368H265.79C265.718 107.504 265.166 106.796 264.134 106.244C263.102 105.692 261.83 105.416 260.318 105.416C258.83 105.416 257.594 105.68 256.61 106.208C255.65 106.736 255.17 107.384 255.17 108.152C255.17 109.04 255.614 109.748 256.502 110.276C257.414 110.804 259.082 111.236 261.506 111.572C264.506 111.98 266.654 112.676 267.95 113.66C269.246 114.644 269.894 115.964 269.894 117.62C269.894 118.916 269.474 120.044 268.634 121.004C267.818 121.964 266.702 122.696 265.286 123.2C263.87 123.728 262.298 123.992 260.57 123.992C258.77 123.992 257.186 123.716 255.818 123.164C254.45 122.636 253.37 121.892 252.578 120.932C251.81 119.996 251.378 118.928 251.282 117.728H254.918C255.038 118.616 255.59 119.384 256.574 120.032C257.582 120.656 258.95 120.968 260.678 120.968C262.286 120.968 263.618 120.68 264.674 120.104C265.73 119.504 266.258 118.748 266.258 117.836C266.258 116.972 265.766 116.288 264.782 115.784C263.822 115.256 262.142 114.836 259.742 114.524C256.91 114.14 254.834 113.468 253.514 112.508C252.194 111.524 251.534 110.144 251.534 108.368C251.534 107.192 251.918 106.148 252.686 105.236C253.478 104.324 254.546 103.628 255.89 103.148C257.234 102.644 258.746 102.392 260.426 102.392ZM294.138 102.392C296.13 102.392 297.93 102.86 299.538 103.796C301.146 104.732 302.394 106.028 303.282 107.684C304.194 109.316 304.65 111.152 304.65 113.192C304.65 115.232 304.194 117.08 303.282 118.736C302.394 120.368 301.146 121.652 299.538 122.588C297.93 123.524 296.13 123.992 294.138 123.992C292.122 123.992 290.31 123.524 288.702 122.588C287.118 121.652 285.87 120.368 284.958 118.736C284.046 117.08 283.59 115.232 283.59 113.192C283.59 111.152 284.046 109.316 284.958 107.684C285.87 106.028 287.118 104.732 288.702 103.796C290.31 102.86 292.122 102.392 294.138 102.392ZM294.138 105.668C292.794 105.668 291.594 106.004 290.538 106.676C289.506 107.324 288.69 108.224 288.09 109.376C287.514 110.504 287.226 111.776 287.226 113.192C287.226 114.608 287.514 115.892 288.09 117.044C288.69 118.172 289.506 119.072 290.538 119.744C291.594 120.392 292.794 120.716 294.138 120.716C295.458 120.716 296.646 120.392 297.702 119.744C298.758 119.072 299.574 118.172 300.15 117.044C300.726 115.892 301.014 114.608 301.014 113.192C301.014 111.776 300.726 110.504 300.15 109.376C299.574 108.224 298.758 107.324 297.702 106.676C296.646 106.004 295.458 105.668 294.138 105.668ZM319.085 106.172H314.513V123.488H310.805V106.172H306.737V102.896H310.805V99.404C310.805 97.652 311.285 96.248 312.245 95.192C313.229 94.136 314.585 93.608 316.313 93.608C317.273 93.608 318.077 93.68 318.725 93.824V96.956C318.389 96.884 317.801 96.848 316.961 96.848C316.193 96.848 315.593 97.088 315.161 97.568C314.729 98.024 314.513 98.672 314.513 99.512V102.896H319.085V106.172ZM343.563 106.172H338.991V123.488H335.283V106.172H330.711V102.896H335.283V96.632H338.991V102.896H343.563V106.172ZM351.096 93.752V106.028C351.624 105.092 352.488 104.252 353.688 103.508C354.912 102.764 356.376 102.392 358.08 102.392C359.688 102.392 361.116 102.764 362.364 103.508C363.636 104.252 364.62 105.308 365.316 106.676C366.012 108.02 366.36 109.604 366.36 111.428V123.488H362.652V112.076C362.652 110.012 362.172 108.428 361.212 107.324C360.276 106.196 358.968 105.632 357.288 105.632C356.112 105.632 355.056 105.968 354.12 106.64C353.184 107.288 352.44 108.164 351.888 109.268C351.36 110.372 351.096 111.56 351.096 112.832V123.488H347.388V93.752H351.096ZM380.969 123.992C379.001 123.992 377.225 123.524 375.641 122.588C374.081 121.652 372.857 120.368 371.969 118.736C371.081 117.08 370.637 115.232 370.637 113.192C370.637 111.152 371.081 109.316 371.969 107.684C372.857 106.028 374.081 104.732 375.641 103.796C377.225 102.86 379.001 102.392 380.969 102.392C382.937 102.392 384.701 102.86 386.261 103.796C387.845 104.732 389.069 106.028 389.933 107.684C390.821 109.316 391.265 111.152 391.265 113.192C391.265 113.864 391.241 114.368 391.193 114.704H374.345C374.537 116.504 375.233 117.98 376.433 119.132C377.657 120.284 379.169 120.86 380.969 120.86C382.337 120.86 383.537 120.584 384.569 120.032C385.625 119.456 386.345 118.736 386.729 117.872H390.509C389.933 119.672 388.781 121.136 387.053 122.264C385.325 123.416 383.297 123.992 380.969 123.992ZM387.629 111.68C387.413 109.856 386.705 108.38 385.505 107.252C384.305 106.1 382.793 105.524 380.969 105.524C379.145 105.524 377.633 106.1 376.433 107.252C375.233 108.38 374.537 109.856 374.345 111.68H387.629ZM417.08 123.992C415.328 123.992 413.816 123.644 412.544 122.948C411.272 122.252 410.348 121.412 409.772 120.428V132.236H406.064V102.896H409.772V105.956C410.348 104.972 411.272 104.132 412.544 103.436C413.816 102.74 415.328 102.392 417.08 102.392C419 102.392 420.728 102.86 422.264 103.796C423.824 104.732 425.048 106.028 425.936 107.684C426.824 109.34 427.268 111.176 427.268 113.192C427.268 115.208 426.824 117.044 425.936 118.7C425.048 120.356 423.824 121.652 422.264 122.588C420.728 123.524 419 123.992 417.08 123.992ZM416.756 120.716C418.1 120.716 419.288 120.392 420.32 119.744C421.376 119.096 422.192 118.196 422.768 117.044C423.344 115.892 423.632 114.608 423.632 113.192C423.632 111.776 423.344 110.492 422.768 109.34C422.192 108.188 421.376 107.288 420.32 106.64C419.288 105.992 418.1 105.668 416.756 105.668C415.388 105.668 414.164 106.004 413.084 106.676C412.028 107.324 411.2 108.224 410.6 109.376C410 110.504 409.7 111.776 409.7 113.192C409.7 114.608 410 115.892 410.6 117.044C411.2 118.172 412.028 119.072 413.084 119.744C414.164 120.392 415.388 120.716 416.756 120.716ZM441.262 123.992C439.294 123.992 437.518 123.524 435.934 122.588C434.374 121.652 433.15 120.368 432.262 118.736C431.374 117.08 430.93 115.232 430.93 113.192C430.93 111.152 431.374 109.316 432.262 107.684C433.15 106.028 434.374 104.732 435.934 103.796C437.518 102.86 439.294 102.392 441.262 102.392C443.23 102.392 444.994 102.86 446.554 103.796C448.138 104.732 449.362 106.028 450.226 107.684C451.114 109.316 451.558 111.152 451.558 113.192C451.558 113.864 451.534 114.368 451.486 114.704H434.638C434.83 116.504 435.526 117.98 436.726 119.132C437.95 120.284 439.462 120.86 441.262 120.86C442.63 120.86 443.83 120.584 444.862 120.032C445.918 119.456 446.638 118.736 447.022 117.872H450.802C450.226 119.672 449.074 121.136 447.346 122.264C445.618 123.416 443.59 123.992 441.262 123.992ZM447.922 111.68C447.706 109.856 446.998 108.38 445.798 107.252C444.598 106.1 443.086 105.524 441.262 105.524C439.438 105.524 437.926 106.1 436.726 107.252C435.526 108.38 434.83 109.856 434.638 111.68H447.922ZM459.975 102.896V106.064C460.527 105.128 461.439 104.288 462.711 103.544C464.007 102.776 465.567 102.392 467.391 102.392C468.567 102.392 469.503 102.512 470.199 102.752V106.28C469.359 105.896 468.339 105.704 467.139 105.704C465.771 105.704 464.535 106.04 463.431 106.712C462.351 107.36 461.499 108.236 460.875 109.34C460.275 110.42 459.975 111.584 459.975 112.832V123.488H456.267V102.896H459.975ZM481.981 102.392C483.637 102.392 485.137 102.656 486.481 103.184C487.825 103.688 488.893 104.396 489.685 105.308C490.501 106.196 490.933 107.216 490.981 108.368H487.345C487.273 107.504 486.721 106.796 485.689 106.244C484.657 105.692 483.385 105.416 481.873 105.416C480.385 105.416 479.149 105.68 478.165 106.208C477.205 106.736 476.725 107.384 476.725 108.152C476.725 109.04 477.169 109.748 478.057 110.276C478.969 110.804 480.637 111.236 483.061 111.572C486.061 111.98 488.209 112.676 489.505 113.66C490.801 114.644 491.449 115.964 491.449 117.62C491.449 118.916 491.029 120.044 490.189 121.004C489.373 121.964 488.257 122.696 486.841 123.2C485.425 123.728 483.853 123.992 482.125 123.992C480.325 123.992 478.741 123.716 477.373 123.164C476.005 122.636 474.925 121.892 474.133 120.932C473.365 119.996 472.933 118.928 472.837 117.728H476.473C476.593 118.616 477.145 119.384 478.129 120.032C479.137 120.656 480.505 120.968 482.233 120.968C483.841 120.968 485.173 120.68 486.229 120.104C487.285 119.504 487.813 118.748 487.813 117.836C487.813 116.972 487.321 116.288 486.337 115.784C485.377 115.256 483.697 114.836 481.297 114.524C478.465 114.14 476.389 113.468 475.069 112.508C473.749 111.524 473.089 110.144 473.089 108.368C473.089 107.192 473.473 106.148 474.241 105.236C475.033 104.324 476.101 103.628 477.445 103.148C478.789 102.644 480.301 102.392 481.981 102.392ZM505.603 102.392C507.595 102.392 509.395 102.86 511.003 103.796C512.611 104.732 513.859 106.028 514.747 107.684C515.659 109.316 516.115 111.152 516.115 113.192C516.115 115.232 515.659 117.08 514.747 118.736C513.859 120.368 512.611 121.652 511.003 122.588C509.395 123.524 507.595 123.992 505.603 123.992C503.587 123.992 501.775 123.524 500.167 122.588C498.583 121.652 497.335 120.368 496.423 118.736C495.511 117.08 495.055 115.232 495.055 113.192C495.055 111.152 495.511 109.316 496.423 107.684C497.335 106.028 498.583 104.732 500.167 103.796C501.775 102.86 503.587 102.392 505.603 102.392ZM505.603 105.668C504.259 105.668 503.059 106.004 502.003 106.676C500.971 107.324 500.155 108.224 499.555 109.376C498.979 110.504 498.691 111.776 498.691 113.192C498.691 114.608 498.979 115.892 499.555 117.044C500.155 118.172 500.971 119.072 502.003 119.744C503.059 120.392 504.259 120.716 505.603 120.716C506.923 120.716 508.111 120.392 509.167 119.744C510.223 119.072 511.039 118.172 511.615 117.044C512.191 115.892 512.479 114.608 512.479 113.192C512.479 111.776 512.191 110.504 511.615 109.376C511.039 108.224 510.223 107.324 509.167 106.676C508.111 106.004 506.923 105.668 505.603 105.668ZM524.557 102.896V106.028C525.085 105.092 525.949 104.252 527.149 103.508C528.373 102.764 529.837 102.392 531.541 102.392C533.149 102.392 534.577 102.764 535.825 103.508C537.097 104.252 538.081 105.308 538.777 106.676C539.473 108.02 539.821 109.604 539.821 111.428V123.488H536.113V112.076C536.113 110.012 535.633 108.428 534.673 107.324C533.737 106.196 532.429 105.632 530.749 105.632C529.573 105.632 528.517 105.968 527.581 106.64C526.645 107.288 525.901 108.164 525.349 109.268C524.821 110.372 524.557 111.56 524.557 112.832V123.488H520.849V102.896H524.557ZM586.086 102.896L578.814 123.488H575.07L569.634 107.72L564.234 123.488H560.49L553.218 102.896H557.07L562.47 118.88L567.834 102.896H571.578L576.978 118.988L582.414 102.896H586.086ZM593.675 93.752V106.028C594.203 105.092 595.067 104.252 596.267 103.508C597.491 102.764 598.955 102.392 600.659 102.392C602.267 102.392 603.695 102.764 604.943 103.508C606.215 104.252 607.199 105.308 607.895 106.676C608.591 108.02 608.939 109.604 608.939 111.428V123.488H605.231V112.076C605.231 110.012 604.751 108.428 603.791 107.324C602.855 106.196 601.547 105.632 599.867 105.632C598.691 105.632 597.635 105.968 596.699 106.64C595.763 107.288 595.019 108.164 594.467 109.268C593.939 110.372 593.675 111.56 593.675 112.832V123.488H589.967V93.752H593.675ZM623.763 102.392C625.755 102.392 627.555 102.86 629.163 103.796C630.771 104.732 632.019 106.028 632.907 107.684C633.819 109.316 634.275 111.152 634.275 113.192C634.275 115.232 633.819 117.08 632.907 118.736C632.019 120.368 630.771 121.652 629.163 122.588C627.555 123.524 625.755 123.992 623.763 123.992C621.747 123.992 619.935 123.524 618.327 122.588C616.743 121.652 615.495 120.368 614.583 118.736C613.671 117.08 613.215 115.232 613.215 113.192C613.215 111.152 613.671 109.316 614.583 107.684C615.495 106.028 616.743 104.732 618.327 103.796C619.935 102.86 621.747 102.392 623.763 102.392ZM623.763 105.668C622.419 105.668 621.219 106.004 620.163 106.676C619.131 107.324 618.315 108.224 617.715 109.376C617.139 110.504 616.851 111.776 616.851 113.192C616.851 114.608 617.139 115.892 617.715 117.044C618.315 118.172 619.131 119.072 620.163 119.744C621.219 120.392 622.419 120.716 623.763 120.716C625.083 120.716 626.271 120.392 627.327 119.744C628.383 119.072 629.199 118.172 629.775 117.044C630.351 115.892 630.639 114.608 630.639 113.192C630.639 111.776 630.351 110.504 629.775 109.376C629.199 108.224 628.383 107.324 627.327 106.676C626.271 106.004 625.083 105.668 623.763 105.668ZM652.807 102.896V105.812C653.407 104.852 654.199 104.048 655.183 103.4C656.191 102.728 657.475 102.392 659.035 102.392C660.547 102.392 661.867 102.776 662.995 103.544C664.123 104.312 664.939 105.368 665.443 106.712C666.067 105.392 667.015 104.348 668.287 103.58C669.559 102.788 671.047 102.392 672.751 102.392C674.215 102.392 675.511 102.752 676.639 103.472C677.791 104.168 678.691 105.164 679.339 106.46C679.987 107.756 680.311 109.256 680.311 110.96V123.488H676.603V111.572C676.603 109.724 676.183 108.272 675.343 107.216C674.503 106.16 673.351 105.632 671.887 105.632C670.879 105.632 669.967 105.932 669.151 106.532C668.335 107.132 667.699 107.948 667.243 108.98C666.787 110.012 666.559 111.152 666.559 112.4V123.488H662.851V111.716C662.851 109.796 662.431 108.308 661.591 107.252C660.751 106.172 659.599 105.632 658.135 105.632C657.127 105.632 656.215 105.932 655.399 106.532C654.607 107.132 653.971 107.948 653.491 108.98C653.035 110.012 652.807 111.14 652.807 112.364V123.488H649.099V102.896H652.807ZM694.844 123.992C692.876 123.992 691.1 123.524 689.516 122.588C687.956 121.652 686.732 120.368 685.844 118.736C684.956 117.08 684.512 115.232 684.512 113.192C684.512 111.152 684.956 109.316 685.844 107.684C686.732 106.028 687.956 104.732 689.516 103.796C691.1 102.86 692.876 102.392 694.844 102.392C696.812 102.392 698.576 102.86 700.136 103.796C701.72 104.732 702.944 106.028 703.808 107.684C704.696 109.316 705.14 111.152 705.14 113.192C705.14 113.864 705.116 114.368 705.068 114.704H688.22C688.412 116.504 689.108 117.98 690.308 119.132C691.532 120.284 693.044 120.86 694.844 120.86C696.212 120.86 697.412 120.584 698.444 120.032C699.5 119.456 700.22 118.736 700.604 117.872H704.384C703.808 119.672 702.656 121.136 700.928 122.264C699.2 123.416 697.172 123.992 694.844 123.992ZM701.504 111.68C701.288 109.856 700.58 108.38 699.38 107.252C698.18 106.1 696.668 105.524 694.844 105.524C693.02 105.524 691.508 106.1 690.308 107.252C689.108 108.38 688.412 109.856 688.22 111.68H701.504ZM709.849 123.488V93.752H713.557V123.488H709.849ZM730.177 106.172H725.605V123.488H721.897V106.172H717.325V102.896H721.897V96.632H725.605V102.896H730.177V106.172ZM742.586 123.992C740.618 123.992 738.842 123.524 737.258 122.588C735.698 121.652 734.474 120.368 733.586 118.736C732.698 117.08 732.254 115.232 732.254 113.192C732.254 111.152 732.698 109.316 733.586 107.684C734.474 106.028 735.698 104.732 737.258 103.796C738.842 102.86 740.618 102.392 742.586 102.392C744.554 102.392 746.318 102.86 747.878 103.796C749.462 104.732 750.686 106.028 751.55 107.684C752.438 109.316 752.882 111.152 752.882 113.192C752.882 113.864 752.858 114.368 752.81 114.704H735.962C736.154 116.504 736.85 117.98 738.05 119.132C739.274 120.284 740.786 120.86 742.586 120.86C743.954 120.86 745.154 120.584 746.186 120.032C747.242 119.456 747.962 118.736 748.346 117.872H752.126C751.55 119.672 750.398 121.136 748.67 122.264C746.942 123.416 744.914 123.992 742.586 123.992ZM749.246 111.68C749.03 109.856 748.322 108.38 747.122 107.252C745.922 106.1 744.41 105.524 742.586 105.524C740.762 105.524 739.25 106.1 738.05 107.252C736.85 108.38 736.154 109.856 735.962 111.68H749.246ZM766.7 123.992C764.78 123.992 763.04 123.524 761.48 122.588C759.944 121.652 758.732 120.356 757.844 118.7C756.956 117.044 756.512 115.208 756.512 113.192C756.512 111.176 756.956 109.34 757.844 107.684C758.732 106.028 759.944 104.732 761.48 103.796C763.04 102.86 764.78 102.392 766.7 102.392C768.452 102.392 769.964 102.74 771.236 103.436C772.508 104.132 773.432 104.972 774.008 105.956V93.752H777.716V123.488H774.008V120.428C773.432 121.412 772.508 122.252 771.236 122.948C769.964 123.644 768.452 123.992 766.7 123.992ZM767.024 120.716C768.392 120.716 769.604 120.392 770.66 119.744C771.74 119.072 772.58 118.172 773.18 117.044C773.78 115.892 774.08 114.608 774.08 113.192C774.08 111.776 773.78 110.504 773.18 109.376C772.58 108.224 771.74 107.324 770.66 106.676C769.604 106.004 768.392 105.668 767.024 105.668C765.68 105.668 764.48 105.992 763.424 106.64C762.392 107.288 761.588 108.188 761.012 109.34C760.436 110.492 760.148 111.776 760.148 113.192C760.148 114.608 760.436 115.892 761.012 117.044C761.588 118.196 762.392 119.096 763.424 119.744C764.48 120.392 765.68 120.716 767.024 120.716ZM795.463 93.392C796.183 93.392 796.771 93.632 797.227 94.112C797.707 94.568 797.947 95.144 797.947 95.84C797.947 96.536 797.707 97.124 797.227 97.604C796.771 98.06 796.183 98.288 795.463 98.288C794.767 98.288 794.179 98.06 793.699 97.604C793.243 97.124 793.015 96.536 793.015 95.84C793.015 95.144 793.243 94.568 793.699 94.112C794.179 93.632 794.767 93.392 795.463 93.392ZM793.627 123.524V102.896H797.335V123.524H793.627ZM806.862 102.896V106.028C807.39 105.092 808.254 104.252 809.454 103.508C810.678 102.764 812.142 102.392 813.846 102.392C815.454 102.392 816.882 102.764 818.13 103.508C819.402 104.252 820.386 105.308 821.082 106.676C821.778 108.02 822.126 109.604 822.126 111.428V123.488H818.418V112.076C818.418 110.012 817.938 108.428 816.978 107.324C816.042 106.196 814.734 105.632 813.054 105.632C811.878 105.632 810.822 105.968 809.886 106.64C808.95 107.288 808.206 108.164 807.654 109.268C807.126 110.372 806.862 111.56 806.862 112.832V123.488H803.154V102.896H806.862ZM837.86 106.172H833.288V123.488H829.58V106.172H825.008V102.896H829.58V96.632H833.288V102.896H837.86V106.172ZM850.485 102.392C852.477 102.392 854.277 102.86 855.885 103.796C857.493 104.732 858.741 106.028 859.629 107.684C860.541 109.316 860.997 111.152 860.997 113.192C860.997 115.232 860.541 117.08 859.629 118.736C858.741 120.368 857.493 121.652 855.885 122.588C854.277 123.524 852.477 123.992 850.485 123.992C848.469 123.992 846.657 123.524 845.049 122.588C843.465 121.652 842.217 120.368 841.305 118.736C840.393 117.08 839.937 115.232 839.937 113.192C839.937 111.152 840.393 109.316 841.305 107.684C842.217 106.028 843.465 104.732 845.049 103.796C846.657 102.86 848.469 102.392 850.485 102.392ZM850.485 105.668C849.141 105.668 847.941 106.004 846.885 106.676C845.853 107.324 845.037 108.224 844.437 109.376C843.861 110.504 843.573 111.776 843.573 113.192C843.573 114.608 843.861 115.892 844.437 117.044C845.037 118.172 845.853 119.072 846.885 119.744C847.941 120.392 849.141 120.716 850.485 120.716C851.805 120.716 852.993 120.392 854.049 119.744C855.105 119.072 855.921 118.172 856.497 117.044C857.073 115.892 857.361 114.608 857.361 113.192C857.361 111.776 857.073 110.504 856.497 109.376C855.921 108.224 855.105 107.324 854.049 106.676C852.993 106.004 851.805 105.668 850.485 105.668ZM877.658 93.392C878.378 93.392 878.966 93.632 879.422 94.112C879.902 94.568 880.142 95.144 880.142 95.84C880.142 96.536 879.902 97.124 879.422 97.604C878.966 98.06 878.378 98.288 877.658 98.288C876.962 98.288 876.374 98.06 875.894 97.604C875.438 97.124 875.21 96.536 875.21 95.84C875.21 95.144 875.438 94.568 875.894 94.112C876.374 93.632 876.962 93.392 877.658 93.392ZM875.822 123.524V102.896H879.53V123.524H875.822ZM896.149 106.172H891.577V123.488H887.869V106.172H883.297V102.896H887.869V96.632H891.577V102.896H896.149V106.172ZM900.437 123.956C899.717 123.956 899.105 123.704 898.601 123.2C898.121 122.72 897.881 122.12 897.881 121.4C897.881 120.68 898.121 120.08 898.601 119.6C899.105 119.096 899.717 118.844 900.437 118.844C901.157 118.844 901.757 119.096 902.237 119.6C902.717 120.08 902.957 120.68 902.957 121.4C902.957 122.12 902.717 122.72 902.237 123.2C901.757 123.704 901.157 123.956 900.437 123.956Z" fill="#595B5A"/>
</svg>
