<svg width="140" height="16" viewBox="0 0 140 16" fill="none" xmlns="http://www.w3.org/2000/svg">
<path d="M2.27734 0.67718L5.6085 10.1702H5.73361L9.08041 0.67718H10.5661L6.42174 12H4.93601L0.791608 0.67718H2.27734ZM14.6793 12.172C12.2239 12.172 10.7069 10.4361 10.7069 7.82432C10.7069 5.21256 12.2395 3.39841 14.5541 3.39841C16.337 3.39841 18.2137 4.49316 18.2137 7.63665V8.19966H12.0519C12.1144 9.99818 13.1622 10.9834 14.6793 10.9834C15.6958 10.9834 16.337 10.5455 16.6498 10.0138H18.0886C17.682 11.2962 16.4308 12.172 14.6793 12.172ZM12.0675 7.058H16.8531C16.8531 5.63482 15.946 4.58699 14.5541 4.58699C13.084 4.58699 12.1457 5.7443 12.0675 7.058ZM19.9653 12V3.50788H21.3103V12H19.9653ZM20.6378 2.10035C20.1217 2.10035 19.6995 1.70937 19.6995 1.20891C19.6995 0.708458 20.1217 0.317477 20.6378 0.317477C21.1539 0.317477 21.5918 0.708458 21.5918 1.20891C21.5918 1.70937 21.1539 2.10035 20.6378 2.10035ZM24.7979 0.67718V12H23.4529V0.67718H24.7979ZM30.5062 12.172C28.0508 12.172 26.5338 10.4361 26.5338 7.82432C26.5338 5.21256 28.0665 3.39841 30.3811 3.39841C32.1639 3.39841 34.0407 4.49316 34.0407 7.63665V8.19966H27.8788C27.9413 9.99818 28.9892 10.9834 30.5062 10.9834C31.5227 10.9834 32.1639 10.5455 32.4767 10.0138H33.9155C33.5089 11.2962 32.2578 12.172 30.5062 12.172ZM27.8944 7.058H32.68C32.68 5.63482 31.773 4.58699 30.3811 4.58699C28.911 4.58699 27.9726 5.7443 27.8944 7.058ZM38.9983 12.172C36.887 12.172 35.3856 10.4674 35.3856 7.7774C35.3856 5.08745 36.887 3.39841 39.0139 3.39841C40.6561 3.39841 41.1878 4.39932 41.4693 4.85286H41.5631V0.67718H42.9237V12H41.61V10.7019H41.4693C41.1721 11.1711 40.6248 12.172 38.9983 12.172ZM39.186 10.9678C40.7342 10.9678 41.61 9.65411 41.61 7.74612C41.61 5.86941 40.7655 4.60263 39.186 4.60263C37.5595 4.60263 36.7462 5.97889 36.7462 7.74612C36.7462 9.56028 37.5751 10.9678 39.186 10.9678ZM46.208 12.0938C45.6607 12.0938 45.1915 11.6403 45.2071 11.0773C45.1915 10.5299 45.6607 10.0764 46.208 10.0764C46.7554 10.0764 47.2089 10.5299 47.2089 11.0773C47.2089 11.6403 46.7554 12.0938 46.208 12.0938ZM57.8123 0.67718H59.2355V8.76267C59.2355 10.9365 57.9531 12.1564 55.9825 12.1564C54.1058 12.1564 52.7452 11.0773 52.7452 9.32569H54.1371C54.1371 10.2797 54.9191 10.9053 55.9825 10.9053C57.1555 10.9053 57.8123 10.1702 57.8123 8.76267V0.67718ZM66.93 8.51245V3.50788H68.2593V12H66.93V10.5612H66.8362C66.4296 11.4213 65.6007 12.1095 64.3183 12.1095C62.7074 12.1095 61.5657 11.0616 61.5657 8.90343V3.50788H62.9107V8.80959C62.9107 10.0295 63.677 10.8114 64.7561 10.8114C65.7101 10.8114 66.93 10.092 66.93 8.51245ZM75.1406 5.71302C74.9529 5.00925 74.4212 4.54008 73.4203 4.54008C72.3725 4.54008 71.6218 5.10309 71.6218 5.82249C71.6218 6.38551 72.0753 6.77649 73.0762 7.01108L74.343 7.32386C75.86 7.68357 76.6107 8.43425 76.6107 9.62283C76.6107 11.0929 75.4065 12.172 73.2795 12.172C71.3715 12.172 70.2299 11.3275 70.0109 9.77923H71.4185C71.5749 10.6081 72.1848 10.9991 73.2483 10.9991C74.4525 10.9991 75.2188 10.4986 75.2188 9.70103C75.2188 9.10674 74.7965 8.70012 73.8269 8.48117L72.5445 8.18402C71.0588 7.83996 70.2768 7.02672 70.2768 5.90069C70.2768 4.44624 71.5436 3.39841 73.4203 3.39841C75.1719 3.39841 76.2823 4.33677 76.4543 5.71302H75.1406ZM82.0688 3.50788V4.63391H80.2859V9.56028C80.2859 10.655 80.8177 10.8271 81.3963 10.8271C81.6466 10.8271 81.9906 10.8114 82.1939 10.7958V12.0469C81.9906 12.0782 81.6466 12.1095 81.2556 12.1095C80.1295 12.1095 78.9253 11.4057 78.9253 9.90434V4.63391H77.6429V3.50788H78.9253V1.47478H80.2859V3.50788H82.0688ZM91.6244 3.50788V4.63391H89.7477V12H88.3871V4.63391H87.0264V3.50788H88.3871V2.35058C88.3871 0.974325 89.3098 0.145445 90.8111 0.145445C91.1396 0.145445 91.5305 0.192363 91.8121 0.23928V1.4435C91.5305 1.39659 91.2803 1.38095 91.1083 1.38095C90.1699 1.38095 89.7477 1.77193 89.7477 2.64773V3.50788H91.6244ZM96.3318 12.172C94.0172 12.172 92.4533 10.4361 92.4533 7.79304C92.4533 5.15001 94.0172 3.39841 96.3318 3.39841C98.6308 3.39841 100.179 5.15001 100.179 7.79304C100.179 10.4361 98.6308 12.172 96.3318 12.172ZM96.3318 10.9834C98.0365 10.9834 98.8341 9.48208 98.8341 7.79304C98.8341 6.104 98.0365 4.58699 96.3318 4.58699C94.5959 4.58699 93.7983 6.104 93.7983 7.79304C93.7983 9.48208 94.5959 10.9834 96.3318 10.9834ZM101.946 12V3.50788H103.244V4.80594H103.338C103.651 3.94578 104.527 3.36713 105.528 3.36713C105.731 3.36713 106.075 3.38277 106.231 3.39841V4.75903C106.138 4.72775 105.762 4.66519 105.418 4.66519C104.198 4.66519 103.291 5.50971 103.291 6.65137V12H101.946ZM112.425 15.1904C112.127 15.1904 111.846 15.1748 111.674 15.1591V13.9549C111.815 13.9705 112.127 13.9862 112.331 13.9862C112.878 13.9862 113.332 13.9393 113.785 12.7038L114.035 12.0626L110.892 3.50788H112.362L114.677 10.2484H114.771L117.085 3.50788H118.555L114.958 13.2199C114.458 14.5492 113.629 15.1904 112.425 15.1904ZM123.2 12.172C120.885 12.172 119.322 10.4361 119.322 7.79304C119.322 5.15001 120.885 3.39841 123.2 3.39841C125.499 3.39841 127.047 5.15001 127.047 7.79304C127.047 10.4361 125.499 12.172 123.2 12.172ZM123.2 10.9834C124.905 10.9834 125.702 9.48208 125.702 7.79304C125.702 6.104 124.905 4.58699 123.2 4.58699C121.464 4.58699 120.667 6.104 120.667 7.79304C120.667 9.48208 121.464 10.9834 123.2 10.9834ZM134.179 8.51245V3.50788H135.508V12H134.179V10.5612H134.085C133.678 11.4213 132.849 12.1095 131.567 12.1095C129.956 12.1095 128.815 11.0616 128.815 8.90343V3.50788H130.159V8.80959C130.159 10.0295 130.926 10.8114 132.005 10.8114C132.959 10.8114 134.179 10.092 134.179 8.51245ZM138.62 12.0938C138.073 12.0938 137.604 11.6403 137.619 11.0773C137.604 10.5299 138.073 10.0764 138.62 10.0764C139.168 10.0764 139.621 10.5299 139.621 11.0773C139.621 11.6403 139.168 12.0938 138.62 12.0938Z" fill="#1A1A1A"/>
</svg>
