<svg width="82" height="42" viewBox="0 0 82 42" fill="none" xmlns="http://www.w3.org/2000/svg">
<path d="M23.0818 0.70516C24.2773 0.70516 25.3561 0.918155 26.318 1.34414C27.2799 1.75639 28.0494 2.34041 28.6266 3.0962C29.2037 3.85198 29.5266 4.70396 29.5953 5.65213H27.3692C27.2455 4.74519 26.792 4.00314 26.0088 3.42599C25.2392 2.84885 24.2292 2.56027 22.9788 2.56027C21.7145 2.56027 20.7183 2.80075 19.99 3.28171C19.2754 3.74892 18.9181 4.36042 18.9181 5.11621C18.9181 5.67961 19.0899 6.1537 19.4334 6.53846C19.777 6.90949 20.306 7.23241 21.0206 7.50725C21.7489 7.78208 22.7314 8.05004 23.9682 8.31113C25.9607 8.73712 27.4035 9.34862 28.2968 10.1456C29.2037 10.9289 29.6572 11.9458 29.6572 13.1963C29.6572 14.1582 29.3686 15.0033 28.7915 15.7316C28.2143 16.4461 27.4242 16.9958 26.421 17.3806C25.4179 17.7791 24.3048 17.9783 23.0818 17.9783C21.8039 17.9783 20.6564 17.7585 19.6396 17.3187C18.6364 16.879 17.8325 16.2606 17.2279 15.4636C16.6233 14.6666 16.2866 13.7391 16.2179 12.681H18.444C18.554 13.6978 19.0349 14.5223 19.8869 15.1544C20.7526 15.7866 21.8657 16.1026 23.2261 16.1026C24.0369 16.1026 24.7652 15.9858 25.411 15.7522C26.0569 15.5186 26.5584 15.1888 26.9157 14.7628C27.273 14.3368 27.4516 13.8559 27.4516 13.3199C27.4516 12.7153 27.2799 12.2137 26.9363 11.8152C26.5928 11.4167 26.0569 11.0801 25.3286 10.8052C24.614 10.5167 23.6246 10.2418 22.3604 9.98073C20.4366 9.58223 19.0143 9.00508 18.0936 8.24929C17.1867 7.4935 16.7332 6.44914 16.7332 5.11621C16.7332 4.22301 17.0012 3.44661 17.5371 2.78701C18.0868 2.11367 18.8425 1.59836 19.8045 1.24108C20.7664 0.883801 21.8588 0.70516 23.0818 0.70516ZM37.5944 17.8959C36.4676 17.8959 35.4507 17.6279 34.5438 17.092C33.6505 16.5561 32.9497 15.8209 32.4413 14.8865C31.9329 13.9383 31.6786 12.8802 31.6786 11.7122C31.6786 10.5441 31.9329 9.4929 32.4413 8.55848C32.9497 7.61031 33.6505 6.86826 34.5438 6.33234C35.4507 5.79642 36.4676 5.52846 37.5944 5.52846C38.7212 5.52846 39.7312 5.79642 40.6244 6.33234C41.5313 6.86826 42.2322 7.61031 42.7269 8.55848C43.2353 9.4929 43.4895 10.5441 43.4895 11.7122C43.4895 12.0969 43.4758 12.3855 43.4483 12.5779H33.8017C33.9116 13.6085 34.3101 14.4536 34.9972 15.1132C35.698 15.7728 36.5638 16.1026 37.5944 16.1026C38.3777 16.1026 39.0647 15.9446 39.6556 15.6285C40.2603 15.2987 40.6725 14.8865 40.8924 14.3918H43.0567C42.7269 15.4224 42.0673 16.2606 41.0779 16.9065C40.0885 17.5661 38.9273 17.8959 37.5944 17.8959ZM41.4077 10.8465C41.284 9.80209 40.8786 8.95698 40.1915 8.31113C39.5045 7.65153 38.6387 7.32173 37.5944 7.32173C36.55 7.32173 35.6843 7.65153 34.9972 8.31113C34.3101 8.95698 33.9116 9.80209 33.8017 10.8465H41.4077ZM46.1862 17.6073V0.581486H48.3093V17.6073H46.1862ZM57.5776 7.69276H54.9598V17.6073H52.8368V7.69276H50.5076V5.81703H52.8368V3.81763C52.8368 2.81449 53.1116 2.01061 53.6612 1.40598C54.2247 0.801352 55.0011 0.499036 55.9904 0.499036C56.5401 0.499036 57.0005 0.540261 57.3715 0.62271V2.41599C57.1791 2.37476 56.8424 2.35415 56.3615 2.35415C55.9217 2.35415 55.5782 2.49157 55.3309 2.7664C55.0835 3.02749 54.9598 3.39851 54.9598 3.87947V5.81703H57.5776V7.69276ZM66.3316 10.6197H59.1173V8.7646H66.3316V10.6197ZM6.7362 41.8959C5.60939 41.8959 4.59252 41.6279 3.68557 41.092C2.79237 40.5561 2.09155 39.8209 1.58311 38.8865C1.07467 37.9383 0.82045 36.8802 0.82045 35.7122C0.82045 34.5441 1.07467 33.4929 1.58311 32.5585C2.09155 31.6103 2.79237 30.8683 3.68557 30.3323C4.59252 29.7964 5.60939 29.5285 6.7362 29.5285C7.86301 29.5285 8.87302 29.7964 9.76622 30.3323C10.6732 30.8683 11.374 31.6103 11.8687 32.5585C12.3771 33.4929 12.6313 34.5441 12.6313 35.7122C12.6313 36.0969 12.6176 36.3855 12.5901 36.5779H2.94353C3.05346 37.6085 3.45196 38.4536 4.13904 39.1132C4.83986 39.7728 5.70558 40.1026 6.7362 40.1026C7.51947 40.1026 8.20655 39.9446 8.79744 39.6285C9.40207 39.2987 9.81432 38.8865 10.0342 38.3918H12.1985C11.8687 39.4224 11.2091 40.2606 10.2197 40.9065C9.2303 41.5661 8.06914 41.8959 6.7362 41.8959ZM10.5495 34.8465C10.4258 33.8021 10.0204 32.957 9.33336 32.3111C8.64628 31.6515 7.78056 31.3217 6.7362 31.3217C5.69184 31.3217 4.82612 31.6515 4.13904 32.3111C3.45196 32.957 3.05346 33.8021 2.94353 34.8465H10.5495ZM19.9658 29.5285C20.914 29.5285 21.7728 29.6796 22.5424 29.9819C23.3119 30.2705 23.9234 30.6759 24.3769 31.1981C24.8441 31.7065 25.0914 32.2905 25.1189 32.9501H23.0371C22.9958 32.4554 22.6798 32.05 22.0889 31.734C21.498 31.4179 20.7697 31.2599 19.904 31.2599C19.052 31.2599 18.3443 31.4111 17.7809 31.7134C17.2312 32.0157 16.9564 32.3867 16.9564 32.8264C16.9564 33.3349 17.2106 33.7403 17.7191 34.0426C18.2412 34.3449 19.1963 34.5922 20.5842 34.7846C22.3019 35.0182 23.5318 35.4167 24.2738 35.9801C25.0158 36.5435 25.3869 37.2993 25.3869 38.2475C25.3869 38.9895 25.1464 39.6354 24.6654 40.1851C24.1982 40.7347 23.5592 41.1538 22.7485 41.4424C21.9377 41.7447 21.0377 41.8959 20.0483 41.8959C19.0176 41.8959 18.1107 41.7379 17.3274 41.4218C16.5442 41.1195 15.9258 40.6935 15.4723 40.1438C15.0326 39.6079 14.7852 38.9964 14.7303 38.3093H16.8121C16.8808 38.8178 17.1969 39.2575 17.7603 39.6285C18.3374 39.9858 19.1207 40.1644 20.1101 40.1644C21.0308 40.1644 21.7934 39.9995 22.3981 39.6697C23.0027 39.3262 23.305 38.8933 23.305 38.3712C23.305 37.8765 23.0233 37.4848 22.4599 37.1963C21.9102 36.8939 20.9483 36.6535 19.5742 36.4748C17.9527 36.255 16.764 35.8702 16.0082 35.3205C15.2524 34.7571 14.8746 33.967 14.8746 32.9501C14.8746 32.2768 15.0944 31.679 15.5341 31.1568C15.9876 30.6347 16.5991 30.2361 17.3686 29.9613C18.1382 29.6727 19.0039 29.5285 19.9658 29.5285ZM34.1328 31.6928H31.515V41.6073H29.3919V31.6928H26.7742V29.817H29.3919V26.2305H31.515V29.817H34.1328V31.6928ZM41.2378 41.8959C40.111 41.8959 39.0941 41.6279 38.1872 41.092C37.2939 40.5561 36.5931 39.8209 36.0847 38.8865C35.5762 37.9383 35.322 36.8802 35.322 35.7122C35.322 34.5441 35.5762 33.4929 36.0847 32.5585C36.5931 31.6103 37.2939 30.8683 38.1872 30.3323C39.0941 29.7964 40.111 29.5285 41.2378 29.5285C42.3646 29.5285 43.3746 29.7964 44.2678 30.3323C45.1747 30.8683 45.8756 31.6103 46.3703 32.5585C46.8787 33.4929 47.1329 34.5441 47.1329 35.7122C47.1329 36.0969 47.1192 36.3855 47.0917 36.5779H37.4451C37.555 37.6085 37.9535 38.4536 38.6406 39.1132C39.3414 39.7728 40.2072 40.1026 41.2378 40.1026C42.0211 40.1026 42.7081 39.9446 43.299 39.6285C43.9037 39.2987 44.3159 38.8865 44.5358 38.3918H46.7001C46.3703 39.4224 45.7107 40.2606 44.7213 40.9065C43.7319 41.5661 42.5707 41.8959 41.2378 41.8959ZM45.0511 34.8465C44.9274 33.8021 44.522 32.957 43.8349 32.3111C43.1479 31.6515 42.2821 31.3217 41.2378 31.3217C40.1934 31.3217 39.3277 31.6515 38.6406 32.3111C37.9535 32.957 37.555 33.8021 37.4451 34.8465H45.0511ZM55.127 41.8959C54.0002 41.8959 52.9833 41.6279 52.0764 41.092C51.1832 40.5561 50.4823 39.8209 49.9739 38.8865C49.4655 37.9383 49.2112 36.8802 49.2112 35.7122C49.2112 34.5441 49.4655 33.4929 49.9739 32.5585C50.4823 31.6103 51.1832 30.8683 52.0764 30.3323C52.9833 29.7964 54.0002 29.5285 55.127 29.5285C56.2538 29.5285 57.2638 29.7964 58.157 30.3323C59.064 30.8683 59.7648 31.6103 60.2595 32.5585C60.7679 33.4929 61.0221 34.5441 61.0221 35.7122C61.0221 36.0969 61.0084 36.3855 60.9809 36.5779H51.3343C51.4442 37.6085 51.8427 38.4536 52.5298 39.1132C53.2306 39.7728 54.0964 40.1026 55.127 40.1026C55.9103 40.1026 56.5973 39.9446 57.1882 39.6285C57.7929 39.2987 58.2051 38.8865 58.425 38.3918H60.5893C60.2595 39.4224 59.5999 40.2606 58.6105 40.9065C57.6211 41.5661 56.4599 41.8959 55.127 41.8959ZM58.9403 34.8465C58.8166 33.8021 58.4112 32.957 57.7241 32.3111C57.0371 31.6515 56.1713 31.3217 55.127 31.3217C54.0826 31.3217 53.2169 31.6515 52.5298 32.3111C51.8427 32.957 51.4442 33.8021 51.3343 34.8465H58.9403ZM65.8419 29.817V31.4866C66.1854 30.937 66.6389 30.4766 67.2023 30.1056C67.7794 29.7208 68.5146 29.5285 69.4078 29.5285C70.2735 29.5285 71.0293 29.7483 71.6752 30.1881C72.321 30.6278 72.7883 31.2324 73.0768 32.0019C73.4341 31.2462 73.9769 30.6484 74.7052 30.2087C75.4335 29.7552 76.2855 29.5285 77.2611 29.5285C78.0994 29.5285 78.8414 29.7346 79.4873 30.1468C80.1469 30.5453 80.6622 31.1156 81.0332 31.8577C81.4042 32.5997 81.5897 33.4586 81.5897 34.4342V41.6073H79.4667V34.7846C79.4667 33.7265 79.2262 32.8951 78.7452 32.2905C78.2643 31.6859 77.6047 31.3836 76.7664 31.3836C76.1893 31.3836 75.6671 31.5553 75.1999 31.8989C74.7327 32.2424 74.3685 32.7096 74.1074 33.3005C73.8464 33.8914 73.7158 34.5441 73.7158 35.2587V41.6073H71.5927V34.8671C71.5927 33.7677 71.3523 32.9158 70.8713 32.3111C70.3903 31.6928 69.7307 31.3836 68.8925 31.3836C68.3154 31.3836 67.7932 31.5553 67.326 31.8989C66.8725 32.2424 66.5083 32.7096 66.2335 33.3005C65.9724 33.8914 65.8419 34.5373 65.8419 35.2381V41.6073H63.7188V29.817H65.8419Z" fill="#1A1A1A"/>
</svg>
