<svg width="173" height="29" viewBox="0 0 173 29" fill="none" xmlns="http://www.w3.org/2000/svg">
<path d="M9.68961 2.024C12.5909 2.024 15.0869 2.55733 17.1776 3.624C19.2683 4.69067 20.8683 6.19467 21.9776 8.136C23.0869 10.056 23.6416 12.296 23.6416 14.856C23.6416 17.416 23.0869 19.656 21.9776 21.576C20.8896 23.496 19.2896 24.9893 17.1776 26.056C15.0869 27.1227 12.5909 27.656 9.68961 27.656H0.601609V2.024H9.68961ZM9.78561 24.616C13.0496 24.616 15.6096 23.7627 17.4656 22.056C19.3216 20.3493 20.2496 17.9493 20.2496 14.856C20.2496 11.7627 19.3216 9.352 17.4656 7.624C15.6096 5.896 13.0496 5.032 9.78561 5.032H3.96161V24.616H9.78561ZM36.0064 28.104C34.2997 28.104 32.753 27.688 31.3664 26.856C30.001 26.024 28.9237 24.872 28.1344 23.4C27.345 21.928 26.9504 20.296 26.9504 18.504C26.9504 16.712 27.345 15.08 28.1344 13.608C28.9237 12.136 30.001 10.984 31.3664 10.152C32.753 9.32 34.2997 8.904 36.0064 8.904C37.5637 8.904 38.9077 9.21333 40.0384 9.832C41.169 10.4507 41.9904 11.1973 42.5024 12.072V9.352H45.7984V27.656H42.5024V24.936C41.9904 25.8107 41.169 26.5573 40.0384 27.176C38.9077 27.7947 37.5637 28.104 36.0064 28.104ZM36.2944 25.192C37.5104 25.192 38.5877 24.904 39.5264 24.328C40.4864 23.7307 41.233 22.9307 41.7664 21.928C42.2997 20.904 42.5664 19.7627 42.5664 18.504C42.5664 17.2453 42.2997 16.1147 41.7664 15.112C41.233 14.088 40.4864 13.288 39.5264 12.712C38.5877 12.1147 37.5104 11.816 36.2944 11.816C35.0997 11.816 34.033 12.104 33.0944 12.68C32.177 13.256 31.4624 14.056 30.9504 15.08C30.4384 16.104 30.1824 17.2453 30.1824 18.504C30.1824 19.7627 30.4384 20.904 30.9504 21.928C31.4624 22.952 32.177 23.752 33.0944 24.328C34.033 24.904 35.0997 25.192 36.2944 25.192ZM54.2689 9.352V12.136C54.7382 11.304 55.5062 10.5573 56.5729 9.896C57.6609 9.23467 58.9622 8.904 60.4769 8.904C61.9062 8.904 63.1755 9.23467 64.2849 9.896C65.4155 10.5573 66.2902 11.496 66.9089 12.712C67.5275 13.9067 67.8369 15.3147 67.8369 16.936V27.656H64.5409V17.512C64.5409 15.6773 64.1142 14.2693 63.2609 13.288C62.4289 12.2853 61.2662 11.784 59.7729 11.784C58.7275 11.784 57.7889 12.0827 56.9569 12.68C56.1249 13.256 55.4635 14.0347 54.9729 15.016C54.5035 15.9973 54.2689 17.0533 54.2689 18.184V27.656H50.9729V9.352H54.2689ZM80.6001 28.104C78.8934 28.104 77.3468 27.688 75.9601 26.856C74.5948 26.024 73.5174 24.872 72.7281 23.4C71.9388 21.928 71.5441 20.296 71.5441 18.504C71.5441 16.712 71.9388 15.08 72.7281 13.608C73.5174 12.136 74.5948 10.984 75.9601 10.152C77.3468 9.32 78.8934 8.904 80.6001 8.904C82.1574 8.904 83.5014 9.21333 84.6321 9.832C85.7628 10.4507 86.5841 11.1973 87.0961 12.072V1.224H90.3921V27.656H87.0961V24.936C86.5841 25.8107 85.7628 26.5573 84.6321 27.176C83.5014 27.7947 82.1574 28.104 80.6001 28.104ZM80.8881 25.192C82.1041 25.192 83.1814 24.904 84.1201 24.328C85.0801 23.7307 85.8268 22.9307 86.3601 21.928C86.8934 20.904 87.1601 19.7627 87.1601 18.504C87.1601 17.2453 86.8934 16.1147 86.3601 15.112C85.8268 14.088 85.0801 13.288 84.1201 12.712C83.1814 12.1147 82.1041 11.816 80.8881 11.816C79.6934 11.816 78.6268 12.104 77.6881 12.68C76.7708 13.256 76.0561 14.056 75.5441 15.08C75.0321 16.104 74.7761 17.2453 74.7761 18.504C74.7761 19.7627 75.0321 20.904 75.5441 21.928C76.0561 22.952 76.7708 23.752 77.6881 24.328C78.6268 24.904 79.6934 25.192 80.8881 25.192ZM103.791 28.104C102.041 28.104 100.463 27.688 99.0546 26.856C97.6679 26.024 96.5799 24.8827 95.7906 23.432C95.0013 21.96 94.6066 20.3173 94.6066 18.504C94.6066 16.6907 95.0013 15.0587 95.7906 13.608C96.5799 12.136 97.6679 10.984 99.0546 10.152C100.463 9.32 102.041 8.904 103.791 8.904C105.54 8.904 107.108 9.32 108.495 10.152C109.903 10.984 110.991 12.136 111.759 13.608C112.548 15.0587 112.943 16.6907 112.943 18.504C112.943 19.1013 112.921 19.5493 112.879 19.848H97.9026C98.0733 21.448 98.6919 22.76 99.7586 23.784C100.847 24.808 102.191 25.32 103.791 25.32C105.007 25.32 106.073 25.0747 106.991 24.584C107.929 24.072 108.569 23.432 108.911 22.664H112.271C111.759 24.264 110.735 25.5653 109.199 26.568C107.663 27.592 105.86 28.104 103.791 28.104ZM109.711 17.16C109.519 15.5387 108.889 14.2267 107.823 13.224C106.756 12.2 105.412 11.688 103.791 11.688C102.169 11.688 100.825 12.2 99.7586 13.224C98.6919 14.2267 98.0733 15.5387 97.9026 17.16H109.711ZM117.129 27.656V1.224H120.425V27.656H117.129ZM127.23 0.903999C127.87 0.903999 128.393 1.11733 128.798 1.544C129.225 1.94933 129.438 2.46133 129.438 3.08C129.438 3.69867 129.225 4.22133 128.798 4.648C128.393 5.05333 127.87 5.256 127.23 5.256C126.611 5.256 126.089 5.05333 125.662 4.648C125.257 4.22133 125.054 3.69867 125.054 3.08C125.054 2.46133 125.257 1.94933 125.662 1.544C126.089 1.11733 126.611 0.903999 127.23 0.903999ZM125.598 27.688V9.352H128.894V27.688H125.598ZM142.483 8.904C144.253 8.904 145.853 9.32 147.283 10.152C148.712 10.984 149.821 12.136 150.611 13.608C151.421 15.0587 151.827 16.6907 151.827 18.504C151.827 20.3173 151.421 21.96 150.611 23.432C149.821 24.8827 148.712 26.024 147.283 26.856C145.853 27.688 144.253 28.104 142.483 28.104C140.691 28.104 139.08 27.688 137.651 26.856C136.243 26.024 135.133 24.8827 134.323 23.432C133.512 21.96 133.107 20.3173 133.107 18.504C133.107 16.6907 133.512 15.0587 134.323 13.608C135.133 12.136 136.243 10.984 137.651 10.152C139.08 9.32 140.691 8.904 142.483 8.904ZM142.483 11.816C141.288 11.816 140.221 12.1147 139.283 12.712C138.365 13.288 137.64 14.088 137.107 15.112C136.595 16.1147 136.339 17.2453 136.339 18.504C136.339 19.7627 136.595 20.904 137.107 21.928C137.64 22.9307 138.365 23.7307 139.283 24.328C140.221 24.904 141.288 25.192 142.483 25.192C143.656 25.192 144.712 24.904 145.651 24.328C146.589 23.7307 147.315 22.9307 147.827 21.928C148.339 20.904 148.595 19.7627 148.595 18.504C148.595 17.2453 148.339 16.1147 147.827 15.112C147.315 14.088 146.589 13.288 145.651 12.712C144.712 12.1147 143.656 11.816 142.483 11.816ZM159.331 9.352V12.136C159.801 11.304 160.569 10.5573 161.635 9.896C162.723 9.23467 164.025 8.904 165.539 8.904C166.969 8.904 168.238 9.23467 169.347 9.896C170.478 10.5573 171.353 11.496 171.971 12.712C172.59 13.9067 172.899 15.3147 172.899 16.936V27.656H169.603V17.512C169.603 15.6773 169.177 14.2693 168.323 13.288C167.491 12.2853 166.329 11.784 164.835 11.784C163.79 11.784 162.851 12.0827 162.019 12.68C161.187 13.256 160.526 14.0347 160.035 15.016C159.566 15.9973 159.331 17.0533 159.331 18.184V27.656H156.035V9.352H159.331Z" fill="#595B5A"/>
</svg>
