<svg width="159" height="42" viewBox="0 0 159 42" fill="none" xmlns="http://www.w3.org/2000/svg">
<path d="M35.9106 0.950311V2.88788H26.532V8.51505L35.0037 8.49444V10.432H26.532V17.4608H24.3677V0.950311H35.9106ZM43.1522 5.38197C44.2927 5.38197 45.3233 5.64993 46.244 6.18586C47.1647 6.72178 47.8793 7.46382 48.3877 8.41199C48.9099 9.34642 49.171 10.3977 49.171 11.5657C49.171 12.7337 48.9099 13.7918 48.3877 14.74C47.8793 15.6744 47.1647 16.4096 46.244 16.9455C45.3233 17.4814 44.2927 17.7494 43.1522 17.7494C41.9979 17.7494 40.9604 17.4814 40.0397 16.9455C39.1327 16.4096 38.4182 15.6744 37.896 14.74C37.3738 13.7918 37.1127 12.7337 37.1127 11.5657C37.1127 10.3977 37.3738 9.34642 37.896 8.41199C38.4182 7.46382 39.1327 6.72178 40.0397 6.18586C40.9604 5.64993 41.9979 5.38197 43.1522 5.38197ZM43.1522 7.2577C42.3826 7.2577 41.6955 7.45008 41.0909 7.83485C40.5 8.20587 40.0328 8.72118 39.6893 9.38077C39.3595 10.0266 39.1946 10.7549 39.1946 11.5657C39.1946 12.3764 39.3595 13.1116 39.6893 13.7712C40.0328 14.4171 40.5 14.9324 41.0909 15.3171C41.6955 15.6882 42.3826 15.8737 43.1522 15.8737C43.9079 15.8737 44.5881 15.6882 45.1928 15.3171C45.7974 14.9324 46.2646 14.4171 46.5944 13.7712C46.9242 13.1116 47.0891 12.3764 47.0891 11.5657C47.0891 10.7549 46.9242 10.0266 46.5944 9.38077C46.2646 8.72118 45.7974 8.20587 45.1928 7.83485C44.5881 7.45008 43.9079 7.2577 43.1522 7.2577ZM54.005 5.67055V7.46382C54.3074 6.9279 54.8021 6.44695 55.4891 6.02096C56.19 5.59497 57.0282 5.38197 58.0039 5.38197C58.9245 5.38197 59.7422 5.59497 60.4567 6.02096C61.185 6.44695 61.7484 7.05158 62.1469 7.83485C62.5454 8.60438 62.7447 9.51132 62.7447 10.5557V17.4608H60.6216V10.9267C60.6216 9.74493 60.3468 8.83798 59.7971 8.20587C59.2612 7.56001 58.5123 7.23709 57.5504 7.23709C56.877 7.23709 56.2724 7.42947 55.7365 7.81423C55.2006 8.18526 54.7746 8.68682 54.4585 9.31894C54.1562 9.95105 54.005 10.6313 54.005 11.3596V17.4608H51.882V5.67055H54.005ZM70.966 17.7494C69.8667 17.7494 68.8704 17.4814 67.9772 16.9455C67.0977 16.4096 66.4038 15.6676 65.8953 14.7194C65.3869 13.7712 65.1327 12.72 65.1327 11.5657C65.1327 10.4114 65.3869 9.36016 65.8953 8.41199C66.4038 7.46382 67.0977 6.72178 67.9772 6.18586C68.8704 5.64993 69.8667 5.38197 70.966 5.38197C71.9691 5.38197 72.8348 5.58123 73.5631 5.97973C74.2914 6.37824 74.8205 6.85919 75.1503 7.4226V0.435002H77.2734V17.4608H75.1503V15.7088C74.8205 16.2722 74.2914 16.7531 73.5631 17.1516C72.8348 17.5501 71.9691 17.7494 70.966 17.7494ZM71.1515 15.8737C71.9348 15.8737 72.6287 15.6882 73.2333 15.3171C73.8517 14.9324 74.3327 14.4171 74.6762 13.7712C75.0197 13.1116 75.1915 12.3764 75.1915 11.5657C75.1915 10.7549 75.0197 10.0266 74.6762 9.38077C74.3327 8.72118 73.8517 8.20587 73.2333 7.83485C72.6287 7.45008 71.9348 7.2577 71.1515 7.2577C70.382 7.2577 69.6949 7.44321 69.0903 7.81423C68.4994 8.18526 68.039 8.70057 67.7092 9.36016C67.3794 10.0198 67.2145 10.7549 67.2145 11.5657C67.2145 12.3764 67.3794 13.1116 67.7092 13.7712C68.039 14.4308 68.4994 14.9461 69.0903 15.3171C69.6949 15.6882 70.382 15.8737 71.1515 15.8737ZM82.7295 5.67055V7.46382C83.0318 6.9279 83.5265 6.44695 84.2136 6.02096C84.9144 5.59497 85.7527 5.38197 86.7283 5.38197C87.649 5.38197 88.4666 5.59497 89.1812 6.02096C89.9095 6.44695 90.4729 7.05158 90.8714 7.83485C91.2699 8.60438 91.4692 9.51132 91.4692 10.5557V17.4608H89.3461V10.9267C89.3461 9.74493 89.0713 8.83798 88.5216 8.20587C87.9857 7.56001 87.2368 7.23709 86.2749 7.23709C85.6015 7.23709 84.9969 7.42947 84.461 7.81423C83.925 8.18526 83.4991 8.68682 83.183 9.31894C82.8807 9.95105 82.7295 10.6313 82.7295 11.3596V17.4608H80.6064V5.67055H82.7295ZM99.7729 17.7494C98.6461 17.7494 97.6292 17.4814 96.7223 16.9455C95.8291 16.4096 95.1283 15.6744 94.6198 14.74C94.1114 13.7918 93.8572 12.7337 93.8572 11.5657C93.8572 10.3977 94.1114 9.34642 94.6198 8.41199C95.1283 7.46382 95.8291 6.72178 96.7223 6.18586C97.6292 5.64993 98.6461 5.38197 99.7729 5.38197C100.9 5.38197 101.91 5.64993 102.803 6.18586C103.71 6.72178 104.411 7.46382 104.905 8.41199C105.414 9.34642 105.668 10.3977 105.668 11.5657C105.668 11.9505 105.654 12.239 105.627 12.4314H95.9802C96.0902 13.462 96.4887 14.3071 97.1757 14.9667C97.8766 15.6263 98.7423 15.9561 99.7729 15.9561C100.556 15.9561 101.243 15.7981 101.834 15.482C102.439 15.1522 102.851 14.74 103.071 14.2453H105.235C104.905 15.2759 104.246 16.1142 103.256 16.76C102.267 17.4196 101.106 17.7494 99.7729 17.7494ZM103.586 10.7C103.463 9.65561 103.057 8.8105 102.37 8.16464C101.683 7.50505 100.817 7.17525 99.7729 7.17525C98.7285 7.17525 97.8628 7.50505 97.1757 8.16464C96.4887 8.8105 96.0902 9.65561 95.9802 10.7H103.586ZM113.003 5.38197C113.951 5.38197 114.81 5.53313 115.579 5.83544C116.349 6.12402 116.96 6.5294 117.414 7.05158C117.881 7.56001 118.128 8.14403 118.156 8.80363H116.074C116.033 8.30893 115.716 7.90355 115.126 7.5875C114.535 7.27144 113.806 7.11341 112.941 7.11341C112.089 7.11341 111.381 7.26457 110.818 7.56689C110.268 7.8692 109.993 8.24022 109.993 8.67995C109.993 9.18839 110.247 9.59377 110.756 9.89608C111.278 10.1984 112.233 10.4457 113.621 10.6381C115.339 10.8717 116.568 11.2702 117.31 11.8336C118.053 12.3971 118.424 13.1528 118.424 14.101C118.424 14.8431 118.183 15.4889 117.702 16.0386C117.235 16.5882 116.596 17.0074 115.785 17.2959C114.974 17.5982 114.074 17.7494 113.085 17.7494C112.054 17.7494 111.147 17.5914 110.364 17.2753C109.581 16.973 108.962 16.547 108.509 15.9973C108.069 15.4614 107.822 14.8499 107.767 14.1628H109.849C109.918 14.6713 110.234 15.111 110.797 15.482C111.374 15.8393 112.157 16.018 113.147 16.018C114.067 16.018 114.83 15.8531 115.435 15.5233C116.039 15.1797 116.342 14.7469 116.342 14.2247C116.342 13.73 116.06 13.3384 115.497 13.0498C114.947 12.7475 113.985 12.507 112.611 12.3283C110.989 12.1085 109.801 11.7237 109.045 11.1741C108.289 10.6106 107.911 9.82051 107.911 8.80363C107.911 8.13029 108.131 7.53253 108.571 7.01035C109.024 6.48817 109.636 6.08966 110.405 5.81483C111.175 5.52626 112.041 5.38197 113.003 5.38197ZM125.744 5.38197C126.693 5.38197 127.551 5.53313 128.321 5.83544C129.09 6.12402 129.702 6.5294 130.155 7.05158C130.623 7.56001 130.87 8.14403 130.897 8.80363H128.816C128.774 8.30893 128.458 7.90355 127.867 7.5875C127.277 7.27144 126.548 7.11341 125.683 7.11341C124.831 7.11341 124.123 7.26457 123.559 7.56689C123.01 7.8692 122.735 8.24022 122.735 8.67995C122.735 9.18839 122.989 9.59377 123.498 9.89608C124.02 10.1984 124.975 10.4457 126.363 10.6381C128.08 10.8717 129.31 11.2702 130.052 11.8336C130.794 12.3971 131.165 13.1528 131.165 14.101C131.165 14.8431 130.925 15.4889 130.444 16.0386C129.977 16.5882 129.338 17.0074 128.527 17.2959C127.716 17.5982 126.816 17.7494 125.827 17.7494C124.796 17.7494 123.889 17.5914 123.106 17.2753C122.323 16.973 121.704 16.547 121.251 15.9973C120.811 15.4614 120.564 14.8499 120.509 14.1628H122.591C122.659 14.6713 122.975 15.111 123.539 15.482C124.116 15.8393 124.899 16.018 125.889 16.018C126.809 16.018 127.572 15.8531 128.177 15.5233C128.781 15.1797 129.084 14.7469 129.084 14.2247C129.084 13.73 128.802 13.3384 128.238 13.0498C127.689 12.7475 126.727 12.507 125.353 12.3283C123.731 12.1085 122.543 11.7237 121.787 11.1741C121.031 10.6106 120.653 9.82051 120.653 8.80363C120.653 8.13029 120.873 7.53253 121.313 7.01035C121.766 6.48817 122.378 6.08966 123.147 5.81483C123.917 5.52626 124.782 5.38197 125.744 5.38197ZM135.003 19.5427H133.312L133.972 14.8843H136.033L135.003 19.5427ZM9.55735 41.8319C7.92211 41.8319 6.44488 41.4608 5.12569 40.7188C3.8065 39.9767 2.76901 38.9461 2.01322 37.6269C1.27118 36.3077 0.900154 34.8305 0.900154 33.1953C0.900154 31.56 1.27118 30.0828 2.01322 28.7636C2.76901 27.4444 3.8065 26.4138 5.12569 25.6717C6.44488 24.9297 7.92211 24.5587 9.55735 24.5587C10.9453 24.5587 12.1957 24.8129 13.3088 25.3213C14.4356 25.816 15.3632 26.51 16.0915 27.4032C16.8335 28.2964 17.3488 29.327 17.6374 30.495H15.4319C15.0746 29.2995 14.3807 28.3445 13.35 27.6299C12.3194 26.9154 11.0689 26.5581 9.59858 26.5581C8.34809 26.5581 7.22815 26.8466 6.23876 27.4238C5.24937 27.9872 4.47297 28.7705 3.90956 29.7736C3.34616 30.7767 3.06445 31.9173 3.06445 33.1953C3.06445 34.4595 3.34616 35.6 3.90956 36.6169C4.47297 37.6201 5.24937 38.4102 6.23876 38.9873C7.2419 39.5507 8.36184 39.8324 9.59858 39.8324C10.6017 39.8324 11.5224 39.6538 12.3606 39.2965C13.1989 38.9255 13.8928 38.4239 14.4425 37.7918C15.0059 37.1597 15.3907 36.452 15.5968 35.6687H17.8023C17.555 36.823 17.0534 37.8674 16.2976 38.8018C15.5556 39.7363 14.6005 40.4714 13.4325 41.0074C12.2644 41.557 10.9727 41.8319 9.55735 41.8319ZM25.8812 29.382C27.0218 29.382 28.0524 29.6499 28.9731 30.1859C29.8938 30.7218 30.6083 31.4638 31.1168 32.412C31.639 33.3464 31.9 34.3977 31.9 35.5657C31.9 36.7337 31.639 37.7918 31.1168 38.74C30.6083 39.6744 29.8938 40.4096 28.9731 40.9455C28.0524 41.4814 27.0218 41.7494 25.8812 41.7494C24.7269 41.7494 23.6894 41.4814 22.7688 40.9455C21.8618 40.4096 21.1473 39.6744 20.6251 38.74C20.1029 37.7918 19.8418 36.7337 19.8418 35.5657C19.8418 34.3977 20.1029 33.3464 20.6251 32.412C21.1473 31.4638 21.8618 30.7218 22.7688 30.1859C23.6894 29.6499 24.7269 29.382 25.8812 29.382ZM25.8812 31.2577C25.1117 31.2577 24.4246 31.4501 23.82 31.8348C23.2291 32.2059 22.7619 32.7212 22.4184 33.3808C22.0886 34.0266 21.9237 34.7549 21.9237 35.5657C21.9237 36.3764 22.0886 37.1116 22.4184 37.7712C22.7619 38.4171 23.2291 38.9324 23.82 39.3171C24.4246 39.6882 25.1117 39.8737 25.8812 39.8737C26.637 39.8737 27.3172 39.6882 27.9219 39.3171C28.5265 38.9324 28.9937 38.4171 29.3235 37.7712C29.6533 37.1116 29.8182 36.3764 29.8182 35.5657C29.8182 34.7549 29.6533 34.0266 29.3235 33.3808C28.9937 32.7212 28.5265 32.2059 27.9219 31.8348C27.3172 31.4501 26.637 31.2577 25.8812 31.2577ZM36.7341 29.6705V31.4638C37.0364 30.9279 37.5311 30.4469 38.2182 30.021C38.919 29.595 39.7573 29.382 40.7329 29.382C41.6536 29.382 42.4712 29.595 43.1858 30.021C43.9141 30.4469 44.4775 31.0516 44.876 31.8348C45.2745 32.6044 45.4738 33.5113 45.4738 34.5557V41.4608H43.3507V34.9267C43.3507 33.7449 43.0759 32.838 42.5262 32.2059C41.9903 31.56 41.2414 31.2371 40.2795 31.2371C39.6061 31.2371 39.0015 31.4295 38.4656 31.8142C37.9296 32.1853 37.5037 32.6868 37.1876 33.3189C36.8853 33.9511 36.7341 34.6313 36.7341 35.3596V41.4608H34.6111V29.6705H36.7341ZM53.1179 29.382C54.0661 29.382 54.9249 29.5331 55.6945 29.8354C56.464 30.124 57.0755 30.5294 57.529 31.0516C57.9962 31.56 58.2435 32.144 58.271 32.8036H56.1892C56.1479 32.3089 55.8319 31.9036 55.241 31.5875C54.6501 31.2714 53.9218 31.1134 53.0561 31.1134C52.2041 31.1134 51.4964 31.2646 50.933 31.5669C50.3833 31.8692 50.1085 32.2402 50.1085 32.68C50.1085 33.1884 50.3627 33.5938 50.8712 33.8961C51.3933 34.1984 52.3484 34.4457 53.7363 34.6381C55.454 34.8717 56.6839 35.2702 57.4259 35.8336C58.1679 36.3971 58.539 37.1528 58.539 38.101C58.539 38.8431 58.2985 39.4889 57.8175 40.0386C57.3503 40.5882 56.7113 41.0074 55.9006 41.2959C55.0898 41.5982 54.1898 41.7494 53.2004 41.7494C52.1697 41.7494 51.2628 41.5914 50.4795 41.2753C49.6963 40.973 49.0779 40.547 48.6244 39.9973C48.1847 39.4614 47.9373 38.8499 47.8824 38.1628H49.9642C50.0329 38.6713 50.349 39.111 50.9124 39.482C51.4895 39.8393 52.2728 40.018 53.2622 40.018C54.1829 40.018 54.9455 39.8531 55.5502 39.5233C56.1548 39.1797 56.4571 38.7469 56.4571 38.2247C56.4571 37.73 56.1754 37.3384 55.612 37.0498C55.0623 36.7475 54.1004 36.507 52.7263 36.3283C51.1048 36.1085 49.9161 35.7237 49.1603 35.1741C48.4045 34.6106 48.0267 33.8205 48.0267 32.8036C48.0267 32.1303 48.2465 31.5325 48.6863 31.0104C49.1397 30.4882 49.7512 30.0897 50.5208 29.8148C51.2903 29.5263 52.156 29.382 53.1179 29.382ZM62.2732 24.2289C62.6854 24.2289 63.0221 24.3663 63.2832 24.6411C63.558 24.9022 63.6954 25.232 63.6954 25.6305C63.6954 26.029 63.558 26.3657 63.2832 26.6405C63.0221 26.9016 62.6854 27.0322 62.2732 27.0322C61.8747 27.0322 61.538 26.9016 61.2632 26.6405C61.0021 26.3657 60.8715 26.029 60.8715 25.6305C60.8715 25.232 61.0021 24.9022 61.2632 24.6411C61.538 24.3663 61.8747 24.2289 62.2732 24.2289ZM61.222 41.4814V29.6705H63.345V41.4814H61.222ZM71.8919 41.7494C70.7926 41.7494 69.7963 41.4814 68.9031 40.9455C68.0237 40.4096 67.3297 39.6676 66.8213 38.7194C66.3128 37.7712 66.0586 36.72 66.0586 35.5657C66.0586 34.4114 66.3128 33.3602 66.8213 32.412C67.3297 31.4638 68.0237 30.7218 68.9031 30.1859C69.7963 29.6499 70.7926 29.382 71.8919 29.382C72.8951 29.382 73.7608 29.5812 74.4891 29.9797C75.2174 30.3782 75.7464 30.8592 76.0762 31.4226V24.435H78.1993V41.4608H76.0762V39.7088C75.7464 40.2722 75.2174 40.7531 74.4891 41.1516C73.7608 41.5501 72.8951 41.7494 71.8919 41.7494ZM72.0774 39.8737C72.8607 39.8737 73.5547 39.6882 74.1593 39.3171C74.7777 38.9324 75.2586 38.4171 75.6022 37.7712C75.9457 37.1116 76.1175 36.3764 76.1175 35.5657C76.1175 34.7549 75.9457 34.0266 75.6022 33.3808C75.2586 32.7212 74.7777 32.2059 74.1593 31.8348C73.5547 31.4501 72.8607 31.2577 72.0774 31.2577C71.3079 31.2577 70.6208 31.4432 70.0162 31.8142C69.4253 32.1853 68.965 32.7006 68.6352 33.3602C68.3054 34.0198 68.1405 34.7549 68.1405 35.5657C68.1405 36.3764 68.3054 37.1116 68.6352 37.7712C68.965 38.4308 69.4253 38.9461 70.0162 39.3171C70.6208 39.6882 71.3079 39.8737 72.0774 39.8737ZM86.8298 41.7494C85.703 41.7494 84.6861 41.4814 83.7791 40.9455C82.8859 40.4096 82.1851 39.6744 81.6767 38.74C81.1682 37.7918 80.914 36.7337 80.914 35.5657C80.914 34.3977 81.1682 33.3464 81.6767 32.412C82.1851 31.4638 82.8859 30.7218 83.7791 30.1859C84.6861 29.6499 85.703 29.382 86.8298 29.382C87.9566 29.382 88.9666 29.6499 89.8598 30.1859C90.7667 30.7218 91.4676 31.4638 91.9623 32.412C92.4707 33.3464 92.7249 34.3977 92.7249 35.5657C92.7249 35.9505 92.7112 36.239 92.6837 36.4314H83.0371C83.147 37.462 83.5455 38.3071 84.2326 38.9667C84.9334 39.6263 85.7992 39.9561 86.8298 39.9561C87.613 39.9561 88.3001 39.7981 88.891 39.482C89.4956 39.1522 89.9079 38.74 90.1278 38.2453H92.2921C91.9623 39.2759 91.3027 40.1142 90.3133 40.76C89.3239 41.4196 88.1627 41.7494 86.8298 41.7494ZM90.6431 34.7C90.5194 33.6556 90.114 32.8105 89.4269 32.1646C88.7399 31.505 87.8741 31.1753 86.8298 31.1753C85.7854 31.1753 84.9197 31.505 84.2326 32.1646C83.5455 32.8105 83.147 33.6556 83.0371 34.7H90.6431ZM97.5447 29.6705V31.4844C97.8607 30.9485 98.3829 30.4676 99.1112 30.0416C99.8533 29.6018 100.746 29.382 101.791 29.382C102.464 29.382 103 29.4507 103.399 29.5881V31.6081C102.918 31.3882 102.334 31.2783 101.647 31.2783C100.863 31.2783 100.156 31.4707 99.5235 31.8555C98.9051 32.2265 98.4173 32.728 98.06 33.3602C97.7164 33.9785 97.5447 34.645 97.5447 35.3596V41.4608H95.4216V29.6705H97.5447ZM110.097 41.7494C108.998 41.7494 108.002 41.4814 107.108 40.9455C106.229 40.4096 105.535 39.6676 105.027 38.7194C104.518 37.7712 104.264 36.72 104.264 35.5657C104.264 34.4114 104.518 33.3602 105.027 32.412C105.535 31.4638 106.229 30.7218 107.108 30.1859C108.002 29.6499 108.998 29.382 110.097 29.382C111.1 29.382 111.966 29.5812 112.694 29.9797C113.423 30.3782 113.952 30.8592 114.282 31.4226V29.6705H116.405V41.4608H114.282V39.7088C113.952 40.2722 113.423 40.7531 112.694 41.1516C111.966 41.5501 111.1 41.7494 110.097 41.7494ZM110.283 39.8737C111.066 39.8737 111.76 39.6882 112.365 39.3171C112.983 38.9324 113.464 38.4171 113.808 37.7712C114.151 37.1116 114.323 36.3764 114.323 35.5657C114.323 34.7549 114.151 34.0266 113.808 33.3808C113.464 32.7212 112.983 32.2059 112.365 31.8348C111.76 31.4501 111.066 31.2577 110.283 31.2577C109.513 31.2577 108.826 31.4432 108.222 31.8142C107.631 32.1853 107.17 32.7006 106.841 33.3602C106.511 34.0198 106.346 34.7549 106.346 35.5657C106.346 36.3764 106.511 37.1116 106.841 37.7712C107.17 38.4308 107.631 38.9461 108.222 39.3171C108.826 39.6882 109.513 39.8737 110.283 39.8737ZM125.921 31.5463H123.304V41.4608H121.181V31.5463H118.563V29.6705H121.181V26.084H123.304V29.6705H125.921V31.5463ZM129.163 24.2289C129.575 24.2289 129.912 24.3663 130.173 24.6411C130.448 24.9022 130.585 25.232 130.585 25.6305C130.585 26.029 130.448 26.3657 130.173 26.6405C129.912 26.9016 129.575 27.0322 129.163 27.0322C128.764 27.0322 128.428 26.9016 128.153 26.6405C127.892 26.3657 127.761 26.029 127.761 25.6305C127.761 25.232 127.892 24.9022 128.153 24.6411C128.428 24.3663 128.764 24.2289 129.163 24.2289ZM128.112 41.4814V29.6705H130.235V41.4814H128.112ZM138.988 29.382C140.128 29.382 141.159 29.6499 142.079 30.1859C143 30.7218 143.715 31.4638 144.223 32.412C144.745 33.3464 145.006 34.3977 145.006 35.5657C145.006 36.7337 144.745 37.7918 144.223 38.74C143.715 39.6744 143 40.4096 142.079 40.9455C141.159 41.4814 140.128 41.7494 138.988 41.7494C137.833 41.7494 136.796 41.4814 135.875 40.9455C134.968 40.4096 134.254 39.6744 133.731 38.74C133.209 37.7918 132.948 36.7337 132.948 35.5657C132.948 34.3977 133.209 33.3464 133.731 32.412C134.254 31.4638 134.968 30.7218 135.875 30.1859C136.796 29.6499 137.833 29.382 138.988 29.382ZM138.988 31.2577C138.218 31.2577 137.531 31.4501 136.926 31.8348C136.336 32.2059 135.868 32.7212 135.525 33.3808C135.195 34.0266 135.03 34.7549 135.03 35.5657C135.03 36.3764 135.195 37.1116 135.525 37.7712C135.868 38.4171 136.336 38.9324 136.926 39.3171C137.531 39.6882 138.218 39.8737 138.988 39.8737C139.743 39.8737 140.424 39.6882 141.028 39.3171C141.633 38.9324 142.1 38.4171 142.43 37.7712C142.76 37.1116 142.925 36.3764 142.925 35.5657C142.925 34.7549 142.76 34.0266 142.43 33.3808C142.1 32.7212 141.633 32.2059 141.028 31.8348C140.424 31.4501 139.743 31.2577 138.988 31.2577ZM149.841 29.6705V31.4638C150.143 30.9279 150.638 30.4469 151.325 30.021C152.025 29.595 152.864 29.382 153.839 29.382C154.76 29.382 155.578 29.595 156.292 30.021C157.021 30.4469 157.584 31.0516 157.982 31.8348C158.381 32.6044 158.58 33.5113 158.58 34.5557V41.4608H156.457V34.9267C156.457 33.7449 156.182 32.838 155.633 32.2059C155.097 31.56 154.348 31.2371 153.386 31.2371C152.713 31.2371 152.108 31.4295 151.572 31.8142C151.036 32.1853 150.61 32.6868 150.294 33.3189C149.992 33.9511 149.841 34.6313 149.841 35.3596V41.4608H147.717V29.6705H149.841Z" fill="#1A1A1A"/>
</svg>
