<svg width="165" height="36" viewBox="0 0 165 36" fill="none" xmlns="http://www.w3.org/2000/svg">
<path d="M11.0011 1.416C12.8571 1.416 14.5317 1.74667 16.0251 2.408C17.5184 3.048 18.7131 3.95466 19.6091 5.128C20.5051 6.30133 21.0064 7.624 21.1131 9.096H17.6571C17.4651 7.688 16.7611 6.536 15.5451 5.64C14.3504 4.744 12.7824 4.296 10.8411 4.296C8.87842 4.296 7.33175 4.66933 6.20108 5.416C5.09175 6.14133 4.53708 7.09067 4.53708 8.264C4.53708 9.13867 4.80375 9.87467 5.33708 10.472C5.87042 11.048 6.69175 11.5493 7.80108 11.976C8.93175 12.4027 10.4571 12.8187 12.3771 13.224C15.4704 13.8853 17.7104 14.8347 19.0971 16.072C20.5051 17.288 21.2091 18.8667 21.2091 20.808C21.2091 22.3013 20.7611 23.6133 19.8651 24.744C18.9691 25.8533 17.7424 26.7067 16.1851 27.304C14.6277 27.9227 12.8997 28.232 11.0011 28.232C9.01708 28.232 7.23575 27.8907 5.65708 27.208C4.09975 26.5253 2.85175 25.5653 1.91308 24.328C0.974415 23.0907 0.451749 21.6507 0.345082 20.008H3.80108C3.97175 21.5867 4.71842 22.8667 6.04108 23.848C7.38508 24.8293 9.11308 25.32 11.2251 25.32C12.4837 25.32 13.6144 25.1387 14.6171 24.776C15.6197 24.4133 16.3984 23.9013 16.9531 23.24C17.5078 22.5787 17.7851 21.832 17.7851 21C17.7851 20.0613 17.5184 19.2827 16.9851 18.664C16.4517 18.0453 15.6197 17.5227 14.4891 17.096C13.3797 16.648 11.8437 16.2213 9.88108 15.816C6.89442 15.1973 4.68642 14.3013 3.25708 13.128C1.84908 11.9547 1.14508 10.3333 1.14508 8.264C1.14508 6.87733 1.56108 5.672 2.39308 4.648C3.24642 3.60266 4.41975 2.80267 5.91308 2.248C7.40642 1.69333 9.10242 1.416 11.0011 1.416ZM34.9073 12.264H30.8433V27.656H27.5473V12.264H23.4833V9.352H27.5473V3.784H30.8433V9.352H34.9073V12.264ZM45.8096 28.104C44.1029 28.104 42.5562 27.688 41.1696 26.856C39.8042 26.024 38.7269 24.872 37.9376 23.4C37.1482 21.928 36.7536 20.296 36.7536 18.504C36.7536 16.712 37.1482 15.08 37.9376 13.608C38.7269 12.136 39.8042 10.984 41.1696 10.152C42.5562 9.32 44.1029 8.904 45.8096 8.904C47.3669 8.904 48.7109 9.21333 49.8416 9.832C50.9722 10.4507 51.7936 11.1973 52.3056 12.072V9.352H55.6016V27.656H52.3056V24.936C51.7936 25.8107 50.9722 26.5573 49.8416 27.176C48.7109 27.7947 47.3669 28.104 45.8096 28.104ZM46.0976 25.192C47.3136 25.192 48.3909 24.904 49.3296 24.328C50.2896 23.7307 51.0362 22.9307 51.5696 21.928C52.1029 20.904 52.3696 19.7627 52.3696 18.504C52.3696 17.2453 52.1029 16.1147 51.5696 15.112C51.0362 14.088 50.2896 13.288 49.3296 12.712C48.3909 12.1147 47.3136 11.816 46.0976 11.816C44.9029 11.816 43.8362 12.104 42.8976 12.68C41.9802 13.256 41.2656 14.056 40.7536 15.08C40.2416 16.104 39.9856 17.2453 39.9856 18.504C39.9856 19.7627 40.2416 20.904 40.7536 21.928C41.2656 22.952 41.9802 23.752 42.8976 24.328C43.8362 24.904 44.9029 25.192 46.0976 25.192ZM64.0721 9.352V12.168C64.5627 11.336 65.3734 10.5893 66.5041 9.928C67.6561 9.24533 69.0427 8.904 70.6641 8.904C71.7094 8.904 72.5414 9.01067 73.1601 9.224V12.36C72.4134 12.0187 71.5067 11.848 70.4401 11.848C69.2241 11.848 68.1254 12.1467 67.1441 12.744C66.1841 13.32 65.4267 14.0987 64.8721 15.08C64.3387 16.04 64.0721 17.0747 64.0721 18.184V27.656H60.7761V9.352H64.0721ZM96.6011 5.032V27.656H93.2411V5.032H84.0251V2.024H105.785V5.032H96.6011ZM119.866 27.656V24.872C119.396 25.704 118.618 26.4507 117.53 27.112C116.463 27.7733 115.172 28.104 113.658 28.104C112.228 28.104 110.948 27.7733 109.818 27.112C108.708 26.4507 107.844 25.5227 107.226 24.328C106.607 23.112 106.298 21.6933 106.298 20.072V9.352H109.594V19.496C109.594 21.3307 110.01 22.7493 110.842 23.752C111.695 24.7333 112.868 25.224 114.362 25.224C115.407 25.224 116.346 24.936 117.178 24.36C118.01 23.7627 118.66 22.9733 119.13 21.992C119.62 21.0107 119.866 19.9547 119.866 18.824V9.352H123.162V27.656H119.866ZM128.339 27.656V1.224H131.635V27.656H128.339ZM138.439 0.903999C139.079 0.903999 139.602 1.11733 140.007 1.544C140.434 1.94933 140.647 2.46133 140.647 3.08C140.647 3.69867 140.434 4.22133 140.007 4.648C139.602 5.05333 139.079 5.256 138.439 5.256C137.821 5.256 137.298 5.05333 136.871 4.648C136.466 4.22133 136.263 3.69867 136.263 3.08C136.263 2.46133 136.466 1.94933 136.871 1.544C137.298 1.11733 137.821 0.903999 138.439 0.903999ZM136.807 27.688V9.352H140.103V27.688H136.807ZM155.068 28.104C153.511 28.104 152.167 27.7947 151.036 27.176C149.905 26.5573 149.084 25.8107 148.572 24.936V35.432H145.276V9.352H148.572V12.072C149.084 11.1973 149.905 10.4507 151.036 9.832C152.167 9.21333 153.511 8.904 155.068 8.904C156.775 8.904 158.311 9.32 159.676 10.152C161.063 10.984 162.151 12.136 162.94 13.608C163.729 15.08 164.124 16.712 164.124 18.504C164.124 20.296 163.729 21.928 162.94 23.4C162.151 24.872 161.063 26.024 159.676 26.856C158.311 27.688 156.775 28.104 155.068 28.104ZM154.78 25.192C155.975 25.192 157.031 24.904 157.948 24.328C158.887 23.752 159.612 22.952 160.124 21.928C160.636 20.904 160.892 19.7627 160.892 18.504C160.892 17.2453 160.636 16.104 160.124 15.08C159.612 14.056 158.887 13.256 157.948 12.68C157.031 12.104 155.975 11.816 154.78 11.816C153.564 11.816 152.476 12.1147 151.516 12.712C150.577 13.288 149.841 14.088 149.308 15.112C148.775 16.1147 148.508 17.2453 148.508 18.504C148.508 19.7627 148.775 20.904 149.308 21.928C149.841 22.9307 150.577 23.7307 151.516 24.328C152.476 24.904 153.564 25.192 154.78 25.192Z" fill="#595B5A"/>
</svg>
