<svg width="86" height="42" viewBox="0 0 86 42" fill="none" xmlns="http://www.w3.org/2000/svg">
<path d="M8.63567 3.03436V17.6073H6.47137V3.03436H0.535006V1.0968H14.5514V3.03436H8.63567ZM17.3128 5.81703V7.63092C17.6289 7.095 18.1511 6.61404 18.8794 6.18805C19.6214 5.74832 20.5146 5.52846 21.559 5.52846C22.2323 5.52846 22.7682 5.59717 23.1668 5.73458V7.75459C22.6858 7.53473 22.1018 7.4248 21.4147 7.4248C20.6314 7.4248 19.9237 7.61718 19.2916 8.00194C18.6733 8.37297 18.1854 8.87453 17.8281 9.50665C17.4846 10.125 17.3128 10.7915 17.3128 11.506V17.6073H15.1898V5.81703H17.3128ZM33.7462 17.6073V15.814C33.4439 16.35 32.9423 16.8309 32.2415 17.2569C31.5544 17.6829 30.7231 17.8959 29.7474 17.8959C28.8267 17.8959 28.0022 17.6829 27.2739 17.2569C26.5594 16.8309 26.0028 16.2332 25.6043 15.4636C25.2058 14.6804 25.0066 13.7665 25.0066 12.7222V5.81703H27.1296V12.3512C27.1296 13.5329 27.3976 14.4467 27.9335 15.0926C28.4832 15.7247 29.239 16.0408 30.2009 16.0408C30.8742 16.0408 31.4789 15.8553 32.0148 15.4842C32.5507 15.0995 32.9698 14.591 33.2721 13.9589C33.5882 13.3268 33.7462 12.6466 33.7462 11.9183V5.81703H35.8693V17.6073H33.7462ZM43.8418 5.52846C44.7899 5.52846 45.6488 5.67961 46.4183 5.98193C47.1879 6.2705 47.7994 6.67588 48.2528 7.19806C48.72 7.7065 48.9674 8.29052 48.9949 8.95011H46.913C46.8718 8.45542 46.5557 8.05004 45.9649 7.73398C45.374 7.41793 44.6457 7.2599 43.7799 7.2599C42.928 7.2599 42.2203 7.41105 41.6569 7.71337C41.1072 8.01568 40.8324 8.38671 40.8324 8.82644C40.8324 9.33488 41.0866 9.74025 41.595 10.0426C42.1172 10.3449 43.0722 10.5922 44.4601 10.7846C46.1778 11.0182 47.4077 11.4167 48.1498 11.9801C48.8918 12.5435 49.2628 13.2993 49.2628 14.2475C49.2628 14.9895 49.0224 15.6354 48.5414 16.1851C48.0742 16.7347 47.4352 17.1538 46.6244 17.4424C45.8137 17.7447 44.9136 17.8959 43.9242 17.8959C42.8936 17.8959 41.9867 17.7379 41.2034 17.4218C40.4201 17.1195 39.8018 16.6935 39.3483 16.1438C38.9085 15.6079 38.6612 14.9964 38.6062 14.3093H40.6881C40.7568 14.8178 41.0728 15.2575 41.6363 15.6285C42.2134 15.9858 42.9967 16.1644 43.9861 16.1644C44.9068 16.1644 45.6694 15.9995 46.274 15.6697C46.8787 15.3262 47.181 14.8933 47.181 14.3712C47.181 13.8765 46.8993 13.4848 46.3359 13.1963C45.7862 12.8939 44.8243 12.6535 43.4501 12.4748C41.8286 12.255 40.64 11.8702 39.8842 11.3205C39.1284 10.7571 38.7505 9.96699 38.7505 8.95011C38.7505 8.27677 38.9704 7.67902 39.4101 7.15684C39.8636 6.63466 40.4751 6.23615 41.2446 5.96132C42.0141 5.67274 42.8799 5.52846 43.8418 5.52846ZM58.0088 7.69276H55.391V17.6073H53.2679V7.69276H50.6501V5.81703H53.2679V2.23048H55.391V5.81703H58.0088V7.69276ZM71.397 5.52846C72.5375 5.52846 73.5681 5.79642 74.4888 6.33234C75.4095 6.86826 76.1241 7.61031 76.6325 8.55848C77.1547 9.4929 77.4158 10.5441 77.4158 11.7122C77.4158 12.8802 77.1547 13.9383 76.6325 14.8865C76.1241 15.8209 75.4095 16.5561 74.4888 17.092C73.5681 17.6279 72.5375 17.8959 71.397 17.8959C70.2427 17.8959 69.2052 17.6279 68.2845 17.092C67.3776 16.5561 66.663 15.8209 66.1408 14.8865C65.6186 13.9383 65.3576 12.8802 65.3576 11.7122C65.3576 10.5441 65.6186 9.4929 66.1408 8.55848C66.663 7.61031 67.3776 6.86826 68.2845 6.33234C69.2052 5.79642 70.2427 5.52846 71.397 5.52846ZM71.397 7.40418C70.6275 7.40418 69.9404 7.59657 69.3357 7.98133C68.7449 8.35235 68.2776 8.86766 67.9341 9.52726C67.6043 10.1731 67.4394 10.9014 67.4394 11.7122C67.4394 12.5229 67.6043 13.2581 67.9341 13.9177C68.2776 14.5636 68.7449 15.0789 69.3357 15.4636C69.9404 15.8346 70.6275 16.0202 71.397 16.0202C72.1528 16.0202 72.833 15.8346 73.4376 15.4636C74.0422 15.0789 74.5094 14.5636 74.8392 13.9177C75.169 13.2581 75.3339 12.5229 75.3339 11.7122C75.3339 10.9014 75.169 10.1731 74.8392 9.52726C74.5094 8.86766 74.0422 8.35235 73.4376 7.98133C72.833 7.59657 72.1528 7.40418 71.397 7.40418ZM85.6807 7.69276H83.0629V17.6073H80.9399V7.69276H78.6107V5.81703H80.9399V3.81763C80.9399 2.81449 81.2147 2.01061 81.7644 1.40598C82.3278 0.801352 83.1042 0.499036 84.0936 0.499036C84.6432 0.499036 85.1036 0.540261 85.4746 0.62271V2.41599C85.2822 2.37476 84.9455 2.35415 84.4646 2.35415C84.0249 2.35415 83.6813 2.49157 83.434 2.7664C83.1866 3.02749 83.0629 3.39851 83.0629 3.87947V5.81703H85.6807V7.69276ZM21.923 41.6073V24.5815H24.0461V41.6073H21.923ZM32.7991 29.5285C33.9396 29.5285 34.9703 29.7964 35.891 30.3323C36.8116 30.8683 37.5262 31.6103 38.0346 32.5585C38.5568 33.4929 38.8179 34.5441 38.8179 35.7122C38.8179 36.8802 38.5568 37.9383 38.0346 38.8865C37.5262 39.8209 36.8116 40.5561 35.891 41.092C34.9703 41.6279 33.9396 41.8959 32.7991 41.8959C31.6448 41.8959 30.6073 41.6279 29.6866 41.092C28.7797 40.5561 28.0651 39.8209 27.5429 38.8865C27.0208 37.9383 26.7597 36.8802 26.7597 35.7122C26.7597 34.5441 27.0208 33.4929 27.5429 32.5585C28.0651 31.6103 28.7797 30.8683 29.6866 30.3323C30.6073 29.7964 31.6448 29.5285 32.7991 29.5285ZM32.7991 31.4042C32.0296 31.4042 31.3425 31.5966 30.7379 31.9813C30.147 32.3524 29.6798 32.8677 29.3362 33.5273C29.0064 34.1731 28.8415 34.9014 28.8415 35.7122C28.8415 36.5229 29.0064 37.2581 29.3362 37.9177C29.6798 38.5636 30.147 39.0789 30.7379 39.4636C31.3425 39.8346 32.0296 40.0202 32.7991 40.0202C33.5549 40.0202 34.2351 39.8346 34.8397 39.4636C35.4443 39.0789 35.9116 38.5636 36.2414 37.9177C36.5712 37.2581 36.7361 36.5229 36.7361 35.7122C36.7361 34.9014 36.5712 34.1731 36.2414 33.5273C35.9116 32.8677 35.4443 32.3524 34.8397 31.9813C34.2351 31.5966 33.5549 31.4042 32.7991 31.4042ZM51.9728 29.817L46.9846 41.6073H44.7378L39.7703 29.817H42.0788L45.9334 39.1957L49.7879 29.817H51.9728ZM58.6422 41.8959C57.5154 41.8959 56.4985 41.6279 55.5916 41.092C54.6984 40.5561 53.9975 39.8209 53.4891 38.8865C52.9807 37.9383 52.7264 36.8802 52.7264 35.7122C52.7264 34.5441 52.9807 33.4929 53.4891 32.5585C53.9975 31.6103 54.6984 30.8683 55.5916 30.3323C56.4985 29.7964 57.5154 29.5285 58.6422 29.5285C59.769 29.5285 60.779 29.7964 61.6722 30.3323C62.5792 30.8683 63.28 31.6103 63.7747 32.5585C64.2831 33.4929 64.5373 34.5441 64.5373 35.7122C64.5373 36.0969 64.5236 36.3855 64.4961 36.5779H54.8495C54.9594 37.6085 55.3579 38.4536 56.045 39.1132C56.7458 39.7728 57.6116 40.1026 58.6422 40.1026C59.4255 40.1026 60.1125 39.9446 60.7034 39.6285C61.3081 39.2987 61.7203 38.8865 61.9402 38.3918H64.1045C63.7747 39.4224 63.1151 40.2606 62.1257 40.9065C61.1363 41.5661 59.9751 41.8959 58.6422 41.8959ZM62.4555 34.8465C62.3318 33.8021 61.9264 32.957 61.2393 32.3111C60.5523 31.6515 59.6865 31.3217 58.6422 31.3217C57.5978 31.3217 56.7321 31.6515 56.045 32.3111C55.3579 32.957 54.9594 33.8021 54.8495 34.8465H62.4555Z" fill="#1A1A1A"/>
</svg>
