<svg width="68" height="14" viewBox="0 0 68 14" fill="none" xmlns="http://www.w3.org/2000/svg">
<path d="M3.59473 1.1748C5.32324 1.16016 6.45117 2.94727 6.45117 5.78906C6.45117 8.63086 5.32324 10.4326 3.59473 10.418C1.88086 10.4326 0.767578 8.63086 0.767578 5.78906C0.767578 2.94727 1.88086 1.16016 3.59473 1.1748ZM3.59473 2.47852C2.64258 2.47852 2.05664 3.69434 2.05664 5.78906C2.05664 7.88379 2.64258 9.09961 3.59473 9.09961C4.56152 9.09961 5.16211 7.88379 5.16211 5.78906C5.16211 3.69434 4.56152 2.47852 3.59473 2.47852ZM11.915 0.120117V13.2451H10.582V6.4043H8.95605V12.6006H7.6377V0.369141H8.95605V5.26172H10.582V0.120117H11.915ZM24.5273 0.120117V7.92773H23.1357V4.60254H20.6895V3.45996H23.1357V0.120117H24.5273ZM20.1328 8.29395C22.8867 8.29395 24.5713 9.20215 24.5713 10.7695C24.5713 12.3369 22.8867 13.2305 20.1328 13.2451C17.3789 13.2305 15.6797 12.3369 15.6943 10.7695C15.6797 9.20215 17.3789 8.29395 20.1328 8.29395ZM20.1328 9.37793C18.2139 9.37793 17.0713 9.87598 17.0713 10.7695C17.0713 11.6484 18.2139 12.1611 20.1328 12.1465C22.0518 12.1611 23.1943 11.6484 23.1943 10.7695C23.1943 9.87598 22.0518 9.37793 20.1328 9.37793ZM18.2871 2.43457C18.2871 4.10449 19.4736 5.71582 21.4512 6.38965L20.7334 7.48828C19.2612 6.97559 18.1772 5.92822 17.6133 4.63184C17.0347 6.104 15.8848 7.2832 14.3174 7.85449L13.585 6.74121C15.6211 6.03809 16.8662 4.26562 16.8662 2.44922V2.15625H14.0244V1.02832H21.0996V2.15625H18.2871V2.43457ZM33.8584 1.52637V2.33203C33.8584 3.43066 33.8584 5.12988 33.4775 7.47363L32.1006 7.37109C32.4302 5.26904 32.4668 3.75293 32.4814 2.6543H27.1494V1.52637H33.8584ZM30.4893 5.27637V9.20215C31.8882 9.1582 33.3091 9.06299 34.6201 8.89453L34.6934 9.93457C31.9541 10.374 28.9072 10.4326 26.5781 10.418L26.417 9.29004C27.2373 9.28271 28.1528 9.27539 29.1123 9.24609V5.27637H30.4893ZM36.7734 0.120117V5.54004H38.7803V6.72656H36.7734V13.2451H35.3672V0.120117H36.7734ZM44.9326 1.33594V4.4707H47.4375V1.33594H48.7266V10.0078H43.6143V1.33594H44.9326ZM44.9326 8.87988H47.4375V5.56934H44.9326V8.87988ZM54.4688 0.120117V13.2451H53.1357V6.4043H51.5098V12.6006H50.1914V0.369141H51.5098V5.26172H53.1357V0.120117H54.4688ZM67.0664 0.120117V13.2744H65.6895V7.78125H63.126V6.62402H65.6895V4.19238H63.1992V3.0498H65.6895V0.120117H67.0664ZM62.4082 1.27734V6.06738H58.0137V9.08496C59.874 9.07764 61.4268 8.98975 63.3018 8.71875L63.4189 9.86133C61.3682 10.1836 59.6982 10.2422 57.6182 10.2422H56.6221V4.96875H61.0459V2.40527H56.5928V1.27734H62.4082Z" fill="#595B5A"/>
</svg>
