<svg width="109" height="18" viewBox="0 0 109 18" fill="none" xmlns="http://www.w3.org/2000/svg">
<path d="M6.4 1.57017C8.21333 1.57017 9.77333 1.90351 11.08 2.57017C12.3867 3.23684 13.3867 4.17684 14.08 5.39018C14.7733 6.59018 15.12 7.99018 15.12 9.59018C15.12 11.1902 14.7733 12.5902 14.08 13.7902C13.4 14.9902 12.4 15.9235 11.08 16.5902C9.77333 17.2568 8.21333 17.5902 6.4 17.5902H0.72V1.57017H6.4ZM6.46 15.6902C8.5 15.6902 10.1 15.1568 11.26 14.0902C12.42 13.0235 13 11.5235 13 9.59018C13 7.65684 12.42 6.15018 11.26 5.07017C10.1 3.99018 8.5 3.45018 6.46 3.45018H2.82V15.6902H6.46ZM22.848 17.8702C21.7813 17.8702 20.8146 17.6102 19.948 17.0902C19.0946 16.5702 18.4213 15.8502 17.928 14.9302C17.4346 14.0102 17.188 12.9902 17.188 11.8702C17.188 10.7502 17.4346 9.73018 17.928 8.81018C18.4213 7.89018 19.0946 7.17018 19.948 6.65018C20.8146 6.13018 21.7813 5.87018 22.848 5.87018C23.8213 5.87018 24.6613 6.06351 25.368 6.45018C26.0746 6.83684 26.588 7.30351 26.908 7.85018V6.15018H28.968V17.5902H26.908V15.8902C26.588 16.4368 26.0746 16.9035 25.368 17.2902C24.6613 17.6768 23.8213 17.8702 22.848 17.8702ZM23.028 16.0502C23.788 16.0502 24.4613 15.8702 25.048 15.5102C25.648 15.1368 26.1146 14.6368 26.448 14.0102C26.7813 13.3702 26.948 12.6568 26.948 11.8702C26.948 11.0835 26.7813 10.3768 26.448 9.75018C26.1146 9.11018 25.648 8.61018 25.048 8.25018C24.4613 7.87684 23.788 7.69018 23.028 7.69018C22.2813 7.69018 21.6146 7.87018 21.028 8.23018C20.4546 8.59018 20.008 9.09018 19.688 9.73018C19.368 10.3702 19.208 11.0835 19.208 11.8702C19.208 12.6568 19.368 13.3702 19.688 14.0102C20.008 14.6502 20.4546 15.1502 21.028 15.5102C21.6146 15.8702 22.2813 16.0502 23.028 16.0502ZM34.262 6.15018V7.89018C34.5554 7.37018 35.0354 6.90351 35.702 6.49018C36.382 6.07684 37.1954 5.87018 38.142 5.87018C39.0354 5.87018 39.8287 6.07684 40.522 6.49018C41.2287 6.90351 41.7754 7.49018 42.162 8.25018C42.5487 8.99684 42.742 9.87684 42.742 10.8902V17.5902H40.682V11.2502C40.682 10.1035 40.4154 9.22351 39.882 8.61018C39.362 7.98351 38.6354 7.67018 37.702 7.67018C37.0487 7.67018 36.462 7.85684 35.942 8.23018C35.422 8.59018 35.0087 9.07684 34.702 9.69018C34.4087 10.3035 34.262 10.9635 34.262 11.6702V17.5902H32.202V6.15018H34.262ZM50.7191 17.8702C49.6524 17.8702 48.6857 17.6102 47.8191 17.0902C46.9657 16.5702 46.2924 15.8502 45.7991 14.9302C45.3057 14.0102 45.0591 12.9902 45.0591 11.8702C45.0591 10.7502 45.3057 9.73018 45.7991 8.81018C46.2924 7.89018 46.9657 7.17018 47.8191 6.65018C48.6857 6.13018 49.6524 5.87018 50.7191 5.87018C51.6924 5.87018 52.5324 6.06351 53.2391 6.45018C53.9457 6.83684 54.4591 7.30351 54.7791 7.85018V1.07018H56.8391V17.5902H54.7791V15.8902C54.4591 16.4368 53.9457 16.9035 53.2391 17.2902C52.5324 17.6768 51.6924 17.8702 50.7191 17.8702ZM50.8991 16.0502C51.6591 16.0502 52.3324 15.8702 52.9191 15.5102C53.5191 15.1368 53.9857 14.6368 54.3191 14.0102C54.6524 13.3702 54.8191 12.6568 54.8191 11.8702C54.8191 11.0835 54.6524 10.3768 54.3191 9.75018C53.9857 9.11018 53.5191 8.61018 52.9191 8.25018C52.3324 7.87684 51.6591 7.69018 50.8991 7.69018C50.1524 7.69018 49.4857 7.87018 48.8991 8.23018C48.3257 8.59018 47.8791 9.09018 47.5591 9.73018C47.2391 10.3702 47.0791 11.0835 47.0791 11.8702C47.0791 12.6568 47.2391 13.3702 47.5591 14.0102C47.8791 14.6502 48.3257 15.1502 48.8991 15.5102C49.4857 15.8702 50.1524 16.0502 50.8991 16.0502ZM65.2131 17.8702C64.1198 17.8702 63.1331 17.6102 62.2531 17.0902C61.3865 16.5702 60.7065 15.8568 60.2131 14.9502C59.7198 14.0302 59.4731 13.0035 59.4731 11.8702C59.4731 10.7368 59.7198 9.71684 60.2131 8.81018C60.7065 7.89018 61.3865 7.17018 62.2531 6.65018C63.1331 6.13018 64.1198 5.87018 65.2131 5.87018C66.3065 5.87018 67.2865 6.13018 68.1531 6.65018C69.0331 7.17018 69.7131 7.89018 70.1931 8.81018C70.6865 9.71684 70.9331 10.7368 70.9331 11.8702C70.9331 12.2435 70.9198 12.5235 70.8931 12.7102H61.5331C61.6398 13.7102 62.0265 14.5302 62.6931 15.1702C63.3731 15.8102 64.2131 16.1302 65.2131 16.1302C65.9731 16.1302 66.6398 15.9768 67.2131 15.6702C67.7998 15.3502 68.1998 14.9502 68.4131 14.4702H70.5131C70.1931 15.4702 69.5531 16.2835 68.5931 16.9102C67.6331 17.5502 66.5065 17.8702 65.2131 17.8702ZM68.9131 11.0302C68.7931 10.0168 68.3998 9.19684 67.7331 8.57018C67.0665 7.93018 66.2265 7.61018 65.2131 7.61018C64.1998 7.61018 63.3598 7.93018 62.6931 8.57018C62.0265 9.19684 61.6398 10.0168 61.5331 11.0302H68.9131ZM73.5497 17.5902V1.07018H75.6097V17.5902H73.5497ZM79.8627 0.870175C80.2627 0.870175 80.5893 1.00351 80.8427 1.27017C81.1093 1.52351 81.2427 1.84351 81.2427 2.23017C81.2427 2.61684 81.1093 2.94351 80.8427 3.21018C80.5893 3.46351 80.2627 3.59017 79.8627 3.59017C79.476 3.59017 79.1493 3.46351 78.8827 3.21018C78.6293 2.94351 78.5027 2.61684 78.5027 2.23017C78.5027 1.84351 78.6293 1.52351 78.8827 1.27017C79.1493 1.00351 79.476 0.870175 79.8627 0.870175ZM78.8427 17.6102V6.15018H80.9027V17.6102H78.8427ZM89.3956 5.87018C90.5023 5.87018 91.5023 6.13018 92.3956 6.65018C93.289 7.17018 93.9823 7.89018 94.4756 8.81018C94.9823 9.71684 95.2356 10.7368 95.2356 11.8702C95.2356 13.0035 94.9823 14.0302 94.4756 14.9502C93.9823 15.8568 93.289 16.5702 92.3956 17.0902C91.5023 17.6102 90.5023 17.8702 89.3956 17.8702C88.2756 17.8702 87.269 17.6102 86.3756 17.0902C85.4956 16.5702 84.8023 15.8568 84.2956 14.9502C83.789 14.0302 83.5356 13.0035 83.5356 11.8702C83.5356 10.7368 83.789 9.71684 84.2956 8.81018C84.8023 7.89018 85.4956 7.17018 86.3756 6.65018C87.269 6.13018 88.2756 5.87018 89.3956 5.87018ZM89.3956 7.69018C88.649 7.69018 87.9823 7.87684 87.3956 8.25018C86.8223 8.61018 86.369 9.11018 86.0356 9.75018C85.7156 10.3768 85.5556 11.0835 85.5556 11.8702C85.5556 12.6568 85.7156 13.3702 86.0356 14.0102C86.369 14.6368 86.8223 15.1368 87.3956 15.5102C87.9823 15.8702 88.649 16.0502 89.3956 16.0502C90.129 16.0502 90.789 15.8702 91.3756 15.5102C91.9623 15.1368 92.4156 14.6368 92.7356 14.0102C93.0556 13.3702 93.2156 12.6568 93.2156 11.8702C93.2156 11.0835 93.0556 10.3768 92.7356 9.75018C92.4156 9.11018 91.9623 8.61018 91.3756 8.25018C90.789 7.87684 90.129 7.69018 89.3956 7.69018ZM99.9261 6.15018V7.89018C100.219 7.37018 100.699 6.90351 101.366 6.49018C102.046 6.07684 102.859 5.87018 103.806 5.87018C104.699 5.87018 105.493 6.07684 106.186 6.49018C106.893 6.90351 107.439 7.49018 107.826 8.25018C108.213 8.99684 108.406 9.87684 108.406 10.8902V17.5902H106.346V11.2502C106.346 10.1035 106.079 9.22351 105.546 8.61018C105.026 7.98351 104.299 7.67018 103.366 7.67018C102.713 7.67018 102.126 7.85684 101.606 8.23018C101.086 8.59018 100.673 9.07684 100.366 9.69018C100.073 10.3035 99.9261 10.9635 99.9261 11.6702V17.5902H97.8661V6.15018H99.9261Z" fill="#1A1A1A"/>
</svg>
