<svg width="69" height="14" viewBox="0 0 69 14" fill="none" xmlns="http://www.w3.org/2000/svg">
<path d="M5.03906 3.45996C5.02441 5.78906 6.37207 8.16211 8.33496 9.11426L7.4707 10.2275C6.04248 9.48779 4.93652 8.01562 4.36523 6.25781C3.77197 8.13281 2.62207 9.7002 1.12793 10.4766L0.263672 9.34863C2.28516 8.38184 3.64746 5.8623 3.64746 3.45996V1.21875H5.03906V3.45996ZM10.708 0.120117V5.34961H12.8174V6.53613H10.708V13.2451H9.31641V0.120117H10.708ZM23.7598 0.134766V3.34277H25.6787V4.5H23.7598V8.03027H22.3682V0.134766H23.7598ZM19.9512 0.925781V4.60254H15.3809V6.19922C17.6587 6.19189 19.27 6.11133 21.1816 5.78906L21.3281 6.91699C19.292 7.2832 17.5635 7.35645 15.0439 7.3418H13.9893V3.5332H18.5889V2.05371H13.9746V0.925781H19.9512ZM19.5117 8.38184C22.207 8.38184 23.877 9.29004 23.877 10.8135C23.877 12.3369 22.207 13.2158 19.5117 13.2158C16.7725 13.2158 15.1025 12.3369 15.1025 10.8135C15.1025 9.29004 16.7725 8.38184 19.5117 8.38184ZM19.5117 9.48047C17.5928 9.48047 16.4648 9.96387 16.4648 10.8135C16.4648 11.6631 17.5928 12.1611 19.5117 12.1465C21.416 12.1611 22.5146 11.6631 22.5146 10.8135C22.5146 9.96387 21.416 9.48047 19.5117 9.48047ZM30.6885 1.05762C32.7686 1.04297 34.248 2.33203 34.2627 4.17773C34.248 6.02344 32.7686 7.3125 30.6885 7.3125C28.623 7.3125 27.0996 6.02344 27.1143 4.17773C27.0996 2.33203 28.623 1.04297 30.6885 1.05762ZM30.6885 2.25879C29.4141 2.25879 28.4766 3.02051 28.4912 4.17773C28.4766 5.33496 29.4141 6.09668 30.6885 6.09668C31.9629 6.09668 32.9004 5.33496 32.9004 4.17773C32.9004 3.02051 31.9629 2.25879 30.6885 2.25879ZM37.2656 0.120117V13.2744H35.874V0.120117H37.2656ZM26.4844 9.29004C28.8721 9.29004 32.1826 9.26074 35.0537 8.85059L35.1562 9.86133C32.1826 10.4326 29.0039 10.4473 26.6602 10.4473L26.4844 9.29004ZM53.9209 0.134766V9.74414H52.5293V0.134766H53.9209ZM54.3164 11.8389V12.9668H45.3369V8.83594H46.7432V11.8389H54.3164ZM47.8125 2.15625C47.7979 4.0752 49.0283 5.83301 51.0498 6.53613L50.332 7.64941C48.8159 7.08545 47.6953 5.97217 47.1094 4.54395C46.5308 6.06738 45.3955 7.29053 43.8574 7.88379L43.1104 6.78516C45.1758 6.02344 46.3916 4.13379 46.3916 2.15625V0.852539H47.8125V2.15625ZM62.666 0.999023V2.12695H57.9639V3.63574H62.417V4.71973H57.9639V6.30176C60.3735 6.29443 61.8091 6.22852 63.4863 5.93555L63.6328 7.04883C61.8311 7.35645 60.293 7.42969 57.5977 7.41504H56.5723V0.999023H62.666ZM66.3135 0.120117V3.51855H68.2178V4.69043H66.3135V8.07422H64.9219V0.120117H66.3135ZM66.3135 8.6748V13.2451H64.9219V9.80273H57.6416V8.6748H66.3135Z" fill="#595B5A"/>
</svg>
