<svg width="38" height="14" viewBox="0 0 38 14" fill="none" xmlns="http://www.w3.org/2000/svg">
<path d="M5.05371 3.9873C5.05371 6.06738 6.41602 8.38184 8.4082 9.31934L7.61719 10.4033C6.14502 9.69287 4.98047 8.21338 4.39453 6.49219C3.78662 8.37451 2.55615 9.99316 1.05469 10.7402L0.234375 9.6416C2.22656 8.68945 3.67676 6.21387 3.67676 3.9873V2.5957H0.717773V1.43848H7.91016V2.5957H5.05371V3.9873ZM10.708 0.120117V5.32031H12.8174V6.49219H10.708V13.2451H9.31641V0.120117H10.708ZM24.3604 0.120117V13.2451H22.9541V0.120117H24.3604ZM20.4492 1.52637C20.4492 5.36426 18.8086 8.7041 14.3115 10.8574L13.5791 9.72949C17.0728 8.06689 18.772 5.70117 19.043 2.63965H14.209V1.52637H20.4492ZM29.3848 1.1748C31.1133 1.16016 32.2412 2.94727 32.2412 5.78906C32.2412 8.63086 31.1133 10.4326 29.3848 10.418C27.6709 10.4326 26.5576 8.63086 26.5576 5.78906C26.5576 2.94727 27.6709 1.16016 29.3848 1.1748ZM29.3848 2.47852C28.4326 2.47852 27.8467 3.69434 27.8467 5.78906C27.8467 7.88379 28.4326 9.09961 29.3848 9.09961C30.3516 9.09961 30.9521 7.88379 30.9521 5.78906C30.9521 3.69434 30.3516 2.47852 29.3848 2.47852ZM37.7051 0.120117V13.2451H36.3721V6.4043H34.7461V12.6006H33.4277V0.369141H34.7461V5.26172H36.3721V0.120117H37.7051Z" fill="#595B5A"/>
</svg>
