<svg width="130" height="40" viewBox="0 0 130 40" fill="none" xmlns="http://www.w3.org/2000/svg">
<path d="M24.0812 25.9303V29.0103H0.881152L1.00115 28.9303C1.76115 28.1703 2.24115 27.1703 2.24115 26.0903V3.93025C2.24115 2.85025 1.76115 1.81025 1.00115 1.09025L0.881152 0.970253H6.48115L6.36115 1.09025C5.56115 1.81025 5.12115 2.85025 5.12115 3.93025V28.4503H20.0812C21.1612 28.4503 22.2012 28.0103 22.9212 27.2103L24.0812 25.9303ZM29.0952 11.0503C28.2952 11.0503 27.6552 10.3703 27.6552 9.57025C27.6552 8.77025 28.2952 8.13025 29.0952 8.13025C29.8952 8.13025 30.5752 8.77025 30.5752 9.57025C30.5752 10.3703 29.8952 11.0503 29.0952 11.0503ZM27.6552 17.0103C27.6552 16.2903 27.5752 15.5303 27.4152 14.7703C27.3352 14.2903 27.1752 13.8103 27.0152 13.3303C26.5752 12.2503 25.4952 11.5703 24.3352 11.6103V11.0503C25.0952 11.0503 25.8552 11.1303 26.5752 11.3703C27.1752 11.5303 27.7752 11.8103 28.2952 12.1703C28.8952 12.6103 29.4152 13.1703 29.7752 13.8103C30.2952 14.8103 30.5752 15.9303 30.5352 17.0103V26.0903C30.5352 27.1703 31.0152 28.2103 31.8152 28.9303L31.8952 29.0103H26.2952L26.4152 28.9303C27.2152 28.2103 27.6552 27.1703 27.6552 26.0903V17.0103ZM50.688 12.2103C50.328 12.4903 50.048 12.8903 49.848 13.3303C49.688 13.6503 49.608 14.0103 49.528 14.3303C49.728 14.6903 49.928 15.0903 50.048 15.4903C50.568 16.9703 50.568 18.6103 49.968 20.0903C49.728 20.6503 49.448 21.1703 49.048 21.6503C48.488 22.3303 47.808 22.8903 47.008 23.2903C46.328 23.5703 45.648 23.8103 44.928 23.9703C44.088 24.1303 43.248 24.2503 42.408 24.2503H42.368H42.208C41.328 24.2103 40.408 24.0903 39.528 23.8503C38.848 23.6903 38.128 23.4503 37.488 23.0903C36.808 22.7303 36.168 22.2103 35.688 21.6103C35.368 21.9303 35.128 22.2903 35.008 22.6903C34.808 23.2103 34.728 23.7703 34.768 24.3303C34.768 24.7703 34.888 25.1703 35.128 25.5303C35.168 25.6503 35.208 25.6903 35.288 25.7703C35.328 25.8503 35.368 25.8903 35.448 25.9703C35.568 26.0903 35.728 26.1703 35.848 26.2503L36.048 26.3703L36.288 26.4903C36.448 26.5303 36.608 26.5703 36.768 26.6103C37.608 26.8103 38.448 26.8903 39.288 26.8903C39.808 26.8903 40.368 26.8903 41.048 26.8903H42.128C42.488 26.8903 42.928 26.8503 43.408 26.8903C44.928 26.8503 46.448 27.0903 47.928 27.5303C49.008 27.8503 49.968 28.4903 50.728 29.3303C51.328 30.0903 51.688 31.0503 51.688 32.0503C51.688 32.2903 51.688 32.5303 51.648 32.8103C51.648 33.0903 51.608 33.3303 51.568 33.6103C51.448 34.2503 51.248 34.8503 50.928 35.4103C50.488 36.1703 49.888 36.8103 49.168 37.3303C48.488 37.8103 47.728 38.2103 46.928 38.5303C45.488 39.0503 44.008 39.4103 42.488 39.5303C40.968 39.7303 39.408 39.7303 37.888 39.4903C37.288 39.4503 36.808 38.8903 36.888 38.2903C36.928 37.9703 37.048 37.6503 37.248 37.3703C37.488 36.9303 38.008 36.6903 38.528 36.8503C39.808 37.2903 41.128 37.5703 42.488 37.6503C43.848 37.8103 45.248 37.7303 46.608 37.4903C47.368 37.3703 48.128 37.0903 48.808 36.7303C49.488 36.3303 50.048 35.7703 50.408 35.1303C50.488 35.0103 50.528 34.8903 50.568 34.7703C50.928 33.9703 51.008 33.0103 50.768 32.1703C50.568 31.4903 50.128 30.9303 49.528 30.6103C48.848 30.2503 48.088 30.0503 47.328 30.0103C46.008 29.8503 44.688 29.7703 43.368 29.7703L42.088 29.7303C41.688 29.7303 41.288 29.7303 40.928 29.6903C40.248 29.6103 39.608 29.5303 38.928 29.3703C37.888 29.1703 36.928 28.7703 36.048 28.2103C35.848 28.0503 35.648 27.9303 35.488 27.7303L35.208 27.4903L34.968 27.2503C34.808 27.0503 34.688 26.8503 34.528 26.6103C34.488 26.5303 34.448 26.4103 34.368 26.2903C34.328 26.1703 34.288 26.0503 34.248 25.9303C34.088 25.4103 34.048 24.8503 34.088 24.3303C34.088 23.8503 34.168 23.3703 34.328 22.8903C34.328 22.7703 34.408 22.6103 34.448 22.4903V22.4503C34.648 21.9703 34.928 21.5303 35.328 21.1303C35.048 20.7303 34.808 20.2503 34.648 19.8103C34.128 18.2903 34.128 16.6503 34.728 15.1703C34.968 14.6103 35.288 14.0903 35.648 13.6103C36.208 12.9303 36.928 12.3703 37.688 11.9703C38.368 11.6903 39.048 11.4503 39.768 11.2903C41.568 10.8903 43.408 10.9303 45.168 11.4103C45.688 11.5303 46.208 11.7303 46.688 11.9303C46.968 12.0503 46.968 12.0503 47.408 12.2903C47.608 12.4103 47.768 12.5303 47.968 12.6503C48.168 12.4903 48.368 12.2903 48.568 12.1703C49.088 11.8103 49.648 11.5303 50.288 11.3703C51.008 11.1303 51.768 11.0503 52.528 11.0503V11.6103C51.888 11.6103 51.208 11.8103 50.688 12.2103ZM47.328 19.1703C47.608 18.2103 47.608 17.2503 47.408 16.2903C47.288 15.9303 47.168 15.5303 47.008 15.1703C46.768 14.5703 46.488 14.0503 46.128 13.5303C45.768 13.0103 45.328 12.6103 44.808 12.2903C44.208 11.9303 43.528 11.6903 42.848 11.6503C42.728 11.6103 42.608 11.6103 42.448 11.6103H42.408C41.608 11.6103 40.808 11.8103 40.088 12.2103C39.568 12.4903 39.128 12.8903 38.728 13.3703C38.368 13.8903 38.048 14.4103 37.768 15.0103C37.608 15.3703 37.488 15.7303 37.368 16.0903C37.128 17.0503 37.088 18.0103 37.328 18.9703C37.408 19.3703 37.528 19.7303 37.688 20.0903V20.1703C37.928 20.7303 38.248 21.2503 38.608 21.7703C38.968 22.2503 39.408 22.6503 39.888 23.0103C40.488 23.3703 41.168 23.5703 41.848 23.6503C41.968 23.6503 42.088 23.6503 42.248 23.6503H42.288C43.088 23.6903 43.888 23.4903 44.608 23.0903C45.128 22.7703 45.568 22.3703 45.968 21.8903C46.328 21.4103 46.688 20.8503 46.928 20.2903C47.088 19.9303 47.208 19.5303 47.328 19.1703ZM71.369 28.9303L71.489 29.0103H65.849L65.969 28.9303C66.769 28.2103 67.209 27.1703 67.209 26.0903V17.8903C67.209 14.5303 66.289 11.9703 64.009 11.9703C62.489 12.0103 61.049 12.6103 59.929 13.6503C59.169 14.3703 58.449 15.2103 57.889 16.0903V26.0903C57.889 27.1703 58.329 28.2103 59.129 28.9303L59.249 29.0503H53.649L53.729 28.9303C54.529 28.2103 54.969 27.1703 54.969 26.0903V6.97025C54.969 5.85025 55.249 4.77025 55.769 3.77025C56.129 3.09025 56.649 2.53025 57.249 2.13025C57.769 1.77025 58.369 1.49025 58.969 1.29025C59.689 1.09025 60.449 0.970253 61.209 0.970253V1.57025C60.049 1.49025 58.969 2.21025 58.529 3.29025C58.369 3.73025 58.209 4.21025 58.129 4.73025C57.969 5.45025 57.889 6.21025 57.889 6.97025V15.0903C59.409 13.0503 61.809 11.0503 64.449 11.0503C64.889 11.0103 65.329 11.0503 65.769 11.1303C66.169 11.2103 66.529 11.2903 66.889 11.4503C67.489 11.7703 68.049 12.1703 68.489 12.6903C69.409 13.7303 70.089 15.2503 70.129 17.9303V26.0903C70.129 27.1703 70.569 28.2103 71.369 28.9303ZM79.9265 11.6103H76.6465V22.6903C76.6465 23.4503 76.6865 24.2503 76.8065 25.0503C76.8465 25.5703 76.9665 26.0903 77.0865 26.5703C77.2065 27.0503 77.4465 27.4503 77.7665 27.8103C78.2465 28.2503 78.8865 28.4903 79.5265 28.4503V29.0103C78.7265 29.0503 77.9665 28.8903 77.2465 28.6103C76.6865 28.3303 76.1265 28.0103 75.6865 27.5703C75.1265 27.0903 74.6865 26.4903 74.3665 25.8103C73.9665 24.8103 73.7265 23.7703 73.7265 22.6903V11.6103H71.5665C74.2065 10.4903 76.6465 5.37025 76.6465 5.37025V11.0503H79.9265V11.6103ZM85.3843 11.0503C84.5843 11.0503 83.9443 10.3703 83.9443 9.57025C83.9443 8.77025 84.5843 8.13025 85.3843 8.13025C86.1843 8.13025 86.8643 8.77025 86.8643 9.57025C86.8643 10.3703 86.1843 11.0503 85.3843 11.0503ZM83.9443 17.0103C83.9443 16.2903 83.8643 15.5303 83.7043 14.7703C83.6243 14.2903 83.4643 13.8103 83.3043 13.3303C82.8643 12.2503 81.7843 11.5703 80.6243 11.6103V11.0503C81.3843 11.0503 82.1443 11.1303 82.8643 11.3703C83.4643 11.5303 84.0643 11.8103 84.5843 12.1703C85.1843 12.6103 85.7043 13.1703 86.0643 13.8103C86.5843 14.8103 86.8643 15.9303 86.8243 17.0103V26.0903C86.8243 27.1703 87.3043 28.2103 88.1043 28.9303L88.1843 29.0103H82.5843L82.7043 28.9303C83.5043 28.2103 83.9443 27.1703 83.9443 26.0903V17.0103ZM104.426 17.9303V17.8903C104.426 14.5303 103.506 11.9703 101.226 11.9703C99.7065 12.0103 98.2265 12.6103 97.1465 13.6503C96.3465 14.4103 95.6265 15.2503 95.0265 16.1703C95.0665 16.4503 95.0665 16.7303 95.0665 17.0103V26.0903C95.0665 27.1703 95.5465 28.2103 96.3065 28.9303L96.4265 29.0103H90.8265L90.9465 28.9303C91.7465 28.2103 92.1865 27.1703 92.1865 26.0903V17.0103C92.1865 16.2903 92.1065 15.5303 91.9465 14.7703C91.8665 14.2903 91.7065 13.8103 91.5465 13.3303C91.1065 12.2503 90.0265 11.5303 88.8665 11.6103V11.0503C89.6265 11.0503 90.3865 11.1303 91.1065 11.3703C91.7065 11.5303 92.3065 11.8103 92.8265 12.1703C93.4265 12.6103 93.9465 13.1703 94.3065 13.8103C94.5865 14.2903 94.7865 14.8503 94.9065 15.3703C96.3865 13.2103 98.8665 11.0503 101.666 11.0503C102.106 11.0103 102.546 11.0503 102.986 11.1303C103.346 11.2103 103.746 11.2903 104.066 11.4503C104.706 11.7703 105.266 12.1703 105.706 12.6903C106.626 13.7303 107.306 15.2503 107.306 17.9303V26.0903C107.306 27.1703 107.786 28.2103 108.586 28.9303L108.666 29.0103H103.066L103.186 28.9303C103.986 28.2103 104.426 27.1703 104.426 26.0903V17.9303ZM127.446 12.2103C127.086 12.4903 126.806 12.8903 126.606 13.3303C126.446 13.6503 126.366 14.0103 126.286 14.3303C126.486 14.6903 126.686 15.0903 126.806 15.4903C127.326 16.9703 127.326 18.6103 126.726 20.0903C126.486 20.6503 126.206 21.1703 125.806 21.6503C125.246 22.3303 124.566 22.8903 123.766 23.2903C123.086 23.5703 122.406 23.8103 121.686 23.9703C120.846 24.1303 120.006 24.2503 119.166 24.2503H119.126H118.966C118.086 24.2103 117.166 24.0903 116.286 23.8503C115.606 23.6903 114.886 23.4503 114.246 23.0903C113.566 22.7303 112.926 22.2103 112.446 21.6103C112.126 21.9303 111.886 22.2903 111.766 22.6903C111.566 23.2103 111.486 23.7703 111.526 24.3303C111.526 24.7703 111.646 25.1703 111.886 25.5303C111.926 25.6503 111.966 25.6903 112.046 25.7703C112.086 25.8503 112.126 25.8903 112.206 25.9703C112.326 26.0903 112.486 26.1703 112.606 26.2503L112.806 26.3703L113.046 26.4903C113.206 26.5303 113.366 26.5703 113.526 26.6103C114.366 26.8103 115.206 26.8903 116.046 26.8903C116.566 26.8903 117.126 26.8903 117.806 26.8903H118.886C119.246 26.8903 119.686 26.8503 120.166 26.8903C121.686 26.8503 123.206 27.0903 124.686 27.5303C125.766 27.8503 126.726 28.4903 127.486 29.3303C128.086 30.0903 128.446 31.0503 128.446 32.0503C128.446 32.2903 128.446 32.5303 128.406 32.8103C128.406 33.0903 128.366 33.3303 128.326 33.6103C128.206 34.2503 128.006 34.8503 127.686 35.4103C127.246 36.1703 126.646 36.8103 125.926 37.3303C125.246 37.8103 124.486 38.2103 123.686 38.5303C122.246 39.0503 120.766 39.4103 119.246 39.5303C117.726 39.7303 116.166 39.7303 114.646 39.4903C114.046 39.4503 113.566 38.8903 113.646 38.2903C113.686 37.9703 113.806 37.6503 114.006 37.3703C114.246 36.9303 114.766 36.6903 115.286 36.8503C116.566 37.2903 117.886 37.5703 119.246 37.6503C120.606 37.8103 122.006 37.7303 123.366 37.4903C124.126 37.3703 124.886 37.0903 125.566 36.7303C126.246 36.3303 126.806 35.7703 127.166 35.1303C127.246 35.0103 127.286 34.8903 127.326 34.7703C127.686 33.9703 127.766 33.0103 127.526 32.1703C127.326 31.4903 126.886 30.9303 126.286 30.6103C125.606 30.2503 124.846 30.0503 124.086 30.0103C122.766 29.8503 121.446 29.7703 120.126 29.7703L118.846 29.7303C118.446 29.7303 118.046 29.7303 117.686 29.6903C117.006 29.6103 116.366 29.5303 115.686 29.3703C114.646 29.1703 113.686 28.7703 112.806 28.2103C112.606 28.0503 112.406 27.9303 112.246 27.7303L111.966 27.4903L111.726 27.2503C111.566 27.0503 111.446 26.8503 111.286 26.6103C111.246 26.5303 111.206 26.4103 111.126 26.2903C111.086 26.1703 111.046 26.0503 111.006 25.9303C110.846 25.4103 110.806 24.8503 110.846 24.3303C110.846 23.8503 110.926 23.3703 111.086 22.8903C111.086 22.7703 111.166 22.6103 111.206 22.4903V22.4503C111.406 21.9703 111.686 21.5303 112.086 21.1303C111.806 20.7303 111.566 20.2503 111.406 19.8103C110.886 18.2903 110.886 16.6503 111.486 15.1703C111.726 14.6103 112.046 14.0903 112.406 13.6103C112.966 12.9303 113.686 12.3703 114.446 11.9703C115.126 11.6903 115.806 11.4503 116.526 11.2903C118.326 10.8903 120.166 10.9303 121.926 11.4103C122.446 11.5303 122.966 11.7303 123.446 11.9303C123.726 12.0503 123.726 12.0503 124.166 12.2903C124.366 12.4103 124.526 12.5303 124.726 12.6503C124.926 12.4903 125.126 12.2903 125.326 12.1703C125.846 11.8103 126.406 11.5303 127.046 11.3703C127.766 11.1303 128.526 11.0503 129.286 11.0503V11.6103C128.646 11.6103 127.966 11.8103 127.446 12.2103ZM124.086 19.1703C124.366 18.2103 124.366 17.2503 124.166 16.2903C124.046 15.9303 123.926 15.5303 123.766 15.1703C123.526 14.5703 123.246 14.0503 122.886 13.5303C122.526 13.0103 122.086 12.6103 121.566 12.2903C120.966 11.9303 120.286 11.6903 119.606 11.6503C119.486 11.6103 119.366 11.6103 119.206 11.6103H119.166C118.366 11.6103 117.566 11.8103 116.846 12.2103C116.326 12.4903 115.886 12.8903 115.486 13.3703C115.126 13.8903 114.806 14.4103 114.526 15.0103C114.366 15.3703 114.246 15.7303 114.126 16.0903C113.886 17.0503 113.846 18.0103 114.086 18.9703C114.166 19.3703 114.286 19.7303 114.446 20.0903V20.1703C114.686 20.7303 115.006 21.2503 115.366 21.7703C115.726 22.2503 116.166 22.6503 116.646 23.0103C117.246 23.3703 117.926 23.5703 118.606 23.6503C118.726 23.6503 118.846 23.6503 119.006 23.6503H119.046C119.846 23.6903 120.646 23.4903 121.366 23.0903C121.886 22.7703 122.326 22.3703 122.726 21.8903C123.086 21.4103 123.446 20.8503 123.686 20.2903C123.846 19.9303 123.966 19.5303 124.086 19.1703Z" fill="#1A1A1A"/>
</svg>
