<svg width="93" height="19" viewBox="0 0 93 19" fill="none" xmlns="http://www.w3.org/2000/svg">
<path d="M4.0791 1.47705C6.49902 1.45654 8.07812 3.9585 8.07812 7.93701C8.07812 11.9155 6.49902 14.438 4.0791 14.4175C1.67969 14.438 0.121094 11.9155 0.121094 7.93701C0.121094 3.9585 1.67969 1.45654 4.0791 1.47705ZM4.0791 3.30225C2.74609 3.30225 1.92578 5.00439 1.92578 7.93701C1.92578 10.8696 2.74609 12.5718 4.0791 12.5718C5.43262 12.5718 6.27344 10.8696 6.27344 7.93701C6.27344 5.00439 5.43262 3.30225 4.0791 3.30225ZM15.7275 0.000488281V18.3755H13.8613V8.79834H11.585V17.4731H9.73926V0.349121H11.585V7.19873H13.8613V0.000488281H15.7275ZM33.3848 0.000488281V10.9312H31.4365V6.27588H28.0117V4.67627H31.4365V0.000488281H33.3848ZM27.2324 11.4438C31.0879 11.4438 33.4463 12.7153 33.4463 14.9097C33.4463 17.104 31.0879 18.355 27.2324 18.3755C23.377 18.355 20.998 17.104 21.0186 14.9097C20.998 12.7153 23.377 11.4438 27.2324 11.4438ZM27.2324 12.9614C24.5459 12.9614 22.9463 13.6587 22.9463 14.9097C22.9463 16.1401 24.5459 16.8579 27.2324 16.8374C29.9189 16.8579 31.5186 16.1401 31.5186 14.9097C31.5186 13.6587 29.9189 12.9614 27.2324 12.9614ZM24.6484 3.24072C24.6484 5.57861 26.3096 7.83447 29.0781 8.77783L28.0732 10.3159C26.0122 9.59814 24.4946 8.13184 23.7051 6.31689C22.895 8.37793 21.2852 10.0288 19.0908 10.8286L18.0654 9.27002C20.916 8.28564 22.6592 5.8042 22.6592 3.26123V2.85107H18.6807V1.27197H28.5859V2.85107H24.6484V3.24072ZM46.4482 1.96924V3.09717C46.4482 4.63525 46.4482 7.01416 45.915 10.2954L43.9873 10.1519C44.4487 7.20898 44.5 5.08643 44.5205 3.54834H37.0557V1.96924H46.4482ZM41.7314 7.21924V12.7153C43.6899 12.6538 45.6792 12.5205 47.5146 12.2847L47.6172 13.7407C43.7822 14.356 39.5166 14.438 36.2559 14.4175L36.0303 12.8384C37.1787 12.8281 38.4604 12.8179 39.8037 12.7769V7.21924H41.7314ZM50.5293 0.000488281V7.58838H53.3389V9.24951H50.5293V18.3755H48.5605V0.000488281H50.5293ZM61.9521 1.70264V6.09131H65.459V1.70264H67.2637V13.8433H60.1064V1.70264H61.9521ZM61.9521 12.2642H65.459V7.62939H61.9521V12.2642ZM75.3027 0.000488281V18.3755H73.4365V8.79834H71.1602V17.4731H69.3145V0.349121H71.1602V7.19873H73.4365V0.000488281H75.3027ZM92.9395 0.000488281V18.4165H91.0117V10.7261H87.4229V9.10596H91.0117V5.70166H87.5254V4.10205H91.0117V0.000488281H92.9395ZM86.418 1.62061V8.32666H80.2656V12.5513C82.8701 12.541 85.0439 12.418 87.6689 12.0386L87.833 13.6382C84.9619 14.0894 82.624 14.1714 79.7119 14.1714H78.3174V6.78857H84.5107V3.19971H78.2764V1.62061H86.418Z" fill="#595B5A"/>
</svg>
