<svg width="713" height="36" viewBox="0 0 713 36" fill="none" xmlns="http://www.w3.org/2000/svg">
<path d="M7.3334 33.0815C5.1974 30.7775 3.5414 28.3055 2.3654 25.6655C1.2134 23.0255 0.637398 20.1455 0.637398 17.0255C0.637398 13.9055 1.2134 11.0255 2.3654 8.38545C3.5414 5.74545 5.1974 3.27345 7.3334 0.969452H11.3294C9.1454 3.20145 7.4294 5.67345 6.1814 8.38545C4.9334 11.0975 4.3094 13.9775 4.3094 17.0255C4.3094 20.0735 4.9334 22.9535 6.1814 25.6655C7.4294 28.3775 9.1454 30.8495 11.3294 33.0815H7.3334ZM35.3917 2.84145V6.22545H19.0117V16.0535L33.8077 16.0175V19.4015H19.0117V31.6775H15.2317V2.84145H35.3917ZM48.0393 10.5815C50.0313 10.5815 51.8313 11.0495 53.4393 11.9855C55.0473 12.9215 56.2953 14.2175 57.1833 15.8735C58.0953 17.5055 58.5513 19.3415 58.5513 21.3815C58.5513 23.4215 58.0953 25.2695 57.1833 26.9255C56.2953 28.5575 55.0473 29.8415 53.4393 30.7775C51.8313 31.7135 50.0313 32.1815 48.0393 32.1815C46.0233 32.1815 44.2113 31.7135 42.6033 30.7775C41.0193 29.8415 39.7713 28.5575 38.8593 26.9255C37.9473 25.2695 37.4913 23.4215 37.4913 21.3815C37.4913 19.3415 37.9473 17.5055 38.8593 15.8735C39.7713 14.2175 41.0193 12.9215 42.6033 11.9855C44.2113 11.0495 46.0233 10.5815 48.0393 10.5815ZM48.0393 13.8575C46.6953 13.8575 45.4953 14.1935 44.4393 14.8655C43.4073 15.5135 42.5913 16.4135 41.9913 17.5655C41.4153 18.6935 41.1273 19.9655 41.1273 21.3815C41.1273 22.7975 41.4153 24.0815 41.9913 25.2335C42.5913 26.3615 43.4073 27.2615 44.4393 27.9335C45.4953 28.5815 46.6953 28.9055 48.0393 28.9055C49.3593 28.9055 50.5473 28.5815 51.6033 27.9335C52.6593 27.2615 53.4753 26.3615 54.0513 25.2335C54.6273 24.0815 54.9153 22.7975 54.9153 21.3815C54.9153 19.9655 54.6273 18.6935 54.0513 17.5655C53.4753 16.4135 52.6593 15.5135 51.6033 14.8655C50.5473 14.1935 49.3593 13.8575 48.0393 13.8575ZM66.9941 11.0855V14.2175C67.5221 13.2815 68.3861 12.4415 69.5861 11.6975C70.8101 10.9535 72.2741 10.5815 73.9781 10.5815C75.5861 10.5815 77.0141 10.9535 78.2621 11.6975C79.5341 12.4415 80.5181 13.4975 81.2141 14.8655C81.9101 16.2095 82.2581 17.7935 82.2581 19.6175V31.6775H78.5501V20.2655C78.5501 18.2015 78.0701 16.6175 77.1101 15.5135C76.1741 14.3855 74.8661 13.8215 73.1861 13.8215C72.0101 13.8215 70.9541 14.1575 70.0181 14.8295C69.0821 15.4775 68.3381 16.3535 67.7861 17.4575C67.2581 18.5615 66.9941 19.7495 66.9941 21.0215V31.6775H63.2861V11.0855H66.9941ZM96.6168 32.1815C94.6968 32.1815 92.9568 31.7135 91.3968 30.7775C89.8608 29.8415 88.6488 28.5455 87.7608 26.8895C86.8728 25.2335 86.4288 23.3975 86.4288 21.3815C86.4288 19.3655 86.8728 17.5295 87.7608 15.8735C88.6488 14.2175 89.8608 12.9215 91.3968 11.9855C92.9568 11.0495 94.6968 10.5815 96.6168 10.5815C98.3688 10.5815 99.8808 10.9295 101.153 11.6255C102.425 12.3215 103.349 13.1615 103.925 14.1455V1.94145H107.633V31.6775H103.925V28.6175C103.349 29.6015 102.425 30.4415 101.153 31.1375C99.8808 31.8335 98.3688 32.1815 96.6168 32.1815ZM96.9408 28.9055C98.3088 28.9055 99.5208 28.5815 100.577 27.9335C101.657 27.2615 102.497 26.3615 103.097 25.2335C103.697 24.0815 103.997 22.7975 103.997 21.3815C103.997 19.9655 103.697 18.6935 103.097 17.5655C102.497 16.4135 101.657 15.5135 100.577 14.8655C99.5208 14.1935 98.3088 13.8575 96.9408 13.8575C95.5968 13.8575 94.3968 14.1815 93.3408 14.8295C92.3088 15.4775 91.5048 16.3775 90.9288 17.5295C90.3528 18.6815 90.0648 19.9655 90.0648 21.3815C90.0648 22.7975 90.3528 24.0815 90.9288 25.2335C91.5048 26.3855 92.3088 27.2855 93.3408 27.9335C94.3968 28.5815 95.5968 28.9055 96.9408 28.9055ZM117.162 11.0855V14.2175C117.69 13.2815 118.554 12.4415 119.754 11.6975C120.978 10.9535 122.442 10.5815 124.146 10.5815C125.754 10.5815 127.182 10.9535 128.43 11.6975C129.702 12.4415 130.686 13.4975 131.382 14.8655C132.078 16.2095 132.426 17.7935 132.426 19.6175V31.6775H128.718V20.2655C128.718 18.2015 128.238 16.6175 127.278 15.5135C126.342 14.3855 125.034 13.8215 123.354 13.8215C122.178 13.8215 121.122 14.1575 120.186 14.8295C119.25 15.4775 118.506 16.3535 117.954 17.4575C117.426 18.5615 117.162 19.7495 117.162 21.0215V31.6775H113.454V11.0855H117.162ZM146.929 32.1815C144.961 32.1815 143.185 31.7135 141.601 30.7775C140.041 29.8415 138.817 28.5575 137.929 26.9255C137.041 25.2695 136.597 23.4215 136.597 21.3815C136.597 19.3415 137.041 17.5055 137.929 15.8735C138.817 14.2175 140.041 12.9215 141.601 11.9855C143.185 11.0495 144.961 10.5815 146.929 10.5815C148.897 10.5815 150.661 11.0495 152.221 11.9855C153.805 12.9215 155.029 14.2175 155.893 15.8735C156.781 17.5055 157.225 19.3415 157.225 21.3815C157.225 22.0535 157.201 22.5575 157.153 22.8935H140.305C140.497 24.6935 141.193 26.1695 142.393 27.3215C143.617 28.4735 145.129 29.0495 146.929 29.0495C148.297 29.0495 149.497 28.7735 150.529 28.2215C151.585 27.6455 152.305 26.9255 152.689 26.0615H156.469C155.893 27.8615 154.741 29.3255 153.013 30.4535C151.285 31.6055 149.257 32.1815 146.929 32.1815ZM153.589 19.8695C153.373 18.0455 152.665 16.5695 151.465 15.4415C150.265 14.2895 148.753 13.7135 146.929 13.7135C145.105 13.7135 143.593 14.2895 142.393 15.4415C141.193 16.5695 140.497 18.0455 140.305 19.8695H153.589ZM170.035 10.5815C171.691 10.5815 173.191 10.8455 174.535 11.3735C175.879 11.8775 176.947 12.5855 177.739 13.4975C178.555 14.3855 178.987 15.4055 179.035 16.5575H175.399C175.327 15.6935 174.775 14.9855 173.743 14.4335C172.711 13.8815 171.439 13.6055 169.927 13.6055C168.439 13.6055 167.203 13.8695 166.219 14.3975C165.259 14.9255 164.779 15.5735 164.779 16.3415C164.779 17.2295 165.223 17.9375 166.111 18.4655C167.023 18.9935 168.691 19.4255 171.115 19.7615C174.115 20.1695 176.263 20.8655 177.559 21.8495C178.855 22.8335 179.503 24.1535 179.503 25.8095C179.503 27.1055 179.083 28.2335 178.243 29.1935C177.427 30.1535 176.311 30.8855 174.895 31.3895C173.479 31.9175 171.907 32.1815 170.179 32.1815C168.379 32.1815 166.795 31.9055 165.427 31.3535C164.059 30.8255 162.979 30.0815 162.187 29.1215C161.419 28.1855 160.987 27.1175 160.891 25.9175H164.527C164.647 26.8055 165.199 27.5735 166.183 28.2215C167.191 28.8455 168.559 29.1575 170.287 29.1575C171.895 29.1575 173.227 28.8695 174.283 28.2935C175.339 27.6935 175.867 26.9375 175.867 26.0255C175.867 25.1615 175.375 24.4775 174.391 23.9735C173.431 23.4455 171.751 23.0255 169.351 22.7135C166.519 22.3295 164.443 21.6575 163.123 20.6975C161.803 19.7135 161.143 18.3335 161.143 16.5575C161.143 15.3815 161.527 14.3375 162.295 13.4255C163.087 12.5135 164.155 11.8175 165.499 11.3375C166.843 10.8335 168.355 10.5815 170.035 10.5815ZM192.288 10.5815C193.944 10.5815 195.444 10.8455 196.788 11.3735C198.132 11.8775 199.2 12.5855 199.992 13.4975C200.808 14.3855 201.24 15.4055 201.288 16.5575H197.652C197.58 15.6935 197.028 14.9855 195.996 14.4335C194.964 13.8815 193.692 13.6055 192.18 13.6055C190.692 13.6055 189.456 13.8695 188.472 14.3975C187.512 14.9255 187.032 15.5735 187.032 16.3415C187.032 17.2295 187.476 17.9375 188.364 18.4655C189.276 18.9935 190.944 19.4255 193.368 19.7615C196.368 20.1695 198.516 20.8655 199.812 21.8495C201.108 22.8335 201.756 24.1535 201.756 25.8095C201.756 27.1055 201.336 28.2335 200.496 29.1935C199.68 30.1535 198.564 30.8855 197.148 31.3895C195.732 31.9175 194.16 32.1815 192.432 32.1815C190.632 32.1815 189.048 31.9055 187.68 31.3535C186.312 30.8255 185.232 30.0815 184.44 29.1215C183.672 28.1855 183.24 27.1175 183.144 25.9175H186.78C186.9 26.8055 187.452 27.5735 188.436 28.2215C189.444 28.8455 190.812 29.1575 192.54 29.1575C194.148 29.1575 195.48 28.8695 196.536 28.2935C197.592 27.6935 198.12 26.9375 198.12 26.0255C198.12 25.1615 197.628 24.4775 196.644 23.9735C195.684 23.4455 194.004 23.0255 191.604 22.7135C188.772 22.3295 186.696 21.6575 185.376 20.6975C184.056 19.7135 183.396 18.3335 183.396 16.5575C183.396 15.3815 183.78 14.3375 184.548 13.4255C185.34 12.5135 186.408 11.8175 187.752 11.3375C189.096 10.8335 190.608 10.5815 192.288 10.5815ZM208.458 35.3135H205.506L206.658 27.1775H210.258L208.458 35.3135ZM239.291 32.3255C236.435 32.3255 233.855 31.6775 231.551 30.3815C229.247 29.0855 227.435 27.2855 226.115 24.9815C224.819 22.6775 224.171 20.0975 224.171 17.2415C224.171 14.3855 224.819 11.8055 226.115 9.50145C227.435 7.19745 229.247 5.39745 231.551 4.10145C233.855 2.80545 236.435 2.15745 239.291 2.15745C241.715 2.15745 243.899 2.60145 245.843 3.48945C247.811 4.35345 249.431 5.56545 250.703 7.12545C251.999 8.68545 252.899 10.4855 253.403 12.5255H249.551C248.927 10.4375 247.715 8.76945 245.915 7.52145C244.115 6.27345 241.931 5.64945 239.363 5.64945C237.179 5.64945 235.223 6.15345 233.495 7.16145C231.767 8.14545 230.411 9.51345 229.427 11.2655C228.443 13.0175 227.951 15.0095 227.951 17.2415C227.951 19.4495 228.443 21.4415 229.427 23.2175C230.411 24.9695 231.767 26.3495 233.495 27.3575C235.247 28.3415 237.203 28.8335 239.363 28.8335C241.115 28.8335 242.723 28.5215 244.187 27.8975C245.651 27.2495 246.863 26.3735 247.823 25.2695C248.807 24.1655 249.479 22.9295 249.839 21.5615H253.691C253.259 23.5775 252.383 25.4015 251.063 27.0335C249.767 28.6655 248.099 29.9495 246.059 30.8855C244.019 31.8455 241.763 32.3255 239.291 32.3255ZM267.801 10.5815C269.793 10.5815 271.593 11.0495 273.201 11.9855C274.809 12.9215 276.057 14.2175 276.945 15.8735C277.857 17.5055 278.313 19.3415 278.313 21.3815C278.313 23.4215 277.857 25.2695 276.945 26.9255C276.057 28.5575 274.809 29.8415 273.201 30.7775C271.593 31.7135 269.793 32.1815 267.801 32.1815C265.785 32.1815 263.973 31.7135 262.365 30.7775C260.781 29.8415 259.533 28.5575 258.621 26.9255C257.709 25.2695 257.253 23.4215 257.253 21.3815C257.253 19.3415 257.709 17.5055 258.621 15.8735C259.533 14.2175 260.781 12.9215 262.365 11.9855C263.973 11.0495 265.785 10.5815 267.801 10.5815ZM267.801 13.8575C266.457 13.8575 265.257 14.1935 264.201 14.8655C263.169 15.5135 262.353 16.4135 261.753 17.5655C261.177 18.6935 260.889 19.9655 260.889 21.3815C260.889 22.7975 261.177 24.0815 261.753 25.2335C262.353 26.3615 263.169 27.2615 264.201 27.9335C265.257 28.5815 266.457 28.9055 267.801 28.9055C269.121 28.9055 270.309 28.5815 271.365 27.9335C272.421 27.2615 273.237 26.3615 273.813 25.2335C274.389 24.0815 274.677 22.7975 274.677 21.3815C274.677 19.9655 274.389 18.6935 273.813 17.5655C273.237 16.4135 272.421 15.5135 271.365 14.8655C270.309 14.1935 269.121 13.8575 267.801 13.8575ZM286.756 11.0855V14.2175C287.284 13.2815 288.148 12.4415 289.348 11.6975C290.572 10.9535 292.036 10.5815 293.74 10.5815C295.348 10.5815 296.776 10.9535 298.024 11.6975C299.296 12.4415 300.28 13.4975 300.976 14.8655C301.672 16.2095 302.02 17.7935 302.02 19.6175V31.6775H298.312V20.2655C298.312 18.2015 297.832 16.6175 296.872 15.5135C295.936 14.3855 294.628 13.8215 292.948 13.8215C291.772 13.8215 290.716 14.1575 289.78 14.8295C288.844 15.4775 288.1 16.3535 287.548 17.4575C287.02 18.5615 286.756 19.7495 286.756 21.0215V31.6775H283.048V11.0855H286.756ZM315.37 10.5815C317.026 10.5815 318.526 10.8455 319.87 11.3735C321.214 11.8775 322.282 12.5855 323.074 13.4975C323.89 14.3855 324.322 15.4055 324.37 16.5575H320.734C320.662 15.6935 320.11 14.9855 319.078 14.4335C318.046 13.8815 316.774 13.6055 315.262 13.6055C313.774 13.6055 312.538 13.8695 311.554 14.3975C310.594 14.9255 310.114 15.5735 310.114 16.3415C310.114 17.2295 310.558 17.9375 311.446 18.4655C312.358 18.9935 314.026 19.4255 316.45 19.7615C319.45 20.1695 321.598 20.8655 322.894 21.8495C324.19 22.8335 324.838 24.1535 324.838 25.8095C324.838 27.1055 324.418 28.2335 323.578 29.1935C322.762 30.1535 321.646 30.8855 320.23 31.3895C318.814 31.9175 317.242 32.1815 315.514 32.1815C313.714 32.1815 312.13 31.9055 310.762 31.3535C309.394 30.8255 308.314 30.0815 307.522 29.1215C306.754 28.1855 306.322 27.1175 306.226 25.9175H309.862C309.982 26.8055 310.534 27.5735 311.518 28.2215C312.526 28.8455 313.894 29.1575 315.622 29.1575C317.23 29.1575 318.562 28.8695 319.618 28.2935C320.674 27.6935 321.202 26.9375 321.202 26.0255C321.202 25.1615 320.71 24.4775 319.726 23.9735C318.766 23.4455 317.086 23.0255 314.686 22.7135C311.854 22.3295 309.778 21.6575 308.458 20.6975C307.138 19.7135 306.478 18.3335 306.478 16.5575C306.478 15.3815 306.862 14.3375 307.63 13.4255C308.422 12.5135 309.49 11.8175 310.834 11.3375C312.178 10.8335 313.69 10.5815 315.37 10.5815ZM331.36 1.58145C332.08 1.58145 332.668 1.82145 333.124 2.30145C333.604 2.75745 333.844 3.33345 333.844 4.02945C333.844 4.72545 333.604 5.31345 333.124 5.79345C332.668 6.24945 332.08 6.47745 331.36 6.47745C330.664 6.47745 330.076 6.24945 329.596 5.79345C329.14 5.31345 328.912 4.72545 328.912 4.02945C328.912 3.33345 329.14 2.75745 329.596 2.30145C330.076 1.82145 330.664 1.58145 331.36 1.58145ZM329.524 31.7135V11.0855H333.232V31.7135H329.524ZM348.16 32.1815C346.24 32.1815 344.5 31.7135 342.94 30.7775C341.404 29.8415 340.192 28.5455 339.304 26.8895C338.416 25.2335 337.972 23.3975 337.972 21.3815C337.972 19.3655 338.416 17.5295 339.304 15.8735C340.192 14.2175 341.404 12.9215 342.94 11.9855C344.5 11.0495 346.24 10.5815 348.16 10.5815C349.912 10.5815 351.424 10.9295 352.696 11.6255C353.968 12.3215 354.892 13.1615 355.468 14.1455V1.94145H359.176V31.6775H355.468V28.6175C354.892 29.6015 353.968 30.4415 352.696 31.1375C351.424 31.8335 349.912 32.1815 348.16 32.1815ZM348.484 28.9055C349.852 28.9055 351.064 28.5815 352.12 27.9335C353.2 27.2615 354.04 26.3615 354.64 25.2335C355.24 24.0815 355.54 22.7975 355.54 21.3815C355.54 19.9655 355.24 18.6935 354.64 17.5655C354.04 16.4135 353.2 15.5135 352.12 14.8655C351.064 14.1935 349.852 13.8575 348.484 13.8575C347.14 13.8575 345.94 14.1815 344.884 14.8295C343.852 15.4775 343.048 16.3775 342.472 17.5295C341.896 18.6815 341.608 19.9655 341.608 21.3815C341.608 22.7975 341.896 24.0815 342.472 25.2335C343.048 26.3855 343.852 27.2855 344.884 27.9335C345.94 28.5815 347.14 28.9055 348.484 28.9055ZM374.249 32.1815C372.281 32.1815 370.505 31.7135 368.921 30.7775C367.361 29.8415 366.137 28.5575 365.249 26.9255C364.361 25.2695 363.917 23.4215 363.917 21.3815C363.917 19.3415 364.361 17.5055 365.249 15.8735C366.137 14.2175 367.361 12.9215 368.921 11.9855C370.505 11.0495 372.281 10.5815 374.249 10.5815C376.217 10.5815 377.981 11.0495 379.541 11.9855C381.125 12.9215 382.349 14.2175 383.213 15.8735C384.101 17.5055 384.545 19.3415 384.545 21.3815C384.545 22.0535 384.521 22.5575 384.473 22.8935H367.625C367.817 24.6935 368.513 26.1695 369.713 27.3215C370.937 28.4735 372.449 29.0495 374.249 29.0495C375.617 29.0495 376.817 28.7735 377.849 28.2215C378.905 27.6455 379.625 26.9255 380.009 26.0615H383.789C383.213 27.8615 382.061 29.3255 380.333 30.4535C378.605 31.6055 376.577 32.1815 374.249 32.1815ZM380.909 19.8695C380.693 18.0455 379.985 16.5695 378.785 15.4415C377.585 14.2895 376.073 13.7135 374.249 13.7135C372.425 13.7135 370.913 14.2895 369.713 15.4415C368.513 16.5695 367.817 18.0455 367.625 19.8695H380.909ZM392.963 11.0855V14.2535C393.515 13.3175 394.427 12.4775 395.699 11.7335C396.995 10.9655 398.555 10.5815 400.379 10.5815C401.555 10.5815 402.491 10.7015 403.187 10.9415V14.4695C402.347 14.0855 401.327 13.8935 400.127 13.8935C398.759 13.8935 397.523 14.2295 396.419 14.9015C395.339 15.5495 394.487 16.4255 393.863 17.5295C393.263 18.6095 392.963 19.7735 392.963 21.0215V31.6775H389.255V11.0855H392.963ZM414.886 32.1815C412.966 32.1815 411.226 31.7135 409.666 30.7775C408.13 29.8415 406.918 28.5455 406.03 26.8895C405.142 25.2335 404.698 23.3975 404.698 21.3815C404.698 19.3655 405.142 17.5295 406.03 15.8735C406.918 14.2175 408.13 12.9215 409.666 11.9855C411.226 11.0495 412.966 10.5815 414.886 10.5815C416.638 10.5815 418.15 10.9295 419.422 11.6255C420.694 12.3215 421.618 13.1615 422.194 14.1455V11.0855H425.902V31.6775H422.194V28.6175C421.618 29.6015 420.694 30.4415 419.422 31.1375C418.15 31.8335 416.638 32.1815 414.886 32.1815ZM415.21 28.9055C416.578 28.9055 417.79 28.5815 418.846 27.9335C419.926 27.2615 420.766 26.3615 421.366 25.2335C421.966 24.0815 422.266 22.7975 422.266 21.3815C422.266 19.9655 421.966 18.6935 421.366 17.5655C420.766 16.4135 419.926 15.5135 418.846 14.8655C417.79 14.1935 416.578 13.8575 415.21 13.8575C413.866 13.8575 412.666 14.1815 411.61 14.8295C410.578 15.4775 409.774 16.3775 409.198 17.5295C408.622 18.6815 408.334 19.9655 408.334 21.3815C408.334 22.7975 408.622 24.0815 409.198 25.2335C409.774 26.3855 410.578 27.2855 411.61 27.9335C412.666 28.5815 413.866 28.9055 415.21 28.9055ZM442.524 14.3615H437.952V31.6775H434.244V14.3615H429.672V11.0855H434.244V4.82145H437.952V11.0855H442.524V14.3615ZM448.185 1.58145C448.905 1.58145 449.493 1.82145 449.949 2.30145C450.429 2.75745 450.669 3.33345 450.669 4.02945C450.669 4.72545 450.429 5.31345 449.949 5.79345C449.493 6.24945 448.905 6.47745 448.185 6.47745C447.489 6.47745 446.901 6.24945 446.421 5.79345C445.965 5.31345 445.737 4.72545 445.737 4.02945C445.737 3.33345 445.965 2.75745 446.421 2.30145C446.901 1.82145 447.489 1.58145 448.185 1.58145ZM446.349 31.7135V11.0855H450.057V31.7135H446.349ZM465.344 10.5815C467.336 10.5815 469.136 11.0495 470.744 11.9855C472.352 12.9215 473.6 14.2175 474.488 15.8735C475.4 17.5055 475.856 19.3415 475.856 21.3815C475.856 23.4215 475.4 25.2695 474.488 26.9255C473.6 28.5575 472.352 29.8415 470.744 30.7775C469.136 31.7135 467.336 32.1815 465.344 32.1815C463.328 32.1815 461.516 31.7135 459.908 30.7775C458.324 29.8415 457.076 28.5575 456.164 26.9255C455.252 25.2695 454.796 23.4215 454.796 21.3815C454.796 19.3415 455.252 17.5055 456.164 15.8735C457.076 14.2175 458.324 12.9215 459.908 11.9855C461.516 11.0495 463.328 10.5815 465.344 10.5815ZM465.344 13.8575C464 13.8575 462.8 14.1935 461.744 14.8655C460.712 15.5135 459.896 16.4135 459.296 17.5655C458.72 18.6935 458.432 19.9655 458.432 21.3815C458.432 22.7975 458.72 24.0815 459.296 25.2335C459.896 26.3615 460.712 27.2615 461.744 27.9335C462.8 28.5815 464 28.9055 465.344 28.9055C466.664 28.9055 467.852 28.5815 468.908 27.9335C469.964 27.2615 470.78 26.3615 471.356 25.2335C471.932 24.0815 472.22 22.7975 472.22 21.3815C472.22 19.9655 471.932 18.6935 471.356 17.5655C470.78 16.4135 469.964 15.5135 468.908 14.8655C467.852 14.1935 466.664 13.8575 465.344 13.8575ZM484.299 11.0855V14.2175C484.827 13.2815 485.691 12.4415 486.891 11.6975C488.115 10.9535 489.579 10.5815 491.283 10.5815C492.891 10.5815 494.319 10.9535 495.567 11.6975C496.839 12.4415 497.823 13.4975 498.519 14.8655C499.215 16.2095 499.563 17.7935 499.563 19.6175V31.6775H495.855V20.2655C495.855 18.2015 495.375 16.6175 494.415 15.5135C493.479 14.3855 492.171 13.8215 490.491 13.8215C489.315 13.8215 488.259 14.1575 487.323 14.8295C486.387 15.4775 485.643 16.3535 485.091 17.4575C484.563 18.5615 484.299 19.7495 484.299 21.0215V31.6775H480.591V11.0855H484.299ZM502.725 33.0815C504.909 30.8735 506.613 28.4135 507.837 25.7015C509.085 22.9655 509.709 20.0735 509.709 17.0255C509.709 13.9775 509.085 11.0975 507.837 8.38545C506.613 5.64945 504.909 3.17745 502.725 0.969452H506.685C511.149 5.74545 513.381 11.0975 513.381 17.0255C513.381 22.9535 511.149 28.3055 506.685 33.0815H502.725ZM539.506 19.4735H526.906V16.2335H539.506V19.4735ZM559.905 2.70898C564.054 2.67383 566.761 6.96289 566.761 13.7832C566.761 20.6035 564.054 24.9277 559.905 24.8926C555.792 24.9277 553.12 20.6035 553.12 13.7832C553.12 6.96289 555.792 2.67383 559.905 2.70898ZM559.905 5.83789C557.62 5.83789 556.214 8.75586 556.214 13.7832C556.214 18.8105 557.62 21.7285 559.905 21.7285C562.226 21.7285 563.667 18.8105 563.667 13.7832C563.667 8.75586 562.226 5.83789 559.905 5.83789ZM579.874 0.177734V31.6777H576.675V15.2598H572.772V30.1309H569.608V0.775391H572.772V12.5176H576.675V0.177734H579.874ZM610.144 0.177734V18.916H606.804V10.9355H600.933V8.19336H606.804V0.177734H610.144ZM599.597 19.7949C606.206 19.7949 610.249 21.9746 610.249 25.7363C610.249 29.498 606.206 31.6426 599.597 31.6777C592.987 31.6426 588.909 29.498 588.944 25.7363C588.909 21.9746 592.987 19.7949 599.597 19.7949ZM599.597 22.3965C594.991 22.3965 592.249 23.5918 592.249 25.7363C592.249 27.8457 594.991 29.0762 599.597 29.041C604.202 29.0762 606.944 27.8457 606.944 25.7363C606.944 23.5918 604.202 22.3965 599.597 22.3965ZM595.167 5.73242C595.167 9.74023 598.015 13.6074 602.761 15.2246L601.038 17.8613C597.505 16.6309 594.903 14.1172 593.55 11.0059C592.161 14.5391 589.401 17.3691 585.64 18.7402L583.882 16.0684C588.769 14.3809 591.757 10.127 591.757 5.76758V5.06445H584.937V2.35742H601.917V5.06445H595.167V5.73242ZM632.538 3.55273V5.48633C632.538 8.12305 632.538 12.2012 631.624 17.8262L628.319 17.5801C629.11 12.5352 629.198 8.89648 629.233 6.25977H616.437V3.55273H632.538ZM624.452 12.5527V21.9746C627.81 21.8691 631.22 21.6406 634.366 21.2363L634.542 23.7324C627.968 24.7871 620.655 24.9277 615.065 24.8926L614.679 22.1855C616.647 22.168 618.845 22.1504 621.147 22.0801V12.5527H624.452ZM639.534 0.177734V13.1855H644.351V16.0332H639.534V31.6777H636.159V0.177734H639.534ZM659.116 3.0957V10.6191H665.128V3.0957H668.222V23.9082H655.952V3.0957H659.116ZM659.116 21.2012H665.128V13.2559H659.116V21.2012ZM682.003 0.177734V31.6777H678.804V15.2598H674.901V30.1309H671.737V0.775391H674.901V12.5176H678.804V0.177734H682.003ZM712.237 0.177734V31.748H708.933V18.5645H702.78V15.7871H708.933V9.95117H702.956V7.20898H708.933V0.177734H712.237ZM701.058 2.95508V14.4512H690.511V21.6934C694.976 21.6758 698.702 21.4648 703.202 20.8145L703.483 23.5566C698.562 24.3301 694.554 24.4707 689.562 24.4707H687.171V11.8145H697.788V5.66211H687.101V2.95508H701.058Z" fill="#595B5A"/>
</svg>
