<svg width="288" height="114" viewBox="0 0 288 114" fill="none" xmlns="http://www.w3.org/2000/svg">
<path d="M9.85156 0.524902V0.969238C9.85156 1.6167 9.85156 2.74658 9.52148 4.24463L8.55664 4.11768C8.81689 2.86719 8.86133 1.97852 8.87402 1.3501H6.01758V0.524902H9.85156ZM11.0195 4.93018V5.75537H0.749023V4.93018H5.61133V2.9751H6.60156V4.93018H11.0195ZM5.07812 0.524902V0.943848C5.07812 1.57861 5.07812 2.72119 4.55762 4.24463L3.58008 4.07959C3.99902 2.8418 4.08154 1.96582 4.10059 1.3501H1.6377V0.524902H5.07812ZM9.66113 7.31689V8.1167H6.37305C6.50635 9.30371 8.26465 10.3003 10.1309 10.5415L9.7627 11.3032C8.08691 11.0557 6.53174 10.2812 5.86523 9.15771C5.19873 10.2749 3.6499 11.0557 1.98047 11.3032L1.625 10.5415C3.46582 10.3003 5.21143 9.30371 5.35742 8.1167H2.06934V7.31689H5.37012V6.14893H6.36035V7.31689H9.66113ZM21.2773 0.0932617V6.36475H20.2998V0.0932617H21.2773ZM21.3662 7.01221V7.8374H19.8047V10.4019H21.4805V11.2144H13.6729V10.4019H15.3613V7.8374H13.7744V7.01221H21.3662ZM15.1963 0.702637C16.9102 0.702637 18.1543 1.76904 18.1543 3.33057C18.1543 4.87939 16.9102 5.9458 15.1963 5.9458C13.4824 5.9458 12.2383 4.87939 12.2383 3.33057C12.2383 1.76904 13.4824 0.702637 15.1963 0.702637ZM15.1963 1.54053C14.041 1.54053 13.2031 2.28955 13.2158 3.33057C13.2031 4.37158 14.041 5.10791 15.1963 5.10791C16.3389 5.10791 17.1768 4.37158 17.1768 3.33057C17.1768 2.28955 16.3389 1.54053 15.1963 1.54053ZM16.3389 10.4019H18.8145V7.8374H16.3389V10.4019ZM30.2529 3.11475C30.2529 5.10791 31.5732 7.15186 33.1729 7.93896L32.5635 8.73877C31.3193 8.08496 30.2783 6.75195 29.7832 5.18408C29.2754 6.85352 28.209 8.27539 26.9395 8.95459L26.3047 8.15479C27.9551 7.34229 29.2627 5.17139 29.2754 3.11475V1.05811H30.2529V3.11475ZM35.2041 0.0805664V4.66357H37.0957V5.52686H35.2041V11.3667H34.2139V0.0805664H35.2041ZM47.0107 0.0805664V11.3921H46.0078V0.0805664H47.0107ZM41.0059 0.956543C42.6816 0.969238 43.8877 2.49268 43.8877 4.89209C43.8877 7.2915 42.6816 8.81494 41.0059 8.81494C39.3174 8.81494 38.124 7.2915 38.124 4.89209C38.124 2.49268 39.3174 0.969238 41.0059 0.956543ZM41.0059 1.84521C39.876 1.85791 39.0889 3.05127 39.0889 4.89209C39.0889 6.73291 39.876 7.92627 41.0059 7.92627C42.1357 7.92627 42.9229 6.73291 42.9229 4.89209C42.9229 3.05127 42.1357 1.85791 41.0059 1.84521ZM59.2744 9.13232V9.97021H48.9404V9.13232H53.5869V6.99951H50.2354V3.521H56.9893V1.74365H50.21V0.918457H57.9668V4.3335H51.2256V6.17432H58.2334V6.99951H54.5645V9.13232H59.2744ZM66.8154 3.26709C66.8154 5.12061 67.7168 7.0376 69.2148 7.8501L68.6182 8.63721C67.5264 8.00879 66.7456 6.85986 66.3457 5.50146C65.9204 6.98047 65.0825 8.24365 63.959 8.9165L63.3115 8.18018C64.8857 7.27881 65.8506 5.26025 65.8506 3.33057V1.14697H66.8154V3.26709ZM73.1123 0.0805664V11.3667H72.1475V5.45068H70.5986V10.7954H69.6338V0.321777H70.5986V4.62549H72.1475V0.0805664H73.1123ZM77.708 0.956543C79.2441 0.969238 80.3486 2.2832 80.5137 4.39697H83.04V0.0805664H84.0303V11.3921H83.04V5.22217H80.5264C80.4058 7.43115 79.2822 8.81494 77.708 8.81494C76.0449 8.81494 74.877 7.2915 74.877 4.89209C74.877 2.49268 76.0449 0.969238 77.708 0.956543ZM77.708 1.84521C76.5908 1.85791 75.8291 3.05127 75.8291 4.89209C75.8291 6.73291 76.5908 7.92627 77.708 7.92627C78.8125 7.92627 79.5869 6.73291 79.5869 4.89209C79.5869 3.05127 78.8125 1.85791 77.708 1.84521ZM99.7344 4.5874V5.42529H97.9062V11.3667H96.916V0.0805664H97.9062V4.5874H99.7344ZM90.6318 1.19775V7.65967C92.2822 7.65332 93.9644 7.52637 95.8242 7.13916L95.9512 7.98975C94.0088 8.3833 92.2568 8.49756 90.543 8.49756H89.6416V1.19775H90.6318ZM105.549 0.816895C107.948 0.82959 109.675 1.99756 109.675 3.7749C109.675 5.45703 108.177 6.57422 106.031 6.70752V9.08154H110.741V9.91943H100.407V9.08154H105.054V6.70752C102.915 6.56787 101.423 5.45068 101.423 3.7749C101.423 1.99756 103.149 0.82959 105.549 0.816895ZM105.549 1.64209C103.721 1.64209 102.388 2.50537 102.388 3.7749C102.388 5.08252 103.721 5.92041 105.549 5.93311C107.377 5.92041 108.71 5.08252 108.71 3.7749C108.71 2.50537 107.377 1.64209 105.549 1.64209ZM120.771 3.5083V4.30811H113.039V0.499512H114.029V3.5083H120.771ZM121.964 5.84424V6.65674H111.63V5.84424H121.964ZM120.834 10.2622V11.0874H112.976V7.81201H113.966V10.2622H120.834ZM129.962 2.17529C129.962 3.67334 131.066 5.04443 132.742 5.62842L132.234 6.40283C130.946 5.9458 129.962 5.01904 129.479 3.85107C128.997 5.1333 127.962 6.12988 126.636 6.61865L126.103 5.84424C127.791 5.24756 128.972 3.7876 128.984 2.17529V1.69287H126.407V0.880371H132.501V1.69287H129.962V2.17529ZM134.964 0.0805664V3.06396H136.665V3.91455H134.964V6.88525H133.974V0.0805664H134.964ZM134.964 7.48193V11.3667H133.974V8.29443H127.575V7.48193H134.964ZM147.659 6.03467V6.84717H137.376V6.03467H147.659ZM146.517 10.2876V11.1255H138.709V7.8374H139.712V10.2876H146.517ZM142.518 0.486816C144.942 0.474121 146.504 1.31201 146.504 2.72119C146.504 4.13037 144.942 4.96826 142.518 4.96826C140.067 4.96826 138.519 4.13037 138.519 2.72119C138.519 1.31201 140.067 0.474121 142.518 0.486816ZM142.518 1.28662C140.702 1.28662 139.534 1.83252 139.547 2.72119C139.534 3.60986 140.702 4.15576 142.518 4.15576C144.32 4.15576 145.488 3.60986 145.488 2.72119C145.488 1.83252 144.32 1.28662 142.518 1.28662ZM161.18 0.0805664V6.64404H160.202V0.0805664H161.18ZM161.472 7.44385V8.23096H158.12C158.177 9.30371 159.955 10.3574 161.865 10.5923L161.497 11.3667C159.809 11.1255 158.266 10.332 157.6 9.28467C156.927 10.3574 155.34 11.1382 153.639 11.3667L153.283 10.605C155.194 10.3955 157.035 9.3418 157.092 8.23096H153.753V7.44385H157.104V6.35205H158.095V7.44385H161.472ZM153.461 0.562988V2.31494H156.787V0.562988H157.777V5.60303H152.471V0.562988H153.461ZM153.461 4.80322H156.787V3.08936H153.461V4.80322ZM173.393 6.03467V6.84717H163.109V6.03467H173.393ZM172.25 10.2876V11.1255H164.442V7.8374H165.445V10.2876H172.25ZM168.251 0.486816C170.676 0.474121 172.237 1.31201 172.237 2.72119C172.237 4.13037 170.676 4.96826 168.251 4.96826C165.801 4.96826 164.252 4.13037 164.252 2.72119C164.252 1.31201 165.801 0.474121 168.251 0.486816ZM168.251 1.28662C166.436 1.28662 165.268 1.83252 165.28 2.72119C165.268 3.60986 166.436 4.15576 168.251 4.15576C170.054 4.15576 171.222 3.60986 171.222 2.72119C171.222 1.83252 170.054 1.28662 168.251 1.28662ZM181.378 1.90869C181.378 3.44482 182.546 4.854 184.184 5.4126L183.638 6.19971C182.387 5.74268 181.403 4.80957 180.908 3.63525C180.426 4.96191 179.423 6.00928 178.103 6.51709L177.569 5.71729C179.258 5.08252 180.388 3.57178 180.4 1.83252V0.664551H181.378V1.90869ZM186.431 0.0805664V3.02588H188.132V3.86377H186.431V6.94873H185.44V0.0805664H186.431ZM182.812 7.24072C185.136 7.24072 186.532 7.98975 186.532 9.28467C186.532 10.605 185.136 11.3413 182.812 11.3413C180.489 11.3413 179.067 10.605 179.067 9.28467C179.067 7.98975 180.489 7.24072 182.812 7.24072ZM182.812 8.04053C181.111 8.04053 180.058 8.51025 180.07 9.28467C180.058 10.0845 181.111 10.5415 182.812 10.5542C184.526 10.5415 185.567 10.0845 185.567 9.28467C185.567 8.51025 184.526 8.04053 182.812 8.04053ZM198.491 0.0805664V11.3667H197.539V5.45068H195.876V10.7827H194.962V0.334473H195.876V4.62549H197.539V0.0805664H198.491ZM193.489 1.46436V2.28955H190.252V7.72314C191.807 7.7168 192.886 7.65967 194.137 7.40576L194.226 8.24365C192.867 8.52295 191.712 8.57373 189.985 8.57373H189.262V1.46436H193.489ZM210.399 5.32373V6.11084H200.065V5.32373H210.399ZM209.104 7.01221V9.41162H202.325V10.4907H209.473V11.2144H201.322V8.72607H208.114V7.76123H201.31V7.01221H209.104ZM209.066 0.42334V2.75928H202.401V3.74951H209.27V4.47314H201.411V2.07373H208.063V1.14697H201.373V0.42334H209.066ZM225.075 2.06104V2.88623H223.399V4.44775H225.075V5.28564H223.399V7.36768H222.409V0.0805664H223.399V2.06104H225.075ZM219.832 7.44385C222.13 7.44385 223.526 8.16748 223.526 9.39893C223.526 10.6304 222.13 11.3413 219.832 11.3413C217.534 11.3413 216.125 10.6304 216.138 9.39893C216.125 8.16748 217.534 7.44385 219.832 7.44385ZM219.832 8.23096C218.144 8.23096 217.115 8.6499 217.128 9.39893C217.115 10.1353 218.144 10.5669 219.832 10.5669C221.521 10.5669 222.536 10.1353 222.536 9.39893C222.536 8.6499 221.521 8.23096 219.832 8.23096ZM221.33 1.37549V2.1626H214.602V1.37549H217.471V-0.00830078H218.461V1.37549H221.33ZM217.966 2.74658C219.591 2.74658 220.67 3.53369 220.683 4.73975C220.67 5.9585 219.591 6.73291 217.966 6.73291C216.328 6.73291 215.236 5.9585 215.249 4.73975C215.236 3.53369 216.328 2.74658 217.966 2.74658ZM217.966 3.49561C216.899 3.5083 216.188 4.00342 216.201 4.73975C216.188 5.47607 216.899 5.9585 217.966 5.9585C219.02 5.9585 219.73 5.47607 219.743 4.73975C219.73 4.00342 219.02 3.5083 217.966 3.49561ZM234.635 0.0932617V3.81299H236.336V4.65088H234.635V8.54834H233.645V0.0932617H234.635ZM232.565 1.47705V2.28955H225.837V1.47705H228.706V0.0932617H229.696V1.47705H232.565ZM229.201 2.91162C230.813 2.91162 231.905 3.73682 231.918 5.01904C231.905 6.28857 230.813 7.10107 229.201 7.10107C227.576 7.10107 226.472 6.28857 226.484 5.01904C226.472 3.73682 227.576 2.91162 229.201 2.91162ZM229.201 3.69873C228.135 3.69873 227.424 4.21924 227.437 5.01904C227.424 5.81885 228.135 6.32666 229.201 6.31396C230.255 6.32666 230.966 5.81885 230.979 5.01904C230.966 4.21924 230.255 3.69873 229.201 3.69873ZM235.155 10.2876V11.1255H227.576V7.87549H228.554V10.2876H235.155ZM242.874 1.03271C244.347 1.03271 245.299 2.55615 245.312 4.95557C245.299 7.35498 244.347 8.87842 242.874 8.87842C241.401 8.87842 240.449 7.35498 240.449 4.95557C240.449 2.55615 241.401 1.03271 242.874 1.03271ZM242.874 1.97217C241.96 1.97217 241.376 3.11475 241.389 4.95557C241.376 6.78369 241.96 7.93896 242.874 7.92627C243.788 7.93896 244.372 6.78369 244.372 4.95557C244.372 3.11475 243.788 1.97217 242.874 1.97217ZM249.983 0.0805664V11.3667H249.019V5.38721H247.444V10.7954H246.492V0.321777H247.444V4.56201H249.019V0.0805664H249.983ZM260.901 0.0805664V6.80908H259.898V3.85107H257.626V3.02588H259.898V0.0805664H260.901ZM257.156 7.16455C259.505 7.16455 260.939 7.92627 260.939 9.25928C260.939 10.5923 259.505 11.354 257.156 11.3667C254.808 11.354 253.373 10.5923 253.373 9.25928C253.373 7.92627 254.808 7.16455 257.156 7.16455ZM257.156 7.93896C255.43 7.93896 254.351 8.43408 254.363 9.25928C254.351 10.0718 255.43 10.5669 257.156 10.5669C258.883 10.5669 259.949 10.0718 259.949 9.25928C259.949 8.43408 258.883 7.93896 257.156 7.93896ZM255.468 2.1499C255.468 3.62256 256.598 5.01904 258.248 5.59033L257.728 6.39014C256.458 5.93311 255.474 4.9873 254.998 3.81299C254.503 5.13965 253.456 6.19971 252.116 6.70752L251.596 5.90771C253.271 5.29834 254.465 3.7749 254.465 2.1626V1.74365H251.913V0.905762H257.994V1.74365H255.468V2.1499ZM272.086 0.0805664V11.3921H271.083V0.0805664H272.086ZM266.081 0.956543C267.757 0.969238 268.963 2.49268 268.963 4.89209C268.963 7.2915 267.757 8.81494 266.081 8.81494C264.393 8.81494 263.199 7.2915 263.199 4.89209C263.199 2.49268 264.393 0.969238 266.081 0.956543ZM266.081 1.84521C264.951 1.85791 264.164 3.05127 264.164 4.89209C264.164 6.73291 264.951 7.92627 266.081 7.92627C267.211 7.92627 267.998 6.73291 267.998 4.89209C267.998 3.05127 267.211 1.85791 266.081 1.84521ZM283.067 1.22314V2.35303C283.055 3.73682 283.055 5.28564 282.648 7.55811L281.633 7.44385C282.064 5.28564 282.064 3.69873 282.064 2.35303V2.04834H275.107V1.22314H283.067ZM284.299 8.94189V9.76709H274.016V8.94189H278.053V4.90479H279.03V8.94189H284.299ZM287.104 9.48779L286.114 12.9409H285.175L285.873 9.48779H287.104ZM9.55957 17.0806V19.5308H11.2607V20.3687H9.55957V22.8315H8.56934V17.0806H9.55957ZM6.43652 17.728V22.2349H1.21875V17.728H6.43652ZM2.19629 18.5405V21.4351H5.47168V18.5405H2.19629ZM9.55957 23.3647V26.1196H3.36426V27.4146H9.97852V28.2144H2.38672V25.3579H8.56934V24.1646H2.36133V23.3647H9.55957ZM14.2188 23.7075V25.1167H16.2754V23.7075H17.2021V28.2144H13.2793V23.7075H14.2188ZM14.2188 27.4272H16.2754V25.8784H14.2188V27.4272ZM20.4268 24.5962C20.4141 25.7896 21.125 27.0337 22.5088 27.5415L21.9883 28.3032C20.9473 27.8843 20.2617 27.0908 19.9189 26.145C19.5571 27.0718 18.8716 27.8716 17.875 28.3032L17.3545 27.5415C18.7129 26.9829 19.4365 25.7388 19.4365 24.5962V23.6313H20.4268V24.5962ZM15.082 17.5884C16.5928 17.5884 17.748 18.4453 17.9639 19.7466H20.3252V17.0806H21.3281V23.0601H20.3252V20.5718H17.9766C17.7734 21.9048 16.6118 22.7808 15.082 22.7808C13.3682 22.7808 12.1494 21.7271 12.1494 20.1782C12.1494 18.6421 13.3682 17.5884 15.082 17.5884ZM15.082 18.4263C13.9268 18.4263 13.1016 19.1499 13.1016 20.1782C13.1016 21.2192 13.9268 21.9556 15.082 21.9556C16.2246 21.9556 17.0371 21.2192 17.0371 20.1782C17.0371 19.1499 16.2246 18.4263 15.082 18.4263ZM32.5127 17.0806V28.3921H31.5098V17.0806H32.5127ZM26.5078 17.9565C28.1836 17.9692 29.3896 19.4927 29.3896 21.8921C29.3896 24.2915 28.1836 25.8149 26.5078 25.8149C24.8193 25.8149 23.626 24.2915 23.626 21.8921C23.626 19.4927 24.8193 17.9692 26.5078 17.9565ZM26.5078 18.8452C25.3779 18.8579 24.5908 20.0513 24.5908 21.8921C24.5908 23.7329 25.3779 24.9263 26.5078 24.9263C27.6377 24.9263 28.4248 23.7329 28.4248 21.8921C28.4248 20.0513 27.6377 18.8579 26.5078 18.8452ZM47.0615 17.0933V25.4341H46.0586V21.4097H43.5576V20.5718H46.0586V17.0933H47.0615ZM43.6084 17.9565C43.5957 20.8511 41.5264 23.0601 38.3145 24.1138L37.8828 23.314C40.4854 22.457 42.2944 20.8384 42.5166 18.7944H38.4541V17.9565H43.6084ZM47.3535 27.2876V28.1255H39.876V24.5835H40.8916V27.2876H47.3535ZM50.4893 18.312V24.6343C51.708 24.6216 52.8633 24.5518 54.2217 24.2661L54.3613 25.1294C52.8506 25.4468 51.5938 25.5103 50.21 25.5103H49.499V18.312H50.4893ZM58.6016 17.0806V28.3667H57.6494V17.0806H58.6016ZM56.1895 17.3599V27.7954H55.2373V21.7144H52.6602V20.8892H55.2373V17.3599H56.1895ZM69.3037 20.5083V21.3081H61.5723V17.4995H62.5625V20.5083H69.3037ZM70.4971 22.8442V23.6567H60.1631V22.8442H70.4971ZM69.3672 27.2622V28.0874H61.5088V24.812H62.499V27.2622H69.3672ZM76.0449 18.1597V20.9146H78.4951V18.1597H79.4219V25.5483H75.0928V18.1597H76.0449ZM76.0449 24.7231H78.4951V21.7271H76.0449V24.7231ZM84.3477 17.0806V28.3667H83.3828V22.3872H81.8086V27.7954H80.8564V17.3218H81.8086V21.562H83.3828V17.0806H84.3477ZM95.2529 17.0806V28.3921H94.2627V23.5806H91.9141V22.7427H94.2627V20.4956H92.0029V19.6577H94.2627V17.0806H95.2529ZM91.2666 18.1089V22.1206H87.3311V24.9009C89.0259 24.8945 90.4287 24.8311 92.1426 24.5708L92.2314 25.4087C90.4287 25.688 88.9814 25.7515 87.1787 25.7515H86.3408V21.3081H90.2891V18.9341H86.3027V18.1089H91.2666ZM105.879 17.0806V21.5493H107.771V22.3872H105.879V28.3921H104.889V17.0806H105.879ZM102.908 18.1851V19.0103H98.6299V24.7231C100.674 24.7231 102.121 24.6279 103.797 24.3169L103.924 25.1802C102.159 25.4976 100.674 25.561 98.5283 25.561H97.6396V18.1851H102.908ZM109.573 27.4146C109.129 27.4146 108.748 27.0464 108.761 26.5894C108.748 26.145 109.129 25.7769 109.573 25.7769C110.018 25.7769 110.386 26.145 110.386 26.5894C110.386 27.0464 110.018 27.4146 109.573 27.4146ZM9.63574 35.2866V36.4165C9.63574 37.8384 9.63574 39.4507 9.2168 41.9009L8.20117 41.7993C8.6582 39.4888 8.6582 37.8003 8.6582 36.4165V36.1118H1.85352V35.2866H9.63574ZM11.0195 42.8784V43.7036H0.736328V42.8784H11.0195ZM24.54 34.0806V40.644H23.5625V34.0806H24.54ZM24.832 41.4438V42.231H21.4805C21.5376 43.3037 23.3149 44.3574 25.2256 44.5923L24.8574 45.3667C23.1689 45.1255 21.6265 44.332 20.96 43.2847C20.2871 44.3574 18.7002 45.1382 16.999 45.3667L16.6436 44.605C18.5542 44.3955 20.395 43.3418 20.4521 42.231H17.1133V41.4438H20.4648V40.3521H21.4551V41.4438H24.832ZM16.8213 34.563V36.3149H20.1475V34.563H21.1377V39.603H15.8311V34.563H16.8213ZM16.8213 38.8032H20.1475V37.0894H16.8213V38.8032ZM36.7529 40.0347V40.8472H26.4697V40.0347H36.7529ZM35.6104 44.2876V45.1255H27.8027V41.8374H28.8057V44.2876H35.6104ZM31.6113 34.4868C34.0361 34.4741 35.5977 35.312 35.5977 36.7212C35.5977 38.1304 34.0361 38.9683 31.6113 38.9683C29.1611 38.9683 27.6123 38.1304 27.6123 36.7212C27.6123 35.312 29.1611 34.4741 31.6113 34.4868ZM31.6113 35.2866C29.7959 35.2866 28.6279 35.8325 28.6406 36.7212C28.6279 37.6099 29.7959 38.1558 31.6113 38.1558C33.4141 38.1558 34.582 37.6099 34.582 36.7212C34.582 35.8325 33.4141 35.2866 31.6113 35.2866ZM42.5293 34.7534V36.6323H45.6777V34.7534H46.6553V35.896H49.3213V34.0806H50.3242V40.7964H49.3213V39.019H46.6553V40.1489H41.5391V34.7534H42.5293ZM42.5293 39.3237H45.6777V37.4194H42.5293V39.3237ZM50.3242 41.3931V45.3667H49.3213V42.2056H42.7324V41.3931H50.3242ZM46.6553 38.1938H49.3213V36.7212H46.6553V38.1938ZM61.877 34.0806V45.3667H60.9121V34.0806H61.877ZM59.6045 34.3218V44.7954H58.6523V39.311H57.2051C57.0972 41.5073 56.1641 42.8784 54.7676 42.8784C53.2949 42.8784 52.3428 41.355 52.3428 38.9556C52.3428 36.5562 53.2949 35.0327 54.7676 35.0327C56.1387 35.0327 57.0654 36.3594 57.1924 38.4858H58.6523V34.3218H59.6045ZM54.7676 35.9722C53.8535 35.9722 53.2695 37.1147 53.2822 38.9556C53.2695 40.7837 53.8535 41.939 54.7676 41.9263C55.6816 41.939 56.2656 40.7837 56.2656 38.9556C56.2656 37.1147 55.6816 35.9722 54.7676 35.9722ZM77.0352 43.0815V43.9194H66.7012V43.0815H71.3604V40.3394H72.3633V43.0815H77.0352ZM72.3633 36.2261C72.3633 38.0288 74.5977 39.5776 76.54 39.895L76.1338 40.6821C74.4072 40.3457 72.5854 39.2476 71.8682 37.6733C71.1382 39.2539 69.3228 40.3774 67.6279 40.7329L67.209 39.9331C69.1133 39.603 71.335 38.0288 71.335 36.2261V35.9468H67.5518V35.1089H76.1465V35.9468H72.3633V36.2261ZM88.2197 39.6665V40.4917H77.9365V39.6665H80.4883V38.0796C79.5869 37.7305 79.0791 37.1528 79.0791 36.3911C79.0791 35.0581 80.6025 34.2964 83.0781 34.2964C85.5283 34.2964 87.0645 35.0581 87.0645 36.3911C87.0645 37.1465 86.563 37.7241 85.668 38.0669V39.6665H88.2197ZM83.0781 41.355C85.5029 41.355 86.9502 42.0532 86.9629 43.3481C86.9502 44.6304 85.5029 45.3413 83.0781 45.3413C80.6279 45.3413 79.1807 44.6304 79.1807 43.3481C79.1807 42.0532 80.6279 41.355 83.0781 41.355ZM83.0781 42.1167C81.2627 42.1294 80.1836 42.5737 80.1963 43.3481C80.1836 44.1099 81.2627 44.5669 83.0781 44.5669C84.8682 44.5669 85.96 44.1099 85.96 43.3481C85.96 42.5737 84.8682 42.1294 83.0781 42.1167ZM83.0781 35.0835C81.2373 35.0835 80.0947 35.5786 80.1074 36.3911C80.0947 37.2163 81.2373 37.6987 83.0781 37.6987C84.9062 37.6987 86.0488 37.2163 86.0488 36.3911C86.0488 35.5786 84.9062 35.0835 83.0781 35.0835ZM81.4785 39.6665H84.6777V38.3462C84.2017 38.4287 83.6685 38.4731 83.0781 38.4731C82.4878 38.4731 81.9546 38.4287 81.4785 38.3462V39.6665ZM98.4775 34.0806V45.3667H97.4746V34.0806H98.4775ZM96.2559 35.9214V36.7339H89.4258V35.9214H92.333V34.1948H93.3359V35.9214H96.2559ZM92.8662 37.6606C94.4912 37.6606 95.6592 38.7271 95.6592 40.2505C95.6592 41.7739 94.4912 42.8403 92.8662 42.8403C91.2285 42.8403 90.0479 41.7739 90.0605 40.2505C90.0479 38.7271 91.2285 37.6606 92.8662 37.6606ZM92.8662 38.4985C91.7871 38.4985 91 39.2349 91 40.2505C91 41.2788 91.7871 42.0024 92.8662 41.9897C93.9326 42.0024 94.707 41.2788 94.707 40.2505C94.707 39.2349 93.9326 38.4985 92.8662 38.4985ZM113.014 34.0806V39.9839H112.023V38.5366H109.357V39.5269H104.241V34.6138H105.231V36.2388H108.38V34.6138H109.357V35.7056H112.023V34.0806H113.014ZM113.014 40.5298V43.1831H106.717V44.4146H113.445V45.2144H105.727V42.4214H112.023V41.3296H105.701V40.5298H113.014ZM105.231 38.7144H108.38V37.0259H105.231V38.7144ZM109.357 37.7495H112.023V36.48H109.357V37.7495ZM120.047 34.2837C122.561 34.2837 124.033 34.9692 124.033 36.2261C124.033 37.5083 122.561 38.1938 120.047 38.2065C117.533 38.1938 116.048 37.5083 116.048 36.2261C116.048 34.9692 117.533 34.2837 120.047 34.2837ZM120.047 35.0327C118.168 35.0327 117.076 35.4897 117.089 36.2261C117.076 37.0132 118.168 37.4448 120.047 37.4448C121.913 37.4448 123.018 37.0132 123.018 36.2261C123.018 35.4897 121.913 35.0327 120.047 35.0327ZM125.188 38.9683V39.7808H114.905V38.9683H125.188ZM123.868 40.7583V43.2847H117.165V44.4526H124.211V45.2397H116.175V42.5483H122.891V41.52H116.149V40.7583H123.868ZM138.227 34.0933V36.6831H139.94V37.521H138.227V40.4663H137.236V34.0933H138.227ZM138.227 41.0884V45.2144H131.079V41.0884H138.227ZM132.057 41.8755V44.4019H137.262V41.8755H132.057ZM130.952 34.6646V38.7651C132.558 38.7588 134.215 38.6318 136.043 38.2573L136.17 39.0952C134.253 39.4761 132.552 39.603 130.851 39.603H129.949V34.6646H130.952ZM149.97 34.0806V45.3667H148.967V34.0806H149.97ZM146.631 35.312C146.618 38.562 145.107 41.4312 141.324 43.2466L140.778 42.4341C143.832 40.9868 145.387 38.8223 145.615 36.1245H141.299V35.312H146.631ZM160.926 35.2231V36.353C160.913 37.7368 160.913 39.2856 160.507 41.5581L159.491 41.4438C159.923 39.2856 159.923 37.6987 159.923 36.353V36.0483H152.966V35.2231H160.926ZM162.157 42.9419V43.7671H151.874V42.9419H155.911V38.9048H156.889V42.9419H162.157ZM164.963 43.4878L163.973 46.9409H163.033L163.731 43.4878H164.963ZM3.77051 51.9565C5.30664 51.9692 6.41113 53.2832 6.57617 55.397H9.10254V51.0806H10.0928V62.3921H9.10254V56.2222H6.58887C6.46826 58.4312 5.34473 59.8149 3.77051 59.8149C2.10742 59.8149 0.939453 58.2915 0.939453 55.8921C0.939453 53.4927 2.10742 51.9692 3.77051 51.9565ZM3.77051 52.8452C2.65332 52.8579 1.8916 54.0513 1.8916 55.8921C1.8916 57.7329 2.65332 58.9263 3.77051 58.9263C4.875 58.9263 5.64941 57.7329 5.64941 55.8921C5.64941 54.0513 4.875 52.8579 3.77051 52.8452ZM22.2676 56.311V57.1362H17.5957V58.4692H21.0107V62.2144H13.2285V58.4692H16.6182V57.1362H11.9717V56.311H22.2676ZM14.2188 59.269V61.4019H20.0332V59.269H14.2188ZM21.0869 54.4194V55.2319H13.2793V51.5376H20.9854V52.3628H14.2695V54.4194H21.0869ZM36.791 56.7554V57.5806H26.4697V56.7554H31.1162V55.0161H32.0938V56.7554H36.791ZM32.1064 51.7915C32.1064 53.2896 34.1377 54.5464 36.1309 54.8257L35.7246 55.6255C34.0107 55.3271 32.3159 54.4194 31.6113 53.1118C30.9004 54.4258 29.1992 55.3271 27.4727 55.6255L27.0918 54.8257C29.085 54.5464 31.1035 53.2896 31.1035 51.7915V51.2583H32.1064V51.7915ZM35.4834 58.6851V62.3667H34.4805V59.4849H27.6123V58.6851H35.4834ZM47.3789 51.0806V62.3667H46.4141V51.0806H47.3789ZM45.1064 51.3218V61.7954H44.1543V56.311H42.707C42.5991 58.5073 41.666 59.8784 40.2695 59.8784C38.7969 59.8784 37.8447 58.355 37.8447 55.9556C37.8447 53.5562 38.7969 52.0327 40.2695 52.0327C41.6406 52.0327 42.5674 53.3594 42.6943 55.4858H44.1543V51.3218H45.1064ZM40.2695 52.9722C39.3555 52.9722 38.7715 54.1147 38.7842 55.9556C38.7715 57.7837 39.3555 58.939 40.2695 58.9263C41.1836 58.939 41.7676 57.7837 41.7676 55.9556C41.7676 54.1147 41.1836 52.9722 40.2695 52.9722ZM52.9141 54.1147C52.9141 56.1587 54.2217 58.2153 55.8594 58.9644L55.2627 59.7769C53.9805 59.1167 52.9204 57.7646 52.4189 56.1587C51.9175 57.8472 50.8574 59.2944 49.5752 59.98L48.9277 59.1802C50.5781 58.3677 51.8984 56.1968 51.8984 54.1147V52.0581H52.9141V54.1147ZM58.2969 51.0806V62.3921H57.3066V55.7524H54.6279V54.9399H57.3066V51.0806H58.2969ZM69.291 56.3745V57.187H65.7998V60.1069H70.5098V60.9448H60.1758V60.1069H64.8223V57.187H61.4961V52.0073H69.1768V52.8198H62.499V56.3745H69.291ZM78.6475 54.1147C78.6475 56.1587 79.9551 58.2153 81.5928 58.9644L80.9961 59.7769C79.7139 59.1167 78.6538 57.7646 78.1523 56.1587C77.6509 57.8472 76.5908 59.2944 75.3086 59.98L74.6611 59.1802C76.3115 58.3677 77.6318 56.1968 77.6318 54.1147V52.0581H78.6475V54.1147ZM84.0303 51.0806V62.3921H83.04V55.7524H80.3613V54.9399H83.04V51.0806H84.0303ZM96.2432 60.1323V60.9702H85.9092V60.1323H90.5557V57.9995H87.2041V54.521H93.958V52.7437H87.1787V51.9185H94.9355V55.3335H88.1943V57.1743H95.2021V57.9995H91.5332V60.1323H96.2432ZM107.466 56.3237V57.1108H97.1318V56.3237H107.466ZM106.171 58.0122V60.4116H99.3916V61.4907H106.539V62.2144H98.3887V59.7261H105.181V58.7612H98.376V58.0122H106.171ZM106.133 51.4233V53.7593H99.4678V54.7495H106.336V55.4731H98.4775V53.0737H105.13V52.147H98.4395V51.4233H106.133ZM121.088 58.1392V58.9897H117.876C117.952 60.2339 119.66 61.2686 121.545 61.5542L121.177 62.3159C119.501 62.0493 117.99 61.2495 117.343 60.1069C116.702 61.2432 115.21 62.0493 113.56 62.3159L113.191 61.5542C115.064 61.2686 116.733 60.2339 116.848 58.9897H113.648V58.1392H121.088ZM120.961 51.0933V57.5552H119.971V51.0933H120.961ZM114.867 51.7534C116.581 51.7534 117.825 52.8198 117.825 54.3687C117.825 55.9175 116.581 56.9839 114.867 56.9839C113.153 56.9839 111.909 55.9175 111.909 54.3687C111.909 52.8198 113.153 51.7534 114.867 51.7534ZM114.867 52.604C113.712 52.5913 112.874 53.3149 112.887 54.3687C112.874 55.4351 113.712 56.146 114.867 56.1587C116.01 56.146 116.848 55.4351 116.848 54.3687C116.848 53.3149 116.01 52.5913 114.867 52.604ZM126.915 54.5464C126.915 56.4634 128.312 58.4058 129.975 59.1294L129.416 59.9165C128.096 59.3135 126.953 58.0122 126.433 56.4507C125.899 58.1074 124.763 59.5483 123.475 60.1958L122.878 59.4087C124.49 58.6343 125.899 56.5015 125.912 54.5464V53.0737H123.246V52.2485H129.606V53.0737H126.915V54.5464ZM132.184 51.0806V62.3667H131.181V51.0806H132.184ZM140.524 51.728C142.213 51.728 143.457 52.8071 143.457 54.3306C143.457 55.8667 142.213 56.9331 140.524 56.9458C138.836 56.9331 137.579 55.8667 137.592 54.3306C137.579 52.8071 138.836 51.728 140.524 51.728ZM140.524 52.5659C139.42 52.5659 138.557 53.3149 138.569 54.3306C138.557 55.3716 139.42 56.1206 140.524 56.1206C141.642 56.1206 142.479 55.3716 142.479 54.3306C142.479 53.3149 141.642 52.5659 140.524 52.5659ZM146.199 51.0806V53.6323H147.9V54.4575H146.199V56.73H145.209V51.0806H146.199ZM139.547 57.9487V61.2368C140.201 61.2178 141.07 61.1226 141.87 60.856L142.022 61.6558C140.918 62.0239 139.852 62.062 139.115 62.062H138.582V57.9487H139.547ZM147.329 57.9995V58.7739H141.629V57.9995H144.003V56.9966H144.98V57.9995H147.329ZM144.473 59.1548C145.704 59.1548 146.58 59.7769 146.593 60.7544C146.58 61.7319 145.704 62.3413 144.473 62.3413C143.229 62.3413 142.365 61.7319 142.378 60.7544C142.365 59.7769 143.229 59.1548 144.473 59.1548ZM144.473 59.8784C143.774 59.8784 143.267 60.2339 143.267 60.7544C143.267 61.2876 143.774 61.6304 144.473 61.6304C145.184 61.6304 145.679 61.2876 145.679 60.7544C145.679 60.2339 145.184 59.8784 144.473 59.8784ZM158.272 51.0806V62.3667H157.32V51.0806H158.272ZM155.898 51.3853V61.7954H154.946V56.5269H152.56C151.868 57.8408 150.782 59.0024 149.208 59.9292L148.624 59.2056C151.081 57.752 152.312 55.7144 152.496 53.353H149.106V52.5278H153.486C153.48 53.6387 153.302 54.7114 152.928 55.7144H154.946V51.3853H155.898ZM168.746 53.0356V53.8481H163.084V53.0356H165.433V51.4233H166.423V53.0356H168.746ZM165.915 54.6099C167.337 54.6099 168.353 55.6763 168.365 57.1743C168.353 58.6851 167.337 59.7642 165.915 59.7642C164.506 59.7642 163.49 58.6851 163.49 57.1743C163.49 55.6763 164.506 54.6099 165.915 54.6099ZM165.915 55.4478C165.026 55.4604 164.379 56.1841 164.379 57.1743C164.379 58.1772 165.026 58.9009 165.915 58.8882C166.816 58.9009 167.477 58.1772 167.477 57.1743C167.477 56.1841 166.816 55.4604 165.915 55.4478ZM172.72 51.0806V62.3667H171.768V56.6665H170.27V61.8081H169.33V51.3599H170.27V55.8413H171.768V51.0806H172.72ZM180.134 52.4897C180.121 53.8735 182.025 55.0034 184.019 55.2827L183.625 56.0698C181.803 55.8096 180.102 54.8955 179.486 53.5688C178.877 54.8955 177.182 55.8096 175.348 56.0698L174.979 55.2827C176.973 55.0034 178.839 53.8735 178.839 52.4897V52.4644H175.284V51.6519H183.714V52.4644H180.134V52.4897ZM184.666 56.895V57.7202H180.07V60.0308H179.08V57.7202H174.332V56.895H184.666ZM183.511 61.2876V62.1255H175.652V58.9009H176.655V61.2876H183.511ZM194.314 51.0806V55.5493H196.206V56.3872H194.314V62.3921H193.324V51.0806H194.314ZM191.344 52.1851V53.0103H187.065V58.7231C189.109 58.7231 190.557 58.6279 192.232 58.3169L192.359 59.1802C190.595 59.4976 189.109 59.561 186.964 59.561H186.075V52.1851H191.344ZM198.009 61.4146C197.564 61.4146 197.184 61.0464 197.196 60.5894C197.184 60.145 197.564 59.7769 198.009 59.7769C198.453 59.7769 198.821 60.145 198.821 60.5894C198.821 61.0464 198.453 61.4146 198.009 61.4146ZM9.86426 71.521V72.3335H2.1582V68.5122H3.14844V71.521H9.86426ZM11.0322 73.6665V74.4917H6.46191V76.8276H5.47168V74.4917H0.736328V73.6665H11.0322ZM9.94043 78.2876V79.1255H2.05664V75.8247H3.04688V78.2876H9.94043ZM21.6455 68.0806V79.3667H20.6807V68.0806H21.6455ZM19.373 68.3218V78.7954H18.4209V73.311H16.9736C16.8657 75.5073 15.9326 76.8784 14.5361 76.8784C13.0635 76.8784 12.1113 75.355 12.1113 72.9556C12.1113 70.5562 13.0635 69.0327 14.5361 69.0327C15.9072 69.0327 16.834 70.3594 16.9609 72.4858H18.4209V68.3218H19.373ZM14.5361 69.9722C13.6221 69.9722 13.0381 71.1147 13.0508 72.9556C13.0381 74.7837 13.6221 75.939 14.5361 75.9263C15.4502 75.939 16.0342 74.7837 16.0342 72.9556C16.0342 71.1147 15.4502 69.9722 14.5361 69.9722ZM35.8643 68.0806V79.3667H34.8867V68.0806H35.8643ZM26.4951 75.8247C28.7549 75.8247 31.6113 75.8247 34.1885 75.5073L34.2646 76.2437C31.6113 76.6499 28.8438 76.6753 26.6348 76.6753L26.4951 75.8247ZM33.7314 72.8667V73.7173H30.6084V69.2739H33.6426V70.0991H31.5986V72.8667H33.7314ZM29.999 69.2739V70.0991H28.0566V72.8667C28.6914 72.8604 29.3643 72.8096 30.1514 72.6382L30.2529 73.4761C29.1992 73.6919 28.3867 73.7173 27.5742 73.7173H27.0664V69.2739H29.999ZM41.7422 71.5464C41.7422 73.4634 43.1387 75.4058 44.8018 76.1294L44.2432 76.9165C42.9229 76.3135 41.7803 75.0122 41.2598 73.4507C40.7266 75.1074 39.5903 76.5483 38.3018 77.1958L37.7051 76.4087C39.3174 75.6343 40.7266 73.5015 40.7393 71.5464V70.0737H38.0732V69.2485H44.4336V70.0737H41.7422V71.5464ZM47.0107 68.0806V79.3667H46.0078V68.0806H47.0107ZM55.3516 68.728C57.04 68.728 58.2842 69.8071 58.2842 71.3306C58.2842 72.8667 57.04 73.9331 55.3516 73.9458C53.6631 73.9331 52.4062 72.8667 52.4189 71.3306C52.4062 69.8071 53.6631 68.728 55.3516 68.728ZM55.3516 69.5659C54.2471 69.5659 53.3838 70.3149 53.3965 71.3306C53.3838 72.3716 54.2471 73.1206 55.3516 73.1206C56.4688 73.1206 57.3066 72.3716 57.3066 71.3306C57.3066 70.3149 56.4688 69.5659 55.3516 69.5659ZM61.0264 68.0806V70.6323H62.7275V71.4575H61.0264V73.73H60.0361V68.0806H61.0264ZM54.374 74.9487V78.2368C55.0278 78.2178 55.8975 78.1226 56.6973 77.856L56.8496 78.6558C55.7451 79.0239 54.6787 79.062 53.9424 79.062H53.4092V74.9487H54.374ZM62.1562 74.9995V75.7739H56.4561V74.9995H58.8301V73.9966H59.8076V74.9995H62.1562ZM59.2998 76.1548C60.5312 76.1548 61.4072 76.7769 61.4199 77.7544C61.4072 78.7319 60.5312 79.3413 59.2998 79.3413C58.0557 79.3413 57.1924 78.7319 57.2051 77.7544C57.1924 76.7769 58.0557 76.1548 59.2998 76.1548ZM59.2998 76.8784C58.6016 76.8784 58.0938 77.2339 58.0938 77.7544C58.0938 78.2876 58.6016 78.6304 59.2998 78.6304C60.0107 78.6304 60.5059 78.2876 60.5059 77.7544C60.5059 77.2339 60.0107 76.8784 59.2998 76.8784ZM66.46 68.9565C68.123 68.9692 69.3037 70.4927 69.3164 72.8921C69.3037 75.2915 68.123 76.8149 66.46 76.8149C64.7842 76.8149 63.6162 75.2915 63.6162 72.8921C63.6162 70.4927 64.7842 68.9692 66.46 68.9565ZM66.46 69.8452C65.3428 69.8579 64.5557 71.0513 64.5557 72.8921C64.5557 74.7329 65.3428 75.9263 66.46 75.9263C67.5898 75.9263 68.3516 74.7329 68.3516 72.8921C68.3516 71.0513 67.5898 69.8579 66.46 69.8452ZM72.1729 68.0806V72.5874H74.0645V73.4507H72.1729V79.3667H71.1826V68.0806H72.1729ZM83.7891 73.3745V74.187H80.2979V77.1069H85.0078V77.9448H74.6738V77.1069H79.3203V74.187H75.9941V69.0073H83.6748V69.8198H76.9971V73.3745H83.7891ZM98.5664 74.644V75.4058H92.2695V76.5103H98.3887V77.272H92.2695V78.4399H98.7822V79.2144H91.2666V74.644H98.5664ZM98.5283 68.0806V74.187H97.5254V72.854H94.5293V72.0669H97.5254V70.645H94.6943C93.9961 72.4731 92.2441 73.7427 89.7051 74.4028L89.3242 73.5903C92.1299 72.8984 93.7676 71.4512 93.958 69.5786H89.8955V68.7661H95.0244C95.0244 69.147 94.9863 69.5088 94.9229 69.8579H97.5254V68.0806H98.5283ZM105.549 68.2837C108.062 68.2837 109.535 68.9692 109.535 70.2261C109.535 71.5083 108.062 72.1938 105.549 72.2065C103.035 72.1938 101.55 71.5083 101.55 70.2261C101.55 68.9692 103.035 68.2837 105.549 68.2837ZM105.549 69.0327C103.67 69.0327 102.578 69.4897 102.591 70.2261C102.578 71.0132 103.67 71.4448 105.549 71.4448C107.415 71.4448 108.52 71.0132 108.52 70.2261C108.52 69.4897 107.415 69.0327 105.549 69.0327ZM110.69 72.9683V73.7808H100.407V72.9683H110.69ZM109.37 74.7583V77.2847H102.667V78.4526H109.713V79.2397H101.677V76.5483H108.393V75.52H101.651V74.7583H109.37ZM118.942 71.5464C118.942 73.4634 120.339 75.4058 122.002 76.1294L121.443 76.9165C120.123 76.3135 118.98 75.0122 118.46 73.4507C117.927 75.1074 116.791 76.5483 115.502 77.1958L114.905 76.4087C116.518 75.6343 117.927 73.5015 117.939 71.5464V70.0737H115.273V69.2485H121.634V70.0737H118.942V71.5464ZM124.211 68.0806V79.3667H123.208V68.0806H124.211ZM131.879 69.2612C131.879 69.9404 131.822 70.6069 131.714 71.2544H134.494V68.0679H135.484V79.3667H134.494V75.0757H131.371V74.2632H134.494V72.0796H131.523C130.927 74.2124 129.524 76.0977 126.725 77.5005L126.153 76.7388C128.229 75.6978 129.511 74.3965 130.216 72.8667L126.369 73.2349L126.191 72.3716L130.521 72.0796C130.724 71.4512 130.844 70.7847 130.889 70.0864H126.763V69.2612H131.879ZM143.076 69.6802C143.063 71.1909 145.082 72.4731 147.05 72.7651L146.682 73.5522C144.917 73.2539 143.203 72.3145 142.518 70.9497C141.832 72.3145 140.112 73.2539 138.379 73.5522L137.985 72.7651C139.94 72.4731 141.959 71.1909 141.959 69.6802V69.604H138.341V68.7915H146.682V69.604H143.076V69.6802ZM147.659 74.5171V75.3423H142.987V79.3667H142.01V75.3423H137.376V74.5171H147.659ZM157.739 71.5083V72.3081H150.008V68.4995H150.998V71.5083H157.739ZM158.933 73.8442V74.6567H148.599V73.8442H158.933ZM157.803 78.2622V79.0874H149.944V75.812H150.935V78.2622H157.803ZM172.466 68.0933V75.7358H171.463V72.105H168.987V71.2671H171.463V68.0933H172.466ZM168.937 68.9819C168.924 71.8765 166.994 73.9585 163.744 74.9995L163.3 74.1997C165.998 73.3682 167.661 71.8003 167.87 69.7944H163.858V68.9819H168.937ZM169.292 75.2661C169.292 76.9165 171.095 78.1479 173.088 78.5034L172.669 79.3032C171.006 78.9795 169.476 78.1099 168.81 76.7896C168.118 78.1162 166.569 78.9985 164.887 79.3286L164.48 78.5415C166.474 78.1987 168.302 76.9292 168.314 75.2661V74.7456H169.292V75.2661ZM175.538 78.4146C175.094 78.4146 174.713 78.0464 174.726 77.5894C174.713 77.145 175.094 76.7769 175.538 76.7769C175.982 76.7769 176.351 77.145 176.351 77.5894C176.351 78.0464 175.982 78.4146 175.538 78.4146ZM9.55957 85.0806V88.0894H11.2607V88.9399H9.55957V91.8853H8.56934V85.0806H9.55957ZM9.55957 92.5327V96.2144H2.4375V92.5327H9.55957ZM3.41504 93.3325V95.4019H8.56934V93.3325H3.41504ZM7.49023 86.2866V87.1118H0.761719V86.2866H3.63086V84.9917H4.62109V86.2866H7.49023ZM4.12598 87.6704C5.75098 87.6704 6.83008 88.4702 6.84277 89.6763C6.83008 90.9077 5.75098 91.6948 4.12598 91.6948C2.48828 91.6948 1.39648 90.9077 1.40918 89.6763C1.39648 88.4702 2.48828 87.6704 4.12598 87.6704ZM4.12598 88.4448C3.05957 88.4448 2.34863 88.9399 2.36133 89.6763C2.34863 90.4507 3.05957 90.9204 4.12598 90.9331C5.17969 90.9204 5.89062 90.4507 5.90332 89.6763C5.89062 88.9399 5.17969 88.4448 4.12598 88.4448ZM14.7773 86.4517C14.7646 88.8257 14.4346 91.4917 12.7842 93.6753L11.9971 93.2183C13.4126 91.4473 13.8315 89.3589 13.9141 87.2769H12.2256V86.4517H14.7773ZM17.2783 86.4517C17.272 87.3721 17.2529 88.4321 17.1133 89.5239H18.6113V85.3853H19.5635V95.7954H18.6113V90.3491H16.9863C16.7261 91.7583 16.231 93.1865 15.3105 94.4243L14.5361 93.9546C16.0977 91.9614 16.3579 89.3843 16.4023 87.2769H15.1328V86.4517H17.2783ZM21.6836 85.0806V96.3667H20.7188V85.0806H21.6836ZM36.791 90.2349V91.0981H32.0811V92.3296H31.1035V91.0981H26.4697V90.2349H36.791ZM32.0938 93.2056C32.0938 94.4497 33.9219 95.3511 35.9658 95.5542L35.6484 96.3159C33.8647 96.1255 32.2588 95.4399 31.5859 94.3481C30.9131 95.4272 29.3198 96.1255 27.5488 96.3159L27.2188 95.5542C29.2373 95.3511 31.0781 94.437 31.0781 93.2056V92.8374H32.0938V93.2056ZM31.6113 85.271C34.0869 85.271 35.5977 86.0073 35.5977 87.3276C35.5977 88.6353 34.0869 89.397 31.6113 89.3843C29.1357 89.397 27.6123 88.6353 27.6123 87.3276C27.6123 86.0073 29.1357 85.271 31.6113 85.271ZM31.6113 86.0327C29.7705 86.02 28.6279 86.5151 28.6406 87.3276C28.6279 88.1274 29.7705 88.6099 31.6113 88.6099C33.4395 88.6099 34.582 88.1274 34.582 87.3276C34.582 86.5151 33.4395 86.02 31.6113 86.0327ZM42.8467 85.2837C45.3604 85.2837 46.833 85.9692 46.833 87.2261C46.833 88.5083 45.3604 89.1938 42.8467 89.2065C40.333 89.1938 38.8477 88.5083 38.8477 87.2261C38.8477 85.9692 40.333 85.2837 42.8467 85.2837ZM42.8467 86.0327C40.9678 86.0327 39.876 86.4897 39.8887 87.2261C39.876 88.0132 40.9678 88.4448 42.8467 88.4448C44.7129 88.4448 45.8174 88.0132 45.8174 87.2261C45.8174 86.4897 44.7129 86.0327 42.8467 86.0327ZM47.9883 89.9683V90.7808H37.7051V89.9683H47.9883ZM46.668 91.7583V94.2847H39.9648V95.4526H47.0107V96.2397H38.9746V93.5483H45.6904V92.52H38.9492V91.7583H46.668ZM59.6807 85.3345V89.7017H61.0518V85.0806H62.0039V96.3667H61.0518V90.5269H59.6807V95.8081H58.7539V85.3345H59.6807ZM54.9961 86.5151V87.3403H53.4727V92.5708C53.8979 92.5581 54.4565 92.5073 55.0723 92.355L55.1611 93.2056C54.209 93.4214 53.4727 93.4214 52.9902 93.4214H52.5459V86.5151H54.9961ZM57.9922 86.5151V87.3403H56.3926V92.5708C56.9194 92.5645 57.5479 92.5137 58.2334 92.3169L58.3223 93.1675C57.3828 93.4214 56.6084 93.4214 55.9482 93.4214H55.4912V86.5151H57.9922ZM72.5537 90.3745V91.187H69.0625V94.1069H73.7725V94.9448H63.4385V94.1069H68.085V91.187H64.7588V86.0073H72.4395V86.8198H65.7617V90.3745H72.5537ZM76.5273 94.4878L75.5371 97.9409H74.5977L75.2959 94.4878H76.5273ZM91.5967 94.0815V94.9194H81.2627V94.0815H85.9219V91.3394H86.9248V94.0815H91.5967ZM86.9248 87.2261C86.9248 89.0288 89.1592 90.5776 91.1016 90.895L90.6953 91.6821C88.9688 91.3457 87.147 90.2476 86.4297 88.6733C85.6997 90.2539 83.8843 91.3774 82.1895 91.7329L81.7705 90.9331C83.6748 90.603 85.8965 89.0288 85.8965 87.2261V86.9468H82.1133V86.1089H90.708V86.9468H86.9248V87.2261ZM102.781 90.6665V91.4917H92.498V90.6665H95.0498V89.0796C94.1484 88.7305 93.6406 88.1528 93.6406 87.3911C93.6406 86.0581 95.1641 85.2964 97.6396 85.2964C100.09 85.2964 101.626 86.0581 101.626 87.3911C101.626 88.1465 101.125 88.7241 100.229 89.0669V90.6665H102.781ZM97.6396 92.355C100.064 92.355 101.512 93.0532 101.524 94.3481C101.512 95.6304 100.064 96.3413 97.6396 96.3413C95.1895 96.3413 93.7422 95.6304 93.7422 94.3481C93.7422 93.0532 95.1895 92.355 97.6396 92.355ZM97.6396 93.1167C95.8242 93.1294 94.7451 93.5737 94.7578 94.3481C94.7451 95.1099 95.8242 95.5669 97.6396 95.5669C99.4297 95.5669 100.521 95.1099 100.521 94.3481C100.521 93.5737 99.4297 93.1294 97.6396 93.1167ZM97.6396 86.0835C95.7988 86.0835 94.6562 86.5786 94.6689 87.3911C94.6562 88.2163 95.7988 88.6987 97.6396 88.6987C99.4678 88.6987 100.61 88.2163 100.61 87.3911C100.61 86.5786 99.4678 86.0835 97.6396 86.0835ZM96.04 90.6665H99.2393V89.3462C98.7632 89.4287 98.23 89.4731 97.6396 89.4731C97.0493 89.4731 96.5161 89.4287 96.04 89.3462V90.6665ZM113.039 85.0806V96.3667H112.036V85.0806H113.039ZM110.817 86.9214V87.7339H103.987V86.9214H106.895V85.1948H107.897V86.9214H110.817ZM107.428 88.6606C109.053 88.6606 110.221 89.7271 110.221 91.2505C110.221 92.7739 109.053 93.8403 107.428 93.8403C105.79 93.8403 104.609 92.7739 104.622 91.2505C104.609 89.7271 105.79 88.6606 107.428 88.6606ZM107.428 89.4985C106.349 89.4985 105.562 90.2349 105.562 91.2505C105.562 92.2788 106.349 93.0024 107.428 92.9897C108.494 93.0024 109.269 92.2788 109.269 91.2505C109.269 90.2349 108.494 89.4985 107.428 89.4985ZM123.83 86.2104V89.2192H126.598V85.0806H127.588V96.3921H126.598V90.0444H123.83V93.5103H118.688V86.2104H123.83ZM119.679 86.9976V92.7104H122.865V86.9976H119.679ZM139.788 91.644V92.4692H135.078V96.3667H134.101V92.4692H129.454V91.644H139.788ZM138.442 85.7153V90.1079H130.787V85.7153H138.442ZM131.765 86.5278V89.3208H137.452V86.5278H131.765ZM151.023 90.3237V91.1108H140.689V90.3237H151.023ZM149.729 92.0122V94.4116H142.949V95.4907H150.097V96.2144H141.946V93.7261H148.738V92.7612H141.934V92.0122H149.729ZM149.69 85.4233V87.7593H143.025V88.7495H149.894V89.4731H142.035V87.0737H148.688V86.147H141.997V85.4233H149.69ZM162.678 85.3345V89.7017H164.049V85.0806H165.001V96.3667H164.049V90.5269H162.678V95.8081H161.751V85.3345H162.678ZM157.993 86.5151V87.3403H156.47V92.5708C156.895 92.5581 157.454 92.5073 158.069 92.355L158.158 93.2056C157.206 93.4214 156.47 93.4214 155.987 93.4214H155.543V86.5151H157.993ZM160.989 86.5151V87.3403H159.39V92.5708C159.917 92.5645 160.545 92.5137 161.23 92.3169L161.319 93.1675C160.38 93.4214 159.605 93.4214 158.945 93.4214H158.488V86.5151H160.989ZM175.551 90.3745V91.187H172.06V94.1069H176.77V94.9448H166.436V94.1069H171.082V91.187H167.756V86.0073H175.437V86.8198H168.759V90.3745H175.551ZM9.63574 103.287V104.417C9.63574 105.838 9.63574 107.451 9.2168 109.901L8.20117 109.799C8.6582 107.489 8.6582 105.8 8.6582 104.417V104.112H1.85352V103.287H9.63574ZM11.0195 110.878V111.704H0.736328V110.878H11.0195ZM24.1592 102.068V106.524H25.8096V107.375H24.1592V113.367H23.1689V102.068H24.1592ZM18.4463 103.274V104.099H16.5674V109.558C17.126 109.545 17.8115 109.495 18.5605 109.33L18.6621 110.167C17.5957 110.396 16.7451 110.409 16.0723 110.409H15.5771V103.274H18.4463ZM22.1025 103.274V104.099H20.084V109.571C20.9663 109.558 21.6709 109.501 22.4707 109.304L22.5723 110.142C21.582 110.383 20.7822 110.409 19.6396 110.409H19.0938V103.274H22.1025ZM36.7529 107.514V108.339H26.4697V107.514H36.7529ZM35.8643 105.648V106.46H31.9414V102.639H35.7627V103.452H32.9443V105.648H35.8643ZM31.3066 102.639V103.452H28.4502V105.648C29.4277 105.635 30.3862 105.565 31.459 105.318L31.5732 106.143C30.291 106.422 29.2119 106.46 28.082 106.46H27.4346V102.639H31.3066ZM32.1318 109.596C32.1318 111.12 33.9092 112.237 35.9658 112.529L35.585 113.316C33.8711 113.03 32.3032 112.224 31.624 110.98C30.9448 112.224 29.377 113.03 27.6631 113.316L27.2822 112.529C29.3262 112.237 31.1162 111.12 31.1162 109.596V109.228H32.1318V109.596ZM46.5283 102.081V105.089H48.2295V105.94H46.5283V108.885H45.5381V102.081H46.5283ZM46.5283 109.533V113.214H39.4062V109.533H46.5283ZM40.3838 110.333V112.402H45.5381V110.333H40.3838ZM44.459 103.287V104.112H37.7305V103.287H40.5996V101.992H41.5898V103.287H44.459ZM41.0947 104.67C42.7197 104.67 43.7988 105.47 43.8115 106.676C43.7988 107.908 42.7197 108.695 41.0947 108.695C39.457 108.695 38.3652 107.908 38.3779 106.676C38.3652 105.47 39.457 104.67 41.0947 104.67ZM41.0947 105.445C40.0283 105.445 39.3174 105.94 39.3301 106.676C39.3174 107.451 40.0283 107.92 41.0947 107.933C42.1484 107.92 42.8594 107.451 42.8721 106.676C42.8594 105.94 42.1484 105.445 41.0947 105.445ZM59.2236 108.035V108.847H48.9404V108.035H59.2236ZM58.0811 112.288V113.125H50.2734V109.837H51.2764V112.288H58.0811ZM54.082 102.487C56.5068 102.474 58.0684 103.312 58.0684 104.721C58.0684 106.13 56.5068 106.968 54.082 106.968C51.6318 106.968 50.083 106.13 50.083 104.721C50.083 103.312 51.6318 102.474 54.082 102.487ZM54.082 103.287C52.2666 103.287 51.0986 103.833 51.1113 104.721C51.0986 105.61 52.2666 106.156 54.082 106.156C55.8848 106.156 57.0527 105.61 57.0527 104.721C57.0527 103.833 55.8848 103.287 54.082 103.287ZM67.2217 105.115C67.2217 107.108 68.542 109.152 70.1416 109.939L69.5322 110.739C68.2881 110.085 67.2471 108.752 66.752 107.184C66.2441 108.854 65.1777 110.275 63.9082 110.955L63.2734 110.155C64.9238 109.342 66.2314 107.171 66.2441 105.115V103.058H67.2217V105.115ZM72.1729 102.081V106.664H74.0645V107.527H72.1729V113.367H71.1826V102.081H72.1729ZM83.4082 102.081V106.575H85.2998V107.413H83.4082V113.392H82.418V102.081H83.4082ZM80.2471 103.134V107.171H76.1338V109.812C78.2285 109.812 79.6885 109.742 81.4023 109.418L81.5039 110.244C79.7266 110.574 78.2158 110.65 76.0449 110.663H75.1436V106.346H79.2568V103.959H75.1182V103.134H80.2471ZM89.9463 105.546C89.9463 107.463 91.3428 109.406 93.0059 110.129L92.4473 110.917C91.127 110.313 89.9844 109.012 89.4639 107.451C88.9307 109.107 87.7944 110.548 86.5059 111.196L85.9092 110.409C87.5215 109.634 88.9307 107.501 88.9434 105.546V104.074H86.2773V103.249H92.6377V104.074H89.9463V105.546ZM95.2148 102.081V113.367H94.2119V102.081H95.2148ZM101.182 105.546C101.182 107.463 102.578 109.406 104.241 110.129L103.683 110.917C102.362 110.313 101.22 109.012 100.699 107.451C100.166 109.107 99.0298 110.548 97.7412 111.196L97.1445 110.409C98.7568 109.634 100.166 107.501 100.179 105.546V104.074H97.5127V103.249H103.873V104.074H101.182V105.546ZM106.45 102.081V113.367H105.447V102.081H106.45ZM114.791 102.728C116.479 102.728 117.724 103.807 117.724 105.331C117.724 106.867 116.479 107.933 114.791 107.946C113.103 107.933 111.846 106.867 111.858 105.331C111.846 103.807 113.103 102.728 114.791 102.728ZM114.791 103.566C113.687 103.566 112.823 104.315 112.836 105.331C112.823 106.372 113.687 107.121 114.791 107.121C115.908 107.121 116.746 106.372 116.746 105.331C116.746 104.315 115.908 103.566 114.791 103.566ZM120.466 102.081V104.632H122.167V105.458H120.466V107.73H119.476V102.081H120.466ZM113.813 108.949V112.237C114.467 112.218 115.337 112.123 116.137 111.856L116.289 112.656C115.185 113.024 114.118 113.062 113.382 113.062H112.849V108.949H113.813ZM121.596 109V109.774H115.896V109H118.27V107.997H119.247V109H121.596ZM118.739 110.155C119.971 110.155 120.847 110.777 120.859 111.754C120.847 112.732 119.971 113.341 118.739 113.341C117.495 113.341 116.632 112.732 116.645 111.754C116.632 110.777 117.495 110.155 118.739 110.155ZM118.739 110.878C118.041 110.878 117.533 111.234 117.533 111.754C117.533 112.288 118.041 112.63 118.739 112.63C119.45 112.63 119.945 112.288 119.945 111.754C119.945 111.234 119.45 110.878 118.739 110.878ZM132.006 105.508V106.308H124.274V102.5H125.265V105.508H132.006ZM133.199 107.844V108.657H122.865V107.844H133.199ZM132.069 112.262V113.087H124.211V109.812H125.201V112.262H132.069ZM142.848 102.081V106.549H144.739V107.387H142.848V113.392H141.857V102.081H142.848ZM139.877 103.185V104.01H135.599V109.723C137.643 109.723 139.09 109.628 140.766 109.317L140.893 110.18C139.128 110.498 137.643 110.561 135.497 110.561H134.608V103.185H139.877ZM146.542 112.415C146.098 112.415 145.717 112.046 145.729 111.589C145.717 111.145 146.098 110.777 146.542 110.777C146.986 110.777 147.354 111.145 147.354 111.589C147.354 112.046 146.986 112.415 146.542 112.415Z" fill="#1A1A1A"/>
</svg>
