<svg width="258" height="55" viewBox="0 0 258 55" fill="none" xmlns="http://www.w3.org/2000/svg">
<path d="M17.3934 2.55152C20.2734 2.55152 22.8814 3.09552 25.2174 4.18352C27.5534 5.27152 29.4094 6.79152 30.7854 8.74352C32.1934 10.6635 32.9614 12.8555 33.0894 15.3195H24.0654C23.8094 13.5915 23.0574 12.2475 21.8094 11.2875C20.5614 10.3275 18.8974 9.84752 16.8174 9.84752C14.8334 9.84752 13.2814 10.2155 12.1614 10.9515C11.0414 11.6555 10.4814 12.6155 10.4814 13.8315C10.4814 14.7915 10.8334 15.5755 11.5374 16.1835C12.2414 16.7915 13.3134 17.3355 14.7534 17.8155C16.2254 18.2635 18.3534 18.7755 21.1374 19.3515C25.4574 20.2475 28.5454 21.7355 30.4014 23.8155C32.2894 25.8635 33.2334 28.4395 33.2334 31.5435C33.2334 33.9755 32.5294 36.1035 31.1214 37.9275C29.7454 39.7515 27.8574 41.1435 25.4574 42.1035C23.0574 43.0955 20.3854 43.5915 17.4414 43.5915C14.2414 43.5915 11.3614 43.0315 8.80144 41.9115C6.27344 40.8235 4.25744 39.2555 2.75344 37.2075C1.28144 35.1595 0.481436 32.7595 0.353436 30.0075H9.32944C9.58544 31.8955 10.4814 33.4155 12.0174 34.5675C13.5854 35.6875 15.6014 36.2475 18.0654 36.2475C19.8574 36.2475 21.3294 35.8475 22.4814 35.0475C23.6654 34.2475 24.2574 33.2075 24.2574 31.9275C24.2574 30.9035 23.9374 30.0555 23.2974 29.3835C22.6894 28.7115 21.6974 28.1355 20.3214 27.6555C18.9774 27.1755 17.0894 26.7115 14.6574 26.2635C10.2734 25.4315 6.99344 24.0395 4.81744 22.0875C2.64144 20.1355 1.55344 17.3835 1.55344 13.8315C1.55344 11.5275 2.24144 9.52752 3.61744 7.83152C5.02544 6.13552 6.92944 4.83952 9.32944 3.94352C11.7294 3.01552 14.4174 2.55152 17.3934 2.55152ZM55.3569 21.8475H49.7889V42.6315H41.2449V21.8475H35.6769V14.5035H41.2449V6.15152H49.7889V14.5035H55.3569V21.8475ZM70.9899 43.3035C68.3339 43.3035 65.9659 42.6635 63.8859 41.3835C61.8059 40.1355 60.1899 38.3915 59.0379 36.1515C57.8859 33.9115 57.3099 31.3835 57.3099 28.5675C57.3099 25.7515 57.8859 23.2235 59.0379 20.9835C60.1899 18.7435 61.8059 16.9995 63.8859 15.7515C65.9659 14.4715 68.3339 13.8315 70.9899 13.8315C74.6059 13.8315 77.2939 15.0155 79.0539 17.3835V14.5035H87.5979V42.6315H79.0539V39.7515C77.2939 42.1195 74.6059 43.3035 70.9899 43.3035ZM72.3339 36.0075C74.4139 36.0075 76.0779 35.3195 77.3259 33.9435C78.5739 32.5355 79.1979 30.7435 79.1979 28.5675C79.1979 26.3915 78.5739 24.6155 77.3259 23.2395C76.0779 21.8315 74.4139 21.1275 72.3339 21.1275C70.3179 21.1275 68.7019 21.8315 67.4859 23.2395C66.2699 24.6155 65.6619 26.3915 65.6619 28.5675C65.6619 30.7435 66.2699 32.5355 67.4859 33.9435C68.7019 35.3195 70.3179 36.0075 72.3339 36.0075ZM94.0468 14.5035H102.591V17.3835C104.351 15.0155 106.975 13.8315 110.463 13.8315C111.999 13.8315 113.231 13.9915 114.159 14.3115L114.255 22.3275C113.039 21.6875 111.583 21.3675 109.887 21.3675C107.615 21.3675 105.823 21.9755 104.511 23.1915C103.231 24.4075 102.591 26.0875 102.591 28.2315V42.6315H94.0468V14.5035ZM163.989 11.2395H151.269V42.6315H142.533V11.2395H129.813V3.51152H163.989V11.2395ZM174.685 43.3035C172.509 43.3035 170.589 42.7915 168.925 41.7675C167.261 40.7755 165.965 39.3355 165.037 37.4475C164.141 35.5595 163.693 33.3355 163.693 30.7755V14.5035H172.237V29.3355C172.237 31.4795 172.653 33.1275 173.485 34.2795C174.349 35.3995 175.581 35.9595 177.181 35.9595C178.845 35.9595 180.157 35.3355 181.117 34.0875C182.077 32.8395 182.557 31.1275 182.557 28.9515V14.5035H191.101V42.6315H182.557V39.7515C180.797 42.1195 178.173 43.3035 174.685 43.3035ZM206.091 42.6315H197.547V2.31152H206.091V42.6315ZM216.772 0.919521C218.276 0.919521 219.524 1.41552 220.516 2.40752C221.508 3.39952 222.004 4.64752 222.004 6.15152C222.004 7.65552 221.508 8.90352 220.516 9.89552C219.524 10.8875 218.276 11.3835 216.772 11.3835C215.268 11.3835 214.02 10.8875 213.028 9.89552C212.036 8.90352 211.54 7.65552 211.54 6.15152C211.54 4.64752 212.036 3.39952 213.028 2.40752C214.02 1.41552 215.268 0.919521 216.772 0.919521ZM221.044 42.7275H212.5V14.5035H221.044V42.7275ZM227.453 14.5035H235.997V17.3835C237.757 15.0155 240.445 13.8315 244.061 13.8315C246.717 13.8315 249.085 14.4715 251.165 15.7515C253.245 16.9995 254.861 18.7435 256.013 20.9835C257.165 23.2235 257.741 25.7515 257.741 28.5675C257.741 31.3835 257.165 33.9115 256.013 36.1515C254.861 38.3915 253.245 40.1355 251.165 41.3835C249.085 42.6635 246.717 43.3035 244.061 43.3035C240.445 43.3035 237.757 42.1195 235.997 39.7515V54.3435H227.453V14.5035ZM242.717 36.0075C244.733 36.0075 246.349 35.3195 247.565 33.9435C248.781 32.5355 249.389 30.7435 249.389 28.5675C249.389 26.3915 248.781 24.6155 247.565 23.2395C246.349 21.8315 244.733 21.1275 242.717 21.1275C240.637 21.1275 238.973 21.8315 237.725 23.2395C236.477 24.6155 235.853 26.3915 235.853 28.5675C235.853 30.7435 236.477 32.5355 237.725 33.9435C238.973 35.3195 240.637 36.0075 242.717 36.0075Z" fill="#1A1A1A"/>
</svg>
