<svg width="556" height="137" viewBox="0 0 556 137" fill="none" xmlns="http://www.w3.org/2000/svg">
<path d="M13.5596 1.26953V1.88477C13.5596 2.78125 13.5596 4.3457 13.1025 6.41992L11.7666 6.24414C12.127 4.5127 12.1885 3.28223 12.2061 2.41211H8.25098V1.26953H13.5596ZM15.1768 7.36914V8.51172H0.956055V7.36914H7.68848V4.66211H9.05957V7.36914H15.1768ZM6.9502 1.26953V1.84961C6.9502 2.72852 6.9502 4.31055 6.22949 6.41992L4.87598 6.19141C5.45605 4.47754 5.57031 3.26465 5.59668 2.41211H2.18652V1.26953H6.9502ZM13.2959 10.6738V11.7812H8.74316C8.92773 13.4248 11.3623 14.8047 13.9463 15.1387L13.4365 16.1934C11.1162 15.8506 8.96289 14.7783 8.04004 13.2227C7.11719 14.7695 4.97266 15.8506 2.66113 16.1934L2.16895 15.1387C4.71777 14.8047 7.13477 13.4248 7.33691 11.7812H2.78418V10.6738H7.35449V9.05664H8.72559V10.6738H13.2959ZM29.3799 0.671875V9.35547H28.0264V0.671875H29.3799ZM29.5029 10.252V11.3945H27.3408V14.9453H29.6611V16.0703H18.8506V14.9453H21.1885V11.3945H18.9912V10.252H29.5029ZM20.96 1.51562C23.333 1.51562 25.0557 2.99219 25.0557 5.1543C25.0557 7.29883 23.333 8.77539 20.96 8.77539C18.5869 8.77539 16.8643 7.29883 16.8643 5.1543C16.8643 2.99219 18.5869 1.51562 20.96 1.51562ZM20.96 2.67578C19.3604 2.67578 18.2002 3.71289 18.2178 5.1543C18.2002 6.5957 19.3604 7.61523 20.96 7.61523C22.542 7.61523 23.7021 6.5957 23.7021 5.1543C23.7021 3.71289 22.542 2.67578 20.96 2.67578ZM22.542 14.9453H25.9697V11.3945H22.542V14.9453ZM41.8076 4.85547C41.8076 7.61523 43.6357 10.4453 45.8506 11.5352L45.0068 12.6426C43.2842 11.7373 41.8428 9.8916 41.1572 7.7207C40.4541 10.0322 38.9775 12.001 37.2197 12.9414L36.3408 11.834C38.626 10.709 40.4365 7.70312 40.4541 4.85547V2.00781H41.8076V4.85547ZM48.6631 0.654297V7H51.2822V8.19531H48.6631V16.2812H47.292V0.654297H48.6631ZM65.0107 0.654297V16.3164H63.6221V0.654297H65.0107ZM56.6963 1.86719C59.0166 1.88477 60.6865 3.99414 60.6865 7.31641C60.6865 10.6387 59.0166 12.748 56.6963 12.748C54.3584 12.748 52.7061 10.6387 52.7061 7.31641C52.7061 3.99414 54.3584 1.88477 56.6963 1.86719ZM56.6963 3.09766C55.1318 3.11523 54.042 4.76758 54.042 7.31641C54.042 9.86523 55.1318 11.5176 56.6963 11.5176C58.2607 11.5176 59.3506 9.86523 59.3506 7.31641C59.3506 4.76758 58.2607 3.11523 56.6963 3.09766ZM81.9912 13.1875V14.3477H67.6826V13.1875H74.1162V10.2344H69.4756V5.41797H78.8271V2.95703H69.4404V1.81445H80.1807V6.54297H70.8467V9.0918H80.5498V10.2344H75.4697V13.1875H81.9912ZM92.4326 5.06641C92.4326 7.63281 93.6807 10.2871 95.7549 11.4121L94.9287 12.502C93.417 11.6318 92.3359 10.041 91.7822 8.16016C91.1934 10.208 90.0332 11.957 88.4775 12.8887L87.5811 11.8691C89.7607 10.6211 91.0967 7.82617 91.0967 5.1543V2.13086H92.4326V5.06641ZM101.151 0.654297V16.2812H99.8154V8.08984H97.6709V15.4902H96.335V0.988281H97.6709V6.94727H99.8154V0.654297H101.151ZM107.515 1.86719C109.642 1.88477 111.171 3.7041 111.399 6.63086H114.897V0.654297H116.269V16.3164H114.897V7.77344H111.417C111.25 10.832 109.694 12.748 107.515 12.748C105.212 12.748 103.595 10.6387 103.595 7.31641C103.595 3.99414 105.212 1.88477 107.515 1.86719ZM107.515 3.09766C105.968 3.11523 104.913 4.76758 104.913 7.31641C104.913 9.86523 105.968 11.5176 107.515 11.5176C109.044 11.5176 110.116 9.86523 110.116 7.31641C110.116 4.76758 109.044 3.11523 107.515 3.09766ZM138.013 6.89453V8.05469H135.481V16.2812H134.11V0.654297H135.481V6.89453H138.013ZM125.409 2.20117V11.1484C127.694 11.1396 130.023 10.9639 132.599 10.4277L132.774 11.6055C130.085 12.1504 127.659 12.3086 125.286 12.3086H124.038V2.20117H125.409ZM146.063 1.67383C149.386 1.69141 151.776 3.30859 151.776 5.76953C151.776 8.09863 149.702 9.64551 146.731 9.83008V13.1172H153.253V14.2773H138.944V13.1172H145.378V9.83008C142.416 9.63672 140.351 8.08984 140.351 5.76953C140.351 3.30859 142.741 1.69141 146.063 1.67383ZM146.063 2.81641C143.532 2.81641 141.687 4.01172 141.687 5.76953C141.687 7.58008 143.532 8.74023 146.063 8.75781C148.595 8.74023 150.44 7.58008 150.44 5.76953C150.44 4.01172 148.595 2.81641 146.063 2.81641ZM167.14 5.40039V6.50781H156.435V1.23438H157.806V5.40039H167.14ZM168.792 8.63477V9.75977H154.483V8.63477H168.792ZM167.228 14.752V15.8945H156.347V11.3594H157.718V14.752H167.228ZM179.866 3.55469C179.866 5.62891 181.396 7.52734 183.716 8.33594L183.013 9.4082C181.229 8.77539 179.866 7.49219 179.198 5.875C178.53 7.65039 177.098 9.03027 175.261 9.70703L174.522 8.63477C176.86 7.80859 178.495 5.78711 178.513 3.55469V2.88672H174.944V1.76172H183.382V2.88672H179.866V3.55469ZM186.792 0.654297V4.78516H189.147V5.96289H186.792V10.0762H185.421V0.654297H186.792ZM186.792 10.9023V16.2812H185.421V12.0273H176.562V10.9023H186.792ZM204.37 8.89844V10.0234H190.132V8.89844H204.37ZM202.788 14.7871V15.9473H191.978V11.3945H193.366V14.7871H202.788ZM197.251 1.2168C200.608 1.19922 202.771 2.35938 202.771 4.31055C202.771 6.26172 200.608 7.42188 197.251 7.42188C193.858 7.42188 191.714 6.26172 191.714 4.31055C191.714 2.35938 193.858 1.19922 197.251 1.2168ZM197.251 2.32422C194.737 2.32422 193.12 3.08008 193.138 4.31055C193.12 5.54102 194.737 6.29688 197.251 6.29688C199.747 6.29688 201.364 5.54102 201.364 4.31055C201.364 3.08008 199.747 2.32422 197.251 2.32422ZM223.091 0.654297V9.74219H221.737V0.654297H223.091ZM223.495 10.8496V11.9395H218.854C218.934 13.4248 221.395 14.8838 224.04 15.209L223.53 16.2812C221.192 15.9473 219.057 14.8486 218.134 13.3984C217.202 14.8838 215.005 15.9648 212.649 16.2812L212.157 15.2266C214.803 14.9365 217.352 13.4775 217.431 11.9395H212.808V10.8496H217.448V9.33789H218.819V10.8496H223.495ZM212.403 1.32227V3.74805H217.009V1.32227H218.38V8.30078H211.032V1.32227H212.403ZM212.403 7.19336H217.009V4.82031H212.403V7.19336ZM240.001 8.89844V10.0234H225.763V8.89844H240.001ZM238.419 14.7871V15.9473H227.608V11.3945H228.997V14.7871H238.419ZM232.882 1.2168C236.239 1.19922 238.401 2.35938 238.401 4.31055C238.401 6.26172 236.239 7.42188 232.882 7.42188C229.489 7.42188 227.345 6.26172 227.345 4.31055C227.345 2.35938 229.489 1.19922 232.882 1.2168ZM232.882 2.32422C230.368 2.32422 228.751 3.08008 228.769 4.31055C228.751 5.54102 230.368 6.29688 232.882 6.29688C235.378 6.29688 236.995 5.54102 236.995 4.31055C236.995 3.08008 235.378 2.32422 232.882 2.32422ZM258.739 0.671875V12.2207H257.368V0.671875H258.739ZM259.231 14.7871V15.9473H248.649V11.1484H250.021V14.7871H259.231ZM251.515 4.31055C251.515 6.38477 253.185 8.21289 255.522 8.93359L254.837 10.041C253 9.45215 251.55 8.2041 250.847 6.57812C250.161 8.32715 248.72 9.68066 246.856 10.3223L246.153 9.23242C248.491 8.47656 250.144 6.50781 250.144 4.31055V3.88867H246.54V2.78125H250.144V0.742188H251.532V2.78125H255.101V3.88867H251.515V4.31055ZM273.751 1.67383V3.04492C273.751 4.53027 273.751 6.13867 273.312 8.38867H275.632V9.53125H269.181V16.3164H267.792V9.53125H261.394V8.38867H271.905C272.38 6.13867 272.38 4.49512 272.38 3.04492V2.81641H263.187V1.67383H273.751ZM291.241 7.91406V9.00391H276.933V7.91406H291.241ZM289.448 10.252V13.5742H280.062V15.0684H289.958V16.0703H278.673V12.625H288.077V11.2891H278.655V10.252H289.448ZM289.396 1.12891V4.36328H280.167V5.73438H289.677V6.73633H278.796V3.41406H288.007V2.13086H278.743V1.12891H289.396ZM311.562 3.39648V4.53906H309.241V6.70117H311.562V7.86133H309.241V10.7441H307.87V0.654297H309.241V3.39648H311.562ZM304.302 10.8496C307.483 10.8496 309.417 11.8516 309.417 13.5566C309.417 15.2617 307.483 16.2461 304.302 16.2461C301.12 16.2461 299.169 15.2617 299.187 13.5566C299.169 11.8516 301.12 10.8496 304.302 10.8496ZM304.302 11.9395C301.964 11.9395 300.54 12.5195 300.558 13.5566C300.54 14.5762 301.964 15.1738 304.302 15.1738C306.64 15.1738 308.046 14.5762 308.046 13.5566C308.046 12.5195 306.64 11.9395 304.302 11.9395ZM306.376 2.44727V3.53711H297.06V2.44727H301.032V0.53125H302.403V2.44727H306.376ZM301.718 4.3457C303.968 4.3457 305.462 5.43555 305.479 7.10547C305.462 8.79297 303.968 9.86523 301.718 9.86523C299.45 9.86523 297.938 8.79297 297.956 7.10547C297.938 5.43555 299.45 4.3457 301.718 4.3457ZM301.718 5.38281C300.241 5.40039 299.257 6.08594 299.274 7.10547C299.257 8.125 300.241 8.79297 301.718 8.79297C303.177 8.79297 304.161 8.125 304.179 7.10547C304.161 6.08594 303.177 5.40039 301.718 5.38281ZM324.798 0.671875V5.82227H327.153V6.98242H324.798V12.3789H323.427V0.671875H324.798ZM321.933 2.58789V3.71289H312.616V2.58789H316.589V0.671875H317.96V2.58789H321.933ZM317.274 4.57422C319.507 4.57422 321.019 5.7168 321.036 7.49219C321.019 9.25 319.507 10.375 317.274 10.375C315.024 10.375 313.495 9.25 313.513 7.49219C313.495 5.7168 315.024 4.57422 317.274 4.57422ZM317.274 5.66406C315.798 5.66406 314.813 6.38477 314.831 7.49219C314.813 8.59961 315.798 9.30273 317.274 9.28516C318.733 9.30273 319.718 8.59961 319.735 7.49219C319.718 6.38477 318.733 5.66406 317.274 5.66406ZM325.519 14.7871V15.9473H315.024V11.4473H316.378V14.7871H325.519ZM336.206 1.97266C338.245 1.97266 339.563 4.08203 339.581 7.4043C339.563 10.7266 338.245 12.8359 336.206 12.8359C334.167 12.8359 332.849 10.7266 332.849 7.4043C332.849 4.08203 334.167 1.97266 336.206 1.97266ZM336.206 3.27344C334.94 3.27344 334.132 4.85547 334.149 7.4043C334.132 9.93555 334.94 11.5352 336.206 11.5176C337.472 11.5352 338.28 9.93555 338.28 7.4043C338.28 4.85547 337.472 3.27344 336.206 3.27344ZM346.05 0.654297V16.2812H344.714V8.00195H342.534V15.4902H341.216V0.988281H342.534V6.85938H344.714V0.654297H346.05ZM361.167 0.654297V9.9707H359.778V5.875H356.632V4.73242H359.778V0.654297H361.167ZM355.981 10.4629C359.233 10.4629 361.22 11.5176 361.22 13.3633C361.22 15.209 359.233 16.2637 355.981 16.2812C352.729 16.2637 350.743 15.209 350.743 13.3633C350.743 11.5176 352.729 10.4629 355.981 10.4629ZM355.981 11.5352C353.591 11.5352 352.097 12.2207 352.114 13.3633C352.097 14.4883 353.591 15.1738 355.981 15.1738C358.372 15.1738 359.849 14.4883 359.849 13.3633C359.849 12.2207 358.372 11.5352 355.981 11.5352ZM353.644 3.51953C353.644 5.55859 355.208 7.49219 357.493 8.2832L356.772 9.39062C355.015 8.75781 353.652 7.44824 352.993 5.82227C352.308 7.65918 350.857 9.12695 349.003 9.83008L348.282 8.72266C350.603 7.87891 352.255 5.76953 352.255 3.53711V2.95703H348.722V1.79688H357.142V2.95703H353.644V3.51953ZM376.653 0.654297V16.3164H375.265V0.654297H376.653ZM368.339 1.86719C370.659 1.88477 372.329 3.99414 372.329 7.31641C372.329 10.6387 370.659 12.748 368.339 12.748C366.001 12.748 364.349 10.6387 364.349 7.31641C364.349 3.99414 366.001 1.88477 368.339 1.86719ZM368.339 3.09766C366.774 3.11523 365.685 4.76758 365.685 7.31641C365.685 9.86523 366.774 11.5176 368.339 11.5176C369.903 11.5176 370.993 9.86523 370.993 7.31641C370.993 4.76758 369.903 3.11523 368.339 3.09766ZM391.858 2.23633V3.80078C391.841 5.7168 391.841 7.86133 391.278 11.0078L389.872 10.8496C390.47 7.86133 390.47 5.66406 390.47 3.80078V3.37891H380.837V2.23633H391.858ZM393.563 12.9238V14.0664H379.325V12.9238H384.915V7.33398H386.269V12.9238H393.563ZM397.448 13.6797L396.077 18.4609H394.776L395.743 13.6797H397.448ZM416.222 0.654297V4.04688H418.577V5.20703H416.222V8.61719H414.851V0.654297H416.222ZM411.897 1.55078V7.79102H404.673V1.55078H411.897ZM406.026 2.67578V6.68359H410.562V2.67578H406.026ZM416.222 9.35547V13.1699H407.644V14.9629H416.802V16.0703H406.29V12.1152H414.851V10.4629H406.255V9.35547H416.222ZM422.673 9.83008V11.7812H425.521V9.83008H426.804V16.0703H421.372V9.83008H422.673ZM422.673 14.9805H425.521V12.8359H422.673V14.9805ZM431.269 11.0605C431.251 12.7129 432.235 14.4355 434.151 15.1387L433.431 16.1934C431.989 15.6133 431.04 14.5146 430.565 13.2051C430.064 14.4883 429.115 15.5957 427.735 16.1934L427.015 15.1387C428.896 14.3652 429.897 12.6426 429.897 11.0605V9.72461H431.269V11.0605ZM423.868 1.35742C425.96 1.35742 427.56 2.54395 427.858 4.3457H431.128V0.654297H432.517V8.93359H431.128V5.48828H427.876C427.595 7.33398 425.986 8.54688 423.868 8.54688C421.495 8.54688 419.808 7.08789 419.808 4.94336C419.808 2.81641 421.495 1.35742 423.868 1.35742ZM423.868 2.51758C422.269 2.51758 421.126 3.51953 421.126 4.94336C421.126 6.38477 422.269 7.4043 423.868 7.4043C425.45 7.4043 426.575 6.38477 426.575 4.94336C426.575 3.51953 425.45 2.51758 423.868 2.51758ZM448.003 0.654297V16.3164H446.614V0.654297H448.003ZM439.688 1.86719C442.009 1.88477 443.679 3.99414 443.679 7.31641C443.679 10.6387 442.009 12.748 439.688 12.748C437.351 12.748 435.698 10.6387 435.698 7.31641C435.698 3.99414 437.351 1.88477 439.688 1.86719ZM439.688 3.09766C438.124 3.11523 437.034 4.76758 437.034 7.31641C437.034 9.86523 438.124 11.5176 439.688 11.5176C441.253 11.5176 442.343 9.86523 442.343 7.31641C442.343 4.76758 441.253 3.11523 439.688 3.09766ZM468.147 0.671875V12.2207H466.759V6.64844H463.296V5.48828H466.759V0.671875H468.147ZM463.366 1.86719C463.349 5.875 460.483 8.93359 456.036 10.3926L455.438 9.28516C459.042 8.09863 461.547 5.85742 461.854 3.02734H456.229V1.86719H463.366ZM468.552 14.7871V15.9473H458.198V11.043H459.604V14.7871H468.552ZM472.894 2.35938V11.1133C474.581 11.0957 476.181 10.999 478.062 10.6035L478.255 11.7988C476.163 12.2383 474.423 12.3262 472.507 12.3262H471.522V2.35938H472.894ZM484.126 0.654297V16.2812H482.808V0.654297H484.126ZM480.786 1.04102V15.4902H479.468V7.07031H475.899V5.92773H479.468V1.04102H480.786ZM498.944 5.40039V6.50781H488.239V1.23438H489.61V5.40039H498.944ZM500.597 8.63477V9.75977H486.288V8.63477H500.597ZM499.032 14.752V15.8945H488.151V11.3594H489.522V14.752H499.032ZM508.278 2.14844V5.96289H511.671V2.14844H512.954V12.3789H506.96V2.14844H508.278ZM508.278 11.2363H511.671V7.08789H508.278V11.2363ZM519.774 0.654297V16.2812H518.438V8.00195H516.259V15.4902H514.94V0.988281H516.259V6.85938H518.438V0.654297H519.774ZM534.874 0.654297V16.3164H533.503V9.6543H530.251V8.49414H533.503V5.38281H530.374V4.22266H533.503V0.654297H534.874ZM529.354 2.07812V7.63281H523.905V11.4824C526.252 11.4736 528.194 11.3857 530.567 11.0254L530.69 12.1855C528.194 12.5723 526.19 12.6602 523.694 12.6602H522.534V6.50781H528.001V3.2207H522.481V2.07812H529.354ZM549.587 0.654297V6.8418H552.206V8.00195H549.587V16.3164H548.216V0.654297H549.587ZM545.474 2.18359V3.32617H539.55V11.2363C542.38 11.2363 544.384 11.1045 546.704 10.6738L546.88 11.8691C544.437 12.3086 542.38 12.3965 539.409 12.3965H538.179V2.18359H545.474ZM554.702 14.9629C554.087 14.9629 553.56 14.4531 553.577 13.8203C553.56 13.2051 554.087 12.6953 554.702 12.6953C555.317 12.6953 555.827 13.2051 555.827 13.8203C555.827 14.4531 555.317 14.9629 554.702 14.9629ZM13.2607 32.3242V33.8887C13.2607 35.8574 13.2607 38.0898 12.6807 41.4824L11.2744 41.3418C11.9072 38.1426 11.9072 35.8047 11.9072 33.8887V33.4668H2.48535V32.3242H13.2607ZM15.1768 42.8359V43.9785H0.938477V42.8359H15.1768ZM33.8975 30.6543V39.7422H32.5439V30.6543H33.8975ZM34.3018 40.8496V41.9395H29.6611C29.7402 43.4248 32.2012 44.8838 34.8467 45.209L34.3369 46.2812C31.999 45.9473 29.8633 44.8486 28.9404 43.3984C28.0088 44.8838 25.8115 45.9648 23.4561 46.2812L22.9639 45.2266C25.6094 44.9365 28.1582 43.4775 28.2373 41.9395H23.6143V40.8496H28.2549V39.3379H29.626V40.8496H34.3018ZM23.21 31.3223V33.748H27.8154V31.3223H29.1865V38.3008H21.8389V31.3223H23.21ZM23.21 37.1934H27.8154V34.8203H23.21V37.1934ZM50.8076 38.8984V40.0234H36.5693V38.8984H50.8076ZM49.2256 44.7871V45.9473H38.415V41.3945H39.8037V44.7871H49.2256ZM43.6885 31.2168C47.0459 31.1992 49.208 32.3594 49.208 34.3105C49.208 36.2617 47.0459 37.4219 43.6885 37.4219C40.2959 37.4219 38.1514 36.2617 38.1514 34.3105C38.1514 32.3594 40.2959 31.1992 43.6885 31.2168ZM43.6885 32.3242C41.1748 32.3242 39.5576 33.0801 39.5752 34.3105C39.5576 35.541 41.1748 36.2969 43.6885 36.2969C46.1846 36.2969 47.8018 35.541 47.8018 34.3105C47.8018 33.0801 46.1846 32.3242 43.6885 32.3242ZM58.8057 31.5859V34.1875H63.165V31.5859H64.5186V33.168H68.21V30.6543H69.5986V39.9531H68.21V37.4922H64.5186V39.0566H57.4346V31.5859H58.8057ZM58.8057 37.9141H63.165V35.2773H58.8057V37.9141ZM69.5986 40.7793V46.2812H68.21V41.9043H59.0869V40.7793H69.5986ZM64.5186 36.3496H68.21V34.3105H64.5186V36.3496ZM85.5947 30.6543V46.2812H84.2588V30.6543H85.5947ZM82.4482 30.9883V45.4902H81.1299V37.8965H79.126C78.9766 40.9375 77.6846 42.8359 75.751 42.8359C73.7119 42.8359 72.3936 40.7266 72.3936 37.4043C72.3936 34.082 73.7119 31.9727 75.751 31.9727C77.6494 31.9727 78.9326 33.8096 79.1084 36.7539H81.1299V30.9883H82.4482ZM75.751 33.2734C74.4854 33.2734 73.6768 34.8555 73.6943 37.4043C73.6768 39.9355 74.4854 41.5352 75.751 41.5176C77.0166 41.5352 77.8252 39.9355 77.8252 37.4043C77.8252 34.8555 77.0166 33.2734 75.751 33.2734ZM106.583 43.1172V44.2773H92.2744V43.1172H98.7256V39.3203H100.114V43.1172H106.583ZM100.114 33.625C100.114 36.1211 103.208 38.2656 105.897 38.7051L105.335 39.7949C102.944 39.3291 100.422 37.8086 99.4287 35.6289C98.418 37.8174 95.9043 39.373 93.5576 39.8652L92.9775 38.7578C95.6143 38.3008 98.6904 36.1211 98.6904 33.625V33.2383H93.4521V32.0781H105.353V33.2383H100.114V33.625ZM122.069 38.3887V39.5312H107.831V38.3887H111.364V36.1914C110.116 35.708 109.413 34.9082 109.413 33.8535C109.413 32.0078 111.522 30.9531 114.95 30.9531C118.343 30.9531 120.47 32.0078 120.47 33.8535C120.47 34.8994 119.775 35.6992 118.536 36.1738V38.3887H122.069ZM114.95 40.7266C118.308 40.7266 120.312 41.6934 120.329 43.4863C120.312 45.2617 118.308 46.2461 114.95 46.2461C111.558 46.2461 109.554 45.2617 109.554 43.4863C109.554 41.6934 111.558 40.7266 114.95 40.7266ZM114.95 41.7812C112.437 41.7988 110.942 42.4141 110.96 43.4863C110.942 44.541 112.437 45.1738 114.95 45.1738C117.429 45.1738 118.94 44.541 118.94 43.4863C118.94 42.4141 117.429 41.7988 114.95 41.7812ZM114.95 32.043C112.401 32.043 110.819 32.7285 110.837 33.8535C110.819 34.9961 112.401 35.6641 114.95 35.6641C117.481 35.6641 119.063 34.9961 119.063 33.8535C119.063 32.7285 117.481 32.043 114.95 32.043ZM112.735 38.3887H117.165V36.5605C116.506 36.6748 115.768 36.7363 114.95 36.7363C114.133 36.7363 113.395 36.6748 112.735 36.5605V38.3887ZM136.272 30.6543V46.2812H134.884V30.6543H136.272ZM133.196 33.2031V34.3281H123.739V33.2031H127.765V30.8125H129.153V33.2031H133.196ZM128.503 35.6113C130.753 35.6113 132.37 37.0879 132.37 39.1973C132.37 41.3066 130.753 42.7832 128.503 42.7832C126.235 42.7832 124.601 41.3066 124.618 39.1973C124.601 37.0879 126.235 35.6113 128.503 35.6113ZM128.503 36.7715C127.009 36.7715 125.919 37.791 125.919 39.1973C125.919 40.6211 127.009 41.623 128.503 41.6055C129.979 41.623 131.052 40.6211 131.052 39.1973C131.052 37.791 129.979 36.7715 128.503 36.7715ZM156.399 30.6543V38.8281H155.028V36.8242H151.337V38.1953H144.253V31.3926H145.624V33.6426H149.983V31.3926H151.337V32.9043H155.028V30.6543H156.399ZM156.399 39.584V43.2578H147.681V44.9629H156.997V46.0703H146.31V42.2031H155.028V40.6914H146.274V39.584H156.399ZM145.624 37.0703H149.983V34.7324H145.624V37.0703ZM151.337 35.7344H155.028V33.9766H151.337V35.7344ZM166.138 30.9355C169.618 30.9355 171.657 31.8848 171.657 33.625C171.657 35.4004 169.618 36.3496 166.138 36.3672C162.657 36.3496 160.601 35.4004 160.601 33.625C160.601 31.8848 162.657 30.9355 166.138 30.9355ZM166.138 31.9727C163.536 31.9727 162.024 32.6055 162.042 33.625C162.024 34.7148 163.536 35.3125 166.138 35.3125C168.722 35.3125 170.251 34.7148 170.251 33.625C170.251 32.6055 168.722 31.9727 166.138 31.9727ZM173.257 37.4219V38.5469H159.019V37.4219H173.257ZM171.429 39.9004V43.3984H162.147V45.0156H171.903V46.1055H160.776V42.3789H170.075V40.9551H160.741V39.9004H171.429ZM191.31 30.6719V34.2578H193.683V35.418H191.31V39.4961H189.938V30.6719H191.31ZM191.31 40.3574V46.0703H181.413V40.3574H191.31ZM182.767 41.4473V44.9453H189.974V41.4473H182.767ZM181.237 31.4629V37.1406C183.461 37.1318 185.755 36.9561 188.286 36.4375L188.462 37.5977C185.808 38.125 183.452 38.3008 181.097 38.3008H179.849V31.4629H181.237ZM207.569 30.6543V46.2812H206.181V30.6543H207.569ZM202.946 32.3594C202.929 36.8594 200.837 40.832 195.599 43.3457L194.843 42.2207C199.07 40.2168 201.224 37.2197 201.54 33.4844H195.563V32.3594H202.946ZM222.739 32.2363V33.8008C222.722 35.7168 222.722 37.8613 222.159 41.0078L220.753 40.8496C221.351 37.8613 221.351 35.6641 221.351 33.8008V33.3789H211.718V32.2363H222.739ZM224.444 42.9238V44.0664H210.206V42.9238H215.796V37.334H217.149V42.9238H224.444ZM228.329 43.6797L226.958 48.4609H225.657L226.624 43.6797H228.329ZM239.087 31.8672C241.214 31.8848 242.743 33.7041 242.972 36.6309H246.47V30.6543H247.841V46.3164H246.47V37.7734H242.989C242.822 40.832 241.267 42.748 239.087 42.748C236.784 42.748 235.167 40.6387 235.167 37.3164C235.167 33.9941 236.784 31.8848 239.087 31.8672ZM239.087 33.0977C237.54 33.1152 236.485 34.7676 236.485 37.3164C236.485 39.8652 237.54 41.5176 239.087 41.5176C240.616 41.5176 241.688 39.8652 241.688 37.3164C241.688 34.7676 240.616 33.1152 239.087 33.0977ZM264.698 37.8965V39.0391H258.229V40.8848H262.958V46.0703H252.183V40.8848H256.876V39.0391H250.442V37.8965H264.698ZM253.554 41.9922V44.9453H261.604V41.9922H253.554ZM263.063 35.2773V36.4023H252.253V31.2871H262.923V32.4297H253.624V35.2773H263.063ZM284.808 38.5117V39.6543H270.517V38.5117H276.95V36.1035H278.304V38.5117H284.808ZM278.321 31.6387C278.321 33.7129 281.134 35.4531 283.894 35.8398L283.331 36.9473C280.958 36.5342 278.611 35.2773 277.636 33.4668C276.651 35.2861 274.296 36.5342 271.905 36.9473L271.378 35.8398C274.138 35.4531 276.933 33.7129 276.933 31.6387V30.9004H278.321V31.6387ZM282.997 41.1836V46.2812H281.608V42.291H272.099V41.1836H282.997ZM299.468 30.6543V46.2812H298.132V30.6543H299.468ZM296.321 30.9883V45.4902H295.003V37.8965H292.999C292.85 40.9375 291.558 42.8359 289.624 42.8359C287.585 42.8359 286.267 40.7266 286.267 37.4043C286.267 34.082 287.585 31.9727 289.624 31.9727C291.522 31.9727 292.806 33.8096 292.981 36.7539H295.003V30.9883H296.321ZM289.624 33.2734C288.358 33.2734 287.55 34.8555 287.567 37.4043C287.55 39.9355 288.358 41.5352 289.624 41.5176C290.89 41.5352 291.698 39.9355 291.698 37.4043C291.698 34.8555 290.89 33.2734 289.624 33.2734ZM307.132 34.8555C307.132 37.6855 308.942 40.5332 311.21 41.5703L310.384 42.6953C308.608 41.7812 307.141 39.9092 306.446 37.6855C305.752 40.0234 304.284 42.0273 302.509 42.9766L301.612 41.8691C303.897 40.7441 305.726 37.7383 305.726 34.8555V32.0078H307.132V34.8555ZM314.585 30.6543V46.3164H313.214V37.123H309.505V35.998H313.214V30.6543H314.585ZM329.808 37.9844V39.1094H324.974V43.1523H331.495V44.3125H317.187V43.1523H323.62V39.1094H319.015V31.9375H329.649V33.0625H320.403V37.9844H329.808ZM342.763 34.8555C342.763 37.6855 344.573 40.5332 346.841 41.5703L346.015 42.6953C344.239 41.7812 342.771 39.9092 342.077 37.6855C341.383 40.0234 339.915 42.0273 338.14 42.9766L337.243 41.8691C339.528 40.7441 341.356 37.7383 341.356 34.8555V32.0078H342.763V34.8555ZM350.216 30.6543V46.3164H348.845V37.123H345.136V35.998H348.845V30.6543H350.216ZM367.126 43.1875V44.3477H352.817V43.1875H359.251V40.2344H354.61V35.418H363.962V32.957H354.575V31.8145H365.315V36.543H355.981V39.0918H365.685V40.2344H360.604V43.1875H367.126ZM382.665 37.9141V39.0039H368.356V37.9141H382.665ZM380.872 40.252V43.5742H371.485V45.0684H381.382V46.0703H370.097V42.625H379.501V41.2891H370.079V40.252H380.872ZM380.819 31.1289V34.3633H371.591V35.7344H381.101V36.7363H370.22V33.4141H379.431V32.1309H370.167V31.1289H380.819ZM401.526 40.4277V41.6055H397.079C397.185 43.3281 399.549 44.7607 402.159 45.1562L401.649 46.2109C399.329 45.8418 397.237 44.7344 396.341 43.1523C395.453 44.7256 393.388 45.8418 391.103 46.2109L390.593 45.1562C393.186 44.7607 395.497 43.3281 395.655 41.6055H391.226V40.4277H401.526ZM401.351 30.6719V39.6191H399.979V30.6719H401.351ZM392.913 31.5859C395.286 31.5859 397.009 33.0625 397.009 35.207C397.009 37.3516 395.286 38.8281 392.913 38.8281C390.54 38.8281 388.817 37.3516 388.817 35.207C388.817 33.0625 390.54 31.5859 392.913 31.5859ZM392.913 32.7637C391.313 32.7461 390.153 33.748 390.171 35.207C390.153 36.6836 391.313 37.668 392.913 37.6855C394.495 37.668 395.655 36.6836 395.655 35.207C395.655 33.748 394.495 32.7461 392.913 32.7637ZM409.595 35.4531C409.595 38.1074 411.528 40.7969 413.831 41.7988L413.058 42.8887C411.229 42.0537 409.647 40.252 408.927 38.0898C408.188 40.3838 406.615 42.3789 404.831 43.2754L404.005 42.1855C406.237 41.1133 408.188 38.1602 408.206 35.4531V33.4141H404.515V32.2715H413.321V33.4141H409.595V35.4531ZM416.89 30.6543V46.2812H415.501V30.6543H416.89ZM428.438 31.5508C430.776 31.5508 432.499 33.0449 432.499 35.1543C432.499 37.2812 430.776 38.7578 428.438 38.7754C426.101 38.7578 424.36 37.2812 424.378 35.1543C424.36 33.0449 426.101 31.5508 428.438 31.5508ZM428.438 32.7109C426.909 32.7109 425.714 33.748 425.731 35.1543C425.714 36.5957 426.909 37.6328 428.438 37.6328C429.985 37.6328 431.146 36.5957 431.146 35.1543C431.146 33.748 429.985 32.7109 428.438 32.7109ZM436.296 30.6543V34.1875H438.651V35.3301H436.296V38.4766H434.925V30.6543H436.296ZM427.085 40.1641V44.7168C427.99 44.6904 429.194 44.5586 430.302 44.1895L430.513 45.2969C428.983 45.8066 427.507 45.8594 426.487 45.8594H425.749V40.1641H427.085ZM437.86 40.2344V41.3066H429.968V40.2344H433.255V38.8457H434.608V40.2344H437.86ZM433.905 41.834C435.61 41.834 436.823 42.6953 436.841 44.0488C436.823 45.4023 435.61 46.2461 433.905 46.2461C432.183 46.2461 430.987 45.4023 431.005 44.0488C430.987 42.6953 432.183 41.834 433.905 41.834ZM433.905 42.8359C432.938 42.8359 432.235 43.3281 432.235 44.0488C432.235 44.7871 432.938 45.2617 433.905 45.2617C434.89 45.2617 435.575 44.7871 435.575 44.0488C435.575 43.3281 434.89 42.8359 433.905 42.8359ZM453.013 30.6543V46.2812H451.694V30.6543H453.013ZM449.726 31.0762V45.4902H448.407V38.1953H445.103C444.145 40.0146 442.642 41.623 440.462 42.9062L439.653 41.9043C443.055 39.8916 444.76 37.0703 445.015 33.8008H440.321V32.6582H446.386C446.377 34.1963 446.131 35.6816 445.612 37.0703H448.407V31.0762H449.726ZM467.515 33.3613V34.4863H459.675V33.3613H462.927V31.1289H464.298V33.3613H467.515ZM463.595 35.541C465.563 35.541 466.97 37.0176 466.987 39.0918C466.97 41.1836 465.563 42.6777 463.595 42.6777C461.644 42.6777 460.237 41.1836 460.237 39.0918C460.237 37.0176 461.644 35.541 463.595 35.541ZM463.595 36.7012C462.364 36.7188 461.468 37.7207 461.468 39.0918C461.468 40.4805 462.364 41.4824 463.595 41.4648C464.843 41.4824 465.757 40.4805 465.757 39.0918C465.757 37.7207 464.843 36.7188 463.595 36.7012ZM473.017 30.6543V46.2812H471.698V38.3887H469.624V45.5078H468.323V31.041H469.624V37.2461H471.698V30.6543H473.017ZM483.282 32.6055C483.265 34.5215 485.901 36.0859 488.661 36.4727L488.116 37.5625C485.594 37.2021 483.238 35.9365 482.386 34.0996C481.542 35.9365 479.195 37.2021 476.655 37.5625L476.146 36.4727C478.905 36.0859 481.489 34.5215 481.489 32.6055V32.5703H476.567V31.4453H488.239V32.5703H483.282V32.6055ZM489.558 38.7051V39.8477H483.194V43.0469H481.823V39.8477H475.249V38.7051H489.558ZM487.958 44.7871V45.9473H477.077V41.4824H478.466V44.7871H487.958ZM502.917 30.6543V36.8418H505.536V38.002H502.917V46.3164H501.546V30.6543H502.917ZM498.804 32.1836V33.3262H492.88V41.2363C495.71 41.2363 497.714 41.1045 500.034 40.6738L500.21 41.8691C497.767 42.3086 495.71 42.3965 492.739 42.3965H491.509V32.1836H498.804ZM508.032 44.9629C507.417 44.9629 506.89 44.4531 506.907 43.8203C506.89 43.2051 507.417 42.6953 508.032 42.6953C508.647 42.6953 509.157 43.2051 509.157 43.8203C509.157 44.4531 508.647 44.9629 508.032 44.9629ZM13.5771 65.418V66.543H2.90723V61.252H4.27832V65.418H13.5771ZM15.1943 68.3887V69.5312H8.86621V72.7656H7.49512V69.5312H0.938477V68.3887H15.1943ZM13.6826 74.7871V75.9473H2.7666V71.377H4.1377V74.7871H13.6826ZM29.8896 60.6543V76.2812H28.5537V60.6543H29.8896ZM26.7432 60.9883V75.4902H25.4248V67.8965H23.4209C23.2715 70.9375 21.9795 72.8359 20.0459 72.8359C18.0068 72.8359 16.6885 70.7266 16.6885 67.4043C16.6885 64.082 18.0068 61.9727 20.0459 61.9727C21.9443 61.9727 23.2275 63.8096 23.4033 66.7539H25.4248V60.9883H26.7432ZM20.0459 63.2734C18.7803 63.2734 17.9717 64.8555 17.9893 67.4043C17.9717 69.9355 18.7803 71.5352 20.0459 71.5176C21.3115 71.5352 22.1201 69.9355 22.1201 67.4043C22.1201 64.8555 21.3115 63.2734 20.0459 63.2734ZM49.5771 60.6543V76.2812H48.2236V60.6543H49.5771ZM36.6045 71.377C39.7334 71.377 43.6885 71.377 47.2568 70.9375L47.3623 71.957C43.6885 72.5195 39.8564 72.5547 36.7979 72.5547L36.6045 71.377ZM46.624 67.2812V68.459H42.2998V62.3066H46.501V63.4492H43.6709V67.2812H46.624ZM41.4561 62.3066V63.4492H38.7666V67.2812C39.6455 67.2725 40.5771 67.2021 41.667 66.9648L41.8076 68.125C40.3486 68.4238 39.2236 68.459 38.0986 68.459H37.3955V62.3066H41.4561ZM57.7158 65.4531C57.7158 68.1074 59.6494 70.7969 61.9521 71.7988L61.1787 72.8887C59.3506 72.0537 57.7686 70.252 57.0479 68.0898C56.3096 70.3838 54.7363 72.3789 52.9521 73.2754L52.126 72.1855C54.3584 71.1133 56.3096 68.1602 56.3271 65.4531V63.4141H52.6357V62.2715H61.4424V63.4141H57.7158V65.4531ZM65.0107 60.6543V76.2812H63.6221V60.6543H65.0107ZM76.5596 61.5508C78.8975 61.5508 80.6201 63.0449 80.6201 65.1543C80.6201 67.2812 78.8975 68.7578 76.5596 68.7754C74.2217 68.7578 72.4814 67.2812 72.499 65.1543C72.4814 63.0449 74.2217 61.5508 76.5596 61.5508ZM76.5596 62.7109C75.0303 62.7109 73.835 63.748 73.8525 65.1543C73.835 66.5957 75.0303 67.6328 76.5596 67.6328C78.1064 67.6328 79.2666 66.5957 79.2666 65.1543C79.2666 63.748 78.1064 62.7109 76.5596 62.7109ZM84.417 60.6543V64.1875H86.7725V65.3301H84.417V68.4766H83.0459V60.6543H84.417ZM75.2061 70.1641V74.7168C76.1113 74.6904 77.3154 74.5586 78.4229 74.1895L78.6338 75.2969C77.1045 75.8066 75.6279 75.8594 74.6084 75.8594H73.8701V70.1641H75.2061ZM85.9814 70.2344V71.3066H78.0889V70.2344H81.376V68.8457H82.7295V70.2344H85.9814ZM82.0264 71.834C83.7314 71.834 84.9443 72.6953 84.9619 74.0488C84.9443 75.4023 83.7314 76.2461 82.0264 76.2461C80.3037 76.2461 79.1084 75.4023 79.126 74.0488C79.1084 72.6953 80.3037 71.834 82.0264 71.834ZM82.0264 72.8359C81.0596 72.8359 80.3564 73.3281 80.3564 74.0488C80.3564 74.7871 81.0596 75.2617 82.0264 75.2617C83.0107 75.2617 83.6963 74.7871 83.6963 74.0488C83.6963 73.3281 83.0107 72.8359 82.0264 72.8359ZM91.9404 61.8672C94.2432 61.8848 95.8779 63.9941 95.8955 67.3164C95.8779 70.6387 94.2432 72.748 91.9404 72.748C89.6201 72.748 88.0029 70.6387 88.0029 67.3164C88.0029 63.9941 89.6201 61.8848 91.9404 61.8672ZM91.9404 63.0977C90.3936 63.1152 89.3037 64.7676 89.3037 67.3164C89.3037 69.8652 90.3936 71.5176 91.9404 71.5176C93.5049 71.5176 94.5596 69.8652 94.5596 67.3164C94.5596 64.7676 93.5049 63.1152 91.9404 63.0977ZM99.8506 60.6543V66.8945H102.47V68.0898H99.8506V76.2812H98.4795V60.6543H99.8506ZM115.935 67.9844V69.1094H111.101V73.1523H117.622V74.3125H103.313V73.1523H109.747V69.1094H105.142V61.9375H115.776V63.0625H106.53V67.9844H115.935ZM136.396 69.7422V70.7969H127.677V72.3262H136.149V73.3809H127.677V74.998H136.694V76.0703H126.288V69.7422H136.396ZM136.343 60.6543V69.1094H134.954V67.2637H130.806V66.1738H134.954V64.2051H131.034C130.067 66.7363 127.642 68.4941 124.126 69.4082L123.599 68.2832C127.483 67.3252 129.751 65.3213 130.015 62.7285H124.39V61.6035H131.491C131.491 62.1309 131.438 62.6318 131.351 63.1152H134.954V60.6543H136.343ZM146.063 60.9355C149.544 60.9355 151.583 61.8848 151.583 63.625C151.583 65.4004 149.544 66.3496 146.063 66.3672C142.583 66.3496 140.526 65.4004 140.526 63.625C140.526 61.8848 142.583 60.9355 146.063 60.9355ZM146.063 61.9727C143.462 61.9727 141.95 62.6055 141.968 63.625C141.95 64.7148 143.462 65.3125 146.063 65.3125C148.647 65.3125 150.177 64.7148 150.177 63.625C150.177 62.6055 148.647 61.9727 146.063 61.9727ZM153.183 67.4219V68.5469H138.944V67.4219H153.183ZM151.354 69.9004V73.3984H142.073V75.0156H151.829V76.1055H140.702V72.3789H150.001V70.9551H140.667V69.9004H151.354ZM164.608 65.4531C164.608 68.1074 166.542 70.7969 168.845 71.7988L168.071 72.8887C166.243 72.0537 164.661 70.252 163.94 68.0898C163.202 70.3838 161.629 72.3789 159.845 73.2754L159.019 72.1855C161.251 71.1133 163.202 68.1602 163.22 65.4531V63.4141H159.528V62.2715H168.335V63.4141H164.608V65.4531ZM171.903 60.6543V76.2812H170.515V60.6543H171.903ZM182.521 62.2891C182.521 63.2295 182.441 64.1523 182.292 65.0488H186.142V60.6367H187.513V76.2812H186.142V70.3398H181.817V69.2148H186.142V66.1914H182.028C181.202 69.1445 179.26 71.7549 175.384 73.6973L174.593 72.6426C177.467 71.2012 179.242 69.3994 180.218 67.2812L174.892 67.791L174.646 66.5957L180.64 66.1914C180.921 65.3213 181.088 64.3984 181.149 63.4316H175.437V62.2891H182.521ZM198.024 62.8691C198.007 64.9609 200.802 66.7363 203.526 67.1406L203.017 68.2305C200.573 67.8174 198.2 66.5166 197.251 64.627C196.302 66.5166 193.92 67.8174 191.521 68.2305L190.976 67.1406C193.683 66.7363 196.478 64.9609 196.478 62.8691V62.7637H191.468V61.6387H203.017V62.7637H198.024V62.8691ZM204.37 69.5664V70.709H197.901V76.2812H196.548V70.709H190.132V69.5664H204.37ZM218.327 65.4004V66.5078H207.622V61.2344H208.993V65.4004H218.327ZM219.979 68.6348V69.7598H205.671V68.6348H219.979ZM218.415 74.752V75.8945H207.534V71.3594H208.905V74.752H218.415ZM238.718 60.6719V71.2539H237.329V66.2266H233.901V65.0664H237.329V60.6719H238.718ZM233.831 61.9023C233.813 65.9102 231.142 68.793 226.642 70.2344L226.026 69.127C229.762 67.9756 232.064 65.8047 232.354 63.0273H226.8V61.9023H233.831ZM234.323 70.6035C234.323 72.8887 236.819 74.5938 239.579 75.0859L238.999 76.1934C236.696 75.7451 234.578 74.541 233.655 72.7129C232.697 74.5498 230.553 75.7715 228.224 76.2285L227.661 75.1387C230.421 74.6641 232.952 72.9062 232.97 70.6035V69.8828H234.323V70.6035ZM242.972 74.9629C242.356 74.9629 241.829 74.4531 241.847 73.8203C241.829 73.2051 242.356 72.6953 242.972 72.6953C243.587 72.6953 244.097 73.2051 244.097 73.8203C244.097 74.4531 243.587 74.9629 242.972 74.9629ZM17.6729 90.6543V94.8203H20.0283V95.998H17.6729V100.076H16.3018V90.6543H17.6729ZM17.6729 100.973V106.07H7.81152V100.973H17.6729ZM9.16504 102.08V104.945H16.3018V102.08H9.16504ZM14.8076 92.3242V93.4668H5.49121V92.3242H9.46387V90.5312H10.835V92.3242H14.8076ZM10.1494 94.2402C12.3994 94.2402 13.8936 95.3477 13.9111 97.0176C13.8936 98.7227 12.3994 99.8125 10.1494 99.8125C7.88184 99.8125 6.37012 98.7227 6.3877 97.0176C6.37012 95.3477 7.88184 94.2402 10.1494 94.2402ZM10.1494 95.3125C8.67285 95.3125 7.68848 95.998 7.70605 97.0176C7.68848 98.0898 8.67285 98.7402 10.1494 98.7578C11.6084 98.7402 12.5928 98.0898 12.6104 97.0176C12.5928 95.998 11.6084 95.3125 10.1494 95.3125ZM24.8975 92.5527C24.8799 95.8398 24.4229 99.5312 22.1377 102.555L21.0479 101.922C23.0078 99.4697 23.5879 96.5781 23.7021 93.6953H21.3643V92.5527H24.8975ZM28.3604 92.5527C28.3516 93.8271 28.3252 95.2949 28.1318 96.8066H30.2061V91.0762H31.5244V105.49H30.2061V97.9492H27.9561C27.5957 99.9004 26.9102 101.878 25.6357 103.592L24.5635 102.941C26.7256 100.182 27.0859 96.6133 27.1475 93.6953H25.3896V92.5527H28.3604ZM34.46 90.6543V106.281H33.124V90.6543H34.46ZM55.3779 97.791V98.9863H48.8564V100.691H47.5029V98.9863H41.0869V97.791H55.3779ZM48.874 101.904C48.874 103.627 51.4053 104.875 54.2354 105.156L53.7959 106.211C51.3262 105.947 49.1025 104.998 48.1709 103.486C47.2393 104.98 45.0332 105.947 42.5811 106.211L42.124 105.156C44.9189 104.875 47.4678 103.609 47.4678 101.904V101.395H48.874V101.904ZM48.2061 90.918C51.6338 90.918 53.7256 91.9375 53.7256 93.7656C53.7256 95.5762 51.6338 96.6309 48.2061 96.6133C44.7783 96.6309 42.6689 95.5762 42.6689 93.7656C42.6689 91.9375 44.7783 90.918 48.2061 90.918ZM48.2061 91.9727C45.6572 91.9551 44.0752 92.6406 44.0928 93.7656C44.0752 94.873 45.6572 95.541 48.2061 95.541C50.7373 95.541 52.3193 94.873 52.3193 93.7656C52.3193 92.6406 50.7373 91.9551 48.2061 91.9727ZM63.7627 90.9355C67.2432 90.9355 69.2822 91.8848 69.2822 93.625C69.2822 95.4004 67.2432 96.3496 63.7627 96.3672C60.2822 96.3496 58.2256 95.4004 58.2256 93.625C58.2256 91.8848 60.2822 90.9355 63.7627 90.9355ZM63.7627 91.9727C61.1611 91.9727 59.6494 92.6055 59.667 93.625C59.6494 94.7148 61.1611 95.3125 63.7627 95.3125C66.3467 95.3125 67.876 94.7148 67.876 93.625C67.876 92.6055 66.3467 91.9727 63.7627 91.9727ZM70.8818 97.4219V98.5469H56.6436V97.4219H70.8818ZM69.0537 99.9004V103.398H59.7725V105.016H69.5283V106.105H58.4014V102.379H67.7002V100.955H58.3662V99.9004H69.0537ZM87.0713 91.0059V97.0527H88.9697V90.6543H90.2881V106.281H88.9697V98.1953H87.0713V105.508H85.7881V91.0059H87.0713ZM80.585 92.6406V93.7832H78.4756V101.025C79.0645 101.008 79.8379 100.938 80.6904 100.727L80.8135 101.904C79.4951 102.203 78.4756 102.203 77.8076 102.203H77.1924V92.6406H80.585ZM84.7334 92.6406V93.7832H82.5186V101.025C83.248 101.017 84.1182 100.946 85.0674 100.674L85.1904 101.852C83.8896 102.203 82.8174 102.203 81.9033 102.203H81.2705V92.6406H84.7334ZM104.896 97.9844V99.1094H100.062V103.152H106.583V104.312H92.2744V103.152H98.708V99.1094H94.1025V91.9375H104.737V93.0625H95.4912V97.9844H104.896ZM110.397 103.68L109.026 108.461H107.726L108.692 103.68H110.397ZM131.263 103.117V104.277H116.954V103.117H123.405V99.3203H124.794V103.117H131.263ZM124.794 93.625C124.794 96.1211 127.888 98.2656 130.577 98.7051L130.015 99.7949C127.624 99.3291 125.102 97.8086 124.108 95.6289C123.098 97.8174 120.584 99.373 118.237 99.8652L117.657 98.7578C120.294 98.3008 123.37 96.1211 123.37 93.625V93.2383H118.132V92.0781H130.032V93.2383H124.794V93.625ZM146.749 98.3887V99.5312H132.511V98.3887H136.044V96.1914C134.796 95.708 134.093 94.9082 134.093 93.8535C134.093 92.0078 136.202 90.9531 139.63 90.9531C143.022 90.9531 145.149 92.0078 145.149 93.8535C145.149 94.8994 144.455 95.6992 143.216 96.1738V98.3887H146.749ZM139.63 100.727C142.987 100.727 144.991 101.693 145.009 103.486C144.991 105.262 142.987 106.246 139.63 106.246C136.237 106.246 134.233 105.262 134.233 103.486C134.233 101.693 136.237 100.727 139.63 100.727ZM139.63 101.781C137.116 101.799 135.622 102.414 135.64 103.486C135.622 104.541 137.116 105.174 139.63 105.174C142.108 105.174 143.62 104.541 143.62 103.486C143.62 102.414 142.108 101.799 139.63 101.781ZM139.63 92.043C137.081 92.043 135.499 92.7285 135.517 93.8535C135.499 94.9961 137.081 95.6641 139.63 95.6641C142.161 95.6641 143.743 94.9961 143.743 93.8535C143.743 92.7285 142.161 92.043 139.63 92.043ZM137.415 98.3887H141.845V96.5605C141.186 96.6748 140.447 96.7363 139.63 96.7363C138.812 96.7363 138.074 96.6748 137.415 96.5605V98.3887ZM160.952 90.6543V106.281H159.563V90.6543H160.952ZM157.876 93.2031V94.3281H148.419V93.2031H152.444V90.8125H153.833V93.2031H157.876ZM153.183 95.6113C155.433 95.6113 157.05 97.0879 157.05 99.1973C157.05 101.307 155.433 102.783 153.183 102.783C150.915 102.783 149.28 101.307 149.298 99.1973C149.28 97.0879 150.915 95.6113 153.183 95.6113ZM153.183 96.7715C151.688 96.7715 150.599 97.791 150.599 99.1973C150.599 100.621 151.688 101.623 153.183 101.605C154.659 101.623 155.731 100.621 155.731 99.1973C155.731 97.791 154.659 96.7715 153.183 96.7715ZM175.894 92.2188V96.3848H179.726V90.6543H181.097V106.316H179.726V97.5273H175.894V102.326H168.774V92.2188H175.894ZM170.146 93.3086V101.219H174.558V93.3086H170.146ZM197.989 99.7422V100.885H191.468V106.281H190.114V100.885H183.681V99.7422H197.989ZM196.126 91.5332V97.6152H185.526V91.5332H196.126ZM186.88 92.6582V96.5254H194.755V92.6582H186.88ZM213.546 97.9141V99.0039H199.237V97.9141H213.546ZM211.753 100.252V103.574H202.366V105.068H212.263V106.07H200.978V102.625H210.382V101.289H200.96V100.252H211.753ZM211.7 91.1289V94.3633H202.472V95.7344H211.981V96.7363H201.101V93.4141H210.312V92.1309H201.048V91.1289H211.7ZM229.683 91.0059V97.0527H231.581V90.6543H232.899V106.281H231.581V98.1953H229.683V105.508H228.399V91.0059H229.683ZM223.196 92.6406V93.7832H221.087V101.025C221.676 101.008 222.449 100.938 223.302 100.727L223.425 101.904C222.106 102.203 221.087 102.203 220.419 102.203H219.804V92.6406H223.196ZM227.345 92.6406V93.7832H225.13V101.025C225.859 101.017 226.729 100.946 227.679 100.674L227.802 101.852C226.501 102.203 225.429 102.203 224.515 102.203H223.882V92.6406H227.345ZM247.507 97.9844V99.1094H242.673V103.152H249.194V104.312H234.886V103.152H241.319V99.1094H236.714V91.9375H247.349V93.0625H238.103V97.9844H247.507ZM17.7783 122.324V123.889C17.7783 125.857 17.7783 128.09 17.1982 131.482L15.792 131.342C16.4248 128.143 16.4248 125.805 16.4248 123.889V123.467H7.00293V122.324H17.7783ZM19.6943 132.836V133.979H5.45605V132.836H19.6943ZM37.8877 120.637V126.807H40.1729V127.984H37.8877V136.281H36.5166V120.637H37.8877ZM29.9775 122.307V123.449H27.376V131.008C28.1494 130.99 29.0986 130.92 30.1357 130.691L30.2764 131.852C28.7998 132.168 27.6221 132.186 26.6904 132.186H26.0049V122.307H29.9775ZM35.04 122.307V123.449H32.2451V131.025C33.4668 131.008 34.4424 130.929 35.5498 130.656L35.6904 131.816C34.3193 132.15 33.2119 132.186 31.6299 132.186H30.874V122.307H35.04ZM55.3252 128.178V129.32H41.0869V128.178H55.3252ZM54.0947 125.594V126.719H48.6631V121.428H53.9541V122.553H50.0518V125.594H54.0947ZM47.7842 121.428V122.553H43.8291V125.594C45.1826 125.576 46.5098 125.479 47.9951 125.137L48.1533 126.279C46.3779 126.666 44.8838 126.719 43.3193 126.719H42.4229V121.428H47.7842ZM48.9268 131.061C48.9268 133.17 51.3877 134.717 54.2354 135.121L53.708 136.211C51.335 135.815 49.1641 134.699 48.2236 132.977C47.2832 134.699 45.1123 135.815 42.7393 136.211L42.2119 135.121C45.042 134.717 47.5205 133.17 47.5205 131.061V130.551H48.9268V131.061ZM68.8604 120.654V124.82H71.2158V125.998H68.8604V130.076H67.4893V120.654H68.8604ZM68.8604 130.973V136.07H58.999V130.973H68.8604ZM60.3525 132.08V134.945H67.4893V132.08H60.3525ZM65.9951 122.324V123.467H56.6787V122.324H60.6514V120.531H62.0225V122.324H65.9951ZM61.3369 124.24C63.5869 124.24 65.0811 125.348 65.0986 127.018C65.0811 128.723 63.5869 129.812 61.3369 129.812C59.0693 129.812 57.5576 128.723 57.5752 127.018C57.5576 125.348 59.0693 124.24 61.3369 124.24ZM61.3369 125.312C59.8604 125.312 58.876 125.998 58.8936 127.018C58.876 128.09 59.8604 128.74 61.3369 128.758C62.7959 128.74 63.7803 128.09 63.7979 127.018C63.7803 125.998 62.7959 125.312 61.3369 125.312ZM86.4385 128.898V130.023H72.2002V128.898H86.4385ZM84.8564 134.787V135.947H74.0459V131.395H75.4346V134.787H84.8564ZM79.3193 121.217C82.6768 121.199 84.8389 122.359 84.8389 124.311C84.8389 126.262 82.6768 127.422 79.3193 127.422C75.9268 127.422 73.7822 126.262 73.7822 124.311C73.7822 122.359 75.9268 121.199 79.3193 121.217ZM79.3193 122.324C76.8057 122.324 75.1885 123.08 75.2061 124.311C75.1885 125.541 76.8057 126.297 79.3193 126.297C81.8154 126.297 83.4326 125.541 83.4326 124.311C83.4326 123.08 81.8154 122.324 79.3193 122.324ZM97.5127 124.855C97.5127 127.615 99.3408 130.445 101.556 131.535L100.712 132.643C98.9893 131.737 97.5479 129.892 96.8623 127.721C96.1592 130.032 94.6826 132.001 92.9248 132.941L92.0459 131.834C94.3311 130.709 96.1416 127.703 96.1592 124.855V122.008H97.5127V124.855ZM104.368 120.654V127H106.987V128.195H104.368V136.281H102.997V120.654H104.368ZM119.925 120.654V126.877H122.544V128.037H119.925V136.316H118.554V120.654H119.925ZM115.548 122.113V127.703H109.853V131.359C112.753 131.359 114.774 131.263 117.147 130.814L117.288 131.957C114.827 132.414 112.735 132.52 109.729 132.537H108.481V126.561H114.177V123.256H108.446V122.113H115.548ZM128.978 125.453C128.978 128.107 130.911 130.797 133.214 131.799L132.44 132.889C130.612 132.054 129.03 130.252 128.31 128.09C127.571 130.384 125.998 132.379 124.214 133.275L123.388 132.186C125.62 131.113 127.571 128.16 127.589 125.453V123.414H123.897V122.271H132.704V123.414H128.978V125.453ZM136.272 120.654V136.281H134.884V120.654H136.272ZM144.534 125.453C144.534 128.107 146.468 130.797 148.771 131.799L147.997 132.889C146.169 132.054 144.587 130.252 143.866 128.09C143.128 130.384 141.555 132.379 139.771 133.275L138.944 132.186C141.177 131.113 143.128 128.16 143.146 125.453V123.414H139.454V122.271H148.261V123.414H144.534V125.453ZM151.829 120.654V136.281H150.44V120.654H151.829ZM163.378 121.551C165.716 121.551 167.438 123.045 167.438 125.154C167.438 127.281 165.716 128.758 163.378 128.775C161.04 128.758 159.3 127.281 159.317 125.154C159.3 123.045 161.04 121.551 163.378 121.551ZM163.378 122.711C161.849 122.711 160.653 123.748 160.671 125.154C160.653 126.596 161.849 127.633 163.378 127.633C164.925 127.633 166.085 126.596 166.085 125.154C166.085 123.748 164.925 122.711 163.378 122.711ZM171.235 120.654V124.188H173.591V125.33H171.235V128.477H169.864V120.654H171.235ZM162.024 130.164V134.717C162.93 134.69 164.134 134.559 165.241 134.189L165.452 135.297C163.923 135.807 162.446 135.859 161.427 135.859H160.688V130.164H162.024ZM172.8 130.234V131.307H164.907V130.234H168.194V128.846H169.548V130.234H172.8ZM168.845 131.834C170.55 131.834 171.763 132.695 171.78 134.049C171.763 135.402 170.55 136.246 168.845 136.246C167.122 136.246 165.927 135.402 165.944 134.049C165.927 132.695 167.122 131.834 168.845 131.834ZM168.845 132.836C167.878 132.836 167.175 133.328 167.175 134.049C167.175 134.787 167.878 135.262 168.845 135.262C169.829 135.262 170.515 134.787 170.515 134.049C170.515 133.328 169.829 132.836 168.845 132.836ZM187.214 125.4V126.508H176.509V121.234H177.88V125.4H187.214ZM188.866 128.635V129.76H174.558V128.635H188.866ZM187.302 134.752V135.895H176.421V131.359H177.792V134.752H187.302ZM202.226 120.654V126.842H204.845V128.002H202.226V136.316H200.854V120.654H202.226ZM198.112 122.184V123.326H192.188V131.236C195.019 131.236 197.022 131.104 199.343 130.674L199.519 131.869C197.075 132.309 195.019 132.396 192.048 132.396H190.817V122.184H198.112ZM207.341 134.963C206.726 134.963 206.198 134.453 206.216 133.82C206.198 133.205 206.726 132.695 207.341 132.695C207.956 132.695 208.466 133.205 208.466 133.82C208.466 134.453 207.956 134.963 207.341 134.963Z" fill="#1A1A1A"/>
</svg>
