<svg width="315" height="21" viewBox="0 0 315 21" fill="none" xmlns="http://www.w3.org/2000/svg">
<path d="M4.5043 18.8945C3.2583 17.5505 2.2923 16.1085 1.6063 14.5685C0.934297 13.0285 0.598297 11.3485 0.598297 9.52852C0.598297 7.70852 0.934297 6.02852 1.6063 4.48852C2.2923 2.94852 3.2583 1.50652 4.5043 0.162519H6.8353C5.5613 1.46452 4.5603 2.90652 3.8323 4.48852C3.1043 6.07052 2.7403 7.75052 2.7403 9.52852C2.7403 11.3065 3.1043 12.9865 3.8323 14.5685C4.5603 16.1505 5.5613 17.5925 6.8353 18.8945H4.5043ZM20.8717 1.25452V3.22852H11.3167V8.96152L19.9477 8.94052V10.9145H11.3167V18.0755H9.11166V1.25452H20.8717ZM28.2494 5.76952C29.4114 5.76952 30.4614 6.04252 31.3994 6.58852C32.3374 7.13452 33.0654 7.89052 33.5834 8.85652C34.1154 9.80852 34.3814 10.8795 34.3814 12.0695C34.3814 13.2595 34.1154 14.3375 33.5834 15.3035C33.0654 16.2555 32.3374 17.0045 31.3994 17.5505C30.4614 18.0965 29.4114 18.3695 28.2494 18.3695C27.0734 18.3695 26.0164 18.0965 25.0784 17.5505C24.1544 17.0045 23.4264 16.2555 22.8944 15.3035C22.3624 14.3375 22.0964 13.2595 22.0964 12.0695C22.0964 10.8795 22.3624 9.80852 22.8944 8.85652C23.4264 7.89052 24.1544 7.13452 25.0784 6.58852C26.0164 6.04252 27.0734 5.76952 28.2494 5.76952ZM28.2494 7.68052C27.4654 7.68052 26.7654 7.87652 26.1494 8.26852C25.5474 8.64652 25.0714 9.17152 24.7214 9.84352C24.3854 10.5015 24.2174 11.2435 24.2174 12.0695C24.2174 12.8955 24.3854 13.6445 24.7214 14.3165C25.0714 14.9745 25.5474 15.4995 26.1494 15.8915C26.7654 16.2695 27.4654 16.4585 28.2494 16.4585C29.0194 16.4585 29.7124 16.2695 30.3284 15.8915C30.9444 15.4995 31.4204 14.9745 31.7564 14.3165C32.0924 13.6445 32.2604 12.8955 32.2604 12.0695C32.2604 11.2435 32.0924 10.5015 31.7564 9.84352C31.4204 9.17152 30.9444 8.64652 30.3284 8.26852C29.7124 7.87652 29.0194 7.68052 28.2494 7.68052ZM39.3064 6.06352V7.89052C39.6144 7.34452 40.1184 6.85452 40.8184 6.42052C41.5324 5.98652 42.3864 5.76952 43.3804 5.76952C44.3184 5.76952 45.1514 5.98652 45.8794 6.42052C46.6214 6.85452 47.1954 7.47052 47.6014 8.26852C48.0074 9.05252 48.2104 9.97652 48.2104 11.0405V18.0755H46.0474V11.4185C46.0474 10.2145 45.7674 9.29052 45.2074 8.64652C44.6614 7.98852 43.8984 7.65952 42.9184 7.65952C42.2324 7.65952 41.6164 7.85552 41.0704 8.24752C40.5244 8.62552 40.0904 9.13652 39.7684 9.78052C39.4604 10.4245 39.3064 11.1175 39.3064 11.8595V18.0755H37.1434V6.06352H39.3064ZM56.5863 18.3695C55.4663 18.3695 54.4513 18.0965 53.5413 17.5505C52.6453 17.0045 51.9383 16.2485 51.4203 15.2825C50.9023 14.3165 50.6433 13.2455 50.6433 12.0695C50.6433 10.8935 50.9023 9.82252 51.4203 8.85652C51.9383 7.89052 52.6453 7.13452 53.5413 6.58852C54.4513 6.04252 55.4663 5.76952 56.5863 5.76952C57.6083 5.76952 58.4903 5.97252 59.2323 6.37852C59.9743 6.78452 60.5133 7.27452 60.8493 7.84852V0.729519H63.0123V18.0755H60.8493V16.2905C60.5133 16.8645 59.9743 17.3545 59.2323 17.7605C58.4903 18.1665 57.6083 18.3695 56.5863 18.3695ZM56.7753 16.4585C57.5733 16.4585 58.2803 16.2695 58.8963 15.8915C59.5263 15.4995 60.0163 14.9745 60.3663 14.3165C60.7163 13.6445 60.8913 12.8955 60.8913 12.0695C60.8913 11.2435 60.7163 10.5015 60.3663 9.84352C60.0163 9.17152 59.5263 8.64652 58.8963 8.26852C58.2803 7.87652 57.5733 7.68052 56.7753 7.68052C55.9913 7.68052 55.2913 7.86952 54.6753 8.24752C54.0733 8.62552 53.6043 9.15052 53.2683 9.82252C52.9323 10.4945 52.7643 11.2435 52.7643 12.0695C52.7643 12.8955 52.9323 13.6445 53.2683 14.3165C53.6043 14.9885 54.0733 15.5135 54.6753 15.8915C55.2913 16.2695 55.9913 16.4585 56.7753 16.4585ZM68.571 6.06352V7.89052C68.879 7.34452 69.383 6.85452 70.083 6.42052C70.797 5.98652 71.651 5.76952 72.645 5.76952C73.583 5.76952 74.416 5.98652 75.144 6.42052C75.886 6.85452 76.46 7.47052 76.866 8.26852C77.272 9.05252 77.475 9.97652 77.475 11.0405V18.0755H75.312V11.4185C75.312 10.2145 75.032 9.29052 74.472 8.64652C73.926 7.98852 73.163 7.65952 72.183 7.65952C71.497 7.65952 70.881 7.85552 70.335 8.24752C69.789 8.62552 69.355 9.13652 69.033 9.78052C68.725 10.4245 68.571 11.1175 68.571 11.8595V18.0755H66.408V6.06352H68.571ZM85.9349 18.3695C84.7869 18.3695 83.7509 18.0965 82.8269 17.5505C81.9169 17.0045 81.2029 16.2555 80.6849 15.3035C80.1669 14.3375 79.9079 13.2595 79.9079 12.0695C79.9079 10.8795 80.1669 9.80852 80.6849 8.85652C81.2029 7.89052 81.9169 7.13452 82.8269 6.58852C83.7509 6.04252 84.7869 5.76952 85.9349 5.76952C87.0829 5.76952 88.1119 6.04252 89.0219 6.58852C89.9459 7.13452 90.6599 7.89052 91.1639 8.85652C91.6819 9.80852 91.9409 10.8795 91.9409 12.0695C91.9409 12.4615 91.9269 12.7555 91.8989 12.9515H82.0709C82.1829 14.0015 82.5889 14.8625 83.2889 15.5345C84.0029 16.2065 84.8849 16.5425 85.9349 16.5425C86.7329 16.5425 87.4329 16.3815 88.0349 16.0595C88.6509 15.7235 89.0709 15.3035 89.2949 14.7995H91.4999C91.1639 15.8495 90.4919 16.7035 89.4839 17.3615C88.4759 18.0335 87.2929 18.3695 85.9349 18.3695ZM89.8199 11.1875C89.6939 10.1235 89.2809 9.26252 88.5809 8.60452C87.8809 7.93252 86.9989 7.59652 85.9349 7.59652C84.8709 7.59652 83.9889 7.93252 83.2889 8.60452C82.5889 9.26252 82.1829 10.1235 82.0709 11.1875H89.8199ZM99.4133 5.76952C100.379 5.76952 101.254 5.92352 102.038 6.23152C102.822 6.52552 103.445 6.93852 103.907 7.47052C104.383 7.98852 104.635 8.58352 104.663 9.25552H102.542C102.5 8.75152 102.178 8.33852 101.576 8.01652C100.974 7.69452 100.232 7.53352 99.3503 7.53352C98.4823 7.53352 97.7613 7.68752 97.1873 7.99552C96.6273 8.30352 96.3473 8.68152 96.3473 9.12952C96.3473 9.64752 96.6063 10.0605 97.1243 10.3685C97.6563 10.6765 98.6293 10.9285 100.043 11.1245C101.793 11.3625 103.046 11.7685 103.802 12.3425C104.558 12.9165 104.936 13.6865 104.936 14.6525C104.936 15.4085 104.691 16.0665 104.201 16.6265C103.725 17.1865 103.074 17.6135 102.248 17.9075C101.422 18.2155 100.505 18.3695 99.4973 18.3695C98.4473 18.3695 97.5233 18.2085 96.7253 17.8865C95.9273 17.5785 95.2973 17.1445 94.8353 16.5845C94.3873 16.0385 94.1353 15.4155 94.0793 14.7155H96.2003C96.2703 15.2335 96.5923 15.6815 97.1663 16.0595C97.7543 16.4235 98.5523 16.6055 99.5603 16.6055C100.498 16.6055 101.275 16.4375 101.891 16.1015C102.507 15.7515 102.815 15.3105 102.815 14.7785C102.815 14.2745 102.528 13.8755 101.954 13.5815C101.394 13.2735 100.414 13.0285 99.0143 12.8465C97.3623 12.6225 96.1513 12.2305 95.3813 11.6705C94.6113 11.0965 94.2263 10.2915 94.2263 9.25552C94.2263 8.56952 94.4503 7.96052 94.8983 7.42852C95.3603 6.89652 95.9833 6.49052 96.7673 6.21052C97.5513 5.91652 98.4333 5.76952 99.4133 5.76952ZM112.395 5.76952C113.361 5.76952 114.236 5.92352 115.02 6.23152C115.804 6.52552 116.427 6.93852 116.889 7.47052C117.365 7.98852 117.617 8.58352 117.645 9.25552H115.524C115.482 8.75152 115.16 8.33852 114.558 8.01652C113.956 7.69452 113.214 7.53352 112.332 7.53352C111.464 7.53352 110.743 7.68752 110.169 7.99552C109.609 8.30352 109.329 8.68152 109.329 9.12952C109.329 9.64752 109.588 10.0605 110.106 10.3685C110.638 10.6765 111.611 10.9285 113.025 11.1245C114.775 11.3625 116.028 11.7685 116.784 12.3425C117.54 12.9165 117.918 13.6865 117.918 14.6525C117.918 15.4085 117.673 16.0665 117.183 16.6265C116.707 17.1865 116.056 17.6135 115.23 17.9075C114.404 18.2155 113.487 18.3695 112.479 18.3695C111.429 18.3695 110.505 18.2085 109.707 17.8865C108.909 17.5785 108.279 17.1445 107.817 16.5845C107.369 16.0385 107.117 15.4155 107.061 14.7155H109.182C109.252 15.2335 109.574 15.6815 110.148 16.0595C110.736 16.4235 111.534 16.6055 112.542 16.6055C113.48 16.6055 114.257 16.4375 114.873 16.1015C115.489 15.7515 115.797 15.3105 115.797 14.7785C115.797 14.2745 115.51 13.8755 114.936 13.5815C114.376 13.2735 113.396 13.0285 111.996 12.8465C110.344 12.6225 109.133 12.2305 108.363 11.6705C107.593 11.0965 107.208 10.2915 107.208 9.25552C107.208 8.56952 107.432 7.96052 107.88 7.42852C108.342 6.89652 108.965 6.49052 109.749 6.21052C110.533 5.91652 111.415 5.76952 112.395 5.76952ZM121.827 20.1965H120.105L120.777 15.4505H122.877L121.827 20.1965ZM139.813 18.4535C138.147 18.4535 136.642 18.0755 135.298 17.3195C133.954 16.5635 132.897 15.5135 132.127 14.1695C131.371 12.8255 130.993 11.3205 130.993 9.65452C130.993 7.98852 131.371 6.48352 132.127 5.13952C132.897 3.79552 133.954 2.74552 135.298 1.98952C136.642 1.23352 138.147 0.855519 139.813 0.855519C141.227 0.855519 142.501 1.11452 143.635 1.63252C144.783 2.13652 145.728 2.84352 146.47 3.75352C147.226 4.66352 147.751 5.71352 148.045 6.90352H145.798C145.434 5.68552 144.727 4.71252 143.677 3.98452C142.627 3.25652 141.353 2.89252 139.855 2.89252C138.581 2.89252 137.44 3.18652 136.432 3.77452C135.424 4.34852 134.633 5.14652 134.059 6.16852C133.485 7.19052 133.198 8.35252 133.198 9.65452C133.198 10.9425 133.485 12.1045 134.059 13.1405C134.633 14.1625 135.424 14.9675 136.432 15.5555C137.454 16.1295 138.595 16.4165 139.855 16.4165C140.877 16.4165 141.815 16.2345 142.669 15.8705C143.523 15.4925 144.23 14.9815 144.79 14.3375C145.364 13.6935 145.756 12.9725 145.966 12.1745H148.213C147.961 13.3505 147.45 14.4145 146.68 15.3665C145.924 16.3185 144.951 17.0675 143.761 17.6135C142.571 18.1735 141.255 18.4535 139.813 18.4535ZM156.444 5.76952C157.606 5.76952 158.656 6.04252 159.594 6.58852C160.532 7.13452 161.26 7.89052 161.778 8.85652C162.31 9.80852 162.576 10.8795 162.576 12.0695C162.576 13.2595 162.31 14.3375 161.778 15.3035C161.26 16.2555 160.532 17.0045 159.594 17.5505C158.656 18.0965 157.606 18.3695 156.444 18.3695C155.268 18.3695 154.211 18.0965 153.273 17.5505C152.349 17.0045 151.621 16.2555 151.089 15.3035C150.557 14.3375 150.291 13.2595 150.291 12.0695C150.291 10.8795 150.557 9.80852 151.089 8.85652C151.621 7.89052 152.349 7.13452 153.273 6.58852C154.211 6.04252 155.268 5.76952 156.444 5.76952ZM156.444 7.68052C155.66 7.68052 154.96 7.87652 154.344 8.26852C153.742 8.64652 153.266 9.17152 152.916 9.84352C152.58 10.5015 152.412 11.2435 152.412 12.0695C152.412 12.8955 152.58 13.6445 152.916 14.3165C153.266 14.9745 153.742 15.4995 154.344 15.8915C154.96 16.2695 155.66 16.4585 156.444 16.4585C157.214 16.4585 157.907 16.2695 158.523 15.8915C159.139 15.4995 159.615 14.9745 159.951 14.3165C160.287 13.6445 160.455 12.8955 160.455 12.0695C160.455 11.2435 160.287 10.5015 159.951 9.84352C159.615 9.17152 159.139 8.64652 158.523 8.26852C157.907 7.87652 157.214 7.68052 156.444 7.68052ZM167.501 6.06352V7.89052C167.809 7.34452 168.313 6.85452 169.013 6.42052C169.727 5.98652 170.581 5.76952 171.575 5.76952C172.513 5.76952 173.346 5.98652 174.074 6.42052C174.816 6.85452 175.39 7.47052 175.796 8.26852C176.202 9.05252 176.405 9.97652 176.405 11.0405V18.0755H174.242V11.4185C174.242 10.2145 173.962 9.29052 173.402 8.64652C172.856 7.98852 172.093 7.65952 171.113 7.65952C170.427 7.65952 169.811 7.85552 169.265 8.24752C168.719 8.62552 168.285 9.13652 167.963 9.78052C167.655 10.4245 167.501 11.1175 167.501 11.8595V18.0755H165.338V6.06352H167.501ZM184.193 5.76952C185.159 5.76952 186.034 5.92352 186.818 6.23152C187.602 6.52552 188.225 6.93852 188.687 7.47052C189.163 7.98852 189.415 8.58352 189.443 9.25552H187.322C187.28 8.75152 186.958 8.33852 186.356 8.01652C185.754 7.69452 185.012 7.53352 184.13 7.53352C183.262 7.53352 182.541 7.68752 181.967 7.99552C181.407 8.30352 181.127 8.68152 181.127 9.12952C181.127 9.64752 181.386 10.0605 181.904 10.3685C182.436 10.6765 183.409 10.9285 184.823 11.1245C186.573 11.3625 187.826 11.7685 188.582 12.3425C189.338 12.9165 189.716 13.6865 189.716 14.6525C189.716 15.4085 189.471 16.0665 188.981 16.6265C188.505 17.1865 187.854 17.6135 187.028 17.9075C186.202 18.2155 185.285 18.3695 184.277 18.3695C183.227 18.3695 182.303 18.2085 181.505 17.8865C180.707 17.5785 180.077 17.1445 179.615 16.5845C179.167 16.0385 178.915 15.4155 178.859 14.7155H180.98C181.05 15.2335 181.372 15.6815 181.946 16.0595C182.534 16.4235 183.332 16.6055 184.34 16.6055C185.278 16.6055 186.055 16.4375 186.671 16.1015C187.287 15.7515 187.595 15.3105 187.595 14.7785C187.595 14.2745 187.308 13.8755 186.734 13.5815C186.174 13.2735 185.194 13.0285 183.794 12.8465C182.142 12.6225 180.931 12.2305 180.161 11.6705C179.391 11.0965 179.006 10.2915 179.006 9.25552C179.006 8.56952 179.23 7.96052 179.678 7.42852C180.14 6.89652 180.763 6.49052 181.547 6.21052C182.331 5.91652 183.213 5.76952 184.193 5.76952ZM193.52 0.519519C193.94 0.519519 194.283 0.659519 194.549 0.939519C194.829 1.20552 194.969 1.54152 194.969 1.94752C194.969 2.35352 194.829 2.69652 194.549 2.97652C194.283 3.24252 193.94 3.37552 193.52 3.37552C193.114 3.37552 192.771 3.24252 192.491 2.97652C192.225 2.69652 192.092 2.35352 192.092 1.94752C192.092 1.54152 192.225 1.20552 192.491 0.939519C192.771 0.659519 193.114 0.519519 193.52 0.519519ZM192.449 18.0965V6.06352H194.612V18.0965H192.449ZM203.32 18.3695C202.2 18.3695 201.185 18.0965 200.275 17.5505C199.379 17.0045 198.672 16.2485 198.154 15.2825C197.636 14.3165 197.377 13.2455 197.377 12.0695C197.377 10.8935 197.636 9.82252 198.154 8.85652C198.672 7.89052 199.379 7.13452 200.275 6.58852C201.185 6.04252 202.2 5.76952 203.32 5.76952C204.342 5.76952 205.224 5.97252 205.966 6.37852C206.708 6.78452 207.247 7.27452 207.583 7.84852V0.729519H209.746V18.0755H207.583V16.2905C207.247 16.8645 206.708 17.3545 205.966 17.7605C205.224 18.1665 204.342 18.3695 203.32 18.3695ZM203.509 16.4585C204.307 16.4585 205.014 16.2695 205.63 15.8915C206.26 15.4995 206.75 14.9745 207.1 14.3165C207.45 13.6445 207.625 12.8955 207.625 12.0695C207.625 11.2435 207.45 10.5015 207.1 9.84352C206.75 9.17152 206.26 8.64652 205.63 8.26852C205.014 7.87652 204.307 7.68052 203.509 7.68052C202.725 7.68052 202.025 7.86952 201.409 8.24752C200.807 8.62552 200.338 9.15052 200.002 9.82252C199.666 10.4945 199.498 11.2435 199.498 12.0695C199.498 12.8955 199.666 13.6445 200.002 14.3165C200.338 14.9885 200.807 15.5135 201.409 15.8915C202.025 16.2695 202.725 16.4585 203.509 16.4585ZM218.538 18.3695C217.39 18.3695 216.354 18.0965 215.43 17.5505C214.52 17.0045 213.806 16.2555 213.288 15.3035C212.77 14.3375 212.511 13.2595 212.511 12.0695C212.511 10.8795 212.77 9.80852 213.288 8.85652C213.806 7.89052 214.52 7.13452 215.43 6.58852C216.354 6.04252 217.39 5.76952 218.538 5.76952C219.686 5.76952 220.715 6.04252 221.625 6.58852C222.549 7.13452 223.263 7.89052 223.767 8.85652C224.285 9.80852 224.544 10.8795 224.544 12.0695C224.544 12.4615 224.53 12.7555 224.502 12.9515H214.674C214.786 14.0015 215.192 14.8625 215.892 15.5345C216.606 16.2065 217.488 16.5425 218.538 16.5425C219.336 16.5425 220.036 16.3815 220.638 16.0595C221.254 15.7235 221.674 15.3035 221.898 14.7995H224.103C223.767 15.8495 223.095 16.7035 222.087 17.3615C221.079 18.0335 219.896 18.3695 218.538 18.3695ZM222.423 11.1875C222.297 10.1235 221.884 9.26252 221.184 8.60452C220.484 7.93252 219.602 7.59652 218.538 7.59652C217.474 7.59652 216.592 7.93252 215.892 8.60452C215.192 9.26252 214.786 10.1235 214.674 11.1875H222.423ZM229.455 6.06352V7.91152C229.777 7.36552 230.309 6.87552 231.051 6.44152C231.807 5.99352 232.717 5.76952 233.781 5.76952C234.467 5.76952 235.013 5.83952 235.419 5.97952V8.03752C234.929 7.81352 234.334 7.70152 233.634 7.70152C232.836 7.70152 232.115 7.89752 231.471 8.28952C230.841 8.66752 230.344 9.17852 229.98 9.82252C229.63 10.4525 229.455 11.1315 229.455 11.8595V18.0755H227.292V6.06352H229.455ZM242.243 18.3695C241.123 18.3695 240.108 18.0965 239.198 17.5505C238.302 17.0045 237.595 16.2485 237.077 15.2825C236.559 14.3165 236.3 13.2455 236.3 12.0695C236.3 10.8935 236.559 9.82252 237.077 8.85652C237.595 7.89052 238.302 7.13452 239.198 6.58852C240.108 6.04252 241.123 5.76952 242.243 5.76952C243.265 5.76952 244.147 5.97252 244.889 6.37852C245.631 6.78452 246.17 7.27452 246.506 7.84852V6.06352H248.669V18.0755H246.506V16.2905C246.17 16.8645 245.631 17.3545 244.889 17.7605C244.147 18.1665 243.265 18.3695 242.243 18.3695ZM242.432 16.4585C243.23 16.4585 243.937 16.2695 244.553 15.8915C245.183 15.4995 245.673 14.9745 246.023 14.3165C246.373 13.6445 246.548 12.8955 246.548 12.0695C246.548 11.2435 246.373 10.5015 246.023 9.84352C245.673 9.17152 245.183 8.64652 244.553 8.26852C243.937 7.87652 243.23 7.68052 242.432 7.68052C241.648 7.68052 240.948 7.86952 240.332 8.24752C239.73 8.62552 239.261 9.15052 238.925 9.82252C238.589 10.4945 238.421 11.2435 238.421 12.0695C238.421 12.8955 238.589 13.6445 238.925 14.3165C239.261 14.9885 239.73 15.5135 240.332 15.8915C240.948 16.2695 241.648 16.4585 242.432 16.4585ZM258.365 7.97452H255.698V18.0755H253.535V7.97452H250.868V6.06352H253.535V2.40952H255.698V6.06352H258.365V7.97452ZM261.668 0.519519C262.088 0.519519 262.431 0.659519 262.697 0.939519C262.977 1.20552 263.117 1.54152 263.117 1.94752C263.117 2.35352 262.977 2.69652 262.697 2.97652C262.431 3.24252 262.088 3.37552 261.668 3.37552C261.262 3.37552 260.919 3.24252 260.639 2.97652C260.373 2.69652 260.24 2.35352 260.24 1.94752C260.24 1.54152 260.373 1.20552 260.639 0.939519C260.919 0.659519 261.262 0.519519 261.668 0.519519ZM260.597 18.0965V6.06352H262.76V18.0965H260.597ZM271.677 5.76952C272.839 5.76952 273.889 6.04252 274.827 6.58852C275.765 7.13452 276.493 7.89052 277.011 8.85652C277.543 9.80852 277.809 10.8795 277.809 12.0695C277.809 13.2595 277.543 14.3375 277.011 15.3035C276.493 16.2555 275.765 17.0045 274.827 17.5505C273.889 18.0965 272.839 18.3695 271.677 18.3695C270.501 18.3695 269.444 18.0965 268.506 17.5505C267.582 17.0045 266.854 16.2555 266.322 15.3035C265.79 14.3375 265.524 13.2595 265.524 12.0695C265.524 10.8795 265.79 9.80852 266.322 8.85652C266.854 7.89052 267.582 7.13452 268.506 6.58852C269.444 6.04252 270.501 5.76952 271.677 5.76952ZM271.677 7.68052C270.893 7.68052 270.193 7.87652 269.577 8.26852C268.975 8.64652 268.499 9.17152 268.149 9.84352C267.813 10.5015 267.645 11.2435 267.645 12.0695C267.645 12.8955 267.813 13.6445 268.149 14.3165C268.499 14.9745 268.975 15.4995 269.577 15.8915C270.193 16.2695 270.893 16.4585 271.677 16.4585C272.447 16.4585 273.14 16.2695 273.756 15.8915C274.372 15.4995 274.848 14.9745 275.184 14.3165C275.52 13.6445 275.688 12.8955 275.688 12.0695C275.688 11.2435 275.52 10.5015 275.184 9.84352C274.848 9.17152 274.372 8.64652 273.756 8.26852C273.14 7.87652 272.447 7.68052 271.677 7.68052ZM282.734 6.06352V7.89052C283.042 7.34452 283.546 6.85452 284.246 6.42052C284.96 5.98652 285.814 5.76952 286.808 5.76952C287.746 5.76952 288.579 5.98652 289.307 6.42052C290.049 6.85452 290.623 7.47052 291.029 8.26852C291.435 9.05252 291.638 9.97652 291.638 11.0405V18.0755H289.475V11.4185C289.475 10.2145 289.195 9.29052 288.635 8.64652C288.089 7.98852 287.326 7.65952 286.346 7.65952C285.66 7.65952 285.044 7.85552 284.498 8.24752C283.952 8.62552 283.518 9.13652 283.196 9.78052C282.888 10.4245 282.734 11.1175 282.734 11.8595V18.0755H280.571V6.06352H282.734ZM293.483 18.8945C294.757 17.6065 295.751 16.1715 296.465 14.5895C297.193 12.9935 297.557 11.3065 297.557 9.52852C297.557 7.75052 297.193 6.07052 296.465 4.48852C295.751 2.89252 294.757 1.45052 293.483 0.162519H295.793C298.397 2.94852 299.699 6.07052 299.699 9.52852C299.699 12.9865 298.397 16.1085 295.793 18.8945H293.483ZM314.938 10.9565H307.588V9.06652H314.938V10.9565Z" fill="#595B5A"/>
</svg>
