<svg width="418" height="24" viewBox="0 0 418 24" fill="none" xmlns="http://www.w3.org/2000/svg">
<path d="M2.11861 1.09428V7.09428H0.243608V1.09428H2.11861ZM6.48224 1.09428V7.09428H4.60724V1.09428H6.48224ZM9.14986 18.5488H6.93395L13.343 1.09428H15.5249L21.9339 18.5488H19.718L17.9624 13.6056H10.9055L9.14986 18.5488ZM11.5703 11.7306H17.2976L14.5021 3.85565H14.3658L11.5703 11.7306ZM40.9482 5.45792C40.7436 3.73633 39.1413 2.73065 37.0277 2.73065C34.7095 2.73065 33.1754 3.95792 33.1754 5.62837C33.1754 7.50337 35.255 8.18519 36.5504 8.5261L38.3232 9.00337C40.13 9.48065 43.2322 10.5375 43.2322 13.8102C43.2322 16.6397 40.9482 18.8556 36.9254 18.8556C33.1754 18.8556 30.8572 16.9125 30.6527 14.0488H32.8345C33.005 16.0261 34.8459 16.9466 36.9254 16.9466C39.3459 16.9466 41.1868 15.6852 41.1868 13.7761C41.1868 12.0375 39.5504 11.3897 37.7095 10.8784L35.5618 10.2647C32.8345 9.48065 31.13 8.08292 31.13 5.73065C31.13 2.79883 33.755 0.855646 37.0959 0.855646C40.4709 0.855646 42.8999 2.8244 42.9936 5.45792H40.9482ZM46.4347 23.4579V5.45792H48.3778V7.53746H48.6165C49.0597 6.85565 49.8438 5.28746 52.4006 5.28746C55.7074 5.28746 57.9915 7.91246 57.9915 12.0375C57.9915 16.1966 55.7074 18.8216 52.4347 18.8216C49.9119 18.8216 49.0597 17.2534 48.6165 16.5375H48.446V23.4579H46.4347ZM48.4119 12.0034C48.4119 14.9693 49.7415 17.0147 52.1619 17.0147C54.6847 17.0147 55.9801 14.7988 55.9801 12.0034C55.9801 9.24201 54.7188 7.09428 52.1619 7.09428C49.7074 7.09428 48.4119 9.07156 48.4119 12.0034ZM64.9119 18.8556C62.4233 18.8556 60.446 17.3897 60.446 14.8329C60.446 11.8329 63.0966 11.296 65.5256 10.9806C67.9119 10.6738 68.9006 10.7591 68.9006 9.78746V9.71928C68.9006 8.04031 67.9886 7.06019 66.1392 7.06019C64.2216 7.06019 63.1733 8.08292 62.7301 9.03746L60.821 8.35565C61.8438 5.96928 64.0938 5.28746 66.071 5.28746C67.7415 5.28746 70.9119 5.76474 70.9119 9.92383V18.5488H68.9006V16.7761H68.7983C68.3892 17.6284 67.196 18.8556 64.9119 18.8556ZM65.2188 17.0488C67.6051 17.0488 68.9006 15.4466 68.9006 13.8102V11.9693C68.5597 12.3784 66.2756 12.617 65.4233 12.7193C63.8551 12.9238 62.4574 13.4011 62.4574 14.9352C62.4574 16.3329 63.6165 17.0488 65.2188 17.0488ZM79.9013 18.8216C76.2195 18.8216 73.9695 15.992 73.9695 12.0716C73.9695 8.08292 76.3217 5.28746 79.8672 5.28746C82.6286 5.28746 84.7081 6.92383 85.049 9.37837H83.0376C82.7308 8.18519 81.674 7.09428 79.9013 7.09428C77.549 7.09428 75.9808 9.03746 75.9808 12.0034C75.9808 15.0375 77.5149 17.0147 79.9013 17.0147C81.4695 17.0147 82.6626 16.1625 83.0376 14.7306H85.049C84.7081 17.0488 82.799 18.8216 79.9013 18.8216ZM93.478 18.8216C89.6939 18.8216 87.3757 16.1284 87.3757 12.1056C87.3757 8.08292 89.728 5.28746 93.2734 5.28746C96.0007 5.28746 98.8984 6.95792 98.8984 11.8329V12.6852H89.3956C89.4893 15.4892 91.1172 17.0147 93.478 17.0147C95.0547 17.0147 96.2393 16.3329 96.7507 14.9693L98.6939 15.5147C98.0803 17.492 96.1371 18.8216 93.478 18.8216ZM89.3956 10.9466H96.853C96.853 8.73065 95.4553 7.09428 93.2734 7.09428C90.9723 7.09428 89.532 8.90962 89.3956 10.9466ZM108.981 18.5488V1.09428H115.083C118.731 1.09428 120.435 3.17383 120.435 5.73065C120.435 7.98065 119.106 8.96928 117.606 9.37837V9.54883C119.208 9.6511 121.117 11.1511 121.117 13.9125C121.117 16.5375 119.413 18.5488 115.288 18.5488H108.981ZM111.094 16.6738H115.288C118.049 16.6738 119.106 15.4466 119.106 13.9125C119.106 12.1397 117.674 10.6056 115.39 10.6056H111.094V16.6738ZM111.094 8.76474H115.015C116.924 8.76474 118.424 7.57156 118.424 5.73065C118.424 4.19656 117.401 2.96928 115.083 2.96928H111.094V8.76474ZM129.806 18.8216C126.022 18.8216 123.704 16.1284 123.704 12.1056C123.704 8.08292 126.056 5.28746 129.602 5.28746C132.329 5.28746 135.227 6.95792 135.227 11.8329V12.6852H125.724C125.817 15.4892 127.445 17.0147 129.806 17.0147C131.383 17.0147 132.567 16.3329 133.079 14.9693L135.022 15.5147C134.408 17.492 132.465 18.8216 129.806 18.8216ZM125.724 10.9466H133.181C133.181 8.73065 131.783 7.09428 129.602 7.09428C127.3 7.09428 125.86 8.90962 125.724 10.9466ZM143.979 5.45792V7.16246H141.184V14.7988C141.184 16.5034 142.036 16.7761 142.923 16.7761C143.366 16.7761 143.638 16.7079 143.809 16.6738L144.218 18.4806C143.945 18.5829 143.468 18.7193 142.718 18.7193C141.013 18.7193 139.173 17.6284 139.173 15.3443V7.16246H137.195V5.45792H139.173V2.32156H141.184V5.45792H143.979ZM149.971 18.5488L145.982 5.45792H148.096L150.925 15.4806H151.062L153.857 5.45792H156.005L158.766 15.4466H158.903L161.732 5.45792H163.846L159.857 18.5488H157.88L155.016 8.49201H154.812L151.948 18.5488H149.971ZM171.548 18.8216C167.764 18.8216 165.446 16.1284 165.446 12.1056C165.446 8.08292 167.798 5.28746 171.344 5.28746C174.071 5.28746 176.969 6.95792 176.969 11.8329V12.6852H167.466C167.56 15.4892 169.188 17.0147 171.548 17.0147C173.125 17.0147 174.31 16.3329 174.821 14.9693L176.764 15.5147C176.151 17.492 174.207 18.8216 171.548 18.8216ZM167.466 10.9466H174.923C174.923 8.73065 173.526 7.09428 171.344 7.09428C169.043 7.09428 167.602 8.90962 167.466 10.9466ZM185.517 18.8216C181.733 18.8216 179.415 16.1284 179.415 12.1056C179.415 8.08292 181.767 5.28746 185.312 5.28746C188.04 5.28746 190.938 6.95792 190.938 11.8329V12.6852H181.435C181.528 15.4892 183.156 17.0147 185.517 17.0147C187.094 17.0147 188.278 16.3329 188.79 14.9693L190.733 15.5147C190.119 17.492 188.176 18.8216 185.517 18.8216ZM181.435 10.9466H188.892C188.892 8.73065 187.494 7.09428 185.312 7.09428C183.011 7.09428 181.571 8.90962 181.435 10.9466ZM196.009 10.6738V18.5488H193.997V5.45792H195.94V7.50337H196.111C196.724 6.17383 197.952 5.28746 199.929 5.28746C202.58 5.28746 204.361 6.88974 204.361 10.2306V18.5488H202.349V10.367C202.349 8.31303 201.216 7.09428 199.349 7.09428C197.423 7.09428 196.009 8.38974 196.009 10.6738ZM215.059 18.5488V1.09428H220.957C225.048 1.09428 226.888 3.36133 226.888 6.44656C226.888 8.76474 225.849 10.5801 223.624 11.3386L227.57 18.5488H225.116L221.434 11.7221C221.289 11.7306 221.144 11.7306 220.991 11.7306H217.173V18.5488H215.059ZM217.173 9.82156H220.923C223.718 9.82156 224.809 8.54315 224.809 6.44656C224.809 4.34996 223.718 2.96928 220.888 2.96928H217.173V9.82156ZM235.486 18.8216C231.702 18.8216 229.384 16.1284 229.384 12.1056C229.384 8.08292 231.736 5.28746 235.281 5.28746C238.009 5.28746 240.906 6.95792 240.906 11.8329V12.6852H231.403C231.497 15.4892 233.125 17.0147 235.486 17.0147C237.062 17.0147 238.247 16.3329 238.759 14.9693L240.702 15.5147C240.088 17.492 238.145 18.8216 235.486 18.8216ZM231.403 10.9466H238.861C238.861 8.73065 237.463 7.09428 235.281 7.09428C232.98 7.09428 231.54 8.90962 231.403 10.9466ZM247.818 18.8556C245.33 18.8556 243.352 17.3897 243.352 14.8329C243.352 11.8329 246.003 11.296 248.432 10.9806C250.818 10.6738 251.807 10.7591 251.807 9.78746V9.71928C251.807 8.04031 250.895 7.06019 249.045 7.06019C247.128 7.06019 246.08 8.08292 245.636 9.03746L243.727 8.35565C244.75 5.96928 247 5.28746 248.977 5.28746C250.648 5.28746 253.818 5.76474 253.818 9.92383V18.5488H251.807V16.7761H251.705C251.295 17.6284 250.102 18.8556 247.818 18.8556ZM248.125 17.0488C250.511 17.0488 251.807 15.4466 251.807 13.8102V11.9693C251.466 12.3784 249.182 12.617 248.33 12.7193C246.761 12.9238 245.364 13.4011 245.364 14.9352C245.364 16.3329 246.523 17.0488 248.125 17.0488ZM259.501 1.09428V18.5488H257.489V1.09428H259.501ZM263.185 18.5488V5.45792H265.196V18.5488H263.185ZM264.207 3.2761C263.423 3.2761 262.776 2.66246 262.776 1.91246C262.776 1.16246 263.423 0.548828 264.207 0.548828C264.991 0.548828 265.639 1.16246 265.639 1.91246C265.639 2.66246 264.991 3.2761 264.207 3.2761ZM274.573 5.45792V7.16246H271.778V14.7988C271.778 16.5034 272.63 16.7761 273.516 16.7761C273.96 16.7761 274.232 16.7079 274.403 16.6738L274.812 18.4806C274.539 18.5829 274.062 18.7193 273.312 18.7193C271.607 18.7193 269.766 17.6284 269.766 15.3443V7.16246H267.789V5.45792H269.766V2.32156H271.778V5.45792H274.573ZM278.894 23.4579C278.212 23.4579 277.633 23.3216 277.428 23.2193L277.94 21.4466C278.323 21.5403 278.664 21.6 278.971 21.6C279.866 21.6 280.496 21.1142 281.042 19.6397L281.417 18.617L276.576 5.45792H278.758L282.371 15.8897H282.508L286.121 5.45792H288.303L282.746 20.4579C281.988 22.4949 280.71 23.4579 278.894 23.4579ZM302.651 18.7875C299.208 18.7875 297.094 16.742 297.094 13.9125C297.094 11.7988 298.501 10.4863 300.538 9.07156C299.336 7.62269 298.492 6.42951 298.492 4.87837C298.492 2.5261 300.163 0.923828 302.719 0.923828C305.344 0.923828 306.947 2.62837 306.947 4.57156C306.947 6.24201 306.06 7.4011 304.629 8.45792L303.35 9.41246L307.143 14.0403C307.594 13.1625 307.867 12.1056 307.867 10.9125H309.81C309.81 13.35 309.077 14.7647 308.421 15.6085L310.833 18.5488H308.413L307.177 17.0659C306.043 18.225 304.254 18.7875 302.651 18.7875ZM305.975 15.6085L301.799 10.5716L301.151 11.0488C299.583 12.2079 299.14 13.4352 299.14 13.9125C299.14 15.5488 300.504 17.0147 302.583 17.0147C303.793 17.0147 305.012 16.5119 305.975 15.6085ZM302.114 7.91246L303.265 7.06019C304.254 6.41246 304.901 5.76474 304.901 4.57156C304.901 3.68519 304.049 2.66246 302.788 2.66246C301.458 2.66246 300.538 3.82156 300.538 4.91246C300.538 5.88406 301.262 6.87269 302.114 7.91246ZM325.469 18.5488H320.082V1.09428H325.707C330.787 1.09428 333.787 4.36701 333.787 9.78746C333.787 15.242 330.787 18.5488 325.469 18.5488ZM322.196 16.6738H325.332C329.662 16.6738 331.741 14.0488 331.741 9.78746C331.741 5.56019 329.662 2.96928 325.571 2.96928H322.196V16.6738ZM337.06 18.5488V5.45792H339.003V7.43519H339.139C339.616 6.13974 340.98 5.25337 342.548 5.25337C342.847 5.25337 343.375 5.27042 343.605 5.28746V7.33292C343.469 7.29883 342.915 7.19656 342.378 7.19656C340.469 7.19656 339.071 8.49201 339.071 10.2647V18.5488H337.06ZM351.08 18.8216C347.295 18.8216 344.977 16.1284 344.977 12.1056C344.977 8.08292 347.33 5.28746 350.875 5.28746C353.602 5.28746 356.5 6.95792 356.5 11.8329V12.6852H346.997C347.091 15.4892 348.719 17.0147 351.08 17.0147C352.656 17.0147 353.841 16.3329 354.352 14.9693L356.295 15.5147C355.682 17.492 353.739 18.8216 351.08 18.8216ZM346.997 10.9466H354.455C354.455 8.73065 353.057 7.09428 350.875 7.09428C348.574 7.09428 347.134 8.90962 346.997 10.9466ZM363.412 18.8556C360.923 18.8556 358.946 17.3897 358.946 14.8329C358.946 11.8329 361.597 11.296 364.026 10.9806C366.412 10.6738 367.401 10.7591 367.401 9.78746V9.71928C367.401 8.04031 366.489 7.06019 364.639 7.06019C362.722 7.06019 361.673 8.08292 361.23 9.03746L359.321 8.35565C360.344 5.96928 362.594 5.28746 364.571 5.28746C366.241 5.28746 369.412 5.76474 369.412 9.92383V18.5488H367.401V16.7761H367.298C366.889 17.6284 365.696 18.8556 363.412 18.8556ZM363.719 17.0488C366.105 17.0488 367.401 15.4466 367.401 13.8102V11.9693C367.06 12.3784 364.776 12.617 363.923 12.7193C362.355 12.9238 360.957 13.4011 360.957 14.9352C360.957 16.3329 362.116 17.0488 363.719 17.0488ZM373.083 18.5488V5.45792H375.026V7.50337H375.197C375.742 6.10565 377.004 5.28746 378.708 5.28746C380.43 5.28746 381.572 6.10565 382.219 7.50337H382.356C383.029 6.14826 384.401 5.28746 386.276 5.28746C388.612 5.28746 390.265 6.71076 390.265 9.78746V18.5488H388.254V9.78746C388.254 7.85281 387.026 7.09428 385.594 7.09428C383.754 7.09428 382.697 8.3386 382.697 10.0261V18.5488H380.651V9.58292C380.651 8.09144 379.586 7.09428 378.06 7.09428C376.492 7.09428 375.094 8.4494 375.094 10.367V18.5488H373.083ZM403.215 8.38974L401.408 8.9011C401.059 7.99769 400.335 7.0261 398.579 7.0261C396.977 7.0261 395.783 7.84428 395.783 8.96928C395.783 9.97496 396.482 10.4949 398.033 10.8784L399.977 11.3556C402.312 11.9267 403.454 13.0772 403.454 14.9011C403.454 17.1596 401.383 18.8216 398.34 18.8216C395.664 18.8216 393.832 17.6369 393.363 15.4125L395.272 14.9352C395.63 16.3414 396.661 17.0488 398.306 17.0488C400.181 17.0488 401.374 16.1284 401.374 15.0034C401.374 14.1 400.752 13.4693 399.431 13.1625L397.249 12.6511C394.846 12.0886 393.772 10.8784 393.772 9.07156C393.772 6.85565 395.817 5.28746 398.579 5.28746C401.17 5.28746 402.585 6.53178 403.215 8.38974ZM407.947 18.6852C407.104 18.6852 406.413 17.9949 406.413 17.1511C406.413 16.3074 407.104 15.617 407.947 15.617C408.791 15.617 409.482 16.3074 409.482 17.1511C409.482 17.9949 408.791 18.6852 407.947 18.6852ZM412.861 1.09428V7.09428H410.986V1.09428H412.861ZM417.224 1.09428V7.09428H415.349V1.09428H417.224Z" fill="#1A1A1A"/>
</svg>
