<svg width="361" height="25" viewBox="0 0 361 25" fill="none" xmlns="http://www.w3.org/2000/svg">
<path d="M6.00656 1.31683C6.00656 1.34083 6.07856 2.85283 4.68656 3.16483L4.59056 2.82883C4.99856 2.75683 5.33456 2.46883 5.50256 2.10883C5.16656 2.25283 4.73456 2.18083 4.49456 1.86883C4.23056 1.58083 4.20656 1.17283 4.42256 0.836827C4.63856 0.524827 5.02256 0.380827 5.40656 0.476828C5.76656 0.596828 6.03056 0.932827 6.00656 1.31683ZM2.67056 1.31683C2.67056 1.34083 2.71856 2.85283 1.32656 3.16483L1.25456 2.82883C1.63856 2.75683 1.99856 2.46883 2.16656 2.10883C1.80656 2.25283 1.39856 2.18083 1.13456 1.86883C0.894563 1.58083 0.870563 1.17283 1.06256 0.836827C1.27856 0.524827 1.68656 0.380827 2.04656 0.476828C2.40656 0.596828 2.67056 0.932827 2.67056 1.31683ZM18.9516 18.2368L19.3116 18.5728H15.9516C16.4076 18.1408 16.5516 17.4928 16.3116 16.9168L13.9596 10.9888C13.0476 11.6128 11.9436 11.9248 10.8156 11.9008C9.06356 11.8528 8.31956 12.5968 8.19956 12.7168L7.28756 15.0448C7.28756 15.0688 7.28756 15.0688 7.28756 15.0688C7.14356 15.4528 7.11956 15.8848 7.23956 16.2688C7.45556 16.9168 7.91156 17.4448 8.53556 17.7328C8.63156 17.8048 8.58356 18.0448 8.41556 18.3088C8.39156 18.3568 8.36756 18.3808 8.34356 18.4288L8.24756 18.5488L8.22356 18.5728L8.12756 18.6928C8.10356 18.7168 8.07956 18.7648 8.05556 18.7888C7.83956 19.0288 7.55156 19.1008 7.43156 18.9328C6.83156 18.2128 6.54356 17.2768 6.61556 16.3168C6.66356 15.8368 6.78356 15.3568 6.97556 14.9248L12.1836 1.74883L18.3516 17.3728C18.4956 17.7088 18.6876 17.9968 18.9516 18.2368ZM10.8156 11.5408C11.8956 11.5648 12.9516 11.2528 13.8396 10.6528L11.4396 4.58083L8.46356 12.0928C9.18356 11.6848 9.99956 11.4928 10.8156 11.5408ZM37.0384 13.9648C37.2064 15.5248 36.4144 17.0368 34.9984 17.7568C34.5184 18.0208 34.0144 18.2128 33.4864 18.3328C33.0784 18.4288 32.6704 18.5008 32.2624 18.5248H32.1904C32.1184 18.5248 32.0704 18.5488 31.9984 18.5488C31.8544 18.5488 31.6864 18.5488 31.5424 18.5488C30.8944 18.5728 30.2464 18.5008 29.5984 18.4048C28.3744 18.1648 27.2464 17.6128 26.3344 16.7968C26.2624 16.7008 26.2144 16.5568 26.2384 16.4128C26.2384 16.2688 26.3344 16.1488 26.4304 16.0768C26.5984 15.9328 26.7664 15.8368 26.9344 15.7408C27.2224 15.5968 27.4864 15.5968 27.5824 15.7408C28.1104 16.6288 28.8784 17.3248 29.7904 17.7808C30.3424 18.0688 30.9424 18.2128 31.5424 18.2128C31.5664 18.2128 31.5904 18.2128 31.6144 18.2128C32.2384 18.2128 32.8384 18.1168 33.4144 17.9248C33.8944 17.7808 34.3264 17.5648 34.7344 17.2768C35.3584 16.7968 35.7664 16.1008 35.8624 15.3088C35.9104 14.9488 35.8624 14.5648 35.7664 14.1808C35.6944 13.9888 35.6224 13.7968 35.5264 13.6288C35.4784 13.5328 35.4064 13.4368 35.3584 13.3648C35.2864 13.2688 35.2144 13.1968 35.1424 13.1248C34.7104 12.7408 34.2064 12.4288 33.6784 12.1888C33.0304 11.8288 32.3104 11.4928 31.4464 11.0608C30.6304 10.7008 29.8624 10.2688 29.1184 9.78883C28.4704 9.40483 27.9184 8.90083 27.4384 8.30083C27.0304 7.79683 26.7424 7.22083 26.5984 6.57283C26.5024 6.02083 26.5264 5.46883 26.6704 4.94083C26.9584 3.98083 27.5584 3.16483 28.3744 2.63683C29.2384 2.06083 30.3664 1.72483 31.8304 1.72483C32.5024 1.72483 33.1504 1.82083 33.7744 1.98883C34.3744 2.15683 34.9264 2.44483 35.4064 2.80483C35.9104 3.18883 36.3424 3.64483 36.7024 4.14883C36.7744 4.26883 36.7984 4.41283 36.7504 4.55683C36.7024 4.67683 36.6064 4.77283 36.4864 4.84483C36.2944 4.94083 36.1024 5.01283 35.9104 5.06083C35.5984 5.15683 35.3344 5.10883 35.2864 4.91683C34.9744 3.95683 34.3504 3.14083 33.5104 2.58883C33.0064 2.25283 32.4304 2.08483 31.8304 2.08483C30.4144 2.08483 29.3824 2.49283 28.7344 3.09283C28.1344 3.59683 27.7504 4.34083 27.7024 5.13283C27.6544 5.87683 27.8704 6.59683 28.5904 7.31683C29.0224 7.72483 29.4784 8.08483 30.0064 8.37283C30.6064 8.73283 31.3264 9.09283 32.1904 9.50083C32.6224 9.71683 33.0304 9.90883 33.4144 10.1008C33.6064 10.2208 33.8224 10.3168 33.9904 10.4128L34.4944 10.7008C35.1664 11.0848 35.7664 11.5408 36.2944 12.1168C36.4144 12.2608 36.5104 12.4288 36.6064 12.5968C36.6784 12.7408 36.7504 12.8848 36.8224 13.0528C36.9184 13.3408 36.9904 13.6528 37.0384 13.9648ZM49.2227 10.3408C50.2067 12.0928 50.2067 14.2288 49.2227 15.9808C48.9107 16.5328 48.4787 17.0128 47.9507 17.3968C47.5187 17.7088 47.0387 17.9728 46.5347 18.1648C46.0547 18.3568 45.5507 18.4768 45.0467 18.5248C44.8787 18.5488 44.7107 18.5488 44.5427 18.5488C43.0787 18.5248 41.7347 17.8048 40.8947 16.6048V22.8208C40.8947 23.4688 41.1827 24.0928 41.6387 24.5248L41.7107 24.5968H38.3507L38.4227 24.5248C38.9027 24.0928 39.1667 23.4688 39.1667 22.8208V11.3488C39.1667 10.9168 39.1187 10.4608 39.0227 10.0048C38.9747 9.71683 38.8787 9.42883 38.7827 9.14083C38.5187 8.49283 37.8707 8.08483 37.1747 8.10883V7.77283C37.6307 7.77283 38.0867 7.82083 38.5187 7.96483C38.8787 8.06083 39.2387 8.22883 39.5507 8.44483C39.9107 8.70883 40.2227 9.04483 40.4387 9.42883C40.5347 9.62083 40.6307 9.81283 40.7027 10.0288C41.5667 8.66083 42.9587 7.77283 44.5427 7.77283C44.7107 7.77283 44.9027 7.77283 45.0707 7.79683C45.5747 7.86883 46.0787 7.98883 46.5587 8.15683C47.0627 8.34883 47.5427 8.61283 47.9747 8.92483C48.4787 9.30883 48.9107 9.78883 49.2227 10.3408ZM47.8547 15.3328C48.3347 13.9168 48.3347 12.4048 47.8547 10.9888C47.6867 10.5328 47.4707 10.0768 47.2067 9.64483C46.9667 9.26083 46.6547 8.92483 46.2707 8.66083C45.7667 8.30083 45.1667 8.10883 44.5427 8.10883C42.9827 8.10883 41.5907 9.06883 40.8227 10.5088C40.8707 10.7968 40.8947 11.0608 40.8947 11.3488V15.9808C41.6867 17.3248 43.0307 18.2128 44.5427 18.2128C45.1667 18.2128 45.7667 18.0208 46.2707 17.6608C46.6547 17.3968 46.9667 17.0608 47.2067 16.6768C47.4707 16.2448 47.6867 15.7888 47.8547 15.3328ZM61.0404 18.5488L58.4724 18.5728V17.2768C58.1604 17.5168 57.8244 17.7328 57.4644 17.9248C57.1284 18.0928 56.7684 18.2368 56.4084 18.3088C56.1684 18.3808 55.9284 18.4288 55.6884 18.4768C55.1364 18.5728 54.5844 18.5728 54.0564 18.5008C53.4804 18.4288 52.9524 18.2368 52.4724 17.9248L52.2804 17.8048C52.2084 17.7568 52.1604 17.7088 52.0884 17.6368C51.9684 17.5408 51.8484 17.3968 51.7524 17.2768C51.6564 17.1088 51.5604 16.9648 51.4884 16.7968C51.4164 16.6288 51.3684 16.4848 51.3204 16.3168C51.1764 15.6928 51.2244 15.0208 51.4644 14.4208C51.7044 13.8688 52.0644 13.4128 52.5204 13.0528C53.0004 12.7168 53.5044 12.4528 54.0324 12.2608C54.5844 12.0448 55.1604 11.8768 55.7364 11.7568C58.2564 11.1328 58.3524 10.3168 58.3524 10.2928H58.3764C58.3524 10.1728 58.3284 10.0528 58.3044 9.93283C58.2324 9.64483 58.1124 9.35683 57.9444 9.09283C57.8004 8.82883 57.5844 8.61283 57.3444 8.44483C56.9844 8.20483 56.5764 8.10883 56.1444 8.10883C55.6164 8.10883 55.1124 8.27683 54.6804 8.58883C54.0084 9.11683 53.6004 9.90883 53.5764 10.7728C53.5524 10.9408 53.3124 11.0128 53.0004 10.9888C52.7844 10.9888 52.5924 10.9648 52.4004 10.8928C52.0884 10.7968 51.8964 10.5328 52.0164 10.3408C52.2324 9.78883 52.5684 9.30883 52.9764 8.90083C53.3604 8.49283 53.8644 8.18083 54.3924 8.01283C54.9684 7.84483 55.5444 7.74883 56.1444 7.77283C56.6244 7.77283 57.0804 7.82083 57.5604 7.91683C57.9444 7.98883 58.3044 8.13283 58.6404 8.30083C59.0724 8.54083 59.4084 8.87683 59.6724 9.28483C60.0324 9.88483 60.2244 10.6048 60.2244 11.3008V16.7968C60.2244 17.4448 60.4884 18.0688 60.9684 18.5008L61.0404 18.5488ZM57.2964 17.6128C57.7284 17.3968 58.1124 17.1328 58.4724 16.8208V11.3008C58.4724 11.1328 58.4724 10.9888 58.4484 10.8448C58.1364 11.2048 57.4164 11.7088 55.8084 12.0928C54.5844 12.4048 53.7204 13.0528 53.2884 13.7728C53.0964 14.0848 52.9524 14.4688 52.9284 14.8288C52.9044 15.1888 52.9284 15.5488 53.0244 15.8848C53.0244 15.9808 53.0724 16.0768 53.0964 16.1728C53.1204 16.2208 53.1204 16.2928 53.1684 16.3648C53.1924 16.4368 53.2404 16.5088 53.2884 16.5568L53.3604 16.6768L53.4324 16.7728C53.6964 17.0608 54.0084 17.3248 54.3444 17.5168C54.7524 17.7328 55.2084 17.8768 55.6884 17.9248C56.2404 17.9728 56.7924 17.8528 57.2964 17.6128ZM72.2994 15.4528L72.6354 15.5488L72.5874 15.7168C72.5634 15.7408 71.6754 18.4768 67.8354 18.5488H67.6914H67.4994C67.3794 18.5488 67.2594 18.5488 67.1634 18.5248C66.6354 18.4768 66.1314 18.3568 65.6514 18.1888C65.1234 17.9968 64.6434 17.7328 64.2114 17.4208C63.6834 17.0368 63.2514 16.5568 62.9154 16.0048C61.9074 14.2288 61.9074 12.0928 62.9154 10.3168C63.2514 9.76483 63.6834 9.28483 64.2114 8.90083C64.6434 8.58883 65.1234 8.32483 65.6514 8.13283C66.1314 7.96483 66.6354 7.84483 67.1634 7.79683C67.3314 7.77283 67.4994 7.77283 67.6674 7.77283H67.8354C68.3394 7.79683 68.8194 7.89283 69.2754 8.03683C69.7794 8.20483 70.2354 8.49283 70.5954 8.87683C71.0034 9.28483 71.2914 9.78883 71.4354 10.3408C71.4834 10.5568 71.2674 10.7728 70.9554 10.8208C70.7634 10.8448 70.5474 10.8448 70.3554 10.8208C70.0194 10.7728 69.8034 10.6768 69.8274 10.5568C69.8514 10.1968 69.8034 9.86083 69.6834 9.52483C69.5154 9.16483 69.2754 8.85283 68.9634 8.61283C68.6034 8.30083 68.1474 8.10883 67.6674 8.10883H67.6194C66.9954 8.10883 66.3954 8.30083 65.8914 8.66083C65.5074 8.92483 65.1954 9.26083 64.9314 9.64483C64.6674 10.0528 64.4514 10.5088 64.2834 10.9888C63.7794 12.4048 63.7794 13.9408 64.2834 15.3328C64.4514 15.8128 64.6674 16.2688 64.9554 16.6768C65.1954 17.0848 65.5074 17.4208 65.8914 17.6848C66.4194 18.0208 67.0434 18.2128 67.6674 18.2128H67.6914C71.4114 18.1888 72.2274 15.6448 72.2514 15.6208L72.2994 15.4528ZM83.6404 15.4288L83.9524 15.5248L83.9044 15.6928C83.9044 15.7168 83.0164 18.4288 79.2244 18.5008H79.0804C79.0804 18.5008 78.8884 18.5008 78.8644 18.5008C78.7684 18.5008 78.6484 18.4768 78.5524 18.4768C78.0484 18.4288 77.5444 18.3088 77.0404 18.1168C76.5364 17.9488 76.0564 17.6848 75.6244 17.3728C75.0964 16.9888 74.6644 16.5328 74.3524 15.9808C73.3444 14.2288 73.3444 12.0928 74.3524 10.3408C74.6644 9.81283 75.0964 9.33283 75.6244 8.94883C76.0564 8.63683 76.5364 8.37283 77.0404 8.20483C77.5444 8.01283 78.0484 7.89283 78.5524 7.84483C78.7204 7.82083 78.8884 7.82083 79.0564 7.82083H79.2244C79.8724 7.84483 80.5204 7.98883 81.1444 8.22883C82.3444 8.68483 83.2804 9.66883 83.6884 10.9168C83.7364 11.0128 83.7604 11.1088 83.7844 11.2048C83.7844 11.2288 83.7844 11.2288 83.7844 11.2528H75.6244C75.4324 11.8768 75.3364 12.5248 75.3364 13.1728C75.3364 13.8928 75.4564 14.6128 75.6964 15.3088C75.8644 15.7888 76.0804 16.2208 76.3684 16.6288C76.6084 17.0368 76.9204 17.3728 77.3044 17.6128C77.7364 17.9248 78.2404 18.0928 78.7444 18.1408C78.8404 18.1408 78.9364 18.1648 79.0564 18.1648H79.0804C82.7284 18.1408 83.5444 15.6928 83.5684 15.5968L83.6404 15.4288ZM76.3684 9.69283C76.1044 10.0768 75.9124 10.4848 75.7444 10.9168H82.1524C82.1044 10.5808 82.0084 10.2928 81.8644 10.0048C81.6244 9.52483 81.2644 9.09283 80.8324 8.78083C80.3284 8.39683 79.7044 8.18083 79.0564 8.15683H79.0324L79.0084 8.18083C78.3844 8.18083 77.8084 8.37283 77.2804 8.70883C76.9204 8.97283 76.6084 9.30883 76.3684 9.69283ZM104.138 12.5248C104.282 13.0528 104.378 13.6048 104.354 14.1328C104.378 14.6848 104.282 15.2368 104.114 15.7408C103.994 16.1728 103.778 16.5568 103.514 16.9168C103.106 17.4208 102.578 17.8288 101.978 18.0688C101.066 18.4288 100.274 18.5248 98.9535 18.5728H91.6575L91.7295 18.5008C92.1855 18.0688 92.4735 17.4448 92.4735 16.7968V3.50083C92.4735 2.85283 92.1855 2.22883 91.7295 1.79683L91.6575 1.72483H98.1855C98.7615 1.74883 99.3135 1.82083 99.8655 1.94083C100.298 2.06083 100.73 2.22883 101.138 2.42083C101.618 2.68483 102.05 3.04483 102.362 3.47683C102.482 3.62083 102.578 3.78883 102.65 3.93283C102.746 4.10083 102.842 4.29283 102.89 4.48483C102.986 4.70083 103.034 4.91683 103.057 5.15683C103.106 5.27683 103.106 5.39683 103.106 5.51683C103.13 5.58883 103.13 5.63683 103.13 5.70883C103.13 5.78083 103.13 5.85283 103.13 5.90083C103.13 5.94883 103.13 6.02083 103.13 6.09283C103.13 6.14083 103.13 6.21283 103.106 6.28483C103.106 6.33283 103.106 6.40483 103.106 6.47683C103.082 6.52483 103.082 6.59683 103.082 6.64483C103.057 6.76483 103.034 6.88483 103.01 7.00483L102.914 7.31683C102.842 7.50883 102.746 7.67683 102.65 7.86883C102.578 8.01283 102.482 8.15683 102.386 8.30083C102.05 8.75683 101.618 9.11683 101.138 9.38083C100.826 9.54883 100.466 9.66883 100.13 9.76483C100.202 9.78883 100.298 9.81283 100.37 9.81283C100.394 9.83683 100.442 9.83683 100.466 9.83683C100.994 9.90883 101.498 10.0288 101.978 10.1968C102.578 10.4368 103.106 10.8448 103.514 11.3488C103.634 11.5168 103.754 11.7088 103.85 11.8768C103.97 12.0928 104.066 12.3088 104.138 12.5248ZM94.2015 2.08483V9.71683H98.1855H98.2335C98.7375 9.71683 99.2415 9.57283 99.6735 9.30883C99.9855 9.11683 100.274 8.85283 100.49 8.56483C100.73 8.22883 100.922 7.89283 101.066 7.53283C101.114 7.43683 101.138 7.31683 101.186 7.19683C101.234 7.07683 101.258 6.95683 101.306 6.81283C101.306 6.76483 101.33 6.69283 101.33 6.62083C101.354 6.54883 101.354 6.47683 101.378 6.40483C101.378 6.35683 101.378 6.33283 101.378 6.28483C101.378 6.23683 101.378 6.21283 101.378 6.16483C101.378 6.11683 101.378 6.06883 101.402 6.04483C101.402 5.99683 101.402 5.94883 101.402 5.90083C101.402 5.82883 101.402 5.80483 101.402 5.75683C101.402 5.70883 101.378 5.66083 101.378 5.63683C101.378 5.54083 101.378 5.46883 101.378 5.39683C101.354 5.25283 101.33 5.10883 101.306 4.96483C101.258 4.84483 101.234 4.72483 101.186 4.60483C101.138 4.48483 101.114 4.36483 101.066 4.26883C100.922 3.90883 100.73 3.54883 100.49 3.23683C100.25 2.92483 99.9855 2.66083 99.6495 2.46883C99.2175 2.20483 98.7135 2.08483 98.1855 2.08483H94.2015ZM102.506 15.2848C102.602 14.9008 102.626 14.5168 102.626 14.1328C102.626 14.0128 102.626 13.9168 102.626 13.7968C102.626 13.7008 102.602 13.6048 102.602 13.5088C102.578 13.4128 102.578 13.3168 102.554 13.2448C102.554 13.1488 102.53 13.0768 102.506 13.0048C102.482 12.8368 102.434 12.6928 102.386 12.5488C102.338 12.4288 102.29 12.3088 102.242 12.1888C102.05 11.7808 101.762 11.3968 101.45 11.0848C101.114 10.7968 100.73 10.5568 100.322 10.3888C99.7455 10.1488 99.1455 10.0528 98.5215 10.0528H94.2015V18.2128H98.5695C100.082 18.1888 100.826 17.7328 101.45 17.1808C101.762 16.8688 102.026 16.5088 102.218 16.1008C102.362 15.8368 102.458 15.5488 102.506 15.2848ZM115.633 15.4288L115.945 15.5248L115.897 15.6928C115.897 15.7168 115.009 18.4288 111.217 18.5008H111.073C111.073 18.5008 110.881 18.5008 110.857 18.5008C110.761 18.5008 110.641 18.4768 110.545 18.4768C110.041 18.4288 109.537 18.3088 109.033 18.1168C108.529 17.9488 108.049 17.6848 107.617 17.3728C107.089 16.9888 106.657 16.5328 106.345 15.9808C105.337 14.2288 105.337 12.0928 106.345 10.3408C106.657 9.81283 107.089 9.33283 107.617 8.94883C108.049 8.63683 108.529 8.37283 109.033 8.20483C109.537 8.01283 110.041 7.89283 110.545 7.84483C110.713 7.82083 110.881 7.82083 111.049 7.82083H111.217C111.865 7.84483 112.513 7.98883 113.137 8.22883C114.337 8.68483 115.273 9.66883 115.681 10.9168C115.729 11.0128 115.753 11.1088 115.777 11.2048C115.777 11.2288 115.777 11.2288 115.777 11.2528H107.617C107.425 11.8768 107.329 12.5248 107.329 13.1728C107.329 13.8928 107.449 14.6128 107.689 15.3088C107.857 15.7888 108.073 16.2208 108.361 16.6288C108.601 17.0368 108.913 17.3728 109.297 17.6128C109.729 17.9248 110.233 18.0928 110.737 18.1408C110.833 18.1408 110.929 18.1648 111.049 18.1648H111.073C114.721 18.1408 115.537 15.6928 115.561 15.5968L115.633 15.4288ZM108.361 9.69283C108.097 10.0768 107.905 10.4848 107.737 10.9168H114.145C114.097 10.5808 114.001 10.2928 113.857 10.0048C113.617 9.52483 113.257 9.09283 112.825 8.78083C112.321 8.39683 111.697 8.18083 111.049 8.15683H111.025L111.001 8.18083C110.377 8.18083 109.801 8.37283 109.273 8.70883C108.913 8.97283 108.601 9.30883 108.361 9.69283ZM121.46 8.10883H119.492V14.7568C119.492 15.2128 119.516 15.6928 119.588 16.1728C119.612 16.4848 119.684 16.7968 119.756 17.0848C119.828 17.3728 119.972 17.6128 120.164 17.8288C120.452 18.0928 120.836 18.2368 121.22 18.2128V18.5488C120.74 18.5728 120.284 18.4768 119.852 18.3088C119.516 18.1408 119.18 17.9488 118.916 17.6848C118.58 17.3968 118.316 17.0368 118.124 16.6288C117.884 16.0288 117.74 15.4048 117.74 14.7568V8.10883H116.444C118.028 7.43683 119.492 4.36483 119.492 4.36483V7.77283H121.46V8.10883ZM138.894 7.77283H141.15C140.286 8.27683 139.59 9.02083 139.158 9.93283L135.102 18.5488L131.598 11.1568L128.118 18.5728L124.662 11.2768C124.182 10.1968 123.942 9.64483 123.654 9.16483C123.51 8.87683 123.294 8.63683 123.03 8.46883C122.67 8.22883 122.238 8.10883 121.806 8.10883V7.77283C122.286 7.77283 122.766 7.82083 123.246 7.94083C123.63 8.03683 124.014 8.18083 124.35 8.39683C124.998 8.75683 125.622 9.35683 126.246 10.5328L126.414 10.9168L128.886 16.1248L132.366 8.70883L135.87 16.1248L139.182 9.06883C139.398 8.61283 139.278 8.08483 138.894 7.77283ZM150.695 15.4288L151.007 15.5248L150.959 15.6928C150.959 15.7168 150.071 18.4288 146.279 18.5008H146.135C146.135 18.5008 145.943 18.5008 145.919 18.5008C145.823 18.5008 145.703 18.4768 145.607 18.4768C145.103 18.4288 144.599 18.3088 144.095 18.1168C143.591 17.9488 143.111 17.6848 142.679 17.3728C142.151 16.9888 141.719 16.5328 141.407 15.9808C140.399 14.2288 140.399 12.0928 141.407 10.3408C141.719 9.81283 142.151 9.33283 142.679 8.94883C143.111 8.63683 143.591 8.37283 144.095 8.20483C144.599 8.01283 145.103 7.89283 145.607 7.84483C145.775 7.82083 145.943 7.82083 146.111 7.82083H146.279C146.927 7.84483 147.575 7.98883 148.199 8.22883C149.399 8.68483 150.335 9.66883 150.743 10.9168C150.791 11.0128 150.815 11.1088 150.839 11.2048C150.839 11.2288 150.839 11.2288 150.839 11.2528H142.679C142.487 11.8768 142.391 12.5248 142.391 13.1728C142.391 13.8928 142.511 14.6128 142.751 15.3088C142.919 15.7888 143.135 16.2208 143.423 16.6288C143.663 17.0368 143.975 17.3728 144.359 17.6128C144.791 17.9248 145.295 18.0928 145.799 18.1408C145.895 18.1408 145.991 18.1648 146.111 18.1648H146.135C149.783 18.1408 150.599 15.6928 150.623 15.5968L150.695 15.4288ZM143.423 9.69283C143.159 10.0768 142.967 10.4848 142.799 10.9168H149.207C149.159 10.5808 149.063 10.2928 148.919 10.0048C148.679 9.52483 148.319 9.09283 147.887 8.78083C147.383 8.39683 146.759 8.18083 146.111 8.15683H146.087L146.063 8.18083C145.439 8.18083 144.863 8.37283 144.335 8.70883C143.975 8.97283 143.663 9.30883 143.423 9.69283ZM162.179 15.4288L162.491 15.5248L162.443 15.6928C162.443 15.7168 161.555 18.4288 157.763 18.5008H157.619C157.619 18.5008 157.427 18.5008 157.403 18.5008C157.307 18.5008 157.187 18.4768 157.091 18.4768C156.587 18.4288 156.083 18.3088 155.579 18.1168C155.075 17.9488 154.595 17.6848 154.163 17.3728C153.635 16.9888 153.203 16.5328 152.891 15.9808C151.883 14.2288 151.883 12.0928 152.891 10.3408C153.203 9.81283 153.635 9.33283 154.163 8.94883C154.595 8.63683 155.075 8.37283 155.579 8.20483C156.083 8.01283 156.587 7.89283 157.091 7.84483C157.259 7.82083 157.427 7.82083 157.595 7.82083H157.763C158.411 7.84483 159.059 7.98883 159.683 8.22883C160.883 8.68483 161.819 9.66883 162.227 10.9168C162.275 11.0128 162.299 11.1088 162.323 11.2048C162.323 11.2288 162.323 11.2288 162.323 11.2528H154.163C153.971 11.8768 153.875 12.5248 153.875 13.1728C153.875 13.8928 153.995 14.6128 154.235 15.3088C154.403 15.7888 154.619 16.2208 154.907 16.6288C155.147 17.0368 155.459 17.3728 155.843 17.6128C156.275 17.9248 156.779 18.0928 157.283 18.1408C157.379 18.1408 157.475 18.1648 157.595 18.1648H157.619C161.267 18.1408 162.083 15.6928 162.107 15.5968L162.179 15.4288ZM154.907 9.69283C154.643 10.0768 154.451 10.4848 154.283 10.9168H160.691C160.643 10.5808 160.547 10.2928 160.403 10.0048C160.163 9.52483 159.803 9.09283 159.371 8.78083C158.867 8.39683 158.243 8.18083 157.595 8.15683H157.571L157.547 8.18083C156.923 8.18083 156.347 8.37283 155.819 8.70883C155.459 8.97283 155.147 9.30883 154.907 9.69283ZM171.925 11.9008V11.8768C171.925 9.86083 171.373 8.32483 170.005 8.32483C169.093 8.34883 168.205 8.70883 167.557 9.33283C167.077 9.78883 166.645 10.2928 166.285 10.8448C166.309 11.0128 166.309 11.1808 166.309 11.3488V16.7968C166.309 17.4448 166.597 18.0688 167.053 18.5008L167.125 18.5488H163.765L163.837 18.5008C164.317 18.0688 164.581 17.4448 164.581 16.7968V11.3488C164.581 10.9168 164.533 10.4608 164.437 10.0048C164.389 9.71683 164.293 9.42883 164.197 9.14083C163.933 8.49283 163.285 8.06083 162.589 8.10883V7.77283C163.045 7.77283 163.501 7.82083 163.933 7.96483C164.293 8.06083 164.653 8.22883 164.965 8.44483C165.325 8.70883 165.637 9.04483 165.853 9.42883C166.021 9.71683 166.141 10.0528 166.213 10.3648C167.101 9.06883 168.589 7.77283 170.269 7.77283C170.533 7.74883 170.797 7.77283 171.061 7.82083C171.277 7.86883 171.517 7.91683 171.709 8.01283C172.093 8.20483 172.429 8.44483 172.693 8.75683C173.245 9.38083 173.653 10.2928 173.653 11.9008V16.7968C173.653 17.4448 173.941 18.0688 174.421 18.5008L174.469 18.5488H171.109L171.181 18.5008C171.661 18.0688 171.925 17.4448 171.925 16.7968V11.9008ZM197.918 19.8448V20.2048H197.894C196.454 20.2288 195.518 20.2048 194.606 19.5328C194.126 19.1248 193.742 18.6208 193.55 18.0208C193.286 17.2528 193.094 16.4848 192.95 15.6928C192.926 15.5728 192.902 15.4768 192.878 15.3808L192.782 15.0928C192.734 14.9248 192.662 14.7808 192.614 14.6128C192.542 14.4688 192.47 14.3488 192.422 14.2288C192.35 14.0848 192.278 13.9888 192.206 13.8688C192.134 13.7728 192.062 13.6768 191.99 13.5808C191.918 13.4848 191.846 13.3888 191.774 13.3168C191.702 13.2208 191.63 13.1488 191.558 13.0528L191.342 12.8368C191.006 12.5488 190.646 12.3088 190.262 12.1408C189.734 11.9008 189.158 11.7808 188.582 11.7808H184.694V16.7968C184.694 17.4448 184.958 18.0688 185.438 18.5008L185.51 18.5728H182.15L182.198 18.5008C182.678 18.0688 182.942 17.4448 182.942 16.7968V3.50083C182.942 2.85283 182.678 2.22883 182.198 1.79683L182.15 1.72483H188.582C189.302 1.72483 190.022 1.82083 190.718 1.98883C191.27 2.10883 191.798 2.27683 192.326 2.51683C192.926 2.82883 193.478 3.23683 193.91 3.76483C194.222 4.12483 194.462 4.53283 194.63 4.96483C194.726 5.25283 194.822 5.51683 194.87 5.80483C194.894 5.94883 194.918 6.11683 194.942 6.26083C194.942 6.35683 194.942 6.42883 194.942 6.52483C194.966 6.59683 194.966 6.69283 194.966 6.76483C194.966 6.81283 194.966 6.90883 194.942 6.98083C194.942 7.07683 194.942 7.14883 194.942 7.24483C194.918 7.38883 194.894 7.55683 194.87 7.70083C194.822 7.98883 194.726 8.27683 194.63 8.54083C194.462 8.97283 194.222 9.38083 193.91 9.74083C193.478 10.2688 192.926 10.7008 192.326 10.9888C191.798 11.2288 191.27 11.4208 190.718 11.5408C190.622 11.5648 190.502 11.5648 190.406 11.5888C190.91 11.6608 191.39 11.7808 191.846 11.9488L192.206 12.0928C192.326 12.1408 192.446 12.2128 192.59 12.2848C192.71 12.3568 192.854 12.4528 192.974 12.5488C193.118 12.6448 193.238 12.7648 193.358 12.8848C193.502 13.0288 193.622 13.1728 193.742 13.3168C193.862 13.4848 194.006 13.6768 194.102 13.8688C194.222 14.0848 194.318 14.3008 194.414 14.5408C194.462 14.6608 194.51 14.7808 194.534 14.9008L194.63 15.2848C194.774 15.8128 194.822 16.2688 194.87 16.6288C194.918 17.0128 194.966 17.3248 195.014 17.5888C195.062 18.0208 195.182 18.4288 195.374 18.8128C195.566 19.1728 195.854 19.4368 196.238 19.5808C196.334 19.6288 196.454 19.6768 196.55 19.7248C196.694 19.7488 196.814 19.7728 196.958 19.7968C197.27 19.8448 197.606 19.8448 197.918 19.8448ZM188.63 11.4208C189.302 11.4208 189.95 11.2768 190.55 10.9888C190.982 10.7728 191.39 10.4848 191.726 10.1248C192.086 9.74083 192.422 9.33283 192.662 8.87683C192.83 8.58883 192.95 8.27683 193.046 7.96483C193.118 7.77283 193.142 7.60483 193.166 7.41283C193.19 7.31683 193.214 7.19683 193.214 7.10083C193.214 7.05283 193.214 7.00483 193.214 6.93283C193.214 6.88483 193.214 6.83683 193.214 6.76483C193.214 6.66883 193.214 6.62083 193.214 6.57283C193.214 6.52483 193.214 6.45283 193.214 6.40483C193.214 6.30883 193.19 6.18883 193.166 6.09283C193.142 5.90083 193.118 5.73283 193.046 5.54083C192.95 5.22883 192.83 4.91683 192.662 4.62883C192.398 4.17283 192.086 3.74083 191.726 3.38083C191.39 3.02083 190.982 2.73283 190.526 2.51683C189.926 2.22883 189.254 2.08483 188.606 2.08483H184.694V11.4208H188.606H188.63ZM206.453 15.4288L206.765 15.5248L206.717 15.6928C206.717 15.7168 205.829 18.4288 202.037 18.5008H201.893C201.893 18.5008 201.701 18.5008 201.677 18.5008C201.581 18.5008 201.461 18.4768 201.365 18.4768C200.861 18.4288 200.357 18.3088 199.853 18.1168C199.349 17.9488 198.869 17.6848 198.437 17.3728C197.909 16.9888 197.477 16.5328 197.165 15.9808C196.157 14.2288 196.157 12.0928 197.165 10.3408C197.477 9.81283 197.909 9.33283 198.437 8.94883C198.869 8.63683 199.349 8.37283 199.853 8.20483C200.357 8.01283 200.861 7.89283 201.365 7.84483C201.533 7.82083 201.701 7.82083 201.869 7.82083H202.037C202.685 7.84483 203.333 7.98883 203.957 8.22883C205.157 8.68483 206.093 9.66883 206.501 10.9168C206.549 11.0128 206.573 11.1088 206.597 11.2048C206.597 11.2288 206.597 11.2288 206.597 11.2528H198.437C198.245 11.8768 198.149 12.5248 198.149 13.1728C198.149 13.8928 198.269 14.6128 198.509 15.3088C198.677 15.7888 198.893 16.2208 199.181 16.6288C199.421 17.0368 199.733 17.3728 200.117 17.6128C200.549 17.9248 201.053 18.0928 201.557 18.1408C201.653 18.1408 201.749 18.1648 201.869 18.1648H201.893C205.541 18.1408 206.357 15.6928 206.381 15.5968L206.453 15.4288ZM199.181 9.69283C198.917 10.0768 198.725 10.4848 198.557 10.9168H204.965C204.917 10.5808 204.821 10.2928 204.677 10.0048C204.437 9.52483 204.077 9.09283 203.645 8.78083C203.141 8.39683 202.517 8.18083 201.869 8.15683H201.845L201.821 8.18083C201.197 8.18083 200.621 8.37283 200.093 8.70883C199.733 8.97283 199.421 9.30883 199.181 9.69283ZM217.673 18.5488L215.105 18.5728V17.2768C214.793 17.5168 214.457 17.7328 214.097 17.9248C213.761 18.0928 213.401 18.2368 213.041 18.3088C212.801 18.3808 212.561 18.4288 212.321 18.4768C211.769 18.5728 211.217 18.5728 210.689 18.5008C210.113 18.4288 209.585 18.2368 209.105 17.9248L208.913 17.8048C208.841 17.7568 208.793 17.7088 208.721 17.6368C208.601 17.5408 208.481 17.3968 208.385 17.2768C208.289 17.1088 208.193 16.9648 208.121 16.7968C208.049 16.6288 208.001 16.4848 207.953 16.3168C207.809 15.6928 207.857 15.0208 208.097 14.4208C208.337 13.8688 208.697 13.4128 209.153 13.0528C209.633 12.7168 210.137 12.4528 210.665 12.2608C211.217 12.0448 211.793 11.8768 212.369 11.7568C214.889 11.1328 214.985 10.3168 214.985 10.2928H215.009C214.985 10.1728 214.961 10.0528 214.937 9.93283C214.865 9.64483 214.745 9.35683 214.577 9.09283C214.433 8.82883 214.217 8.61283 213.977 8.44483C213.617 8.20483 213.209 8.10883 212.777 8.10883C212.249 8.10883 211.745 8.27683 211.313 8.58883C210.641 9.11683 210.233 9.90883 210.209 10.7728C210.185 10.9408 209.945 11.0128 209.633 10.9888C209.417 10.9888 209.225 10.9648 209.033 10.8928C208.721 10.7968 208.529 10.5328 208.649 10.3408C208.865 9.78883 209.201 9.30883 209.609 8.90083C209.993 8.49283 210.497 8.18083 211.025 8.01283C211.601 7.84483 212.177 7.74883 212.777 7.77283C213.257 7.77283 213.713 7.82083 214.193 7.91683C214.577 7.98883 214.937 8.13283 215.273 8.30083C215.705 8.54083 216.041 8.87683 216.305 9.28483C216.665 9.88483 216.857 10.6048 216.857 11.3008V16.7968C216.857 17.4448 217.121 18.0688 217.601 18.5008L217.673 18.5488ZM213.929 17.6128C214.361 17.3968 214.745 17.1328 215.105 16.8208V11.3008C215.105 11.1328 215.105 10.9888 215.081 10.8448C214.769 11.2048 214.049 11.7088 212.441 12.0928C211.217 12.4048 210.353 13.0528 209.921 13.7728C209.729 14.0848 209.585 14.4688 209.561 14.8288C209.537 15.1888 209.561 15.5488 209.657 15.8848C209.657 15.9808 209.705 16.0768 209.729 16.1728C209.753 16.2208 209.753 16.2928 209.801 16.3648C209.825 16.4368 209.873 16.5088 209.921 16.5568L209.993 16.6768L210.065 16.7728C210.329 17.0608 210.641 17.3248 210.977 17.5168C211.385 17.7328 211.841 17.8768 212.321 17.9248C212.873 17.9728 213.425 17.8528 213.929 17.6128ZM219.476 16.7968V5.32483C219.476 4.86883 219.428 4.41283 219.332 3.98083C219.284 3.66883 219.188 3.38083 219.092 3.11683C218.828 2.46883 218.18 2.03683 217.484 2.08483V1.72483C217.94 1.72483 218.396 1.79683 218.828 1.91683C219.188 2.03683 219.548 2.20483 219.86 2.42083C220.22 2.66083 220.532 2.99683 220.748 3.40483C221.06 4.00483 221.228 4.65283 221.204 5.32483V16.7968C221.204 17.4448 221.492 18.0688 221.972 18.5008L222.02 18.5488H218.66L218.732 18.5008C219.212 18.0688 219.476 17.4448 219.476 16.7968ZM225.562 7.77283C225.083 7.77283 224.699 7.36483 224.699 6.88483C224.699 6.40483 225.083 6.02083 225.562 6.02083C226.043 6.02083 226.451 6.40483 226.451 6.88483C226.451 7.36483 226.043 7.77283 225.562 7.77283ZM224.699 11.3488C224.699 10.9168 224.651 10.4608 224.555 10.0048C224.507 9.71683 224.411 9.42883 224.315 9.14083C224.051 8.49283 223.403 8.08483 222.707 8.10883V7.77283C223.163 7.77283 223.619 7.82083 224.051 7.96483C224.411 8.06083 224.771 8.22883 225.083 8.44483C225.443 8.70883 225.755 9.04483 225.971 9.42883C226.283 10.0288 226.451 10.7008 226.427 11.3488V16.7968C226.427 17.4448 226.715 18.0688 227.195 18.5008L227.243 18.5488H223.883L223.955 18.5008C224.435 18.0688 224.699 17.4448 224.699 16.7968V11.3488ZM232.741 8.10883H230.773V14.7568C230.773 15.2128 230.797 15.6928 230.869 16.1728C230.893 16.4848 230.965 16.7968 231.037 17.0848C231.109 17.3728 231.253 17.6128 231.445 17.8288C231.733 18.0928 232.117 18.2368 232.501 18.2128V18.5488C232.021 18.5728 231.565 18.4768 231.133 18.3088C230.797 18.1408 230.461 17.9488 230.197 17.6848C229.861 17.3968 229.597 17.0368 229.405 16.6288C229.165 16.0288 229.021 15.4048 229.021 14.7568V8.10883H227.725C229.309 7.43683 230.773 4.36483 230.773 4.36483V7.77283H232.741V8.10883ZM245.712 7.77283C244.824 8.25283 244.104 8.99683 243.696 9.90883C242.016 13.4848 238.008 22.0048 237.912 22.1488C237.672 22.6768 237.336 23.1568 236.928 23.5408L236.832 23.6368C236.784 23.6608 236.76 23.7088 236.712 23.7568L236.544 23.8768C236.208 24.0928 235.848 24.2368 235.464 24.3328C235.08 24.4048 234.672 24.4288 234.288 24.4048C234.096 24.3808 233.904 24.3568 233.736 24.3088C233.496 24.2368 233.4 23.9488 233.52 23.6368C233.616 23.4688 233.712 23.2768 233.832 23.1088C234.024 22.8448 234.216 22.7248 234.336 22.7968C234.432 22.8688 234.528 22.9168 234.624 22.9648C234.864 23.0848 235.128 23.1568 235.392 23.2048C235.656 23.2528 235.92 23.2288 236.184 23.1568L236.352 23.1088C236.4 23.1088 236.424 23.0848 236.448 23.0608L236.568 23.0368C237.024 22.8208 237.384 22.4368 237.624 21.9808C237.696 21.8128 238.464 20.2288 239.424 18.1648L236.256 11.4448V11.4208C235.992 10.8208 235.776 10.3888 235.608 10.0288C235.44 9.71683 235.272 9.40483 235.056 9.11683C234.888 8.82883 234.648 8.61283 234.36 8.44483C233.976 8.22883 233.52 8.10883 233.088 8.10883V7.77283C233.568 7.77283 234.072 7.82083 234.552 7.91683C234.96 7.98883 235.344 8.10883 235.704 8.27683C236.424 8.63683 237.24 9.30883 237.888 10.8448L240.384 16.1248C241.632 13.4848 242.976 10.6048 243.744 8.99683C243.936 8.56483 243.816 8.06083 243.456 7.77283H245.712ZM270.644 15.4048C270.956 15.5008 271.124 15.7648 271.028 15.9568C270.788 16.4848 270.476 16.9408 270.068 17.3488C269.684 17.7328 269.204 18.0448 268.676 18.2368C268.412 18.3088 268.124 18.3808 267.836 18.4288C267.548 18.4768 267.26 18.5008 266.972 18.5008H266.9C266.372 18.5008 265.844 18.4048 265.34 18.2368C264.932 18.1168 264.523 17.9488 264.116 17.7568C263.516 17.4688 262.94 17.1328 262.388 16.7488C261.092 17.7568 259.46 18.5008 257.828 18.5008C257.78 18.5008 257.732 18.5008 257.684 18.5008C257.54 18.5008 257.396 18.4768 257.276 18.4768C257.108 18.4528 256.964 18.4528 256.796 18.4288C256.556 18.3808 256.316 18.3088 256.1 18.2608C255.668 18.1408 255.284 17.9728 254.9 17.7808C254.444 17.5168 254.036 17.1808 253.724 16.7728C253.244 16.1248 252.956 15.3568 252.908 14.5408C252.884 14.2768 252.884 14.0368 252.932 13.7968C252.956 13.5808 253.004 13.3648 253.052 13.1728C253.1 12.9808 253.172 12.8128 253.268 12.6208L253.364 12.4048L253.508 12.1888C253.771 11.7808 254.108 11.3968 254.516 11.1088C254.852 10.8448 255.188 10.6528 255.548 10.4128C255.764 10.2928 256.004 10.1248 256.268 9.98083C256.076 9.62083 255.884 9.23683 255.74 8.87683C255.404 8.06083 255.188 7.19683 255.116 6.30883C255.068 5.54083 255.164 4.74883 255.428 4.02883C255.572 3.59683 255.812 3.18883 256.124 2.85283C256.484 2.42083 256.964 2.10883 257.492 1.94083C257.876 1.84483 258.284 1.77283 258.692 1.79683C259.676 1.79683 260.636 2.20483 261.284 2.92483C261.884 3.62083 262.148 4.53283 262.004 5.42083C261.788 7.34083 260.036 8.25283 258.476 9.06883C258.26 9.16483 258.044 9.28483 257.852 9.40483C258.188 9.90883 258.596 10.5088 259.1 11.1568C259.58 11.7568 259.988 12.2608 260.372 12.7168L261.404 13.9888C262.004 14.7328 262.46 15.3088 262.916 15.8368C263.324 15.4768 263.684 15.0688 264.02 14.6368C264.932 13.3888 265.604 11.9968 265.988 10.5088C266.204 9.69283 265.988 8.82883 265.364 8.22883L264.884 7.77283H268.244L267.236 8.66083C266.852 8.99683 266.588 9.45283 266.492 9.93283C266.132 11.7088 265.364 13.3888 264.284 14.8288C263.948 15.2848 263.564 15.7168 263.156 16.1008C263.54 16.5328 263.972 16.9408 264.428 17.3008C264.764 17.5408 265.124 17.7328 265.508 17.8768C265.964 18.0448 266.468 18.1408 266.972 18.1648C267.5 18.1648 267.98 17.9728 268.388 17.6608C269.036 17.1088 269.42 16.3408 269.468 15.5008C269.492 15.3328 269.732 15.2368 270.068 15.2848C270.26 15.2848 270.452 15.3328 270.644 15.4048ZM256.148 6.14083C256.388 6.86083 256.724 7.55683 257.108 8.20483C257.252 8.49283 257.444 8.78083 257.66 9.11683C257.876 8.99683 258.092 8.87683 258.332 8.75683C259.868 7.94083 261.452 7.12483 261.668 5.39683C261.788 4.58083 261.548 3.76483 261.044 3.16483C260.42 2.49283 259.58 2.13283 258.692 2.13283C258.308 2.13283 257.948 2.18083 257.588 2.27683C257.132 2.42083 256.724 2.70883 256.436 3.11683C256.196 3.42883 256.028 3.78883 255.956 4.17283C255.86 4.84483 255.932 5.51683 256.148 6.14083ZM257.828 18.1648C259.34 18.1648 260.852 17.4688 262.1 16.5328C261.476 16.0768 260.852 15.5728 260.3 15.0208C259.94 14.6848 259.556 14.2768 259.124 13.8448C258.692 13.3888 258.236 12.8368 257.732 12.2128C257.3 11.6368 256.892 11.0368 256.508 10.4128C256.484 10.3888 256.484 10.3408 256.46 10.3168C256.268 10.4848 256.076 10.6528 255.908 10.8448C255.668 11.1328 255.476 11.4448 255.308 11.7808C255.14 12.1408 254.972 12.5008 254.852 12.8848L254.804 13.0288L254.756 13.1968C254.732 13.3168 254.708 13.4368 254.684 13.5568C254.66 13.7008 254.66 13.8208 254.636 13.9648C254.636 14.1328 254.636 14.2768 254.636 14.4208C254.684 14.9728 254.804 15.4768 255.02 15.9808C255.164 16.3168 255.355 16.6528 255.572 16.9888C255.764 17.2768 256.028 17.5408 256.316 17.7328C256.508 17.8528 256.7 17.9488 256.892 18.0208C257.156 18.0928 257.42 18.1408 257.684 18.1648C257.732 18.1648 257.78 18.1648 257.828 18.1648ZM292.902 7.46083C293.502 9.21283 293.502 11.0848 292.902 12.8368C292.302 14.5168 291.174 15.9328 289.686 16.9168C288.222 17.8288 286.542 18.3808 284.79 18.5248C284.502 18.5488 284.214 18.5728 283.902 18.5728H278.454L278.502 18.5008C278.982 18.0688 279.246 17.4448 279.246 16.7968V3.50083C279.246 2.85283 278.982 2.22883 278.502 1.79683L278.454 1.72483H283.902C284.214 1.72483 284.55 1.74883 284.862 1.79683C285.702 1.86883 286.518 2.03683 287.31 2.27683C288.15 2.56483 288.942 2.92483 289.686 3.40483C290.574 3.95683 291.318 4.70083 291.918 5.56483C292.326 6.14083 292.662 6.78883 292.902 7.46083ZM291.294 12.3328C291.87 10.3168 291.63 8.18083 290.622 6.35683C290.214 5.56483 289.662 4.84483 289.038 4.19683C288.462 3.64483 287.79 3.16483 287.07 2.78083C286.086 2.32483 285.006 2.08483 283.902 2.08483H280.998V18.2128H283.902C285.006 18.2128 286.086 17.9728 287.07 17.4928C287.79 17.1328 288.462 16.6528 289.038 16.0768C289.662 15.4528 290.214 14.7328 290.622 13.9408C290.91 13.4128 291.126 12.8848 291.294 12.3328ZM302.114 8.68483C302.114 8.70883 302.138 8.75683 302.138 8.78083C302.138 8.92483 302.09 9.06883 301.994 9.18883C301.85 9.33283 301.706 9.47683 301.538 9.59683C301.442 9.69283 301.298 9.74083 301.178 9.78883H301.154C301.106 9.78883 301.058 9.78883 301.01 9.78883C300.986 9.76483 300.962 9.76483 300.938 9.74083C300.722 9.45283 300.386 9.28483 300.026 9.28483C299.57 9.30883 299.114 9.47683 298.754 9.76483C298.322 10.1008 298.01 10.5328 297.794 11.0368C297.794 11.1328 297.794 11.2528 297.794 11.3488H297.818V16.7968C297.818 17.4448 298.082 18.0688 298.562 18.5008L298.61 18.5728H295.25L295.322 18.5008C295.802 18.0688 296.066 17.4448 296.066 16.7968V11.3488C296.066 10.9168 296.018 10.4608 295.922 10.0048C295.874 9.71683 295.778 9.42883 295.682 9.14083C295.418 8.49283 294.77 8.08483 294.074 8.10883V7.77283C294.53 7.77283 294.986 7.82083 295.418 7.96483C295.778 8.06083 296.138 8.22883 296.45 8.44483C296.81 8.70883 297.122 9.04483 297.338 9.42883C297.506 9.74083 297.626 10.0528 297.698 10.3648C297.866 10.0048 298.058 9.66883 298.298 9.33283C298.658 8.80483 299.186 8.39683 299.786 8.18083C300.314 7.98883 300.89 8.01283 301.418 8.20483C301.514 8.22883 301.61 8.27683 301.682 8.30083L301.922 8.44483C302.018 8.49283 302.09 8.58883 302.114 8.68483ZM312.414 15.4288L312.726 15.5248L312.678 15.6928C312.678 15.7168 311.79 18.4288 307.998 18.5008H307.854C307.854 18.5008 307.662 18.5008 307.638 18.5008C307.542 18.5008 307.422 18.4768 307.326 18.4768C306.822 18.4288 306.318 18.3088 305.814 18.1168C305.31 17.9488 304.83 17.6848 304.398 17.3728C303.87 16.9888 303.438 16.5328 303.126 15.9808C302.118 14.2288 302.118 12.0928 303.126 10.3408C303.438 9.81283 303.87 9.33283 304.398 8.94883C304.83 8.63683 305.31 8.37283 305.814 8.20483C306.318 8.01283 306.822 7.89283 307.326 7.84483C307.494 7.82083 307.662 7.82083 307.83 7.82083H307.998C308.646 7.84483 309.294 7.98883 309.918 8.22883C311.118 8.68483 312.054 9.66883 312.462 10.9168C312.51 11.0128 312.534 11.1088 312.558 11.2048C312.558 11.2288 312.558 11.2288 312.558 11.2528H304.398C304.206 11.8768 304.11 12.5248 304.11 13.1728C304.11 13.8928 304.23 14.6128 304.47 15.3088C304.638 15.7888 304.854 16.2208 305.142 16.6288C305.382 17.0368 305.694 17.3728 306.078 17.6128C306.51 17.9248 307.014 18.0928 307.518 18.1408C307.614 18.1408 307.71 18.1648 307.83 18.1648H307.854C311.502 18.1408 312.318 15.6928 312.342 15.5968L312.414 15.4288ZM305.142 9.69283C304.878 10.0768 304.686 10.4848 304.518 10.9168H310.926C310.878 10.5808 310.782 10.2928 310.638 10.0048C310.398 9.52483 310.038 9.09283 309.606 8.78083C309.102 8.39683 308.478 8.18083 307.83 8.15683H307.806L307.782 8.18083C307.158 8.18083 306.582 8.37283 306.054 8.70883C305.694 8.97283 305.382 9.30883 305.142 9.69283ZM323.634 18.5488L321.066 18.5728V17.2768C320.754 17.5168 320.418 17.7328 320.058 17.9248C319.722 18.0928 319.362 18.2368 319.002 18.3088C318.762 18.3808 318.522 18.4288 318.282 18.4768C317.73 18.5728 317.178 18.5728 316.65 18.5008C316.074 18.4288 315.546 18.2368 315.066 17.9248L314.874 17.8048C314.802 17.7568 314.754 17.7088 314.682 17.6368C314.562 17.5408 314.442 17.3968 314.346 17.2768C314.25 17.1088 314.154 16.9648 314.082 16.7968C314.01 16.6288 313.962 16.4848 313.914 16.3168C313.77 15.6928 313.818 15.0208 314.058 14.4208C314.298 13.8688 314.658 13.4128 315.114 13.0528C315.594 12.7168 316.098 12.4528 316.626 12.2608C317.178 12.0448 317.754 11.8768 318.33 11.7568C320.85 11.1328 320.946 10.3168 320.946 10.2928H320.97C320.946 10.1728 320.922 10.0528 320.898 9.93283C320.826 9.64483 320.706 9.35683 320.538 9.09283C320.394 8.82883 320.178 8.61283 319.938 8.44483C319.578 8.20483 319.17 8.10883 318.738 8.10883C318.21 8.10883 317.706 8.27683 317.274 8.58883C316.602 9.11683 316.194 9.90883 316.17 10.7728C316.146 10.9408 315.906 11.0128 315.594 10.9888C315.378 10.9888 315.186 10.9648 314.994 10.8928C314.682 10.7968 314.49 10.5328 314.61 10.3408C314.826 9.78883 315.162 9.30883 315.57 8.90083C315.954 8.49283 316.458 8.18083 316.986 8.01283C317.562 7.84483 318.138 7.74883 318.738 7.77283C319.218 7.77283 319.674 7.82083 320.154 7.91683C320.538 7.98883 320.898 8.13283 321.234 8.30083C321.666 8.54083 322.002 8.87683 322.266 9.28483C322.626 9.88483 322.818 10.6048 322.818 11.3008V16.7968C322.818 17.4448 323.082 18.0688 323.562 18.5008L323.634 18.5488ZM319.89 17.6128C320.322 17.3968 320.706 17.1328 321.066 16.8208V11.3008C321.066 11.1328 321.066 10.9888 321.042 10.8448C320.73 11.2048 320.01 11.7088 318.402 12.0928C317.178 12.4048 316.314 13.0528 315.882 13.7728C315.69 14.0848 315.546 14.4688 315.522 14.8288C315.498 15.1888 315.522 15.5488 315.618 15.8848C315.618 15.9808 315.666 16.0768 315.69 16.1728C315.714 16.2208 315.714 16.2928 315.762 16.3648C315.786 16.4368 315.834 16.5088 315.882 16.5568L315.954 16.6768L316.026 16.7728C316.29 17.0608 316.602 17.3248 316.938 17.5168C317.346 17.7328 317.802 17.8768 318.282 17.9248C318.834 17.9728 319.386 17.8528 319.89 17.6128ZM340.941 11.9008C340.941 11.8768 340.941 11.8768 340.941 11.8768C340.941 9.86083 340.389 8.32483 339.021 8.32483C338.109 8.34883 337.221 8.70883 336.573 9.33283C336.069 9.81283 335.637 10.3408 335.277 10.9168C335.301 11.2288 335.325 11.5648 335.325 11.9008V16.7968C335.325 17.4448 335.613 18.0688 336.069 18.5008L336.141 18.5488H332.781L332.853 18.5008C333.333 18.0688 333.597 17.4448 333.597 16.7968V11.9008C333.597 11.8768 333.597 11.8768 333.597 11.8528C333.597 9.86083 333.045 8.32483 331.677 8.32483C330.765 8.34883 329.877 8.70883 329.229 9.33283C328.749 9.78883 328.317 10.2928 327.957 10.8448C327.981 11.0128 327.981 11.1808 327.981 11.3488V16.7968C327.981 17.4448 328.269 18.0448 328.725 18.5008L328.797 18.5488H325.437L325.509 18.5008C325.989 18.0448 326.253 17.4448 326.253 16.7968V11.3488C326.253 10.8928 326.205 10.4608 326.109 10.0048C326.061 9.71683 325.965 9.42883 325.869 9.14083C325.605 8.49283 324.957 8.06083 324.261 8.10883V7.77283C324.717 7.77283 325.173 7.82083 325.605 7.96483C325.965 8.06083 326.325 8.22883 326.637 8.44483C326.997 8.68483 327.309 9.04483 327.525 9.42883C327.693 9.71683 327.813 10.0288 327.885 10.3648C328.773 9.06883 330.261 7.77283 331.941 7.77283C332.205 7.74883 332.469 7.77283 332.733 7.82083C332.949 7.84483 333.189 7.91683 333.381 8.01283C333.765 8.20483 334.101 8.44483 334.365 8.75683C334.773 9.23683 335.061 9.81283 335.181 10.4368C336.093 9.11683 337.581 7.77283 339.285 7.77283C339.549 7.74883 339.813 7.77283 340.077 7.82083C340.293 7.86883 340.533 7.91683 340.725 8.01283C341.109 8.20483 341.445 8.44483 341.709 8.75683C342.261 9.38083 342.669 10.2928 342.669 11.9008V16.7968C342.669 17.4448 342.957 18.0688 343.413 18.5008L343.485 18.5488H340.125L340.197 18.5008C340.677 18.0688 340.941 17.4448 340.941 16.7968V11.9008ZM351.889 15.5248C351.937 15.9088 351.865 16.2928 351.745 16.6288C351.505 17.2768 351.049 17.7808 350.425 18.0688C349.825 18.3568 349.153 18.5248 348.457 18.5488C348.385 18.5488 348.289 18.5488 348.193 18.5488H348.169C347.713 18.5488 347.257 18.5008 346.825 18.4048C345.961 18.2128 345.193 17.7568 344.593 17.1328C344.449 16.9888 344.569 16.7248 344.833 16.5568C345.001 16.4368 345.169 16.3408 345.361 16.2688C345.673 16.1488 345.889 16.1008 345.937 16.2208C346.153 16.8688 346.537 17.4208 347.065 17.8288C347.401 18.0688 347.785 18.2128 348.193 18.2128H348.217C348.913 18.2368 349.585 18.0208 350.137 17.5888C350.497 17.3008 350.713 16.8688 350.737 16.3888C350.737 16.1968 350.689 15.9808 350.617 15.7648C350.569 15.6688 350.521 15.5728 350.473 15.4768C350.425 15.4288 350.401 15.3808 350.377 15.3328C350.329 15.3088 350.305 15.2608 350.257 15.2368C349.993 15.0448 349.705 14.8528 349.393 14.7088C348.961 14.5168 348.529 14.3008 347.977 14.0368C346.873 13.5088 345.937 12.9568 345.361 12.1888C345.097 11.8288 344.905 11.3968 344.809 10.9648C344.761 10.5808 344.785 10.1968 344.905 9.83683C345.121 9.18883 345.553 8.66083 346.105 8.32483C346.801 7.91683 347.569 7.72483 348.361 7.77283C348.841 7.77283 349.297 7.82083 349.729 7.94083C350.161 8.06083 350.569 8.27683 350.905 8.58883C351.241 8.87683 351.553 9.23683 351.793 9.62083C351.889 9.76483 351.721 10.0048 351.433 10.1248C351.241 10.1968 351.025 10.2448 350.833 10.2928C350.521 10.3408 350.281 10.3168 350.281 10.1968C350.233 9.54883 349.921 8.94883 349.441 8.51683C349.153 8.25283 348.769 8.10883 348.361 8.10883C348.241 8.10883 348.145 8.10883 348.049 8.13283C347.449 8.15683 346.897 8.37283 346.465 8.75683C346.105 9.09283 345.913 9.54883 345.937 10.0288C345.937 10.4848 346.153 10.8928 346.513 11.1808C346.945 11.5888 347.641 11.9488 348.721 12.4768C349.225 12.6928 349.729 12.9568 350.209 13.2448C350.665 13.5088 351.049 13.8448 351.385 14.2288C351.481 14.3248 351.553 14.4448 351.625 14.5648C351.769 14.8768 351.865 15.1888 351.889 15.5248ZM353.865 18.5488C353.385 18.5488 353.001 18.1648 353.001 17.6848C353.001 17.2048 353.385 16.8208 353.865 16.8208C354.345 16.8208 354.729 17.2048 354.729 17.6848C354.729 18.1648 354.345 18.5488 353.865 18.5488ZM360.428 1.31683C360.428 1.34083 360.5 2.85283 359.108 3.16483L359.012 2.82883C359.42 2.75683 359.756 2.46883 359.924 2.10883C359.588 2.25283 359.156 2.18083 358.916 1.86883C358.652 1.58083 358.628 1.17283 358.844 0.836827C359.06 0.524827 359.444 0.380827 359.828 0.476828C360.188 0.596828 360.452 0.932827 360.428 1.31683ZM357.092 1.31683C357.092 1.34083 357.14 2.85283 355.748 3.16483L355.676 2.82883C356.06 2.75683 356.42 2.46883 356.588 2.10883C356.228 2.25283 355.82 2.18083 355.556 1.86883C355.316 1.58083 355.292 1.17283 355.484 0.836827C355.7 0.524827 356.108 0.380827 356.468 0.476828C356.828 0.596828 357.092 0.932827 357.092 1.31683Z" fill="#1A1A1A"/>
</svg>
