<svg width="432" height="198" viewBox="0 0 432 198" fill="none" xmlns="http://www.w3.org/2000/svg">
<path d="M1.96786 2.10156L4.87997 10.4004H4.98935L7.91513 2.10156H9.21396L5.59091 12H4.29208L0.669037 2.10156H1.96786ZM11.2538 12V2.10156H17.2558V3.19531H12.4843V6.50391H16.9413V7.58398H12.4843V10.9062H17.3241V12H11.2538ZM21.1276 2.10156V12H19.8972V2.10156H21.1276ZM24.0151 12V2.10156H25.2456V10.9062H29.8393V12H24.0151ZM32.18 12V2.10156H35.5433C37.8675 2.10156 38.9202 3.38672 38.9202 5.15039C38.9202 6.45605 38.3323 7.48828 37.0745 7.92578L39.303 12H37.8675L35.803 8.14453L35.5569 8.1582H33.4104V12H32.18ZM33.4104 7.03711H35.5022C37.0745 7.03711 37.7034 6.32617 37.7034 5.15039C37.7034 3.96094 37.0745 3.19531 35.4886 3.19531H33.4104V7.03711ZM41.3976 12V2.10156H47.3995V3.19531H42.628V6.50391H47.0851V7.58398H42.628V10.9062H47.4679V12H41.3976ZM50.4784 12H49.1933L52.8163 2.10156H54.1151L57.7382 12H56.4393L55.455 9.21094H51.4765L50.4784 12ZM51.8456 8.13086H55.0722L53.4999 3.70117H53.4179L51.8456 8.13086ZM59.778 12V2.10156H61.0085V10.9062H65.6022V12H59.778ZM78.4155 7.36523V8.24023H67.3413V7.36523H78.4155ZM77.1851 11.9453V12.8477H68.7768V9.30664H69.8569V11.9453H77.1851ZM72.8784 1.39062C75.4897 1.37695 77.1714 2.2793 77.1714 3.79688C77.1714 5.31445 75.4897 6.2168 72.8784 6.2168C70.2397 6.2168 68.5718 5.31445 68.5718 3.79688C68.5718 2.2793 70.2397 1.37695 72.8784 1.39062ZM72.8784 2.25195C70.9233 2.25195 69.6655 2.83984 69.6792 3.79688C69.6655 4.75391 70.9233 5.3418 72.8784 5.3418C74.8198 5.3418 76.0776 4.75391 76.0776 3.79688C76.0776 2.83984 74.8198 2.25195 72.8784 2.25195ZM94.3761 0.953125V8.02148H93.3233V0.953125H94.3761ZM94.6905 8.88281V9.73047H91.0811C91.1427 10.8857 93.0567 12.0205 95.1143 12.2734L94.7179 13.1074C92.8995 12.8477 91.2384 11.9932 90.5206 10.8652C89.796 12.0205 88.087 12.8613 86.255 13.1074L85.8722 12.2871C87.9298 12.0615 89.9122 10.9268 89.9737 9.73047H86.378V8.88281H89.9874V7.70703H91.0538V8.88281H94.6905ZM86.0636 1.47266V3.35938H89.6456V1.47266H90.712V6.90039H84.9972V1.47266H86.0636ZM86.0636 6.03906H89.6456V4.19336H86.0636V6.03906ZM103.894 2.30664V2.93555C103.881 3.89258 103.881 5.50586 103.539 7.76172L102.459 7.66602C102.787 5.62891 102.814 4.15234 102.814 3.18164H97.7147V2.30664H103.894ZM100.709 5.7793V9.4707C102.056 9.42285 103.436 9.33398 104.701 9.18359L104.756 9.99023C102.199 10.3867 99.3417 10.4414 97.1679 10.4277L97.0311 9.53906C97.8309 9.53223 98.7196 9.52539 99.6561 9.49805V5.7793H100.709ZM106.533 0.953125V6.03906H108.502V6.96875H106.533V13.1074H105.467V0.953125H106.533ZM123.751 2.25195V3.46875C123.751 5 123.751 6.73633 123.3 9.375L122.207 9.26562C122.699 6.77734 122.699 4.95898 122.699 3.46875V3.14062H115.371V2.25195H123.751ZM125.242 10.4277V11.3164H114.167V10.4277H125.242ZM137.002 0.966797V8.17188H135.936V0.966797H137.002ZM133.133 1.70508V5H128.649V6.68164C130.823 6.69531 132.45 6.62695 134.418 6.29883L134.541 7.20117C132.504 7.51562 130.836 7.58398 128.594 7.58398H127.61V4.15234H132.067V2.56641H127.582V1.70508H133.133ZM137.002 8.82812V12.9434H129.1V8.82812H137.002ZM130.153 9.70312V12.0684H135.95V9.70312H130.153ZM143.882 4.68555C143.868 6.64062 145.276 8.78711 147.04 9.62109L146.425 10.4688C145.058 9.80566 143.902 8.35645 143.362 6.70898C142.802 8.5 141.578 10.0723 140.218 10.7695L139.562 9.92188C141.312 9.07422 142.816 6.76367 142.829 4.68555V3.09961H139.999V2.21094H146.616V3.09961H143.882V4.68555ZM149.173 0.953125V5.875H151.21V6.79102H149.173V13.1074H148.107V0.953125H149.173ZM161.973 0.953125V5.90234H163.941V6.80469H161.973V13.1074H160.906V0.953125H161.973ZM158.828 2.26562C158.828 5.71094 157.215 8.8418 153.25 10.7969L152.648 9.94922C155.793 8.38379 157.502 6.0459 157.748 3.16797H153.209V2.26562H158.828ZM175.718 2.06055V7.65234H170.099V2.06055H175.718ZM171.152 2.93555V6.79102H174.679V2.93555H171.152ZM179.082 0.953125V4.6582H180.914V5.56055H179.082V9.86719H178.015V0.953125H179.082ZM179.642 11.9453V12.8477H171.48V9.01953H172.533V11.9453H179.642ZM193.467 6.06641V6.92773H182.379V6.06641H193.467ZM192.141 4.19336V5.06836H183.856V1.37695H192.018V2.23828H184.936V4.19336H192.141ZM192.032 8.02148V10.8379H184.813V12.0957H192.401V12.9707H183.746V10.0312H190.979V8.85547H183.719V8.02148H192.032ZM198.446 1.89648C200.101 1.91016 201.29 3.3252 201.468 5.60156H204.189V0.953125H205.255V13.1348H204.189V6.49023H201.482C201.352 8.86914 200.142 10.3594 198.446 10.3594C196.655 10.3594 195.398 8.71875 195.398 6.13477C195.398 3.55078 196.655 1.91016 198.446 1.89648ZM198.446 2.85352C197.243 2.86719 196.423 4.15234 196.423 6.13477C196.423 8.11719 197.243 9.40234 198.446 9.40234C199.636 9.40234 200.47 8.11719 200.47 6.13477C200.47 4.15234 199.636 2.86719 198.446 2.85352ZM218.355 0.953125V13.1074H217.303V6.81836H215.553V12.4785H214.541V1.22656H215.553V5.90234H217.303V0.953125H218.355ZM209.66 2.44336V9.00586C210.87 8.99219 212.155 8.91016 213.639 8.60938L213.775 9.56641C212.08 9.86719 210.685 9.96289 209.346 9.96289H208.594V2.44336H209.66ZM230.608 4.64453V5.50586H222.282V1.4043H223.348V4.64453H230.608ZM231.893 7.16016V8.03516H220.764V7.16016H231.893ZM230.676 11.918V12.8066H222.214V9.2793H223.28V11.918H230.676ZM241.934 3.30469C241.934 4.61719 243.219 5.79297 244.996 6.2168L244.518 7.05078C243.082 6.68848 241.961 5.86816 241.428 4.79492C240.895 5.98438 239.726 6.89355 238.242 7.29688L237.75 6.46289C239.555 5.9707 240.881 4.75391 240.881 3.30469V3.09961H238.133V2.21094H240.881V0.912109H241.961V2.21094H244.682V3.09961H241.934V3.30469ZM247.293 0.953125V3.66016H249.125V4.57617H247.293V7.37891H246.227V0.953125H247.293ZM247.293 7.98047V10.8242H240.621V12.1094H247.744V12.9707H239.569V10.0039H246.227V8.82812H239.541V7.98047H247.293ZM261.966 5.80664V6.70898H259.997V13.1074H258.931V0.953125H259.997V5.80664H261.966ZM252.163 2.15625V9.11523C253.941 9.1084 255.752 8.97168 257.755 8.55469L257.892 9.4707C255.8 9.89453 253.913 10.0176 252.067 10.0176H251.097V2.15625H252.163ZM267.369 1.8418C269.283 1.8418 270.637 3.00391 270.637 4.69922C270.637 6.39453 269.283 7.55664 267.369 7.55664C265.455 7.55664 264.074 6.39453 264.088 4.69922C264.074 3.00391 265.455 1.8418 267.369 1.8418ZM267.369 2.78516C266.07 2.78516 265.127 3.56445 265.141 4.69922C265.127 5.83398 266.07 6.61328 267.369 6.61328C268.654 6.61328 269.584 5.83398 269.584 4.69922C269.584 3.56445 268.654 2.78516 267.369 2.78516ZM273.357 0.953125V13.1348H272.291V0.953125H273.357ZM263.459 9.53906C265.701 9.53906 268.791 9.52539 271.484 9.12891L271.566 9.92188C268.791 10.4414 265.797 10.4551 263.609 10.4551L263.459 9.53906ZM290.48 0.953125V7.17383H289.4V5.90234H286.16V5.05469H289.4V3.5918H286.337C285.572 5.5127 283.685 6.80469 280.992 7.44727L280.609 6.55859C283.589 5.86816 285.326 4.41211 285.531 2.45703H281.224V1.56836H286.707C286.707 1.97168 286.666 2.36133 286.597 2.73047H289.4V0.953125H290.48ZM290.48 7.7207V10.6875H283.699V12.1094H290.89V12.998H282.632V9.86719H289.4V8.5957H282.605V7.7207H290.48ZM298.741 1.17188C301.448 1.17188 303.033 1.91016 303.033 3.26367C303.033 4.64453 301.448 5.38281 298.741 5.39648C296.033 5.38281 294.434 4.64453 294.434 3.26367C294.434 1.91016 296.033 1.17188 298.741 1.17188ZM298.741 1.97852C296.717 1.97852 295.541 2.4707 295.555 3.26367C295.541 4.11133 296.717 4.57617 298.741 4.57617C300.75 4.57617 301.94 4.11133 301.94 3.26367C301.94 2.4707 300.75 1.97852 298.741 1.97852ZM304.278 6.2168V7.0918H293.203V6.2168H304.278ZM302.856 8.14453V10.8652H295.637V12.123H303.225V12.9707H294.571V10.0723H301.803V8.96484H294.543V8.14453H302.856ZM315.754 1.74609C318.338 1.75977 320.197 3.01758 320.197 4.93164C320.197 6.74316 318.584 7.94629 316.273 8.08984V10.6465H321.346V11.5488H310.217V10.6465H315.221V8.08984C312.917 7.93945 311.31 6.73633 311.31 4.93164C311.31 3.01758 313.17 1.75977 315.754 1.74609ZM315.754 2.63477C313.785 2.63477 312.35 3.56445 312.35 4.93164C312.35 6.33984 313.785 7.24219 315.754 7.25586C317.723 7.24219 319.158 6.33984 319.158 4.93164C319.158 3.56445 317.723 2.63477 315.754 2.63477ZM334.145 10.5918V11.4941H323.016V10.5918H334.145ZM325.409 1.82812V4.09766H331.725V1.82812H332.778V8.1582H324.329V1.82812H325.409ZM325.409 7.29688H331.725V4.95898H325.409V7.29688ZM346.207 0.953125V13.1074H345.181V0.953125H346.207ZM343.746 1.25391V12.4785H342.734V6.2168H340.683V5.3418H342.734V1.25391H343.746ZM339.384 4.42578C339.384 6.53125 340.328 8.62305 342.009 9.59375L341.353 10.3867C340.157 9.66895 339.309 8.35645 338.892 6.80469C338.448 8.47949 337.566 9.9082 336.349 10.6738L335.666 9.86719C337.361 8.85547 338.345 6.64062 338.345 4.42578V3.27734H336.007V2.38867H341.613V3.27734H339.384V4.42578ZM359.744 10.7012V11.6035H348.616V10.7012H353.619V8.4043H350.01V4.6582H357.283V2.74414H349.983V1.85547H358.336V5.5332H351.076V7.51562H358.623V8.4043H354.672V10.7012H359.744ZM375.131 0.953125V3.93359H376.963V4.83594H375.131V7.85742H374.064V0.953125H375.131ZM371.59 1.78711V2.66211H367.269V6.24414C369.71 6.25781 371.098 6.16895 372.725 5.84766L372.861 6.72266C371.152 7.06445 369.703 7.13281 367.146 7.13281H366.203V1.78711H371.59ZM375.131 8.48633V12.9434H367.461V8.48633H375.131ZM368.514 9.36133V12.0684H374.064V9.36133H368.514ZM381.682 1.89648C383.473 1.91016 384.745 3.55078 384.758 6.13477C384.745 8.71875 383.473 10.3594 381.682 10.3594C379.878 10.3594 378.62 8.71875 378.62 6.13477C378.62 3.55078 379.878 1.91016 381.682 1.89648ZM381.682 2.85352C380.479 2.86719 379.632 4.15234 379.632 6.13477C379.632 8.11719 380.479 9.40234 381.682 9.40234C382.899 9.40234 383.719 8.11719 383.719 6.13477C383.719 4.15234 382.899 2.86719 381.682 2.85352ZM387.835 0.953125V5.80664H389.872V6.73633H387.835V13.1074H386.768V0.953125H387.835ZM401.55 0.966797V7.58398H400.525V4.79492H398.802V7.47461H397.791V1.19922H398.802V3.93359H400.525V0.966797H401.55ZM394.605 8.13086V9.60742H400.498V8.13086H401.55V12.9434H393.539V8.13086H394.605ZM394.605 12.0547H400.498V10.4688H394.605V12.0547ZM392.91 1.75977V5.88867C394.181 5.88184 395.418 5.81348 396.902 5.5332L397.025 6.43555C395.371 6.73633 394.058 6.77734 392.609 6.77734H391.843V1.75977H392.91ZM414.049 0.953125V13.1074H412.983V0.953125H414.049ZM405.873 2.15625V9.04688C407.726 9.04004 409.647 8.88965 411.684 8.45898L411.834 9.375C409.674 9.82617 407.746 9.97656 405.805 9.97656H404.821V2.15625H405.873ZM426.233 0.953125V5.76562H428.271V6.66797H426.233V13.1348H425.167V0.953125H426.233ZM423.034 2.14258V3.03125H418.427V9.18359C420.628 9.18359 422.187 9.08105 423.991 8.74609L424.128 9.67578C422.228 10.0176 420.628 10.0859 418.317 10.0859H417.36V2.14258H423.034ZM430.912 12.082C430.434 12.082 430.023 11.6855 430.037 11.1934C430.023 10.7148 430.434 10.3184 430.912 10.3184C431.391 10.3184 431.787 10.7148 431.787 11.1934C431.787 11.6855 431.391 12.082 430.912 12.082ZM56.3956 23.9531V27.5762H58.2413V28.4785H56.3956V32.7578H55.3292V23.9531H56.3956ZM52.8819 25.0059V25.9082H48.5343V29.6953C50.9747 29.6953 52.3624 29.6338 53.9893 29.2988L54.1261 30.1875C52.4171 30.5156 50.9679 30.5977 48.4112 30.5977H47.4679V25.0059H52.8819ZM56.9561 34.9453V35.8477H48.794V31.8691H49.8468V34.9453H56.9561ZM65.7909 24.8828C65.7909 26.4688 68.0058 27.918 70.1112 28.2461L69.6874 29.0938C67.8417 28.7793 66.0165 27.7539 65.244 26.332C64.4784 27.7812 62.6327 28.793 60.787 29.1074L60.3632 28.2598C62.4823 27.9316 64.6835 26.5234 64.6835 24.8828V24.2676H65.7909V24.8828ZM70.8085 30.1465V31.0352H65.8593V33.5234H64.7929V31.0352H59.6796V30.1465H70.8085ZM69.5644 34.9453V35.8477H61.1015V32.334H62.1815V34.9453H69.5644ZM81.9948 23.9668V27.9727H83.8269V28.875H81.9948V33.0723H80.9284V23.9668H81.9948ZM79.7663 25.457V26.332H72.5202V25.457H75.6101V23.9668H76.6765V25.457H79.7663ZM76.1433 27.002C77.8796 27.002 79.0554 27.8906 79.069 29.2715C79.0554 30.6387 77.8796 31.5137 76.1433 31.5137C74.3933 31.5137 73.2038 30.6387 73.2175 29.2715C73.2038 27.8906 74.3933 27.002 76.1433 27.002ZM76.1433 27.8496C74.9948 27.8496 74.2292 28.4102 74.2429 29.2715C74.2292 30.1328 74.9948 30.6797 76.1433 30.666C77.278 30.6797 78.0436 30.1328 78.0573 29.2715C78.0436 28.4102 77.278 27.8496 76.1433 27.8496ZM82.5554 34.9453V35.8477H74.3933V32.3477H75.446V34.9453H82.5554ZM100.635 33.6328V34.5215H89.5061V33.6328H94.4827V30.6523H95.5354V33.6328H100.635ZM95.5628 25.7168C95.5628 27.7539 97.969 29.5312 100.088 29.9004L99.6097 30.7891C97.7571 30.4131 95.802 29.1553 95.0159 27.3984C94.2161 29.1484 92.2747 30.4131 90.4222 30.7891L89.9436 29.9004C92.0628 29.5312 94.4417 27.7539 94.4417 25.7168V24.7871H95.5628V25.7168ZM113.38 29.832V30.7207H108.362V32.1562H112.026V35.9434H103.659V32.1562H107.31V30.7207H102.306V29.832H113.38ZM112.327 24.3496V25.2383H110.454V27.7949H112.286V28.6836H103.386V27.7949H105.218V25.2383H103.345V24.3496H112.327ZM104.726 33.0039V35.0684H110.974V33.0039H104.726ZM106.284 27.7949H109.388V25.2383H106.284V27.7949ZM125.127 23.9531V36.1348H124.047V23.9531H125.127ZM118.66 24.8965C120.465 24.9102 121.764 26.5508 121.764 29.1348C121.764 31.7188 120.465 33.3594 118.66 33.3594C116.842 33.3594 115.557 31.7188 115.557 29.1348C115.557 26.5508 116.842 24.9102 118.66 24.8965ZM118.66 25.8535C117.443 25.8672 116.596 27.1523 116.596 29.1348C116.596 31.1172 117.443 32.4023 118.66 32.4023C119.877 32.4023 120.725 31.1172 120.725 29.1348C120.725 27.1523 119.877 25.8672 118.66 25.8535ZM135.373 24.8965C137.164 24.9102 138.435 26.5508 138.449 29.1348C138.435 31.7188 137.164 33.3594 135.373 33.3594C133.568 33.3594 132.31 31.7188 132.31 29.1348C132.31 26.5508 133.568 24.9102 135.373 24.8965ZM135.373 25.8535C134.169 25.8672 133.322 27.1523 133.322 29.1348C133.322 31.1172 134.169 32.4023 135.373 32.4023C136.589 32.4023 137.41 31.1172 137.41 29.1348C137.41 27.1523 136.589 25.8672 135.373 25.8535ZM141.525 23.9531V28.8066H143.562V29.7363H141.525V36.1074H140.458V23.9531H141.525ZM154.953 23.9668V32.7988H153.887V23.9668H154.953ZM155.336 34.9453V35.8477H146.983V31.9102H148.063V34.9453H155.336ZM146.764 24.8691V29.5312C148.91 29.5449 150.647 29.4287 152.533 29.0117L152.684 29.9141C150.688 30.3242 148.897 30.4609 146.668 30.4609H145.684V24.8691H146.764ZM159.714 34.084L158.648 37.8027H157.636L158.388 34.084H159.714ZM171.71 31.6367C174.321 31.6367 175.975 32.457 175.975 33.8652C175.975 35.2598 174.321 36.0801 171.71 36.0801C169.112 36.0801 167.458 35.2598 167.458 33.8652C167.458 32.457 169.112 31.6367 171.71 31.6367ZM171.71 32.457C169.768 32.4707 168.51 33.0039 168.524 33.8652C168.51 34.7129 169.768 35.2324 171.71 35.2324C173.651 35.2324 174.895 34.7129 174.909 33.8652C174.895 33.0039 173.651 32.4707 171.71 32.457ZM175.88 24.582V25.6074C175.88 26.5918 175.88 27.5762 175.538 28.834L174.485 28.7109C174.813 27.4531 174.813 26.5645 174.813 25.6074V25.457H167.54V24.582H175.88ZM177.288 29.627V30.502H166.227V29.627H170.807V27.2754H171.86V29.627H177.288ZM188.515 23.9531V27.6582H190.347V28.5605H188.515V32.8535H187.435V23.9531H188.515ZM185.234 24.8965C185.234 28.0273 182.992 30.3516 179.492 31.4453L179.027 30.584C181.939 29.6748 183.839 27.9385 184.072 25.7988H179.533V24.8965H185.234ZM189.076 34.9453V35.8477H180.9V31.9512H181.966V34.9453H189.076ZM202.231 23.9531V36.1074H201.192V23.9531H202.231ZM199.783 24.2129V35.4922H198.758V29.5859H197.2C197.083 31.9512 196.078 33.4277 194.575 33.4277C192.989 33.4277 191.963 31.7871 191.963 29.2031C191.963 26.6191 192.989 24.9785 194.575 24.9785C196.051 24.9785 197.049 26.4072 197.186 28.6973H198.758V24.2129H199.783ZM194.575 25.9902C193.59 25.9902 192.961 27.2207 192.975 29.2031C192.961 31.1719 193.59 32.416 194.575 32.4023C195.559 32.416 196.188 31.1719 196.188 29.2031C196.188 27.2207 195.559 25.9902 194.575 25.9902ZM214.883 25.7441C214.883 27.8223 217.262 29.6816 219.381 30.0781L218.889 30.9805C217.057 30.5566 215.122 29.251 214.336 27.4531C213.55 29.2441 211.622 30.5498 209.783 30.9805L209.291 30.0781C211.396 29.668 213.762 27.8359 213.762 25.7441V24.8145H214.883V25.7441ZM219.955 33.5645V34.4531H208.826V33.5645H219.955ZM227.655 25.1699V26.8789H230.635V23.9531H231.702V36.1348H230.635V31.1172H227.655V33.0312H222.118V25.1699H227.655ZM223.184 26.0176V32.1699H226.616V26.0176H223.184ZM227.655 30.2285H230.635V27.7676H227.655V30.2285ZM245.513 29.0664V29.9277H234.425V29.0664H245.513ZM244.187 27.1934V28.0684H235.902V24.377H244.064V25.2383H236.982V27.1934H244.187ZM244.078 31.0215V33.8379H236.859V35.0957H244.447V35.9707H235.792V33.0312H243.025V31.8555H235.765V31.0215H244.078ZM250.492 24.8965C252.147 24.9102 253.336 26.3252 253.514 28.6016H256.235V23.9531H257.301V36.1348H256.235V29.4902H253.528C253.398 31.8691 252.188 33.3594 250.492 33.3594C248.701 33.3594 247.444 31.7188 247.444 29.1348C247.444 26.5508 248.701 24.9102 250.492 24.8965ZM250.492 25.8535C249.289 25.8672 248.469 27.1523 248.469 29.1348C248.469 31.1172 249.289 32.4023 250.492 32.4023C251.682 32.4023 252.516 31.1172 252.516 29.1348C252.516 27.1523 251.682 25.8672 250.492 25.8535ZM273.74 23.9531V26.9336H275.572V27.8223H273.74V30.8574H272.674V23.9531H273.74ZM270.418 24.7461C270.404 27.8086 268.258 29.9961 264.662 30.9805L264.224 30.1191C267.219 29.3125 269.044 27.6924 269.269 25.6348H264.771V24.7461H270.418ZM273.74 31.418V35.9434H266.043V31.418H273.74ZM267.109 32.3066V35.0684H272.674V32.3066H267.109ZM287.114 23.9531V31.1992H286.034V28.0137H283.587V27.125H286.034V23.9531H287.114ZM283.081 31.582C285.61 31.582 287.155 32.4023 287.155 33.8379C287.155 35.2734 285.61 36.0938 283.081 36.1074C280.551 36.0938 279.007 35.2734 279.007 33.8379C279.007 32.4023 280.551 31.582 283.081 31.582ZM283.081 32.416C281.221 32.416 280.059 32.9492 280.073 33.8379C280.059 34.7129 281.221 35.2461 283.081 35.2461C284.94 35.2461 286.089 34.7129 286.089 33.8379C286.089 32.9492 284.94 32.416 283.081 32.416ZM281.262 26.1816C281.262 27.7676 282.479 29.2715 284.257 29.8867L283.696 30.748C282.329 30.2559 281.269 29.2373 280.757 27.9727C280.223 29.4014 279.095 30.543 277.653 31.0898L277.092 30.2285C278.897 29.5723 280.182 27.9316 280.182 26.1953V25.7441H277.434V24.8418H283.983V25.7441H281.262V26.1816ZM295.375 24.1719C298.082 24.1719 299.667 24.9102 299.667 26.2637C299.667 27.6445 298.082 28.3828 295.375 28.3965C292.667 28.3828 291.068 27.6445 291.068 26.2637C291.068 24.9102 292.667 24.1719 295.375 24.1719ZM295.375 24.9785C293.351 24.9785 292.175 25.4707 292.189 26.2637C292.175 27.1113 293.351 27.5762 295.375 27.5762C297.384 27.5762 298.574 27.1113 298.574 26.2637C298.574 25.4707 297.384 24.9785 295.375 24.9785ZM300.912 29.2168V30.0918H289.837V29.2168H300.912ZM299.49 31.1445V33.8652H292.271V35.123H299.859V35.9707H291.205V33.0723H298.437V31.9648H291.177V31.1445H299.49ZM310.296 24.4043C312.114 24.418 313.441 25.5117 313.441 27.0977C313.441 28.6836 312.114 29.7773 310.296 29.7773C308.45 29.7773 307.138 28.6836 307.138 27.0977C307.138 25.5117 308.45 24.418 310.296 24.4043ZM310.296 25.3066C309.079 25.3066 308.177 26.0449 308.191 27.0977C308.177 28.1641 309.079 28.9023 310.296 28.9023C311.499 28.9023 312.401 28.1641 312.401 27.0977C312.401 26.0449 311.499 25.3066 310.296 25.3066ZM316.886 23.9531V30.2012H315.819V23.9531H316.886ZM316.886 30.7891V33.7148H310.064V35.082H317.323V35.9434H309.011V32.9082H315.819V31.6504H308.984V30.7891H316.886ZM325.187 24.7461C327.73 24.7461 329.631 26.0723 329.631 28.082C329.631 30.1055 327.73 31.4316 325.187 31.418C322.644 31.4316 320.744 30.1055 320.744 28.082C320.744 26.0723 322.644 24.7461 325.187 24.7461ZM325.187 25.6211C323.232 25.6074 321.756 26.6328 321.769 28.082C321.756 29.5586 323.232 30.543 325.187 30.543C327.129 30.543 328.592 29.5586 328.592 28.082C328.592 26.6328 327.129 25.6074 325.187 25.6211ZM330.779 33.5918V34.4941H319.65V33.5918H330.779ZM338.971 25.2246C338.958 28.7383 337.686 31.9785 333.298 34.125L332.696 33.2637C334.972 32.1699 336.381 30.7686 337.153 29.1211L332.928 29.5312L332.751 28.5742L337.495 28.2598C337.714 27.583 337.843 26.8652 337.891 26.1133H333.366V25.2246H338.971ZM342.499 23.9531V36.1074H341.419V23.9531H342.499ZM355.08 27.6445V28.5059H346.753V24.4043H347.82V27.6445H355.08ZM356.365 30.1602V31.0352H345.236V30.1602H356.365ZM355.148 34.918V35.8066H346.685V32.2793H347.751V34.918H355.148ZM368.497 25.4707C368.484 26.9746 370.534 28.2051 372.681 28.4785L372.257 29.3535C370.295 29.0459 368.463 28.0752 367.8 26.6465C367.144 28.0752 365.318 29.0459 363.343 29.3535L362.946 28.4785C365.093 28.2051 367.103 26.9746 367.103 25.4707V25.4434H363.275V24.5547H372.353V25.4434H368.497V25.4707ZM372.107 34.9453V35.8477H363.698V32.3887H364.778V34.9453H372.107ZM373.378 30.5156V31.4043H362.263V30.5156H367.267V28.4785H368.319V30.5156H373.378ZM385.508 23.9531V36.1074H384.469V29.791H382.814V35.4922H381.789V24.2129H382.814V28.875H384.469V23.9531H385.508ZM378.658 27.2754C378.658 29.5039 379.574 31.459 381.31 32.3477L380.668 33.1816C379.437 32.5117 378.597 31.3086 378.166 29.8184C377.749 31.5137 376.894 32.8398 375.609 33.5918L374.939 32.7715C376.689 31.8145 377.619 29.7363 377.619 27.2754V26.3047H375.226V25.4023H380.914V26.3047H378.658V27.2754ZM389.147 35.082C388.669 35.082 388.258 34.6855 388.272 34.1934C388.258 33.7148 388.669 33.3184 389.147 33.3184C389.626 33.3184 390.022 33.7148 390.022 34.1934C390.022 34.6855 389.626 35.082 389.147 35.082ZM108.055 46.9531V54.0215H107.002V46.9531H108.055ZM108.369 54.8828V55.7305H104.76C104.821 56.8857 106.735 58.0205 108.793 58.2734L108.397 59.1074C106.578 58.8477 104.917 57.9932 104.199 56.8652C103.475 58.0205 101.766 58.8613 99.9337 59.1074L99.5509 58.2871C101.608 58.0615 103.591 56.9268 103.652 55.7305H100.057V54.8828H103.666V53.707H104.733V54.8828H108.369ZM99.7423 47.4727V49.3594H103.324V47.4727H104.391V52.9004H98.6759V47.4727H99.7423ZM99.7423 52.0391H103.324V50.1934H99.7423V52.0391ZM120.854 46.9531V59.1348H119.774V46.9531H120.854ZM114.388 47.8965C116.192 47.9102 117.491 49.5508 117.491 52.1348C117.491 54.7188 116.192 56.3594 114.388 56.3594C112.569 56.3594 111.284 54.7188 111.284 52.1348C111.284 49.5508 112.569 47.9102 114.388 47.8965ZM114.388 48.8535C113.171 48.8672 112.323 50.1523 112.323 52.1348C112.323 54.1172 113.171 55.4023 114.388 55.4023C115.604 55.4023 116.452 54.1172 116.452 52.1348C116.452 50.1523 115.604 48.8672 114.388 48.8535ZM133.807 47.623V48.498H129.459V51.5879C131.838 51.5879 133.274 51.499 134.942 51.1914L135.079 52.0391C133.342 52.3945 131.852 52.4902 129.35 52.4902H128.407V47.623H133.807ZM137.348 46.9531V49.6191H139.194V50.5352H137.348V53.4062H136.282V46.9531H137.348ZM137.881 54.1992V55.0469H129.35V54.1992H133.083V53.0234H134.135V54.1992H137.881ZM133.602 55.5664C135.721 55.5664 136.993 56.209 137.006 57.3574C136.993 58.4785 135.721 59.1074 133.602 59.1074C131.469 59.1074 130.198 58.4785 130.198 57.3574C130.198 56.209 131.469 55.5664 133.602 55.5664ZM133.602 56.3594C132.18 56.373 131.305 56.7285 131.305 57.3574C131.305 57.9863 132.18 58.3281 133.602 58.3145C135.024 58.3281 135.885 57.9863 135.899 57.3574C135.885 56.7285 135.024 56.373 133.602 56.3594ZM150.476 50.6445V51.5059H142.15V47.4043H143.216V50.6445H150.476ZM151.761 53.1602V54.0352H140.632V53.1602H151.761ZM150.544 57.918V58.8066H142.081V55.2793H143.148V57.918H150.544ZM163.265 54.5957C165.767 54.5957 167.27 55.416 167.27 56.8379C167.27 58.2734 165.767 59.0938 163.265 59.1074C160.763 59.0938 159.231 58.2734 159.231 56.8379C159.231 55.416 160.763 54.5957 163.265 54.5957ZM163.265 55.4434C161.433 55.457 160.298 55.9629 160.311 56.8379C160.298 57.7129 161.433 58.2324 163.265 58.2324C165.11 58.2324 166.231 57.7129 166.231 56.8379C166.231 55.9629 165.11 55.457 163.265 55.4434ZM167.161 46.9531V50.0156H168.993V50.9316H167.161V54.2676H166.095V46.9531H167.161ZM159.231 47.7188V49.5781H162.772V47.7188H163.839V53.3242H158.179V47.7188H159.231ZM159.231 52.4492H162.772V50.4258H159.231V52.4492ZM181.765 49.0859V49.9746H179.961V51.6562H181.765V52.5586H179.961V54.8008H178.894V46.9531H179.961V49.0859H181.765ZM176.119 54.8828C178.593 54.8828 180.097 55.6621 180.097 56.9883C180.097 58.3145 178.593 59.0801 176.119 59.0801C173.644 59.0801 172.127 58.3145 172.14 56.9883C172.127 55.6621 173.644 54.8828 176.119 54.8828ZM176.119 55.7305C174.3 55.7305 173.193 56.1816 173.207 56.9883C173.193 57.7812 174.3 58.2461 176.119 58.2461C177.937 58.2461 179.031 57.7812 179.031 56.9883C179.031 56.1816 177.937 55.7305 176.119 55.7305ZM177.732 48.3477V49.1953H170.486V48.3477H173.576V46.8574H174.642V48.3477H177.732ZM174.109 49.8242C175.859 49.8242 177.021 50.6719 177.035 51.9707C177.021 53.2832 175.859 54.1172 174.109 54.1172C172.345 54.1172 171.17 53.2832 171.183 51.9707C171.17 50.6719 172.345 49.8242 174.109 49.8242ZM174.109 50.6309C172.961 50.6445 172.195 51.1777 172.209 51.9707C172.195 52.7637 172.961 53.2832 174.109 53.2832C175.244 53.2832 176.009 52.7637 176.023 51.9707C176.009 51.1777 175.244 50.6445 174.109 50.6309ZM185.254 57.084L184.188 60.8027H183.176L183.928 57.084H185.254ZM201.338 48.252V49.4688C201.338 51 201.338 52.7363 200.887 55.375L199.793 55.2656C200.285 52.7773 200.285 50.959 200.285 49.4688V49.1406H192.957V48.252H201.338ZM202.828 56.4277V57.3164H191.754V56.4277H202.828ZM214.589 46.9668V54.1719H213.522V46.9668H214.589ZM210.72 47.7051V51H206.235V52.6816C208.409 52.6953 210.036 52.627 212.005 52.2988L212.128 53.2012C210.091 53.5156 208.423 53.584 206.181 53.584H205.196V50.1523H209.653V48.5664H205.169V47.7051H210.72ZM214.589 54.8281V58.9434H206.686V54.8281H214.589ZM207.739 55.7031V58.0684H213.536V55.7031H207.739ZM221.468 50.6855C221.455 52.6406 222.863 54.7871 224.627 55.6211L224.011 56.4688C222.644 55.8057 221.489 54.3564 220.949 52.709C220.388 54.5 219.165 56.0723 217.804 56.7695L217.148 55.9219C218.898 55.0742 220.402 52.7637 220.416 50.6855V49.0996H217.586V48.2109H224.203V49.0996H221.468V50.6855ZM226.759 46.9531V51.875H228.797V52.791H226.759V59.1074H225.693V46.9531H226.759ZM239.559 46.9531V51.9023H241.528V52.8047H239.559V59.1074H238.493V46.9531H239.559ZM236.415 48.2656C236.415 51.7109 234.801 54.8418 230.836 56.7969L230.235 55.9492C233.379 54.3838 235.088 52.0459 235.334 49.168H230.795V48.2656H236.415ZM253.195 48.1699V51.4102H256.176V46.9531H257.242V59.1348H256.176V52.2988H253.195V56.0312H247.658V48.1699H253.195ZM248.725 49.0176V55.1699H252.156V49.0176H248.725ZM271.081 54.0215V54.9102H266.009V59.1074H264.956V54.9102H259.952V54.0215H271.081ZM269.632 47.6367V52.3672H261.388V47.6367H269.632ZM262.44 48.5117V51.5195H268.565V48.5117H262.44ZM282.595 50.6445V51.5059H274.269V47.4043H275.336V50.6445H282.595ZM283.881 53.1602V54.0352H272.752V53.1602H283.881ZM282.664 57.918V58.8066H274.201V55.2793H275.267V57.918H282.664ZM293.894 50.6855C293.88 52.6406 295.288 54.7871 297.052 55.6211L296.437 56.4688C295.07 55.8057 293.914 54.3564 293.374 52.709C292.814 54.5 291.59 56.0723 290.23 56.7695L289.574 55.9219C291.324 55.0742 292.827 52.7637 292.841 50.6855V49.0996H290.011V48.2109H296.628V49.0996H293.894V50.6855ZM299.185 46.9531V51.875H301.222V52.791H299.185V59.1074H298.118V46.9531H299.185ZM312.613 46.9531V59.1348H311.547V46.9531H312.613ZM308.922 48.0879V52.4082H304.383V55.2793C306.4 55.2793 308.197 55.1904 310.371 54.8418L310.481 55.7441C308.238 56.0996 306.393 56.1816 304.301 56.1816H303.289V51.5332H307.842V48.9766H303.262V48.0879H308.922ZM321.489 48.1836V56.0176H315.884V48.1836H321.489ZM316.923 49.0449V55.1426H320.423V49.0449H316.923ZM324.784 46.9531V51.8066H326.821V52.7363H324.784V59.1074H323.718V46.9531H324.784ZM337.584 46.9531V51.7656H339.621V52.668H337.584V59.1348H336.517V46.9531H337.584ZM334.384 48.1426V49.0312H329.777V55.1836C331.978 55.1836 333.537 55.0811 335.341 54.7461L335.478 55.6758C333.578 56.0176 331.978 56.0859 329.668 56.0859H328.711V48.1426H334.384ZM152.282 69.9531V73.125H154.1V74.0273H152.282V77.2129H151.202V69.9531H152.282ZM148.372 77.4453C150.846 77.4453 152.378 78.3066 152.378 79.7559C152.378 81.2324 150.846 82.0801 148.372 82.0801C145.883 82.0801 144.339 81.2324 144.339 79.7559C144.339 78.3066 145.883 77.4453 148.372 77.4453ZM148.372 78.334C146.54 78.3203 145.391 78.8672 145.391 79.7559C145.391 80.6582 146.54 81.2188 148.372 81.2188C150.19 81.2188 151.339 80.6582 151.339 79.7559C151.339 78.8672 150.19 78.3203 148.372 78.334ZM148.727 70.8828V71.7715H144.38V75.3398C146.841 75.3262 148.262 75.251 149.889 74.916L149.999 75.8047C148.303 76.1465 146.841 76.2148 144.27 76.2148H143.327V70.8828H148.727ZM165.601 69.9668V78.8809H164.535V69.9668H165.601ZM165.984 80.9453V81.8477H157.753V78.0605H158.82V80.9453H165.984ZM159.873 71.8672C159.859 73.7129 161.13 75.3809 162.935 76.0371L162.375 76.8984C160.966 76.3584 159.873 75.2646 159.339 73.8633C158.799 75.3535 157.692 76.5498 156.277 77.1172L155.689 76.2832C157.535 75.5723 158.779 73.7812 158.779 71.8672V70.6504H159.873V71.8672ZM172.344 70.8418C174.258 70.8418 175.612 72.0039 175.612 73.6992C175.612 75.3945 174.258 76.5566 172.344 76.5566C170.43 76.5566 169.049 75.3945 169.063 73.6992C169.049 72.0039 170.43 70.8418 172.344 70.8418ZM172.344 71.7852C171.045 71.7852 170.102 72.5645 170.116 73.6992C170.102 74.834 171.045 75.6133 172.344 75.6133C173.629 75.6133 174.559 74.834 174.559 73.6992C174.559 72.5645 173.629 71.7852 172.344 71.7852ZM178.332 69.9531V82.1348H177.266V69.9531H178.332ZM168.434 78.5391C170.676 78.5391 173.766 78.5254 176.459 78.1289L176.541 78.9219C173.766 79.4414 170.772 79.4551 168.584 79.4551L168.434 78.5391ZM188.824 70.4043C190.642 70.418 191.969 71.5117 191.969 73.0977C191.969 74.6836 190.642 75.7773 188.824 75.7773C186.978 75.7773 185.666 74.6836 185.666 73.0977C185.666 71.5117 186.978 70.418 188.824 70.4043ZM188.824 71.3066C187.607 71.3066 186.705 72.0449 186.719 73.0977C186.705 74.1641 187.607 74.9023 188.824 74.9023C190.027 74.9023 190.93 74.1641 190.93 73.0977C190.93 72.0449 190.027 71.3066 188.824 71.3066ZM195.414 69.9531V76.2012H194.348V69.9531H195.414ZM195.414 76.7891V79.7148H188.592V81.082H195.851V81.9434H187.539V78.9082H194.348V77.6504H187.512V76.7891H195.414ZM202.239 71.9219C202.239 73.5762 203.497 75.0938 205.26 75.6953L204.673 76.543C203.326 76.0508 202.266 75.0459 201.733 73.7812C201.214 75.21 200.133 76.3379 198.712 76.8848L198.137 76.0234C199.956 75.3398 201.173 73.7129 201.186 71.8398V70.582H202.239V71.9219ZM207.68 69.9531V73.125H209.512V74.0273H207.68V77.3496H206.614V69.9531H207.68ZM203.784 77.6641C206.286 77.6641 207.79 78.4707 207.79 79.8652C207.79 81.2871 206.286 82.0801 203.784 82.0801C201.282 82.0801 199.751 81.2871 199.751 79.8652C199.751 78.4707 201.282 77.6641 203.784 77.6641ZM203.784 78.5254C201.952 78.5254 200.817 79.0312 200.831 79.8652C200.817 80.7266 201.952 81.2188 203.784 81.2324C205.63 81.2188 206.751 80.7266 206.751 79.8652C206.751 79.0312 205.63 78.5254 203.784 78.5254ZM222.052 76.3652V77.2402H210.978V76.3652H222.052ZM220.822 80.9453V81.8477H212.414V78.3066H213.494V80.9453H220.822ZM216.515 70.3906C219.126 70.377 220.808 71.2793 220.808 72.7969C220.808 74.3145 219.126 75.2168 216.515 75.2168C213.876 75.2168 212.208 74.3145 212.208 72.7969C212.208 71.2793 213.876 70.377 216.515 70.3906ZM216.515 71.252C214.56 71.252 213.302 71.8398 213.316 72.7969C213.302 73.7539 214.56 74.3418 216.515 74.3418C218.457 74.3418 219.714 73.7539 219.714 72.7969C219.714 71.8398 218.457 71.252 216.515 71.252ZM238.068 69.9668V78.9629H236.987V75.6953H234.116V76.8848H228.607V70.7734H229.673V72.9336H233.064V70.7734H234.116V72.1953H236.987V69.9668H238.068ZM238.341 80.9453V81.8477H230.206V78.0742H231.286V80.9453H238.341ZM229.673 75.9961H233.064V73.7812H229.673V75.9961ZM234.116 74.8066H236.987V73.0977H234.116V74.8066ZM246.93 71.6758C246.916 73.3027 249.09 74.6836 251.209 74.998L250.812 75.8457C248.912 75.5244 247.066 74.5127 246.328 73.043C245.59 74.5127 243.737 75.5244 241.871 75.8457L241.447 74.998C243.553 74.6836 245.726 73.3027 245.726 71.6758V71.5938H241.83V70.7188H250.812V71.5938H246.93V71.6758ZM251.865 76.8848V77.7734H246.834V82.1074H245.781V77.7734H240.791V76.8848H251.865ZM263.626 69.9668V76.9531H262.546V69.9668H263.626ZM253.632 75.7637C254.664 75.7637 255.867 75.7568 257.118 75.709V74.4102H254.739V70.5684H260.508V71.457H255.819V73.5488H260.618V74.4102H258.198V75.668C259.326 75.6201 260.467 75.5244 261.534 75.3809L261.602 76.1602C258.936 76.6113 255.983 76.6523 253.796 76.6523L253.632 75.7637ZM256.68 77.5V78.7988H262.573V77.5H263.626V81.9434H255.614V77.5H256.68ZM256.68 81.0684H262.573V79.6328H256.68V81.0684ZM276.412 69.9531V82.1074H275.345V69.9531H276.412ZM268.236 71.1562V78.0469C270.088 78.04 272.009 77.8896 274.046 77.459L274.197 78.375C272.037 78.8262 270.109 78.9766 268.167 78.9766H267.183V71.1562H268.236ZM288.596 69.9531V74.7656H290.633V75.668H288.596V82.1348H287.53V69.9531H288.596ZM285.397 71.1426V72.0312H280.789V78.1836C282.991 78.1836 284.549 78.0811 286.354 77.7461L286.491 78.6758C284.59 79.0176 282.991 79.0859 280.68 79.0859H279.723V71.1426H285.397ZM293.275 81.082C292.796 81.082 292.386 80.6855 292.4 80.1934C292.386 79.7148 292.796 79.3184 293.275 79.3184C293.753 79.3184 294.15 79.7148 294.15 80.1934C294.15 80.6855 293.753 81.082 293.275 81.082ZM166.702 122.926V123.828H161.629V128.107H160.577V123.828H155.573V122.926H166.702ZM161.11 116.445C163.667 116.445 165.389 117.471 165.389 119.125C165.389 120.738 163.667 121.764 161.11 121.764C158.553 121.764 156.831 120.738 156.831 119.125C156.831 117.471 158.553 116.445 161.11 116.445ZM161.11 117.32C159.209 117.32 157.924 118.031 157.938 119.125C157.924 120.205 159.209 120.902 161.11 120.902C162.997 120.902 164.295 120.205 164.295 119.125C164.295 118.031 162.997 117.32 161.11 117.32ZM178.421 115.953V128.135H177.355V115.953H178.421ZM174.73 117.088V121.408H170.191V124.279C172.207 124.279 174.005 124.19 176.179 123.842L176.288 124.744C174.046 125.1 172.2 125.182 170.109 125.182H169.097V120.533H173.65V117.977H169.07V117.088H174.73ZM191.016 119.645V120.506H182.69V116.404H183.756V119.645H191.016ZM192.301 122.16V123.035H181.172V122.16H192.301ZM191.084 126.918V127.807H182.621V124.279H183.688V126.918H191.084ZM203.736 116.746C206.32 116.76 208.179 118.018 208.179 119.932C208.179 121.743 206.566 122.946 204.256 123.09V125.646H209.328V126.549H198.199V125.646H203.203V123.09C200.899 122.939 199.293 121.736 199.293 119.932C199.293 118.018 201.152 116.76 203.736 116.746ZM203.736 117.635C201.767 117.635 200.332 118.564 200.332 119.932C200.332 121.34 201.767 122.242 203.736 122.256C205.705 122.242 207.14 121.34 207.14 119.932C207.14 118.564 205.705 117.635 203.736 117.635ZM222.127 125.592V126.494H210.999V125.592H222.127ZM213.391 116.828V119.098H219.708V116.828H220.76V123.158H212.311V116.828H213.391ZM213.391 122.297H219.708V119.959H213.391V122.297ZM234.189 115.953V128.107H233.163V115.953H234.189ZM231.728 116.254V127.479H230.716V121.217H228.665V120.342H230.716V116.254H231.728ZM227.367 119.426C227.367 121.531 228.31 123.623 229.992 124.594L229.335 125.387C228.139 124.669 227.291 123.356 226.874 121.805C226.43 123.479 225.548 124.908 224.331 125.674L223.648 124.867C225.343 123.855 226.327 121.641 226.327 119.426V118.277H223.99V117.389H229.595V118.277H227.367V119.426ZM247.713 121.6V122.447H236.584V121.6H247.713ZM246.318 123.418V126.002H239.018V127.164H246.715V127.943H237.938V125.264H245.252V124.225H237.924V123.418H246.318ZM246.277 116.322V118.838H239.1V119.904H246.496V120.684H238.033V118.1H245.197V117.102H237.992V116.322H246.277ZM264.685 122.406V123.281H253.597V122.406H258.601V121.203H255.074V116.309H263.304V117.184H256.154V118.318H262.976V119.139H256.154V120.342H263.373V121.203H259.668V122.406H264.685ZM259.148 124.197C261.814 124.184 263.318 124.867 263.332 126.139C263.318 127.41 261.814 128.08 259.148 128.08C256.455 128.08 254.951 127.41 254.951 126.139C254.951 124.867 256.455 124.184 259.148 124.197ZM259.148 125.004C257.138 125.004 256.017 125.414 256.031 126.139C256.017 126.877 257.138 127.26 259.148 127.246C261.131 127.26 262.252 126.877 262.252 126.139C262.252 125.414 261.131 125.004 259.148 125.004ZM272.481 118.059V118.934H266.383V118.059H268.913V116.322H269.979V118.059H272.481ZM269.432 119.754C270.963 119.754 272.057 120.902 272.071 122.516C272.057 124.143 270.963 125.305 269.432 125.305C267.915 125.305 266.821 124.143 266.821 122.516C266.821 120.902 267.915 119.754 269.432 119.754ZM269.432 120.656C268.475 120.67 267.778 121.449 267.778 122.516C267.778 123.596 268.475 124.375 269.432 124.361C270.403 124.375 271.114 123.596 271.114 122.516C271.114 121.449 270.403 120.67 269.432 120.656ZM276.76 115.953V128.107H275.735V121.969H274.122V127.506H273.11V116.254H274.122V121.08H275.735V115.953H276.76ZM118.789 138.967V148.236H117.708V145.625H115.603V144.75H117.708V143.096H115.603V142.207H117.708V138.967H118.789ZM115.603 140.457V141.332H108.726V140.457H111.679V138.953H112.746V140.457H115.603ZM112.199 142.002C113.826 142.002 114.974 142.932 114.974 144.326C114.974 145.707 113.826 146.65 112.199 146.65C110.572 146.65 109.437 145.707 109.451 144.326C109.437 142.932 110.572 142.002 112.199 142.002ZM112.199 142.85C111.16 142.863 110.449 143.451 110.449 144.326C110.449 145.201 111.16 145.789 112.199 145.789C113.238 145.789 113.949 145.201 113.962 144.326C113.949 143.451 113.238 142.863 112.199 142.85ZM119.062 149.945V150.848H110.927V147.416H112.007V149.945H119.062ZM131.533 138.953V145.256H130.481V138.953H131.533ZM131.547 145.871V148.783H124.725V150.096H131.985V150.971H123.672V147.949H130.481V146.732H123.645V145.871H131.547ZM125.819 140.238C125.805 141.961 127.117 143.479 128.922 144.066L128.389 144.9C126.967 144.415 125.832 143.396 125.285 142.084C124.739 143.499 123.597 144.613 122.155 145.133L121.594 144.285C123.426 143.643 124.725 142.029 124.725 140.238V139.309H125.819V140.238ZM141.052 140.307V140.936C141.038 141.893 141.038 143.506 140.696 145.762L139.616 145.666C139.944 143.629 139.972 142.152 139.972 141.182H134.872V140.307H141.052ZM137.866 143.779V147.471C139.213 147.423 140.594 147.334 141.858 147.184L141.913 147.99C139.357 148.387 136.499 148.441 134.325 148.428L134.189 147.539C134.988 147.532 135.877 147.525 136.814 147.498V143.779H137.866ZM143.691 138.953V144.039H145.659V144.969H143.691V151.107H142.624V138.953H143.691ZM156.329 139.555V139.883C156.329 140.519 156.329 141.879 155.864 143.738H159.651C160 142.262 160.061 141.175 160.075 140.43H157.245V139.555H161.114V140.006C161.114 140.73 161.114 141.988 160.745 143.738H162.44V144.613H157.368V146.678H161.018V150.943H152.706V146.678H156.315V144.613H151.325V143.738H154.798C155.167 142.269 155.249 141.168 155.276 140.43H152.405V139.555H156.329ZM153.758 147.539V150.068H159.952V147.539H153.758ZM168.103 139.842C170.017 139.842 171.371 141.004 171.371 142.699C171.371 144.395 170.017 145.557 168.103 145.557C166.189 145.557 164.808 144.395 164.822 142.699C164.808 141.004 166.189 139.842 168.103 139.842ZM168.103 140.785C166.804 140.785 165.861 141.564 165.875 142.699C165.861 143.834 166.804 144.613 168.103 144.613C169.388 144.613 170.318 143.834 170.318 142.699C170.318 141.564 169.388 140.785 168.103 140.785ZM174.091 138.953V151.135H173.025V138.953H174.091ZM164.193 147.539C166.435 147.539 169.525 147.525 172.218 147.129L172.3 147.922C169.525 148.441 166.531 148.455 164.343 148.455L164.193 147.539ZM191.214 138.967V146.268H190.134V144.627H186.907V143.738H190.134V142.098H187.03C186.231 144.053 184.351 145.468 181.753 146.24L181.302 145.393C184.241 144.518 186.066 142.877 186.292 140.771H181.917V139.869H187.454C187.454 140.348 187.4 140.806 187.304 141.236H190.134V138.967H191.214ZM187.235 146.391C189.696 146.391 191.282 147.266 191.282 148.715C191.282 150.178 189.696 151.053 187.235 151.053C184.747 151.053 183.175 150.178 183.175 148.715C183.175 147.266 184.747 146.391 187.235 146.391ZM187.235 147.252C185.403 147.238 184.228 147.799 184.228 148.715C184.228 149.631 185.403 150.178 187.235 150.178C189.04 150.178 190.202 149.631 190.216 148.715C190.202 147.799 189.04 147.238 187.235 147.252ZM204.342 138.953V151.107H203.316V138.953H204.342ZM201.881 139.281V150.492H200.855V146.281H198.6V145.393H200.855V143.232H198.805C198.21 145.29 196.877 147.108 194.58 148.482L193.924 147.703C196.569 146.138 197.895 143.943 198.107 141.4H194.471V140.512H199.174C199.174 141.134 199.119 141.749 199.01 142.344H200.855V139.281H201.881ZM217.155 138.953V151.107H216.116V138.953H217.155ZM214.708 139.213V150.492H213.682V144.586H212.124C212.008 146.951 211.003 148.428 209.499 148.428C207.913 148.428 206.887 146.787 206.887 144.203C206.887 141.619 207.913 139.979 209.499 139.979C210.975 139.979 211.973 141.407 212.11 143.697H213.682V139.213H214.708ZM209.499 140.99C208.514 140.99 207.885 142.221 207.899 144.203C207.885 146.172 208.514 147.416 209.499 147.402C210.483 147.416 211.112 146.172 211.112 144.203C211.112 142.221 210.483 140.99 209.499 140.99ZM227.866 141.209C227.866 142.822 229.055 144.299 230.86 144.928L230.313 145.762C228.925 145.27 227.866 144.271 227.346 143.014C226.826 144.395 225.712 145.468 224.284 145.994L223.709 145.16C225.528 144.518 226.799 142.945 226.813 141.209V140.689H224.037V139.814H230.6V140.689H227.866V141.209ZM233.252 138.953V142.166H235.084V143.082H233.252V146.281H232.186V138.953H233.252ZM233.252 146.924V151.107H232.186V147.799H225.295V146.924H233.252ZM247.624 145.365V146.24H236.55V145.365H247.624ZM246.394 149.945V150.848H237.985V147.307H239.066V149.945H246.394ZM242.087 139.391C244.698 139.377 246.38 140.279 246.38 141.797C246.38 143.314 244.698 144.217 242.087 144.217C239.448 144.217 237.78 143.314 237.78 141.797C237.78 140.279 239.448 139.377 242.087 139.391ZM242.087 140.252C240.132 140.252 238.874 140.84 238.888 141.797C238.874 142.754 240.132 143.342 242.087 143.342C244.028 143.342 245.286 142.754 245.286 141.797C245.286 140.84 244.028 140.252 242.087 140.252ZM264.637 145.256V146.145H253.549V145.256H264.637ZM263.325 143.301V144.162H255.026V139.281H263.257V140.143H256.106V141.264H262.928V142.098H256.106V143.301H263.325ZM263.284 147.252V150.943H254.917V147.252H263.284ZM255.983 148.113V150.068H262.231V148.113H255.983ZM271.9 139.172C274.607 139.172 276.193 139.91 276.193 141.264C276.193 142.645 274.607 143.383 271.9 143.396C269.193 143.383 267.593 142.645 267.593 141.264C267.593 139.91 269.193 139.172 271.9 139.172ZM271.9 139.979C269.876 139.979 268.701 140.471 268.714 141.264C268.701 142.111 269.876 142.576 271.9 142.576C273.91 142.576 275.099 142.111 275.099 141.264C275.099 140.471 273.91 139.979 271.9 139.979ZM277.437 144.217V145.092H266.363V144.217H277.437ZM276.015 146.145V148.865H268.796V150.123H276.384V150.971H267.73V148.072H274.962V146.965H267.703V146.145H276.015ZM289.515 140.061V145.652H283.896V140.061H289.515ZM284.948 140.936V144.791H288.476V140.936H284.948ZM292.878 138.953V142.658H294.71V143.561H292.878V147.867H291.812V138.953H292.878ZM293.439 149.945V150.848H285.276V147.02H286.329V149.945H293.439ZM307.264 144.066V144.928H296.176V144.066H307.264ZM305.937 142.193V143.068H297.652V139.377H305.814V140.238H298.732V142.193H305.937ZM305.828 146.021V148.838H298.609V150.096H306.197V150.971H297.543V148.031H304.775V146.855H297.516V146.021H305.828ZM318.723 140.184V141.4C318.71 142.891 318.71 144.559 318.272 147.006L317.178 146.883C317.643 144.559 317.643 142.85 317.643 141.4V141.072H310.151V140.184H318.723ZM320.049 148.496V149.385H308.975V148.496H313.323V144.148H314.376V148.496H320.049ZM323.771 149.084L322.705 152.803H321.693L322.445 149.084H323.771ZM143.864 163.252V164.469C143.864 166 143.864 167.736 143.413 170.375L142.319 170.266C142.811 167.777 142.811 165.959 142.811 164.469V164.141H135.483V163.252H143.864ZM145.354 171.428V172.316H134.28V171.428H145.354ZM162.368 168.256V169.145H151.28V168.256H162.368ZM161.055 166.301V167.162H152.756V162.281H160.987V163.143H153.836V164.264H160.659V165.098H153.836V166.301H161.055ZM161.014 170.252V173.943H152.647V170.252H161.014ZM153.713 171.113V173.068H159.961V171.113H153.713ZM172.381 165.221C172.381 167.367 173.803 169.568 175.525 170.416L174.869 171.277C173.529 170.573 172.408 169.138 171.875 167.449C171.328 169.247 170.18 170.778 168.813 171.51L168.129 170.648C169.906 169.773 171.315 167.436 171.328 165.221V163.006H172.381V165.221ZM177.713 161.953V166.889H179.75V167.818H177.713V174.107H176.647V161.953H177.713ZM191.128 161.953V174.135H190.048V161.953H191.128ZM184.661 162.896C186.466 162.91 187.765 164.551 187.765 167.135C187.765 169.719 186.466 171.359 184.661 171.359C182.843 171.359 181.558 169.719 181.558 167.135C181.558 164.551 182.843 162.91 184.661 162.896ZM184.661 163.854C183.444 163.867 182.597 165.152 182.597 167.135C182.597 169.117 183.444 170.402 184.661 170.402C185.878 170.402 186.725 169.117 186.725 167.135C186.725 165.152 185.878 163.867 184.661 163.854ZM205.035 171.701V172.604H193.906V171.701H198.91V169.404H195.3V165.658H202.574V163.744H195.273V162.855H203.627V166.533H196.367V168.516H203.914V169.404H199.963V171.701H205.035ZM221.351 162.855V163.662H211.493V162.855H215.923V161.762H216.99V162.855H221.351ZM216.456 164.127C219.013 164.127 220.394 164.66 220.394 165.727C220.394 166.807 219.013 167.326 216.456 167.34C213.9 167.326 212.505 166.807 212.505 165.727C212.505 164.66 213.9 164.127 216.456 164.127ZM216.456 164.879C214.611 164.865 213.64 165.166 213.654 165.727C213.64 166.301 214.611 166.588 216.456 166.588C218.288 166.588 219.259 166.301 219.273 165.727C219.259 165.166 218.288 164.865 216.456 164.879ZM221.993 168.037V168.871H210.919V168.037H221.993ZM220.572 169.705V172.152H213.38V173.178H220.941V173.971H212.286V171.4H219.492V170.484H212.259V169.705H220.572ZM233.781 161.953V174.135H232.715V167.531H230.35V166.629H232.715V161.953H233.781ZM229.611 163.088V167.34H225.25V170.293C227.342 170.293 228.859 170.231 230.637 169.896L230.719 170.799C228.887 171.127 227.315 171.195 225.113 171.209H224.184V166.451H228.572V163.977H224.143V163.088H229.611ZM246.335 167.805V168.693H237.94V163.088H246.212V163.977H239.007V167.805H246.335ZM247.647 171.551V172.453H236.518V171.551H247.647ZM259.148 165.645V166.506H250.822V162.404H251.888V165.645H259.148ZM260.433 168.16V169.035H249.304V168.16H260.433ZM259.216 172.918V173.807H250.754V170.279H251.82V172.918H259.216ZM275.833 161.953V164.934H277.665V165.822H275.833V168.857H274.767V161.953H275.833ZM272.511 162.746C272.497 165.809 270.351 167.996 266.755 168.98L266.318 168.119C269.312 167.312 271.137 165.692 271.363 163.635H266.865V162.746H272.511ZM275.833 169.418V173.943H268.136V169.418H275.833ZM269.202 170.307V173.068H274.767V170.307H269.202ZM288.633 161.953V165.043H290.465V165.959H288.633V169.09H287.566V161.953H288.633ZM285.297 162.732C285.297 165.809 283.15 167.996 279.555 168.953L279.117 168.119C282.098 167.312 283.937 165.686 284.162 163.621H279.664V162.732H285.297ZM288.633 169.65V174.107H287.566V170.525H280.676V169.65H288.633ZM297.468 162.172C300.175 162.172 301.761 162.91 301.761 164.264C301.761 165.645 300.175 166.383 297.468 166.396C294.761 166.383 293.161 165.645 293.161 164.264C293.161 162.91 294.761 162.172 297.468 162.172ZM297.468 162.979C295.444 162.979 294.268 163.471 294.282 164.264C294.268 165.111 295.444 165.576 297.468 165.576C299.477 165.576 300.667 165.111 300.667 164.264C300.667 163.471 299.477 162.979 297.468 162.979ZM303.005 167.217V168.092H291.931V167.217H303.005ZM301.583 169.145V171.865H294.364V173.123H301.952V173.971H293.298V171.072H300.53V169.965H293.27V169.145H301.583ZM135.269 184.953V188.125H137.087V189.027H135.269V192.213H134.189V184.953H135.269ZM131.358 192.445C133.833 192.445 135.364 193.307 135.364 194.756C135.364 196.232 133.833 197.08 131.358 197.08C128.87 197.08 127.325 196.232 127.325 194.756C127.325 193.307 128.87 192.445 131.358 192.445ZM131.358 193.334C129.526 193.32 128.378 193.867 128.378 194.756C128.378 195.658 129.526 196.219 131.358 196.219C133.177 196.219 134.325 195.658 134.325 194.756C134.325 193.867 133.177 193.32 131.358 193.334ZM131.714 185.883V186.771H127.366V190.34C129.827 190.326 131.249 190.251 132.876 189.916L132.985 190.805C131.29 191.146 129.827 191.215 127.257 191.215H126.314V185.883H131.714ZM148.588 184.967V193.881H147.521V184.967H148.588ZM148.971 195.945V196.848H140.74V193.061H141.807V195.945H148.971ZM142.859 186.867C142.846 188.713 144.117 190.381 145.922 191.037L145.361 191.898C143.953 191.358 142.859 190.265 142.326 188.863C141.786 190.354 140.679 191.55 139.264 192.117L138.676 191.283C140.521 190.572 141.766 188.781 141.766 186.867V185.65H142.859V186.867ZM155.331 185.842C157.245 185.842 158.598 187.004 158.598 188.699C158.598 190.395 157.245 191.557 155.331 191.557C153.417 191.557 152.036 190.395 152.05 188.699C152.036 187.004 153.417 185.842 155.331 185.842ZM155.331 186.785C154.032 186.785 153.089 187.564 153.102 188.699C153.089 189.834 154.032 190.613 155.331 190.613C156.616 190.613 157.546 189.834 157.546 188.699C157.546 187.564 156.616 186.785 155.331 186.785ZM161.319 184.953V197.135H160.253V184.953H161.319ZM151.421 193.539C153.663 193.539 156.753 193.525 159.446 193.129L159.528 193.922C156.753 194.441 153.758 194.455 151.571 194.455L151.421 193.539ZM173.862 192.637C176.473 192.637 178.127 193.457 178.127 194.865C178.127 196.26 176.473 197.08 173.862 197.08C171.264 197.08 169.61 196.26 169.61 194.865C169.61 193.457 171.264 192.637 173.862 192.637ZM173.862 193.457C171.92 193.471 170.662 194.004 170.676 194.865C170.662 195.713 171.92 196.232 173.862 196.232C175.803 196.232 177.047 195.713 177.061 194.865C177.047 194.004 175.803 193.471 173.862 193.457ZM178.032 185.582V186.607C178.032 187.592 178.032 188.576 177.69 189.834L176.637 189.711C176.965 188.453 176.965 187.564 176.965 186.607V186.457H169.692V185.582H178.032ZM179.44 190.627V191.502H168.379V190.627H172.959V188.275H174.012V190.627H179.44ZM190.667 184.953V188.658H192.499V189.561H190.667V193.854H189.587V184.953H190.667ZM187.386 185.896C187.386 189.027 185.144 191.352 181.644 192.445L181.179 191.584C184.091 190.675 185.991 188.938 186.224 186.799H181.685V185.896H187.386ZM191.228 195.945V196.848H183.052V192.951H184.118V195.945H191.228ZM207.68 184.953V188.658H209.512V189.561H207.68V193.922H206.614V184.953H207.68ZM208.241 195.945V196.848H200.079V192.992H201.132V195.945H208.241ZM201.596 185.814C203.415 185.814 204.782 187.045 204.796 188.809C204.782 190.572 203.415 191.803 201.596 191.803C199.778 191.803 198.397 190.572 198.411 188.809C198.397 187.045 199.778 185.814 201.596 185.814ZM201.596 186.758C200.393 186.758 199.45 187.605 199.464 188.809C199.45 190.012 200.393 190.859 201.596 190.859C202.827 190.859 203.743 190.012 203.743 188.809C203.743 187.605 202.827 186.758 201.596 186.758ZM221.396 184.953V197.107H220.357V184.953H221.396ZM218.949 185.213V196.492H217.923V190.586H216.365C216.249 192.951 215.244 194.428 213.74 194.428C212.154 194.428 211.128 192.787 211.128 190.203C211.128 187.619 212.154 185.979 213.74 185.979C215.216 185.979 216.214 187.407 216.351 189.697H217.923V185.213H218.949ZM213.74 186.99C212.755 186.99 212.126 188.221 212.14 190.203C212.126 192.172 212.755 193.416 213.74 193.402C214.724 193.416 215.353 192.172 215.353 190.203C215.353 188.221 214.724 186.99 213.74 186.99ZM234.021 186.17V189.41H237.001V184.953H238.067V197.135H237.001V190.299H234.021V194.031H228.483V186.17H234.021ZM229.55 187.018V193.17H232.982V187.018H229.55ZM251.865 190.094V190.969H246.848V192.172H250.443V194.893H243.225V196.123H250.812V196.971H242.158V194.086H249.391V193.006H242.131V192.172H245.781V190.969H240.791V190.094H251.865ZM250.43 185.363V189.068H242.226V185.363H250.43ZM243.293 186.225V188.207H249.363V186.225H243.293ZM263.995 184.953V197.107H262.969V184.953H263.995ZM261.438 185.281V196.492H260.413V190.818H257.842C257.097 192.233 255.928 193.484 254.233 194.482L253.604 193.703C256.25 192.138 257.576 189.943 257.774 187.4H254.124V186.512H258.841C258.834 187.708 258.642 188.863 258.239 189.943H260.413V185.281H261.438ZM280.106 184.953V188.07H281.938V188.986H280.106V192.021H279.039V184.953H280.106ZM273.489 192.555V193.854H279.039V192.555H280.106V196.943H272.422V192.555H273.489ZM273.489 196.082H279.039V194.701H273.489V196.082ZM277.877 186.211V187.1H270.631V186.211H273.721V184.844H274.787V186.211H277.877ZM274.254 187.66C276.004 187.66 277.166 188.494 277.18 189.793C277.166 191.092 276.004 191.926 274.254 191.926C272.491 191.926 271.315 191.092 271.328 189.793C271.315 188.494 272.491 187.66 274.254 187.66ZM274.254 188.494C273.106 188.48 272.34 189.014 272.354 189.793C272.34 190.586 273.106 191.105 274.254 191.105C275.389 191.105 276.155 190.586 276.168 189.793C276.155 189.014 275.389 188.48 274.254 188.494ZM293.425 184.953V197.107H292.358V184.953H293.425ZM285.249 186.156V193.047C287.102 193.04 289.023 192.89 291.06 192.459L291.21 193.375C289.05 193.826 287.122 193.977 285.181 193.977H284.196V186.156H285.249ZM305.609 184.953V189.766H307.646V190.668H305.609V197.135H304.543V184.953H305.609ZM302.41 186.143V187.031H297.803V193.184C300.004 193.184 301.562 193.081 303.367 192.746L303.504 193.676C301.603 194.018 300.004 194.086 297.693 194.086H296.736V186.143H302.41ZM310.288 196.082C309.809 196.082 309.399 195.686 309.413 195.193C309.399 194.715 309.809 194.318 310.288 194.318C310.766 194.318 311.163 194.715 311.163 195.193C311.163 195.686 310.766 196.082 310.288 196.082Z" fill="#1A1A1A"/>
</svg>
