<svg width="107" height="86" viewBox="0 0 107 86" fill="none" xmlns="http://www.w3.org/2000/svg">
<path d="M1.92702 29.5488V0.457918H12.0975C18.177 0.457918 21.0179 3.92383 21.0179 8.18519C21.0179 11.9352 18.802 13.5829 16.302 14.2647V14.5488C18.9725 14.7193 22.1543 17.2193 22.1543 21.8216C22.1543 26.1966 19.3134 29.5488 12.4384 29.5488H1.92702ZM5.44975 26.4238H12.4384C17.0407 26.4238 18.802 24.3784 18.802 21.8216C18.802 18.867 16.4157 16.3102 12.6088 16.3102H5.44975V26.4238ZM5.44975 13.242H11.9838C15.1657 13.242 17.6657 11.2534 17.6657 8.18519C17.6657 5.62837 15.9611 3.58292 12.0975 3.58292H5.44975V13.242ZM27.4881 29.5488V7.73065H30.7267V11.0261H30.954C31.7495 8.86701 34.0222 7.38974 36.6358 7.38974C37.133 7.38974 38.0137 7.41815 38.3972 7.44656V10.8556C38.1699 10.7988 37.2466 10.6284 36.3517 10.6284C33.1699 10.6284 30.8404 12.7875 30.8404 15.742V29.5488H27.4881ZM48.7914 30.0602C44.6436 30.0602 41.3482 27.617 41.3482 23.3556C41.3482 18.3556 45.7658 17.4608 49.8141 16.9352C53.7914 16.4238 55.4391 16.5659 55.4391 14.9466V14.8329C55.4391 12.0346 53.9192 10.4011 50.8368 10.4011C47.6408 10.4011 45.8936 12.1056 45.155 13.6966L41.9732 12.5602C43.6777 8.58292 47.4277 7.44656 50.7232 7.44656C53.5073 7.44656 58.7914 8.24201 58.7914 15.1738V29.5488H55.4391V26.5943H55.2686C54.5868 28.0147 52.5982 30.0602 48.7914 30.0602ZM49.3027 27.0488C53.28 27.0488 55.4391 24.3784 55.4391 21.6511V18.5829C54.8709 19.2647 51.0641 19.6625 49.6436 19.8329C47.03 20.1738 44.7005 20.9693 44.7005 23.5261C44.7005 25.8556 46.6323 27.0488 49.3027 27.0488ZM68.2623 16.4238V29.5488H64.91V7.73065H68.1486V11.1397H68.4327C69.4554 8.92383 71.5009 7.44656 74.7963 7.44656C79.214 7.44656 82.1827 10.117 82.1827 15.6852V29.5488H78.8304V15.9125C78.8304 12.4892 76.9412 10.4579 73.8304 10.4579C70.6202 10.4579 68.2623 12.617 68.2623 16.4238ZM96.5471 30.0034C91.0925 30.0034 87.2857 25.6284 87.2857 18.6966C87.2857 11.8216 91.0925 7.44656 96.6039 7.44656C100.865 7.44656 102.172 10.0602 102.911 11.1966H103.195V0.457918H106.547V29.5488H103.308V26.1966H102.911C102.172 27.3897 100.752 30.0034 96.5471 30.0034ZM97.0016 26.992C101.036 26.992 103.252 23.5829 103.252 18.6397C103.252 13.7534 101.093 10.4579 97.0016 10.4579C92.7402 10.4579 90.638 14.0375 90.638 18.6397C90.638 23.2988 92.7971 26.992 97.0016 26.992ZM17.8361 55.7306C17.4952 52.8613 14.8248 51.1852 11.302 51.1852C7.43839 51.1852 4.88157 53.2306 4.88157 56.0147C4.88157 59.1397 8.34748 60.2761 10.5066 60.8443L13.4611 61.6397C16.4725 62.4352 21.6429 64.1966 21.6429 69.6511C21.6429 74.367 17.8361 78.0602 11.1316 78.0602C4.88157 78.0602 1.01793 74.8216 0.677024 70.0488H4.31339C4.59748 73.3443 7.66566 74.8784 11.1316 74.8784C15.1657 74.8784 18.2338 72.7761 18.2338 69.5943C18.2338 66.6966 15.5066 65.617 12.4384 64.7647L8.85884 63.742C4.31339 62.4352 1.47248 60.1056 1.47248 56.1852C1.47248 51.2988 5.84748 48.0602 11.4157 48.0602C17.0407 48.0602 21.089 51.3414 21.2452 55.7306H17.8361ZM36.4689 55.7306V58.5716H31.8098V71.2988C31.8098 74.1397 33.2303 74.5943 34.7076 74.5943C35.4462 74.5943 35.9007 74.4806 36.1848 74.4238L36.8667 77.4352C36.4121 77.6056 35.6167 77.8329 34.3667 77.8329C31.5257 77.8329 28.4576 76.0147 28.4576 72.2079V58.5716H25.1621V55.7306H28.4576V50.5034H31.8098V55.7306H36.4689ZM50.1408 78.0034C44.2317 78.0034 40.2544 73.5147 40.2544 66.7534C40.2544 59.9352 44.2317 55.4466 50.1408 55.4466C56.0499 55.4466 60.0272 59.9352 60.0272 66.7534C60.0272 73.5147 56.0499 78.0034 50.1408 78.0034ZM50.1408 74.992C54.6294 74.992 56.6749 71.1284 56.6749 66.7534C56.6749 62.3784 54.6294 58.4579 50.1408 58.4579C45.6522 58.4579 43.6067 62.3784 43.6067 66.7534C43.6067 71.1284 45.6522 74.992 50.1408 74.992ZM65.1444 77.5488V55.7306H68.383V59.0261H68.6103C69.4057 56.867 71.6784 55.3897 74.2921 55.3897C74.7892 55.3897 75.6699 55.4181 76.0534 55.4466V58.8556C75.8262 58.7988 74.9029 58.6284 74.008 58.6284C70.8262 58.6284 68.4966 60.7875 68.4966 63.742V77.5488H65.1444ZM82.8503 85.7306C81.714 85.7306 80.748 85.5034 80.4071 85.3329L81.2594 82.3784C81.8986 82.5346 82.4668 82.6341 82.9782 82.6341C84.4696 82.6341 85.5208 81.8244 86.4299 79.367L87.0549 77.6625L78.9867 55.7306H82.623L88.6458 73.117H88.873L94.8958 55.7306H98.5321L89.2708 80.7306C88.0066 84.1255 85.8759 85.7306 82.8503 85.7306Z" fill="#1A1A1A"/>
</svg>
