<svg width="355" height="20" viewBox="0 0 355 20" fill="none" xmlns="http://www.w3.org/2000/svg">
<path d="M2.60784 0.835893V6.19101H0.647609V0.835893H2.60784ZM6.26551 0.835893V6.19101H4.30528V0.835893H6.26551ZM9.14193 15.3813H6.32943L11.4502 0.835893H14.703L19.8308 15.3813H17.0183L15.811 11.7947H10.3422L9.14193 15.3813ZM11.0524 9.67822H15.1007L13.1334 3.81885H13.0198L11.0524 9.67822ZM34.6125 4.83447C34.4775 3.59868 33.4406 2.86714 31.871 2.86714C30.2232 2.86714 29.2431 3.6697 29.236 4.76345C29.2218 5.97794 30.5144 6.4822 31.7076 6.76629L33.0713 7.1072C35.2588 7.62567 37.3397 8.77623 37.3468 11.2975C37.3397 13.8615 35.3156 15.6015 31.8284 15.6015C28.4406 15.6015 26.2886 13.9751 26.1821 11.0845H28.7744C28.8809 12.6115 30.1593 13.3501 31.8071 13.3501C33.5258 13.3501 34.7048 12.5191 34.7119 11.2762C34.7048 10.147 33.6679 9.65692 32.0982 9.25919L30.4434 8.83305C28.05 8.21515 26.5656 7.01487 26.5656 4.9268C26.5585 2.35578 28.8525 0.637029 31.9065 0.637029C35.0031 0.637029 37.0982 2.37709 37.148 4.83447H34.6125ZM39.5823 19.4723V4.47226H42.1107V6.27623H42.2598C42.6505 5.48788 43.453 4.33021 45.3777 4.33021C47.899 4.33021 49.8806 6.30464 49.8806 9.94101C49.8806 13.5348 47.9558 15.5731 45.3848 15.5731C43.5098 15.5731 42.6647 14.4581 42.2598 13.6626H42.1533V19.4723H39.5823ZM42.1036 9.9268C42.1036 12.0433 43.0269 13.4637 44.6675 13.4637C46.3649 13.4637 47.2598 11.9723 47.2598 9.9268C47.2598 7.89555 46.3791 6.43959 44.6675 6.43959C43.0127 6.43959 42.1036 7.81032 42.1036 9.9268ZM55.2215 15.6015C53.1405 15.6015 51.5709 14.4652 51.5709 12.3203C51.5709 9.86288 53.5951 9.23078 55.7115 9.00351C57.6362 8.79754 58.4104 8.76203 58.4104 8.02339V7.98078C58.4104 6.90834 57.757 6.29754 56.5638 6.29754C55.3067 6.29754 54.5823 6.93675 54.3266 7.68248L51.926 7.34157C52.4942 5.35294 54.2556 4.33021 56.5496 4.33021C58.6306 4.33021 60.9814 5.19669 60.9814 8.08021V15.3813H58.5098V13.8828H58.4246C57.9558 14.799 56.9331 15.6015 55.2215 15.6015ZM55.8891 13.7123C57.4374 13.7123 58.4175 12.6825 58.4175 11.468V10.1825C58.0837 10.4524 56.7343 10.6228 56.0595 10.7152C54.909 10.8785 54.0496 11.2904 54.0496 12.2777C54.0496 13.2223 54.8166 13.7123 55.8891 13.7123ZM68.3252 15.5944C65.0652 15.5944 63.0979 13.272 63.0979 9.96942C63.0979 6.63845 65.1149 4.33021 68.311 4.33021C70.9743 4.33021 72.8209 5.88561 72.9985 8.25067H70.5411C70.3422 7.19953 69.5823 6.40407 68.3465 6.40407C66.7627 6.40407 65.7044 7.7251 65.7044 9.9268C65.7044 12.1569 66.7414 13.4992 68.3465 13.4992C69.4757 13.4992 70.3209 12.8245 70.5411 11.6527H72.9985C72.8138 13.968 71.0666 15.5944 68.3252 15.5944ZM79.9392 15.5944C76.6508 15.5944 74.6409 13.414 74.6409 9.99072C74.6409 6.62425 76.6792 4.33021 79.8042 4.33021C82.4889 4.33021 84.79 6.01345 84.79 9.84157V10.6299H77.1906C77.2119 12.4978 78.3127 13.5916 79.9747 13.5916C81.0826 13.5916 81.9349 13.1086 82.2829 12.1853L84.6835 12.4552C84.2289 14.3515 82.4818 15.5944 79.9392 15.5944ZM77.1977 8.89697H82.3255C82.3113 7.4126 81.317 6.33305 79.8397 6.33305C78.3056 6.33305 77.2758 7.50493 77.1977 8.89697ZM92.0397 15.3813V0.835893H97.6078C100.761 0.835893 102.324 2.44101 102.324 4.6072C102.324 6.37567 101.202 7.36998 99.7811 7.70379V7.84584C101.329 7.92396 102.892 9.21657 102.892 11.4183C102.892 13.6839 101.258 15.3813 97.9274 15.3813H92.0397ZM94.6746 13.1796H97.5084C99.4189 13.1796 100.214 12.37 100.214 11.2123C100.214 9.9126 99.2058 8.91828 97.5794 8.91828H94.6746V13.1796ZM94.6746 7.02197H97.2811C98.6519 7.02197 99.6888 6.22652 99.6888 4.94811C99.6888 3.82595 98.8862 3.00919 97.338 3.00919H94.6746V7.02197ZM109.9 15.5944C106.612 15.5944 104.602 13.414 104.602 9.99072C104.602 6.62425 106.64 4.33021 109.765 4.33021C112.45 4.33021 114.751 6.01345 114.751 9.84157V10.6299H107.152C107.173 12.4978 108.274 13.5916 109.936 13.5916C111.044 13.5916 111.896 13.1086 112.244 12.1853L114.644 12.4552C114.19 14.3515 112.443 15.5944 109.9 15.5944ZM107.159 8.89697H112.286C112.272 7.4126 111.278 6.33305 109.801 6.33305C108.267 6.33305 107.237 7.50493 107.159 8.89697ZM122.373 4.47226V6.46089H120.221V12.1001C120.221 13.137 120.74 13.3643 121.386 13.3643C121.706 13.3643 121.997 13.3004 122.139 13.2649L122.572 15.2748C122.04 15.4524 121.471 15.5305 120.903 15.5305C119.05 15.5305 117.636 14.522 117.65 12.5262V6.46089H116.102V4.47226H117.65V1.85862H120.221V4.47226H122.373ZM126.775 15.3813L123.693 4.47226H126.313L128.231 12.1427H128.33L130.291 4.47226H132.883L134.843 12.1001H134.95L136.839 4.47226H139.467L136.377 15.3813H133.7L131.654 8.00919H131.505L129.46 15.3813H126.775ZM145.799 15.5944C142.51 15.5944 140.5 13.414 140.5 9.99072C140.5 6.62425 142.539 4.33021 145.664 4.33021C148.348 4.33021 150.649 6.01345 150.649 9.84157V10.6299H143.05C143.071 12.4978 144.172 13.5916 145.834 13.5916C146.942 13.5916 147.794 13.1086 148.142 12.1853L150.543 12.4552C150.088 14.3515 148.341 15.5944 145.799 15.5944ZM143.057 8.89697H148.185C148.171 7.4126 147.176 6.33305 145.699 6.33305C144.165 6.33305 143.135 7.50493 143.057 8.89697ZM157.654 15.5944C154.366 15.5944 152.356 13.414 152.356 9.99072C152.356 6.62425 154.394 4.33021 157.519 4.33021C160.204 4.33021 162.505 6.01345 162.505 9.84157V10.6299H154.905C154.927 12.4978 156.028 13.5916 157.69 13.5916C158.797 13.5916 159.65 13.1086 159.998 12.1853L162.398 12.4552C161.944 14.3515 160.197 15.5944 157.654 15.5944ZM154.913 8.89697H160.04C160.026 7.4126 159.032 6.33305 157.555 6.33305C156.02 6.33305 154.991 7.50493 154.913 8.89697ZM167.251 8.9893V15.3813H164.68V4.47226H167.137V6.32595H167.265C167.762 5.11146 168.884 4.33021 170.518 4.33021C172.769 4.33021 174.261 5.82169 174.254 8.43532V15.3813H171.683V8.83305C171.683 7.37709 170.887 6.50351 169.559 6.50351C168.203 6.50351 167.251 7.4126 167.251 8.9893ZM181.942 15.3813V0.835893H187.397C190.735 0.835893 192.524 2.71089 192.524 5.48788C192.524 7.46231 191.622 8.92538 189.911 9.6143L193.057 15.3813H190.117L187.262 10.0546H184.577V15.3813H181.942ZM184.577 7.86714H187.006C188.959 7.86714 189.84 7.03618 189.84 5.48788C189.84 3.93959 188.959 3.0376 186.992 3.0376H184.577V7.86714ZM199.509 15.5944C196.221 15.5944 194.211 13.414 194.211 9.99072C194.211 6.62425 196.25 4.33021 199.375 4.33021C202.059 4.33021 204.36 6.01345 204.36 9.84157V10.6299H196.761C196.782 12.4978 197.883 13.5916 199.545 13.5916C200.653 13.5916 201.505 13.1086 201.853 12.1853L204.254 12.4552C203.799 14.3515 202.052 15.5944 199.509 15.5944ZM196.768 8.89697H201.896C201.882 7.4126 200.887 6.33305 199.41 6.33305C197.876 6.33305 196.846 7.50493 196.768 8.89697ZM209.675 15.6015C207.594 15.6015 206.024 14.4652 206.024 12.3203C206.024 9.86288 208.048 9.23078 210.165 9.00351C212.089 8.79754 212.864 8.76203 212.864 8.02339V7.98078C212.864 6.90834 212.21 6.29754 211.017 6.29754C209.76 6.29754 209.035 6.93675 208.78 7.68248L206.379 7.34157C206.947 5.35294 208.709 4.33021 211.003 4.33021C213.084 4.33021 215.435 5.19669 215.435 8.08021V15.3813H212.963V13.8828H212.878C212.409 14.799 211.386 15.6015 209.675 15.6015ZM210.342 13.7123C211.89 13.7123 212.871 12.6825 212.871 11.468V10.1825C212.537 10.4524 211.187 10.6228 210.513 10.7152C209.362 10.8785 208.503 11.2904 208.503 12.2777C208.503 13.2223 209.27 13.7123 210.342 13.7123ZM220.591 0.835893V15.3813H218.02V0.835893H220.591ZM223.235 15.3813V4.47226H225.806V15.3813H223.235ZM224.527 2.92396C223.703 2.92396 223.036 2.29896 223.036 1.53192C223.036 0.757768 223.703 0.132768 224.527 0.132768C225.344 0.132768 226.012 0.757768 226.012 1.53192C226.012 2.29896 225.344 2.92396 224.527 2.92396ZM233.897 4.47226V6.46089H231.745V12.1001C231.745 13.137 232.263 13.3643 232.91 13.3643C233.229 13.3643 233.52 13.3004 233.663 13.2649L234.096 15.2748C233.563 15.4524 232.995 15.5305 232.427 15.5305C230.573 15.5305 229.16 14.522 229.174 12.5262V6.46089H227.626V4.47226H229.174V1.85862H231.745V4.47226H233.897ZM237.645 19.4723C236.942 19.4723 236.317 19.3444 235.969 19.2024L236.566 17.1995C236.914 17.299 237.226 17.3629 237.503 17.3629C238.128 17.3629 238.59 17.0575 238.916 16.1981L239.137 15.6086L235.181 4.47226H237.908L240.422 12.7109H240.536L243.057 4.47226H245.791L241.424 16.7024C240.806 18.4424 239.648 19.4723 237.645 19.4723ZM256.878 15.5944C253.902 15.5944 252.084 13.8331 252.084 11.5177C252.084 9.80606 253.192 8.76203 254.811 7.64697C253.973 6.61004 253.32 5.5518 253.32 4.25209C253.32 2.18532 254.833 0.658336 257.134 0.658336C259.428 0.658336 260.827 2.18532 260.827 3.96089C260.827 5.33873 260.11 6.39697 258.895 7.27765L257.979 7.95237L260.635 11.0632C261.019 10.3458 261.246 9.48646 261.246 8.52765H263.455C263.455 10.5234 262.901 11.9367 262.191 12.8884L264.321 15.3813H261.537L260.607 14.316C259.591 15.1967 258.164 15.5944 256.878 15.5944ZM259.208 12.7109L256.189 9.25919L255.955 9.42964C254.989 10.1399 254.605 10.8998 254.605 11.4041C254.605 12.5546 255.529 13.4779 256.956 13.4779C257.73 13.4779 258.519 13.2081 259.208 12.7109ZM256.665 6.38277L257.489 5.82169C258.249 5.33163 258.647 4.81317 258.647 4.07453C258.647 3.44953 258.085 2.76771 257.169 2.76771C256.239 2.76771 255.614 3.49925 255.614 4.2876C255.614 4.95521 256.054 5.62993 256.665 6.38277ZM275.797 15.3813H270.868V0.835893H275.896C280.229 0.835893 282.856 3.56317 282.856 8.09442C282.856 12.6399 280.229 15.3813 275.797 15.3813ZM273.503 13.1015H275.669C278.702 13.1015 280.243 11.4396 280.243 8.09442C280.243 4.76345 278.702 3.11572 275.747 3.11572H273.503V13.1015ZM285.246 15.3813V4.47226H287.739V6.29044H287.853C288.251 5.02623 289.295 4.31601 290.545 4.31601C290.829 4.31601 291.234 4.34442 291.468 4.38703V6.75209C291.248 6.68106 290.708 6.60294 290.275 6.60294C288.861 6.60294 287.817 7.58305 287.817 8.968V15.3813H285.246ZM297.556 15.5944C294.268 15.5944 292.258 13.414 292.258 9.99072C292.258 6.62425 294.296 4.33021 297.421 4.33021C300.106 4.33021 302.407 6.01345 302.407 9.84157V10.6299H294.808C294.829 12.4978 295.93 13.5916 297.592 13.5916C298.7 13.5916 299.552 13.1086 299.9 12.1853L302.301 12.4552C301.846 14.3515 300.099 15.5944 297.556 15.5944ZM294.815 8.89697H299.943C299.928 7.4126 298.934 6.33305 297.457 6.33305C295.923 6.33305 294.893 7.50493 294.815 8.89697ZM307.721 15.6015C305.64 15.6015 304.071 14.4652 304.071 12.3203C304.071 9.86288 306.095 9.23078 308.212 9.00351C310.136 8.79754 310.91 8.76203 310.91 8.02339V7.98078C310.91 6.90834 310.257 6.29754 309.064 6.29754C307.807 6.29754 307.082 6.93675 306.827 7.68248L304.426 7.34157C304.994 5.35294 306.756 4.33021 309.05 4.33021C311.131 4.33021 313.481 5.19669 313.481 8.08021V15.3813H311.01V13.8828H310.925C310.456 14.799 309.433 15.6015 307.721 15.6015ZM308.389 13.7123C309.937 13.7123 310.917 12.6825 310.917 11.468V10.1825C310.584 10.4524 309.234 10.6228 308.56 10.7152C307.409 10.8785 306.55 11.2904 306.55 12.2777C306.55 13.2223 307.317 13.7123 308.389 13.7123ZM316.067 15.3813V4.47226H318.524V6.32595H318.652C319.106 5.08305 320.2 4.33021 321.663 4.33021C323.133 4.33021 324.192 5.09015 324.611 6.32595H324.724C325.207 5.11146 326.415 4.33021 327.998 4.33021C330.001 4.33021 331.408 5.62282 331.408 8.0589V15.3813H328.829V8.45663C328.829 7.1072 328.006 6.4964 326.969 6.4964C325.726 6.4964 324.994 7.34868 324.994 8.57737V15.3813H322.473V8.3501C322.473 7.22794 321.727 6.4964 320.64 6.4964C319.533 6.4964 318.638 7.4055 318.638 8.74782V15.3813H316.067ZM342.638 7.35578L340.294 7.61146C340.095 6.89413 339.47 6.24782 338.284 6.24782C337.212 6.24782 336.395 6.75919 336.402 7.49782C336.395 8.12993 336.835 8.51345 337.943 8.76203L339.804 9.15976C341.864 9.6072 342.865 10.5589 342.872 12.1143C342.865 14.1811 340.941 15.5944 338.213 15.5944C335.536 15.5944 333.852 14.4083 333.533 12.4055L336.04 12.164C336.26 13.1441 337.027 13.6555 338.206 13.6555C339.428 13.6555 340.237 13.0944 340.237 12.3487C340.237 11.7308 339.769 11.3259 338.767 11.1058L336.906 10.7152C334.811 10.2819 333.831 9.23078 333.838 7.63987C333.831 5.62282 335.621 4.33021 338.249 4.33021C340.806 4.33021 342.283 5.50919 342.638 7.35578ZM346.576 15.5376C345.71 15.5376 345.007 14.8416 345.014 13.9751C345.007 13.1228 345.71 12.4268 346.576 12.4268C347.414 12.4268 348.132 13.1228 348.139 13.9751C348.132 14.8416 347.414 15.5376 346.576 15.5376ZM350.674 0.835893V6.19101H348.714V0.835893H350.674ZM354.332 0.835893V6.19101H352.372V0.835893H354.332Z" fill="#1A1A1A"/>
</svg>
