<svg width="298" height="317" viewBox="0 0 298 317" fill="none" xmlns="http://www.w3.org/2000/svg">
<path d="M1.70703 2.09814L5.45117 12.7681H5.5918L9.35352 2.09814H11.0234L6.36523 14.8247H4.69531L0.0371094 2.09814H1.70703ZM13.6461 14.8247V2.09814H21.3629V3.50439H15.2281V7.7583H20.9586V9.14697H15.2281V13.4185H21.4508V14.8247H13.6461ZM26.341 2.09814V14.8247H24.759V2.09814H26.341ZM30.0535 14.8247V2.09814H31.6355V13.4185H37.5418V14.8247H30.0535ZM40.5512 14.8247V2.09814H44.8754C47.8637 2.09814 49.2172 3.75049 49.2172 6.01807C49.2172 7.69678 48.4613 9.02393 46.8441 9.58643L49.7094 14.8247H47.8637L45.2094 9.86768L44.893 9.88525H42.1332V14.8247H40.5512ZM42.1332 8.44385H44.8227C46.8441 8.44385 47.6527 7.52979 47.6527 6.01807C47.6527 4.48877 46.8441 3.50439 44.8051 3.50439H42.1332V8.44385ZM52.4023 14.8247V2.09814H60.1191V3.50439H53.9844V7.7583H59.7148V9.14697H53.9844V13.4185H60.207V14.8247H52.4023ZM64.0777 14.8247H62.4254L67.0836 2.09814H68.7535L73.4117 14.8247H71.7418L70.4762 11.2388H65.3609L64.0777 14.8247ZM65.8355 9.8501H69.984L67.9625 4.15479H67.857L65.8355 9.8501ZM76.0344 14.8247V2.09814H77.6164V13.4185H83.5227V14.8247H76.0344ZM99.9969 8.86572V9.99072H85.7586V8.86572H99.9969ZM98.4148 14.7544V15.9146H87.6043V11.3618H88.993V14.7544H98.4148ZM92.8777 1.18408C96.2352 1.1665 98.3973 2.32666 98.3973 4.27783C98.3973 6.229 96.2352 7.38916 92.8777 7.38916C89.4852 7.38916 87.3406 6.229 87.3406 4.27783C87.3406 2.32666 89.4852 1.1665 92.8777 1.18408ZM92.8777 2.2915C90.3641 2.2915 88.7469 3.04736 88.7645 4.27783C88.7469 5.5083 90.3641 6.26416 92.8777 6.26416C95.3738 6.26416 96.991 5.5083 96.991 4.27783C96.991 3.04736 95.3738 2.2915 92.8777 2.2915ZM120.518 0.621582V9.70947H119.164V0.621582H120.518ZM120.922 10.8169V11.9067H116.281C116.36 13.3921 118.821 14.8511 121.467 15.1763L120.957 16.2485C118.619 15.9146 116.483 14.8159 115.561 13.3657C114.629 14.8511 112.432 15.9321 110.076 16.2485L109.584 15.1938C112.229 14.9038 114.778 13.4448 114.857 11.9067H110.234V10.8169H114.875V9.30518H116.246V10.8169H120.922ZM109.83 1.28955V3.71533H114.436V1.28955H115.807V8.26807H108.459V1.28955H109.83ZM109.83 7.16064H114.436V4.7876H109.83V7.16064ZM132.755 2.36182V3.17041C132.738 4.40088 132.738 6.4751 132.298 9.37549L130.91 9.25244C131.332 6.6333 131.367 4.73486 131.367 3.48682H124.81V2.36182H132.755ZM128.66 6.82666V11.5728C130.391 11.5112 132.167 11.397 133.793 11.2036L133.863 12.2407C130.576 12.7505 126.902 12.8208 124.107 12.8032L123.931 11.6606C124.96 11.6519 126.102 11.6431 127.306 11.6079V6.82666H128.66ZM136.148 0.621582V7.16064H138.679V8.35596H136.148V16.2485H134.777V0.621582H136.148ZM158.286 2.2915V3.85596C158.286 5.82471 158.286 8.05713 157.706 11.4497L156.3 11.3091C156.932 8.10986 156.932 5.77197 156.932 3.85596V3.43408H147.511V2.2915H158.286ZM160.202 12.8032V13.9458H145.964V12.8032H160.202ZM175.323 0.63916V9.90283H173.952V0.63916H175.323ZM170.348 1.58838V5.82471H164.582V7.98682C167.377 8.00439 169.469 7.9165 172 7.49463L172.159 8.65479C169.539 9.05908 167.395 9.14697 164.512 9.14697H163.246V4.73486H168.977V2.6958H163.211V1.58838H170.348ZM175.323 10.7466V16.0376H165.163V10.7466H175.323ZM166.516 11.8716V14.9126H173.969V11.8716H166.516ZM184.168 5.42041C184.15 7.93408 185.961 10.6938 188.229 11.7661L187.438 12.856C185.68 12.0034 184.194 10.1401 183.5 8.02197C182.779 10.3247 181.206 12.3462 179.457 13.2427L178.613 12.1528C180.863 11.063 182.797 8.09229 182.814 5.42041V3.38135H179.176V2.23877H187.684V3.38135H184.168V5.42041ZM190.971 0.621582V6.94971H193.59V8.12744H190.971V16.2485H189.6V0.621582H190.971ZM207.427 0.621582V6.98486H209.959V8.14502H207.427V16.2485H206.056V0.621582H207.427ZM203.384 2.30908C203.384 6.73877 201.31 10.7642 196.212 13.2778L195.439 12.188C199.482 10.1753 201.679 7.16943 201.996 3.46924H196.16V2.30908H203.384ZM225.1 2.04541V9.23486H217.876V2.04541H225.1ZM219.229 3.17041V8.12744H223.764V3.17041H219.229ZM229.425 0.621582V5.38525H231.78V6.54541H229.425V12.0825H228.054V0.621582H229.425ZM230.145 14.7544V15.9146H219.651V10.9927H221.005V14.7544H230.145ZM247.92 7.1958V8.30322H233.664V7.1958H247.92ZM246.215 4.7876V5.9126H235.563V1.1665H246.057V2.27393H236.952V4.7876H246.215ZM246.075 9.70947V13.3306H236.793V14.9478H246.549V16.0728H235.422V12.2935H244.721V10.7817H235.387V9.70947H246.075ZM254.322 1.83447C256.449 1.85205 257.979 3.67139 258.207 6.59814H261.705V0.621582H263.076V16.2837H261.705V7.74072H258.225C258.058 10.7993 256.502 12.7153 254.322 12.7153C252.02 12.7153 250.402 10.606 250.402 7.28369C250.402 3.96143 252.02 1.85205 254.322 1.83447ZM254.322 3.06494C252.775 3.08252 251.721 4.73486 251.721 7.28369C251.721 9.83252 252.775 11.4849 254.322 11.4849C255.852 11.4849 256.924 9.83252 256.924 7.28369C256.924 4.73486 255.852 3.08252 254.322 3.06494ZM279.92 0.621582V16.2485H278.566V8.1626H276.316V15.4399H275.015V0.973145H276.316V6.98486H278.566V0.621582H279.92ZM268.74 2.5376V10.9751C270.296 10.9575 271.948 10.8521 273.855 10.4653L274.031 11.6958C271.851 12.0825 270.058 12.2056 268.336 12.2056H267.369V2.5376H268.74ZM295.673 5.36768V6.4751H284.968V1.20166H286.339V5.36768H295.673ZM297.325 8.60205V9.72705H283.017V8.60205H297.325ZM295.761 14.7192V15.8618H284.88V11.3267H286.251V14.7192H295.761ZM5.67969 28.645C5.67969 30.3325 7.33203 31.8442 9.61719 32.3892L9.00195 33.4614C7.15625 32.9956 5.71484 31.9409 5.0293 30.561C4.34375 32.0903 2.84082 33.2593 0.933594 33.7778L0.300781 32.7056C2.62109 32.0728 4.32617 30.5083 4.32617 28.645V28.3813H0.792969V27.2388H4.32617V25.5688H5.71484V27.2388H9.21289V28.3813H5.67969V28.645ZM12.5703 25.6216V29.1021H14.9258V30.2798H12.5703V33.8833H11.1992V25.6216H12.5703ZM12.5703 34.6567V38.313H3.99219V39.9653H13.1504V41.0728H2.63867V37.2583H11.1992V35.7466H2.60352V34.6567H12.5703ZM31.4352 31.8618V33.022H28.9039V41.2485H27.5328V25.6216H28.9039V31.8618H31.4352ZM18.8316 27.1685V36.1157C21.1168 36.1069 23.4459 35.9312 26.0211 35.395L26.1969 36.5728C23.5074 37.1177 21.0816 37.2759 18.7086 37.2759H17.4605V27.1685H18.8316ZM38.382 26.7642C40.843 26.7642 42.5832 28.2583 42.5832 30.438C42.5832 32.6177 40.843 34.1118 38.382 34.1118C35.9211 34.1118 34.1457 32.6177 34.1633 30.438C34.1457 28.2583 35.9211 26.7642 38.382 26.7642ZM38.382 27.9771C36.7121 27.9771 35.4992 28.979 35.5168 30.438C35.4992 31.897 36.7121 32.8989 38.382 32.8989C40.0344 32.8989 41.2297 31.897 41.2297 30.438C41.2297 28.979 40.0344 27.9771 38.382 27.9771ZM46.0812 25.6216V41.2837H44.7102V25.6216H46.0812ZM33.3547 36.6606C36.2375 36.6606 40.2102 36.6431 43.673 36.1333L43.7785 37.1528C40.2102 37.8208 36.3605 37.8384 33.548 37.8384L33.3547 36.6606ZM68.0961 25.6216V33.6196H66.7074V31.9849H62.5414V30.895H66.7074V29.0142H62.7699C61.7855 31.4839 59.3598 33.145 55.8969 33.9712L55.4047 32.8286C59.2367 31.9409 61.4691 30.0688 61.7328 27.5552H56.1957V26.4126H63.2445C63.2445 26.9312 63.1918 27.4321 63.1039 27.9067H66.7074V25.6216H68.0961ZM68.0961 34.3228V38.1372H59.3773V39.9653H68.6234V41.1079H58.0062V37.0825H66.7074V35.4478H57.9711V34.3228H68.0961ZM78.7168 25.9028C82.1973 25.9028 84.2363 26.8521 84.2363 28.5923C84.2363 30.3677 82.1973 31.3169 78.7168 31.3345C75.2363 31.3169 73.1797 30.3677 73.1797 28.5923C73.1797 26.8521 75.2363 25.9028 78.7168 25.9028ZM78.7168 26.9399C76.1152 26.9399 74.6035 27.5728 74.6211 28.5923C74.6035 29.6821 76.1152 30.2798 78.7168 30.2798C81.3008 30.2798 82.8301 29.6821 82.8301 28.5923C82.8301 27.5728 81.3008 26.9399 78.7168 26.9399ZM85.8359 32.3892V33.5142H71.5977V32.3892H85.8359ZM84.0078 34.8677V38.3657H74.7266V39.9829H84.4824V41.0728H73.3555V37.3462H82.6543V35.9224H73.3203V34.8677H84.0078ZM100.591 26.6411C103.913 26.6587 106.304 28.2759 106.304 30.7368C106.304 33.0659 104.23 34.6128 101.259 34.7974V38.0845H107.78V39.2446H93.4719V38.0845H99.9055V34.7974C96.9436 34.604 94.8781 33.0571 94.8781 30.7368C94.8781 28.2759 97.2688 26.6587 100.591 26.6411ZM100.591 27.7837C98.0598 27.7837 96.2141 28.979 96.2141 30.7368C96.2141 32.5474 98.0598 33.7075 100.591 33.7251C103.122 33.7075 104.968 32.5474 104.968 30.7368C104.968 28.979 103.122 27.7837 100.591 27.7837ZM124.237 38.0142V39.1743H109.929V38.0142H124.237ZM113.005 26.7466V29.6646H121.126V26.7466H122.479V34.8853H111.616V26.7466H113.005ZM113.005 33.7778H121.126V30.772H113.005V33.7778ZM139.745 25.6216V41.2485H138.426V25.6216H139.745ZM136.58 26.0083V40.4399H135.28V32.3892H132.643V31.2642H135.28V26.0083H136.58ZM130.973 30.0864C130.973 32.7935 132.186 35.4829 134.348 36.731L133.504 37.7505C131.966 36.8276 130.876 35.1401 130.34 33.145C129.769 35.2983 128.635 37.1353 127.071 38.1196L126.192 37.0825C128.371 35.7817 129.637 32.9341 129.637 30.0864V28.6099H126.631V27.4673H133.838V28.6099H130.973V30.0864ZM157.15 38.1548V39.3149H142.842V38.1548H149.275V35.2017H144.635V30.3853H153.986V27.9243H144.6V26.7817H155.34V31.5103H146.006V34.0591H155.709V35.2017H150.629V38.1548H157.15ZM176.933 25.6216V29.4536H179.288V30.6138H176.933V34.4985H175.562V25.6216H176.933ZM172.38 26.6938V27.8188H166.825V32.4243C169.963 32.4419 171.747 32.3276 173.839 31.9146L174.015 33.0396C171.818 33.479 169.954 33.5669 166.667 33.5669H165.454V26.6938H172.38ZM176.933 35.3071V41.0376H167.071V35.3071H176.933ZM168.425 36.4321V39.9126H175.562V36.4321H168.425ZM185.356 26.8345C187.659 26.8521 189.294 28.9614 189.311 32.2837C189.294 35.606 187.659 37.7153 185.356 37.7153C183.036 37.7153 181.419 35.606 181.419 32.2837C181.419 28.9614 183.036 26.8521 185.356 26.8345ZM185.356 28.0649C183.809 28.0825 182.72 29.7349 182.72 32.2837C182.72 34.8325 183.809 36.4849 185.356 36.4849C186.921 36.4849 187.975 34.8325 187.975 32.2837C187.975 29.7349 186.921 28.0825 185.356 28.0649ZM193.266 25.6216V31.8618H195.886V33.0571H193.266V41.2485H191.895V25.6216H193.266ZM210.901 25.6392V34.147H209.582V30.561H207.368V34.0063H206.067V25.938H207.368V29.4536H209.582V25.6392H210.901ZM201.971 34.8501V36.7485H209.547V34.8501H210.901V41.0376H200.6V34.8501H201.971ZM201.971 39.895H209.547V37.856H201.971V39.895ZM199.791 26.6587V31.9673C201.426 31.9585 203.017 31.8706 204.924 31.5103L205.082 32.6704C202.955 33.0571 201.268 33.1099 199.405 33.1099H198.42V26.6587H199.791ZM226.971 25.6216V41.2485H225.6V25.6216H226.971ZM216.459 27.1685V36.0278C218.841 36.019 221.311 35.8257 223.93 35.272L224.123 36.4497C221.346 37.0298 218.867 37.2231 216.371 37.2231H215.105V27.1685H216.459ZM242.636 25.6216V31.8091H245.255V32.9692H242.636V41.2837H241.265V25.6216H242.636ZM238.523 27.1509V28.2935H232.599V36.2036C235.429 36.2036 237.433 36.0718 239.754 35.6411L239.929 36.8364C237.486 37.2759 235.429 37.3638 232.459 37.3638H231.228V27.1509H238.523ZM248.652 39.9302C248.036 39.9302 247.509 39.4204 247.527 38.7876C247.509 38.1724 248.036 37.6626 248.652 37.6626C249.267 37.6626 249.777 38.1724 249.777 38.7876C249.777 39.4204 249.267 39.9302 248.652 39.9302ZM12.5703 75.6216V80.2798H14.9434V81.4399H12.5703V86.9419H11.1992V75.6216H12.5703ZM8.05273 76.9751V78.1353H2.46289V83.0044C5.60059 83.0044 7.38477 82.9253 9.47656 82.4946L9.65234 83.6372C7.45508 84.0591 5.5918 84.1646 2.30469 84.1646H1.0918V76.9751H8.05273ZM13.291 89.7544V90.9146H2.79688V85.7993H4.15039V89.7544H13.291ZM24.65 76.8169C24.65 78.856 27.4977 80.7192 30.2047 81.1411L29.6598 82.231C27.2867 81.8267 24.94 80.5083 23.9469 78.6802C22.9625 80.5435 20.5895 81.8442 18.2164 82.2485L17.6715 81.1587C20.3961 80.7368 23.2262 78.9263 23.2262 76.8169V76.0259H24.65V76.8169ZM31.1012 83.5845V84.7271H24.7379V87.9263H23.3668V84.7271H16.7926V83.5845H31.1012ZM29.5016 89.7544V90.9146H18.6207V86.397H20.0094V89.7544H29.5016ZM45.4836 75.6392V80.7896H47.8391V81.9497H45.4836V87.3462H44.1125V75.6392H45.4836ZM42.6184 77.5552V78.6802H33.302V77.5552H37.2746V75.6392H38.6457V77.5552H42.6184ZM37.9602 79.5415C40.1926 79.5415 41.7043 80.6841 41.7219 82.4595C41.7043 84.2173 40.1926 85.3423 37.9602 85.3423C35.7102 85.3423 34.1809 84.2173 34.1984 82.4595C34.1809 80.6841 35.7102 79.5415 37.9602 79.5415ZM37.9602 80.6313C36.4836 80.6313 35.4992 81.3521 35.5168 82.4595C35.4992 83.5669 36.4836 84.27 37.9602 84.2524C39.4191 84.27 40.4035 83.5669 40.4211 82.4595C40.4035 81.3521 39.4191 80.6313 37.9602 80.6313ZM46.2043 89.7544V90.9146H35.7102V86.4146H37.0637V89.7544H46.2043ZM69.4496 88.0669V89.2095H55.141V88.0669H61.5395V84.2349H62.893V88.0669H69.4496ZM62.9281 77.8892C62.9281 80.5083 66.0219 82.7935 68.7465 83.2681L68.1312 84.4106C65.7494 83.9272 63.2357 82.3101 62.225 80.0513C61.1967 82.3013 58.7006 83.9272 56.3187 84.4106L55.7035 83.2681C58.4281 82.7935 61.4867 80.5083 61.4867 77.8892V76.6938H62.9281V77.8892ZM85.8359 83.1802V84.3228H79.3848V86.1685H84.0957V91.0376H73.3379V86.1685H78.0312V84.3228H71.5977V83.1802H85.8359ZM84.4824 76.1313V77.2739H82.0742V80.561H84.4297V81.7036H72.9863V80.561H75.3418V77.2739H72.9336V76.1313H84.4824ZM74.709 87.2583V89.9126H82.7422V87.2583H74.709ZM76.7129 80.561H80.7031V77.2739H76.7129V80.561ZM100.939 75.6216V91.2837H99.5504V75.6216H100.939ZM92.6246 76.8345C94.9449 76.8521 96.6148 78.9614 96.6148 82.2837C96.6148 85.606 94.9449 87.7153 92.6246 87.7153C90.2867 87.7153 88.6344 85.606 88.6344 82.2837C88.6344 78.9614 90.2867 76.8521 92.6246 76.8345ZM92.6246 78.0649C91.0602 78.0825 89.9703 79.7349 89.9703 82.2837C89.9703 84.8325 91.0602 86.4849 92.6246 86.4849C94.1891 86.4849 95.2789 84.8325 95.2789 82.2837C95.2789 79.7349 94.1891 78.0825 92.6246 78.0649ZM114.112 76.8345C116.415 76.8521 118.05 78.9614 118.067 82.2837C118.05 85.606 116.415 87.7153 114.112 87.7153C111.792 87.7153 110.175 85.606 110.175 82.2837C110.175 78.9614 111.792 76.8521 114.112 76.8345ZM114.112 78.0649C112.565 78.0825 111.475 79.7349 111.475 82.2837C111.475 84.8325 112.565 86.4849 114.112 86.4849C115.677 86.4849 116.731 84.8325 116.731 82.2837C116.731 79.7349 115.677 78.0825 114.112 78.0649ZM122.022 75.6216V81.8618H124.641V83.0571H122.022V91.2485H120.651V75.6216H122.022ZM139.287 75.6392V86.9946H137.916V75.6392H139.287ZM139.78 89.7544V90.9146H129.039V85.8521H130.428V89.7544H139.78ZM128.758 76.7993V82.7935C131.518 82.811 133.75 82.6616 136.176 82.1255L136.37 83.2856C133.803 83.813 131.5 83.9888 128.635 83.9888H127.37V76.7993H128.758ZM145.408 88.647L144.037 93.4282H142.736L143.703 88.647H145.408ZM7.41992 110.5C10.7773 110.5 12.9043 111.555 12.9043 113.366C12.9043 115.159 10.7773 116.213 7.41992 116.213C4.08008 116.213 1.95312 115.159 1.95312 113.366C1.95312 111.555 4.08008 110.5 7.41992 110.5ZM7.41992 111.555C4.92383 111.573 3.30664 112.258 3.32422 113.366C3.30664 114.456 4.92383 115.124 7.41992 115.124C9.91602 115.124 11.5156 114.456 11.5332 113.366C11.5156 112.258 9.91602 111.573 7.41992 111.555ZM12.7812 101.43V102.749C12.7812 104.014 12.7812 105.28 12.3418 106.897L10.9883 106.739C11.4102 105.122 11.4102 103.979 11.4102 102.749V102.555H2.05859V101.43H12.7812ZM14.5918 107.917V109.042H0.371094V107.917H6.25977V104.893H7.61328V107.917H14.5918ZM29.027 100.622V105.385H31.3824V106.545H29.027V112.065H27.6383V100.622H29.027ZM24.8082 101.834C24.8082 105.86 21.9254 108.848 17.4254 110.254L16.8277 109.147C20.5719 107.978 23.0152 105.746 23.3141 102.995H17.4781V101.834H24.8082ZM29.7477 114.754V115.915H19.2359V110.905H20.607V114.754H29.7477ZM46.6613 100.622V116.249H45.3254V100.622H46.6613ZM43.5148 100.956V115.458H42.1965V107.864H40.1926C40.0432 110.905 38.7512 112.803 36.8176 112.803C34.7785 112.803 33.4602 110.694 33.4602 107.372C33.4602 104.049 34.7785 101.94 36.8176 101.94C38.716 101.94 39.9992 103.777 40.175 106.721H42.1965V100.956H43.5148ZM36.8176 103.241C35.552 103.241 34.7434 104.823 34.7609 107.372C34.7434 109.903 35.552 111.502 36.8176 111.485C38.0832 111.502 38.8918 109.903 38.8918 107.372C38.8918 104.823 38.0832 103.241 36.8176 103.241ZM62.9281 102.924C62.9281 105.596 65.9867 107.987 68.7113 108.497L68.0785 109.657C65.723 109.112 63.2357 107.433 62.225 105.122C61.2143 107.424 58.7357 109.103 56.3715 109.657L55.7387 108.497C58.4457 107.969 61.4867 105.614 61.4867 102.924V101.729H62.9281V102.924ZM69.4496 112.979V114.122H55.141V112.979H69.4496ZM79.3496 102.186V104.383H83.1816V100.622H84.5527V116.284H83.1816V109.833H79.3496V112.293H72.2305V102.186H79.3496ZM73.6016 103.276V111.186H78.0137V103.276H73.6016ZM79.3496 108.69H83.1816V105.526H79.3496V108.69ZM102.31 107.196V108.303H88.0543V107.196H102.31ZM100.605 104.788V105.913H89.9527V101.167H100.447V102.274H91.3414V104.788H100.605ZM100.464 109.709V113.331H91.1832V114.948H100.939V116.073H89.8121V112.293H99.1109V110.782H89.777V109.709H100.464ZM108.712 101.834C110.839 101.852 112.368 103.671 112.597 106.598H116.095V100.622H117.466V116.284H116.095V107.741H112.614C112.447 110.799 110.892 112.715 108.712 112.715C106.409 112.715 104.792 110.606 104.792 107.284C104.792 103.961 106.409 101.852 108.712 101.834ZM108.712 103.065C107.165 103.083 106.111 104.735 106.111 107.284C106.111 109.833 107.165 111.485 108.712 111.485C110.241 111.485 111.314 109.833 111.314 107.284C111.314 104.735 110.241 103.083 108.712 103.065ZM138.602 100.622V104.454H140.957V105.596H138.602V109.499H137.231V100.622H138.602ZM134.33 101.641C134.313 105.579 131.553 108.391 126.93 109.657L126.368 108.549C130.217 107.512 132.564 105.429 132.854 102.784H127.071V101.641H134.33ZM138.602 110.219V116.038H128.705V110.219H138.602ZM130.077 111.362V114.913H137.231V111.362H130.077ZM155.797 100.622V109.938H154.408V105.842H151.262V104.7H154.408V100.622H155.797ZM150.611 110.43C153.863 110.43 155.85 111.485 155.85 113.331C155.85 115.176 153.863 116.231 150.611 116.249C147.359 116.231 145.373 115.176 145.373 113.331C145.373 111.485 147.359 110.43 150.611 110.43ZM150.611 111.502C148.221 111.502 146.727 112.188 146.744 113.331C146.727 114.456 148.221 115.141 150.611 115.141C153.002 115.141 154.479 114.456 154.479 113.331C154.479 112.188 153.002 111.502 150.611 111.502ZM148.273 103.487C148.273 105.526 149.838 107.459 152.123 108.25L151.402 109.358C149.645 108.725 148.282 107.416 147.623 105.79C146.938 107.626 145.487 109.094 143.633 109.797L142.912 108.69C145.232 107.846 146.885 105.737 146.885 103.504V102.924H143.352V101.764H151.771V102.924H148.273V103.487ZM166.418 100.903C169.898 100.903 171.937 101.852 171.937 103.592C171.937 105.368 169.898 106.317 166.418 106.334C162.937 106.317 160.88 105.368 160.88 103.592C160.88 101.852 162.937 100.903 166.418 100.903ZM166.418 101.94C163.816 101.94 162.304 102.573 162.322 103.592C162.304 104.682 163.816 105.28 166.418 105.28C169.002 105.28 170.531 104.682 170.531 103.592C170.531 102.573 169.002 101.94 166.418 101.94ZM173.537 107.389V108.514H159.298V107.389H173.537ZM171.709 109.868V113.366H162.427V114.983H172.183V116.073H161.056V112.346H170.355V110.922H161.021V109.868H171.709ZM185.602 101.202C187.94 101.219 189.645 102.625 189.645 104.665C189.645 106.704 187.94 108.11 185.602 108.11C183.229 108.11 181.542 106.704 181.542 104.665C181.542 102.625 183.229 101.219 185.602 101.202ZM185.602 102.362C184.038 102.362 182.878 103.311 182.895 104.665C182.878 106.036 184.038 106.985 185.602 106.985C187.149 106.985 188.309 106.036 188.309 104.665C188.309 103.311 187.149 102.362 185.602 102.362ZM194.075 100.622V108.655H192.704V100.622H194.075ZM194.075 109.411V113.172H185.304V114.93H194.637V116.038H183.95V112.135H192.704V110.518H183.915V109.411H194.075ZM204.748 101.641C208.018 101.641 210.461 103.346 210.461 105.93C210.461 108.532 208.018 110.237 204.748 110.219C201.479 110.237 199.036 108.532 199.036 105.93C199.036 103.346 201.479 101.641 204.748 101.641ZM204.748 102.766C202.235 102.749 200.336 104.067 200.354 105.93C200.336 107.829 202.235 109.094 204.748 109.094C207.245 109.094 209.125 107.829 209.125 105.93C209.125 104.067 207.245 102.749 204.748 102.766ZM211.938 113.014V114.174H197.629V113.014H211.938ZM222.471 102.256C222.453 106.774 220.818 110.94 215.176 113.7L214.402 112.592C217.329 111.186 219.14 109.384 220.133 107.266L214.701 107.793L214.473 106.563L220.572 106.159C220.854 105.289 221.021 104.366 221.082 103.399H215.264V102.256H222.471ZM227.006 100.622V116.249H225.617V100.622H227.006ZM243.181 105.368V106.475H232.476V101.202H233.847V105.368H243.181ZM244.834 108.602V109.727H230.525V108.602H244.834ZM243.269 114.719V115.862H232.388V111.327H233.759V114.719H243.269ZM260.432 102.573C260.415 104.506 263.052 106.088 265.811 106.44L265.266 107.565C262.744 107.169 260.388 105.921 259.536 104.084C258.692 105.921 256.346 107.169 253.805 107.565L253.296 106.44C256.055 106.088 258.639 104.506 258.639 102.573V102.538H253.718V101.395H265.389V102.538H260.432V102.573ZM265.073 114.754V115.915H254.262V111.467H255.651V114.754H265.073ZM266.708 109.059V110.202H252.417V109.059H258.85V106.44H260.204V109.059H266.708ZM282.303 100.622V116.249H280.967V108.127H278.84V115.458H277.522V100.956H278.84V106.95H280.967V100.622H282.303ZM273.496 104.893C273.496 107.758 274.674 110.272 276.907 111.415L276.08 112.487C274.498 111.625 273.417 110.079 272.864 108.163C272.328 110.342 271.229 112.047 269.577 113.014L268.715 111.959C270.965 110.729 272.161 108.057 272.161 104.893V103.645H269.084V102.485H276.397V103.645H273.496V104.893ZM286.982 114.93C286.367 114.93 285.84 114.42 285.857 113.788C285.84 113.172 286.367 112.663 286.982 112.663C287.598 112.663 288.107 113.172 288.107 113.788C288.107 114.42 287.598 114.93 286.982 114.93ZM13.2383 125.622V134.709H11.8848V125.622H13.2383ZM13.6426 135.817V136.907H9.00195C9.08105 138.392 11.542 139.851 14.1875 140.176L13.6777 141.249C11.3398 140.915 9.2041 139.816 8.28125 138.366C7.34961 139.851 5.15234 140.932 2.79688 141.249L2.30469 140.194C4.9502 139.904 7.49902 138.445 7.57812 136.907H2.95508V135.817H7.5957V134.305H8.9668V135.817H13.6426ZM2.55078 126.29V128.715H7.15625V126.29H8.52734V133.268H1.17969V126.29H2.55078ZM2.55078 132.161H7.15625V129.788H2.55078V132.161ZM29.6949 125.622V141.284H28.3062V125.622H29.6949ZM21.3805 126.834C23.7008 126.852 25.3707 128.961 25.3707 132.284C25.3707 135.606 23.7008 137.715 21.3805 137.715C19.0426 137.715 17.3902 135.606 17.3902 132.284C17.3902 128.961 19.0426 126.852 21.3805 126.834ZM21.3805 128.065C19.816 128.083 18.7262 129.735 18.7262 132.284C18.7262 134.833 19.816 136.485 21.3805 136.485C22.9449 136.485 24.0348 134.833 24.0348 132.284C24.0348 129.735 22.9449 128.083 21.3805 128.065ZM46.3484 126.483V127.608H40.7586V131.581C43.8172 131.581 45.6629 131.466 47.8074 131.071L47.9832 132.161C45.7508 132.618 43.8348 132.741 40.618 132.741H39.4051V126.483H46.3484ZM50.9012 125.622V129.049H53.2742V130.227H50.9012V133.918H49.5301V125.622H50.9012ZM51.5867 134.938V136.028H40.618V134.938H45.4168V133.426H46.7703V134.938H51.5867ZM46.0848 136.696C48.8094 136.696 50.4441 137.522 50.4617 138.999C50.4441 140.44 48.8094 141.249 46.0848 141.249C43.3426 141.249 41.7078 140.44 41.7078 138.999C41.7078 137.522 43.3426 136.696 46.0848 136.696ZM46.0848 137.715C44.2566 137.733 43.1316 138.19 43.1316 138.999C43.1316 139.807 44.2566 140.247 46.0848 140.229C47.9129 140.247 49.0203 139.807 49.0379 138.999C49.0203 138.19 47.9129 137.733 46.0848 137.715ZM67.7797 130.368V131.475H57.0746V126.202H58.4457V130.368H67.7797ZM69.432 133.602V134.727H55.1234V133.602H69.432ZM67.8676 139.719V140.862H56.9867V136.327H58.3578V139.719H67.8676ZM84.2223 135.448C87.4391 135.448 89.3727 136.502 89.3727 138.331C89.3727 140.176 87.4391 141.231 84.2223 141.249C81.0055 141.231 79.0367 140.176 79.0367 138.331C79.0367 136.502 81.0055 135.448 84.2223 135.448ZM84.2223 136.538C81.8668 136.555 80.4078 137.206 80.4254 138.331C80.4078 139.456 81.8668 140.124 84.2223 140.124C86.5953 140.124 88.0367 139.456 88.0367 138.331C88.0367 137.206 86.5953 136.555 84.2223 136.538ZM89.232 125.622V129.559H91.5875V130.737H89.232V135.026H87.8609V125.622H89.232ZM79.0367 126.606V128.997H83.5895V126.606H84.9605V133.813H77.6832V126.606H79.0367ZM79.0367 132.688H83.5895V130.086H79.0367V132.688ZM108.009 128.364V129.506H105.689V131.668H108.009V132.829H105.689V135.711H104.318V125.622H105.689V128.364H108.009ZM100.749 135.817C103.931 135.817 105.864 136.819 105.864 138.524C105.864 140.229 103.931 141.213 100.749 141.213C97.5676 141.213 95.6164 140.229 95.634 138.524C95.6164 136.819 97.5676 135.817 100.749 135.817ZM100.749 136.907C98.4113 136.907 96.9875 137.487 97.0051 138.524C96.9875 139.543 98.4113 140.141 100.749 140.141C103.087 140.141 104.493 139.543 104.493 138.524C104.493 137.487 103.087 136.907 100.749 136.907ZM102.823 127.415V128.504H93.507V127.415H97.4797V125.499H98.8508V127.415H102.823ZM98.1652 129.313C100.415 129.313 101.909 130.403 101.927 132.073C101.909 133.76 100.415 134.833 98.1652 134.833C95.8977 134.833 94.3859 133.76 94.4035 132.073C94.3859 130.403 95.8977 129.313 98.1652 129.313ZM98.1652 130.35C96.6887 130.368 95.7043 131.053 95.7219 132.073C95.7043 133.092 96.6887 133.76 98.1652 133.76C99.6242 133.76 100.609 133.092 100.626 132.073C100.609 131.053 99.6242 130.368 98.1652 130.35ZM112.495 138.647L111.124 143.428H109.823L110.79 138.647H112.495ZM12.6758 152.292V153.856C12.6758 155.825 12.6758 158.057 12.0957 161.45L10.6895 161.309C11.3223 158.11 11.3223 155.772 11.3223 153.856V153.434H1.90039V152.292H12.6758ZM14.5918 162.803V163.946H0.353516V162.803H14.5918ZM29.7125 150.639V159.903H28.3414V150.639H29.7125ZM24.7379 151.588V155.825H18.9723V157.987C21.7672 158.004 23.859 157.917 26.3902 157.495L26.5484 158.655C23.9293 159.059 21.7848 159.147 18.902 159.147H17.6363V154.735H23.3668V152.696H17.6012V151.588H24.7379ZM29.7125 160.747V166.038H19.5523V160.747H29.7125ZM20.9059 161.872V164.913H28.359V161.872H20.9059ZM38.5578 155.42C38.5402 157.934 40.3508 160.694 42.6184 161.766L41.8273 162.856C40.0695 162.003 38.5842 160.14 37.8898 158.022C37.1691 160.325 35.5959 162.346 33.8469 163.243L33.0031 162.153C35.2531 161.063 37.1867 158.092 37.2043 155.42V153.381H33.5656V152.239H42.0734V153.381H38.5578V155.42ZM45.3605 150.622V156.95H47.9797V158.127H45.3605V166.249H43.9895V150.622H45.3605ZM61.8172 150.622V156.985H64.3484V158.145H61.8172V166.249H60.4461V150.622H61.8172ZM57.7742 152.309C57.7742 156.739 55.7 160.764 50.6023 163.278L49.8289 162.188C53.8719 160.175 56.0691 157.169 56.3855 153.469H50.5496V152.309H57.7742ZM79.3496 152.186V156.352H83.1816V150.622H84.5527V166.284H83.1816V157.495H79.3496V162.293H72.2305V152.186H79.3496ZM73.6016 153.276V161.186H78.0137V153.276H73.6016ZM102.345 159.709V160.852H95.8238V166.249H94.4703V160.852H88.0367V159.709H102.345ZM100.482 151.5V157.583H89.8824V151.5H100.482ZM91.2359 152.625V156.493H99.1109V152.625H91.2359ZM117.15 155.368V156.475H106.445V151.202H107.816V155.368H117.15ZM118.802 158.602V159.727H104.493V158.602H118.802ZM117.238 164.719V165.862H106.357V161.327H107.728V164.719H117.238ZM131.676 155.42C131.659 157.934 133.469 160.694 135.737 161.766L134.946 162.856C133.188 162.003 131.703 160.14 131.008 158.022C130.287 160.325 128.714 162.346 126.965 163.243L126.121 162.153C128.371 161.063 130.305 158.092 130.323 155.42V153.381H126.684V152.239H135.192V153.381H131.676V155.42ZM138.479 150.622V156.95H141.098V158.127H138.479V166.249H137.108V150.622H138.479ZM155.744 150.622V166.284H154.373V150.622H155.744ZM150.998 152.081V157.635H145.162V161.327C147.755 161.327 150.066 161.212 152.861 160.764L153.002 161.924C150.119 162.381 147.746 162.487 145.057 162.487H143.756V156.51H149.609V153.223H143.721V152.081H150.998ZM167.156 152.204V162.276H159.949V152.204H167.156ZM161.285 153.311V161.151H165.785V153.311H161.285ZM171.392 150.622V156.862H174.011V158.057H171.392V166.249H170.021V150.622H171.392ZM187.849 150.622V156.809H190.468V157.969H187.849V166.284H186.478V150.622H187.849ZM183.736 152.151V153.293H177.812V161.204C180.642 161.204 182.646 161.072 184.966 160.641L185.142 161.836C182.698 162.276 180.642 162.364 177.671 162.364H176.441V152.151H183.736ZM12.5879 175.622V179.7H14.9258V180.86H12.5879V184.956H11.1992V175.622H12.5879ZM7.56055 185.254C10.7422 185.254 12.7109 186.362 12.7109 188.225C12.7109 190.124 10.7422 191.213 7.56055 191.213C4.36133 191.213 2.375 190.124 2.375 188.225C2.375 186.362 4.36133 185.254 7.56055 185.254ZM7.56055 186.397C5.20508 186.379 3.72852 187.083 3.72852 188.225C3.72852 189.385 5.20508 190.106 7.56055 190.106C9.89844 190.106 11.375 189.385 11.375 188.225C11.375 187.083 9.89844 186.379 7.56055 186.397ZM8.01758 176.817V177.959H2.42773V182.547C5.5918 182.53 7.41992 182.433 9.51172 182.002L9.65234 183.145C7.47266 183.584 5.5918 183.672 2.28711 183.672H1.07422V176.817H8.01758ZM29.7125 175.639V187.1H28.3414V175.639H29.7125ZM30.2047 189.754V190.915H19.6227V186.045H20.9937V189.754H30.2047ZM22.3473 178.083C22.3297 180.456 23.9645 182.6 26.2848 183.444L25.5641 184.551C23.7535 183.857 22.3473 182.451 21.6617 180.649C20.9674 182.565 19.5436 184.103 17.7242 184.833L16.9684 183.76C19.3414 182.846 20.941 180.543 20.941 178.083V176.518H22.3473V178.083ZM38.382 176.764C40.843 176.764 42.5832 178.258 42.5832 180.438C42.5832 182.618 40.843 184.112 38.382 184.112C35.9211 184.112 34.1457 182.618 34.1633 180.438C34.1457 178.258 35.9211 176.764 38.382 176.764ZM38.382 177.977C36.7121 177.977 35.4992 178.979 35.5168 180.438C35.4992 181.897 36.7121 182.899 38.382 182.899C40.0344 182.899 41.2297 181.897 41.2297 180.438C41.2297 178.979 40.0344 177.977 38.382 177.977ZM46.0812 175.622V191.284H44.7102V175.622H46.0812ZM33.3547 186.661C36.2375 186.661 40.2102 186.643 43.673 186.133L43.7785 187.153C40.2102 187.821 36.3605 187.838 33.548 187.838L33.3547 186.661ZM59.5707 176.202C61.9086 176.219 63.6137 177.625 63.6137 179.665C63.6137 181.704 61.9086 183.11 59.5707 183.11C57.1977 183.11 55.5102 181.704 55.5102 179.665C55.5102 177.625 57.1977 176.219 59.5707 176.202ZM59.5707 177.362C58.0062 177.362 56.8461 178.311 56.8637 179.665C56.8461 181.036 58.0062 181.985 59.5707 181.985C61.1176 181.985 62.2777 181.036 62.2777 179.665C62.2777 178.311 61.1176 177.362 59.5707 177.362ZM68.0434 175.622V183.655H66.6723V175.622H68.0434ZM68.0434 184.411V188.172H59.2719V189.93H68.6059V191.038H57.9184V187.135H66.6723V185.518H57.8832V184.411H68.0434ZM76.8184 178.153C76.8184 180.28 78.4355 182.231 80.7031 183.004L79.9473 184.094C78.2158 183.461 76.8535 182.169 76.168 180.543C75.5 182.38 74.1113 183.831 72.2832 184.534L71.5449 183.426C73.8828 182.547 75.4473 180.456 75.4648 178.047V176.43H76.8184V178.153ZM83.8145 175.622V179.7H86.1699V180.86H83.8145V185.131H82.4434V175.622H83.8145ZM78.8047 185.536C82.0215 185.536 83.9551 186.573 83.9551 188.366C83.9551 190.194 82.0215 191.213 78.8047 191.213C75.5879 191.213 73.6191 190.194 73.6191 188.366C73.6191 186.573 75.5879 185.536 78.8047 185.536ZM78.8047 186.643C76.4492 186.643 74.9902 187.293 75.0078 188.366C74.9902 189.473 76.4492 190.106 78.8047 190.124C81.1777 190.106 82.6191 189.473 82.6191 188.366C82.6191 187.293 81.1777 186.643 78.8047 186.643ZM102.293 183.866V184.991H88.0543V183.866H102.293ZM100.711 189.754V190.915H89.9V186.362H91.2887V189.754H100.711ZM95.1734 176.184C98.5309 176.167 100.693 177.327 100.693 179.278C100.693 181.229 98.5309 182.389 95.1734 182.389C91.7809 182.389 89.6363 181.229 89.6363 179.278C89.6363 177.327 91.7809 176.167 95.1734 176.184ZM95.1734 177.292C92.6598 177.292 91.0426 178.047 91.0602 179.278C91.0426 180.508 92.6598 181.264 95.1734 181.264C97.6695 181.264 99.2867 180.508 99.2867 179.278C99.2867 178.047 97.6695 177.292 95.1734 177.292ZM122.884 175.639V187.206H121.495V183.004H117.804V184.534H110.72V176.676H112.091V179.454H116.45V176.676H117.804V178.504H121.495V175.639H122.884ZM123.235 189.754V190.915H112.776V186.063H114.165V189.754H123.235ZM112.091 183.391H116.45V180.543H112.091V183.391ZM117.804 181.862H121.495V179.665H117.804V181.862ZM134.278 177.836C134.26 179.928 137.055 181.704 139.78 182.108L139.27 183.198C136.827 182.785 134.454 181.484 133.504 179.594C132.555 181.484 130.173 182.785 127.774 183.198L127.229 182.108C129.936 181.704 132.731 179.928 132.731 177.836V177.731H127.721V176.606H139.27V177.731H134.278V177.836ZM140.623 184.534V185.676H134.155V191.249H132.801V185.676H126.385V184.534H140.623ZM155.744 175.639V184.622H154.355V175.639H155.744ZM142.895 183.092C144.222 183.092 145.769 183.083 147.377 183.022V181.352H144.318V176.413H151.736V177.555H145.707V180.245H151.877V181.352H148.766V182.969C150.216 182.908 151.684 182.785 153.055 182.6L153.143 183.602C149.715 184.182 145.918 184.235 143.105 184.235L142.895 183.092ZM146.814 185.325V186.995H154.391V185.325H155.744V191.038H145.443V185.325H146.814ZM146.814 189.913H154.391V188.067H146.814V189.913ZM172.183 175.622V191.249H170.812V175.622H172.183ZM161.671 177.168V186.028C164.053 186.019 166.523 185.826 169.142 185.272L169.336 186.45C166.558 187.03 164.08 187.223 161.584 187.223H160.318V177.168H161.671ZM187.849 175.622V181.809H190.468V182.969H187.849V191.284H186.478V175.622H187.849ZM183.736 177.151V178.293H177.812V186.204C180.642 186.204 182.646 186.072 184.966 185.641L185.142 186.836C182.698 187.276 180.642 187.364 177.671 187.364H176.441V177.151H183.736ZM193.864 189.93C193.249 189.93 192.721 189.42 192.739 188.788C192.721 188.172 193.249 187.663 193.864 187.663C194.479 187.663 194.989 188.172 194.989 188.788C194.989 189.42 194.479 189.93 193.864 189.93ZM14.6445 234.586V235.747H8.12305V241.249H6.76953V235.747H0.335938V234.586H14.6445ZM7.45508 226.254C10.7422 226.254 12.957 227.573 12.957 229.7C12.957 231.774 10.7422 233.092 7.45508 233.092C4.16797 233.092 1.95312 231.774 1.95312 229.7C1.95312 227.573 4.16797 226.254 7.45508 226.254ZM7.45508 227.379C5.01172 227.379 3.35938 228.293 3.37695 229.7C3.35938 231.088 5.01172 231.985 7.45508 231.985C9.88086 231.985 11.5508 231.088 11.5508 229.7C11.5508 228.293 9.88086 227.379 7.45508 227.379ZM29.7125 225.622V241.284H28.3414V225.622H29.7125ZM24.9664 227.081V232.635H19.1305V236.327C21.7232 236.327 24.0348 236.212 26.8297 235.764L26.9703 236.924C24.0875 237.381 21.7145 237.487 19.025 237.487H17.7242V231.51H23.5777V228.223H17.6891V227.081H24.9664ZM45.9055 230.368V231.475H35.2004V226.202H36.5715V230.368H45.9055ZM47.5578 233.602V234.727H33.2492V233.602H47.5578ZM45.9934 239.719V240.862H35.1125V236.327H36.4836V239.719H45.9934ZM62.2602 226.641C65.5824 226.659 67.973 228.276 67.973 230.737C67.973 233.066 65.8988 234.613 62.9281 234.797V238.084H69.4496V239.245H55.141V238.084H61.5746V234.797C58.6127 234.604 56.5473 233.057 56.5473 230.737C56.5473 228.276 58.9379 226.659 62.2602 226.641ZM62.2602 227.784C59.7289 227.784 57.8832 228.979 57.8832 230.737C57.8832 232.547 59.7289 233.708 62.2602 233.725C64.7914 233.708 66.6371 232.547 66.6371 230.737C66.6371 228.979 64.7914 227.784 62.2602 227.784ZM85.9062 238.014V239.174H71.5977V238.014H85.9062ZM74.6738 226.747V229.665H82.7949V226.747H84.1484V234.885H73.2852V226.747H74.6738ZM74.6738 233.778H82.7949V230.772H74.6738V233.778ZM101.414 225.622V241.249H100.095V225.622H101.414ZM98.2496 226.008V240.44H96.9488V232.389H94.3121V231.264H96.9488V226.008H98.2496ZM92.6422 230.086C92.6422 232.793 93.8551 235.483 96.0172 236.731L95.1734 237.75C93.6354 236.828 92.5455 235.14 92.0094 233.145C91.4381 235.298 90.3043 237.135 88.7398 238.12L87.8609 237.083C90.0406 235.782 91.3063 232.934 91.3063 230.086V228.61H88.3004V227.467H95.5074V228.61H92.6422V230.086ZM118.802 232.881V233.971H104.493V232.881H118.802ZM117.009 235.219V238.542H107.622V240.036H117.519V241.038H106.234V237.592H115.638V236.256H106.216V235.219H117.009ZM116.956 226.096V229.331H107.728V230.702H117.238V231.704H106.357V228.381H115.568V227.098H106.304V226.096H116.956ZM140.623 233.918V235.043H126.368V233.918H132.801V232.372H128.266V226.079H138.848V227.204H129.655V228.663H138.426V229.717H129.655V231.264H138.936V232.372H134.172V233.918H140.623ZM133.504 236.221C136.932 236.204 138.866 237.083 138.883 238.717C138.866 240.352 136.932 241.213 133.504 241.213C130.041 241.213 128.108 240.352 128.108 238.717C128.108 237.083 130.041 236.204 133.504 236.221ZM133.504 237.258C130.92 237.258 129.479 237.786 129.496 238.717C129.479 239.667 130.92 240.159 133.504 240.141C136.053 240.159 137.495 239.667 137.495 238.717C137.495 237.786 136.053 237.258 133.504 237.258ZM150.646 228.329V229.454H142.807V228.329H146.059V226.096H147.43V228.329H150.646ZM146.727 230.508C148.695 230.508 150.102 231.985 150.119 234.059C150.102 236.151 148.695 237.645 146.727 237.645C144.775 237.645 143.369 236.151 143.369 234.059C143.369 231.985 144.775 230.508 146.727 230.508ZM146.727 231.668C145.496 231.686 144.6 232.688 144.6 234.059C144.6 235.448 145.496 236.45 146.727 236.432C147.975 236.45 148.889 235.448 148.889 234.059C148.889 232.688 147.975 231.686 146.727 231.668ZM156.148 225.622V241.249H154.83V233.356H152.756V240.475H151.455V226.008H152.756V232.213H154.83V225.622H156.148ZM13.3086 250.639V262.557H11.9199V259.2H9.21289V258.075H11.9199V255.948H9.21289V254.805H11.9199V250.639H13.3086ZM9.21289 252.555V253.68H0.371094V252.555H4.16797V250.622H5.53906V252.555H9.21289ZM4.83594 254.542C6.92773 254.542 8.4043 255.737 8.4043 257.53C8.4043 259.305 6.92773 260.518 4.83594 260.518C2.74414 260.518 1.28516 259.305 1.30273 257.53C1.28516 255.737 2.74414 254.542 4.83594 254.542ZM4.83594 255.631C3.5 255.649 2.58594 256.405 2.58594 257.53C2.58594 258.655 3.5 259.411 4.83594 259.411C6.17188 259.411 7.08594 258.655 7.10352 257.53C7.08594 256.405 6.17188 255.649 4.83594 255.631ZM13.6602 264.754V265.915H3.20117V261.502H4.58984V264.754H13.6602ZM29.6949 250.622V258.725H28.3414V250.622H29.6949ZM29.7125 259.516V263.26H20.941V264.948H30.275V266.073H19.5875V262.188H28.3414V260.624H19.5523V259.516H29.7125ZM22.3473 252.274C22.3297 254.489 24.0172 256.44 26.3375 257.196L25.652 258.268C23.8238 257.644 22.3648 256.334 21.6617 254.647C20.9586 256.466 19.4908 257.899 17.6363 258.567L16.9156 257.477C19.2711 256.651 20.941 254.577 20.941 252.274V251.079H22.3473V252.274ZM41.9328 252.362V253.17C41.9152 254.401 41.9152 256.475 41.4758 259.375L40.0871 259.252C40.509 256.633 40.5441 254.735 40.5441 253.487H33.9875V252.362H41.9328ZM37.8371 256.827V261.573C39.5686 261.511 41.3439 261.397 42.9699 261.204L43.0402 262.241C39.7531 262.75 36.0793 262.821 33.2844 262.803L33.1086 261.661C34.1369 261.652 35.2795 261.643 36.4836 261.608V256.827H37.8371ZM45.3254 250.622V257.161H47.8566V258.356H45.3254V266.249H43.9543V250.622H45.3254ZM61.5746 251.395V251.817C61.5746 252.634 61.5746 254.383 60.977 256.774H65.8461C66.2943 254.875 66.3734 253.478 66.391 252.52H62.7523V251.395H67.727V251.975C67.727 252.907 67.727 254.524 67.2523 256.774H69.432V257.899H62.9105V260.553H67.6039V266.038H56.9164V260.553H61.557V257.899H55.141V256.774H59.6059C60.0805 254.884 60.1859 253.469 60.2211 252.52H56.5297V251.395H61.5746ZM58.2699 261.661V264.913H66.2328V261.661H58.2699ZM76.7129 251.764C79.1738 251.764 80.9141 253.258 80.9141 255.438C80.9141 257.618 79.1738 259.112 76.7129 259.112C74.252 259.112 72.4766 257.618 72.4941 255.438C72.4766 253.258 74.252 251.764 76.7129 251.764ZM76.7129 252.977C75.043 252.977 73.8301 253.979 73.8477 255.438C73.8301 256.897 75.043 257.899 76.7129 257.899C78.3652 257.899 79.5605 256.897 79.5605 255.438C79.5605 253.979 78.3652 252.977 76.7129 252.977ZM84.4121 250.622V266.284H83.041V250.622H84.4121ZM71.6855 261.661C74.5684 261.661 78.541 261.643 82.0039 261.133L82.1094 262.153C78.541 262.821 74.6914 262.838 71.8789 262.838L71.6855 261.661ZM106.427 250.639V260.026H105.038V257.917H100.89V256.774H105.038V254.665H101.048C100.02 257.178 97.6027 258.998 94.2629 259.991L93.6828 258.901C97.4621 257.776 99.8088 255.667 100.099 252.959H94.4738V251.799H101.593C101.593 252.415 101.523 253.003 101.4 253.557H105.038V250.639H106.427ZM101.312 260.184C104.476 260.184 106.515 261.309 106.515 263.172C106.515 265.053 104.476 266.178 101.312 266.178C98.1125 266.178 96.091 265.053 96.091 263.172C96.091 261.309 98.1125 260.184 101.312 260.184ZM101.312 261.292C98.9563 261.274 97.4445 261.995 97.4445 263.172C97.4445 264.35 98.9563 265.053 101.312 265.053C103.632 265.053 105.126 264.35 105.144 263.172C105.126 261.995 103.632 261.274 101.312 261.292ZM123.305 250.622V266.249H121.987V250.622H123.305ZM120.141 251.043V265.458H118.823V260.043H115.923V258.901H118.823V256.124H116.186C115.422 258.769 113.708 261.107 110.755 262.874L109.911 261.872C113.312 259.859 115.017 257.038 115.29 253.768H110.614V252.625H116.661C116.661 253.425 116.591 254.216 116.45 254.981H118.823V251.043H120.141ZM139.78 250.622V266.249H138.444V250.622H139.78ZM136.633 250.956V265.458H135.315V257.864H133.311C133.162 260.905 131.87 262.803 129.936 262.803C127.897 262.803 126.579 260.694 126.579 257.372C126.579 254.049 127.897 251.94 129.936 251.94C131.834 251.94 133.118 253.777 133.293 256.721H135.315V250.956H136.633ZM129.936 253.241C128.67 253.241 127.862 254.823 127.879 257.372C127.862 259.903 128.67 261.502 129.936 261.485C131.202 261.502 132.01 259.903 132.01 257.372C132.01 254.823 131.202 253.241 129.936 253.241ZM153.55 253.522C153.55 255.596 155.08 257.495 157.4 258.303L156.697 259.375C154.913 258.743 153.55 257.459 152.882 255.842C152.214 257.618 150.782 258.998 148.945 259.674L148.207 258.602C150.545 257.776 152.179 255.754 152.197 253.522V252.854H148.629V251.729H157.066V252.854H153.55V253.522ZM160.476 250.622V254.752H162.832V255.93H160.476V260.043H159.105V250.622H160.476ZM160.476 260.87V266.249H159.105V261.995H150.246V260.87H160.476ZM178.954 258.866V259.991H164.716V258.866H178.954ZM177.372 264.754V265.915H166.562V261.362H167.95V264.754H177.372ZM171.835 251.184C175.193 251.167 177.355 252.327 177.355 254.278C177.355 256.229 175.193 257.389 171.835 257.389C168.443 257.389 166.298 256.229 166.298 254.278C166.298 252.327 168.443 251.167 171.835 251.184ZM171.835 252.292C169.321 252.292 167.704 253.047 167.722 254.278C167.704 255.508 169.321 256.264 171.835 256.264C174.331 256.264 175.948 255.508 175.948 254.278C175.948 253.047 174.331 252.292 171.835 252.292ZM200.829 258.725V259.868H186.573V258.725H200.829ZM199.141 256.211V257.319H188.471V251.043H199.053V252.151H189.86V253.592H198.631V254.665H189.86V256.211H199.141ZM199.088 261.292V266.038H188.33V261.292H199.088ZM189.702 262.399V264.913H197.735V262.399H189.702ZM210.166 250.903C213.646 250.903 215.686 251.852 215.686 253.592C215.686 255.368 213.646 256.317 210.166 256.334C206.686 256.317 204.629 255.368 204.629 253.592C204.629 251.852 206.686 250.903 210.166 250.903ZM210.166 251.94C207.564 251.94 206.053 252.573 206.07 253.592C206.053 254.682 207.564 255.28 210.166 255.28C212.75 255.28 214.279 254.682 214.279 253.592C214.279 252.573 212.75 251.94 210.166 251.94ZM217.285 257.389V258.514H203.047V257.389H217.285ZM215.457 259.868V263.366H206.176V264.983H215.932V266.073H204.805V262.346H214.104V260.922H204.77V259.868H215.457ZM232.814 252.045V259.235H225.589V252.045H232.814ZM226.943 253.17V258.127H231.478V253.17H226.943ZM237.138 250.622V255.385H239.493V256.545H237.138V262.083H235.767V250.622H237.138ZM237.859 264.754V265.915H227.364V260.993H228.718V264.754H237.859ZM255.634 257.196V258.303H241.378V257.196H255.634ZM253.929 254.788V255.913H243.276V251.167H253.77V252.274H244.665V254.788H253.929ZM253.788 259.709V263.331H244.507V264.948H254.262V266.073H243.136V262.293H252.434V260.782H243.1V259.709H253.788ZM270.368 252.204V253.768C270.35 255.684 270.35 257.829 269.788 260.975L268.381 260.817C268.979 257.829 268.979 255.631 268.979 253.768V253.346H259.346V252.204H270.368ZM272.073 262.891V264.034H257.834V262.891H263.424V257.301H264.778V262.891H272.073ZM276.857 263.647L275.486 268.428H274.186L275.152 263.647H276.857ZM12.6758 277.292V278.856C12.6758 280.825 12.6758 283.057 12.0957 286.45L10.6895 286.309C11.3223 283.11 11.3223 280.772 11.3223 278.856V278.434H1.90039V277.292H12.6758ZM14.5918 287.803V288.946H0.353516V287.803H14.5918ZM36.466 283.725V284.868H22.2102V283.725H36.466ZM34.7785 281.211V282.319H24.1086V276.043H34.6906V277.151H25.4973V278.592H34.2687V279.665H25.4973V281.211H34.7785ZM34.7258 286.292V291.038H23.968V286.292H34.7258ZM25.3391 287.399V289.913H33.3723V287.399H25.3391ZM49.3402 279.823C49.3402 282.583 51.1684 285.413 53.3832 286.502L52.5395 287.61C50.8168 286.705 49.3754 284.859 48.6898 282.688C47.9867 285 46.5102 286.968 44.7523 287.909L43.8734 286.801C46.1586 285.676 47.9691 282.67 47.9867 279.823V276.975H49.3402V279.823ZM56.1957 275.622V281.967H58.8148V283.163H56.1957V291.249H54.8246V275.622H56.1957ZM73.4434 275.622V291.284H72.0547V275.622H73.4434ZM65.1289 276.834C67.4492 276.852 69.1191 278.961 69.1191 282.284C69.1191 285.606 67.4492 287.715 65.1289 287.715C62.791 287.715 61.1387 285.606 61.1387 282.284C61.1387 278.961 62.791 276.852 65.1289 276.834ZM65.1289 278.065C63.5645 278.083 62.4746 279.735 62.4746 282.284C62.4746 284.833 63.5645 286.485 65.1289 286.485C66.6934 286.485 67.7832 284.833 67.7832 282.284C67.7832 279.735 66.6934 278.083 65.1289 278.065ZM91.3238 288.155V289.315H77.0152V288.155H83.4488V285.202H78.8082V280.385H88.1598V277.924H78.773V276.782H89.5133V281.51H80.1793V284.059H89.8824V285.202H84.8023V288.155H91.3238ZM112.302 276.782V277.819H99.6277V276.782H105.323V275.375H106.694V276.782H112.302ZM106.009 278.417C109.296 278.417 111.071 279.102 111.071 280.473C111.071 281.862 109.296 282.53 106.009 282.547C102.721 282.53 100.929 281.862 100.929 280.473C100.929 279.102 102.721 278.417 106.009 278.417ZM106.009 279.383C103.636 279.366 102.387 279.752 102.405 280.473C102.387 281.211 103.636 281.581 106.009 281.581C108.364 281.581 109.612 281.211 109.63 280.473C109.612 279.752 108.364 279.366 106.009 279.383ZM113.128 283.444V284.516H98.8895V283.444H113.128ZM111.3 285.588V288.735H102.054V290.053H111.774V291.073H100.647V287.768H109.911V286.59H100.612V285.588H111.3ZM128.284 275.622V291.284H126.912V282.793H123.871V281.633H126.912V275.622H128.284ZM122.922 277.081V282.547H117.315V286.344C120.004 286.344 121.955 286.265 124.241 285.834L124.346 286.995C121.991 287.417 119.969 287.504 117.139 287.522H115.944V281.405H121.586V278.223H115.891V277.081H122.922ZM144.424 283.145V284.288H133.631V277.081H144.266V278.223H135.002V283.145H144.424ZM146.111 287.961V289.122H131.803V287.961H146.111ZM160.898 280.368V281.475H150.193V276.202H151.564V280.368H160.898ZM162.55 283.602V284.727H148.242V283.602H162.55ZM160.986 289.719V290.862H150.105V286.327H151.476V289.719H160.986ZM182.35 275.622V279.454H184.706V280.596H182.35V284.499H180.979V275.622H182.35ZM178.079 276.641C178.061 280.579 175.302 283.391 170.679 284.657L170.116 283.549C173.966 282.512 176.312 280.429 176.602 277.784H170.819V276.641H178.079ZM182.35 285.219V291.038H172.454V285.219H182.35ZM173.825 286.362V289.913H180.979V286.362H173.825ZM198.807 275.622V279.594H201.163V280.772H198.807V284.797H197.436V275.622H198.807ZM194.518 276.624C194.518 280.579 191.758 283.391 187.135 284.622L186.573 283.549C190.405 282.512 192.769 280.42 193.059 277.766H187.276V276.624H194.518ZM198.807 285.518V291.249H197.436V286.643H188.577V285.518H198.807ZM210.166 275.903C213.646 275.903 215.686 276.852 215.686 278.592C215.686 280.368 213.646 281.317 210.166 281.334C206.686 281.317 204.629 280.368 204.629 278.592C204.629 276.852 206.686 275.903 210.166 275.903ZM210.166 276.94C207.564 276.94 206.053 277.573 206.07 278.592C206.053 279.682 207.564 280.28 210.166 280.28C212.75 280.28 214.279 279.682 214.279 278.592C214.279 277.573 212.75 276.94 210.166 276.94ZM217.285 282.389V283.514H203.047V282.389H217.285ZM215.457 284.868V288.366H206.176V289.983H215.932V291.073H204.805V287.346H214.104V285.922H204.77V284.868H215.457ZM12.5879 300.622V304.7H14.9258V305.86H12.5879V309.956H11.1992V300.622H12.5879ZM7.56055 310.254C10.7422 310.254 12.7109 311.362 12.7109 313.225C12.7109 315.124 10.7422 316.213 7.56055 316.213C4.36133 316.213 2.375 315.124 2.375 313.225C2.375 311.362 4.36133 310.254 7.56055 310.254ZM7.56055 311.397C5.20508 311.379 3.72852 312.083 3.72852 313.225C3.72852 314.385 5.20508 315.106 7.56055 315.106C9.89844 315.106 11.375 314.385 11.375 313.225C11.375 312.083 9.89844 311.379 7.56055 311.397ZM8.01758 301.817V302.959H2.42773V307.547C5.5918 307.53 7.41992 307.433 9.51172 307.002L9.65234 308.145C7.47266 308.584 5.5918 308.672 2.28711 308.672H1.07422V301.817H8.01758ZM29.7125 300.639V312.1H28.3414V300.639H29.7125ZM30.2047 314.754V315.915H19.6227V311.045H20.9937V314.754H30.2047ZM22.3473 303.083C22.3297 305.456 23.9645 307.6 26.2848 308.444L25.5641 309.551C23.7535 308.857 22.3473 307.451 21.6617 305.649C20.9674 307.565 19.5436 309.103 17.7242 309.833L16.9684 308.76C19.3414 307.846 20.941 305.543 20.941 303.083V301.518H22.3473V303.083ZM38.382 301.764C40.843 301.764 42.5832 303.258 42.5832 305.438C42.5832 307.618 40.843 309.112 38.382 309.112C35.9211 309.112 34.1457 307.618 34.1633 305.438C34.1457 303.258 35.9211 301.764 38.382 301.764ZM38.382 302.977C36.7121 302.977 35.4992 303.979 35.5168 305.438C35.4992 306.897 36.7121 307.899 38.382 307.899C40.0344 307.899 41.2297 306.897 41.2297 305.438C41.2297 303.979 40.0344 302.977 38.382 302.977ZM46.0812 300.622V316.284H44.7102V300.622H46.0812ZM33.3547 311.661C36.2375 311.661 40.2102 311.643 43.673 311.133L43.7785 312.153C40.2102 312.821 36.3605 312.838 33.548 312.838L33.3547 311.661ZM62.2074 310.5C65.5648 310.5 67.6918 311.555 67.6918 313.366C67.6918 315.159 65.5648 316.213 62.2074 316.213C58.8676 316.213 56.7406 315.159 56.7406 313.366C56.7406 311.555 58.8676 310.5 62.2074 310.5ZM62.2074 311.555C59.7113 311.573 58.0941 312.258 58.1117 313.366C58.0941 314.456 59.7113 315.124 62.2074 315.124C64.7035 315.124 66.3031 314.456 66.3207 313.366C66.3031 312.258 64.7035 311.573 62.2074 311.555ZM67.5687 301.43V302.749C67.5687 304.014 67.5687 305.28 67.1293 306.897L65.7758 306.739C66.1977 305.122 66.1977 303.979 66.1977 302.749V302.555H56.8461V301.43H67.5687ZM69.3793 307.917V309.042H55.1586V307.917H61.0473V304.893H62.4008V307.917H69.3793ZM83.8145 300.622V305.385H86.1699V306.545H83.8145V312.065H82.4258V300.622H83.8145ZM79.5957 301.834C79.5957 305.86 76.7129 308.848 72.2129 310.254L71.6152 309.147C75.3594 307.978 77.8027 305.746 78.1016 302.995H72.2656V301.834H79.5957ZM84.5352 314.754V315.915H74.0234V310.905H75.3945V314.754H84.5352ZM105.689 300.622V305.385H108.044V306.545H105.689V312.153H104.318V300.622H105.689ZM106.409 314.754V315.915H95.9152V310.958H97.2688V314.754H106.409ZM97.8664 301.729C100.204 301.729 101.962 303.311 101.98 305.579C101.962 307.846 100.204 309.428 97.8664 309.428C95.5285 309.428 93.7531 307.846 93.7707 305.579C93.7531 303.311 95.5285 301.729 97.8664 301.729ZM97.8664 302.942C96.3195 302.942 95.1066 304.032 95.1242 305.579C95.1066 307.125 96.3195 308.215 97.8664 308.215C99.4484 308.215 100.626 307.125 100.626 305.579C100.626 304.032 99.4484 302.942 97.8664 302.942ZM123.323 300.622V316.249H121.987V300.622H123.323ZM120.177 300.956V315.458H118.858V307.864H116.854C116.705 310.905 115.413 312.803 113.479 312.803C111.44 312.803 110.122 310.694 110.122 307.372C110.122 304.049 111.44 301.94 113.479 301.94C115.378 301.94 116.661 303.777 116.837 306.721H118.858V300.956H120.177ZM113.479 303.241C112.214 303.241 111.405 304.823 111.423 307.372C111.405 309.903 112.214 311.502 113.479 311.485C114.745 311.502 115.554 309.903 115.554 307.372C115.554 304.823 114.745 303.241 113.479 303.241ZM139.555 302.186V306.352H143.387V300.622H144.758V316.284H143.387V307.495H139.555V312.293H132.436V302.186H139.555ZM133.807 303.276V311.186H138.219V303.276H133.807ZM162.498 307.231V308.356H156.046V309.903H160.67V313.401H151.388V314.983H161.144V316.073H150.017V312.364H159.316V310.975H149.982V309.903H154.675V308.356H148.259V307.231H162.498ZM160.652 301.149V305.913H150.105V301.149H160.652ZM151.476 302.256V304.805H159.281V302.256H151.476ZM178.093 300.622V316.249H176.775V300.622H178.093ZM174.806 301.043V315.458H173.488V308.163H170.183C169.225 309.982 167.722 311.59 165.542 312.874L164.734 311.872C168.135 309.859 169.84 307.038 170.095 303.768H165.402V302.625H171.466C171.457 304.164 171.211 305.649 170.693 307.038H173.488V301.043H174.806ZM198.807 300.622V304.629H201.163V305.807H198.807V309.709H197.436V300.622H198.807ZM190.299 310.395V312.065H197.436V310.395H198.807V316.038H188.928V310.395H190.299ZM190.299 314.93H197.436V313.155H190.299V314.93ZM195.942 302.239V303.381H186.625V302.239H190.598V300.481H191.969V302.239H195.942ZM191.284 304.102C193.534 304.102 195.028 305.174 195.045 306.844C195.028 308.514 193.534 309.586 191.284 309.586C189.016 309.586 187.504 308.514 187.522 306.844C187.504 305.174 189.016 304.102 191.284 304.102ZM191.284 305.174C189.807 305.157 188.823 305.842 188.84 306.844C188.823 307.864 189.807 308.532 191.284 308.532C192.743 308.532 193.727 307.864 193.745 306.844C193.727 305.842 192.743 305.157 191.284 305.174ZM215.932 300.622V316.249H214.561V300.622H215.932ZM205.42 302.168V311.028C207.802 311.019 210.271 310.826 212.891 310.272L213.084 311.45C210.307 312.03 207.828 312.223 205.332 312.223H204.066V302.168H205.42ZM231.597 300.622V306.809H234.216V307.969H231.597V316.284H230.226V300.622H231.597ZM227.484 302.151V303.293H221.56V311.204C224.39 311.204 226.394 311.072 228.714 310.641L228.89 311.836C226.447 312.276 224.39 312.364 221.42 312.364H220.189V302.151H227.484ZM237.613 314.93C236.997 314.93 236.47 314.42 236.488 313.788C236.47 313.172 236.997 312.663 237.613 312.663C238.228 312.663 238.738 313.172 238.738 313.788C238.738 314.42 238.228 314.93 237.613 314.93Z" fill="#1A1A1A"/>
</svg>
