<svg width="432" height="161" viewBox="0 0 432 161" fill="none" xmlns="http://www.w3.org/2000/svg">
<path d="M2.16122 2.10156L5.07333 10.4004H5.18271L8.10849 2.10156H9.40732L5.78427 12H4.48544L0.862396 2.10156H2.16122ZM11.4472 12V2.10156H17.4491V3.19531H12.6776V6.50391H17.1347V7.58398H12.6776V10.9062H17.5175V12H11.4472ZM21.321 2.10156V12H20.0905V2.10156H21.321ZM24.2085 12V2.10156H25.439V10.9062H30.0327V12H24.2085ZM32.3733 12V2.10156H35.7366C38.0608 2.10156 39.1136 3.38672 39.1136 5.15039C39.1136 6.45605 38.5257 7.48828 37.2679 7.92578L39.4964 12H38.0608L35.9964 8.14453L35.7503 8.1582H33.6038V12H32.3733ZM33.6038 7.03711H35.6956C37.2679 7.03711 37.8968 6.32617 37.8968 5.15039C37.8968 3.96094 37.2679 3.19531 35.6819 3.19531H33.6038V7.03711ZM41.5909 12V2.10156H47.5929V3.19531H42.8214V6.50391H47.2784V7.58398H42.8214V10.9062H47.6612V12H41.5909ZM50.6718 12H49.3866L53.0097 2.10156H54.3085L57.9315 12H56.6327L55.6483 9.21094H51.6698L50.6718 12ZM52.039 8.13086H55.2655L53.6933 3.70117H53.6112L52.039 8.13086ZM59.9714 12V2.10156H61.2019V10.9062H65.7956V12H59.9714ZM78.6089 7.36523V8.24023H67.5347V7.36523H78.6089ZM77.3784 11.9453V12.8477H68.9702V9.30664H70.0503V11.9453H77.3784ZM73.0718 1.39062C75.6831 1.37695 77.3647 2.2793 77.3647 3.79688C77.3647 5.31445 75.6831 6.2168 73.0718 6.2168C70.4331 6.2168 68.7651 5.31445 68.7651 3.79688C68.7651 2.2793 70.4331 1.37695 73.0718 1.39062ZM73.0718 2.25195C71.1167 2.25195 69.8589 2.83984 69.8726 3.79688C69.8589 4.75391 71.1167 5.3418 73.0718 5.3418C75.0132 5.3418 76.271 4.75391 76.271 3.79688C76.271 2.83984 75.0132 2.25195 73.0718 2.25195ZM94.5694 0.953125V8.02148H93.5167V0.953125H94.5694ZM94.8839 8.88281V9.73047H91.2745C91.336 10.8857 93.2501 12.0205 95.3077 12.2734L94.9112 13.1074C93.0929 12.8477 91.4317 11.9932 90.714 10.8652C89.9893 12.0205 88.2804 12.8613 86.4483 13.1074L86.0655 12.2871C88.1231 12.0615 90.1056 10.9268 90.1671 9.73047H86.5714V8.88281H90.1808V7.70703H91.2472V8.88281H94.8839ZM86.2569 1.47266V3.35938H89.839V1.47266H90.9054V6.90039H85.1905V1.47266H86.2569ZM86.2569 6.03906H89.839V4.19336H86.2569V6.03906ZM104.088 2.30664V2.93555C104.074 3.89258 104.074 5.50586 103.732 7.76172L102.652 7.66602C102.98 5.62891 103.008 4.15234 103.008 3.18164H97.9081V2.30664H104.088ZM100.902 5.7793V9.4707C102.249 9.42285 103.63 9.33398 104.894 9.18359L104.949 9.99023C102.392 10.3867 99.535 10.4414 97.3612 10.4277L97.2245 9.53906C98.0243 9.53223 98.913 9.52539 99.8495 9.49805V5.7793H100.902ZM106.726 0.953125V6.03906H108.695V6.96875H106.726V13.1074H105.66V0.953125H106.726ZM123.945 2.25195V3.46875C123.945 5 123.945 6.73633 123.494 9.375L122.4 9.26562C122.892 6.77734 122.892 4.95898 122.892 3.46875V3.14062H115.564V2.25195H123.945ZM125.435 10.4277V11.3164H114.361V10.4277H125.435ZM137.196 0.966797V8.17188H136.129V0.966797H137.196ZM133.326 1.70508V5H128.842V6.68164C131.016 6.69531 132.643 6.62695 134.612 6.29883L134.735 7.20117C132.698 7.51562 131.03 7.58398 128.787 7.58398H127.803V4.15234H132.26V2.56641H127.776V1.70508H133.326ZM137.196 8.82812V12.9434H129.293V8.82812H137.196ZM130.346 9.70312V12.0684H136.143V9.70312H130.346ZM144.075 4.68555C144.062 6.64062 145.47 8.78711 147.233 9.62109L146.618 10.4688C145.251 9.80566 144.096 8.35645 143.556 6.70898C142.995 8.5 141.772 10.0723 140.411 10.7695L139.755 9.92188C141.505 9.07422 143.009 6.76367 143.023 4.68555V3.09961H140.192V2.21094H146.81V3.09961H144.075V4.68555ZM149.366 0.953125V5.875H151.403V6.79102H149.366V13.1074H148.3V0.953125H149.366ZM162.166 0.953125V5.90234H164.135V6.80469H162.166V13.1074H161.1V0.953125H162.166ZM159.021 2.26562C159.021 5.71094 157.408 8.8418 153.443 10.7969L152.842 9.94922C155.986 8.38379 157.695 6.0459 157.941 3.16797H153.402V2.26562H159.021ZM175.912 2.06055V7.65234H170.292V2.06055H175.912ZM171.345 2.93555V6.79102H174.873V2.93555H171.345ZM179.275 0.953125V4.6582H181.107V5.56055H179.275V9.86719H178.208V0.953125H179.275ZM179.835 11.9453V12.8477H171.673V9.01953H172.726V11.9453H179.835ZM193.66 6.06641V6.92773H182.573V6.06641H193.66ZM192.334 4.19336V5.06836H184.049V1.37695H192.211V2.23828H185.129V4.19336H192.334ZM192.225 8.02148V10.8379H185.006V12.0957H192.594V12.9707H183.94V10.0312H191.172V8.85547H183.912V8.02148H192.225ZM198.64 1.89648C200.294 1.91016 201.483 3.3252 201.661 5.60156H204.382V0.953125H205.448V13.1348H204.382V6.49023H201.675C201.545 8.86914 200.335 10.3594 198.64 10.3594C196.849 10.3594 195.591 8.71875 195.591 6.13477C195.591 3.55078 196.849 1.91016 198.64 1.89648ZM198.64 2.85352C197.437 2.86719 196.616 4.15234 196.616 6.13477C196.616 8.11719 197.437 9.40234 198.64 9.40234C199.829 9.40234 200.663 8.11719 200.663 6.13477C200.663 4.15234 199.829 2.86719 198.64 2.85352ZM218.549 0.953125V13.1074H217.496V6.81836H215.746V12.4785H214.734V1.22656H215.746V5.90234H217.496V0.953125H218.549ZM209.853 2.44336V9.00586C211.063 8.99219 212.349 8.91016 213.832 8.60938L213.969 9.56641C212.273 9.86719 210.879 9.96289 209.539 9.96289H208.787V2.44336H209.853ZM230.801 4.64453V5.50586H222.475V1.4043H223.542V4.64453H230.801ZM232.087 7.16016V8.03516H220.958V7.16016H232.087ZM230.87 11.918V12.8066H222.407V9.2793H223.473V11.918H230.87ZM242.127 3.30469C242.127 4.61719 243.412 5.79297 245.19 6.2168L244.711 7.05078C243.276 6.68848 242.155 5.86816 241.621 4.79492C241.088 5.98438 239.919 6.89355 238.436 7.29688L237.944 6.46289C239.748 5.9707 241.075 4.75391 241.075 3.30469V3.09961H238.326V2.21094H241.075V0.912109H242.155V2.21094H244.875V3.09961H242.127V3.30469ZM247.487 0.953125V3.66016H249.319V4.57617H247.487V7.37891H246.42V0.953125H247.487ZM247.487 7.98047V10.8242H240.815V12.1094H247.938V12.9707H239.762V10.0039H246.42V8.82812H239.735V7.98047H247.487ZM262.159 5.80664V6.70898H260.191V13.1074H259.124V0.953125H260.191V5.80664H262.159ZM252.357 2.15625V9.11523C254.134 9.1084 255.945 8.97168 257.948 8.55469L258.085 9.4707C255.993 9.89453 254.107 10.0176 252.261 10.0176H251.29V2.15625H252.357ZM267.562 1.8418C269.476 1.8418 270.83 3.00391 270.83 4.69922C270.83 6.39453 269.476 7.55664 267.562 7.55664C265.648 7.55664 264.267 6.39453 264.281 4.69922C264.267 3.00391 265.648 1.8418 267.562 1.8418ZM267.562 2.78516C266.264 2.78516 265.32 3.56445 265.334 4.69922C265.32 5.83398 266.264 6.61328 267.562 6.61328C268.848 6.61328 269.777 5.83398 269.777 4.69922C269.777 3.56445 268.848 2.78516 267.562 2.78516ZM273.551 0.953125V13.1348H272.484V0.953125H273.551ZM263.652 9.53906C265.894 9.53906 268.984 9.52539 271.678 9.12891L271.76 9.92188C268.984 10.4414 265.99 10.4551 263.803 10.4551L263.652 9.53906ZM290.673 0.953125V7.17383H289.593V5.90234H286.353V5.05469H289.593V3.5918H286.531C285.765 5.5127 283.878 6.80469 281.185 7.44727L280.802 6.55859C283.783 5.86816 285.519 4.41211 285.724 2.45703H281.417V1.56836H286.9C286.9 1.97168 286.859 2.36133 286.791 2.73047H289.593V0.953125H290.673ZM290.673 7.7207V10.6875H283.892V12.1094H291.083V12.998H282.826V9.86719H289.593V8.5957H282.798V7.7207H290.673ZM298.934 1.17188C301.641 1.17188 303.227 1.91016 303.227 3.26367C303.227 4.64453 301.641 5.38281 298.934 5.39648C296.227 5.38281 294.627 4.64453 294.627 3.26367C294.627 1.91016 296.227 1.17188 298.934 1.17188ZM298.934 1.97852C296.91 1.97852 295.735 2.4707 295.748 3.26367C295.735 4.11133 296.91 4.57617 298.934 4.57617C300.944 4.57617 302.133 4.11133 302.133 3.26367C302.133 2.4707 300.944 1.97852 298.934 1.97852ZM304.471 6.2168V7.0918H293.397V6.2168H304.471ZM303.049 8.14453V10.8652H295.83V12.123H303.418V12.9707H294.764V10.0723H301.996V8.96484H294.737V8.14453H303.049ZM315.947 1.74609C318.531 1.75977 320.391 3.01758 320.391 4.93164C320.391 6.74316 318.777 7.94629 316.467 8.08984V10.6465H321.539V11.5488H310.41V10.6465H315.414V8.08984C313.11 7.93945 311.504 6.73633 311.504 4.93164C311.504 3.01758 313.363 1.75977 315.947 1.74609ZM315.947 2.63477C313.978 2.63477 312.543 3.56445 312.543 4.93164C312.543 6.33984 313.978 7.24219 315.947 7.25586C317.916 7.24219 319.351 6.33984 319.351 4.93164C319.351 3.56445 317.916 2.63477 315.947 2.63477ZM334.339 10.5918V11.4941H323.21V10.5918H334.339ZM325.602 1.82812V4.09766H331.919V1.82812H332.971V8.1582H324.522V1.82812H325.602ZM325.602 7.29688H331.919V4.95898H325.602V7.29688ZM346.4 0.953125V13.1074H345.375V0.953125H346.4ZM343.939 1.25391V12.4785H342.927V6.2168H340.876V5.3418H342.927V1.25391H343.939ZM339.578 4.42578C339.578 6.53125 340.521 8.62305 342.203 9.59375L341.546 10.3867C340.35 9.66895 339.502 8.35645 339.085 6.80469C338.641 8.47949 337.759 9.9082 336.542 10.6738L335.859 9.86719C337.554 8.85547 338.539 6.64062 338.539 4.42578V3.27734H336.201V2.38867H341.806V3.27734H339.578V4.42578ZM359.938 10.7012V11.6035H348.809V10.7012H353.813V8.4043H350.203V4.6582H357.477V2.74414H350.176V1.85547H358.53V5.5332H351.27V7.51562H358.817V8.4043H354.866V10.7012H359.938ZM375.324 0.953125V3.93359H377.156V4.83594H375.324V7.85742H374.258V0.953125H375.324ZM371.783 1.78711V2.66211H367.463V6.24414C369.903 6.25781 371.291 6.16895 372.918 5.84766L373.055 6.72266C371.346 7.06445 369.896 7.13281 367.34 7.13281H366.396V1.78711H371.783ZM375.324 8.48633V12.9434H367.654V8.48633H375.324ZM368.707 9.36133V12.0684H374.258V9.36133H368.707ZM381.876 1.89648C383.667 1.91016 384.938 3.55078 384.952 6.13477C384.938 8.71875 383.667 10.3594 381.876 10.3594C380.071 10.3594 378.813 8.71875 378.813 6.13477C378.813 3.55078 380.071 1.91016 381.876 1.89648ZM381.876 2.85352C380.673 2.86719 379.825 4.15234 379.825 6.13477C379.825 8.11719 380.673 9.40234 381.876 9.40234C383.092 9.40234 383.913 8.11719 383.913 6.13477C383.913 4.15234 383.092 2.86719 381.876 2.85352ZM388.028 0.953125V5.80664H390.065V6.73633H388.028V13.1074H386.962V0.953125H388.028ZM401.744 0.966797V7.58398H400.718V4.79492H398.996V7.47461H397.984V1.19922H398.996V3.93359H400.718V0.966797H401.744ZM394.798 8.13086V9.60742H400.691V8.13086H401.744V12.9434H393.732V8.13086H394.798ZM394.798 12.0547H400.691V10.4688H394.798V12.0547ZM393.103 1.75977V5.88867C394.375 5.88184 395.612 5.81348 397.095 5.5332L397.218 6.43555C395.564 6.73633 394.251 6.77734 392.802 6.77734H392.037V1.75977H393.103ZM414.242 0.953125V13.1074H413.176V0.953125H414.242ZM406.067 2.15625V9.04688C407.919 9.04004 409.84 8.88965 411.877 8.45898L412.028 9.375C409.867 9.82617 407.94 9.97656 405.998 9.97656H405.014V2.15625H406.067ZM426.427 0.953125V5.76562H428.464V6.66797H426.427V13.1348H425.36V0.953125H426.427ZM423.228 2.14258V3.03125H418.62V9.18359C420.821 9.18359 422.38 9.08105 424.185 8.74609L424.321 9.67578C422.421 10.0176 420.821 10.0859 418.511 10.0859H417.554V2.14258H423.228ZM431.105 12.082C430.627 12.082 430.217 11.6855 430.23 11.1934C430.217 10.7148 430.627 10.3184 431.105 10.3184C431.584 10.3184 431.98 10.7148 431.98 11.1934C431.98 11.6855 431.584 12.082 431.105 12.082ZM56.589 23.9531V27.5762H58.4347V28.4785H56.589V32.7578H55.5226V23.9531H56.589ZM53.0753 25.0059V25.9082H48.7276V29.6953C51.1681 29.6953 52.5558 29.6338 54.1827 29.2988L54.3194 30.1875C52.6104 30.5156 51.1612 30.5977 48.6046 30.5977H47.6612V25.0059H53.0753ZM57.1495 34.9453V35.8477H48.9874V31.8691H50.0401V34.9453H57.1495ZM65.9843 24.8828C65.9843 26.4688 68.1991 27.918 70.3046 28.2461L69.8808 29.0938C68.0351 28.7793 66.2099 27.7539 65.4374 26.332C64.6718 27.7812 62.8261 28.793 60.9804 29.1074L60.5565 28.2598C62.6757 27.9316 64.8769 26.5234 64.8769 24.8828V24.2676H65.9843V24.8828ZM71.0019 30.1465V31.0352H66.0526V33.5234H64.9862V31.0352H59.8729V30.1465H71.0019ZM69.7577 34.9453V35.8477H61.2948V32.334H62.3749V34.9453H69.7577ZM82.1882 23.9668V27.9727H84.0202V28.875H82.1882V33.0723H81.1218V23.9668H82.1882ZM79.9597 25.457V26.332H72.7136V25.457H75.8034V23.9668H76.8698V25.457H79.9597ZM76.3366 27.002C78.0729 27.002 79.2487 27.8906 79.2624 29.2715C79.2487 30.6387 78.0729 31.5137 76.3366 31.5137C74.5866 31.5137 73.3972 30.6387 73.4108 29.2715C73.3972 27.8906 74.5866 27.002 76.3366 27.002ZM76.3366 27.8496C75.1882 27.8496 74.4226 28.4102 74.4362 29.2715C74.4226 30.1328 75.1882 30.6797 76.3366 30.666C77.4714 30.6797 78.237 30.1328 78.2507 29.2715C78.237 28.4102 77.4714 27.8496 76.3366 27.8496ZM82.7487 34.9453V35.8477H74.5866V32.3477H75.6394V34.9453H82.7487ZM100.828 33.6328V34.5215H89.6995V33.6328H94.6761V30.6523H95.7288V33.6328H100.828ZM95.7561 25.7168C95.7561 27.7539 98.1624 29.5312 100.282 29.9004L99.803 30.7891C97.9505 30.4131 95.9954 29.1553 95.2093 27.3984C94.4095 29.1484 92.4681 30.4131 90.6155 30.7891L90.137 29.9004C92.2561 29.5312 94.6351 27.7539 94.6351 25.7168V24.7871H95.7561V25.7168ZM113.573 29.832V30.7207H108.556V32.1562H112.22V35.9434H103.853V32.1562H107.503V30.7207H102.499V29.832H113.573ZM112.521 24.3496V25.2383H110.648V27.7949H112.48V28.6836H103.579V27.7949H105.411V25.2383H103.538V24.3496H112.521ZM104.919 33.0039V35.0684H111.167V33.0039H104.919ZM106.478 27.7949H109.581V25.2383H106.478V27.7949ZM125.32 23.9531V36.1348H124.24V23.9531H125.32ZM118.853 24.8965C120.658 24.9102 121.957 26.5508 121.957 29.1348C121.957 31.7188 120.658 33.3594 118.853 33.3594C117.035 33.3594 115.75 31.7188 115.75 29.1348C115.75 26.5508 117.035 24.9102 118.853 24.8965ZM118.853 25.8535C117.637 25.8672 116.789 27.1523 116.789 29.1348C116.789 31.1172 117.637 32.4023 118.853 32.4023C120.07 32.4023 120.918 31.1172 120.918 29.1348C120.918 27.1523 120.07 25.8672 118.853 25.8535ZM135.566 24.8965C137.357 24.9102 138.628 26.5508 138.642 29.1348C138.628 31.7188 137.357 33.3594 135.566 33.3594C133.761 33.3594 132.503 31.7188 132.503 29.1348C132.503 26.5508 133.761 24.9102 135.566 24.8965ZM135.566 25.8535C134.363 25.8672 133.515 27.1523 133.515 29.1348C133.515 31.1172 134.363 32.4023 135.566 32.4023C136.783 32.4023 137.603 31.1172 137.603 29.1348C137.603 27.1523 136.783 25.8672 135.566 25.8535ZM141.718 23.9531V28.8066H143.755V29.7363H141.718V36.1074H140.652V23.9531H141.718ZM155.147 23.9668V32.7988H154.08V23.9668H155.147ZM155.53 34.9453V35.8477H147.176V31.9102H148.256V34.9453H155.53ZM146.957 24.8691V29.5312C149.104 29.5449 150.84 29.4287 152.727 29.0117L152.877 29.9141C150.881 30.3242 149.09 30.4609 146.862 30.4609H145.877V24.8691H146.957ZM159.907 34.084L158.841 37.8027H157.829L158.581 34.084H159.907ZM171.903 31.6367C174.514 31.6367 176.169 32.457 176.169 33.8652C176.169 35.2598 174.514 36.0801 171.903 36.0801C169.305 36.0801 167.651 35.2598 167.651 33.8652C167.651 32.457 169.305 31.6367 171.903 31.6367ZM171.903 32.457C169.962 32.4707 168.704 33.0039 168.717 33.8652C168.704 34.7129 169.962 35.2324 171.903 35.2324C173.844 35.2324 175.089 34.7129 175.102 33.8652C175.089 33.0039 173.844 32.4707 171.903 32.457ZM176.073 24.582V25.6074C176.073 26.5918 176.073 27.5762 175.731 28.834L174.678 28.7109C175.007 27.4531 175.007 26.5645 175.007 25.6074V25.457H167.733V24.582H176.073ZM177.481 29.627V30.502H166.421V29.627H171.001V27.2754H172.053V29.627H177.481ZM188.708 23.9531V27.6582H190.541V28.5605H188.708V32.8535H187.628V23.9531H188.708ZM185.427 24.8965C185.427 28.0273 183.185 30.3516 179.685 31.4453L179.22 30.584C182.132 29.6748 184.033 27.9385 184.265 25.7988H179.726V24.8965H185.427ZM189.269 34.9453V35.8477H181.093V31.9512H182.16V34.9453H189.269ZM202.424 23.9531V36.1074H201.385V23.9531H202.424ZM199.977 24.2129V35.4922H198.951V29.5859H197.393C197.277 31.9512 196.272 33.4277 194.768 33.4277C193.182 33.4277 192.157 31.7871 192.157 29.2031C192.157 26.6191 193.182 24.9785 194.768 24.9785C196.244 24.9785 197.242 26.4072 197.379 28.6973H198.951V24.2129H199.977ZM194.768 25.9902C193.783 25.9902 193.155 27.2207 193.168 29.2031C193.155 31.1719 193.783 32.416 194.768 32.4023C195.752 32.416 196.381 31.1719 196.381 29.2031C196.381 27.2207 195.752 25.9902 194.768 25.9902ZM215.076 25.7441C215.076 27.8223 217.455 29.6816 219.574 30.0781L219.082 30.9805C217.25 30.5566 215.315 29.251 214.529 27.4531C213.743 29.2441 211.815 30.5498 209.976 30.9805L209.484 30.0781C211.59 29.668 213.955 27.8359 213.955 25.7441V24.8145H215.076V25.7441ZM220.148 33.5645V34.4531H209.019V33.5645H220.148ZM227.848 25.1699V26.8789H230.829V23.9531H231.895V36.1348H230.829V31.1172H227.848V33.0312H222.311V25.1699H227.848ZM223.378 26.0176V32.1699H226.809V26.0176H223.378ZM227.848 30.2285H230.829V27.7676H227.848V30.2285ZM245.707 29.0664V29.9277H234.619V29.0664H245.707ZM244.38 27.1934V28.0684H236.095V24.377H244.257V25.2383H237.175V27.1934H244.38ZM244.271 31.0215V33.8379H237.052V35.0957H244.64V35.9707H235.986V33.0312H243.218V31.8555H235.958V31.0215H244.271ZM250.686 24.8965C252.34 24.9102 253.53 26.3252 253.707 28.6016H256.428V23.9531H257.494V36.1348H256.428V29.4902H253.721C253.591 31.8691 252.381 33.3594 250.686 33.3594C248.895 33.3594 247.637 31.7188 247.637 29.1348C247.637 26.5508 248.895 24.9102 250.686 24.8965ZM250.686 25.8535C249.483 25.8672 248.662 27.1523 248.662 29.1348C248.662 31.1172 249.483 32.4023 250.686 32.4023C251.875 32.4023 252.709 31.1172 252.709 29.1348C252.709 27.1523 251.875 25.8672 250.686 25.8535ZM273.933 23.9531V26.9336H275.766V27.8223H273.933V30.8574H272.867V23.9531H273.933ZM270.611 24.7461C270.598 27.8086 268.451 29.9961 264.855 30.9805L264.418 30.1191C267.412 29.3125 269.237 27.6924 269.463 25.6348H264.965V24.7461H270.611ZM273.933 31.418V35.9434H266.236V31.418H273.933ZM267.303 32.3066V35.0684H272.867V32.3066H267.303ZM287.307 23.9531V31.1992H286.227V28.0137H283.78V27.125H286.227V23.9531H287.307ZM283.274 31.582C285.803 31.582 287.348 32.4023 287.348 33.8379C287.348 35.2734 285.803 36.0938 283.274 36.1074C280.745 36.0938 279.2 35.2734 279.2 33.8379C279.2 32.4023 280.745 31.582 283.274 31.582ZM283.274 32.416C281.415 32.416 280.253 32.9492 280.266 33.8379C280.253 34.7129 281.415 35.2461 283.274 35.2461C285.133 35.2461 286.282 34.7129 286.282 33.8379C286.282 32.9492 285.133 32.416 283.274 32.416ZM281.456 26.1816C281.456 27.7676 282.673 29.2715 284.45 29.8867L283.889 30.748C282.522 30.2559 281.463 29.2373 280.95 27.9727C280.417 29.4014 279.289 30.543 277.846 31.0898L277.286 30.2285C279.091 29.5723 280.376 27.9316 280.376 26.1953V25.7441H277.628V24.8418H284.176V25.7441H281.456V26.1816ZM295.568 24.1719C298.275 24.1719 299.861 24.9102 299.861 26.2637C299.861 27.6445 298.275 28.3828 295.568 28.3965C292.861 28.3828 291.261 27.6445 291.261 26.2637C291.261 24.9102 292.861 24.1719 295.568 24.1719ZM295.568 24.9785C293.544 24.9785 292.369 25.4707 292.382 26.2637C292.369 27.1113 293.544 27.5762 295.568 27.5762C297.578 27.5762 298.767 27.1113 298.767 26.2637C298.767 25.4707 297.578 24.9785 295.568 24.9785ZM301.105 29.2168V30.0918H290.031V29.2168H301.105ZM299.683 31.1445V33.8652H292.464V35.123H300.052V35.9707H291.398V33.0723H298.63V31.9648H291.371V31.1445H299.683ZM310.489 24.4043C312.308 24.418 313.634 25.5117 313.634 27.0977C313.634 28.6836 312.308 29.7773 310.489 29.7773C308.644 29.7773 307.331 28.6836 307.331 27.0977C307.331 25.5117 308.644 24.418 310.489 24.4043ZM310.489 25.3066C309.273 25.3066 308.37 26.0449 308.384 27.0977C308.37 28.1641 309.273 28.9023 310.489 28.9023C311.693 28.9023 312.595 28.1641 312.595 27.0977C312.595 26.0449 311.693 25.3066 310.489 25.3066ZM317.079 23.9531V30.2012H316.013V23.9531H317.079ZM317.079 30.7891V33.7148H310.257V35.082H317.517V35.9434H309.204V32.9082H316.013V31.6504H309.177V30.7891H317.079ZM325.381 24.7461C327.924 24.7461 329.824 26.0723 329.824 28.082C329.824 30.1055 327.924 31.4316 325.381 31.418C322.838 31.4316 320.937 30.1055 320.937 28.082C320.937 26.0723 322.838 24.7461 325.381 24.7461ZM325.381 25.6211C323.426 25.6074 321.949 26.6328 321.963 28.082C321.949 29.5586 323.426 30.543 325.381 30.543C327.322 30.543 328.785 29.5586 328.785 28.082C328.785 26.6328 327.322 25.6074 325.381 25.6211ZM330.973 33.5918V34.4941H319.844V33.5918H330.973ZM339.165 25.2246C339.151 28.7383 337.88 31.9785 333.491 34.125L332.889 33.2637C335.166 32.1699 336.574 30.7686 337.346 29.1211L333.122 29.5312L332.944 28.5742L337.688 28.2598C337.907 27.583 338.037 26.8652 338.085 26.1133H333.559V25.2246H339.165ZM342.692 23.9531V36.1074H341.612V23.9531H342.692ZM355.273 27.6445V28.5059H346.947V24.4043H348.013V27.6445H355.273ZM356.558 30.1602V31.0352H345.429V30.1602H356.558ZM355.341 34.918V35.8066H346.878V32.2793H347.945V34.918H355.341ZM368.691 25.4707C368.677 26.9746 370.728 28.2051 372.874 28.4785L372.45 29.3535C370.488 29.0459 368.656 28.0752 367.993 26.6465C367.337 28.0752 365.512 29.0459 363.536 29.3535L363.14 28.4785C365.286 28.2051 367.296 26.9746 367.296 25.4707V25.4434H363.468V24.5547H372.546V25.4434H368.691V25.4707ZM372.3 34.9453V35.8477H363.892V32.3887H364.972V34.9453H372.3ZM373.571 30.5156V31.4043H362.456V30.5156H367.46V28.4785H368.513V30.5156H373.571ZM385.701 23.9531V36.1074H384.662V29.791H383.008V35.4922H381.982V24.2129H383.008V28.875H384.662V23.9531H385.701ZM378.851 27.2754C378.851 29.5039 379.767 31.459 381.504 32.3477L380.861 33.1816C379.631 32.5117 378.79 31.3086 378.359 29.8184C377.942 31.5137 377.088 32.8398 375.803 33.5918L375.133 32.7715C376.883 31.8145 377.812 29.7363 377.812 27.2754V26.3047H375.42V25.4023H381.107V26.3047H378.851V27.2754ZM389.341 35.082C388.862 35.082 388.452 34.6855 388.466 34.1934C388.452 33.7148 388.862 33.3184 389.341 33.3184C389.819 33.3184 390.216 33.7148 390.216 34.1934C390.216 34.6855 389.819 35.082 389.341 35.082ZM108.248 46.9531V54.0215H107.195V46.9531H108.248ZM108.563 54.8828V55.7305H104.953C105.015 56.8857 106.929 58.0205 108.986 58.2734L108.59 59.1074C106.772 58.8477 105.11 57.9932 104.393 56.8652C103.668 58.0205 101.959 58.8613 100.127 59.1074L99.7442 58.2871C101.802 58.0615 103.784 56.9268 103.846 55.7305H100.25V54.8828H103.859V53.707H104.926V54.8828H108.563ZM99.9356 47.4727V49.3594H103.518V47.4727H104.584V52.9004H98.8692V47.4727H99.9356ZM99.9356 52.0391H103.518V50.1934H99.9356V52.0391ZM121.048 46.9531V59.1348H119.968V46.9531H121.048ZM114.581 47.8965C116.386 47.9102 117.684 49.5508 117.684 52.1348C117.684 54.7188 116.386 56.3594 114.581 56.3594C112.763 56.3594 111.477 54.7188 111.477 52.1348C111.477 49.5508 112.763 47.9102 114.581 47.8965ZM114.581 48.8535C113.364 48.8672 112.516 50.1523 112.516 52.1348C112.516 54.1172 113.364 55.4023 114.581 55.4023C115.798 55.4023 116.645 54.1172 116.645 52.1348C116.645 50.1523 115.798 48.8672 114.581 48.8535ZM134 47.623V48.498H129.653V51.5879C132.032 51.5879 133.467 51.499 135.135 51.1914L135.272 52.0391C133.536 52.3945 132.045 52.4902 129.543 52.4902H128.6V47.623H134ZM137.542 46.9531V49.6191H139.387V50.5352H137.542V53.4062H136.475V46.9531H137.542ZM138.075 54.1992V55.0469H129.543V54.1992H133.276V53.0234H134.329V54.1992H138.075ZM133.795 55.5664C135.915 55.5664 137.186 56.209 137.2 57.3574C137.186 58.4785 135.915 59.1074 133.795 59.1074C131.663 59.1074 130.391 58.4785 130.391 57.3574C130.391 56.209 131.663 55.5664 133.795 55.5664ZM133.795 56.3594C132.374 56.373 131.499 56.7285 131.499 57.3574C131.499 57.9863 132.374 58.3281 133.795 58.3145C135.217 58.3281 136.079 57.9863 136.092 57.3574C136.079 56.7285 135.217 56.373 133.795 56.3594ZM150.669 50.6445V51.5059H142.343V47.4043H143.409V50.6445H150.669ZM151.954 53.1602V54.0352H140.825V53.1602H151.954ZM150.738 57.918V58.8066H142.275V55.2793H143.341V57.918H150.738ZM163.458 54.5957C165.96 54.5957 167.464 55.416 167.464 56.8379C167.464 58.2734 165.96 59.0938 163.458 59.1074C160.956 59.0938 159.425 58.2734 159.425 56.8379C159.425 55.416 160.956 54.5957 163.458 54.5957ZM163.458 55.4434C161.626 55.457 160.491 55.9629 160.505 56.8379C160.491 57.7129 161.626 58.2324 163.458 58.2324C165.304 58.2324 166.425 57.7129 166.425 56.8379C166.425 55.9629 165.304 55.457 163.458 55.4434ZM167.354 46.9531V50.0156H169.186V50.9316H167.354V54.2676H166.288V46.9531H167.354ZM159.425 47.7188V49.5781H162.966V47.7188H164.032V53.3242H158.372V47.7188H159.425ZM159.425 52.4492H162.966V50.4258H159.425V52.4492ZM181.959 49.0859V49.9746H180.154V51.6562H181.959V52.5586H180.154V54.8008H179.088V46.9531H180.154V49.0859H181.959ZM176.312 54.8828C178.787 54.8828 180.291 55.6621 180.291 56.9883C180.291 58.3145 178.787 59.0801 176.312 59.0801C173.838 59.0801 172.32 58.3145 172.334 56.9883C172.32 55.6621 173.838 54.8828 176.312 54.8828ZM176.312 55.7305C174.494 55.7305 173.386 56.1816 173.4 56.9883C173.386 57.7812 174.494 58.2461 176.312 58.2461C178.131 58.2461 179.224 57.7812 179.224 56.9883C179.224 56.1816 178.131 55.7305 176.312 55.7305ZM177.925 48.3477V49.1953H170.679V48.3477H173.769V46.8574H174.836V48.3477H177.925ZM174.302 49.8242C176.052 49.8242 177.215 50.6719 177.228 51.9707C177.215 53.2832 176.052 54.1172 174.302 54.1172C172.539 54.1172 171.363 53.2832 171.377 51.9707C171.363 50.6719 172.539 49.8242 174.302 49.8242ZM174.302 50.6309C173.154 50.6445 172.388 51.1777 172.402 51.9707C172.388 52.7637 173.154 53.2832 174.302 53.2832C175.437 53.2832 176.203 52.7637 176.216 51.9707C176.203 51.1777 175.437 50.6445 174.302 50.6309ZM185.448 57.084L184.381 60.8027H183.37L184.122 57.084H185.448ZM201.531 48.252V49.4688C201.531 51 201.531 52.7363 201.08 55.375L199.986 55.2656C200.479 52.7773 200.479 50.959 200.479 49.4688V49.1406H193.15V48.252H201.531ZM203.022 56.4277V57.3164H191.947V56.4277H203.022ZM214.782 46.9668V54.1719H213.716V46.9668H214.782ZM210.913 47.7051V51H206.429V52.6816C208.602 52.6953 210.229 52.627 212.198 52.2988L212.321 53.2012C210.284 53.5156 208.616 53.584 206.374 53.584H205.39V50.1523H209.847V48.5664H205.362V47.7051H210.913ZM214.782 54.8281V58.9434H206.88V54.8281H214.782ZM207.933 55.7031V58.0684H213.729V55.7031H207.933ZM221.662 50.6855C221.648 52.6406 223.056 54.7871 224.82 55.6211L224.205 56.4688C222.838 55.8057 221.682 54.3564 221.142 52.709C220.582 54.5 219.358 56.0723 217.998 56.7695L217.341 55.9219C219.091 55.0742 220.595 52.7637 220.609 50.6855V49.0996H217.779V48.2109H224.396V49.0996H221.662V50.6855ZM226.953 46.9531V51.875H228.99V52.791H226.953V59.1074H225.886V46.9531H226.953ZM239.752 46.9531V51.9023H241.721V52.8047H239.752V59.1074H238.686V46.9531H239.752ZM236.608 48.2656C236.608 51.7109 234.995 54.8418 231.03 56.7969L230.428 55.9492C233.573 54.3838 235.282 52.0459 235.528 49.168H230.989V48.2656H236.608ZM253.389 48.1699V51.4102H256.369V46.9531H257.436V59.1348H256.369V52.2988H253.389V56.0312H247.852V48.1699H253.389ZM248.918 49.0176V55.1699H252.35V49.0176H248.918ZM271.274 54.0215V54.9102H266.202V59.1074H265.149V54.9102H260.145V54.0215H271.274ZM269.825 47.6367V52.3672H261.581V47.6367H269.825ZM262.634 48.5117V51.5195H268.759V48.5117H262.634ZM282.789 50.6445V51.5059H274.463V47.4043H275.529V50.6445H282.789ZM284.074 53.1602V54.0352H272.945V53.1602H284.074ZM282.857 57.918V58.8066H274.394V55.2793H275.461V57.918H282.857ZM294.087 50.6855C294.074 52.6406 295.482 54.7871 297.245 55.6211L296.63 56.4688C295.263 55.8057 294.108 54.3564 293.568 52.709C293.007 54.5 291.784 56.0723 290.423 56.7695L289.767 55.9219C291.517 55.0742 293.021 52.7637 293.034 50.6855V49.0996H290.204V48.2109H296.822V49.0996H294.087V50.6855ZM299.378 46.9531V51.875H301.415V52.791H299.378V59.1074H298.312V46.9531H299.378ZM312.807 46.9531V59.1348H311.74V46.9531H312.807ZM309.115 48.0879V52.4082H304.576V55.2793C306.593 55.2793 308.391 55.1904 310.565 54.8418L310.674 55.7441C308.432 56.0996 306.586 56.1816 304.494 56.1816H303.483V51.5332H308.035V48.9766H303.455V48.0879H309.115ZM321.682 48.1836V56.0176H316.077V48.1836H321.682ZM317.116 49.0449V55.1426H320.616V49.0449H317.116ZM324.977 46.9531V51.8066H327.015V52.7363H324.977V59.1074H323.911V46.9531H324.977ZM337.777 46.9531V51.7656H339.814V52.668H337.777V59.1348H336.711V46.9531H337.777ZM334.578 48.1426V49.0312H329.97V55.1836C332.172 55.1836 333.73 55.0811 335.535 54.7461L335.672 55.6758C333.771 56.0176 332.172 56.0859 329.861 56.0859H328.904V48.1426H334.578ZM152.475 69.9531V73.125H154.294V74.0273H152.475V77.2129H151.395V69.9531H152.475ZM148.565 77.4453C151.04 77.4453 152.571 78.3066 152.571 79.7559C152.571 81.2324 151.04 82.0801 148.565 82.0801C146.077 82.0801 144.532 81.2324 144.532 79.7559C144.532 78.3066 146.077 77.4453 148.565 77.4453ZM148.565 78.334C146.733 78.3203 145.585 78.8672 145.585 79.7559C145.585 80.6582 146.733 81.2188 148.565 81.2188C150.383 81.2188 151.532 80.6582 151.532 79.7559C151.532 78.8672 150.383 78.3203 148.565 78.334ZM148.921 70.8828V71.7715H144.573V75.3398C147.034 75.3262 148.456 75.251 150.083 74.916L150.192 75.8047C148.497 76.1465 147.034 76.2148 144.464 76.2148H143.52V70.8828H148.921ZM165.794 69.9668V78.8809H164.728V69.9668H165.794ZM166.177 80.9453V81.8477H157.947V78.0605H159.013V80.9453H166.177ZM160.066 71.8672C160.052 73.7129 161.324 75.3809 163.128 76.0371L162.568 76.8984C161.16 76.3584 160.066 75.2646 159.533 73.8633C158.993 75.3535 157.885 76.5498 156.47 77.1172L155.882 76.2832C157.728 75.5723 158.972 73.7812 158.972 71.8672V70.6504H160.066V71.8672ZM172.537 70.8418C174.451 70.8418 175.805 72.0039 175.805 73.6992C175.805 75.3945 174.451 76.5566 172.537 76.5566C170.623 76.5566 169.242 75.3945 169.256 73.6992C169.242 72.0039 170.623 70.8418 172.537 70.8418ZM172.537 71.7852C171.239 71.7852 170.295 72.5645 170.309 73.6992C170.295 74.834 171.239 75.6133 172.537 75.6133C173.823 75.6133 174.752 74.834 174.752 73.6992C174.752 72.5645 173.823 71.7852 172.537 71.7852ZM178.526 69.9531V82.1348H177.459V69.9531H178.526ZM168.627 78.5391C170.869 78.5391 173.959 78.5254 176.653 78.1289L176.735 78.9219C173.959 79.4414 170.965 79.4551 168.778 79.4551L168.627 78.5391ZM189.017 70.4043C190.836 70.418 192.162 71.5117 192.162 73.0977C192.162 74.6836 190.836 75.7773 189.017 75.7773C187.172 75.7773 185.859 74.6836 185.859 73.0977C185.859 71.5117 187.172 70.418 189.017 70.4043ZM189.017 71.3066C187.801 71.3066 186.898 72.0449 186.912 73.0977C186.898 74.1641 187.801 74.9023 189.017 74.9023C190.221 74.9023 191.123 74.1641 191.123 73.0977C191.123 72.0449 190.221 71.3066 189.017 71.3066ZM195.607 69.9531V76.2012H194.541V69.9531H195.607ZM195.607 76.7891V79.7148H188.785V81.082H196.045V81.9434H187.732V78.9082H194.541V77.6504H187.705V76.7891H195.607ZM202.432 71.9219C202.432 73.5762 203.69 75.0938 205.454 75.6953L204.866 76.543C203.519 76.0508 202.46 75.0459 201.926 73.7812C201.407 75.21 200.327 76.3379 198.905 76.8848L198.331 76.0234C200.149 75.3398 201.366 73.7129 201.38 71.8398V70.582H202.432V71.9219ZM207.874 69.9531V73.125H209.706V74.0273H207.874V77.3496H206.807V69.9531H207.874ZM203.977 77.6641C206.479 77.6641 207.983 78.4707 207.983 79.8652C207.983 81.2871 206.479 82.0801 203.977 82.0801C201.475 82.0801 199.944 81.2871 199.944 79.8652C199.944 78.4707 201.475 77.6641 203.977 77.6641ZM203.977 78.5254C202.145 78.5254 201.01 79.0312 201.024 79.8652C201.01 80.7266 202.145 81.2188 203.977 81.2324C205.823 81.2188 206.944 80.7266 206.944 79.8652C206.944 79.0312 205.823 78.5254 203.977 78.5254ZM222.246 76.3652V77.2402H211.171V76.3652H222.246ZM221.015 80.9453V81.8477H212.607V78.3066H213.687V80.9453H221.015ZM216.708 70.3906C219.32 70.377 221.001 71.2793 221.001 72.7969C221.001 74.3145 219.32 75.2168 216.708 75.2168C214.07 75.2168 212.402 74.3145 212.402 72.7969C212.402 71.2793 214.07 70.377 216.708 70.3906ZM216.708 71.252C214.753 71.252 213.496 71.8398 213.509 72.7969C213.496 73.7539 214.753 74.3418 216.708 74.3418C218.65 74.3418 219.908 73.7539 219.908 72.7969C219.908 71.8398 218.65 71.252 216.708 71.252ZM238.261 69.9668V78.9629H237.181V75.6953H234.31V76.8848H228.8V70.7734H229.866V72.9336H233.257V70.7734H234.31V72.1953H237.181V69.9668H238.261ZM238.534 80.9453V81.8477H230.4V78.0742H231.48V80.9453H238.534ZM229.866 75.9961H233.257V73.7812H229.866V75.9961ZM234.31 74.8066H237.181V73.0977H234.31V74.8066ZM247.123 71.6758C247.109 73.3027 249.283 74.6836 251.402 74.998L251.006 75.8457C249.105 75.5244 247.26 74.5127 246.521 73.043C245.783 74.5127 243.931 75.5244 242.064 75.8457L241.641 74.998C243.746 74.6836 245.92 73.3027 245.92 71.6758V71.5938H242.023V70.7188H251.006V71.5938H247.123V71.6758ZM252.059 76.8848V77.7734H247.027V82.1074H245.975V77.7734H240.984V76.8848H252.059ZM263.819 69.9668V76.9531H262.739V69.9668H263.819ZM253.825 75.7637C254.857 75.7637 256.06 75.7568 257.311 75.709V74.4102H254.932V70.5684H260.702V71.457H256.012V73.5488H260.811V74.4102H258.391V75.668C259.519 75.6201 260.661 75.5244 261.727 75.3809L261.796 76.1602C259.13 76.6113 256.176 76.6523 253.989 76.6523L253.825 75.7637ZM256.874 77.5V78.7988H262.766V77.5H263.819V81.9434H255.807V77.5H256.874ZM256.874 81.0684H262.766V79.6328H256.874V81.0684ZM276.605 69.9531V82.1074H275.539V69.9531H276.605ZM268.429 71.1562V78.0469C270.282 78.04 272.203 77.8896 274.24 77.459L274.39 78.375C272.23 78.8262 270.302 78.9766 268.361 78.9766H267.376V71.1562H268.429ZM288.789 69.9531V74.7656H290.826V75.668H288.789V82.1348H287.723V69.9531H288.789ZM285.59 71.1426V72.0312H280.983V78.1836C283.184 78.1836 284.742 78.0811 286.547 77.7461L286.684 78.6758C284.784 79.0176 283.184 79.0859 280.873 79.0859H279.916V71.1426H285.59ZM293.468 81.082C292.989 81.082 292.579 80.6855 292.593 80.1934C292.579 79.7148 292.989 79.3184 293.468 79.3184C293.946 79.3184 294.343 79.7148 294.343 80.1934C294.343 80.6855 293.946 81.082 293.468 81.082ZM166.895 122.926V123.828H161.823V128.107H160.77V123.828H155.766V122.926H166.895ZM161.303 116.445C163.86 116.445 165.583 117.471 165.583 119.125C165.583 120.738 163.86 121.764 161.303 121.764C158.747 121.764 157.024 120.738 157.024 119.125C157.024 117.471 158.747 116.445 161.303 116.445ZM161.303 117.32C159.403 117.32 158.118 118.031 158.131 119.125C158.118 120.205 159.403 120.902 161.303 120.902C163.19 120.902 164.489 120.205 164.489 119.125C164.489 118.031 163.19 117.32 161.303 117.32ZM178.615 115.953V128.135H177.548V115.953H178.615ZM174.923 117.088V121.408H170.384V124.279C172.401 124.279 174.199 124.19 176.372 123.842L176.482 124.744C174.24 125.1 172.394 125.182 170.302 125.182H169.29V120.533H173.843V117.977H169.263V117.088H174.923ZM191.209 119.645V120.506H182.883V116.404H183.949V119.645H191.209ZM192.494 122.16V123.035H181.365V122.16H192.494ZM191.277 126.918V127.807H182.815V124.279H183.881V126.918H191.277ZM203.929 116.746C206.513 116.76 208.373 118.018 208.373 119.932C208.373 121.743 206.759 122.946 204.449 123.09V125.646H209.521V126.549H198.392V125.646H203.396V123.09C201.092 122.939 199.486 121.736 199.486 119.932C199.486 118.018 201.345 116.76 203.929 116.746ZM203.929 117.635C201.961 117.635 200.525 118.564 200.525 119.932C200.525 121.34 201.961 122.242 203.929 122.256C205.898 122.242 207.334 121.34 207.334 119.932C207.334 118.564 205.898 117.635 203.929 117.635ZM222.321 125.592V126.494H211.192V125.592H222.321ZM213.584 116.828V119.098H219.901V116.828H220.954V123.158H212.504V116.828H213.584ZM213.584 122.297H219.901V119.959H213.584V122.297ZM234.382 115.953V128.107H233.357V115.953H234.382ZM231.921 116.254V127.479H230.909V121.217H228.859V120.342H230.909V116.254H231.921ZM227.56 119.426C227.56 121.531 228.503 123.623 230.185 124.594L229.529 125.387C228.332 124.669 227.485 123.356 227.068 121.805C226.623 123.479 225.742 124.908 224.525 125.674L223.841 124.867C225.536 123.855 226.521 121.641 226.521 119.426V118.277H224.183V117.389H229.788V118.277H227.56V119.426ZM247.906 121.6V122.447H236.777V121.6H247.906ZM246.512 123.418V126.002H239.211V127.164H246.908V127.943H238.131V125.264H245.445V124.225H238.117V123.418H246.512ZM246.471 116.322V118.838H239.293V119.904H246.69V120.684H238.227V118.1H245.391V117.102H238.186V116.322H246.471ZM264.879 122.406V123.281H253.791V122.406H258.795V121.203H255.267V116.309H263.498V117.184H256.347V118.318H263.17V119.139H256.347V120.342H263.566V121.203H259.861V122.406H264.879ZM259.341 124.197C262.008 124.184 263.511 124.867 263.525 126.139C263.511 127.41 262.008 128.08 259.341 128.08C256.648 128.08 255.144 127.41 255.144 126.139C255.144 124.867 256.648 124.184 259.341 124.197ZM259.341 125.004C257.332 125.004 256.211 125.414 256.224 126.139C256.211 126.877 257.332 127.26 259.341 127.246C261.324 127.26 262.445 126.877 262.445 126.139C262.445 125.414 261.324 125.004 259.341 125.004ZM272.674 118.059V118.934H266.577V118.059H269.106V116.322H270.172V118.059H272.674ZM269.625 119.754C271.157 119.754 272.25 120.902 272.264 122.516C272.25 124.143 271.157 125.305 269.625 125.305C268.108 125.305 267.014 124.143 267.014 122.516C267.014 120.902 268.108 119.754 269.625 119.754ZM269.625 120.656C268.668 120.67 267.971 121.449 267.971 122.516C267.971 123.596 268.668 124.375 269.625 124.361C270.596 124.375 271.307 123.596 271.307 122.516C271.307 121.449 270.596 120.67 269.625 120.656ZM276.954 115.953V128.107H275.928V121.969H274.315V127.506H273.303V116.254H274.315V121.08H275.928V115.953H276.954ZM118.982 138.967V148.236H117.902V145.625H115.796V144.75H117.902V143.096H115.796V142.207H117.902V138.967H118.982ZM115.796 140.457V141.332H108.919V140.457H111.873V138.953H112.939V140.457H115.796ZM112.392 142.002C114.019 142.002 115.167 142.932 115.167 144.326C115.167 145.707 114.019 146.65 112.392 146.65C110.765 146.65 109.63 145.707 109.644 144.326C109.63 142.932 110.765 142.002 112.392 142.002ZM112.392 142.85C111.353 142.863 110.642 143.451 110.642 144.326C110.642 145.201 111.353 145.789 112.392 145.789C113.431 145.789 114.142 145.201 114.156 144.326C114.142 143.451 113.431 142.863 112.392 142.85ZM119.255 149.945V150.848H111.121V147.416H112.201V149.945H119.255ZM131.727 138.953V145.256H130.674V138.953H131.727ZM131.741 145.871V148.783H124.918V150.096H132.178V150.971H123.866V147.949H130.674V146.732H123.838V145.871H131.741ZM126.012 140.238C125.998 141.961 127.311 143.479 129.116 144.066L128.582 144.9C127.16 144.415 126.026 143.396 125.479 142.084C124.932 143.499 123.79 144.613 122.348 145.133L121.787 144.285C123.619 143.643 124.918 142.029 124.918 140.238V139.309H126.012V140.238ZM141.245 140.307V140.936C141.232 141.893 141.232 143.506 140.89 145.762L139.81 145.666C140.138 143.629 140.165 142.152 140.165 141.182H135.066V140.307H141.245ZM138.06 143.779V147.471C139.406 147.423 140.787 147.334 142.052 147.184L142.107 147.99C139.55 148.387 136.692 148.441 134.519 148.428L134.382 147.539C135.182 147.532 136.07 147.525 137.007 147.498V143.779H138.06ZM143.884 138.953V144.039H145.853V144.969H143.884V151.107H142.817V138.953H143.884ZM156.522 139.555V139.883C156.522 140.519 156.522 141.879 156.057 143.738H159.844C160.193 142.262 160.255 141.175 160.268 140.43H157.438V139.555H161.307V140.006C161.307 140.73 161.307 141.988 160.938 143.738H162.633V144.613H157.561V146.678H161.212V150.943H152.899V146.678H156.508V144.613H151.518V143.738H154.991C155.36 142.269 155.442 141.168 155.469 140.43H152.598V139.555H156.522ZM153.952 147.539V150.068H160.145V147.539H153.952ZM168.296 139.842C170.21 139.842 171.564 141.004 171.564 142.699C171.564 144.395 170.21 145.557 168.296 145.557C166.382 145.557 165.001 144.395 165.015 142.699C165.001 141.004 166.382 139.842 168.296 139.842ZM168.296 140.785C166.998 140.785 166.054 141.564 166.068 142.699C166.054 143.834 166.998 144.613 168.296 144.613C169.582 144.613 170.511 143.834 170.511 142.699C170.511 141.564 169.582 140.785 168.296 140.785ZM174.285 138.953V151.135H173.218V138.953H174.285ZM164.386 147.539C166.628 147.539 169.718 147.525 172.412 147.129L172.494 147.922C169.718 148.441 166.724 148.455 164.537 148.455L164.386 147.539ZM191.407 138.967V146.268H190.327V144.627H187.101V143.738H190.327V142.098H187.224C186.424 144.053 184.544 145.468 181.946 146.24L181.495 145.393C184.435 144.518 186.26 142.877 186.485 140.771H182.11V139.869H187.648C187.648 140.348 187.593 140.806 187.497 141.236H190.327V138.967H191.407ZM187.429 146.391C189.89 146.391 191.476 147.266 191.476 148.715C191.476 150.178 189.89 151.053 187.429 151.053C184.941 151.053 183.368 150.178 183.368 148.715C183.368 147.266 184.941 146.391 187.429 146.391ZM187.429 147.252C185.597 147.238 184.421 147.799 184.421 148.715C184.421 149.631 185.597 150.178 187.429 150.178C189.233 150.178 190.396 149.631 190.409 148.715C190.396 147.799 189.233 147.238 187.429 147.252ZM204.535 138.953V151.107H203.51V138.953H204.535ZM202.074 139.281V150.492H201.049V146.281H198.793V145.393H201.049V143.232H198.998C198.403 145.29 197.07 147.108 194.773 148.482L194.117 147.703C196.763 146.138 198.089 143.943 198.301 141.4H194.664V140.512H199.367C199.367 141.134 199.312 141.749 199.203 142.344H201.049V139.281H202.074ZM217.348 138.953V151.107H216.309V138.953H217.348ZM214.901 139.213V150.492H213.876V144.586H212.317C212.201 146.951 211.196 148.428 209.692 148.428C208.106 148.428 207.081 146.787 207.081 144.203C207.081 141.619 208.106 139.979 209.692 139.979C211.169 139.979 212.167 141.407 212.303 143.697H213.876V139.213H214.901ZM209.692 140.99C208.708 140.99 208.079 142.221 208.092 144.203C208.079 146.172 208.708 147.416 209.692 147.402C210.676 147.416 211.305 146.172 211.305 144.203C211.305 142.221 210.676 140.99 209.692 140.99ZM228.059 141.209C228.059 142.822 229.248 144.299 231.053 144.928L230.506 145.762C229.118 145.27 228.059 144.271 227.539 143.014C227.02 144.395 225.906 145.468 224.477 145.994L223.903 145.16C225.721 144.518 226.992 142.945 227.006 141.209V140.689H224.231V139.814H230.793V140.689H228.059V141.209ZM233.446 138.953V142.166H235.278V143.082H233.446V146.281H232.379V138.953H233.446ZM233.446 146.924V151.107H232.379V147.799H225.489V146.924H233.446ZM247.817 145.365V146.24H236.743V145.365H247.817ZM246.587 149.945V150.848H238.179V147.307H239.259V149.945H246.587ZM242.28 139.391C244.892 139.377 246.573 140.279 246.573 141.797C246.573 143.314 244.892 144.217 242.28 144.217C239.642 144.217 237.974 143.314 237.974 141.797C237.974 140.279 239.642 139.377 242.28 139.391ZM242.28 140.252C240.325 140.252 239.067 140.84 239.081 141.797C239.067 142.754 240.325 143.342 242.28 143.342C244.222 143.342 245.48 142.754 245.48 141.797C245.48 140.84 244.222 140.252 242.28 140.252ZM264.831 145.256V146.145H253.743V145.256H264.831ZM263.518 143.301V144.162H255.219V139.281H263.45V140.143H256.299V141.264H263.122V142.098H256.299V143.301H263.518ZM263.477 147.252V150.943H255.11V147.252H263.477ZM256.176 148.113V150.068H262.424V148.113H256.176ZM272.093 139.172C274.8 139.172 276.386 139.91 276.386 141.264C276.386 142.645 274.8 143.383 272.093 143.396C269.386 143.383 267.787 142.645 267.787 141.264C267.787 139.91 269.386 139.172 272.093 139.172ZM272.093 139.979C270.07 139.979 268.894 140.471 268.908 141.264C268.894 142.111 270.07 142.576 272.093 142.576C274.103 142.576 275.292 142.111 275.292 141.264C275.292 140.471 274.103 139.979 272.093 139.979ZM277.63 144.217V145.092H266.556V144.217H277.63ZM276.208 146.145V148.865H268.99V150.123H276.578V150.971H267.923V148.072H275.156V146.965H267.896V146.145H276.208ZM289.708 140.061V145.652H284.089V140.061H289.708ZM285.142 140.936V144.791H288.669V140.936H285.142ZM293.071 138.953V142.658H294.903V143.561H293.071V147.867H292.005V138.953H293.071ZM293.632 149.945V150.848H285.47V147.02H286.523V149.945H293.632ZM307.457 144.066V144.928H296.369V144.066H307.457ZM306.131 142.193V143.068H297.846V139.377H306.008V140.238H298.926V142.193H306.131ZM306.021 146.021V148.838H298.803V150.096H306.391V150.971H297.736V148.031H304.969V146.855H297.709V146.021H306.021ZM318.917 140.184V141.4C318.903 142.891 318.903 144.559 318.466 147.006L317.372 146.883C317.837 144.559 317.837 142.85 317.837 141.4V141.072H310.344V140.184H318.917ZM320.243 148.496V149.385H309.169V148.496H313.516V144.148H314.569V148.496H320.243ZM323.964 149.084L322.898 152.803H321.886L322.638 149.084H323.964ZM144.058 163.252V164.469C144.058 166 144.058 167.736 143.606 170.375L142.513 170.266C143.005 167.777 143.005 165.959 143.005 164.469V164.141H135.677V163.252H144.058ZM145.548 171.428V172.316H134.474V171.428H145.548ZM162.561 168.256V169.145H151.473V168.256H162.561ZM161.249 166.301V167.162H152.95V162.281H161.18V163.143H154.03V164.264H160.852V165.098H154.03V166.301H161.249ZM161.208 170.252V173.943H152.84V170.252H161.208ZM153.907 171.113V173.068H160.155V171.113H153.907ZM172.574 165.221C172.574 167.367 173.996 169.568 175.719 170.416L175.063 171.277C173.723 170.573 172.602 169.138 172.068 167.449C171.522 169.247 170.373 170.778 169.006 171.51L168.322 170.648C170.1 169.773 171.508 167.436 171.522 165.221V163.006H172.574V165.221ZM177.906 161.953V166.889H179.943V167.818H177.906V174.107H176.84V161.953H177.906ZM191.321 161.953V174.135H190.241V161.953H191.321ZM184.854 162.896C186.659 162.91 187.958 164.551 187.958 167.135C187.958 169.719 186.659 171.359 184.854 171.359C183.036 171.359 181.751 169.719 181.751 167.135C181.751 164.551 183.036 162.91 184.854 162.896ZM184.854 163.854C183.638 163.867 182.79 165.152 182.79 167.135C182.79 169.117 183.638 170.402 184.854 170.402C186.071 170.402 186.919 169.117 186.919 167.135C186.919 165.152 186.071 163.867 184.854 163.854ZM205.228 171.701V172.604H194.099V171.701H199.103V169.404H195.494V165.658H202.767V163.744H195.466V162.855H203.82V166.533H196.56V168.516H204.107V169.404H200.156V171.701H205.228ZM221.544 162.855V163.662H211.687V162.855H216.117V161.762H217.183V162.855H221.544ZM216.65 164.127C219.206 164.127 220.587 164.66 220.587 165.727C220.587 166.807 219.206 167.326 216.65 167.34C214.093 167.326 212.699 166.807 212.699 165.727C212.699 164.66 214.093 164.127 216.65 164.127ZM216.65 164.879C214.804 164.865 213.833 165.166 213.847 165.727C213.833 166.301 214.804 166.588 216.65 166.588C218.482 166.588 219.452 166.301 219.466 165.727C219.452 165.166 218.482 164.865 216.65 164.879ZM222.187 168.037V168.871H211.113V168.037H222.187ZM220.765 169.705V172.152H213.574V173.178H221.134V173.971H212.48V171.4H219.685V170.484H212.452V169.705H220.765ZM233.975 161.953V174.135H232.908V167.531H230.543V166.629H232.908V161.953H233.975ZM229.805 163.088V167.34H225.443V170.293C227.535 170.293 229.053 170.231 230.83 169.896L230.912 170.799C229.08 171.127 227.508 171.195 225.307 171.209H224.377V166.451H228.766V163.977H224.336V163.088H229.805ZM246.528 167.805V168.693H238.134V163.088H246.405V163.977H239.2V167.805H246.528ZM247.841 171.551V172.453H236.712V171.551H247.841ZM259.341 165.645V166.506H251.015V162.404H252.082V165.645H259.341ZM260.627 168.16V169.035H249.498V168.16H260.627ZM259.41 172.918V173.807H250.947V170.279H252.013V172.918H259.41ZM276.027 161.953V164.934H277.859V165.822H276.027V168.857H274.96V161.953H276.027ZM272.704 162.746C272.691 165.809 270.544 167.996 266.949 168.98L266.511 168.119C269.505 167.312 271.33 165.692 271.556 163.635H267.058V162.746H272.704ZM276.027 169.418V173.943H268.329V169.418H276.027ZM269.396 170.307V173.068H274.96V170.307H269.396ZM288.826 161.953V165.043H290.658V165.959H288.826V169.09H287.76V161.953H288.826ZM285.49 162.732C285.49 165.809 283.344 167.996 279.748 168.953L279.311 168.119C282.291 167.312 284.13 165.686 284.356 163.621H279.858V162.732H285.49ZM288.826 169.65V174.107H287.76V170.525H280.869V169.65H288.826ZM297.661 162.172C300.368 162.172 301.954 162.91 301.954 164.264C301.954 165.645 300.368 166.383 297.661 166.396C294.954 166.383 293.354 165.645 293.354 164.264C293.354 162.91 294.954 162.172 297.661 162.172ZM297.661 162.979C295.638 162.979 294.462 163.471 294.475 164.264C294.462 165.111 295.638 165.576 297.661 165.576C299.671 165.576 300.86 165.111 300.86 164.264C300.86 163.471 299.671 162.979 297.661 162.979ZM303.198 167.217V168.092H292.124V167.217H303.198ZM301.776 169.145V171.865H294.557V173.123H302.145V173.971H293.491V171.072H300.724V169.965H293.464V169.145H301.776ZM135.462 184.953V188.125H137.28V189.027H135.462V192.213H134.382V184.953H135.462ZM131.552 192.445C134.026 192.445 135.558 193.307 135.558 194.756C135.558 196.232 134.026 197.08 131.552 197.08C129.064 197.08 127.519 196.232 127.519 194.756C127.519 193.307 129.064 192.445 131.552 192.445ZM131.552 193.334C129.72 193.32 128.571 193.867 128.571 194.756C128.571 195.658 129.72 196.219 131.552 196.219C133.37 196.219 134.519 195.658 134.519 194.756C134.519 193.867 133.37 193.32 131.552 193.334ZM131.907 185.883V186.771H127.56V190.34C130.021 190.326 131.442 190.251 133.069 189.916L133.179 190.805C131.483 191.146 130.021 191.215 127.45 191.215H126.507V185.883H131.907ZM148.781 184.967V193.881H147.715V184.967H148.781ZM149.164 195.945V196.848H140.933V193.061H142V195.945H149.164ZM143.053 186.867C143.039 188.713 144.31 190.381 146.115 191.037L145.555 191.898C144.146 191.358 143.053 190.265 142.519 188.863C141.979 190.354 140.872 191.55 139.457 192.117L138.869 191.283C140.715 190.572 141.959 188.781 141.959 186.867V185.65H143.053V186.867ZM155.524 185.842C157.438 185.842 158.792 187.004 158.792 188.699C158.792 190.395 157.438 191.557 155.524 191.557C153.61 191.557 152.229 190.395 152.243 188.699C152.229 187.004 153.61 185.842 155.524 185.842ZM155.524 186.785C154.225 186.785 153.282 187.564 153.296 188.699C153.282 189.834 154.225 190.613 155.524 190.613C156.809 190.613 157.739 189.834 157.739 188.699C157.739 187.564 156.809 186.785 155.524 186.785ZM161.512 184.953V197.135H160.446V184.953H161.512ZM151.614 193.539C153.856 193.539 156.946 193.525 159.639 193.129L159.721 193.922C156.946 194.441 153.952 194.455 151.764 194.455L151.614 193.539ZM174.055 192.637C176.666 192.637 178.321 193.457 178.321 194.865C178.321 196.26 176.666 197.08 174.055 197.08C171.457 197.08 169.803 196.26 169.803 194.865C169.803 193.457 171.457 192.637 174.055 192.637ZM174.055 193.457C172.114 193.471 170.856 194.004 170.869 194.865C170.856 195.713 172.114 196.232 174.055 196.232C175.996 196.232 177.241 195.713 177.254 194.865C177.241 194.004 175.996 193.471 174.055 193.457ZM178.225 185.582V186.607C178.225 187.592 178.225 188.576 177.883 189.834L176.83 189.711C177.158 188.453 177.158 187.564 177.158 186.607V186.457H169.885V185.582H178.225ZM179.633 190.627V191.502H168.573V190.627H173.153V188.275H174.205V190.627H179.633ZM190.86 184.953V188.658H192.692V189.561H190.86V193.854H189.78V184.953H190.86ZM187.579 185.896C187.579 189.027 185.337 191.352 181.837 192.445L181.372 191.584C184.284 190.675 186.185 188.938 186.417 186.799H181.878V185.896H187.579ZM191.421 195.945V196.848H183.245V192.951H184.312V195.945H191.421ZM207.874 184.953V188.658H209.706V189.561H207.874V193.922H206.807V184.953H207.874ZM208.434 195.945V196.848H200.272V192.992H201.325V195.945H208.434ZM201.79 185.814C203.608 185.814 204.975 187.045 204.989 188.809C204.975 190.572 203.608 191.803 201.79 191.803C199.971 191.803 198.591 190.572 198.604 188.809C198.591 187.045 199.971 185.814 201.79 185.814ZM201.79 186.758C200.587 186.758 199.643 187.605 199.657 188.809C199.643 190.012 200.587 190.859 201.79 190.859C203.02 190.859 203.936 190.012 203.936 188.809C203.936 187.605 203.02 186.758 201.79 186.758ZM221.589 184.953V197.107H220.55V184.953H221.589ZM219.142 185.213V196.492H218.117V190.586H216.558C216.442 192.951 215.437 194.428 213.933 194.428C212.347 194.428 211.322 192.787 211.322 190.203C211.322 187.619 212.347 185.979 213.933 185.979C215.41 185.979 216.408 187.407 216.544 189.697H218.117V185.213H219.142ZM213.933 186.99C212.949 186.99 212.32 188.221 212.333 190.203C212.32 192.172 212.949 193.416 213.933 193.402C214.917 193.416 215.546 192.172 215.546 190.203C215.546 188.221 214.917 186.99 213.933 186.99ZM234.214 186.17V189.41H237.194V184.953H238.261V197.135H237.194V190.299H234.214V194.031H228.677V186.17H234.214ZM229.743 187.018V193.17H233.175V187.018H229.743ZM252.059 190.094V190.969H247.041V192.172H250.637V194.893H243.418V196.123H251.006V196.971H242.351V194.086H249.584V193.006H242.324V192.172H245.975V190.969H240.984V190.094H252.059ZM250.623 185.363V189.068H242.42V185.363H250.623ZM243.486 186.225V188.207H249.557V186.225H243.486ZM264.188 184.953V197.107H263.163V184.953H264.188ZM261.632 185.281V196.492H260.606V190.818H258.036C257.291 192.233 256.122 193.484 254.426 194.482L253.798 193.703C256.443 192.138 257.769 189.943 257.967 187.4H254.317V186.512H259.034C259.027 187.708 258.836 188.863 258.432 189.943H260.606V185.281H261.632ZM280.299 184.953V188.07H282.131V188.986H280.299V192.021H279.233V184.953H280.299ZM273.682 192.555V193.854H279.233V192.555H280.299V196.943H272.616V192.555H273.682ZM273.682 196.082H279.233V194.701H273.682V196.082ZM278.071 186.211V187.1H270.825V186.211H273.914V184.844H274.981V186.211H278.071ZM274.448 187.66C276.198 187.66 277.36 188.494 277.373 189.793C277.36 191.092 276.198 191.926 274.448 191.926C272.684 191.926 271.508 191.092 271.522 189.793C271.508 188.494 272.684 187.66 274.448 187.66ZM274.448 188.494C273.299 188.48 272.534 189.014 272.547 189.793C272.534 190.586 273.299 191.105 274.448 191.105C275.582 191.105 276.348 190.586 276.362 189.793C276.348 189.014 275.582 188.48 274.448 188.494ZM293.618 184.953V197.107H292.552V184.953H293.618ZM285.442 186.156V193.047C287.295 193.04 289.216 192.89 291.253 192.459L291.403 193.375C289.243 193.826 287.316 193.977 285.374 193.977H284.39V186.156H285.442ZM305.803 184.953V189.766H307.84V190.668H305.803V197.135H304.736V184.953H305.803ZM302.603 186.143V187.031H297.996V193.184C300.197 193.184 301.756 193.081 303.56 192.746L303.697 193.676C301.797 194.018 300.197 194.086 297.887 194.086H296.93V186.143H302.603ZM310.481 196.082C310.003 196.082 309.592 195.686 309.606 195.193C309.592 194.715 310.003 194.318 310.481 194.318C310.96 194.318 311.356 194.715 311.356 195.193C311.356 195.686 310.96 196.082 310.481 196.082Z" fill="#1A1A1A"/>
</svg>
