<svg width="173" height="29" viewBox="0 0 173 29" fill="none" xmlns="http://www.w3.org/2000/svg">
<path d="M4.05109 2.024L19.5711 21.992V1.864H22.9631V27.496H19.7951L4.27509 7.528V27.656H0.915086V2.024H4.05109ZM36.3823 28.104C34.6757 28.104 33.129 27.688 31.7423 26.856C30.377 26.024 29.2997 24.872 28.5103 23.4C27.721 21.928 27.3263 20.296 27.3263 18.504C27.3263 16.712 27.721 15.08 28.5103 13.608C29.2997 12.136 30.377 10.984 31.7423 10.152C33.129 9.32 34.6757 8.904 36.3823 8.904C37.9397 8.904 39.2837 9.21333 40.4143 9.832C41.545 10.4507 42.3663 11.1973 42.8783 12.072V9.352H46.1743V27.656H42.8783V24.936C42.3663 25.8107 41.545 26.5573 40.4143 27.176C39.2837 27.7947 37.9397 28.104 36.3823 28.104ZM36.6703 25.192C37.8863 25.192 38.9637 24.904 39.9023 24.328C40.8623 23.7307 41.609 22.9307 42.1423 21.928C42.6757 20.904 42.9423 19.7627 42.9423 18.504C42.9423 17.2453 42.6757 16.1147 42.1423 15.112C41.609 14.088 40.8623 13.288 39.9023 12.712C38.9637 12.1147 37.8863 11.816 36.6703 11.816C35.4757 11.816 34.409 12.104 33.4703 12.68C32.553 13.256 31.8383 14.056 31.3263 15.08C30.8143 16.104 30.5583 17.2453 30.5583 18.504C30.5583 19.7627 30.8143 20.904 31.3263 21.928C31.8383 22.952 32.553 23.752 33.4703 24.328C34.409 24.904 35.4757 25.192 36.6703 25.192ZM54.6448 9.352V12.168C55.1355 11.336 55.9462 10.5893 57.0768 9.928C58.2288 9.24533 59.6155 8.904 61.2368 8.904C62.2822 8.904 63.1142 9.01067 63.7328 9.224V12.36C62.9862 12.0187 62.0795 11.848 61.0128 11.848C59.7968 11.848 58.6982 12.1467 57.7168 12.744C56.7568 13.32 55.9995 14.0987 55.4448 15.08C54.9115 16.04 54.6448 17.0747 54.6448 18.184V27.656H51.3488V9.352H54.6448ZM83.0923 21.448C82.6017 23.4533 81.567 25.064 79.9883 26.28C78.431 27.496 76.5963 28.104 74.4843 28.104C72.6923 28.104 71.0817 27.688 69.6523 26.856C68.223 26.024 67.103 24.8827 66.2923 23.432C65.4817 21.96 65.0763 20.3173 65.0763 18.504C65.0763 16.6907 65.471 15.0587 66.2603 13.608C67.071 12.136 68.191 10.984 69.6203 10.152C71.0497 9.32 72.6497 8.904 74.4203 8.904C75.8283 8.904 77.1297 9.192 78.3243 9.768C79.5403 10.3227 80.5537 11.1013 81.3643 12.104C82.175 13.1067 82.7297 14.2373 83.0283 15.496H79.6683C79.2843 14.3867 78.6337 13.5013 77.7163 12.84C76.799 12.1573 75.7003 11.816 74.4203 11.816C73.2257 11.816 72.159 12.1147 71.2203 12.712C70.303 13.288 69.5883 14.088 69.0763 15.112C68.5643 16.1147 68.3083 17.2453 68.3083 18.504C68.3083 19.7627 68.5643 20.904 69.0763 21.928C69.5883 22.9307 70.303 23.7307 71.2203 24.328C72.159 24.904 73.2257 25.192 74.4203 25.192C75.7003 25.192 76.8097 24.8507 77.7483 24.168C78.687 23.4853 79.3483 22.5787 79.7323 21.448H83.0923ZM88.7621 0.903999C89.4021 0.903999 89.9248 1.11733 90.3301 1.544C90.7568 1.94933 90.9701 2.46133 90.9701 3.08C90.9701 3.69867 90.7568 4.22133 90.3301 4.648C89.9248 5.05333 89.4021 5.256 88.7621 5.256C88.1434 5.256 87.6208 5.05333 87.1941 4.648C86.7888 4.22133 86.5861 3.69867 86.5861 3.08C86.5861 2.46133 86.7888 1.94933 87.1941 1.544C87.6208 1.11733 88.1434 0.903999 88.7621 0.903999ZM87.1301 27.688V9.352H90.4261V27.688H87.1301ZM102.799 8.904C104.271 8.904 105.604 9.13867 106.799 9.608C107.994 10.056 108.943 10.6853 109.647 11.496C110.372 12.2853 110.756 13.192 110.799 14.216H107.567C107.503 13.448 107.012 12.8187 106.095 12.328C105.178 11.8373 104.047 11.592 102.703 11.592C101.38 11.592 100.282 11.8267 99.4068 12.296C98.5535 12.7653 98.1268 13.3413 98.1268 14.024C98.1268 14.8133 98.5215 15.4427 99.3108 15.912C100.122 16.3813 101.604 16.7653 103.759 17.064C106.426 17.4267 108.335 18.0453 109.487 18.92C110.639 19.7947 111.215 20.968 111.215 22.44C111.215 23.592 110.842 24.5947 110.095 25.448C109.37 26.3013 108.378 26.952 107.119 27.4C105.86 27.8693 104.463 28.104 102.927 28.104C101.327 28.104 99.9188 27.8587 98.7028 27.368C97.4868 26.8987 96.5268 26.2373 95.8228 25.384C95.1402 24.552 94.7562 23.6027 94.6708 22.536H97.9028C98.0095 23.3253 98.5002 24.008 99.3748 24.584C100.271 25.1387 101.487 25.416 103.023 25.416C104.452 25.416 105.636 25.16 106.575 24.648C107.514 24.1147 107.983 23.4427 107.983 22.632C107.983 21.864 107.546 21.256 106.671 20.808C105.818 20.3387 104.324 19.9653 102.191 19.688C99.6735 19.3467 97.8282 18.7493 96.6548 17.896C95.4815 17.0213 94.8948 15.7947 94.8948 14.216C94.8948 13.1707 95.2362 12.2427 95.9188 11.432C96.6228 10.6213 97.5722 10.0027 98.7668 9.576C99.9615 9.128 101.306 8.904 102.799 8.904ZM122.58 8.904C124.052 8.904 125.385 9.13867 126.58 9.608C127.775 10.056 128.724 10.6853 129.428 11.496C130.153 12.2853 130.537 13.192 130.58 14.216H127.348C127.284 13.448 126.793 12.8187 125.876 12.328C124.959 11.8373 123.828 11.592 122.484 11.592C121.161 11.592 120.063 11.8267 119.188 12.296C118.335 12.7653 117.908 13.3413 117.908 14.024C117.908 14.8133 118.303 15.4427 119.092 15.912C119.903 16.3813 121.385 16.7653 123.54 17.064C126.207 17.4267 128.116 18.0453 129.268 18.92C130.42 19.7947 130.996 20.968 130.996 22.44C130.996 23.592 130.623 24.5947 129.876 25.448C129.151 26.3013 128.159 26.952 126.9 27.4C125.641 27.8693 124.244 28.104 122.708 28.104C121.108 28.104 119.7 27.8587 118.484 27.368C117.268 26.8987 116.308 26.2373 115.604 25.384C114.921 24.552 114.537 23.6027 114.452 22.536H117.684C117.791 23.3253 118.281 24.008 119.156 24.584C120.052 25.1387 121.268 25.416 122.804 25.416C124.233 25.416 125.417 25.16 126.356 24.648C127.295 24.1147 127.764 23.4427 127.764 22.632C127.764 21.864 127.327 21.256 126.452 20.808C125.599 20.3387 124.105 19.9653 121.972 19.688C119.455 19.3467 117.609 18.7493 116.436 17.896C115.263 17.0213 114.676 15.7947 114.676 14.216C114.676 13.1707 115.017 12.2427 115.7 11.432C116.404 10.6213 117.353 10.0027 118.548 9.576C119.743 9.128 121.087 8.904 122.58 8.904ZM148.313 27.656V24.872C147.844 25.704 147.065 26.4507 145.977 27.112C144.911 27.7733 143.62 28.104 142.105 28.104C140.676 28.104 139.396 27.7733 138.265 27.112C137.156 26.4507 136.292 25.5227 135.673 24.328C135.055 23.112 134.745 21.6933 134.745 20.072V9.352H138.041V19.496C138.041 21.3307 138.457 22.7493 139.289 23.752C140.143 24.7333 141.316 25.224 142.809 25.224C143.855 25.224 144.793 24.936 145.625 24.36C146.457 23.7627 147.108 22.9733 147.577 21.992C148.068 21.0107 148.313 19.9547 148.313 18.824V9.352H151.609V27.656H148.313ZM163.986 8.904C165.458 8.904 166.792 9.13867 167.986 9.608C169.181 10.056 170.13 10.6853 170.834 11.496C171.56 12.2853 171.944 13.192 171.986 14.216H168.754C168.69 13.448 168.2 12.8187 167.282 12.328C166.365 11.8373 165.234 11.592 163.89 11.592C162.568 11.592 161.469 11.8267 160.594 12.296C159.741 12.7653 159.314 13.3413 159.314 14.024C159.314 14.8133 159.709 15.4427 160.498 15.912C161.309 16.3813 162.792 16.7653 164.946 17.064C167.613 17.4267 169.522 18.0453 170.674 18.92C171.826 19.7947 172.402 20.968 172.402 22.44C172.402 23.592 172.029 24.5947 171.282 25.448C170.557 26.3013 169.565 26.952 168.306 27.4C167.048 27.8693 165.65 28.104 164.114 28.104C162.514 28.104 161.106 27.8587 159.89 27.368C158.674 26.8987 157.714 26.2373 157.01 25.384C156.328 24.552 155.944 23.6027 155.858 22.536H159.09C159.197 23.3253 159.688 24.008 160.562 24.584C161.458 25.1387 162.674 25.416 164.21 25.416C165.64 25.416 166.824 25.16 167.762 24.648C168.701 24.1147 169.17 23.4427 169.17 22.632C169.17 21.864 168.733 21.256 167.858 20.808C167.005 20.3387 165.512 19.9653 163.378 19.688C160.861 19.3467 159.016 18.7493 157.842 17.896C156.669 17.0213 156.082 15.7947 156.082 14.216C156.082 13.1707 156.424 12.2427 157.106 11.432C157.81 10.6213 158.76 10.0027 159.954 9.576C161.149 9.128 162.493 8.904 163.986 8.904Z" fill="#595B5A"/>
</svg>
