<svg width="60" height="31" viewBox="0 0 60 31" fill="none" xmlns="http://www.w3.org/2000/svg">
<path d="M28.0571 0.735527C28.9271 0.735527 29.7121 0.890527 30.4121 1.20053C31.1121 1.50053 31.6721 1.92553 32.0921 2.47553C32.5121 3.02553 32.7471 3.64553 32.7971 4.33553H31.1771C31.0871 3.67553 30.7571 3.13553 30.1871 2.71553C29.6271 2.29553 28.8921 2.08553 27.9821 2.08553C27.0621 2.08553 26.3371 2.26053 25.8071 2.61053C25.2871 2.95053 25.0271 3.39553 25.0271 3.94553C25.0271 4.35553 25.1521 4.70053 25.4021 4.98053C25.6521 5.25053 26.0371 5.48553 26.5571 5.68553C27.0871 5.88553 27.8021 6.08053 28.7021 6.27053C30.1521 6.58053 31.2021 7.02553 31.8521 7.60553C32.5121 8.17553 32.8421 8.91553 32.8421 9.82553C32.8421 10.5255 32.6321 11.1405 32.2121 11.6705C31.7921 12.1905 31.2171 12.5905 30.4871 12.8705C29.7571 13.1605 28.9471 13.3055 28.0571 13.3055C27.1271 13.3055 26.2921 13.1455 25.5521 12.8255C24.8221 12.5055 24.2371 12.0555 23.7971 11.4755C23.3571 10.8955 23.1121 10.2205 23.0621 9.45053H24.6821C24.7621 10.1905 25.1121 10.7905 25.7321 11.2505C26.3621 11.7105 27.1721 11.9405 28.1621 11.9405C28.7521 11.9405 29.2821 11.8555 29.7521 11.6855C30.2221 11.5155 30.5871 11.2755 30.8471 10.9655C31.1071 10.6555 31.2371 10.3055 31.2371 9.91553C31.2371 9.47553 31.1121 9.11053 30.8621 8.82053C30.6121 8.53053 30.2221 8.28553 29.6921 8.08553C29.1721 7.87553 28.4521 7.67553 27.5321 7.48553C26.1321 7.19553 25.0971 6.77553 24.4271 6.22553C23.7671 5.67553 23.4371 4.91553 23.4371 3.94553C23.4371 3.29553 23.6321 2.73053 24.0221 2.25053C24.4221 1.76053 24.9721 1.38553 25.6721 1.12553C26.3721 0.865527 27.1671 0.735527 28.0571 0.735527ZM38.6181 13.2455C37.7981 13.2455 37.0581 13.0505 36.3981 12.6605C35.7481 12.2705 35.2381 11.7355 34.8681 11.0555C34.4981 10.3655 34.3131 9.59553 34.3131 8.74553C34.3131 7.89553 34.4981 7.13053 34.8681 6.45053C35.2381 5.76053 35.7481 5.22053 36.3981 4.83053C37.0581 4.44053 37.7981 4.24553 38.6181 4.24553C39.4381 4.24553 40.1731 4.44053 40.8231 4.83053C41.4831 5.22053 41.9931 5.76053 42.3531 6.45053C42.7231 7.13053 42.9081 7.89553 42.9081 8.74553C42.9081 9.02553 42.8981 9.23553 42.8781 9.37553H35.8581C35.9381 10.1255 36.2281 10.7405 36.7281 11.2205C37.2381 11.7005 37.8681 11.9405 38.6181 11.9405C39.1881 11.9405 39.6881 11.8255 40.1181 11.5955C40.5581 11.3555 40.8581 11.0555 41.0181 10.6955H42.5931C42.3531 11.4455 41.8731 12.0555 41.1531 12.5255C40.4331 13.0055 39.5881 13.2455 38.6181 13.2455ZM41.3931 8.11553C41.3031 7.35553 41.0081 6.74053 40.5081 6.27053C40.0081 5.79053 39.3781 5.55053 38.6181 5.55053C37.8581 5.55053 37.2281 5.79053 36.7281 6.27053C36.2281 6.74053 35.9381 7.35553 35.8581 8.11553H41.3931ZM44.8705 13.0355V0.645527H46.4155V13.0355H44.8705ZM53.1603 5.82053H51.2553V13.0355H49.7103V5.82053H48.0153V4.45553H49.7103V3.00053C49.7103 2.27053 49.9103 1.68553 50.3103 1.24553C50.7203 0.805527 51.2853 0.585527 52.0053 0.585527C52.4053 0.585527 52.7403 0.615527 53.0103 0.675526V1.98053C52.8703 1.95053 52.6253 1.93553 52.2753 1.93553C51.9553 1.93553 51.7053 2.03553 51.5253 2.23553C51.3453 2.42553 51.2553 2.69553 51.2553 3.04553V4.45553H53.1603V5.82053ZM59.5307 7.95053H54.2807V6.60053H59.5307V7.95053ZM4.91205 30.2455C4.09205 30.2455 3.35205 30.0505 2.69205 29.6605C2.04205 29.2705 1.53205 28.7355 1.16205 28.0555C0.792053 27.3655 0.607053 26.5955 0.607053 25.7455C0.607053 24.8955 0.792053 24.1305 1.16205 23.4505C1.53205 22.7605 2.04205 22.2205 2.69205 21.8305C3.35205 21.4405 4.09205 21.2455 4.91205 21.2455C5.73205 21.2455 6.46705 21.4405 7.11705 21.8305C7.77705 22.2205 8.28705 22.7605 8.64705 23.4505C9.01705 24.1305 9.20205 24.8955 9.20205 25.7455C9.20205 26.0255 9.19205 26.2355 9.17205 26.3755H2.15205C2.23205 27.1255 2.52205 27.7405 3.02205 28.2205C3.53205 28.7005 4.16205 28.9405 4.91205 28.9405C5.48205 28.9405 5.98205 28.8255 6.41205 28.5955C6.85205 28.3555 7.15205 28.0555 7.31205 27.6955H8.88705C8.64705 28.4455 8.16705 29.0555 7.44705 29.5255C6.72705 30.0055 5.88205 30.2455 4.91205 30.2455ZM7.68705 25.1155C7.59705 24.3555 7.30205 23.7405 6.80205 23.2705C6.30205 22.7905 5.67205 22.5505 4.91205 22.5505C4.15205 22.5505 3.52205 22.7905 3.02205 23.2705C2.52205 23.7405 2.23205 24.3555 2.15205 25.1155H7.68705ZM14.5395 21.2455C15.2295 21.2455 15.8545 21.3555 16.4145 21.5755C16.9745 21.7855 17.4195 22.0805 17.7495 22.4605C18.0895 22.8305 18.2695 23.2555 18.2895 23.7355H16.7745C16.7445 23.3755 16.5145 23.0805 16.0845 22.8505C15.6545 22.6205 15.1245 22.5055 14.4945 22.5055C13.8745 22.5055 13.3595 22.6155 12.9495 22.8355C12.5495 23.0555 12.3495 23.3255 12.3495 23.6455C12.3495 24.0155 12.5345 24.3105 12.9045 24.5305C13.2845 24.7505 13.9795 24.9305 14.9895 25.0705C16.2395 25.2405 17.1345 25.5305 17.6745 25.9405C18.2145 26.3505 18.4845 26.9005 18.4845 27.5905C18.4845 28.1305 18.3095 28.6005 17.9595 29.0005C17.6195 29.4005 17.1545 29.7055 16.5645 29.9155C15.9745 30.1355 15.3195 30.2455 14.5995 30.2455C13.8495 30.2455 13.1895 30.1305 12.6195 29.9005C12.0495 29.6805 11.5995 29.3705 11.2695 28.9705C10.9495 28.5805 10.7695 28.1355 10.7295 27.6355H12.2445C12.2945 28.0055 12.5245 28.3255 12.9345 28.5955C13.3545 28.8555 13.9245 28.9855 14.6445 28.9855C15.3145 28.9855 15.8695 28.8655 16.3095 28.6255C16.7495 28.3755 16.9695 28.0605 16.9695 27.6805C16.9695 27.3205 16.7645 27.0355 16.3545 26.8255C15.9545 26.6055 15.2545 26.4305 14.2545 26.3005C13.0745 26.1405 12.2095 25.8605 11.6595 25.4605C11.1095 25.0505 10.8345 24.4755 10.8345 23.7355C10.8345 23.2455 10.9945 22.8105 11.3145 22.4305C11.6445 22.0505 12.0895 21.7605 12.6495 21.5605C13.2095 21.3505 13.8395 21.2455 14.5395 21.2455ZM24.849 22.8205H22.944V30.0355H21.399V22.8205H19.494V21.4555H21.399V18.8455H22.944V21.4555H24.849V22.8205ZM30.0195 30.2455C29.1995 30.2455 28.4595 30.0505 27.7995 29.6605C27.1495 29.2705 26.6395 28.7355 26.2695 28.0555C25.8995 27.3655 25.7145 26.5955 25.7145 25.7455C25.7145 24.8955 25.8995 24.1305 26.2695 23.4505C26.6395 22.7605 27.1495 22.2205 27.7995 21.8305C28.4595 21.4405 29.1995 21.2455 30.0195 21.2455C30.8395 21.2455 31.5745 21.4405 32.2245 21.8305C32.8845 22.2205 33.3945 22.7605 33.7545 23.4505C34.1245 24.1305 34.3095 24.8955 34.3095 25.7455C34.3095 26.0255 34.2995 26.2355 34.2795 26.3755H27.2595C27.3395 27.1255 27.6295 27.7405 28.1295 28.2205C28.6395 28.7005 29.2695 28.9405 30.0195 28.9405C30.5895 28.9405 31.0895 28.8255 31.5195 28.5955C31.9595 28.3555 32.2595 28.0555 32.4195 27.6955H33.9945C33.7545 28.4455 33.2745 29.0555 32.5545 29.5255C31.8345 30.0055 30.9895 30.2455 30.0195 30.2455ZM32.7945 25.1155C32.7045 24.3555 32.4095 23.7405 31.9095 23.2705C31.4095 22.7905 30.7795 22.5505 30.0195 22.5505C29.2595 22.5505 28.6295 22.7905 28.1295 23.2705C27.6295 23.7405 27.3395 24.3555 27.2595 25.1155H32.7945ZM40.1269 30.2455C39.3069 30.2455 38.5669 30.0505 37.9069 29.6605C37.2569 29.2705 36.7469 28.7355 36.3769 28.0555C36.0069 27.3655 35.8219 26.5955 35.8219 25.7455C35.8219 24.8955 36.0069 24.1305 36.3769 23.4505C36.7469 22.7605 37.2569 22.2205 37.9069 21.8305C38.5669 21.4405 39.3069 21.2455 40.1269 21.2455C40.9469 21.2455 41.6819 21.4405 42.3319 21.8305C42.9919 22.2205 43.5019 22.7605 43.8619 23.4505C44.2319 24.1305 44.4169 24.8955 44.4169 25.7455C44.4169 26.0255 44.4069 26.2355 44.3869 26.3755H37.3669C37.4469 27.1255 37.7369 27.7405 38.2369 28.2205C38.7469 28.7005 39.3769 28.9405 40.1269 28.9405C40.6969 28.9405 41.1969 28.8255 41.6269 28.5955C42.0669 28.3555 42.3669 28.0555 42.5269 27.6955H44.1019C43.8619 28.4455 43.3819 29.0555 42.6619 29.5255C41.9419 30.0055 41.0969 30.2455 40.1269 30.2455ZM42.9019 25.1155C42.8119 24.3555 42.5169 23.7405 42.0169 23.2705C41.5169 22.7905 40.8869 22.5505 40.1269 22.5505C39.3669 22.5505 38.7369 22.7905 38.2369 23.2705C37.7369 23.7405 37.4469 24.3555 37.3669 25.1155H42.9019ZM47.9243 21.4555V22.6705C48.1743 22.2705 48.5043 21.9355 48.9143 21.6655C49.3343 21.3855 49.8693 21.2455 50.5193 21.2455C51.1493 21.2455 51.6993 21.4055 52.1693 21.7255C52.6393 22.0455 52.9793 22.4855 53.1893 23.0455C53.4493 22.4955 53.8443 22.0605 54.3743 21.7405C54.9043 21.4105 55.5243 21.2455 56.2343 21.2455C56.8443 21.2455 57.3843 21.3955 57.8543 21.6955C58.3343 21.9855 58.7093 22.4005 58.9793 22.9405C59.2493 23.4805 59.3843 24.1055 59.3843 24.8155V30.0355H57.8393V25.0705C57.8393 24.3005 57.6643 23.6955 57.3143 23.2555C56.9643 22.8155 56.4843 22.5955 55.8743 22.5955C55.4543 22.5955 55.0743 22.7205 54.7343 22.9705C54.3943 23.2205 54.1293 23.5605 53.9393 23.9905C53.7493 24.4205 53.6543 24.8955 53.6543 25.4155V30.0355H52.1093V25.1305C52.1093 24.3305 51.9343 23.7105 51.5843 23.2705C51.2343 22.8205 50.7543 22.5955 50.1443 22.5955C49.7243 22.5955 49.3443 22.7205 49.0043 22.9705C48.6743 23.2205 48.4093 23.5605 48.2093 23.9905C48.0193 24.4205 47.9243 24.8905 47.9243 25.4005V30.0355H46.3793V21.4555H47.9243Z" fill="#1A1A1A"/>
</svg>
