<svg width="99" height="46" viewBox="0 0 99 46" fill="none" xmlns="http://www.w3.org/2000/svg">
<rect x="0.425781" y="0.642578" width="97.3418" height="44.7925" rx="22.3962" fill="url(#paint0_linear_2561_475)"/>
<rect x="53.4258" y="0.642578" width="45.2676" height="44.7925" rx="22.3962" fill="url(#paint1_linear_2561_475)"/>
<g filter="url(#filter0_f_2561_475)">
<path d="M69.9348 8.87243C73.0423 8.22028 74.7854 11.7036 74.6491 13.2244C74.3579 16.4756 72.5943 18.483 70.8445 18.899C67.3016 19.7411 65.5904 17.939 65.5904 15.2229C65.5904 13.5762 65.6174 9.77848 69.9348 8.87243Z" fill="#FFFEF6"/>
</g>
<g filter="url(#filter1_f_2561_475)">
<path d="M75.3825 23.2465C76.1697 21.8806 78.0356 22.3884 78.5533 22.9422C79.6601 24.126 79.8193 25.4431 79.3941 26.2283C78.5331 27.8182 77.2999 27.855 76.2947 26.956C75.6853 26.411 74.2888 25.1441 75.3825 23.2465Z" fill="#E8E8E8" fill-opacity="0.84"/>
</g>
<g filter="url(#filter2_f_2561_475)">
<path d="M56.8275 18.0194C59.1226 7.40592 67.4723 3.65728 70.9382 3.09943C78.8743 1.474 85.9931 5.63397 88.5033 8.02436C90.5647 9.98734 89.6063 11.3703 76.7934 12.2309C63.9806 13.0914 63.8052 28.3665 65.3191 35.8964C61.7733 34.4622 54.5325 28.6329 56.8275 18.0194Z" fill="url(#paint2_linear_2561_475)"/>
</g>
<g filter="url(#filter3_f_2561_475)">
<path d="M95.384 27.451C92.2199 38.2942 83.2798 41.5679 79.6424 41.8911C71.2881 42.9923 64.2085 38.1508 61.7803 35.4854C59.7862 33.2966 55.7627 26.6148 69.1207 26.6669C82.4787 26.7191 88.9073 16.2003 87.8918 8.27566C91.4652 10.0254 98.5482 16.6078 95.384 27.451Z" fill="url(#paint3_linear_2561_475)"/>
</g>
<defs>
<filter id="filter0_f_2561_475" x="62.3908" y="5.59199" width="15.4654" height="16.7159" filterUnits="userSpaceOnUse" color-interpolation-filters="sRGB">
<feFlood flood-opacity="0" result="BackgroundImageFix"/>
<feBlend mode="normal" in="SourceGraphic" in2="BackgroundImageFix" result="shape"/>
<feGaussianBlur stdDeviation="1.6" result="effect1_foregroundBlur_2561_475"/>
</filter>
<filter id="filter1_f_2561_475" x="70.9766" y="18.3726" width="12.6348" height="13.1753" filterUnits="userSpaceOnUse" color-interpolation-filters="sRGB">
<feFlood flood-opacity="0" result="BackgroundImageFix"/>
<feBlend mode="normal" in="SourceGraphic" in2="BackgroundImageFix" result="shape"/>
<feGaussianBlur stdDeviation="2" result="effect1_foregroundBlur_2561_475"/>
</filter>
<filter id="filter2_f_2561_475" x="55.4867" y="1.83242" width="34.758" height="34.9641" filterUnits="userSpaceOnUse" color-interpolation-filters="sRGB">
<feFlood flood-opacity="0" result="BackgroundImageFix"/>
<feBlend mode="normal" in="SourceGraphic" in2="BackgroundImageFix" result="shape"/>
<feGaussianBlur stdDeviation="0.45" result="effect1_foregroundBlur_2561_475"/>
</filter>
<filter id="filter3_f_2561_475" x="57.523" y="6.17588" width="40.7547" height="37.9754" filterUnits="userSpaceOnUse" color-interpolation-filters="sRGB">
<feFlood flood-opacity="0" result="BackgroundImageFix"/>
<feBlend mode="normal" in="SourceGraphic" in2="BackgroundImageFix" result="shape"/>
<feGaussianBlur stdDeviation="1.05" result="effect1_foregroundBlur_2561_475"/>
</filter>
<linearGradient id="paint0_linear_2561_475" x1="49.0967" y1="0.642578" x2="49.0967" y2="45.4351" gradientUnits="userSpaceOnUse">
<stop stop-color="#8C8A82"/>
<stop offset="0.615385" stop-color="#C0BFBB"/>
</linearGradient>
<linearGradient id="paint1_linear_2561_475" x1="63.2758" y1="4.28496" x2="91.3241" y2="41.0028" gradientUnits="userSpaceOnUse">
<stop stop-color="#EBE8C6"/>
<stop offset="1" stop-color="#5B5A4E"/>
</linearGradient>
<linearGradient id="paint2_linear_2561_475" x1="61.8985" y1="8.16994" x2="68.2924" y2="15.5193" gradientUnits="userSpaceOnUse">
<stop stop-color="#EBEADA"/>
<stop offset="1" stop-color="white" stop-opacity="0"/>
</linearGradient>
<linearGradient id="paint3_linear_2561_475" x1="88.3652" y1="37.1198" x2="80.9641" y2="27.3154" gradientUnits="userSpaceOnUse">
<stop stop-color="#464433"/>
<stop offset="1" stop-color="#808080" stop-opacity="0"/>
</linearGradient>
</defs>
</svg>
