<svg width="46" height="46" viewBox="0 0 46 46" fill="none" xmlns="http://www.w3.org/2000/svg">
<rect x="0.425781" y="0.642578" width="45.2676" height="44.7925" rx="22.3962" fill="url(#paint0_linear_2993_447)"/>
<g filter="url(#filter0_f_2993_447)">
<path d="M16.9348 8.87243C20.0423 8.22028 21.7854 11.7036 21.6491 13.2244C21.3579 16.4756 19.5943 18.483 17.8445 18.899C14.3016 19.7411 12.5904 17.939 12.5904 15.2229C12.5904 13.5762 12.6174 9.77848 16.9348 8.87243Z" fill="#FFFEF6"/>
</g>
<g filter="url(#filter1_f_2993_447)">
<path d="M22.3825 23.2465C23.1697 21.8806 25.0356 22.3884 25.5533 22.9422C26.6601 24.126 26.8193 25.4431 26.3941 26.2283C25.5331 27.8182 24.2999 27.855 23.2947 26.956C22.6853 26.411 21.2888 25.1441 22.3825 23.2465Z" fill="#E8E8E8" fill-opacity="0.84"/>
</g>
<g filter="url(#filter2_f_2993_447)">
<path d="M3.82753 18.0194C6.12256 7.40592 14.4723 3.65728 17.9382 3.09943C25.8743 1.474 32.9931 5.63397 35.5033 8.02436C37.5647 9.98734 36.6063 11.3703 23.7934 12.2309C10.9806 13.0914 10.8052 28.3665 12.3191 35.8964C8.77328 34.4622 1.5325 28.6329 3.82753 18.0194Z" fill="url(#paint1_linear_2993_447)"/>
</g>
<g filter="url(#filter3_f_2993_447)">
<path d="M42.384 27.451C39.2199 38.2942 30.2798 41.5679 26.6424 41.8911C18.2881 42.9923 11.2085 38.1508 8.78029 35.4854C6.78622 33.2966 2.76267 26.6148 16.1207 26.6669C29.4787 26.7191 35.9073 16.2003 34.8918 8.27566C38.4652 10.0254 45.5482 16.6078 42.384 27.451Z" fill="url(#paint2_linear_2993_447)"/>
</g>
<defs>
<filter id="filter0_f_2993_447" x="9.39082" y="5.59199" width="15.4654" height="16.7159" filterUnits="userSpaceOnUse" color-interpolation-filters="sRGB">
<feFlood flood-opacity="0" result="BackgroundImageFix"/>
<feBlend mode="normal" in="SourceGraphic" in2="BackgroundImageFix" result="shape"/>
<feGaussianBlur stdDeviation="1.6" result="effect1_foregroundBlur_2993_447"/>
</filter>
<filter id="filter1_f_2993_447" x="17.9766" y="18.3726" width="12.6348" height="13.1753" filterUnits="userSpaceOnUse" color-interpolation-filters="sRGB">
<feFlood flood-opacity="0" result="BackgroundImageFix"/>
<feBlend mode="normal" in="SourceGraphic" in2="BackgroundImageFix" result="shape"/>
<feGaussianBlur stdDeviation="2" result="effect1_foregroundBlur_2993_447"/>
</filter>
<filter id="filter2_f_2993_447" x="2.48672" y="1.83242" width="34.758" height="34.9641" filterUnits="userSpaceOnUse" color-interpolation-filters="sRGB">
<feFlood flood-opacity="0" result="BackgroundImageFix"/>
<feBlend mode="normal" in="SourceGraphic" in2="BackgroundImageFix" result="shape"/>
<feGaussianBlur stdDeviation="0.45" result="effect1_foregroundBlur_2993_447"/>
</filter>
<filter id="filter3_f_2993_447" x="4.52305" y="6.17588" width="40.7547" height="37.9754" filterUnits="userSpaceOnUse" color-interpolation-filters="sRGB">
<feFlood flood-opacity="0" result="BackgroundImageFix"/>
<feBlend mode="normal" in="SourceGraphic" in2="BackgroundImageFix" result="shape"/>
<feGaussianBlur stdDeviation="1.05" result="effect1_foregroundBlur_2993_447"/>
</filter>
<linearGradient id="paint0_linear_2993_447" x1="10.2758" y1="4.28496" x2="38.3241" y2="41.0028" gradientUnits="userSpaceOnUse">
<stop stop-color="#EBE8C6"/>
<stop offset="1" stop-color="#5B5A4E"/>
</linearGradient>
<linearGradient id="paint1_linear_2993_447" x1="8.89852" y1="8.16994" x2="15.2924" y2="15.5193" gradientUnits="userSpaceOnUse">
<stop stop-color="#EBEADA"/>
<stop offset="1" stop-color="white" stop-opacity="0"/>
</linearGradient>
<linearGradient id="paint2_linear_2993_447" x1="35.3652" y1="37.1198" x2="27.9641" y2="27.3154" gradientUnits="userSpaceOnUse">
<stop stop-color="#464433"/>
<stop offset="1" stop-color="#808080" stop-opacity="0"/>
</linearGradient>
</defs>
</svg>
