<svg width="46" height="46" viewBox="0 0 46 46" fill="none" xmlns="http://www.w3.org/2000/svg">
<rect x="0.425781" y="0.651367" width="45.2676" height="44.7925" rx="22.3962" fill="url(#paint0_linear_2993_438)"/>
<g filter="url(#filter0_f_2993_438)">
<path d="M16.9348 8.88122C20.0423 8.22907 21.7854 11.7124 21.6491 13.2332C21.3579 16.4844 19.5943 18.4918 17.8445 18.9078C14.3016 19.7499 12.5904 17.9478 12.5904 15.2317C12.5904 13.585 12.6174 9.78727 16.9348 8.88122Z" fill="white"/>
</g>
<g filter="url(#filter1_f_2993_438)">
<path d="M22.3825 23.2552C23.1697 21.8894 25.0356 22.3972 25.5533 22.951C26.6601 24.1348 26.8193 25.4519 26.3941 26.2371C25.5331 27.827 24.2999 27.8638 23.2947 26.9648C22.6853 26.4198 21.2888 25.1529 22.3825 23.2552Z" fill="#E8E8E8"/>
</g>
<g filter="url(#filter2_f_2993_438)">
<path d="M3.82753 18.0282C6.12256 7.41471 14.4723 3.66607 17.9382 3.10822C25.8743 1.48278 32.9931 5.64276 35.5033 8.03315C37.5647 9.99613 36.6063 11.3791 23.7934 12.2397C10.9806 13.1002 10.8052 28.3753 12.3191 35.9052C8.77328 34.4709 1.5325 28.6417 3.82753 18.0282Z" fill="url(#paint1_linear_2993_438)"/>
</g>
<g filter="url(#filter3_f_2993_438)">
<path d="M42.384 27.4598C39.2199 38.303 30.2798 41.5767 26.6424 41.8999C18.2881 43.0011 11.2085 38.1596 8.78029 35.4942C6.78622 33.3054 2.76267 26.6236 16.1207 26.6757C29.4787 26.7279 35.9073 16.2091 34.8918 8.28445C38.4652 10.0342 45.5482 16.6166 42.384 27.4598Z" fill="url(#paint2_linear_2993_438)"/>
</g>
<defs>
<filter id="filter0_f_2993_438" x="9.39082" y="5.60078" width="15.4654" height="16.7159" filterUnits="userSpaceOnUse" color-interpolation-filters="sRGB">
<feFlood flood-opacity="0" result="BackgroundImageFix"/>
<feBlend mode="normal" in="SourceGraphic" in2="BackgroundImageFix" result="shape"/>
<feGaussianBlur stdDeviation="1.6" result="effect1_foregroundBlur_2993_438"/>
</filter>
<filter id="filter1_f_2993_438" x="17.9766" y="18.3813" width="12.6348" height="13.1753" filterUnits="userSpaceOnUse" color-interpolation-filters="sRGB">
<feFlood flood-opacity="0" result="BackgroundImageFix"/>
<feBlend mode="normal" in="SourceGraphic" in2="BackgroundImageFix" result="shape"/>
<feGaussianBlur stdDeviation="2" result="effect1_foregroundBlur_2993_438"/>
</filter>
<filter id="filter2_f_2993_438" x="2.48672" y="1.84121" width="34.758" height="34.9641" filterUnits="userSpaceOnUse" color-interpolation-filters="sRGB">
<feFlood flood-opacity="0" result="BackgroundImageFix"/>
<feBlend mode="normal" in="SourceGraphic" in2="BackgroundImageFix" result="shape"/>
<feGaussianBlur stdDeviation="0.45" result="effect1_foregroundBlur_2993_438"/>
</filter>
<filter id="filter3_f_2993_438" x="4.52305" y="6.18467" width="40.7547" height="37.9754" filterUnits="userSpaceOnUse" color-interpolation-filters="sRGB">
<feFlood flood-opacity="0" result="BackgroundImageFix"/>
<feBlend mode="normal" in="SourceGraphic" in2="BackgroundImageFix" result="shape"/>
<feGaussianBlur stdDeviation="1.05" result="effect1_foregroundBlur_2993_438"/>
</filter>
<linearGradient id="paint0_linear_2993_438" x1="10.2758" y1="4.29375" x2="38.3241" y2="41.0116" gradientUnits="userSpaceOnUse">
<stop stop-color="#DADADA"/>
<stop offset="1" stop-color="#898989"/>
</linearGradient>
<linearGradient id="paint1_linear_2993_438" x1="8.89852" y1="8.17873" x2="15.2924" y2="15.5281" gradientUnits="userSpaceOnUse">
<stop stop-color="white"/>
<stop offset="1" stop-color="white" stop-opacity="0"/>
</linearGradient>
<linearGradient id="paint2_linear_2993_438" x1="35.3652" y1="37.1286" x2="27.9641" y2="27.3242" gradientUnits="userSpaceOnUse">
<stop stop-color="#808080"/>
<stop offset="1" stop-color="#808080" stop-opacity="0"/>
</linearGradient>
</defs>
</svg>
