<svg width="74" height="20" viewBox="0 0 74 20" fill="none" xmlns="http://www.w3.org/2000/svg">
<path d="M0.813366 14.9917V0.446244H2.57473V13.4292H9.33609V14.9917H0.813366ZM11.8361 14.9917V4.08261H13.5122V14.9917H11.8361ZM12.6884 2.26443C12.035 2.26443 11.4952 1.75306 11.4952 1.12806C11.4952 0.503063 12.035 -0.00830078 12.6884 -0.00830078C13.3418 -0.00830078 13.8815 0.503063 13.8815 1.12806C13.8815 1.75306 13.3418 2.26443 12.6884 2.26443ZM20.9856 19.3099C18.5495 19.3099 17.2072 18.2658 16.5254 17.1224L17.8606 16.1849C18.308 16.7886 19.0041 17.8326 20.9856 17.8326C22.747 17.8326 24.0254 17.0087 24.0254 15.1906V12.9747H23.8833C23.514 13.5712 22.8322 14.8212 20.7015 14.8212C18.0595 14.8212 16.0708 12.8894 16.0708 9.48034C16.0708 6.12806 17.9742 3.94056 20.7299 3.94056C22.8606 3.94056 23.5424 5.24738 23.9117 5.81556H24.0822V4.08261H25.7015V15.3042C25.7015 18.1167 23.5992 19.3099 20.9856 19.3099ZM20.9288 13.3156C22.9458 13.3156 24.0538 11.8667 24.0538 9.45193C24.0538 7.09397 22.9742 5.44624 20.9288 5.44624C18.7981 5.44624 17.747 7.23602 17.747 9.45193C17.747 11.7247 18.8265 13.3156 20.9288 13.3156ZM30.4458 8.4292V14.9917H28.7697V0.446244H30.4458V5.78715H30.5879C31.0992 4.65789 32.0793 3.94056 33.7981 3.94056C36.0282 3.94056 37.5197 5.25448 37.5197 8.05988V14.9917H35.8436V8.17352C35.8436 6.44056 34.8918 5.44624 33.3151 5.44624C31.6603 5.44624 30.4458 6.52579 30.4458 8.4292ZM45.3304 4.08261V5.50306H43.0009V11.8667C43.0009 13.2872 43.7111 13.5144 44.4497 13.5144C44.819 13.5144 45.0463 13.4576 45.1884 13.4292L45.5293 14.9349C45.302 15.0201 44.9043 15.1337 44.2793 15.1337C42.8588 15.1337 41.3247 14.2247 41.3247 12.3212V5.50306H39.677V4.08261H41.3247V1.46897H43.0009V4.08261H45.3304ZM47.8517 14.9917V4.08261H49.5279V14.9917H47.8517ZM48.704 2.26443C48.0506 2.26443 47.5108 1.75306 47.5108 1.12806C47.5108 0.503063 48.0506 -0.00830078 48.704 -0.00830078C49.3574 -0.00830078 49.8972 0.503063 49.8972 1.12806C49.8972 1.75306 49.3574 2.26443 48.704 2.26443ZM54.2739 8.4292V14.9917H52.5978V4.08261H54.2171V5.78715H54.3592C54.8705 4.6792 55.8933 3.94056 57.541 3.94056C59.7498 3.94056 61.2342 5.27579 61.2342 8.05988V14.9917H59.558V8.17352C59.558 6.46187 58.6134 5.44624 57.058 5.44624C55.4529 5.44624 54.2739 6.52579 54.2739 8.4292ZM68.7004 19.3099C66.2644 19.3099 64.922 18.2658 64.2402 17.1224L65.5754 16.1849C66.0229 16.7886 66.7189 17.8326 68.7004 17.8326C70.4618 17.8326 71.7402 17.0087 71.7402 15.1906V12.9747H71.5982C71.2288 13.5712 70.547 14.8212 68.4163 14.8212C65.7743 14.8212 63.7857 12.8894 63.7857 9.48034C63.7857 6.12806 65.6891 3.94056 68.4448 3.94056C70.5754 3.94056 71.2573 5.24738 71.6266 5.81556H71.797V4.08261H73.4163V15.3042C73.4163 18.1167 71.3141 19.3099 68.7004 19.3099ZM68.6436 13.3156C70.6607 13.3156 71.7686 11.8667 71.7686 9.45193C71.7686 7.09397 70.6891 5.44624 68.6436 5.44624C66.5129 5.44624 65.4618 7.23602 65.4618 9.45193C65.4618 11.7247 66.5413 13.3156 68.6436 13.3156Z" fill="#1A1A1A"/>
</svg>
