<svg width="43" height="16" viewBox="0 0 43 16" fill="none" xmlns="http://www.w3.org/2000/svg">
<path d="M0.0086782 0.870561H2.11095L7.05413 12.9444H7.22459L12.1678 0.870561H14.27V15.416H12.6223V4.36488H12.4803L7.93481 15.416H6.34391L1.79845 4.36488H1.65641V15.416H0.0086782V0.870561ZM20.7846 15.6717C18.7107 15.6717 17.063 14.4501 17.063 12.3194C17.063 9.81942 19.2718 9.37198 21.296 9.1092C23.2846 8.85352 24.1085 8.92454 24.1085 8.11488V8.05806C24.1085 6.65891 23.3485 5.84215 21.8073 5.84215C20.2093 5.84215 19.3357 6.69442 18.9664 7.48988L17.3755 6.9217C18.2278 4.93306 20.1028 4.36488 21.7505 4.36488C23.1426 4.36488 25.7846 4.76261 25.7846 8.22852V15.416H24.1085V13.9387H24.0232C23.6823 14.649 22.688 15.6717 20.7846 15.6717ZM21.0403 14.166C23.0289 14.166 24.1085 12.8308 24.1085 11.4672V9.93306C23.8244 10.274 21.921 10.4728 21.2107 10.5581C19.9039 10.7285 18.7391 11.1262 18.7391 12.4047C18.7391 13.5694 19.7051 14.166 21.0403 14.166ZM28.8439 15.416V4.50692H30.52V15.416H28.8439ZM29.6962 2.68874C29.0428 2.68874 28.503 2.17738 28.503 1.55238C28.503 0.927379 29.0428 0.416016 29.6962 0.416016C30.3496 0.416016 30.8894 0.927379 30.8894 1.55238C30.8894 2.17738 30.3496 2.68874 29.6962 2.68874ZM35.2661 8.85352V15.416H33.59V4.50692H35.2093V6.21147H35.3514C35.8627 5.10352 36.8855 4.36488 38.5332 4.36488C40.742 4.36488 42.2264 5.70011 42.2264 8.4842V15.416H40.5502V8.59783C40.5502 6.88619 39.6056 5.87056 38.0502 5.87056C36.4451 5.87056 35.2661 6.95011 35.2661 8.85352Z" fill="#1A1A1A"/>
</svg>
