<svg width="58" height="17" viewBox="0 0 58 17" fill="none" xmlns="http://www.w3.org/2000/svg">
<path d="M9.38119 4.99862C9.21074 3.56396 7.87551 2.7259 6.11415 2.7259C4.18233 2.7259 2.90392 3.74862 2.90392 5.14067C2.90392 6.70317 4.63687 7.27135 5.71642 7.55544L7.19369 7.95317C8.69937 8.3509 11.2846 9.23158 11.2846 11.9589C11.2846 14.3168 9.38119 16.1634 6.02892 16.1634C2.90392 16.1634 0.972101 14.5441 0.801647 12.1577H2.61983C2.76187 13.8054 4.29597 14.5725 6.02892 14.5725C8.04597 14.5725 9.58006 13.5214 9.58006 11.9304C9.58006 10.4816 8.21642 9.94181 6.68233 9.51567L4.89256 9.00431C2.61983 8.3509 1.19937 7.18612 1.19937 5.2259C1.19937 2.78271 3.38687 1.1634 6.17097 1.1634C8.98347 1.1634 11.0076 2.80402 11.0857 4.99862H9.38119ZM18.5271 16.135C15.3737 16.135 13.4419 13.8907 13.4419 10.5384C13.4419 7.18612 15.4021 4.85658 18.3567 4.85658C20.6294 4.85658 23.0442 6.24862 23.0442 10.3111V11.0214H15.1252C15.2033 13.358 16.5598 14.6293 18.5271 14.6293C19.8411 14.6293 20.8283 14.0611 21.2544 12.9248L22.8737 13.3793C22.3624 15.027 20.7431 16.135 18.5271 16.135ZM15.1252 9.57249H21.3396C21.3396 7.7259 20.1749 6.36226 18.3567 6.36226C16.4391 6.36226 15.2388 7.87504 15.1252 9.57249ZM25.5939 15.9077V4.99862H27.2132V6.64635H27.3269C27.7246 5.5668 28.861 4.82817 30.1678 4.82817C30.4163 4.82817 30.8567 4.84237 31.0485 4.85658V6.56112C30.9348 6.53271 30.4732 6.44749 30.0257 6.44749C28.4348 6.44749 27.27 7.52703 27.27 9.00431V15.9077H25.5939ZM33.0353 15.9077V4.99862H34.7114V15.9077H33.0353ZM33.8876 3.18044C33.2342 3.18044 32.6944 2.66908 32.6944 2.04408C32.6944 1.41908 33.2342 0.907715 33.8876 0.907715C34.541 0.907715 35.0808 1.41908 35.0808 2.04408C35.0808 2.66908 34.541 3.18044 33.8876 3.18044ZM42.3553 16.135C39.2019 16.135 37.27 13.8907 37.27 10.5384C37.27 7.18612 39.2303 4.85658 42.1848 4.85658C44.4575 4.85658 46.8723 6.24862 46.8723 10.3111V11.0214H38.9533C39.0314 13.358 40.3879 14.6293 42.3553 14.6293C43.6692 14.6293 44.6564 14.0611 45.0825 12.9248L46.7019 13.3793C46.1905 15.027 44.5712 16.135 42.3553 16.135ZM38.9533 9.57249H45.1678C45.1678 7.7259 44.003 6.36226 42.1848 6.36226C40.2672 6.36226 39.0669 7.87504 38.9533 9.57249ZM57.1493 7.44181L55.6436 7.86794C55.3524 7.1151 54.7487 6.30544 53.2857 6.30544C51.9504 6.30544 50.9561 6.98726 50.9561 7.92476C50.9561 8.76283 51.5385 9.19607 52.8311 9.51567L54.4504 9.9134C56.3965 10.3892 57.3482 11.3481 57.3482 12.8679C57.3482 14.75 55.6223 16.135 53.0868 16.135C50.8567 16.135 49.3297 15.1478 48.9391 13.2941L50.53 12.8964C50.8283 14.0682 51.6877 14.6577 53.0584 14.6577C54.6209 14.6577 55.6152 13.8907 55.6152 12.9532C55.6152 12.2003 55.0967 11.6748 53.9959 11.4191L52.1777 10.9929C50.1749 10.5242 49.28 9.51567 49.28 8.00999C49.28 6.1634 50.9845 4.85658 53.2857 4.85658C55.4448 4.85658 56.6237 5.89351 57.1493 7.44181Z" fill="#1A1A1A"/>
</svg>
