<svg width="46" height="47" viewBox="0 0 46 47" fill="none" xmlns="http://www.w3.org/2000/svg">
<g clip-path="url(#clip0_3190_553)">
<rect x="10.0732" y="-1.56006" width="35.9268" height="35.9268" fill="#1A1A1A"/>
<path d="M23.2793 17C23.2793 17.5304 23.0686 18.0391 22.6935 18.4142C22.3184 18.7893 21.8097 19 21.2793 19C20.7489 19 20.2402 18.7893 19.8651 18.4142C19.49 18.0391 19.2793 17.5304 19.2793 17C19.2793 16.4696 19.49 15.9609 19.8651 15.5858C20.2402 15.2107 20.7489 15 21.2793 15C21.8097 15 22.3184 15.2107 22.6935 15.5858C23.0686 15.9609 23.2793 16.4696 23.2793 17ZM30.2793 17C30.2793 17.5304 30.0686 18.0391 29.6935 18.4142C29.3184 18.7893 28.8097 19 28.2793 19C27.7489 19 27.2402 18.7893 26.8651 18.4142C26.49 18.0391 26.2793 17.5304 26.2793 17C26.2793 16.4696 26.49 15.9609 26.8651 15.5858C27.2402 15.2107 27.7489 15 28.2793 15C28.8097 15 29.3184 15.2107 29.6935 15.5858C30.0686 15.9609 30.2793 16.4696 30.2793 17ZM37.2793 17C37.2793 17.5304 37.0686 18.0391 36.6935 18.4142C36.3184 18.7893 35.8097 19 35.2793 19C34.7489 19 34.2402 18.7893 33.8651 18.4142C33.49 18.0391 33.2793 17.5304 33.2793 17C33.2793 16.4696 33.49 15.9609 33.8651 15.5858C34.2402 15.2107 34.7489 15 35.2793 15C35.8097 15 36.3184 15.2107 36.6935 15.5858C37.0686 15.9609 37.2793 16.4696 37.2793 17Z" fill="#F6F6F6"/>
</g>
<defs>
<clipPath id="clip0_3190_553">
<rect width="46" height="46" fill="white" transform="translate(0 0.5)"/>
</clipPath>
</defs>
</svg>
