<svg width="277" height="35" viewBox="0 0 277 35" fill="none" xmlns="http://www.w3.org/2000/svg">
<path d="M270.585 20.7776C271.49 20.7776 272.306 20.9387 273.034 21.261C273.761 21.5729 274.344 22.0147 274.78 22.5865C275.217 23.1583 275.461 23.8029 275.513 24.5202H273.829C273.735 23.8341 273.392 23.2727 272.8 22.836C272.218 22.3994 271.454 22.1811 270.507 22.1811C269.551 22.1811 268.797 22.363 268.246 22.7269C267.706 23.0803 267.435 23.543 267.435 24.1148C267.435 24.541 267.565 24.8997 267.825 25.1908C268.085 25.4715 268.485 25.7158 269.026 25.9237C269.577 26.1316 270.32 26.3343 271.256 26.5319C272.763 26.8542 273.855 27.3168 274.531 27.9198C275.217 28.5123 275.56 29.2817 275.56 30.2277C275.56 30.9554 275.342 31.5948 274.905 32.1458C274.468 32.6864 273.871 33.1023 273.112 33.3933C272.353 33.6948 271.511 33.8456 270.585 33.8456C269.619 33.8456 268.751 33.6792 267.981 33.3466C267.222 33.0139 266.614 32.5461 266.157 31.9431C265.699 31.3401 265.445 30.6384 265.393 29.8379H267.077C267.16 30.6072 267.524 31.2309 268.168 31.7092C268.823 32.1874 269.665 32.4265 270.695 32.4265C271.308 32.4265 271.859 32.3381 272.348 32.1614C272.836 31.9847 273.216 31.7352 273.486 31.4129C273.756 31.0906 273.891 30.7267 273.891 30.3213C273.891 29.8638 273.761 29.4844 273.502 29.1829C273.242 28.8814 272.836 28.6267 272.285 28.4188C271.745 28.2005 270.996 27.9925 270.04 27.795C268.584 27.4935 267.508 27.0569 266.812 26.4851C266.126 25.9133 265.782 25.1232 265.782 24.1148C265.782 23.439 265.985 22.8516 266.391 22.3526C266.806 21.8432 267.378 21.4533 268.106 21.183C268.834 20.9127 269.66 20.7776 270.585 20.7776Z" fill="#1A1A1A"/>
<path d="M252.252 21.0737L257.071 29.557L261.889 21.0737H263.324V33.5647H261.687V24.3485L257.663 31.4595H256.478L252.455 24.3485V33.5647H250.817V21.0737H252.252Z" fill="#1A1A1A"/>
<path d="M246.116 30.4771H240.112L238.864 33.5647H237.149L242.295 21.0737H244.026L249.157 33.5647H247.363L246.116 30.4771ZM245.539 29.0268L243.122 22.9918L240.689 29.0268H245.539Z" fill="#1A1A1A"/>
<path d="M235.251 21.0737V22.524H217.962V26.4537H234.705V27.904H217.962V32.1145H235.391V33.5647H216.324V21.0737L235.251 21.0737Z" fill="#1A1A1A"/>
<path d="M212.649 33.5647L209.811 29.1204C209.499 29.1412 209.265 29.1516 209.109 29.1516H206.068V33.5647H204.431V21.0737H209.109C210.149 21.0737 211.043 21.2401 211.791 21.5727C212.55 21.895 213.127 22.3629 213.522 22.9762C213.917 23.5792 214.115 24.2913 214.115 25.1126C214.115 25.9963 213.886 26.7552 213.429 27.3894C212.971 28.0236 212.311 28.4914 211.448 28.7929L214.583 33.5647H212.649ZM208.984 27.6857C210.086 27.6857 210.944 27.4674 211.557 27.0307C212.171 26.5837 212.477 25.9443 212.477 25.1126C212.477 24.2809 212.171 23.6468 211.557 23.2101C210.944 22.7631 210.086 22.5396 208.984 22.5396H206.068V27.6857H208.984Z" fill="#1A1A1A"/>
<path d="M195.473 21.0737C196.887 21.0737 198.103 21.3336 199.122 21.8534C200.141 22.3733 200.921 23.1062 201.461 24.0522C202.002 24.9879 202.272 26.0795 202.272 27.327C202.272 28.5746 202.002 29.6662 201.461 30.6018C200.931 31.5375 200.151 32.2652 199.122 32.785C198.103 33.3048 196.887 33.5647 195.473 33.5647H191.044V21.0737H195.473ZM195.52 32.0833C197.111 32.0833 198.358 31.6674 199.263 30.8357C200.167 30.004 200.619 28.8345 200.619 27.327C200.619 25.8196 200.167 24.6448 199.263 23.8027C198.358 22.9606 197.111 22.5396 195.52 22.5396H192.682V32.0833H195.52Z" fill="#1A1A1A"/>
<path d="M139.399 32.8124L138.448 31.7832C137.928 32.199 137.351 32.5161 136.717 32.7344C136.093 32.9631 135.438 33.0775 134.752 33.0775C133.837 33.0775 133.036 32.9371 132.35 32.6564C131.675 32.3861 131.15 32.0015 130.775 31.5025C130.411 31.0034 130.229 30.4265 130.229 29.7715C130.229 28.971 130.495 28.2952 131.025 27.7442C131.565 27.1828 132.309 26.6682 133.255 26.2004C132.745 25.639 132.356 25.1244 132.085 24.6566C131.825 24.1784 131.695 23.6741 131.695 23.1439C131.695 22.5306 131.856 21.9848 132.179 21.5065C132.501 21.0283 132.943 20.6593 133.504 20.3993C134.076 20.129 134.715 19.9939 135.422 19.9939C136.129 19.9939 136.758 20.1186 137.309 20.3682C137.86 20.6177 138.287 20.9659 138.588 21.413C138.89 21.8496 139.04 22.3434 139.04 22.8944C139.04 23.487 138.895 24.0068 138.604 24.4539C138.313 24.8905 137.928 25.27 137.45 25.5922C136.982 25.9145 136.394 26.242 135.687 26.5747L138.51 29.6156C139.019 28.8462 139.331 27.9678 139.446 26.9801H140.943C140.87 27.6767 140.709 28.342 140.459 28.9762C140.22 29.6104 139.903 30.1821 139.508 30.6916L141.489 32.8124H139.399ZM135.438 21.2258C134.835 21.2258 134.326 21.4026 133.91 21.756C133.504 22.0991 133.302 22.5358 133.302 23.066C133.302 23.4818 133.411 23.8665 133.629 24.2199C133.858 24.5734 134.222 25.0152 134.721 25.5455C135.646 25.1296 136.332 24.7346 136.779 24.3603C137.237 23.986 137.465 23.5234 137.465 22.9724C137.465 22.4526 137.273 22.0315 136.888 21.7093C136.514 21.387 136.031 21.2258 135.438 21.2258ZM134.845 31.7208C135.823 31.7208 136.701 31.3985 137.481 30.7539L134.237 27.2608C133.426 27.6767 132.823 28.0665 132.428 28.4304C132.044 28.7839 131.851 29.2049 131.851 29.6935C131.851 30.3069 132.116 30.8007 132.647 31.175C133.187 31.5388 133.92 31.7208 134.845 31.7208Z" fill="#1A1A1A"/>
<path d="M77.3377 30.1545V34.3338H75.6847V30.1545L70.7881 21.8428H72.6438L76.5736 28.6263L80.6281 21.8428H82.3902L77.3377 30.1545Z" fill="#1A1A1A"/>
<path d="M65.1185 23.3086V34.3338H63.4811V23.3086H58.99V21.8428H69.5941V23.3086H65.1185Z" fill="#1A1A1A"/>
<path d="M57.051 34.3338H55.4136V21.8428H57.051V34.3338Z" fill="#1A1A1A"/>
<path d="M39.8881 32.8523H53.9404V34.3338H38.2507V21.8428H39.8881V32.8523Z" fill="#1A1A1A"/>
<path d="M33.0617 31.2461H27.0579L25.8103 34.3338H24.095L29.2411 21.8428H30.972L36.1025 34.3338H34.3092L33.0617 31.2461ZM32.4847 29.7958L30.0676 23.7609L27.6349 29.7958H32.4847Z" fill="#1A1A1A"/>
<path d="M22.8646 21.8428V23.293H15.6289V27.2228H22.3188V28.6731H15.6289V32.8835H23.0049V34.3338H13.9915V21.8428H22.8646Z" fill="#1A1A1A"/>
<path d="M10.3161 34.3335L7.47792 29.8892C7.16604 29.91 6.93212 29.9204 6.77618 29.9204H3.7353V34.3335H2.0979V21.8425H6.77618C7.8158 21.8425 8.70987 22.0089 9.45839 22.3415C10.2173 22.6638 10.7943 23.1317 11.1894 23.745C11.5844 24.348 11.7819 25.0601 11.7819 25.8814C11.7819 26.7651 11.5532 27.524 11.0958 28.1582C10.6384 28.7924 9.9782 29.2602 9.11532 29.5617L12.2498 34.3335H10.3161ZM6.65142 28.4545C7.75342 28.4545 8.6111 28.2362 9.22448 27.7995C9.83785 27.3525 10.1445 26.7131 10.1445 25.8814C10.1445 25.0497 9.83785 24.4156 9.22448 23.9789C8.6111 23.5319 7.75342 23.3084 6.65142 23.3084H3.7353V28.4545H6.65142Z" fill="#1A1A1A"/>
<path d="M236.341 1.3746L243.904 11.1054V1.29663H245.557V13.7876H244.014L236.45 4.05682V13.8656H234.813V1.3746H236.341Z" fill="#1A1A1A"/>
<path d="M232.569 1.37427V2.82453H225.333V6.75429H232.023V8.20455H225.333V12.415H232.71V13.8653H223.696V1.37427H232.569Z" fill="#1A1A1A"/>
<path d="M221.452 1.37427V2.82453H214.216V6.75429H220.906V8.20455H214.216V12.415H221.592V13.8653H212.578V1.37427H221.452Z" fill="#1A1A1A"/>
<path d="M210.853 1.37427L207.048 13.8653H205.395L202.385 3.90054L199.36 13.8653H197.707L193.917 1.37427H195.617L198.58 11.3858L201.527 1.37427H203.274L206.237 11.417L209.2 1.37427H210.853Z" fill="#1A1A1A"/>
<path d="M188.293 2.84013V13.8653H186.656V2.84013H182.165V1.37427H192.769V2.84013H188.293Z" fill="#1A1A1A"/>
<path d="M180.669 1.37427V2.82453H173.434V6.75429H180.123V8.20455H173.434V12.415H180.81V13.8653H171.796V1.37427H180.669Z" fill="#1A1A1A"/>
<path d="M164.773 1.37427C166.146 1.37427 167.206 1.68095 167.955 2.29433C168.714 2.9077 169.093 3.75499 169.093 4.83619C169.093 5.42877 168.906 5.97457 168.532 6.47359C168.168 6.96221 167.71 7.2741 167.159 7.40925C167.887 7.55479 168.49 7.89267 168.968 8.42287C169.446 8.95308 169.686 9.59244 169.686 10.341C169.686 11.4222 169.291 12.2799 168.5 12.914C167.721 13.5482 166.634 13.8653 165.241 13.8653H159.674V1.37427H164.773ZM164.727 6.87904C165.6 6.87904 166.27 6.70231 166.738 6.34884C167.206 5.99537 167.44 5.49115 167.44 4.83619C167.44 4.18123 167.206 3.67702 166.738 3.32355C166.27 2.97008 165.6 2.79334 164.727 2.79334H161.311V6.87904H164.727ZM165.194 12.4462C166.078 12.4462 166.769 12.2643 167.268 11.9004C167.778 11.5365 168.033 11.0167 168.033 10.341C168.033 9.66522 167.778 9.14541 167.268 8.78154C166.769 8.41767 166.078 8.23574 165.194 8.23574H161.311V12.4462H165.194Z" fill="#1A1A1A"/>
<path d="M76.089 1.86206V3.31233H68.8532V7.24208H75.5432V8.69235H68.8532V12.9028H76.2293V14.3531H67.2158V1.86206H76.089Z" fill="#1A1A1A"/>
<path d="M58.8897 14.6337C57.6525 14.6337 56.5349 14.353 55.5369 13.7916C54.5389 13.2302 53.754 12.4505 53.1822 11.4524C52.6208 10.4544 52.3401 9.33681 52.3401 8.09967C52.3401 6.86252 52.6208 5.74494 53.1822 4.7469C53.754 3.74887 54.5389 2.96916 55.5369 2.40776C56.5349 1.84637 57.6525 1.56567 58.8897 1.56567C59.9397 1.56567 60.8857 1.758 61.7278 2.14266C62.5803 2.51692 63.2821 3.04193 63.8331 3.71768C64.3944 4.39343 64.7843 5.17315 65.0026 6.05682H63.334C63.0637 5.15235 62.5387 4.42982 61.759 3.88922C60.9793 3.34862 60.0333 3.07832 58.9209 3.07832C57.9748 3.07832 57.1275 3.29664 56.379 3.73328C55.6305 4.15952 55.0431 4.7521 54.6168 5.51102C54.1906 6.26994 53.9775 7.13282 53.9775 8.09967C53.9775 9.05612 54.1906 9.919 54.6168 10.6883C55.0431 11.4472 55.6305 12.045 56.379 12.4817C57.1379 12.9079 57.9852 13.121 58.9209 13.121C59.6798 13.121 60.3763 12.9859 61.0105 12.7156C61.6447 12.4349 62.1697 12.0554 62.5855 11.5772C63.0118 11.099 63.3028 10.5636 63.4588 9.97098H65.1274C64.9403 10.8443 64.5608 11.6344 63.989 12.3413C63.4276 13.0482 62.7051 13.6044 61.8214 14.0099C60.9377 14.4257 59.9605 14.6337 58.8897 14.6337Z" fill="#1A1A1A"/>
<path d="M48.8083 11.2654H42.8045L41.5569 14.3531H39.8416L44.9877 1.86206H46.7186L51.8491 14.3531H50.0558L48.8083 11.2654ZM48.2313 9.81513L45.8142 3.78015L43.3814 9.81513H48.2313Z" fill="#1A1A1A"/>
<path d="M35.2022 1.86206C36.2626 1.86206 37.1775 2.04399 37.9468 2.40786C38.7265 2.76133 39.3191 3.26554 39.7245 3.9205C40.1404 4.57546 40.3483 5.33438 40.3483 6.19726C40.3483 7.06015 40.1404 7.81907 39.7245 8.47403C39.3191 9.12899 38.7265 9.6384 37.9468 10.0023C37.1775 10.3557 36.2626 10.5325 35.2022 10.5325H32.4108V14.3531H30.7734V1.86206H35.2022ZM35.0775 9.05101C36.221 9.05101 37.1099 8.8067 37.7441 8.31808C38.3886 7.81907 38.7109 7.11213 38.7109 6.19726C38.7109 5.2824 38.3886 4.58066 37.7441 4.09204C37.1099 3.59302 36.221 3.34352 35.0775 3.34352H32.4108V9.05101H35.0775Z" fill="#1A1A1A"/>
<path d="M23.7239 1.57349C24.6284 1.57349 25.4445 1.73463 26.1722 2.05691C26.8999 2.36879 27.4821 2.81063 27.9188 3.38242C28.3554 3.95421 28.5997 4.59877 28.6517 5.31611H26.9675C26.8739 4.62996 26.5309 4.06857 25.9383 3.63193C25.3561 3.19529 24.592 2.97697 23.6459 2.97697C22.6895 2.97697 21.9358 3.1589 21.3848 3.52277C20.8442 3.87624 20.5739 4.33887 20.5739 4.91066C20.5739 5.3369 20.7038 5.69557 20.9637 5.98666C21.2236 6.26736 21.6239 6.51167 22.1645 6.71959C22.7155 6.92752 23.4588 7.13024 24.3944 7.32777C25.9019 7.65005 26.9935 8.11268 27.6692 8.71566C28.3554 9.30824 28.6985 10.0776 28.6985 11.0236C28.6985 11.7513 28.4801 12.3907 28.0435 12.9417C27.6069 13.4823 27.0091 13.8981 26.2502 14.1892C25.4912 14.4907 24.6492 14.6415 23.7239 14.6415C22.7571 14.6415 21.889 14.4751 21.1197 14.1425C20.3607 13.8098 19.7526 13.342 19.2951 12.739C18.8377 12.136 18.583 11.4343 18.531 10.6338H20.2152C20.2984 11.4031 20.6622 12.0268 21.3068 12.5051C21.9617 12.9833 22.8038 13.2224 23.8331 13.2224C24.4464 13.2224 24.9974 13.134 25.486 12.9573C25.9747 12.7806 26.3541 12.5311 26.6244 12.2088C26.8947 11.8865 27.0299 11.5226 27.0299 11.1172C27.0299 10.6597 26.8999 10.2803 26.64 9.97879C26.3801 9.6773 25.9747 9.4226 25.4237 9.21467C24.8831 8.99635 24.1345 8.78843 23.1781 8.5909C21.7226 8.28941 20.6466 7.85277 19.9501 7.28099C19.2639 6.7092 18.9209 5.91909 18.9209 4.91066C18.9209 4.23491 19.1236 3.64752 19.529 3.14851C19.9449 2.63909 20.5167 2.24924 21.2444 1.97894C21.9721 1.70864 22.7986 1.57349 23.7239 1.57349Z" fill="#1A1A1A"/>
<path d="M10.0509 11.2654H4.04714L2.7996 14.3531H1.08423L6.23033 1.86206H7.9613L13.0918 14.3531H11.2985L10.0509 11.2654ZM9.47394 9.81513L7.05683 3.78015L4.62413 9.81513H9.47394Z" fill="#1A1A1A"/>
</svg>
