<svg width="138" height="18" viewBox="0 0 138 18" fill="none" xmlns="http://www.w3.org/2000/svg">
<path d="M6.50973 17.6782C5.38973 17.6782 4.40306 17.4649 3.54973 17.0382C2.70973 16.6249 2.05639 16.0515 1.58973 15.3182C1.12306 14.5715 0.869727 13.7315 0.829727 12.7982H2.90973C2.93639 13.6915 3.26973 14.4249 3.90973 14.9982C4.54973 15.5715 5.41639 15.8582 6.50973 15.8582C7.24306 15.8582 7.87639 15.7315 8.40973 15.4782C8.95639 15.2249 9.36973 14.8782 9.64973 14.4382C9.94306 13.9982 10.0897 13.5115 10.0897 12.9782C10.0897 12.0849 9.74973 11.3849 9.06973 10.8782C8.38973 10.3715 7.44306 10.1182 6.22973 10.1182H4.46973V8.3782H6.22973C7.24306 8.3782 8.06306 8.1182 8.68973 7.5982C9.32973 7.06487 9.64973 6.38487 9.64973 5.5582C9.64973 5.0382 9.51639 4.56487 9.24973 4.1382C8.98306 3.6982 8.58973 3.35154 8.06973 3.0982C7.56306 2.84487 6.96973 2.7182 6.28973 2.7182C5.59639 2.7182 4.99639 2.86487 4.48973 3.1582C3.98306 3.45154 3.59639 3.84487 3.32973 4.3382C3.07639 4.83154 2.94973 5.36487 2.94973 5.9382H0.849727C0.849727 5.00487 1.07639 4.1582 1.52973 3.3982C1.98306 2.62487 2.62306 2.0182 3.44973 1.5782C4.27639 1.1382 5.22306 0.918202 6.28973 0.918202C7.35639 0.918202 8.30306 1.12487 9.12973 1.5382C9.95639 1.9382 10.5964 2.49154 11.0497 3.1982C11.5031 3.89154 11.7297 4.6582 11.7297 5.4982C11.7297 6.43154 11.4497 7.23154 10.8897 7.8982C10.3297 8.56487 9.65639 8.99154 8.86973 9.1782C9.76306 9.3382 10.5297 9.75154 11.1697 10.4182C11.8231 11.0715 12.1497 11.9182 12.1497 12.9582C12.1497 13.8515 11.9097 14.6582 11.4297 15.3782C10.9631 16.0849 10.2964 16.6449 9.42973 17.0582C8.57639 17.4715 7.60306 17.6782 6.50973 17.6782ZM19.6538 17.6782C18.5338 17.6782 17.5538 17.4649 16.7138 17.0382C15.8738 16.6249 15.2205 16.0515 14.7538 15.3182C14.2871 14.5715 14.0338 13.7315 13.9938 12.7982H16.0738C16.1005 13.6915 16.4271 14.4249 17.0538 14.9982C17.6938 15.5715 18.5605 15.8582 19.6538 15.8582C20.3738 15.8582 21.0071 15.7049 21.5538 15.3982C22.1005 15.0782 22.5205 14.6382 22.8138 14.0782C23.1071 13.5182 23.2538 12.8915 23.2538 12.1982C23.2538 11.5182 23.1005 10.9049 22.7938 10.3582C22.5005 9.81154 22.0805 9.38487 21.5338 9.0782C21.0005 8.77154 20.3871 8.6182 19.6938 8.6182C18.8805 8.6182 18.2005 8.7982 17.6538 9.1582C17.1071 9.50487 16.6805 9.9582 16.3738 10.5182H14.3138L14.7738 1.2982H24.4938V3.1182H16.6938L16.4138 8.3582C16.7605 7.93154 17.2405 7.57154 17.8538 7.2782C18.4671 6.97154 19.1938 6.8182 20.0338 6.8182C21.0338 6.8182 21.9338 7.04487 22.7338 7.4982C23.5471 7.95154 24.1805 8.58487 24.6338 9.3982C25.0871 10.2115 25.3138 11.1449 25.3138 12.1982C25.3138 13.2515 25.0738 14.1982 24.5938 15.0382C24.1271 15.8649 23.4605 16.5115 22.5938 16.9782C21.7405 17.4449 20.7605 17.6782 19.6538 17.6782ZM38.5779 13.4382C38.2712 14.6915 37.6245 15.6982 36.6379 16.4582C35.6645 17.2182 34.5179 17.5982 33.1979 17.5982C32.0779 17.5982 31.0712 17.3382 30.1779 16.8182C29.2845 16.2982 28.5845 15.5849 28.0779 14.6782C27.5712 13.7582 27.3179 12.7315 27.3179 11.5982C27.3179 10.4649 27.5645 9.44487 28.0579 8.5382C28.5645 7.6182 29.2645 6.8982 30.1579 6.3782C31.0512 5.8582 32.0512 5.5982 33.1579 5.5982C34.0379 5.5982 34.8512 5.7782 35.5979 6.1382C36.3579 6.48487 36.9912 6.97154 37.4979 7.5982C38.0045 8.22487 38.3512 8.93154 38.5379 9.7182H36.4379C36.1979 9.02487 35.7912 8.47154 35.2179 8.0582C34.6445 7.63154 33.9579 7.4182 33.1579 7.4182C32.4112 7.4182 31.7445 7.60487 31.1579 7.9782C30.5845 8.3382 30.1379 8.8382 29.8179 9.4782C29.4979 10.1049 29.3379 10.8115 29.3379 11.5982C29.3379 12.3849 29.4979 13.0982 29.8179 13.7382C30.1379 14.3649 30.5845 14.8649 31.1579 15.2382C31.7445 15.5982 32.4112 15.7782 33.1579 15.7782C33.9579 15.7782 34.6512 15.5649 35.2379 15.1382C35.8245 14.7115 36.2379 14.1449 36.4779 13.4382H38.5779ZM43.1614 5.8782V7.4982C43.4948 6.96487 43.9348 6.5182 44.4814 6.1582C45.0414 5.78487 45.7548 5.5982 46.6214 5.5982C47.4614 5.5982 48.1948 5.81154 48.8214 6.2382C49.4481 6.66487 49.9014 7.25154 50.1814 7.9982C50.5281 7.26487 51.0548 6.68487 51.7614 6.2582C52.4681 5.8182 53.2948 5.5982 54.2414 5.5982C55.0548 5.5982 55.7748 5.7982 56.4014 6.1982C57.0414 6.58487 57.5414 7.1382 57.9014 7.8582C58.2614 8.5782 58.4414 9.41154 58.4414 10.3582V17.3182H56.3814V10.6982C56.3814 9.67154 56.1481 8.86487 55.6814 8.2782C55.2148 7.69154 54.5748 7.3982 53.7614 7.3982C53.2014 7.3982 52.6948 7.56487 52.2414 7.8982C51.7881 8.23154 51.4348 8.68487 51.1814 9.2582C50.9281 9.83154 50.8014 10.4649 50.8014 11.1582V17.3182H48.7414V10.7782C48.7414 9.71154 48.5081 8.88487 48.0414 8.2982C47.5748 7.6982 46.9348 7.3982 46.1214 7.3982C45.5614 7.3982 45.0548 7.56487 44.6014 7.8982C44.1614 8.23154 43.8081 8.68487 43.5414 9.2582C43.2881 9.83154 43.1614 10.4582 43.1614 11.1382V17.3182H41.1014V5.8782H43.1614ZM70.5604 4.6382L72.9804 5.7182L72.1804 7.0982L70.0404 5.5382L70.3004 8.1982H68.7004L68.9604 5.5582L66.8004 7.0982L66.0204 5.7182L68.4404 4.6382L66.0204 3.5382L66.8204 2.1582L68.9604 3.7182L68.7004 1.0582H70.3004L70.0404 3.7182L72.2004 2.1782L72.9804 3.5382L70.5604 4.6382ZM80.2271 15.9582L85.9071 10.2582C86.9204 9.23154 87.6471 8.37154 88.0871 7.6782C88.5271 6.97154 88.7471 6.33154 88.7471 5.7582C88.7471 4.82487 88.4537 4.0982 87.8671 3.5782C87.2804 3.04487 86.4804 2.7782 85.4671 2.7782C84.7737 2.7782 84.1737 2.9382 83.6671 3.2582C83.1737 3.56487 82.7937 3.9782 82.5271 4.4982C82.2737 5.0182 82.1471 5.58487 82.1471 6.1982H80.0471C80.0471 5.22487 80.2671 4.3382 80.7071 3.5382C81.1604 2.7382 81.8004 2.10487 82.6271 1.6382C83.4537 1.1582 84.4071 0.918202 85.4871 0.918202C86.5537 0.918202 87.4871 1.1182 88.2871 1.5182C89.1004 1.9182 89.7271 2.48487 90.1671 3.2182C90.6071 3.95154 90.8271 4.79154 90.8271 5.7382C90.8271 6.5782 90.5737 7.41154 90.0671 8.2382C89.5604 9.06487 88.6871 10.1115 87.4471 11.3782L83.2471 15.4982H91.3671V17.3182H80.2271V15.9582ZM100.386 13.6982H92.3061V11.9182L99.9061 1.2982H102.386V11.9182H105.006V13.6982H102.386V17.3182H100.386V13.6982ZM100.386 11.9182V3.5982L94.4661 11.9182H100.386ZM117.679 13.4382C117.373 14.6915 116.726 15.6982 115.739 16.4582C114.766 17.2182 113.619 17.5982 112.299 17.5982C111.179 17.5982 110.173 17.3382 109.279 16.8182C108.386 16.2982 107.686 15.5849 107.179 14.6782C106.673 13.7582 106.419 12.7315 106.419 11.5982C106.419 10.4649 106.666 9.44487 107.159 8.5382C107.666 7.6182 108.366 6.8982 109.259 6.3782C110.153 5.8582 111.153 5.5982 112.259 5.5982C113.139 5.5982 113.953 5.7782 114.699 6.1382C115.459 6.48487 116.093 6.97154 116.599 7.5982C117.106 8.22487 117.453 8.93154 117.639 9.7182H115.539C115.299 9.02487 114.893 8.47154 114.319 8.0582C113.746 7.63154 113.059 7.4182 112.259 7.4182C111.513 7.4182 110.846 7.60487 110.259 7.9782C109.686 8.3382 109.239 8.8382 108.919 9.4782C108.599 10.1049 108.439 10.8115 108.439 11.5982C108.439 12.3849 108.599 13.0982 108.919 13.7382C109.239 14.3649 109.686 14.8649 110.259 15.2382C110.846 15.5982 111.513 15.7782 112.259 15.7782C113.059 15.7782 113.753 15.5649 114.339 15.1382C114.926 14.7115 115.339 14.1449 115.579 13.4382H117.679ZM122.263 5.8782V7.4982C122.596 6.96487 123.036 6.5182 123.583 6.1582C124.143 5.78487 124.856 5.5982 125.723 5.5982C126.563 5.5982 127.296 5.81154 127.923 6.2382C128.55 6.66487 129.003 7.25154 129.283 7.9982C129.63 7.26487 130.156 6.68487 130.863 6.2582C131.57 5.8182 132.396 5.5982 133.343 5.5982C134.156 5.5982 134.876 5.7982 135.503 6.1982C136.143 6.58487 136.643 7.1382 137.003 7.8582C137.363 8.5782 137.543 9.41154 137.543 10.3582V17.3182H135.483V10.6982C135.483 9.67154 135.25 8.86487 134.783 8.2782C134.316 7.69154 133.676 7.3982 132.863 7.3982C132.303 7.3982 131.796 7.56487 131.343 7.8982C130.89 8.23154 130.536 8.68487 130.283 9.2582C130.03 9.83154 129.903 10.4649 129.903 11.1582V17.3182H127.843V10.7782C127.843 9.71154 127.61 8.88487 127.143 8.2982C126.676 7.6982 126.036 7.3982 125.223 7.3982C124.663 7.3982 124.156 7.56487 123.703 7.8982C123.263 8.23154 122.91 8.68487 122.643 9.2582C122.39 9.83154 122.263 10.4582 122.263 11.1382V17.3182H120.203V5.8782H122.263Z" fill="#1A1A1A"/>
</svg>
