<svg width="72" height="21" viewBox="0 0 72 21" fill="none" xmlns="http://www.w3.org/2000/svg">
<path d="M10.3157 20.7756C8.41172 20.7756 6.69172 20.3436 5.15572 19.4796C3.61972 18.6156 2.41172 17.4156 1.53172 15.8796C0.667719 14.3436 0.235719 12.6236 0.235719 10.7196C0.235719 8.81556 0.667719 7.09556 1.53172 5.55956C2.41172 4.02356 3.61972 2.82356 5.15572 1.95956C6.69172 1.09556 8.41172 0.663561 10.3157 0.663561C11.9317 0.663561 13.3877 0.959561 14.6837 1.55156C15.9957 2.12756 17.0757 2.93556 17.9237 3.97556C18.7877 5.01556 19.3877 6.21556 19.7237 7.57556H17.1557C16.7397 6.18356 15.9317 5.07156 14.7317 4.23956C13.5317 3.40756 12.0757 2.99156 10.3637 2.99156C8.90772 2.99156 7.60372 3.32756 6.45172 3.99956C5.29972 4.65556 4.39572 5.56756 3.73972 6.73556C3.08372 7.90356 2.75572 9.23156 2.75572 10.7196C2.75572 12.1916 3.08372 13.5196 3.73972 14.7036C4.39572 15.8716 5.29972 16.7916 6.45172 17.4636C7.61972 18.1196 8.92372 18.4476 10.3637 18.4476C11.5317 18.4476 12.6037 18.2396 13.5797 17.8236C14.5557 17.3916 15.3637 16.8076 16.0037 16.0716C16.6597 15.3356 17.1077 14.5116 17.3477 13.5996H19.9157C19.6277 14.9436 19.0437 16.1596 18.1637 17.2476C17.2997 18.3356 16.1877 19.1916 14.8277 19.8156C13.4677 20.4556 11.9637 20.7756 10.3157 20.7756ZM29.3224 6.27956C30.6504 6.27956 31.8504 6.59156 32.9224 7.21556C33.9944 7.83956 34.8264 8.70356 35.4184 9.80756C36.0264 10.8956 36.3304 12.1196 36.3304 13.4796C36.3304 14.8396 36.0264 16.0716 35.4184 17.1756C34.8264 18.2636 33.9944 19.1196 32.9224 19.7436C31.8504 20.3676 30.6504 20.6796 29.3224 20.6796C27.9784 20.6796 26.7704 20.3676 25.6984 19.7436C24.6424 19.1196 23.8104 18.2636 23.2024 17.1756C22.5944 16.0716 22.2904 14.8396 22.2904 13.4796C22.2904 12.1196 22.5944 10.8956 23.2024 9.80756C23.8104 8.70356 24.6424 7.83956 25.6984 7.21556C26.7704 6.59156 27.9784 6.27956 29.3224 6.27956ZM29.3224 8.46356C28.4264 8.46356 27.6264 8.68756 26.9224 9.13556C26.2344 9.56756 25.6904 10.1676 25.2904 10.9356C24.9064 11.6876 24.7144 12.5356 24.7144 13.4796C24.7144 14.4236 24.9064 15.2796 25.2904 16.0476C25.6904 16.7996 26.2344 17.3996 26.9224 17.8476C27.6264 18.2796 28.4264 18.4956 29.3224 18.4956C30.2024 18.4956 30.9944 18.2796 31.6984 17.8476C32.4024 17.3996 32.9464 16.7996 33.3304 16.0476C33.7144 15.2796 33.9064 14.4236 33.9064 13.4796C33.9064 12.5356 33.7144 11.6876 33.3304 10.9356C32.9464 10.1676 32.4024 9.56756 31.6984 9.13556C30.9944 8.68756 30.2024 8.46356 29.3224 8.46356ZM39.487 20.3436V0.519562H41.959V20.3436H39.487ZM52.1505 6.27956C53.4785 6.27956 54.6785 6.59156 55.7505 7.21556C56.8225 7.83956 57.6545 8.70356 58.2465 9.80756C58.8545 10.8956 59.1585 12.1196 59.1585 13.4796C59.1585 14.8396 58.8545 16.0716 58.2465 17.1756C57.6545 18.2636 56.8225 19.1196 55.7505 19.7436C54.6785 20.3676 53.4785 20.6796 52.1505 20.6796C50.8065 20.6796 49.5985 20.3676 48.5265 19.7436C47.4705 19.1196 46.6385 18.2636 46.0305 17.1756C45.4225 16.0716 45.1185 14.8396 45.1185 13.4796C45.1185 12.1196 45.4225 10.8956 46.0305 9.80756C46.6385 8.70356 47.4705 7.83956 48.5265 7.21556C49.5985 6.59156 50.8065 6.27956 52.1505 6.27956ZM52.1505 8.46356C51.2545 8.46356 50.4545 8.68756 49.7505 9.13556C49.0625 9.56756 48.5185 10.1676 48.1185 10.9356C47.7345 11.6876 47.5425 12.5356 47.5425 13.4796C47.5425 14.4236 47.7345 15.2796 48.1185 16.0476C48.5185 16.7996 49.0625 17.3996 49.7505 17.8476C50.4545 18.2796 51.2545 18.4956 52.1505 18.4956C53.0305 18.4956 53.8225 18.2796 54.5265 17.8476C55.2305 17.3996 55.7745 16.7996 56.1585 16.0476C56.5425 15.2796 56.7345 14.4236 56.7345 13.4796C56.7345 12.5356 56.5425 11.6876 56.1585 10.9356C55.7745 10.1676 55.2305 9.56756 54.5265 9.13556C53.8225 8.68756 53.0305 8.46356 52.1505 8.46356ZM64.7871 6.61556V8.72756C65.1551 8.10356 65.7631 7.54356 66.6111 7.04756C67.4751 6.53556 68.5151 6.27956 69.7311 6.27956C70.5151 6.27956 71.1391 6.35956 71.6031 6.51956V8.87156C71.0431 8.61556 70.3631 8.48756 69.5631 8.48756C68.6511 8.48756 67.8271 8.71156 67.0911 9.15956C66.3711 9.59156 65.8031 10.1756 65.3871 10.9116C64.9871 11.6316 64.7871 12.4076 64.7871 13.2396V20.3436H62.3151V6.61556H64.7871Z" fill="#1A1A1A"/>
</svg>
