<svg width="88" height="21" viewBox="0 0 88 21" fill="none" xmlns="http://www.w3.org/2000/svg">
<path d="M7.36193 0.89251C9.53793 0.89251 11.4099 1.29251 12.9779 2.09251C14.5459 2.89251 15.7459 4.02051 16.5779 5.47651C17.4099 6.91651 17.8259 8.59651 17.8259 10.5165C17.8259 12.4365 17.4099 14.1165 16.5779 15.5565C15.7619 16.9965 14.5619 18.1165 12.9779 18.9165C11.4099 19.7165 9.53793 20.1165 7.36193 20.1165H0.545934V0.89251H7.36193ZM7.43393 17.8365C9.88193 17.8365 11.8019 17.1965 13.1939 15.9165C14.5859 14.6365 15.2819 12.8365 15.2819 10.5165C15.2819 8.19651 14.5859 6.38851 13.1939 5.09251C11.8019 3.79651 9.88193 3.14851 7.43393 3.14851H3.06593V17.8365H7.43393ZM27.1955 20.4525C25.8835 20.4525 24.6995 20.1405 23.6435 19.5165C22.6035 18.8925 21.7875 18.0365 21.1955 16.9485C20.6035 15.8445 20.3075 14.6125 20.3075 13.2525C20.3075 11.8925 20.6035 10.6685 21.1955 9.58051C21.7875 8.47651 22.6035 7.61251 23.6435 6.98851C24.6995 6.36451 25.8835 6.05251 27.1955 6.05251C28.5075 6.05251 29.6835 6.36451 30.7235 6.98851C31.7795 7.61251 32.5955 8.47651 33.1715 9.58051C33.7635 10.6685 34.0595 11.8925 34.0595 13.2525C34.0595 13.7005 34.0435 14.0365 34.0115 14.2605H22.7795C22.9075 15.4605 23.3715 16.4445 24.1715 17.2125C24.9875 17.9805 25.9955 18.3645 27.1955 18.3645C28.1075 18.3645 28.9075 18.1805 29.5955 17.8125C30.2995 17.4285 30.7795 16.9485 31.0355 16.3725H33.5555C33.1715 17.5725 32.4035 18.5485 31.2515 19.3005C30.0995 20.0685 28.7475 20.4525 27.1955 20.4525ZM31.6355 12.2445C31.4915 11.0285 31.0195 10.0445 30.2195 9.29251C29.4195 8.52451 28.4115 8.14051 27.1955 8.14051C25.9795 8.14051 24.9715 8.52451 24.1715 9.29251C23.3715 10.0445 22.9075 11.0285 22.7795 12.2445H31.6355ZM43.9541 8.57251H40.9061V20.1165H38.4341V8.57251H35.3861V6.38851H38.4341V2.21251H40.9061V6.38851H43.9541V8.57251ZM52.1307 20.4525C50.8507 20.4525 49.6907 20.1405 48.6507 19.5165C47.6267 18.8925 46.8187 18.0285 46.2267 16.9245C45.6347 15.8205 45.3387 14.5965 45.3387 13.2525C45.3387 11.9085 45.6347 10.6845 46.2267 9.58051C46.8187 8.47651 47.6267 7.61251 48.6507 6.98851C49.6907 6.36451 50.8507 6.05251 52.1307 6.05251C53.2987 6.05251 54.3067 6.28451 55.1547 6.74851C56.0027 7.21251 56.6187 7.77251 57.0027 8.42851V6.38851H59.4747V20.1165H57.0027V18.0765C56.6187 18.7325 56.0027 19.2925 55.1547 19.7565C54.3067 20.2205 53.2987 20.4525 52.1307 20.4525ZM52.3467 18.2685C53.2587 18.2685 54.0667 18.0525 54.7707 17.6205C55.4907 17.1725 56.0507 16.5725 56.4507 15.8205C56.8507 15.0525 57.0507 14.1965 57.0507 13.2525C57.0507 12.3085 56.8507 11.4605 56.4507 10.7085C56.0507 9.94051 55.4907 9.34051 54.7707 8.90851C54.0667 8.46051 53.2587 8.23651 52.3467 8.23651C51.4507 8.23651 50.6507 8.45251 49.9467 8.88451C49.2587 9.31651 48.7227 9.91651 48.3387 10.6845C47.9547 11.4525 47.7627 12.3085 47.7627 13.2525C47.7627 14.1965 47.9547 15.0525 48.3387 15.8205C48.7227 16.5885 49.2587 17.1885 49.9467 17.6205C50.6507 18.0525 51.4507 18.2685 52.3467 18.2685ZM64.5796 0.0525112C65.0596 0.0525112 65.4516 0.212511 65.7556 0.532511C66.0756 0.836511 66.2356 1.22051 66.2356 1.68451C66.2356 2.14851 66.0756 2.54051 65.7556 2.86051C65.4516 3.16451 65.0596 3.31651 64.5796 3.31651C64.1156 3.31651 63.7236 3.16451 63.4036 2.86051C63.0996 2.54051 62.9476 2.14851 62.9476 1.68451C62.9476 1.22051 63.0996 0.836511 63.4036 0.532511C63.7236 0.212511 64.1156 0.0525112 64.5796 0.0525112ZM63.3556 20.1405V6.38851H65.8276V20.1405H63.3556ZM69.7072 20.1165V0.292511H72.1792V20.1165H69.7072ZM81.4587 6.05251C82.5627 6.05251 83.5627 6.22851 84.4587 6.58051C85.3547 6.91651 86.0667 7.38851 86.5947 7.99651C87.1387 8.58851 87.4267 9.26851 87.4587 10.0365H85.0347C84.9867 9.46051 84.6187 8.98851 83.9307 8.62051C83.2427 8.25251 82.3947 8.06851 81.3867 8.06851C80.3947 8.06851 79.5707 8.24451 78.9147 8.59651C78.2747 8.94851 77.9547 9.38051 77.9547 9.89251C77.9547 10.4845 78.2507 10.9565 78.8427 11.3085C79.4507 11.6605 80.5627 11.9485 82.1787 12.1725C84.1787 12.4445 85.6107 12.9085 86.4747 13.5645C87.3387 14.2205 87.7707 15.1005 87.7707 16.2045C87.7707 17.0685 87.4907 17.8205 86.9307 18.4605C86.3867 19.1005 85.6427 19.5885 84.6987 19.9245C83.7547 20.2765 82.7067 20.4525 81.5547 20.4525C80.3547 20.4525 79.2987 20.2685 78.3867 19.9005C77.4747 19.5485 76.7547 19.0525 76.2267 18.4125C75.7147 17.7885 75.4267 17.0765 75.3627 16.2765H77.7867C77.8667 16.8685 78.2347 17.3805 78.8907 17.8125C79.5627 18.2285 80.4747 18.4365 81.6267 18.4365C82.6987 18.4365 83.5867 18.2445 84.2907 17.8605C84.9947 17.4605 85.3467 16.9565 85.3467 16.3485C85.3467 15.7725 85.0187 15.3165 84.3627 14.9805C83.7227 14.6285 82.6027 14.3485 81.0027 14.1405C79.1147 13.8845 77.7307 13.4365 76.8507 12.7965C75.9707 12.1405 75.5307 11.2205 75.5307 10.0365C75.5307 9.25251 75.7867 8.55651 76.2987 7.94851C76.8267 7.34051 77.5387 6.87651 78.4347 6.55651C79.3307 6.22051 80.3387 6.05251 81.4587 6.05251Z" fill="#1A1A1A"/>
</svg>
