<svg width="64" height="27" viewBox="0 0 64 27" fill="none" xmlns="http://www.w3.org/2000/svg">
<path d="M3.48634 18.1427H14.0463V20.4227H0.966344V1.19866H3.48634V18.1427ZM17.9844 0.358664C18.4644 0.358664 18.8564 0.518663 19.1604 0.838663C19.4804 1.14266 19.6404 1.52666 19.6404 1.99066C19.6404 2.45466 19.4804 2.84666 19.1604 3.16666C18.8564 3.47066 18.4644 3.62266 17.9844 3.62266C17.5204 3.62266 17.1284 3.47066 16.8084 3.16666C16.5044 2.84666 16.3524 2.45466 16.3524 1.99066C16.3524 1.52666 16.5044 1.14266 16.8084 0.838663C17.1284 0.518663 17.5204 0.358664 17.9844 0.358664ZM16.7604 20.4467V6.69466H19.2324V20.4467H16.7604ZM29.832 26.5907C27.976 26.5907 26.488 26.1267 25.368 25.1987C24.264 24.2867 23.584 23.1267 23.328 21.7187H25.848C26.008 22.5187 26.416 23.1747 27.072 23.6867C27.744 24.1987 28.664 24.4547 29.832 24.4547C31.096 24.4547 32.112 24.0547 32.88 23.2547C33.664 22.4707 34.056 21.4147 34.056 20.0867V18.1907C33.672 18.8467 33.056 19.4067 32.208 19.8707C31.36 20.3347 30.352 20.5667 29.184 20.5667C27.904 20.5667 26.744 20.2547 25.704 19.6307C24.68 19.0227 23.872 18.1827 23.28 17.1107C22.688 16.0227 22.392 14.8147 22.392 13.4867C22.392 12.1587 22.688 10.9507 23.28 9.86266C23.872 8.77466 24.68 7.91866 25.704 7.29466C26.744 6.67066 27.904 6.35866 29.184 6.35866C30.352 6.35866 31.36 6.59066 32.208 7.05466C33.056 7.51866 33.672 8.07866 34.056 8.73466V6.69466H36.528V20.1107C36.528 21.3587 36.24 22.4707 35.664 23.4467C35.104 24.4387 34.312 25.2067 33.288 25.7507C32.28 26.3107 31.128 26.5907 29.832 26.5907ZM29.4 18.4307C30.312 18.4307 31.12 18.2147 31.824 17.7827C32.544 17.3507 33.104 16.7587 33.504 16.0067C33.904 15.2547 34.104 14.4147 34.104 13.4867C34.104 12.5587 33.904 11.7187 33.504 10.9667C33.104 10.2147 32.544 9.62266 31.824 9.19066C31.12 8.75866 30.312 8.54266 29.4 8.54266C28.504 8.54266 27.704 8.75866 27 9.19066C26.312 9.62266 25.776 10.2147 25.392 10.9667C25.008 11.7187 24.816 12.5587 24.816 13.4867C24.816 14.4147 25.008 15.2547 25.392 16.0067C25.776 16.7587 26.312 17.3507 27 17.7827C27.704 18.2147 28.504 18.4307 29.4 18.4307ZM42.8808 0.598663V8.78266C43.2328 8.15866 43.8088 7.59866 44.6088 7.10266C45.4248 6.60666 46.4008 6.35866 47.5368 6.35866C48.6088 6.35866 49.5608 6.60666 50.3928 7.10266C51.2408 7.59866 51.8968 8.30266 52.3608 9.21466C52.8248 10.1107 53.0568 11.1667 53.0568 12.3827V20.4227H50.5848V12.8147C50.5848 11.4387 50.2648 10.3827 49.6248 9.64666C49.0008 8.89466 48.1288 8.51866 47.0088 8.51866C46.2248 8.51866 45.5208 8.74266 44.8968 9.19066C44.2728 9.62266 43.7768 10.2067 43.4088 10.9427C43.0568 11.6787 42.8808 12.4707 42.8808 13.3187V20.4227H40.4088V0.598663H42.8808ZM63.6167 8.87866H60.5687V20.4227H58.0967V8.87866H55.0487V6.69466H58.0967V2.51866H60.5687V6.69466H63.6167V8.87866Z" fill="#1A1A1A"/>
</svg>
