<svg width="28" height="18" viewBox="0 0 28 18" fill="none" xmlns="http://www.w3.org/2000/svg">
<path d="M5.8612 5.5982C6.96787 5.5982 7.96787 5.8582 8.8612 6.3782C9.75454 6.8982 10.4479 7.6182 10.9412 8.5382C11.4479 9.44487 11.7012 10.4649 11.7012 11.5982C11.7012 12.7315 11.4479 13.7582 10.9412 14.6782C10.4479 15.5849 9.75454 16.2982 8.8612 16.8182C7.96787 17.3382 6.96787 17.5982 5.8612 17.5982C4.7412 17.5982 3.73453 17.3382 2.8412 16.8182C1.9612 16.2982 1.26787 15.5849 0.761201 14.6782C0.254535 13.7582 0.00120123 12.7315 0.00120123 11.5982C0.00120123 10.4649 0.254535 9.44487 0.761201 8.5382C1.26787 7.6182 1.9612 6.8982 2.8412 6.3782C3.73453 5.8582 4.7412 5.5982 5.8612 5.5982ZM5.8612 7.4182C5.11453 7.4182 4.44787 7.60487 3.8612 7.9782C3.28787 8.3382 2.83453 8.8382 2.5012 9.4782C2.1812 10.1049 2.0212 10.8115 2.0212 11.5982C2.0212 12.3849 2.1812 13.0982 2.5012 13.7382C2.83453 14.3649 3.28787 14.8649 3.8612 15.2382C4.44787 15.5982 5.11453 15.7782 5.8612 15.7782C6.59453 15.7782 7.25453 15.5982 7.8412 15.2382C8.42787 14.8649 8.8812 14.3649 9.2012 13.7382C9.5212 13.0982 9.6812 12.3849 9.6812 11.5982C9.6812 10.8115 9.5212 10.1049 9.2012 9.4782C8.8812 8.8382 8.42787 8.3382 7.8412 7.9782C7.25453 7.60487 6.59453 7.4182 5.8612 7.4182ZM19.7206 7.6982H17.1806V17.3182H15.1206V7.6982H12.8606V5.8782H15.1206V3.9382C15.1206 2.96487 15.3872 2.18487 15.9206 1.5982C16.4672 1.01154 17.2206 0.718202 18.1806 0.718202C18.7139 0.718202 19.1606 0.758202 19.5206 0.838202V2.5782C19.3339 2.5382 19.0072 2.5182 18.5406 2.5182C18.1139 2.5182 17.7806 2.65154 17.5406 2.9182C17.3006 3.17154 17.1806 3.53154 17.1806 3.9982V5.8782H19.7206V7.6982ZM27.6698 7.6982H25.1298V17.3182H23.0698V7.6982H20.8098V5.8782H23.0698V3.9382C23.0698 2.96487 23.3365 2.18487 23.8698 1.5982C24.4165 1.01154 25.1698 0.718202 26.1298 0.718202C26.6631 0.718202 27.1098 0.758202 27.4698 0.838202V2.5782C27.2831 2.5382 26.9565 2.5182 26.4898 2.5182C26.0631 2.5182 25.7298 2.65154 25.4898 2.9182C25.2498 3.17154 25.1298 3.53154 25.1298 3.9982V5.8782H27.6698V7.6982Z" fill="#1A1A1A"/>
</svg>
