<svg width="59" height="20" viewBox="0 0 59 20" fill="none" xmlns="http://www.w3.org/2000/svg">
<path d="M0.526982 19.6582L7.84698 0.958203H9.92698L2.60698 19.6582H0.526982ZM39.8534 6.5982C40.9601 6.5982 41.9601 6.8582 42.8534 7.3782C43.7467 7.8982 44.4401 8.6182 44.9334 9.5382C45.4401 10.4449 45.6934 11.4649 45.6934 12.5982C45.6934 13.7315 45.4401 14.7582 44.9334 15.6782C44.4401 16.5849 43.7467 17.2982 42.8534 17.8182C41.9601 18.3382 40.9601 18.5982 39.8534 18.5982C38.7334 18.5982 37.7267 18.3382 36.8334 17.8182C35.9534 17.2982 35.2601 16.5849 34.7534 15.6782C34.2467 14.7582 33.9934 13.7315 33.9934 12.5982C33.9934 11.4649 34.2467 10.4449 34.7534 9.5382C35.2601 8.6182 35.9534 7.8982 36.8334 7.3782C37.7267 6.8582 38.7334 6.5982 39.8534 6.5982ZM39.8534 8.4182C39.1067 8.4182 38.4401 8.60487 37.8534 8.9782C37.2801 9.3382 36.8267 9.8382 36.4934 10.4782C36.1734 11.1049 36.0134 11.8115 36.0134 12.5982C36.0134 13.3849 36.1734 14.0982 36.4934 14.7382C36.8267 15.3649 37.2801 15.8649 37.8534 16.2382C38.4401 16.5982 39.1067 16.7782 39.8534 16.7782C40.5867 16.7782 41.2467 16.5982 41.8334 16.2382C42.4201 15.8649 42.8734 15.3649 43.1934 14.7382C43.5134 14.0982 43.6734 13.3849 43.6734 12.5982C43.6734 11.8115 43.5134 11.1049 43.1934 10.4782C42.8734 9.8382 42.4201 9.3382 41.8334 8.9782C41.2467 8.60487 40.5867 8.4182 39.8534 8.4182ZM50.3839 6.8782V8.6182C50.6772 8.0982 51.1572 7.63154 51.8239 7.2182C52.5039 6.80487 53.3172 6.5982 54.2639 6.5982C55.1572 6.5982 55.9505 6.80487 56.6439 7.2182C57.3505 7.63154 57.8972 8.2182 58.2839 8.9782C58.6705 9.72487 58.8639 10.6049 58.8639 11.6182V18.3182H56.8039V11.9782C56.8039 10.8315 56.5372 9.95154 56.0039 9.3382C55.4839 8.71154 54.7572 8.3982 53.8239 8.3982C53.1705 8.3982 52.5839 8.58487 52.0639 8.9582C51.5439 9.3182 51.1305 9.80487 50.8239 10.4182C50.5305 11.0315 50.3839 11.6915 50.3839 12.3982V18.3182H48.3239V6.8782H50.3839Z" fill="#1A1A1A"/>
</svg>
