<svg width="53" height="21" viewBox="0 0 53 21" fill="none" xmlns="http://www.w3.org/2000/svg">
<path d="M8.11373 0.663561C9.50573 0.663561 10.7617 0.911561 11.8817 1.40756C13.0017 1.88756 13.8977 2.56756 14.5697 3.44756C15.2417 4.32756 15.6177 5.31956 15.6977 6.42356H13.1057C12.9617 5.36756 12.4337 4.50356 11.5217 3.83156C10.6257 3.15956 9.44973 2.82356 7.99373 2.82356C6.52173 2.82356 5.36173 3.10356 4.51373 3.66356C3.68173 4.20756 3.26573 4.91956 3.26573 5.79956C3.26573 6.45556 3.46573 7.00756 3.86573 7.45556C4.26573 7.88756 4.88173 8.26356 5.71373 8.58356C6.56173 8.90356 7.70573 9.21556 9.14573 9.51956C11.4657 10.0156 13.1457 10.7276 14.1857 11.6556C15.2417 12.5676 15.7697 13.7516 15.7697 15.2076C15.7697 16.3276 15.4337 17.3116 14.7617 18.1596C14.0897 18.9916 13.1697 19.6316 12.0017 20.0796C10.8337 20.5436 9.53773 20.7756 8.11373 20.7756C6.62573 20.7756 5.28973 20.5196 4.10573 20.0076C2.93773 19.4956 2.00173 18.7756 1.29773 17.8476C0.593727 16.9196 0.201727 15.8396 0.121727 14.6076H2.71373C2.84173 15.7916 3.40173 16.7516 4.39373 17.4876C5.40173 18.2236 6.69773 18.5916 8.28173 18.5916C9.22573 18.5916 10.0737 18.4556 10.8257 18.1836C11.5777 17.9116 12.1617 17.5276 12.5777 17.0316C12.9937 16.5356 13.2017 15.9756 13.2017 15.3516C13.2017 14.6476 13.0017 14.0636 12.6017 13.5996C12.2017 13.1356 11.5777 12.7436 10.7297 12.4236C9.89773 12.0876 8.74573 11.7676 7.27373 11.4636C5.03373 10.9996 3.37773 10.3276 2.30573 9.44756C1.24973 8.56756 0.721727 7.35156 0.721727 5.79956C0.721727 4.75956 1.03373 3.85556 1.65773 3.08756C2.29773 2.30356 3.17773 1.70356 4.29773 1.28756C5.41773 0.871562 6.68973 0.663561 8.11373 0.663561ZM20.0674 0.279562C20.5474 0.279562 20.9394 0.439562 21.2434 0.759562C21.5634 1.06356 21.7234 1.44756 21.7234 1.91156C21.7234 2.37556 21.5634 2.76756 21.2434 3.08756C20.9394 3.39156 20.5474 3.54356 20.0674 3.54356C19.6034 3.54356 19.2114 3.39156 18.8914 3.08756C18.5874 2.76756 18.4354 2.37556 18.4354 1.91156C18.4354 1.44756 18.5874 1.06356 18.8914 0.759562C19.2114 0.439562 19.6034 0.279562 20.0674 0.279562ZM18.8434 20.3676V6.61556H21.3154V20.3676H18.8434ZM36.643 18.1836V20.3436H24.283V18.6156L32.899 8.77556H24.595V6.61556H36.211V8.34356L27.595 18.1836H36.643ZM45.3083 20.6796C43.9963 20.6796 42.8123 20.3676 41.7563 19.7436C40.7163 19.1196 39.9003 18.2636 39.3083 17.1756C38.7163 16.0716 38.4203 14.8396 38.4203 13.4796C38.4203 12.1196 38.7163 10.8956 39.3083 9.80756C39.9003 8.70356 40.7163 7.83956 41.7563 7.21556C42.8123 6.59156 43.9963 6.27956 45.3083 6.27956C46.6203 6.27956 47.7963 6.59156 48.8363 7.21556C49.8923 7.83956 50.7083 8.70356 51.2843 9.80756C51.8763 10.8956 52.1723 12.1196 52.1723 13.4796C52.1723 13.9276 52.1563 14.2636 52.1243 14.4876H40.8923C41.0203 15.6876 41.4843 16.6716 42.2843 17.4396C43.1003 18.2076 44.1083 18.5916 45.3083 18.5916C46.2203 18.5916 47.0203 18.4076 47.7083 18.0396C48.4123 17.6556 48.8923 17.1756 49.1483 16.5996H51.6683C51.2843 17.7996 50.5163 18.7756 49.3643 19.5276C48.2123 20.2956 46.8603 20.6796 45.3083 20.6796ZM49.7483 12.4716C49.6043 11.2556 49.1323 10.2716 48.3323 9.51956C47.5323 8.75156 46.5243 8.36756 45.3083 8.36756C44.0923 8.36756 43.0843 8.75156 42.2843 9.51956C41.4843 10.2716 41.0203 11.2556 40.8923 12.4716H49.7483Z" fill="#1A1A1A"/>
</svg>
