<svg width="102" height="25" viewBox="0 0 102 25" fill="none" xmlns="http://www.w3.org/2000/svg">
<path d="M10.8182 6.00104C10.8887 9.56285 15.0291 12.669 18.6746 13.2767L17.8616 14.8399C14.7073 14.1757 11.3472 12.0035 9.93882 8.94871C8.65218 12.0451 5.39244 14.3483 2.25532 15.1489L1.38113 13.619C4.97588 12.8446 8.96762 9.62431 8.89666 6.03908L8.86512 4.44564L10.7866 4.40761L10.8182 6.00104ZM19.7771 19.2326L19.8072 20.7557L0.732829 21.1333L0.702681 19.6101L19.7771 19.2326ZM30.1726 4.37552L30.2027 5.89866L23.8759 6.02389L23.9306 8.78897L30.0231 8.66838L30.0524 10.1447L23.9598 10.2652L24.0182 13.2178C27.0526 13.146 28.9486 13.003 31.1776 12.5135L31.3947 14.0095C28.9674 14.5498 27.0009 14.6825 23.6032 14.7497L22.2909 14.7757L22.0882 4.53554L30.1726 4.37552ZM38.8071 2.39957L39.1169 18.0528L37.3594 18.0875L37.2017 10.1204L34.2726 10.1783L34.4182 17.5363L32.7076 17.5701L32.4178 2.92456L34.1284 2.8907L34.242 8.63176L37.1711 8.57378L37.0496 2.43436L38.8071 2.39957ZM39.8122 21.2037L39.8428 22.7502L25.5487 23.0332L25.417 16.3782L27.2448 16.3421L27.3459 21.4504L39.8122 21.2037ZM57.9747 1.99674L58.138 10.2451L61.6295 10.176L61.6601 11.7226L58.1686 11.7917L58.388 22.8755L56.5602 22.9116L56.1469 2.03292L57.9747 1.99674ZM52.5318 4.14393L52.5619 5.66707L44.665 5.82338L44.8737 16.3682C48.6464 16.2935 51.3143 16.0649 54.3961 15.4296L54.662 17.0184C51.4164 17.6687 48.677 17.8401 44.7169 17.9185L43.0766 17.9509L42.8071 4.33642L52.5318 4.14393ZM79.6143 11.6016L79.6445 13.1248L65.2567 13.4096L65.0665 3.80206L79.2434 3.52145L79.2736 5.04459L66.9244 5.28902L67.0543 11.8502L79.6143 11.6016ZM81.991 17.9777L82.0216 19.5243L62.9472 19.9018L62.9166 18.3553L81.991 17.9777ZM95.1857 3.60441L95.2154 5.10412L83.4286 5.33742L83.3989 3.83771L88.4604 3.73753L88.4108 1.23021L90.2386 1.19403L90.2882 3.70135L95.1857 3.60441ZM89.4019 6.29752C92.1904 6.24233 94.1889 7.72651 94.2349 10.0464C94.2812 12.3897 92.343 13.9518 89.5545 14.007C86.7426 14.0626 84.7909 12.5775 84.768 10.2337C84.6986 7.91435 86.59 6.35318 89.4019 6.29752ZM89.4293 7.68006C87.6254 7.73921 86.4498 8.74705 86.4786 10.1999C86.5078 11.6762 87.7219 12.6133 89.5262 12.5775C91.3305 12.5418 92.53 11.557 92.5243 10.0802C92.4721 8.62785 91.2341 7.66778 89.4293 7.68006ZM100.599 1.15305L100.866 14.627L99.0147 14.6636L98.9576 11.7814L95.3255 11.8533L95.2954 10.3301L98.9275 10.2582L98.8774 7.72748L95.2687 7.7989L95.2386 6.27576L98.8472 6.20434L98.748 1.18969L100.599 1.15305ZM94.0042 14.9738C98.3393 14.888 101.013 16.1244 101.058 18.3974C101.102 20.6235 98.4798 21.9881 94.1447 22.0739C89.7628 22.1607 87.1123 20.9004 87.0683 18.6743C87.0233 16.4013 89.6222 15.0605 94.0042 14.9738ZM94.0325 16.4032C90.869 16.4658 88.9394 17.2776 88.9663 18.6367C88.9923 19.9489 90.953 20.7071 94.1164 20.6445C97.233 20.5828 99.1387 19.7481 99.1128 18.4359C99.0859 17.0767 97.1491 16.3415 94.0325 16.4032Z" fill="#1A1A1A"/>
</svg>
