<svg width="80" height="23" viewBox="0 0 80 23" fill="none" xmlns="http://www.w3.org/2000/svg">
<path d="M2.28345 3.32219L2.35209 6.79026L8.16345 6.67523L8.09481 3.20716L9.89914 3.17145L9.94089 5.28041L14.8618 5.18301L14.7955 1.8321L16.6467 1.79546L16.892 14.1915L15.0408 14.2281L14.9759 10.9475L10.055 11.0449L10.0963 13.1304L0.652803 13.3174L0.45568 3.35836L2.28345 3.32219ZM2.45042 11.758L8.26178 11.643L8.19221 8.12807L2.38085 8.2431L2.45042 11.758ZM16.9138 15.2928L17.059 22.6273L15.2078 22.664L15.0923 16.8292L2.93063 17.0699L2.90095 15.5702L16.9138 15.2928ZM10.0248 9.52176L14.9457 9.42436L14.8919 6.70614L9.97103 6.80355L10.0248 9.52176ZM37.3848 1.38498L37.5968 12.0938L35.7456 12.1305L35.6635 7.98283L31.0472 8.07421L31.017 6.55107L35.6333 6.4597L35.5336 1.42162L37.3848 1.38498ZM30.7737 2.54729C30.8762 7.72596 27.2884 11.2195 21.3197 12.8614L20.6334 11.3512C25.6008 10.0457 28.5384 7.45577 28.8589 4.10892L21.5713 4.25317L21.5411 2.73003L30.7737 2.54729ZM37.6144 12.9843L37.715 18.0692L26.0923 18.2993L26.1405 20.7363L38.4663 20.4923L38.4964 22.0155L24.3429 22.2956L24.2367 16.9295L35.836 16.6999L35.7929 14.5206L24.1467 14.7511L24.117 13.2514L37.6144 12.9843ZM58.0292 0.976354L58.4425 21.8551L56.5913 21.8917L56.178 1.013L58.0292 0.976354ZM46.9774 2.81261C50.071 2.77482 52.3528 5.54271 52.4405 9.97153C52.5281 14.4003 50.3577 17.2564 47.2645 17.3176C44.148 17.3793 41.8896 14.6109 41.8019 10.1821C41.7143 5.75328 43.8613 2.89773 46.9774 2.81261ZM47.0099 4.45291C44.9248 4.51763 43.5156 6.74908 43.5828 10.1468C43.6501 13.5446 45.1465 15.7186 47.2321 15.6773C49.3176 15.636 50.7268 13.4045 50.6596 10.0068C50.5923 6.609 49.0959 4.43507 47.0099 4.45291ZM73.4476 3.01538L73.4772 4.51509L61.6905 4.74839L61.6608 3.24868L66.7223 3.1485L66.6727 0.641175L68.5005 0.604997L68.5501 3.11232L73.4476 3.01538ZM67.6638 5.70849C70.4523 5.6533 72.4508 7.13747 72.4967 9.45733C72.5431 11.8006 70.6049 13.3627 67.8164 13.4179C65.0044 13.4736 63.0528 11.9885 63.0298 9.64472C62.9605 7.32532 64.8518 5.76415 67.6638 5.70849ZM67.6912 7.09103C65.8873 7.15018 64.7117 8.15802 64.7404 9.61086C64.7697 11.0871 65.9838 12.0242 67.7881 11.9885C69.5924 11.9528 70.7919 10.9679 70.7861 9.49119C70.7339 8.03882 69.4959 7.07875 67.6912 7.09103ZM78.861 0.564019L79.1277 14.0379L77.2765 14.0746L77.2195 11.1923L73.5874 11.2642L73.5572 9.74109L77.1893 9.6692L77.1393 7.13844L73.5306 7.20987L73.5004 5.68673L77.1091 5.6153L77.0098 0.600661L78.861 0.564019ZM72.2661 14.3847C76.6012 14.2989 79.2746 15.5353 79.3196 17.8083C79.3636 20.0344 76.7417 21.3991 72.4066 21.4849C68.0247 21.5716 65.3742 20.3113 65.3301 18.0852C65.2851 15.8122 67.8841 14.4715 72.2661 14.3847ZM72.2944 15.8141C69.1309 15.8768 67.2013 16.6885 67.2282 18.0477C67.2542 19.3599 69.2149 20.1181 72.3783 20.0555C75.4949 19.9938 77.4006 19.1591 77.3746 17.8468C77.3477 16.4877 75.4109 15.7525 72.2944 15.8141Z" fill="#1A1A1A"/>
</svg>
