<svg width="587" height="196" viewBox="0 0 587 196" fill="none" xmlns="http://www.w3.org/2000/svg">
<path d="M11.1169 0.836914V10.7686H9.95972V7.9707H7.70386V7.0332H9.95972V5.26074H7.70386V4.30859H9.95972V0.836914H11.1169ZM7.70386 2.43359V3.37109H0.335693V2.43359H3.49976V0.822266H4.64233V2.43359H7.70386ZM4.0564 4.08887C5.79956 4.08887 7.03003 5.08496 7.03003 6.5791C7.03003 8.05859 5.79956 9.06934 4.0564 9.06934C2.31323 9.06934 1.09741 8.05859 1.11206 6.5791C1.09741 5.08496 2.31323 4.08887 4.0564 4.08887ZM4.0564 4.99707C2.94312 5.01172 2.1814 5.6416 2.1814 6.5791C2.1814 7.5166 2.94312 8.14648 4.0564 8.14648C5.16968 8.14648 5.9314 7.5166 5.94604 6.5791C5.9314 5.6416 5.16968 5.01172 4.0564 4.99707ZM11.4099 12.5996V13.5664H2.69409V9.88965H3.85132V12.5996H11.4099ZM25.2263 0.822266V13.8447H24.113V7.07715H22.3406V13.1855H21.2419V1.10059H22.3406V6.0957H24.113V0.822266H25.2263ZM17.8875 4.38184C17.8875 6.76953 18.8689 8.86426 20.7292 9.81641L20.0408 10.71C18.7224 9.99219 17.8215 8.70312 17.3601 7.10645C16.9133 8.92285 15.9978 10.3438 14.6208 11.1494L13.9031 10.2705C15.7781 9.24512 16.7742 7.01855 16.7742 4.38184V3.3418H14.2107V2.375H20.3044V3.3418H17.8875V4.38184ZM38.281 4.77734V5.7002H29.3601V1.30566H30.5027V4.77734H38.281ZM39.658 7.47266V8.41016H27.7341V7.47266H39.658ZM38.3542 12.5703V13.5225H29.2869V9.74316H30.4294V12.5703H38.3542ZM53.199 2.27246V2.94629C53.1843 3.97168 53.1843 5.7002 52.8181 8.11719L51.6609 8.01465C52.0125 5.83203 52.0417 4.25 52.0417 3.20996H46.5779V2.27246H53.199ZM49.7859 5.99316V9.94824C51.2288 9.89697 52.7083 9.80176 54.0632 9.64062L54.1218 10.5049C51.3826 10.9297 48.321 10.9883 45.9919 10.9736L45.8455 10.0215C46.7024 10.0142 47.6545 10.0068 48.658 9.97754V5.99316H49.7859ZM56.0261 0.822266V6.27148H58.1355V7.26758H56.0261V13.8447H54.8835V0.822266H56.0261ZM70.4724 0.822266V13.8447H69.3298V7.01855H66.2244V6.06641H69.3298V0.822266H70.4724ZM66.2537 2.24316C66.2537 5.93457 64.6863 9.21582 60.3357 11.3691L59.7058 10.4463C63.2361 8.73975 64.8694 6.23486 65.0964 3.18066H60.2771V2.24316H66.2537ZM77.3308 1.67188C79.3376 1.68652 80.7878 2.91699 80.8025 4.7334C80.7878 6.3667 79.616 7.53125 77.9167 7.73633V9.96289C79.1326 9.9043 80.3557 9.81641 81.491 9.66992L81.5642 10.5342C78.8103 11.0029 75.7195 11.0322 73.4343 11.0176L73.2439 10.0508C74.2913 10.0435 75.5071 10.0361 76.7595 9.99219V7.73633C75.031 7.53857 73.8445 6.37402 73.8591 4.7334C73.8445 2.91699 75.2947 1.68652 77.3308 1.67188ZM77.3308 2.66797C75.9685 2.66797 74.9724 3.51758 74.9871 4.7334C74.9724 5.94922 75.9685 6.79883 77.3308 6.79883C78.6785 6.79883 79.6599 5.94922 79.6746 4.7334C79.6599 3.51758 78.6785 2.66797 77.3308 2.66797ZM83.4685 0.822266V6.19824H85.5925V7.19434H83.4685V13.8447H82.3259V0.822266H83.4685ZM98.4158 2.11133V10.5781H92.3953V2.11133H98.4158ZM93.5232 3.03418V9.64062H97.2878V3.03418H93.5232ZM102.371 0.822266V13.874H101.214V0.822266H102.371ZM110.665 2.24316V6.79883H106.9V9.75781C108.394 9.75049 109.808 9.68457 111.5 9.40625L111.602 10.3438C109.757 10.666 108.277 10.7246 106.636 10.7246H105.787V5.84668H109.552V3.20996H105.758V2.24316H110.665ZM116.48 0.822266V13.8447H115.382V6.93066H113.463V13.1709H112.408V1.11523H113.463V5.97852H115.382V0.822266H116.48ZM130.97 6.87207V7.78027H119.047V6.87207H130.97ZM129.476 8.82031V11.5889H121.654V12.834H129.901V13.6689H120.497V10.7979H128.334V9.68457H120.482V8.82031H129.476ZM129.432 1.21777V3.91309H121.742V5.05566H129.667V5.89062H120.599V3.12207H128.275V2.05273H120.555V1.21777H129.432ZM148.086 0.836914V10.4609H146.928V6.94531H143.559C142.959 7.71436 141.992 8.17578 140.879 8.17578C138.93 8.17578 137.495 6.82812 137.495 4.92383C137.495 3.01953 138.93 1.67188 140.879 1.65723C141.985 1.66455 142.929 2.11865 143.545 2.87305H146.928V0.836914H148.086ZM148.452 12.5996V13.5664H139.721V9.4502H140.879V12.5996H148.452ZM140.879 2.68262C139.546 2.69727 138.594 3.62012 138.594 4.92383C138.594 6.22754 139.546 7.15039 140.879 7.15039C142.153 7.15039 143.135 6.22754 143.135 4.92383C143.135 3.62012 142.153 2.69727 140.879 2.68262ZM144.072 3.8252C144.182 4.16211 144.248 4.52832 144.248 4.92383C144.248 5.30469 144.182 5.66357 144.072 5.99316H146.928V3.8252H144.072ZM161.8 0.822266V7.4873H160.642V6.125H157.171V5.2168H160.642V3.64941H157.361C156.541 5.70752 154.519 7.0918 151.634 7.78027L151.223 6.82812C154.417 6.08838 156.277 4.52832 156.497 2.43359H151.883V1.48145H157.757C157.757 1.91357 157.713 2.33105 157.639 2.72656H160.642V0.822266H161.8ZM161.8 8.07324V11.252H154.534V12.7754H162.239V13.7275H153.391V10.373H160.642V9.01074H153.362V8.07324H161.8ZM169.405 3.19531C169.405 4.93848 170.797 6.50586 172.745 7.12109L172.159 8.0293C170.65 7.53125 169.449 6.47656 168.863 5.12891C168.292 6.64502 167.083 7.84619 165.538 8.4248L164.923 7.5166C166.9 6.81348 168.248 5.07031 168.248 3.19531V2.77051H165.201V1.81836H172.408V2.77051H169.405V3.19531ZM175.469 0.822266V9.68457H174.327V0.822266H175.469ZM171.837 9.25977C171.822 11.1348 173.917 12.4971 176.231 12.8926L175.792 13.7861C173.807 13.4346 171.998 12.4312 171.236 10.9004C170.46 12.4312 168.643 13.4346 166.68 13.7861L166.226 12.8926C168.541 12.4971 170.635 11.1348 170.635 9.25977V8.9375H171.837V9.25977ZM188.964 4.77734V5.7002H180.043V1.30566H181.185V4.77734H188.964ZM190.341 7.47266V8.41016H178.417V7.47266H190.341ZM189.037 12.5703V13.5225H179.969V9.74316H181.112V12.5703H189.037ZM208.774 2.44824V3.40039H206.841V4.87988H208.774V5.83203H206.841V7.69238H205.698V0.822266H206.841V2.44824H208.774ZM203.75 8.29297V9.96289H205.801V8.29297H206.841V13.6689H202.695V8.29297H203.75ZM203.75 12.7607H205.801V10.8564H203.75V12.7607ZM201.889 8.4248V11.3691H198.945V12.7754C200.307 12.7754 201.135 12.7534 202.182 12.541L202.3 13.4199C201.069 13.6689 200.161 13.6689 198.491 13.6689H197.817V10.5195H200.791V9.30371H197.788V8.4248H201.889ZM200.293 1.4082C202.256 1.4082 203.677 2.59473 203.677 4.36719C203.677 6.0957 202.256 7.28223 200.293 7.28223C198.344 7.28223 196.894 6.0957 196.909 4.36719C196.894 2.59473 198.344 1.4082 200.293 1.4082ZM200.293 2.36035C199.004 2.36035 198.022 3.18066 198.037 4.36719C198.022 5.52441 199.004 6.35938 200.293 6.35938C201.596 6.35938 202.549 5.52441 202.549 4.36719C202.549 3.18066 201.596 2.36035 200.293 2.36035ZM222.239 7.69238V8.62988H210.374V7.69238H222.239ZM220.921 12.5996V13.5664H211.912V9.77246H213.069V12.5996H220.921ZM216.306 1.29102C219.104 1.27637 220.906 2.24316 220.906 3.86914C220.906 5.49512 219.104 6.46191 216.306 6.46191C213.479 6.46191 211.692 5.49512 211.692 3.86914C211.692 2.24316 213.479 1.27637 216.306 1.29102ZM216.306 2.21387C214.212 2.21387 212.864 2.84375 212.879 3.86914C212.864 4.89453 214.212 5.52441 216.306 5.52441C218.386 5.52441 219.734 4.89453 219.734 3.86914C219.734 2.84375 218.386 2.21387 216.306 2.21387ZM240.468 7.44336V8.39551H228.602V7.44336H240.468ZM235.092 0.792969V2.09668H239.266V3.03418H235.165C235.26 4.47705 237.325 5.47314 239.764 5.7002L239.413 6.59375C237.252 6.3667 235.326 5.59033 234.535 4.2793C233.737 5.59033 231.803 6.3667 229.657 6.59375L229.291 5.7002C231.73 5.47314 233.795 4.47705 233.905 3.03418H229.833V2.09668H233.964V0.792969H235.092ZM234.535 9.50879C237.362 9.50879 239.003 10.2705 239.017 11.6621C239.003 13.0684 237.362 13.8154 234.535 13.8154C231.708 13.8154 230.038 13.0684 230.038 11.6621C230.038 10.2705 231.708 9.50879 234.535 9.50879ZM234.535 10.373C232.426 10.373 231.195 10.8418 231.21 11.6621C231.195 12.4824 232.426 12.9365 234.535 12.9219C236.615 12.9365 237.86 12.4824 237.86 11.6621C237.86 10.8418 236.615 10.373 234.535 10.373ZM253.053 0.822266V13.874H251.896V0.822266H253.053ZM246.125 1.83301C248.058 1.84766 249.45 3.60547 249.45 6.37402C249.45 9.14258 248.058 10.9004 246.125 10.9004C244.177 10.9004 242.8 9.14258 242.8 6.37402C242.8 3.60547 244.177 1.84766 246.125 1.83301ZM246.125 2.8584C244.821 2.87305 243.913 4.25 243.913 6.37402C243.913 8.49805 244.821 9.875 246.125 9.875C247.428 9.875 248.337 8.49805 248.337 6.37402C248.337 4.25 247.428 2.87305 246.125 2.8584ZM262.49 2.12598V3.95703H265.683V0.822266H266.826V13.874H265.683V8.49805H262.49V10.5488H256.557V2.12598H262.49ZM257.7 3.03418V9.62598H261.377V3.03418H257.7ZM262.49 7.5459H265.683V4.90918H262.49V7.5459ZM271.883 11.6768L270.74 15.6611H269.656L270.462 11.6768H271.883ZM12.2302 38.293V39.2598H6.79565V43.8447H5.66772V39.2598H0.306396V38.293H12.2302ZM6.23901 31.3496C8.97827 31.3496 10.824 32.4482 10.824 34.2207C10.824 35.9492 8.97827 37.0479 6.23901 37.0479C3.49976 37.0479 1.65405 35.9492 1.65405 34.2207C1.65405 32.4482 3.49976 31.3496 6.23901 31.3496ZM6.23901 32.2871C4.20288 32.2871 2.82593 33.0488 2.84058 34.2207C2.82593 35.3779 4.20288 36.125 6.23901 36.125C8.2605 36.125 9.6521 35.3779 9.6521 34.2207C9.6521 33.0488 8.2605 32.2871 6.23901 32.2871ZM24.7869 30.8223V43.874H23.6443V30.8223H24.7869ZM20.8318 32.0381V36.667H15.9685V39.7432C18.1292 39.7432 20.0554 39.6479 22.3845 39.2744L22.5017 40.2412C20.0994 40.6221 18.1218 40.71 15.8806 40.71H14.7966V35.7295H19.6746V32.9902H14.7673V32.0381H20.8318ZM37.8269 30.8223V36.125H39.9363V37.0918H37.8269V43.8447H36.6843V30.8223H37.8269ZM34.4578 32.2285C34.4578 35.9199 32.7292 39.2744 28.4812 41.3691L27.8367 40.4609C31.2058 38.7837 33.0369 36.2788 33.3005 33.1953H28.4373V32.2285H34.4578ZM56.5242 36.7256V37.6777H47.4421V31.9648H48.5994V36.7256H56.5242ZM57.9011 41.0762V42.043H45.9773V41.0762H57.9011ZM70.4431 30.8223V43.8447H69.3005V30.8223H70.4431ZM63.7488 32.2432C63.7341 35.3193 62.9578 38.4102 60.5994 40.8711L59.6912 40.2119C61.6394 38.2271 62.5037 35.8027 62.6648 33.21H60.1746V32.2432H63.7488ZM67.3962 32.2432C67.3962 35.3047 66.8982 38.9229 64.5251 41.75L63.5291 41.1201C65.5432 38.8203 66.1877 35.9272 66.3123 33.21H64.1736V32.2432H67.3962ZM83.9373 34.7773V35.7002H75.0164V31.3057H76.1589V34.7773H83.9373ZM85.3142 37.4727V38.4102H73.3904V37.4727H85.3142ZM84.0105 42.5703V43.5225H74.9431V39.7432H76.0857V42.5703H84.0105ZM95.9988 34.3232C95.9988 36.623 97.5222 38.9814 99.3679 39.8896L98.6648 40.8125C97.2292 40.0581 96.0281 38.52 95.4568 36.7109C94.8708 38.6372 93.6404 40.2778 92.1755 41.0615L91.4431 40.1387C93.3474 39.2012 94.8562 36.6963 94.8708 34.3232V31.9502H95.9988V34.3232ZM101.712 30.8223V36.1104H103.894V37.1064H101.712V43.8447H100.569V30.8223H101.712ZM115.528 30.8369V34.1035H117.506V35.0703H115.528V38.7031H114.385V30.8369H115.528ZM111.807 31.6426V35.1582H107.061V36.9746C109.376 36.9746 111.053 36.894 113.082 36.5498L113.199 37.5166C111.104 37.8682 109.361 37.9414 106.944 37.9414H105.933V34.25H110.679V32.5947H105.904V31.6426H111.807ZM111.353 39.0986C114.005 39.0986 115.645 39.9775 115.645 41.4717C115.645 42.9658 114.005 43.8154 111.353 43.8154C108.658 43.8154 107.032 42.9658 107.032 41.4717C107.032 39.9775 108.658 39.0986 111.353 39.0986ZM111.353 40.0068C109.361 40.0068 108.145 40.5488 108.16 41.4717C108.145 42.3799 109.361 42.9219 111.353 42.9219C113.331 42.9219 114.532 42.3799 114.532 41.4717C114.532 40.5488 113.331 40.0068 111.353 40.0068ZM130.927 37.6924V38.6299H119.061V37.6924H130.927ZM129.608 42.5996V43.5664H120.599V39.7725H121.757V42.5996H129.608ZM124.994 31.291C127.792 31.2764 129.594 32.2432 129.594 33.8691C129.594 35.4951 127.792 36.4619 124.994 36.4619C122.167 36.4619 120.38 35.4951 120.38 33.8691C120.38 32.2432 122.167 31.2764 124.994 31.291ZM124.994 32.2139C122.899 32.2139 121.552 32.8438 121.566 33.8691C121.552 34.8945 122.899 35.5244 124.994 35.5244C127.074 35.5244 128.422 34.8945 128.422 33.8691C128.422 32.8438 127.074 32.2139 124.994 32.2139ZM147.368 30.8223V35.9492H149.551V36.9453H147.368V43.8447H146.225V30.8223H147.368ZM138.974 31.9355V35.3779H142.783V31.9355H143.926V40.7246H137.832V31.9355H138.974ZM138.974 39.7578H142.783V36.3008H138.974V39.7578ZM162.927 41.2666V42.2334H151.004V41.2666H156.365V38.8057H152.498V34.792H160.291V32.7412H152.469V31.7891H161.419V35.7295H153.64V37.8535H161.726V38.8057H157.493V41.2666H162.927ZM180.028 30.8369V40.7686H178.871V37.9707H176.615V37.0332H178.871V35.2607H176.615V34.3086H178.871V30.8369H180.028ZM176.615 32.4336V33.3711H169.247V32.4336H172.411V30.8223H173.553V32.4336H176.615ZM172.968 34.0889C174.711 34.0889 175.941 35.085 175.941 36.5791C175.941 38.0586 174.711 39.0693 172.968 39.0693C171.224 39.0693 170.009 38.0586 170.023 36.5791C170.009 35.085 171.224 34.0889 172.968 34.0889ZM172.968 34.9971C171.854 35.0117 171.093 35.6416 171.093 36.5791C171.093 37.5166 171.854 38.1465 172.968 38.1465C174.081 38.1465 174.843 37.5166 174.857 36.5791C174.843 35.6416 174.081 35.0117 172.968 34.9971ZM180.321 42.5996V43.5664H171.605V39.8896H172.762V42.5996H180.321ZM193.683 30.8223V37.5752H192.555V30.8223H193.683ZM193.698 38.2344V41.3545H186.388V42.7607H194.167V43.6982H185.26V40.4609H192.555V39.1572H185.231V38.2344H193.698ZM187.56 32.1992C187.546 34.0449 188.952 35.6709 190.885 36.3008L190.314 37.1943C188.791 36.6743 187.575 35.583 186.989 34.1768C186.403 35.6929 185.18 36.8867 183.635 37.4434L183.034 36.5352C184.997 35.8467 186.388 34.1182 186.388 32.1992V31.2031H187.56V32.1992ZM207.397 30.8223V43.874H206.24V30.8223H207.397ZM200.469 31.833C202.402 31.8477 203.794 33.6055 203.794 36.374C203.794 39.1426 202.402 40.9004 200.469 40.9004C198.52 40.9004 197.143 39.1426 197.143 36.374C197.143 33.6055 198.52 31.8477 200.469 31.833ZM200.469 32.8584C199.165 32.873 198.257 34.25 198.257 36.374C198.257 38.498 199.165 39.875 200.469 39.875C201.772 39.875 202.68 38.498 202.68 36.374C202.68 34.25 201.772 32.873 200.469 32.8584ZM220.554 30.8369V34.8359H222.532V35.8174H220.554V40.417H219.412V30.8369H220.554ZM221.17 42.5996V43.5664H212.483V39.6846H213.655V42.5996H221.17ZM216.834 31.6865V35.4072H212.088V37.4434C214.402 37.458 216.079 37.3628 218.108 37.0186L218.225 37.9707C216.131 38.3223 214.387 38.3955 211.97 38.3955H210.96V34.499H215.706V32.6533H210.93V31.6865H216.834ZM233.011 33.2979C233.011 34.9971 234.286 36.5205 236.205 37.1504L235.663 38.0586C234.161 37.5679 233.026 36.5278 232.469 35.2168C231.906 36.7109 230.704 37.8755 229.144 38.4395L228.558 37.5166C230.507 36.8574 231.869 35.1729 231.884 33.2979V32.7412H228.91V31.7891H235.941V32.7412H233.011V33.2979ZM238.783 30.8223V34.1475H240.746V35.1143H238.783V38.6885H237.64V30.8223H238.783ZM234.608 39.04C237.289 39.04 238.9 39.9189 238.9 41.4131C238.9 42.9365 237.289 43.8154 234.608 43.8154C231.927 43.8154 230.287 42.9365 230.287 41.4131C230.287 39.9189 231.927 39.04 234.608 39.04ZM234.608 39.9629C232.645 39.9629 231.429 40.5049 231.444 41.4131C231.429 42.3506 232.645 42.8926 234.608 42.8926C236.586 42.8926 237.787 42.3506 237.787 41.4131C237.787 40.5049 236.586 39.9629 234.608 39.9629ZM248.893 31.8037V37.5605H242.873V31.8037H248.893ZM244.001 32.7266V36.623H247.78V32.7266H244.001ZM252.497 30.8223V34.2207H254.46V35.1875H252.497V38.542H251.354V30.8223H252.497ZM252.497 39.2451V43.874H251.354V40.168H243.971V39.2451H252.497ZM264.837 31.4668C266.785 31.4521 268.177 32.5215 268.177 34.1182C268.177 35.7002 266.785 36.7988 264.837 36.7842C262.888 36.7988 261.497 35.7002 261.497 34.1182C261.497 32.5215 262.888 31.4521 264.837 31.4668ZM264.837 32.4043C263.533 32.3896 262.61 33.1074 262.625 34.1182C262.61 35.1436 263.533 35.8467 264.837 35.832C266.155 35.8467 267.078 35.1436 267.078 34.1182C267.078 33.1074 266.155 32.3896 264.837 32.4043ZM271.282 30.8369V43.8594H270.154V30.8369H271.282ZM260.515 37.8975C262.962 37.8975 266.302 37.8535 269.202 37.4287L269.275 38.293C268.03 38.52 266.734 38.6592 265.481 38.7324V43.4492H264.339V38.8057C263.013 38.8643 261.76 38.8716 260.677 38.8789L260.515 37.8975ZM285.421 30.8223V43.8447H284.307V30.8223H285.421ZM282.799 31.1006V43.1855H281.7V36.8574H280.03C279.906 39.3916 278.829 40.9736 277.218 40.9736C275.518 40.9736 274.42 39.2158 274.42 36.4473C274.42 33.6787 275.518 31.9209 277.218 31.9209C278.8 31.9209 279.869 33.4517 280.015 35.9053H281.7V31.1006H282.799ZM277.218 33.0049C276.163 33.0049 275.489 34.3232 275.504 36.4473C275.489 38.5566 276.163 39.8896 277.218 39.875C278.272 39.8896 278.946 38.5566 278.946 36.4473C278.946 34.3232 278.272 33.0049 277.218 33.0049ZM7.00073 62.4482C6.98608 64.0596 9.18335 65.3779 11.4832 65.6709L11.0291 66.6084C8.927 66.2788 6.96411 65.2388 6.25366 63.708C5.55054 65.2388 3.59497 66.2788 1.47827 66.6084L1.05347 65.6709C3.35327 65.3779 5.50659 64.0596 5.50659 62.4482V62.4189H1.40503V61.4668H11.1316V62.4189H7.00073V62.4482ZM10.8679 72.5996V73.5664H1.85913V69.8604H3.01636V72.5996H10.8679ZM12.2302 67.8535V68.8057H0.321045V67.8535H5.68237V65.6709H6.8103V67.8535H12.2302ZM25.2263 60.8223V73.8447H24.113V67.0771H22.3406V73.1855H21.2419V61.1006H22.3406V66.0957H24.113V60.8223H25.2263ZM17.8875 64.3818C17.8875 66.7695 18.8689 68.8643 20.7292 69.8164L20.0408 70.71C18.7224 69.9922 17.8215 68.7031 17.3601 67.1064C16.9133 68.9229 15.9978 70.3438 14.6208 71.1494L13.9031 70.2705C15.7781 69.2451 16.7742 67.0186 16.7742 64.3818V63.3418H14.2107V62.375H20.3044V63.3418H17.8875V64.3818ZM37.8269 60.8223V66.1982H40.0095V67.1504H37.8269V73.8447H36.6843V60.8223H37.8269ZM35.4246 62.917V63.8691H27.6755V62.917H31.03V60.9834H32.1726V62.917H35.4246ZM31.616 64.9531C33.4617 64.9531 34.7947 66.1836 34.8093 67.9414C34.7947 69.6992 33.4617 70.9297 31.616 70.9297C29.7556 70.9297 28.408 69.6992 28.4226 67.9414C28.408 66.1836 29.7556 64.9531 31.616 64.9531ZM31.616 65.9199C30.4001 65.9199 29.5066 66.7695 29.5212 67.9414C29.5066 69.1279 30.4001 69.9629 31.616 69.9482C32.8171 69.9629 33.696 69.1279 33.7107 67.9414C33.696 66.7695 32.8171 65.9199 31.616 65.9199ZM51.9949 64.7773V65.7002H43.074V61.3057H44.2166V64.7773H51.9949ZM53.3718 67.4727V68.4102H41.448V67.4727H53.3718ZM52.0681 72.5703V73.5225H43.0007V69.7432H44.1433V72.5703H52.0681ZM69.8718 60.8223V64.0156H71.8347V64.9678H69.8718V68.2197H68.7292V60.8223H69.8718ZM66.3123 61.6719C66.2976 64.9531 63.9978 67.2969 60.1453 68.3516L59.6765 67.4287C62.8845 66.5645 64.8401 64.8286 65.0818 62.624H60.2625V61.6719H66.3123ZM69.8718 68.8203V73.6689H61.6248V68.8203H69.8718ZM62.7673 69.7725V72.7314H68.7292V69.7725H62.7673ZM84.2009 60.8223V68.5859H83.0437V65.1729H80.4216V64.2207H83.0437V60.8223H84.2009ZM79.8796 68.9961C82.5896 68.9961 84.2449 69.875 84.2449 71.4131C84.2449 72.9512 82.5896 73.8301 79.8796 73.8447C77.1697 73.8301 75.5144 72.9512 75.5144 71.4131C75.5144 69.875 77.1697 68.9961 79.8796 68.9961ZM79.8796 69.8896C77.8875 69.8896 76.6423 70.4609 76.657 71.4131C76.6423 72.3506 77.8875 72.9219 79.8796 72.9219C81.8718 72.9219 83.1023 72.3506 83.1023 71.4131C83.1023 70.4609 81.8718 69.8896 79.8796 69.8896ZM77.9314 63.21C77.9314 64.9092 79.2351 66.5205 81.1394 67.1797L80.5388 68.1025C79.074 67.5752 77.9387 66.4839 77.3894 65.1289C76.8181 66.6597 75.6096 67.8828 74.0642 68.4688L73.4636 67.5459C75.3972 66.8428 76.7742 65.085 76.7742 63.2246V62.7412H73.8298V61.7744H80.8464V62.7412H77.9314V63.21ZM97.8562 60.8223V73.874H96.699V60.8223H97.8562ZM90.9275 61.833C92.8611 61.8477 94.2527 63.6055 94.2527 66.374C94.2527 69.1426 92.8611 70.9004 90.9275 70.9004C88.9792 70.9004 87.6023 69.1426 87.6023 66.374C87.6023 63.6055 88.9792 61.8477 90.9275 61.833ZM90.9275 62.8584C89.6238 62.873 88.7156 64.25 88.7156 66.374C88.7156 68.498 89.6238 69.875 90.9275 69.875C92.2312 69.875 93.1394 68.498 93.1394 66.374C93.1394 64.25 92.2312 62.873 90.9275 62.8584ZM110.911 60.8223V65.9785H113.094V66.9453H110.911V73.874H109.768V60.8223H110.911ZM107.483 62.0967V63.0488H102.547V69.6406C104.905 69.6406 106.575 69.5308 108.509 69.1719L108.655 70.168C106.619 70.5342 104.905 70.6074 102.429 70.6074H101.404V62.0967H107.483ZM115.924 72.7461C115.411 72.7461 114.971 72.3213 114.986 71.7939C114.971 71.2812 115.411 70.8564 115.924 70.8564C116.436 70.8564 116.861 71.2812 116.861 71.7939C116.861 72.3213 116.436 72.7461 115.924 72.7461ZM4.68628 94.3232C4.68628 96.623 6.20972 98.9814 8.05542 99.8896L7.35229 100.812C5.91675 100.058 4.71558 98.52 4.14429 96.7109C3.55835 98.6372 2.32788 100.278 0.863037 101.062L0.130615 100.139C2.03491 99.2012 3.5437 96.6963 3.55835 94.3232V91.9502H4.68628V94.3232ZM10.3992 90.8223V96.1104H12.5818V97.1064H10.3992V103.845H9.25659V90.8223H10.3992ZM24.2156 90.8369V94.1035H26.1931V95.0703H24.2156V98.7031H23.073V90.8369H24.2156ZM20.4949 91.6426V95.1582H15.7488V96.9746C18.0632 96.9746 19.7405 96.894 21.7693 96.5498L21.8865 97.5166C19.7917 97.8682 18.0486 97.9414 15.6316 97.9414H14.6208V94.25H19.3669V92.5947H14.5916V91.6426H20.4949ZM20.0408 99.0986C22.6921 99.0986 24.3328 99.9775 24.3328 101.472C24.3328 102.966 22.6921 103.815 20.0408 103.815C17.3455 103.815 15.7195 102.966 15.7195 101.472C15.7195 99.9775 17.3455 99.0986 20.0408 99.0986ZM20.0408 100.007C18.0486 100.007 16.8328 100.549 16.8474 101.472C16.8328 102.38 18.0486 102.922 20.0408 102.922C22.0183 102.922 23.2195 102.38 23.2195 101.472C23.2195 100.549 22.0183 100.007 20.0408 100.007ZM39.614 97.6924V98.6299H27.7488V97.6924H39.614ZM38.2957 102.6V103.566H29.2869V99.7725H30.4441V102.6H38.2957ZM33.6814 91.291C36.4792 91.2764 38.281 92.2432 38.281 93.8691C38.281 95.4951 36.4792 96.4619 33.6814 96.4619C30.8542 96.4619 29.0671 95.4951 29.0671 93.8691C29.0671 92.2432 30.8542 91.2764 33.6814 91.291ZM33.6814 92.2139C31.5867 92.2139 30.239 92.8438 30.2537 93.8691C30.239 94.8945 31.5867 95.5244 33.6814 95.5244C35.7615 95.5244 37.1091 94.8945 37.1091 93.8691C37.1091 92.8438 35.7615 92.2139 33.6814 92.2139ZM53.199 92.2725V92.9463C53.1843 93.9717 53.1843 95.7002 52.8181 98.1172L51.6609 98.0146C52.0125 95.832 52.0417 94.25 52.0417 93.21H46.5779V92.2725H53.199ZM49.7859 95.9932V99.9482C51.2288 99.897 52.7083 99.8018 54.0632 99.6406L54.1218 100.505C51.3826 100.93 48.321 100.988 45.9919 100.974L45.8455 100.021C46.7024 100.014 47.6545 100.007 48.658 99.9775V95.9932H49.7859ZM56.0261 90.8223V96.2715H58.1355V97.2676H56.0261V103.845H54.8835V90.8223H56.0261ZM70.4724 90.8223V103.845H69.3298V97.0186H66.2244V96.0664H69.3298V90.8223H70.4724ZM66.2537 92.2432C66.2537 95.9346 64.6863 99.2158 60.3357 101.369L59.7058 100.446C63.2361 98.7397 64.8694 96.2349 65.0964 93.1807H60.2771V92.2432H66.2537ZM77.6677 91.7744C79.7185 91.7744 81.1687 93.0195 81.1687 94.8359C81.1687 96.6523 79.7185 97.8975 77.6677 97.8975C75.6169 97.8975 74.1375 96.6523 74.1521 94.8359C74.1375 93.0195 75.6169 91.7744 77.6677 91.7744ZM77.6677 92.7852C76.2761 92.7852 75.2654 93.6201 75.28 94.8359C75.2654 96.0518 76.2761 96.8867 77.6677 96.8867C79.0447 96.8867 80.0408 96.0518 80.0408 94.8359C80.0408 93.6201 79.0447 92.7852 77.6677 92.7852ZM84.0837 90.8223V103.874H82.9412V90.8223H84.0837ZM73.4783 100.021C75.8806 100.021 79.1912 100.007 82.0769 99.582L82.1648 100.432C79.1912 100.988 75.9832 101.003 73.6394 101.003L73.4783 100.021ZM103.499 98.7031V99.6699H98.1228V103.874H96.9949V99.6699H91.6335V98.7031H103.499ZM98.1375 93.4004C98.1375 95.0264 100.408 96.4473 102.737 96.7695L102.312 97.6924C100.298 97.3848 98.4011 96.374 97.5808 94.9531C96.7458 96.3887 94.8196 97.3848 92.8054 97.6924L92.3806 96.7695C94.6951 96.4473 96.9949 95.041 96.9949 93.4004V93.3857H92.7908V92.4482H96.9949V90.8223H98.1228V92.4482H102.356V93.3857H98.1375V93.4004ZM116.143 99.2451V103.874H114.986V100.168H107.384V99.2451H116.143ZM116.143 90.8223V98.498H114.986V95.1582H112.276C112.027 96.7402 110.679 97.8096 108.936 97.7949C106.988 97.8096 105.552 96.5205 105.552 94.6748C105.552 92.8584 106.988 91.5693 108.936 91.5693C110.679 91.5693 112.027 92.6313 112.276 94.1914H114.986V90.8223H116.143ZM108.936 92.5508C107.633 92.5508 106.651 93.4443 106.651 94.6748C106.651 95.9492 107.633 96.8281 108.936 96.8281C110.211 96.8281 111.192 95.9492 111.192 94.6748C111.192 93.4443 110.211 92.5508 108.936 92.5508ZM124.994 91.0566C127.894 91.0566 129.594 91.8477 129.594 93.2979C129.594 94.7773 127.894 95.5684 124.994 95.583C122.094 95.5684 120.38 94.7773 120.38 93.2979C120.38 91.8477 122.094 91.0566 124.994 91.0566ZM124.994 91.9209C122.826 91.9209 121.566 92.4482 121.581 93.2979C121.566 94.2061 122.826 94.7041 124.994 94.7041C127.147 94.7041 128.422 94.2061 128.422 93.2979C128.422 92.4482 127.147 91.9209 124.994 91.9209ZM130.927 96.4619V97.3994H119.061V96.4619H130.927ZM129.403 98.5273V101.442H121.669V102.79H129.799V103.698H120.526V100.593H128.275V99.4062H120.497V98.5273H129.403ZM149.155 97.1211V98.0732H143.779V99.6113H147.705V103.669H138.74V99.6113H142.651V98.0732H137.29V97.1211H149.155ZM148.027 91.2471V92.1992H146.02V94.9385H147.983V95.8906H138.447V94.9385H140.41V92.1992H138.403V91.2471H148.027ZM139.883 100.52V102.731H146.577V100.52H139.883ZM141.552 94.9385H144.878V92.1992H141.552V94.9385ZM161.448 92.1406V93.4443C161.433 95.041 161.433 96.8281 160.965 99.4502L159.793 99.3184C160.291 96.8281 160.291 94.9971 160.291 93.4443V93.0928H152.263V92.1406H161.448ZM162.869 101.047V101.999H151.004V101.047H155.662V96.3887H156.79V101.047H162.869ZM166.856 101.677L165.714 105.661H164.63L165.435 101.677H166.856ZM180.602 92.1113V100.578H174.582V92.1113H180.602ZM175.71 93.0342V99.6406H179.474V93.0342H175.71ZM184.557 90.8223V103.874H183.4V90.8223H184.557ZM192.851 92.2432V96.7988H189.087V99.7578C190.581 99.7505 191.994 99.6846 193.686 99.4062L193.789 100.344C191.943 100.666 190.464 100.725 188.823 100.725H187.973V95.8467H191.738V93.21H187.944V92.2432H192.851ZM198.667 90.8223V103.845H197.568V96.9307H195.649V103.171H194.594V91.1152H195.649V95.9785H197.568V90.8223H198.667ZM205.51 91.7744C207.561 91.7744 209.011 93.0195 209.011 94.8359C209.011 96.6523 207.561 97.8975 205.51 97.8975C203.46 97.8975 201.98 96.6523 201.995 94.8359C201.98 93.0195 203.46 91.7744 205.51 91.7744ZM205.51 92.7852C204.119 92.7852 203.108 93.6201 203.123 94.8359C203.108 96.0518 204.119 96.8867 205.51 96.8867C206.887 96.8867 207.884 96.0518 207.884 94.8359C207.884 93.6201 206.887 92.7852 205.51 92.7852ZM211.927 90.8223V103.874H210.784V90.8223H211.927ZM201.321 100.021C203.723 100.021 207.034 100.007 209.92 99.582L210.008 100.432C207.034 100.988 203.826 101.003 201.482 101.003L201.321 100.021ZM231.591 92.8438V93.7812H229.657V95.6123H231.591V96.5938H229.657V98.5713H228.514V90.8223H229.657V92.8438H231.591ZM229.657 99.1719V103.845H228.514V100.124H221.132V99.1719H229.657ZM223.138 91.6133C225.116 91.5986 226.552 92.873 226.566 94.6748C226.552 96.5059 225.116 97.7656 223.138 97.7656C221.161 97.7656 219.711 96.5059 219.725 94.6748C219.711 92.873 221.161 91.5986 223.138 91.6133ZM223.138 92.5947C221.82 92.5947 220.839 93.4443 220.853 94.6748C220.839 95.9199 221.82 96.7842 223.138 96.7695C224.471 96.7842 225.438 95.9199 225.438 94.6748C225.438 93.4443 224.471 92.5947 223.138 92.5947ZM245.099 97.3701V98.3223H233.19V97.3701H238.552V95.3633H239.679V97.3701H245.099ZM239.694 91.6426C239.694 93.3711 242.038 94.8213 244.338 95.1436L243.869 96.0664C241.891 95.7222 239.936 94.6748 239.123 93.166C238.302 94.6821 236.34 95.7222 234.347 96.0664L233.908 95.1436C236.208 94.8213 238.537 93.3711 238.537 91.6426V91.0273H239.694V91.6426ZM243.591 99.5967V103.845H242.433V100.52H234.509V99.5967H243.591ZM252.837 91.0566C255.737 91.0566 257.436 91.8477 257.436 93.2979C257.436 94.7773 255.737 95.5684 252.837 95.583C249.936 95.5684 248.222 94.7773 248.222 93.2979C248.222 91.8477 249.936 91.0566 252.837 91.0566ZM252.837 91.9209C250.669 91.9209 249.409 92.4482 249.424 93.2979C249.409 94.2061 250.669 94.7041 252.837 94.7041C254.99 94.7041 256.264 94.2061 256.264 93.2979C256.264 92.4482 254.99 91.9209 252.837 91.9209ZM258.769 96.4619V97.3994H246.904V96.4619H258.769ZM257.246 98.5273V101.442H249.511V102.79H257.641V103.698H248.369V100.593H256.118V99.4062H248.34V98.5273H257.246ZM270.494 91.4668V91.8184C270.494 92.4995 270.494 93.957 269.996 95.9492H274.053C274.427 94.3672 274.493 93.2026 274.508 92.4043H271.475V91.4668H275.621V91.9502C275.621 92.7266 275.621 94.0742 275.225 95.9492H277.042V96.8867H271.607V99.0986H275.518V103.669H266.612V99.0986H270.479V96.8867H265.133V95.9492H268.853C269.249 94.3745 269.337 93.1953 269.366 92.4043H266.29V91.4668H270.494ZM267.74 100.021V102.731H274.376V100.021H267.74ZM290.712 97.1504V98.1172H285.336V103.859H284.193V98.1172H278.846V97.1504H282.274C282.802 95.1509 282.897 93.6421 282.933 92.6826H279.799V91.7451H284.047V92.1406C284.047 92.9683 284.047 94.6821 283.446 97.1504H287.723C288.177 95.1216 288.229 93.6494 288.236 92.6826H285.013V91.7451H289.379V92.3164C289.379 93.21 289.379 94.8213 288.895 97.1504H290.712ZM303.708 90.8223V103.845H302.609V90.8223H303.708ZM300.969 91.1738V103.186H299.87V97.1064H297.116C296.318 98.6226 295.065 99.9629 293.249 101.032L292.575 100.197C295.409 98.52 296.83 96.1689 297.043 93.4443H293.132V92.4922H298.185C298.178 93.7739 297.973 95.0117 297.541 96.1689H299.87V91.1738H300.969ZM320.867 90.8223V96.1982H323.05V97.1504H320.867V103.845H319.724V90.8223H320.867ZM318.465 92.917V93.8691H310.716V92.917H314.07V90.9834H315.213V92.917H318.465ZM314.656 94.9531C316.502 94.9531 317.835 96.1836 317.849 97.9414C317.835 99.6992 316.502 100.93 314.656 100.93C312.796 100.93 311.448 99.6992 311.463 97.9414C311.448 96.1836 312.796 94.9531 314.656 94.9531ZM314.656 95.9199C313.44 95.9199 312.547 96.7695 312.561 97.9414C312.547 99.1279 313.44 99.9629 314.656 99.9482C315.857 99.9629 316.736 99.1279 316.751 97.9414C316.736 96.7695 315.857 95.9199 314.656 95.9199ZM329.161 94.8213C329.161 97.0332 330.772 99.2744 332.691 100.109L332.047 101.018C330.523 100.322 329.205 98.8203 328.604 97.0186C327.989 98.9302 326.678 100.593 325.191 101.34L324.503 100.432C326.363 99.5381 327.989 97.0771 328.004 94.8213V93.1221H324.927V92.1699H332.266V93.1221H329.161V94.8213ZM335.24 90.8223V103.845H334.083V90.8223H335.24ZM344.794 92.0088V98H338.773V92.0088H344.794ZM339.901 92.9463V97.0771H343.68V92.9463H339.901ZM348.397 90.8223V94.792H350.36V95.7588H348.397V100.373H347.255V90.8223H348.397ZM348.998 102.6V103.566H340.253V99.4648H341.381V102.6H348.998ZM354.069 101.677L352.927 105.661H351.843L352.648 101.677H354.069ZM371.829 90.8223V98.5859H370.672V95.1729H368.05V94.2207H370.672V90.8223H371.829ZM367.508 98.9961C370.218 98.9961 371.873 99.875 371.873 101.413C371.873 102.951 370.218 103.83 367.508 103.845C364.798 103.83 363.142 102.951 363.142 101.413C363.142 99.875 364.798 98.9961 367.508 98.9961ZM367.508 99.8896C365.515 99.8896 364.27 100.461 364.285 101.413C364.27 102.351 365.515 102.922 367.508 102.922C369.5 102.922 370.73 102.351 370.73 101.413C370.73 100.461 369.5 99.8896 367.508 99.8896ZM365.559 93.21C365.559 94.9092 366.863 96.5205 368.767 97.1797L368.167 98.1025C366.702 97.5752 365.567 96.4839 365.017 95.1289C364.446 96.6597 363.238 97.8828 361.692 98.4688L361.092 97.5459C363.025 96.8428 364.402 95.085 364.402 93.2246V92.7412H361.458V91.7744H368.474V92.7412H365.559V93.21ZM379.156 93.2393C379.156 94.9678 380.43 96.5498 382.364 97.2236L381.778 98.1172C380.291 97.5898 379.156 96.5205 378.599 95.1729C378.043 96.6523 376.849 97.8022 375.318 98.3662L374.703 97.4727C376.651 96.7842 378.013 95.0996 378.028 93.2393V92.6826H375.054V91.7451H382.086V92.6826H379.156V93.2393ZM384.927 90.8223V94.2646H386.89V95.2461H384.927V98.6738H383.785V90.8223H384.927ZM384.927 99.3623V103.845H383.785V100.3H376.402V99.3623H384.927ZM403.771 90.8369V100.432H402.614V95.4072H399.889C399.633 97.0112 398.285 98.1025 396.564 98.1025C394.616 98.1025 393.18 96.7695 393.18 94.8799C393.18 92.9902 394.616 91.6719 396.564 91.6719C398.322 91.6719 399.692 92.7925 399.904 94.4551H402.614V90.8369H403.771ZM404.137 102.6V103.566H395.407V99.4502H396.564V102.6H404.137ZM396.564 92.6826C395.26 92.6973 394.279 93.5908 394.279 94.8799C394.279 96.1689 395.26 97.0918 396.564 97.1064C397.839 97.0918 398.82 96.1689 398.82 94.8799C398.82 93.5908 397.839 92.6973 396.564 92.6826ZM417.822 90.8223V103.845H416.723V90.8223H417.822ZM415.185 91.1445V103.171H414.101V96.4619H411.904V95.5244H414.101V91.1445H415.185ZM410.512 94.543C410.512 96.7988 411.523 99.04 413.325 100.08L412.622 100.93C411.34 100.161 410.432 98.7544 409.985 97.0918C409.509 98.8862 408.564 100.417 407.26 101.237L406.528 100.373C408.344 99.2891 409.399 96.916 409.399 94.543V93.3125H406.894V92.3604H412.9V93.3125H410.512V94.543ZM432.591 96.0225V96.9893H430.481V103.845H429.339V90.8223H430.481V96.0225H432.591ZM422.088 92.1113V99.5674C423.992 99.5601 425.933 99.4136 428.079 98.9668L428.225 99.9482C425.984 100.402 423.963 100.534 421.985 100.534H420.945V92.1113H422.088ZM438.646 96.0371L439.789 92.0527H440.873L440.067 96.0371H438.646ZM447.35 94.8213C447.35 97.0332 448.962 99.2744 450.881 100.109L450.236 101.018C448.713 100.322 447.394 98.8203 446.794 97.0186C446.178 98.9302 444.867 100.593 443.381 101.34L442.692 100.432C444.552 99.5381 446.178 97.0771 446.193 94.8213V93.1221H443.117V92.1699H450.456V93.1221H447.35V94.8213ZM453.429 90.8223V103.845H452.272V90.8223H453.429ZM466.762 91.5254V92.4922C466.762 93.5029 466.762 94.6895 466.426 96.3154H468.33V97.2676H456.406V96.3154H465.268C465.62 94.6821 465.62 93.5029 465.62 92.4922V92.4775H457.915V91.5254H466.762ZM466.821 99.0693V103.669H457.871V99.0693H466.821ZM459.013 99.9775V102.731H465.678V99.9775H459.013ZM472.361 92.0674L471.219 96.0518H470.135L470.94 92.0674H472.361ZM485.343 90.8223V103.845H484.229V90.8223H485.343ZM482.72 91.1006V103.186H481.622V96.8574H479.952C479.827 99.3916 478.751 100.974 477.139 100.974C475.44 100.974 474.342 99.2158 474.342 96.4473C474.342 93.6787 475.44 91.9209 477.139 91.9209C478.721 91.9209 479.791 93.4517 479.937 95.9053H481.622V91.1006H482.72ZM477.139 93.0049C476.085 93.0049 475.411 94.3232 475.426 96.4473C475.411 98.5566 476.085 99.8896 477.139 99.875C478.194 99.8896 478.868 98.5566 478.868 96.4473C478.868 94.3232 478.194 93.0049 477.139 93.0049ZM494.471 92.0088V98H488.451V92.0088H494.471ZM489.579 92.9463V97.0771H493.358V92.9463H489.579ZM498.075 90.8223V94.792H500.038V95.7588H498.075V100.373H496.932V90.8223H498.075ZM498.676 102.6V103.566H489.93V99.4648H491.058V102.6H498.676ZM512.802 92.4482C512.788 94.0596 514.985 95.3779 517.285 95.6709L516.831 96.6084C514.729 96.2788 512.766 95.2388 512.055 93.708C511.352 95.2388 509.397 96.2788 507.28 96.6084L506.855 95.6709C509.155 95.3779 511.308 94.0596 511.308 92.4482V92.4189H507.207V91.4668H516.933V92.4189H512.802V92.4482ZM516.67 102.6V103.566H507.661V99.8604H508.818V102.6H516.67ZM518.032 97.8535V98.8057H506.123V97.8535H511.484V95.6709H512.612V97.8535H518.032ZM531.028 90.8223V103.845H529.915V97.0771H528.142V103.186H527.044V91.1006H528.142V96.0957H529.915V90.8223H531.028ZM523.689 94.3818C523.689 96.7695 524.671 98.8643 526.531 99.8164L525.843 100.71C524.524 99.9922 523.623 98.7031 523.162 97.1064C522.715 98.9229 521.8 100.344 520.423 101.149L519.705 100.271C521.58 99.2451 522.576 97.0186 522.576 94.3818V93.3418H520.012V92.375H526.106V93.3418H523.689V94.3818ZM543.731 90.8369V95.1289H545.694V96.0957H543.731V100.593H542.589V90.8369H543.731ZM541.344 92.4336V93.3711H533.58V92.4336H536.89V90.8369H538.033V92.4336H541.344ZM537.462 94.0889C539.322 94.0889 540.582 95.041 540.596 96.5205C540.582 97.9854 539.322 98.9229 537.462 98.9229C535.587 98.9229 534.312 97.9854 534.327 96.5205C534.312 95.041 535.587 94.0889 537.462 94.0889ZM537.462 94.9971C536.231 94.9971 535.411 95.5977 535.426 96.5205C535.411 97.4434 536.231 98.0293 537.462 98.0146C538.677 98.0293 539.498 97.4434 539.512 96.5205C539.498 95.5977 538.677 94.9971 537.462 94.9971ZM544.332 102.6V103.566H535.587V99.8164H536.715V102.6H544.332ZM557.343 90.8223V95.9785H559.525V96.9453H557.343V103.874H556.2V90.8223H557.343ZM553.915 92.0967V93.0488H548.978V99.6406C551.337 99.6406 553.007 99.5308 554.94 99.1719L555.087 100.168C553.051 100.534 551.337 100.607 548.861 100.607H547.836V92.0967H553.915ZM562.355 102.746C561.843 102.746 561.403 102.321 561.418 101.794C561.403 101.281 561.843 100.856 562.355 100.856C562.868 100.856 563.293 101.281 563.293 101.794C563.293 102.321 562.868 102.746 562.355 102.746ZM0.335693 126.037L1.47827 122.053H2.56226L1.75659 126.037H0.335693ZM9.03979 124.821C9.03979 127.033 10.6511 129.274 12.5701 130.109L11.9255 131.018C10.4021 130.322 9.08374 128.82 8.48315 127.019C7.86792 128.93 6.55688 130.593 5.07007 131.34L4.38159 130.432C6.24194 129.538 7.86792 127.077 7.88257 124.821V123.122H4.8064V122.17H12.1453V123.122H9.03979V124.821ZM15.1189 120.822V133.845H13.9617V120.822H15.1189ZM28.4519 121.525V122.492C28.4519 123.503 28.4519 124.689 28.115 126.315H30.0193V127.268H18.0955V126.315H26.9578C27.3093 124.682 27.3093 123.503 27.3093 122.492V122.478H19.6042V121.525H28.4519ZM28.5105 129.069V133.669H19.5603V129.069H28.5105ZM20.7029 129.978V132.731H27.3679V129.978H20.7029ZM34.0505 122.067L32.908 126.052H31.824L32.6296 122.067H34.0505ZM46.6072 120.822V133.874H45.45V120.822H46.6072ZM39.6785 121.833C41.6121 121.848 43.0037 123.605 43.0037 126.374C43.0037 129.143 41.6121 130.9 39.6785 130.9C37.7302 130.9 36.3533 129.143 36.3533 126.374C36.3533 123.605 37.7302 121.848 39.6785 121.833ZM39.6785 122.858C38.3748 122.873 37.4666 124.25 37.4666 126.374C37.4666 128.498 38.3748 129.875 39.6785 129.875C40.9822 129.875 41.8904 128.498 41.8904 126.374C41.8904 124.25 40.9822 122.873 39.6785 122.858ZM59.6619 120.822V126.008H61.8445V126.975H59.6619V133.874H58.5193V120.822H59.6619ZM56.0144 122.038V126.696H51.2683V129.743C53.6853 129.743 55.3699 129.663 57.3474 129.289L57.4646 130.241C55.4138 130.622 53.6707 130.71 51.1658 130.725H50.1257V125.744H54.8718V122.99H50.0964V122.038H56.0144ZM73.8298 124.777V125.7H64.9089V121.306H66.0515V124.777H73.8298ZM75.2068 127.473V128.41H63.283V127.473H75.2068ZM73.9031 132.57V133.522H64.8357V129.743H65.9783V132.57H73.9031ZM88.0593 121.818C88.0593 123.518 90.4324 125.07 92.6882 125.422L92.2341 126.33C90.2566 125.993 88.301 124.895 87.4734 123.371C86.6531 124.924 84.6755 126.008 82.698 126.345L82.2439 125.437C84.5144 125.085 86.8728 123.576 86.8728 121.818V121.159H88.0593V121.818ZM93.4353 127.458V128.41H88.1326V131.076H86.99V128.41H81.5115V127.458H93.4353ZM92.1023 132.6V133.566H83.0349V129.802H84.1921V132.6H92.1023ZM105.421 120.822V124.792H107.384V125.759H105.421V130.358H104.263V120.822H105.421ZM101.905 121.833C101.905 125.188 99.5027 127.678 95.7527 128.85L95.2546 127.927C98.3748 126.953 100.411 125.092 100.66 122.8H95.7966V121.833H101.905ZM106.021 132.6V133.566H97.2615V129.392H98.4041V132.6H106.021ZM120.819 127.692V128.63H108.954V127.692H120.819ZM119.501 132.6V133.566H110.492V129.772H111.649V132.6H119.501ZM114.886 121.291C117.684 121.276 119.486 122.243 119.486 123.869C119.486 125.495 117.684 126.462 114.886 126.462C112.059 126.462 110.272 125.495 110.272 123.869C110.272 122.243 112.059 121.276 114.886 121.291ZM114.886 122.214C112.792 122.214 111.444 122.844 111.459 123.869C111.444 124.895 112.792 125.524 114.886 125.524C116.967 125.524 118.314 124.895 118.314 123.869C118.314 122.844 116.967 122.214 114.886 122.214ZM133.73 122.141V130.534H127.724V122.141H133.73ZM128.838 123.063V129.597H132.588V123.063H128.838ZM137.26 120.822V126.022H139.443V127.019H137.26V133.845H136.118V120.822H137.26ZM151.634 120.822V133.845H150.476V120.822H151.634ZM145.701 125.07C145.701 127.253 147.224 129.362 149.187 130.197L148.543 131.091C147.041 130.424 145.767 129.011 145.159 127.282C144.573 129.113 143.306 130.615 141.804 131.325L141.16 130.432C143.094 129.553 144.573 127.355 144.573 125.07V124.03H141.511V123.093H144.558V121.071H145.701V123.093H148.733V124.03H145.701V125.07ZM171.034 128.718V129.67H165.614V133.845H164.486V129.67H159.11V128.718H171.034ZM169.686 126.433V127.37H160.707V121.438H169.54V122.375H161.849V123.898H169.232V124.821H161.849V126.433H169.686ZM183.635 120.822V128.542H182.477V126.491H179.43V127.604H173.454V121.818H179.43V122.946H182.477V120.822H183.635ZM174.596 122.756V126.667H178.302V122.756H174.596ZM179.313 128.923C182.023 128.923 183.678 129.816 183.678 131.384C183.678 132.937 182.023 133.815 179.313 133.815C176.603 133.815 174.948 132.937 174.948 131.384C174.948 129.816 176.603 128.923 179.313 128.923ZM179.313 129.816C177.321 129.831 176.076 130.402 176.091 131.384C176.076 132.321 177.321 132.907 179.313 132.907C181.305 132.907 182.536 132.321 182.536 131.384C182.536 130.402 181.305 129.831 179.313 129.816ZM179.43 125.524H182.477V123.898H179.43V125.524ZM196.631 120.822V126.198H198.813V127.15H196.631V133.845H195.488V120.822H196.631ZM194.228 122.917V123.869H186.479V122.917H189.834V120.983H190.976V122.917H194.228ZM190.42 124.953C192.265 124.953 193.598 126.184 193.613 127.941C193.598 129.699 192.265 130.93 190.42 130.93C188.559 130.93 187.212 129.699 187.226 127.941C187.212 126.184 188.559 124.953 190.42 124.953ZM190.42 125.92C189.204 125.92 188.31 126.77 188.325 127.941C188.31 129.128 189.204 129.963 190.42 129.948C191.621 129.963 192.5 129.128 192.514 127.941C192.5 126.77 191.621 125.92 190.42 125.92ZM210.711 122.141V123.444C210.696 125.041 210.696 126.828 210.227 129.45L209.055 129.318C209.553 126.828 209.553 124.997 209.553 123.444V123.093H201.526V122.141H210.711ZM212.132 131.047V131.999H200.266V131.047H204.925V126.389H206.052V131.047H212.132ZM228.851 121.379V125.729H224.999V127.224H230.36V128.161H218.495V127.224H223.856V125.729H220.033V121.379H228.851ZM221.161 122.302V124.792H227.709V122.302H221.161ZM224.427 129.216C227.225 129.216 228.895 130.021 228.91 131.516C228.895 132.995 227.225 133.83 224.427 133.845C221.6 133.83 219.93 132.995 219.93 131.516C219.93 130.021 221.6 129.216 224.427 129.216ZM224.427 130.095C222.333 130.109 221.088 130.622 221.102 131.516C221.088 132.424 222.333 132.922 224.427 132.922C226.493 132.922 227.753 132.424 227.753 131.516C227.753 130.622 226.493 130.109 224.427 130.095ZM242.375 120.822V125.393H244.323V126.359H242.375V131.018H241.218V120.822H242.375ZM242.844 132.6V133.566H234.098V130.329H235.256V132.6H242.844ZM232.15 128.571C233.183 128.571 234.406 128.564 235.68 128.513V127.517C234.164 127.377 233.19 126.652 233.19 125.554C233.19 124.294 234.406 123.547 236.237 123.547C238.083 123.547 239.284 124.294 239.299 125.554C239.284 126.645 238.332 127.37 236.823 127.517V128.454C238.046 128.396 239.277 128.278 240.412 128.103L240.514 128.923C237.717 129.45 234.567 129.494 232.282 129.509L232.15 128.571ZM240.016 122.111V122.976H232.472V122.111H235.68V120.793H236.823V122.111H240.016ZM236.237 124.367C235.036 124.367 234.289 124.821 234.289 125.554C234.289 126.271 235.036 126.726 236.237 126.726C237.438 126.726 238.2 126.271 238.2 125.554C238.2 124.821 237.438 124.367 236.237 124.367ZM250.449 123.225C250.449 124.924 251.753 126.535 253.657 127.194L253.056 128.103C251.584 127.575 250.449 126.484 249.892 125.144C249.328 126.645 248.127 127.846 246.582 128.41L245.981 127.502C247.9 126.813 249.292 125.07 249.292 123.239V122.668H246.347V121.73H253.364V122.668H250.449V123.225ZM256.719 129.318V133.845H255.561V130.271H247.959V129.318H256.719ZM256.719 120.822V128.63H255.561V125.202H252.954V124.235H255.561V120.822H256.719ZM270.388 120.837V130.358H269.246V120.837H270.388ZM270.799 132.6V133.566H261.98V129.392H263.123V132.6H270.799ZM263.357 121.745C265.305 121.745 266.77 123.063 266.77 124.938C266.77 126.843 265.305 128.146 263.357 128.146C261.409 128.146 259.944 126.843 259.944 124.938C259.944 123.063 261.409 121.745 263.357 121.745ZM263.357 122.756C262.039 122.756 261.057 123.664 261.072 124.938C261.057 126.242 262.039 127.136 263.357 127.136C264.646 127.136 265.642 126.242 265.642 124.938C265.642 123.664 264.646 122.756 263.357 122.756ZM282.274 123.298C282.274 124.997 283.549 126.521 285.468 127.15L284.926 128.059C283.424 127.568 282.289 126.528 281.732 125.217C281.168 126.711 279.967 127.875 278.407 128.439L277.821 127.517C279.769 126.857 281.132 125.173 281.146 123.298V122.741H278.173V121.789H285.204V122.741H282.274V123.298ZM288.046 120.822V124.147H290.009V125.114H288.046V128.688H286.903V120.822H288.046ZM283.871 129.04C286.552 129.04 288.163 129.919 288.163 131.413C288.163 132.937 286.552 133.815 283.871 133.815C281.19 133.815 279.55 132.937 279.55 131.413C279.55 129.919 281.19 129.04 283.871 129.04ZM283.871 129.963C281.908 129.963 280.692 130.505 280.707 131.413C280.692 132.351 281.908 132.893 283.871 132.893C285.848 132.893 287.05 132.351 287.05 131.413C287.05 130.505 285.848 129.963 283.871 129.963ZM298.156 121.804V127.561H292.135V121.804H298.156ZM293.263 122.727V126.623H297.043V122.727H293.263ZM301.76 120.822V124.221H303.722V125.188H301.76V128.542H300.617V120.822H301.76ZM301.76 129.245V133.874H300.617V130.168H293.234V129.245H301.76ZM316.089 120.822V133.874H314.931V127.019H312.075V126.066H314.931V120.822H316.089ZM309.79 125.07C309.79 127.224 311.255 129.333 313.188 130.197L312.529 131.091C311.05 130.41 309.819 128.989 309.248 127.268C308.677 129.084 307.461 130.607 305.981 131.325L305.322 130.432C307.226 129.538 308.662 127.312 308.662 125.07V124.03H305.674V123.093H308.662V121.071H309.804V123.093H312.749V124.03H309.79V125.07ZM329.802 129.216V133.669H321.233V129.216H329.802ZM322.376 130.109V132.731H328.66V130.109H322.376ZM329.802 120.837V128.483H328.645V124.719H326.17V123.767H328.645V120.837H329.802ZM325.335 121.496V125.1H320.706V126.989C322.852 126.997 324.463 126.923 326.419 126.608L326.521 127.575C324.47 127.897 322.801 127.956 320.545 127.941H319.563V124.206H324.221V122.448H319.534V121.496H325.335ZM334.859 131.677L333.717 135.661H332.633L333.438 131.677H334.859ZM352.004 120.822V124.016H353.967V124.968H352.004V128.22H350.861V120.822H352.004ZM348.444 121.672C348.429 124.953 346.13 127.297 342.277 128.352L341.808 127.429C345.016 126.564 346.972 124.829 347.214 122.624H342.394V121.672H348.444ZM352.004 128.82V133.669H343.757V128.82H352.004ZM344.899 129.772V132.731H350.861V129.772H344.899ZM366.333 120.822V128.586H365.176V125.173H362.553V124.221H365.176V120.822H366.333ZM362.011 128.996C364.721 128.996 366.377 129.875 366.377 131.413C366.377 132.951 364.721 133.83 362.011 133.845C359.302 133.83 357.646 132.951 357.646 131.413C357.646 129.875 359.302 128.996 362.011 128.996ZM362.011 129.89C360.019 129.89 358.774 130.461 358.789 131.413C358.774 132.351 360.019 132.922 362.011 132.922C364.004 132.922 365.234 132.351 365.234 131.413C365.234 130.461 364.004 129.89 362.011 129.89ZM360.063 123.21C360.063 124.909 361.367 126.521 363.271 127.18L362.671 128.103C361.206 127.575 360.071 126.484 359.521 125.129C358.95 126.66 357.741 127.883 356.196 128.469L355.595 127.546C357.529 126.843 358.906 125.085 358.906 123.225V122.741H355.962V121.774H362.978V122.741H360.063V123.21ZM375.183 121.057C378.084 121.057 379.783 121.848 379.783 123.298C379.783 124.777 378.084 125.568 375.183 125.583C372.283 125.568 370.569 124.777 370.569 123.298C370.569 121.848 372.283 121.057 375.183 121.057ZM375.183 121.921C373.015 121.921 371.756 122.448 371.77 123.298C371.756 124.206 373.015 124.704 375.183 124.704C377.337 124.704 378.611 124.206 378.611 123.298C378.611 122.448 377.337 121.921 375.183 121.921ZM381.116 126.462V127.399H369.251V126.462H381.116ZM379.593 128.527V131.442H371.858V132.79H379.988V133.698H370.716V130.593H378.465V129.406H370.686V128.527H379.593ZM398.217 120.822V133.874H397.059V120.822H398.217ZM389.384 121.936V125.378H393.265V121.936H394.393V130.725H388.241V121.936H389.384ZM389.384 129.758H393.265V126.301H389.384V129.758ZM413.058 128.703V129.67H407.682V133.874H406.554V129.67H401.193V128.703H413.058ZM407.697 123.4C407.697 125.026 409.968 126.447 412.297 126.77L411.872 127.692C409.858 127.385 407.961 126.374 407.14 124.953C406.305 126.389 404.379 127.385 402.365 127.692L401.94 126.77C404.255 126.447 406.554 125.041 406.554 123.4V123.386H402.35V122.448H406.554V120.822H407.682V122.448H411.916V123.386H407.697V123.4ZM425.351 122.141V123.444C425.337 125.041 425.337 126.828 424.868 129.45L423.696 129.318C424.194 126.828 424.194 124.997 424.194 123.444V123.093H416.167V122.141H425.351ZM426.772 131.047V131.999H414.907V131.047H419.565V126.389H420.693V131.047H426.772ZM430.76 131.677L429.617 135.661H428.533L429.339 131.677H430.76ZM437.562 129.816C438.361 129.816 439.357 129.809 440.404 129.772V127.575C438.947 127.377 437.958 126.315 437.972 124.821C437.958 123.195 439.188 122.067 440.931 122.067C442.704 122.067 443.934 123.195 443.934 124.821C443.934 126.308 442.96 127.363 441.503 127.575V129.729C442.499 129.685 443.48 129.611 444.33 129.494L444.418 130.344C442.264 130.695 439.481 130.783 437.723 130.783L437.562 129.816ZM448.754 120.822V133.845H447.655V127.224H446.029V133.156H444.945V121.115H446.029V126.257H447.655V120.822H448.754ZM440.931 123.005C439.833 123.005 438.998 123.767 439.012 124.821C438.998 125.92 439.833 126.667 440.931 126.667C442.059 126.667 442.88 125.92 442.88 124.821C442.88 123.767 442.059 123.005 440.931 123.005ZM463.302 127.019V127.971H451.452V127.019H456.359V124.382H457.487V127.019H463.302ZM461.794 129.465V133.845H460.622V130.417H452.712V129.465H461.794ZM461.794 121.54V122.521C461.794 123.518 461.794 124.646 461.471 126.125L460.314 126.008C460.651 124.543 460.651 123.503 460.651 122.521V122.478H452.858V121.54H461.794ZM469.78 124.323C469.765 126.696 471.391 129.099 473.31 129.963L472.607 130.871C471.128 130.146 469.846 128.615 469.223 126.755C468.615 128.725 467.334 130.366 465.81 131.135L465.078 130.168C467.011 129.274 468.623 126.799 468.637 124.323V121.95H469.78V124.323ZM475.888 120.822V133.874H474.731V120.822H475.888ZM485.852 122.185C485.838 125.949 484.475 129.421 479.773 131.721L479.129 130.798C481.568 129.626 483.076 128.125 483.904 126.359L479.378 126.799L479.187 125.773L484.27 125.437C484.505 124.711 484.644 123.942 484.695 123.137H479.846V122.185H485.852ZM489.632 120.822V133.845H488.474V120.822H489.632ZM503.023 122.141V123.444C503.009 125.041 503.009 126.828 502.54 129.45L501.368 129.318C501.866 126.828 501.866 124.997 501.866 123.444V123.093H493.839V122.141H503.023ZM504.444 131.047V131.999H492.579V131.047H497.237V126.389H498.365V131.047H504.444ZM508.431 131.677L507.289 135.661H506.205L507.01 131.677H508.431ZM525.576 120.837V124.777H527.539V125.744H525.576V130.402H524.433V120.837H525.576ZM526.177 132.6V133.566H517.431V129.465H518.559V132.6H526.177ZM517.08 121.774V123.972H520.874V121.774H522.016V128.205H515.952V121.774H517.08ZM517.08 127.268H520.874V124.88H517.08V127.268ZM533.474 124.323C533.474 126.623 534.998 128.981 536.844 129.89L536.14 130.812C534.705 130.058 533.504 128.52 532.932 126.711C532.346 128.637 531.116 130.278 529.651 131.062L528.919 130.139C530.823 129.201 532.332 126.696 532.346 124.323V121.95H533.474V124.323ZM539.187 120.822V126.11H541.37V127.106H539.187V133.845H538.045V120.822H539.187ZM547.452 124.323C547.437 126.696 549.063 129.099 550.982 129.963L550.279 130.871C548.8 130.146 547.518 128.615 546.895 126.755C546.287 128.725 545.006 130.366 543.482 131.135L542.75 130.168C544.683 129.274 546.295 126.799 546.309 124.323V121.95H547.452V124.323ZM553.56 120.822V133.874H552.403V120.822H553.56ZM563.451 121.818C563.436 125.217 561.635 127.766 557.357 129.143L556.918 128.19C559.152 127.495 560.602 126.477 561.415 125.217L557.02 125.568L556.815 124.616L561.869 124.367C562.067 123.869 562.184 123.334 562.235 122.771H557.474V121.818H563.451ZM567.289 120.837V130.3H566.146V120.837H567.289ZM567.699 132.702V133.64H558.881V129.626H560.023V132.702H567.699ZM580.329 120.822V125.979H582.511V126.945H580.329V133.874H579.186V120.822H580.329ZM576.901 122.097V123.049H571.965V129.641C574.323 129.641 575.993 129.531 577.927 129.172L578.073 130.168C576.037 130.534 574.323 130.607 571.847 130.607H570.822V122.097H576.901ZM585.342 132.746C584.829 132.746 584.389 132.321 584.404 131.794C584.389 131.281 584.829 130.856 585.342 130.856C585.854 130.856 586.279 131.281 586.279 131.794C586.279 132.321 585.854 132.746 585.342 132.746ZM10.5896 152.214V153.518C10.5896 155.158 10.5896 157.019 10.1062 159.846L8.93433 159.729C9.46167 157.062 9.46167 155.114 9.46167 153.518V153.166H1.61011V152.214H10.5896ZM12.1863 160.974V161.926H0.321045V160.974H12.1863ZM19.3523 152.243V156.799H15.5876V159.758C17.0818 159.75 18.4954 159.685 20.1873 159.406L20.2898 160.344C18.4441 160.666 16.9646 160.725 15.324 160.725H14.4744V155.847H18.239V153.21H14.4451V152.243H19.3523ZM25.1677 150.822V163.845H24.0691V156.931H22.1501V163.171H21.0955V151.115H22.1501V155.979H24.0691V150.822H25.1677ZM32.3337 154.323C32.3337 156.682 33.8425 159.055 35.7322 159.919L35.0437 160.856C33.5642 160.095 32.3411 158.535 31.7625 156.682C31.1838 158.63 29.9607 160.3 28.4812 161.091L27.7341 160.168C29.6384 159.23 31.1619 156.726 31.1619 154.323V151.95H32.3337V154.323ZM38.5447 150.822V163.874H37.4021V156.213H34.3113V155.275H37.4021V150.822H38.5447ZM50.3425 154.323C50.3425 156.623 51.866 158.981 53.7117 159.89L53.0085 160.812C51.573 160.058 50.3718 158.52 49.8005 156.711C49.2146 158.637 47.9841 160.278 46.5193 161.062L45.7869 160.139C47.6912 159.201 49.2 156.696 49.2146 154.323V151.95H50.3425V154.323ZM56.0554 150.822V156.11H58.238V157.106H56.0554V163.845H54.9128V150.822H56.0554ZM69.8718 150.837V154.104H71.8494V155.07H69.8718V158.703H68.7292V150.837H69.8718ZM66.1511 151.643V155.158H61.405V156.975C63.7195 156.975 65.3967 156.894 67.4255 156.55L67.5427 157.517C65.448 157.868 63.7048 157.941 61.2878 157.941H60.2771V154.25H65.0232V152.595H60.2478V151.643H66.1511ZM65.697 159.099C68.3484 159.099 69.989 159.978 69.989 161.472C69.989 162.966 68.3484 163.815 65.697 163.815C63.0017 163.815 61.3757 162.966 61.3757 161.472C61.3757 159.978 63.0017 159.099 65.697 159.099ZM65.697 160.007C63.7048 160.007 62.489 160.549 62.5037 161.472C62.489 162.38 63.7048 162.922 65.697 162.922C67.6746 162.922 68.8757 162.38 68.8757 161.472C68.8757 160.549 67.6746 160.007 65.697 160.007ZM85.2703 157.692V158.63H73.405V157.692H85.2703ZM83.9519 162.6V163.566H74.9431V159.772H76.1003V162.6H83.9519ZM79.3376 151.291C82.1355 151.276 83.9373 152.243 83.9373 153.869C83.9373 155.495 82.1355 156.462 79.3376 156.462C76.5105 156.462 74.7234 155.495 74.7234 153.869C74.7234 152.243 76.5105 151.276 79.3376 151.291ZM79.3376 152.214C77.2429 152.214 75.8953 152.844 75.9099 153.869C75.8953 154.895 77.2429 155.524 79.3376 155.524C81.4177 155.524 82.7654 154.895 82.7654 153.869C82.7654 152.844 81.4177 152.214 79.3376 152.214ZM98.1228 155.451V157.312H103.499V158.264H91.6335V157.312H96.9949V155.451H98.1228ZM97.5662 159.333C100.364 159.333 102.034 160.124 102.049 161.574C102.034 163.024 100.364 163.815 97.5662 163.815C94.739 163.815 93.0691 163.024 93.0691 161.574C93.0691 160.124 94.739 159.333 97.5662 159.333ZM97.5662 160.241C95.4568 160.241 94.2263 160.725 94.241 161.574C94.2263 162.424 95.4568 162.922 97.5662 162.922C99.6462 162.922 100.891 162.424 100.891 161.574C100.891 160.725 99.6462 160.241 97.5662 160.241ZM102.444 151.438V152.375H98.3132C98.3865 153.825 100.569 154.946 102.84 155.188L102.415 156.096C100.283 155.839 98.2839 154.909 97.5662 153.459C96.8557 154.909 94.8635 155.839 92.7175 156.096L92.2927 155.188C94.5632 154.946 96.7312 153.84 96.8191 152.375H92.7175V151.438H102.444ZM111.837 155.451V157.312H117.213V158.264H105.347V157.312H110.709V155.451H111.837ZM111.28 159.333C114.078 159.333 115.748 160.124 115.762 161.574C115.748 163.024 114.078 163.815 111.28 163.815C108.453 163.815 106.783 163.024 106.783 161.574C106.783 160.124 108.453 159.333 111.28 159.333ZM111.28 160.241C109.171 160.241 107.94 160.725 107.955 161.574C107.94 162.424 109.171 162.922 111.28 162.922C113.36 162.922 114.605 162.424 114.605 161.574C114.605 160.725 113.36 160.241 111.28 160.241ZM116.158 151.438V152.375H112.027C112.1 153.825 114.283 154.946 116.553 155.188L116.129 156.096C113.997 155.839 111.998 154.909 111.28 153.459C110.57 154.909 108.577 155.839 106.431 156.096L106.007 155.188C108.277 154.946 110.445 153.84 110.533 152.375H106.431V151.438H116.158ZM128.937 151.467V151.818C128.937 152.5 128.937 153.957 128.439 155.949H132.497C132.87 154.367 132.936 153.203 132.951 152.404H129.919V151.467H134.064V151.95C134.064 152.727 134.064 154.074 133.669 155.949H135.485V156.887H130.051V159.099H133.962V163.669H125.055V159.099H128.923V156.887H123.576V155.949H127.297C127.692 154.375 127.78 153.195 127.809 152.404H124.733V151.467H128.937ZM126.183 160.021V162.731H132.819V160.021H126.183ZM148.086 150.822V163.874H146.928V157.019H144.072V156.066H146.928V150.822H148.086ZM141.787 155.07C141.787 157.224 143.252 159.333 145.185 160.197L144.526 161.091C143.047 160.41 141.816 158.989 141.245 157.268C140.674 159.084 139.458 160.607 137.978 161.325L137.319 160.432C139.223 159.538 140.659 157.312 140.659 155.07V154.03H137.671V153.093H140.659V151.071H141.802V153.093H144.746V154.03H141.787V155.07ZM161.8 159.216V163.669H153.23V159.216H161.8ZM154.373 160.109V162.731H160.657V160.109H154.373ZM161.8 150.837V158.483H160.642V154.719H158.167V153.767H160.642V150.837H161.8ZM157.332 151.496V155.1H152.703V156.989C154.849 156.997 156.46 156.923 158.416 156.608L158.518 157.575C156.468 157.897 154.798 157.956 152.542 157.941H151.56V154.206H156.219V152.448H151.531V151.496H157.332ZM179.779 156.726V157.678H170.697V151.965H171.854V156.726H179.779ZM181.156 161.076V162.043H169.232V161.076H181.156ZM193.683 150.822V163.845H192.555V158.791H189.274C188.842 159.831 188.271 160.834 187.502 161.75L186.535 161.12C188.534 158.82 189.179 155.927 189.289 153.21H187.253V152.243H190.387C190.387 152.932 190.358 153.649 190.285 154.382H192.555V150.822H193.683ZM186.857 152.243C186.857 155.319 186.081 158.396 183.752 160.856L182.829 160.197C184.748 158.227 185.59 155.795 185.744 153.21H183.283V152.243H186.857ZM189.626 157.824H192.555V155.319H190.182C190.058 156.154 189.882 156.997 189.626 157.824ZM201.318 154.821C201.318 157.033 202.929 159.274 204.848 160.109L204.204 161.018C202.68 160.322 201.362 158.82 200.761 157.019C200.146 158.93 198.835 160.593 197.348 161.34L196.66 160.432C198.52 159.538 200.146 157.077 200.161 154.821V153.122H197.085V152.17H204.424V153.122H201.318V154.821ZM207.397 150.822V163.845H206.24V150.822H207.397ZM221.14 150.822V163.845H219.983V150.822H221.14ZM217.288 152.243C217.273 155.993 215.53 159.304 211.165 161.398L210.535 160.461C214.058 158.791 215.852 156.293 216.116 153.181H211.135V152.243H217.288ZM234.605 156.931V157.868H230.577V161.237H236.011V162.204H224.088V161.237H229.449V157.868H225.611V151.892H234.473V152.829H226.768V156.931H234.605ZM252.497 150.837V155.129H254.46V156.096H252.497V160.593H251.354V150.837H252.497ZM250.109 152.434V153.371H242.345V152.434H245.656V150.837H246.799V152.434H250.109ZM246.227 154.089C248.088 154.089 249.347 155.041 249.362 156.521C249.347 157.985 248.088 158.923 246.227 158.923C244.352 158.923 243.078 157.985 243.093 156.521C243.078 155.041 244.352 154.089 246.227 154.089ZM246.227 154.997C244.997 154.997 244.177 155.598 244.191 156.521C244.177 157.443 244.997 158.029 246.227 158.015C247.443 158.029 248.263 157.443 248.278 156.521C248.263 155.598 247.443 154.997 246.227 154.997ZM253.097 162.6V163.566H244.352V159.816H245.48V162.6H253.097ZM266.108 150.822V155.979H268.291V156.945H266.108V163.874H264.966V150.822H266.108ZM262.68 152.097V153.049H257.744V159.641C260.102 159.641 261.772 159.531 263.706 159.172L263.852 160.168C261.816 160.534 260.102 160.607 257.627 160.607H256.601V152.097H262.68ZM271.121 162.746C270.608 162.746 270.169 162.321 270.183 161.794C270.169 161.281 270.608 160.856 271.121 160.856C271.634 160.856 272.058 161.281 272.058 161.794C272.058 162.321 271.634 162.746 271.121 162.746ZM4.68628 184.323C4.68628 186.623 6.20972 188.981 8.05542 189.89L7.35229 190.812C5.91675 190.058 4.71558 188.52 4.14429 186.711C3.55835 188.637 2.32788 190.278 0.863037 191.062L0.130615 190.139C2.03491 189.201 3.5437 186.696 3.55835 184.323V181.95H4.68628V184.323ZM10.3992 180.822V186.11H12.5818V187.106H10.3992V193.845H9.25659V180.822H10.3992ZM24.2156 180.837V184.104H26.1931V185.07H24.2156V188.703H23.073V180.837H24.2156ZM20.4949 181.643V185.158H15.7488V186.975C18.0632 186.975 19.7405 186.894 21.7693 186.55L21.8865 187.517C19.7917 187.868 18.0486 187.941 15.6316 187.941H14.6208V184.25H19.3669V182.595H14.5916V181.643H20.4949ZM20.0408 189.099C22.6921 189.099 24.3328 189.978 24.3328 191.472C24.3328 192.966 22.6921 193.815 20.0408 193.815C17.3455 193.815 15.7195 192.966 15.7195 191.472C15.7195 189.978 17.3455 189.099 20.0408 189.099ZM20.0408 190.007C18.0486 190.007 16.8328 190.549 16.8474 191.472C16.8328 192.38 18.0486 192.922 20.0408 192.922C22.0183 192.922 23.2195 192.38 23.2195 191.472C23.2195 190.549 22.0183 190.007 20.0408 190.007ZM44.1726 185.861V186.799H32.2634V185.861H35.9548C36.3577 184.272 36.4529 183.078 36.4822 182.287H33.3767V181.35H37.6248V181.687C37.6101 182.368 37.6101 183.833 37.1121 185.861H41.0964C41.4773 184.257 41.5432 183.093 41.5652 182.287H38.5037V181.35H42.6785V181.877C42.6785 182.668 42.6785 184.023 42.2537 185.861H44.1726ZM42.7078 188.19V189.084H34.9001V190.461H42.3708V191.325H34.9001V192.761H42.7957V193.669H33.7429V188.19H42.7078ZM57.1394 180.822V193.845H56.0261V180.822H57.1394ZM54.5173 181.101V193.186H53.4187V186.857H51.7488C51.6243 189.392 50.5476 190.974 48.9363 190.974C47.2371 190.974 46.1384 189.216 46.1384 186.447C46.1384 183.679 47.2371 181.921 48.9363 181.921C50.5183 181.921 51.5876 183.452 51.7341 185.905H53.4187V181.101H54.5173ZM48.9363 183.005C47.8816 183.005 47.2078 184.323 47.2224 186.447C47.2078 188.557 47.8816 189.89 48.9363 189.875C49.991 189.89 50.6648 188.557 50.6648 186.447C50.6648 184.323 49.991 183.005 48.9363 183.005ZM74.3865 180.837V183.825H76.364V184.792H74.3865V188.19H73.2439V180.837H74.3865ZM74.3865 188.908V193.669H66.1394V188.908H74.3865ZM67.2673 189.816V192.731H73.2732V189.816H67.2673ZM65.9929 181.496V186.228C67.8459 186.22 69.7576 186.074 71.8669 185.642L72.0134 186.608C69.8015 187.048 67.8386 187.194 65.8757 187.194H64.8357V181.496H65.9929ZM88.4519 184.777V185.7H79.531V181.306H80.6736V184.777H88.4519ZM89.8289 187.473V188.41H77.905V187.473H89.8289ZM88.5251 192.57V193.522H79.4578V189.743H80.6003V192.57H88.5251ZM106.944 180.837V190.461H105.787V185.817H102.901V184.851H105.787V180.837H106.944ZM102.96 181.833C102.945 185.173 100.557 187.722 96.8513 188.938L96.3533 188.015C99.3562 187.026 101.444 185.158 101.7 182.8H97.0125V181.833H102.96ZM107.281 192.6V193.566H98.6531V189.479H99.825V192.6H107.281ZM120.91 181.818C120.91 183.518 123.283 185.07 125.539 185.422L125.085 186.33C123.107 185.993 121.152 184.895 120.324 183.371C119.504 184.924 117.526 186.008 115.549 186.345L115.094 185.437C117.365 185.085 119.723 183.576 119.723 181.818V181.159H120.91V181.818ZM126.286 187.458V188.41H120.983V191.076H119.841V188.41H114.362V187.458H126.286ZM124.953 192.6V193.566H115.885V189.802H117.043V192.6H124.953ZM138.271 180.822V184.792H140.234V185.759H138.271V190.358H137.114V180.822H138.271ZM134.756 181.833C134.756 185.188 132.353 187.678 128.603 188.85L128.105 187.927C131.225 186.953 133.261 185.092 133.51 182.8H128.647V181.833H134.756ZM138.872 192.6V193.566H130.112V189.392H131.255V192.6H138.872ZM153.684 186.301V187.224H141.804V186.301H153.684ZM152.263 184.294V185.231H143.386V181.276H152.132V182.199H144.544V184.294H152.263ZM152.146 188.396V191.413H144.412V192.761H152.542V193.698H143.269V190.549H151.018V189.289H143.24V188.396H152.146ZM159.781 181.774C161.832 181.774 163.282 183.02 163.282 184.836C163.282 186.652 161.832 187.897 159.781 187.897C157.73 187.897 156.251 186.652 156.265 184.836C156.251 183.02 157.73 181.774 159.781 181.774ZM159.781 182.785C158.389 182.785 157.379 183.62 157.393 184.836C157.379 186.052 158.389 186.887 159.781 186.887C161.158 186.887 162.154 186.052 162.154 184.836C162.154 183.62 161.158 182.785 159.781 182.785ZM166.197 180.822V193.874H165.054V180.822H166.197ZM155.592 190.021C157.994 190.021 161.304 190.007 164.19 189.582L164.278 190.432C161.304 190.988 158.096 191.003 155.753 191.003L155.592 190.021ZM184.484 180.822V188.396H183.356V180.822H184.484ZM184.821 189.318V190.227H180.954C181.02 191.464 183.071 192.68 185.275 192.951L184.85 193.845C182.902 193.566 181.122 192.651 180.353 191.442C179.577 192.68 177.746 193.581 175.783 193.845L175.373 192.966C177.577 192.724 179.701 191.508 179.767 190.227H175.915V189.318H179.782V188.059H180.925V189.318H184.821ZM175.578 181.379V183.4H179.416V181.379H180.558V187.194H174.435V181.379H175.578ZM175.578 186.271H179.416V184.294H175.578V186.271ZM189.599 191.677L188.457 195.661H187.373L188.178 191.677H189.599ZM206.744 180.822V184.294H208.707V185.275H206.744V188.674H205.601V180.822H206.744ZM206.744 189.421V193.669H198.526V189.421H206.744ZM199.654 190.344V192.731H205.601V190.344H199.654ZM204.356 182.214V183.166H196.593V182.214H199.903V180.72H201.046V182.214H204.356ZM200.474 183.811C202.349 183.811 203.594 184.733 203.609 186.125C203.594 187.546 202.349 188.454 200.474 188.454C198.585 188.454 197.325 187.546 197.34 186.125C197.325 184.733 198.585 183.811 200.474 183.811ZM200.474 184.704C199.244 184.704 198.424 185.275 198.438 186.125C198.424 187.019 199.244 187.561 200.474 187.575C201.69 187.561 202.51 187.019 202.525 186.125C202.51 185.275 201.69 184.704 200.474 184.704ZM213.514 182.404C213.5 185.144 213.119 188.22 211.215 190.739L210.306 190.212C211.94 188.168 212.423 185.759 212.518 183.356H210.57V182.404H213.514ZM216.4 182.404C216.393 183.466 216.371 184.689 216.21 185.949H217.938V181.174H219.037V193.186H217.938V186.901H216.063C215.763 188.527 215.192 190.175 214.13 191.604L213.236 191.062C215.038 188.762 215.338 185.788 215.389 183.356H213.925V182.404H216.4ZM221.483 180.822V193.845H220.37V180.822H221.483ZM235.051 180.837V188.908H233.952V185.378H232.253V188.703H231.154V181.042H232.253V184.426H233.952V180.837H235.051ZM230.597 182.316V183.269H223.918V182.316H226.701V180.881H227.844V182.316H230.597ZM227.272 183.928C228.927 183.928 230.055 184.792 230.07 186.154C230.055 187.487 228.927 188.381 227.272 188.381C225.632 188.381 224.474 187.487 224.489 186.154C224.474 184.792 225.632 183.928 227.272 183.928ZM227.272 184.792C226.232 184.792 225.514 185.319 225.514 186.154C225.514 186.975 226.232 187.517 227.272 187.517C228.312 187.517 229.03 186.975 229.03 186.154C229.03 185.319 228.312 184.792 227.272 184.792ZM228.605 189.743C228.591 190.856 229.198 192.014 230.436 192.673C231.667 191.955 232.297 190.695 232.311 189.743V189.274H233.439V189.743C233.425 191.018 234.421 192.307 236.091 192.819L235.549 193.698C234.238 193.244 233.315 192.358 232.868 191.296C232.465 192.329 231.674 193.317 230.451 193.801C229.191 193.332 228.4 192.409 228.019 191.354C227.536 192.365 226.628 193.244 225.383 193.698L224.826 192.819C226.452 192.263 227.477 190.93 227.477 189.743V189.274H228.605V189.743ZM244.458 181.921V182.873H239.594V187.473C241.931 187.473 243.44 187.392 245.19 187.048L245.337 188C243.476 188.322 241.894 188.425 239.448 188.425H238.467V181.921H244.458ZM248.501 180.837V190.344H247.344V185.393H243.608V184.455H247.344V180.837H248.501ZM248.852 192.702V193.64H240.107V189.626H241.264V192.702H248.852ZM260.343 183.547C260.343 185.319 261.646 186.901 263.565 187.575L262.921 188.425C261.47 187.919 260.343 186.85 259.786 185.495C259.229 186.997 258.035 188.205 256.505 188.776L255.889 187.854C257.838 187.15 259.2 185.407 259.215 183.547V182.917H256.27V181.965H263.272V182.917H260.343V183.547ZM266.114 180.822V184.821H268.077V185.773H266.114V190.344H264.971V180.822H266.114ZM266.715 192.6V193.566H257.969V189.509H259.097V192.6H266.715ZM273.998 182.932C273.998 184.704 275.345 186.33 277.235 186.975L276.605 187.883C275.162 187.355 274.027 186.279 273.456 184.924C272.899 186.455 271.742 187.663 270.219 188.249L269.603 187.326C271.552 186.594 272.855 184.851 272.87 182.844V181.496H273.998V182.932ZM279.828 180.822V184.221H281.791V185.188H279.828V188.747H278.685V180.822H279.828ZM275.653 189.084C278.334 189.084 279.945 189.948 279.945 191.442C279.945 192.966 278.334 193.815 275.653 193.815C272.972 193.815 271.332 192.966 271.332 191.442C271.332 189.948 272.972 189.084 275.653 189.084ZM275.653 190.007C273.69 190.007 272.474 190.549 272.489 191.442C272.474 192.365 273.69 192.893 275.653 192.907C277.631 192.893 278.832 192.365 278.832 191.442C278.832 190.549 277.631 190.007 275.653 190.007ZM285.5 191.677L284.357 195.661H283.273L284.079 191.677H285.5ZM302.732 182.214V183.518C302.732 185.158 302.732 187.019 302.249 189.846L301.077 189.729C301.604 187.062 301.604 185.114 301.604 183.518V183.166H293.753V182.214H302.732ZM304.329 190.974V191.926H292.464V190.974H304.329ZM316.929 180.822V193.874H315.787V180.822H316.929ZM312.974 182.038V186.667H308.111V189.743C310.272 189.743 312.198 189.648 314.527 189.274L314.644 190.241C312.242 190.622 310.264 190.71 308.023 190.71H306.939V185.729H311.817V182.99H306.91V182.038H312.974ZM330.336 182.141V183.444C330.321 185.041 330.321 186.828 329.852 189.45L328.68 189.318C329.178 186.828 329.178 184.997 329.178 183.444V183.093H321.151V182.141H330.336ZM331.757 191.047V191.999H319.891V191.047H324.55V186.389H325.677V191.047H331.757ZM348.388 182.214V183.518C348.388 185.158 348.388 187.019 347.905 189.846L346.733 189.729C347.26 187.062 347.26 185.114 347.26 183.518V183.166H339.409V182.214H348.388ZM349.985 190.974V191.926H338.12V190.974H349.985ZM366.529 180.822V184.792H368.492V185.759H366.529V190.432H365.386V180.822H366.529ZM367.13 192.6V193.566H358.385V189.436H359.512V192.6H367.13ZM360.01 181.745C361.959 181.745 363.424 183.063 363.438 184.953C363.424 186.843 361.959 188.161 360.01 188.161C358.062 188.161 356.583 186.843 356.597 184.953C356.583 183.063 358.062 181.745 360.01 181.745ZM360.01 182.756C358.721 182.756 357.711 183.664 357.725 184.953C357.711 186.242 358.721 187.15 360.01 187.15C361.329 187.15 362.31 186.242 362.31 184.953C362.31 183.664 361.329 182.756 360.01 182.756ZM381.224 180.822V193.845H380.111V180.822H381.224ZM378.602 181.101V193.186H377.504V186.857H375.834C375.709 189.392 374.633 190.974 373.021 190.974C371.322 190.974 370.223 189.216 370.223 186.447C370.223 183.679 371.322 181.921 373.021 181.921C374.603 181.921 375.673 183.452 375.819 185.905H377.504V181.101H378.602ZM373.021 183.005C371.967 183.005 371.293 184.323 371.307 186.447C371.293 188.557 371.967 189.89 373.021 189.875C374.076 189.89 374.75 188.557 374.75 186.447C374.75 184.323 374.076 183.005 373.021 183.005ZM398.823 184.514V185.466H394.795V187.224H400.171V188.176H388.291V187.224H393.652V185.466H389.902V181.115H391.045V184.514H398.823ZM398.691 189.509V193.845H397.534V190.446H389.682V189.509H398.691ZM405.491 181.833C407.41 181.848 408.772 183.605 408.787 186.374C408.772 189.143 407.41 190.9 405.491 190.9C403.557 190.9 402.21 189.143 402.21 186.374C402.21 183.605 403.557 181.848 405.491 181.833ZM405.491 182.858C404.202 182.873 403.294 184.25 403.294 186.374C403.294 188.498 404.202 189.875 405.491 189.875C406.795 189.875 407.674 188.498 407.674 186.374C407.674 184.25 406.795 182.873 405.491 182.858ZM412.083 180.822V186.022H414.265V187.019H412.083V193.845H410.94V180.822H412.083ZM427.598 187.399V188.337H415.719V187.399H427.598ZM426.236 185.012V185.964H417.227V181.394H426.119V182.331H418.37V185.012H426.236ZM426.339 192.585V193.552H417.257V189.743H418.399V192.585H426.339ZM438.312 184.323C438.312 186.623 439.836 188.981 441.681 189.89L440.978 190.812C439.543 190.058 438.342 188.52 437.77 186.711C437.184 188.637 435.954 190.278 434.489 191.062L433.757 190.139C435.661 189.201 437.17 186.696 437.184 184.323V181.95H438.312V184.323ZM444.025 180.822V186.11H446.208V187.106H444.025V193.845H442.883V180.822H444.025ZM457.842 180.837V184.177H459.819V185.158H457.842V188.601H456.699V180.837H457.842ZM457.842 189.245V193.669H449.594V189.245H457.842ZM450.722 190.139V192.731H456.728V190.139H450.722ZM454.121 181.54V185.1H449.375V186.945C451.689 186.945 453.366 186.879 455.395 186.55L455.512 187.473C453.418 187.839 451.675 187.912 449.258 187.912H448.247V184.206H452.993V182.492H448.218V181.54H454.121ZM465.637 181.774C467.688 181.774 469.138 183.02 469.138 184.836C469.138 186.652 467.688 187.897 465.637 187.897C463.587 187.897 462.107 186.652 462.122 184.836C462.107 183.02 463.587 181.774 465.637 181.774ZM465.637 182.785C464.246 182.785 463.235 183.62 463.25 184.836C463.235 186.052 464.246 186.887 465.637 186.887C467.014 186.887 468.01 186.052 468.01 184.836C468.01 183.62 467.014 182.785 465.637 182.785ZM472.053 180.822V193.874H470.911V180.822H472.053ZM461.448 190.021C463.85 190.021 467.161 190.007 470.047 189.582L470.135 190.432C467.161 190.988 463.953 191.003 461.609 191.003L461.448 190.021ZM491.469 188.425V189.348H479.603V188.425H491.469ZM490.15 192.614V193.566H481.141V190.285H482.299V192.614H490.15ZM490.78 182.067V182.961H480.219V182.067H484.965V180.676H486.107V182.067H490.78ZM485.536 183.547C488.202 183.547 489.755 184.235 489.755 185.568C489.755 186.857 488.202 187.546 485.536 187.561C482.841 187.546 481.302 186.857 481.302 185.568C481.302 184.235 482.841 183.547 485.536 183.547ZM485.536 184.396C483.588 184.396 482.46 184.821 482.474 185.568C482.46 186.301 483.588 186.696 485.536 186.696C487.484 186.696 488.597 186.301 488.597 185.568C488.597 184.821 487.484 184.396 485.536 184.396ZM497.844 183.225C497.844 184.924 499.147 186.535 501.052 187.194L500.451 188.103C498.979 187.575 497.844 186.484 497.287 185.144C496.723 186.645 495.522 187.846 493.976 188.41L493.376 187.502C495.295 186.813 496.686 185.07 496.686 183.239V182.668H493.742V181.73H500.759V182.668H497.844V183.225ZM504.113 189.318V193.845H502.956V190.271H495.353V189.318H504.113ZM504.113 180.822V188.63H502.956V185.202H500.348V184.235H502.956V180.822H504.113ZM517.768 180.822V193.874H516.611V180.822H517.768ZM510.84 181.833C512.773 181.848 514.165 183.605 514.165 186.374C514.165 189.143 512.773 190.9 510.84 190.9C508.891 190.9 507.514 189.143 507.514 186.374C507.514 183.605 508.891 181.848 510.84 181.833ZM510.84 182.858C509.536 182.873 508.628 184.25 508.628 186.374C508.628 188.498 509.536 189.875 510.84 189.875C512.143 189.875 513.052 188.498 513.052 186.374C513.052 184.25 512.143 182.873 510.84 182.858ZM530.823 180.822V185.979H533.006V186.945H530.823V193.874H529.68V180.822H530.823ZM527.395 182.097V183.049H522.459V189.641C524.817 189.641 526.487 189.531 528.421 189.172L528.567 190.168C526.531 190.534 524.817 190.607 522.342 190.607H521.316V182.097H527.395ZM535.836 192.746C535.323 192.746 534.884 192.321 534.898 191.794C534.884 191.281 535.323 190.856 535.836 190.856C536.348 190.856 536.773 191.281 536.773 191.794C536.773 192.321 536.348 192.746 535.836 192.746Z" fill="#1A1A1A"/>
</svg>
