<svg width="215" height="25" viewBox="0 0 215 25" fill="none" xmlns="http://www.w3.org/2000/svg">
<path d="M8.49683 5.37109C8.47339 9.19141 10.114 13.0586 13.5359 14.6992L11.7312 17.0898C9.44604 15.9648 7.91089 13.8555 7.02026 11.2773C6.09448 14.043 4.44214 16.3047 2.02808 17.4883L0.176514 15.0742C3.78589 13.4102 5.49683 9.33203 5.49683 5.37109V2.18359H8.49683V5.37109ZM17.4734 0.542969V8.76953H20.614V11.3008H17.4734V21.8711H14.4734V0.542969H17.4734ZM38.3093 0.566406V5.53516H41.1921V7.99609H38.3093V13.3398H35.3093V0.566406H38.3093ZM31.9343 1.83203V8.18359H25.1375V10.0586C28.6648 10.0352 31.0554 9.89453 33.7625 9.42578L34.0906 11.8164C31.0203 12.3789 28.2781 12.4961 23.9656 12.4961H22.1609V5.93359H29.0281V4.17578H22.1375V1.83203H31.9343ZM31.2781 13.7617C35.7078 13.7617 38.5203 15.3086 38.5203 17.8633C38.5203 20.3945 35.7078 21.8477 31.2781 21.8477C26.7546 21.8477 23.9656 20.3945 23.9656 17.8633C23.9656 15.3086 26.7546 13.7617 31.2781 13.7617ZM31.2781 16.082C28.4421 16.082 26.8953 16.668 26.9187 17.8633C26.8953 19.0117 28.4421 19.6211 31.2781 19.6211C34.0906 19.6211 35.5671 19.0117 35.5671 17.8633C35.5671 16.668 34.0906 16.082 31.2781 16.082ZM46.6296 17.9805L44.614 24.6602H42.1296L43.3015 17.9805H46.6296ZM65.8953 1.97266V4.36328H61.6531C61.6765 6.84766 63.1648 9.25 66.575 10.2461L65.1453 12.5898C62.7898 11.875 61.1609 10.4453 60.2234 8.60547C59.2742 10.7617 57.5398 12.4727 54.9734 13.3164L53.45 10.9492C56.989 9.83594 58.5828 7.07031 58.6296 4.36328H54.2703V1.97266H65.8953ZM70.7 0.542969V5.48828H73.5828V7.92578H70.7V13.1992H67.7V0.542969H70.7ZM63.7156 13.6211C68.1453 13.5977 70.9109 15.1211 70.9109 17.7227C70.9109 20.3242 68.1453 21.8711 63.7156 21.8711C59.1921 21.8711 56.4031 20.3242 56.4031 17.7227C56.4031 15.1211 59.1921 13.5977 63.7156 13.6211ZM63.7156 15.9414C60.9031 15.9414 59.3796 16.5273 59.4031 17.7227C59.3796 18.9414 60.9031 19.5508 63.7156 19.5508C66.4812 19.5508 67.9578 18.9414 67.9578 17.7227C67.9578 16.5273 66.4812 15.9414 63.7156 15.9414ZM85.3953 2.06641V11.9805H75.1531V2.06641H85.3953ZM78.1062 4.41016V9.63672H82.4421V4.41016H78.1062ZM91.4421 0.542969V5.65234H94.325V8.08984H91.4421V13.1992H88.4421V0.542969H91.4421ZM91.4421 14.1367V21.8945H88.4421V16.5039H77.075V14.1367H91.4421ZM99.7625 17.9805L97.7468 24.6602H95.2625L96.4343 17.9805H99.7625ZM123.973 2.51172V5.06641C123.973 7.99609 123.973 10.9023 123.2 15.3086L120.177 15.0508C120.973 10.9492 120.973 7.90234 120.997 5.06641V4.90234H108.927V2.51172H123.973ZM126.364 16.6211V19.082H106.911V16.6211H126.364ZM145.536 0.542969V21.918H142.559V0.542969H145.536ZM138.927 2.32422V10.5508H131.895V14.4648C135.141 14.4531 137.907 14.2656 141.036 13.7617L141.294 16.1758C137.778 16.7852 134.614 16.9258 130.723 16.9258H128.802V8.18359H135.88V4.73828H128.778V2.32422H138.927ZM165.973 2.39453V4.41016C165.973 7.08203 165.973 10.082 165.106 14.6055L162.106 14.3008C162.915 10.2695 162.95 7.26953 162.973 4.76172H150.411V2.39453H165.973ZM167.848 16.832V19.2695H148.395V16.832H155.356V9.49609H158.333V16.832H167.848ZM192.645 0.566406V16.8086H189.669V12.7773H186.786V10.4102H189.669V8.27734H186.786V5.86328H189.669V0.566406H192.645ZM186.575 2.79297V5.16016H174.716V2.79297H179.309V0.519531H182.286V2.79297H186.575ZM180.762 5.91016C183.692 5.91016 185.802 7.64453 185.825 10.1055C185.802 12.5664 183.692 14.2773 180.762 14.2773C177.856 14.2773 175.747 12.5664 175.77 10.1055C175.747 7.64453 177.856 5.91016 180.762 5.91016ZM180.762 8.23047C179.45 8.25391 178.536 8.91016 178.559 10.1055C178.536 11.3242 179.45 12.0039 180.762 12.0039C182.052 12.0039 182.989 11.3242 183.012 10.1055C182.989 8.91016 182.052 8.25391 180.762 8.23047ZM193.091 19.1055V21.4961H178.442V15.4258H181.466V19.1055H193.091ZM214.02 0.542969V21.8711H211.161V11.1836H209.356V20.8867H206.52V14.7695L204.833 17.0195C202.852 15.9766 201.575 14.207 200.825 12.0039C200.11 14.5352 198.844 16.5859 196.817 17.793L194.966 15.4961C198.2 13.668 199.302 9.89453 199.302 5.81641V5.13672H195.692V2.74609H205.466V5.13672H202.208V5.81641C202.208 9.53125 203.309 13.0703 206.52 14.7227V0.847656H209.356V8.74609H211.161V0.542969H214.02Z" fill="#1A1A1A"/>
</svg>
