<svg width="216" height="24" viewBox="0 0 216 24" fill="none" xmlns="http://www.w3.org/2000/svg">
<path d="M8.44971 5.42578C8.42627 9.15234 10.5825 12.9492 13.7231 14.4727L12.3403 16.2539C10.0552 15.0703 8.28564 12.7148 7.37158 9.90234C6.42236 12.9023 4.58252 15.4102 2.19189 16.6523L0.809082 14.8477C4.04346 13.3008 6.22314 9.26953 6.22314 5.42578V1.83984H8.44971V5.42578ZM17.52 0.0820312V8.44922H20.895V10.3477H17.52V21.082H15.2935V0.0820312H17.52ZM38.4028 0.105469V5.23828H41.4731V7.08984H38.4028V12.7383H36.1763V0.105469H38.4028ZM32.3091 1.37109V7.25391H24.9966V9.80859C28.6411 9.79688 31.2192 9.66797 34.2778 9.15234L34.5122 10.957C31.2544 11.543 28.4888 11.6602 24.4575 11.6367H22.77V5.54297H30.1294V3.17578H22.7466V1.37109H32.3091ZM31.606 13.3008C35.9185 13.3008 38.5903 14.7539 38.5903 17.1914C38.5903 19.6289 35.9185 21.0352 31.606 21.0352C27.2231 21.0352 24.5513 19.6289 24.5513 17.1914C24.5513 14.7539 27.2231 13.3008 31.606 13.3008ZM31.606 15.0586C28.5356 15.0586 26.731 15.832 26.731 17.1914C26.731 18.5508 28.5356 19.3477 31.606 19.3242C34.6528 19.3477 36.4106 18.5508 36.4106 17.1914C36.4106 15.832 34.6528 15.0586 31.606 15.0586ZM46.4185 17.4727L44.5435 23.9414H42.5513L43.7935 17.4727H46.4185ZM61.981 3.94922C61.981 6.62109 63.8325 9.05859 67.02 10.0664L65.9653 11.8008C63.5747 11.0391 61.8286 9.45703 60.9028 7.46484C59.9888 9.76172 58.1489 11.5781 55.6294 12.457L54.481 10.6758C57.7622 9.59766 59.731 6.87891 59.7544 3.97266V3.38672H55.1372V1.58203H66.5044V3.38672H61.981V3.94922ZM71.145 0.0820312V5.28516H74.1919V7.11328H71.145V12.6914H68.9185V0.0820312H71.145ZM64.3716 13.207C68.7075 13.207 71.3325 14.6367 71.3325 17.0977C71.3325 19.582 68.7075 21.0586 64.3716 21.0352C59.9888 21.0586 57.3169 19.582 57.3169 17.0977C57.3169 14.6367 59.9888 13.207 64.3716 13.207ZM64.3716 14.9648C61.3247 14.9648 59.52 15.7383 59.5435 17.0977C59.52 18.5039 61.3247 19.2773 64.3716 19.2773C67.395 19.2773 69.1528 18.5039 69.1528 17.0977C69.1528 15.7383 67.395 14.9648 64.3716 14.9648ZM86.0278 1.62891V11.0742H76.2075V1.62891H86.0278ZM78.3872 3.38672V9.29297H83.8481V3.38672H78.3872ZM91.8872 0.0820312V5.40234H94.9341V7.25391H91.8872V12.5273H89.6606V0.0820312H91.8872ZM91.8872 13.582V21.1055H89.6606V15.3633H78.0122V13.582H91.8872ZM99.9028 17.4727L98.0278 23.9414H96.0356L97.2778 17.4727H99.9028ZM124.77 2.21484V4.46484C124.77 7.18359 124.77 10.1367 123.997 14.6133L121.723 14.4023C122.567 10.207 122.567 7.11328 122.567 4.46484V4.04297H110.192V2.21484H124.77ZM127.278 16.2539V18.1055H108.129V16.2539H127.278ZM146.309 0.0820312V21.1289H144.083V0.0820312H146.309ZM139.887 1.98047V9.64453H132.34V14.2383C135.739 14.2266 138.715 14.0742 142.231 13.4883L142.442 15.3164C138.715 15.9492 135.551 16.0898 131.848 16.0898H130.067V7.86328H137.614V3.78516H130.043V1.98047H139.887ZM166.606 2.09766V4.16016C166.606 6.76172 166.606 9.66797 165.809 13.957L163.559 13.7227C164.379 9.66797 164.379 6.69141 164.379 4.16016V3.90234H151.629V2.09766H166.606ZM168.762 16.3945V18.2461H149.614V16.3945H156.903V8.98828H159.106V16.3945H168.762ZM193.723 0.105469V16.1133H191.497V11.7773H188.122V9.99609H191.497V7.39453H188.122V5.56641H191.497V0.105469H193.723ZM188.051 2.54297V4.34766H176.239V2.54297H181.161V0.0820312H183.364V2.54297H188.051ZM182.239 5.35547C185.075 5.35547 187.067 6.99609 187.09 9.38672C187.067 11.8008 185.075 13.4414 182.239 13.4414C179.403 13.4414 177.411 11.8008 177.411 9.38672C177.411 6.99609 179.403 5.35547 182.239 5.35547ZM182.239 7.08984C180.598 7.11328 179.497 8.00391 179.497 9.38672C179.497 10.8164 180.598 11.707 182.239 11.707C183.856 11.707 184.981 10.8164 185.004 9.38672C184.981 8.00391 183.856 7.11328 182.239 7.08984ZM194.192 18.832V20.6367H180.012V14.707H182.262V18.832H194.192ZM215.098 0.0820312V21.082H212.965V10.3008H210.458V20.0508H208.348V0.480469H210.458V8.42578H212.965V0.0820312H215.098ZM203.333 5.63672C203.333 9.41016 204.762 12.832 207.809 14.4023L206.497 16.1133C204.434 15 203.051 13.043 202.301 10.6055C201.586 13.3711 200.192 15.5742 198.059 16.8398L196.676 15.1523C199.747 13.418 201.176 9.80859 201.176 5.63672V4.27734H197.239V2.47266H206.989V4.27734H203.333V5.63672Z" fill="#1A1A1A"/>
</svg>
