<svg width="587" height="196" viewBox="0 0 587 196" fill="none" xmlns="http://www.w3.org/2000/svg">
<path d="M11.1169 0.836914V10.7686H9.95972V7.9707H7.70386V7.0332H9.95972V5.26074H7.70386V4.30859H9.95972V0.836914H11.1169ZM7.70386 2.43359V3.37109H0.335693V2.43359H3.49976V0.822266H4.64233V2.43359H7.70386ZM4.0564 4.08887C5.79956 4.08887 7.03003 5.08496 7.03003 6.5791C7.03003 8.05859 5.79956 9.06934 4.0564 9.06934C2.31323 9.06934 1.09741 8.05859 1.11206 6.5791C1.09741 5.08496 2.31323 4.08887 4.0564 4.08887ZM4.0564 4.99707C2.94312 5.01172 2.1814 5.6416 2.1814 6.5791C2.1814 7.5166 2.94312 8.14648 4.0564 8.14648C5.16968 8.14648 5.9314 7.5166 5.94604 6.5791C5.9314 5.6416 5.16968 5.01172 4.0564 4.99707ZM11.4099 12.5996V13.5664H2.69409V9.88965H3.85132V12.5996H11.4099ZM24.7722 0.822266V7.5752H23.6443V0.822266H24.7722ZM24.7869 8.23438V11.3545H17.4773V12.7607H25.2556V13.6982H16.3494V10.4609H23.6443V9.15723H16.3201V8.23438H24.7869ZM18.6492 2.19922C18.6345 4.04492 20.0408 5.6709 21.9744 6.30078L21.4031 7.19434C19.8796 6.67432 18.6638 5.58301 18.0779 4.17676C17.4919 5.69287 16.2688 6.88672 14.7234 7.44336L14.1228 6.53516C16.0857 5.84668 17.4773 4.11816 17.4773 2.19922V1.20312H18.6492V2.19922ZM34.9705 2.27246V2.94629C34.9558 3.97168 34.9558 5.7002 34.5896 8.11719L33.4324 8.01465C33.7839 5.83203 33.8132 4.25 33.8132 3.20996H28.3494V2.27246H34.9705ZM31.5574 5.99316V9.94824C33.0002 9.89697 34.4797 9.80176 35.8347 9.64062L35.8933 10.5049C33.1541 10.9297 30.0925 10.9883 27.7634 10.9736L27.6169 10.0215C28.4739 10.0142 29.426 10.0068 30.4294 9.97754V5.99316H31.5574ZM37.7976 0.822266V6.27148H39.907V7.26758H37.7976V13.8447H36.655V0.822266H37.7976ZM56.7146 0.822266V13.874H55.5574V0.822266H56.7146ZM47.8816 1.93555V5.37793H51.7634V1.93555H52.8914V10.7246H46.739V1.93555H47.8816ZM47.8816 9.75781H51.7634V6.30078H47.8816V9.75781ZM70.4871 0.836914V10.7686H69.3298V7.9707H67.074V7.0332H69.3298V5.26074H67.074V4.30859H69.3298V0.836914H70.4871ZM67.074 2.43359V3.37109H59.7058V2.43359H62.8699V0.822266H64.0125V2.43359H67.074ZM63.4265 4.08887C65.1697 4.08887 66.4001 5.08496 66.4001 6.5791C66.4001 8.05859 65.1697 9.06934 63.4265 9.06934C61.6833 9.06934 60.4675 8.05859 60.4822 6.5791C60.4675 5.08496 61.6833 4.08887 63.4265 4.08887ZM63.4265 4.99707C62.3132 5.01172 61.5515 5.6416 61.5515 6.5791C61.5515 7.5166 62.3132 8.14648 63.4265 8.14648C64.5398 8.14648 65.3015 7.5166 65.3162 6.5791C65.3015 5.6416 64.5398 5.01172 63.4265 4.99707ZM70.78 12.5996V13.5664H62.0642V9.88965H63.2214V12.5996H70.78ZM84.1423 0.822266V7.5752H83.0144V0.822266H84.1423ZM84.157 8.23438V11.3545H76.8474V12.7607H84.6257V13.6982H75.7195V10.4609H83.0144V9.15723H75.6902V8.23438H84.157ZM78.0193 2.19922C78.0046 4.04492 79.4109 5.6709 81.3445 6.30078L80.7732 7.19434C79.2498 6.67432 78.0339 5.58301 77.448 4.17676C76.8621 5.69287 75.6389 6.88672 74.0935 7.44336L73.4929 6.53516C75.4558 5.84668 76.8474 4.11816 76.8474 2.19922V1.20312H78.0193V2.19922ZM93.0515 1.05664C95.9519 1.05664 97.6511 1.84766 97.6511 3.29785C97.6511 4.77734 95.9519 5.56836 93.0515 5.58301C90.1511 5.56836 88.4373 4.77734 88.4373 3.29785C88.4373 1.84766 90.1511 1.05664 93.0515 1.05664ZM93.0515 1.9209C90.8835 1.9209 89.6238 2.44824 89.6384 3.29785C89.6238 4.20605 90.8835 4.7041 93.0515 4.7041C95.2048 4.7041 96.4792 4.20605 96.4792 3.29785C96.4792 2.44824 95.2048 1.9209 93.0515 1.9209ZM98.9841 6.46191V7.39941H87.1189V6.46191H98.9841ZM97.4607 8.52734V11.4424H89.7263V12.79H97.8562V13.6982H88.5837V10.5928H96.3328V9.40625H88.5544V8.52734H97.4607ZM117.535 6.02246V6.98926H115.426V13.8447H114.283V0.822266H115.426V6.02246H117.535ZM107.032 2.11133V9.56738C108.936 9.56006 110.877 9.41357 113.023 8.9668L113.17 9.94824C110.928 10.4023 108.907 10.5342 106.929 10.5342H105.889V2.11133H107.032ZM129.579 5.2168V6.16895H120.599V1.49609H121.742V5.2168H129.579ZM130.985 8.13184V9.09863H125.536V13.8447H124.393V9.09863H119.061V8.13184H130.985ZM143.307 4.77734V5.7002H134.386V1.30566H135.529V4.77734H143.307ZM144.684 7.47266V8.41016H132.76V7.47266H144.684ZM143.381 12.5703V13.5225H134.313V9.74316H135.456V12.5703H143.381ZM155.413 3.29785C155.413 4.99707 156.687 6.52051 158.606 7.15039L158.064 8.05859C156.563 7.56787 155.427 6.52783 154.871 5.2168C154.307 6.71094 153.106 7.87549 151.546 8.43945L150.96 7.5166C152.908 6.85742 154.27 5.17285 154.285 3.29785V2.74121H151.311V1.78906H158.343V2.74121H155.413V3.29785ZM161.184 0.822266V4.14746H163.147V5.11426H161.184V8.68848H160.042V0.822266H161.184ZM157.01 9.04004C159.69 9.04004 161.302 9.91895 161.302 11.4131C161.302 12.9365 159.69 13.8154 157.01 13.8154C154.329 13.8154 152.688 12.9365 152.688 11.4131C152.688 9.91895 154.329 9.04004 157.01 9.04004ZM157.01 9.96289C155.047 9.96289 153.831 10.5049 153.845 11.4131C153.831 12.3506 155.047 12.8926 157.01 12.8926C158.987 12.8926 160.188 12.3506 160.188 11.4131C160.188 10.5049 158.987 9.96289 157.01 9.96289ZM171.295 1.80371V7.56055H165.274V1.80371H171.295ZM166.402 2.72656V6.62305H170.181V2.72656H166.402ZM174.898 0.822266V4.2207H176.861V5.1875H174.898V8.54199H173.756V0.822266H174.898ZM174.898 9.24512V13.874H173.756V10.168H166.373V9.24512H174.898ZM187.238 1.4668C189.186 1.45215 190.578 2.52148 190.578 4.11816C190.578 5.7002 189.186 6.79883 187.238 6.78418C185.29 6.79883 183.898 5.7002 183.898 4.11816C183.898 2.52148 185.29 1.45215 187.238 1.4668ZM187.238 2.4043C185.934 2.38965 185.011 3.10742 185.026 4.11816C185.011 5.14355 185.934 5.84668 187.238 5.83203C188.556 5.84668 189.479 5.14355 189.479 4.11816C189.479 3.10742 188.556 2.38965 187.238 2.4043ZM193.683 0.836914V13.8594H192.555V0.836914H193.683ZM182.917 7.89746C185.363 7.89746 188.703 7.85352 191.603 7.42871L191.677 8.29297C190.431 8.52002 189.135 8.65918 187.883 8.73242V13.4492H186.74V8.80566C185.414 8.86426 184.162 8.87158 183.078 8.87891L182.917 7.89746ZM207.822 0.822266V13.8447H206.709V0.822266H207.822ZM205.2 1.10059V13.1855H204.101V6.85742H202.431C202.307 9.3916 201.23 10.9736 199.619 10.9736C197.92 10.9736 196.821 9.21582 196.821 6.44727C196.821 3.67871 197.92 1.9209 199.619 1.9209C201.201 1.9209 202.27 3.45166 202.417 5.90527H204.101V1.10059H205.2ZM199.619 3.00488C198.564 3.00488 197.89 4.32324 197.905 6.44727C197.89 8.55664 198.564 9.88965 199.619 9.875C200.674 9.88965 201.347 8.55664 201.347 6.44727C201.347 4.32324 200.674 3.00488 199.619 3.00488ZM214.959 4.32324C214.959 6.68164 216.468 9.05469 218.357 9.91895L217.669 10.8564C216.189 10.0947 214.966 8.53467 214.387 6.68164C213.809 8.62988 212.586 10.2998 211.106 11.0908L210.359 10.168C212.263 9.23047 213.787 6.72559 213.787 4.32324V1.9502H214.959V4.32324ZM221.17 0.822266V13.874H220.027V6.21289H216.936V5.27539H220.027V0.822266H221.17ZM240.511 8.29297V9.25977H235.077V13.8447H233.949V9.25977H228.588V8.29297H240.511ZM234.52 1.34961C237.26 1.34961 239.105 2.44824 239.105 4.2207C239.105 5.94922 237.26 7.04785 234.52 7.04785C231.781 7.04785 229.935 5.94922 229.935 4.2207C229.935 2.44824 231.781 1.34961 234.52 1.34961ZM234.52 2.28711C232.484 2.28711 231.107 3.04883 231.122 4.2207C231.107 5.37793 232.484 6.125 234.52 6.125C236.542 6.125 237.933 5.37793 237.933 4.2207C237.933 3.04883 236.542 2.28711 234.52 2.28711ZM253.068 0.822266V13.874H251.926V0.822266H253.068ZM249.113 2.03809V6.66699H244.25V9.74316C246.41 9.74316 248.337 9.64795 250.666 9.27441L250.783 10.2412C248.381 10.6221 246.403 10.71 244.162 10.71H243.078V5.72949H247.956V2.99023H243.049V2.03809H249.113ZM266.562 4.77734V5.7002H257.641V1.30566H258.784V4.77734H266.562ZM267.939 7.47266V8.41016H256.015V7.47266H267.939ZM266.635 12.5703V13.5225H257.568V9.74316H258.711V12.5703H266.635ZM285.054 0.836914V10.7686H283.897V7.9707H281.641V7.0332H283.897V5.26074H281.641V4.30859H283.897V0.836914H285.054ZM281.641 2.43359V3.37109H274.273V2.43359H277.437V0.822266H278.58V2.43359H281.641ZM277.994 4.08887C279.737 4.08887 280.968 5.08496 280.968 6.5791C280.968 8.05859 279.737 9.06934 277.994 9.06934C276.251 9.06934 275.035 8.05859 275.05 6.5791C275.035 5.08496 276.251 4.08887 277.994 4.08887ZM277.994 4.99707C276.881 5.01172 276.119 5.6416 276.119 6.5791C276.119 7.5166 276.881 8.14648 277.994 8.14648C279.107 8.14648 279.869 7.5166 279.884 6.5791C279.869 5.6416 279.107 5.01172 277.994 4.99707ZM285.347 12.5996V13.5664H276.632V9.88965H277.789V12.5996H285.347ZM299.164 0.822266V13.8447H298.051V7.07715H296.278V13.1855H295.179V1.10059H296.278V6.0957H298.051V0.822266H299.164ZM291.825 4.38184C291.825 6.76953 292.806 8.86426 294.667 9.81641L293.978 10.71C292.66 9.99219 291.759 8.70312 291.298 7.10645C290.851 8.92285 289.935 10.3438 288.558 11.1494L287.841 10.2705C289.716 9.24512 290.712 7.01855 290.712 4.38184V3.3418H288.148V2.375H294.242V3.3418H291.825V4.38184ZM313.595 6.87207V7.78027H301.672V6.87207H313.595ZM312.101 8.82031V11.5889H304.279V12.834H312.526V13.6689H303.122V10.7979H310.959V9.68457H303.107V8.82031H312.101ZM312.057 1.21777V3.91309H304.367V5.05566H312.292V5.89062H303.224V3.12207H310.9V2.05273H303.18V1.21777H312.057ZM324.28 2.31641C324.28 4.07422 325.613 5.59766 327.517 6.19824L326.902 7.0918C325.445 6.58643 324.309 5.59033 323.753 4.2793C323.189 5.78076 321.988 6.92334 320.427 7.4873L319.842 6.56445C321.804 5.89062 323.152 4.26465 323.152 2.31641V1.27637H324.28V2.31641ZM330.095 0.822266V3.67871H332.058V4.64551H330.095V7.63379H328.953V0.822266H330.095ZM330.095 8.21973V11.3252H322.947V12.7607H330.579V13.6982H321.819V10.4463H328.953V9.14258H321.79V8.21973H330.095ZM337.115 1.83301C339.034 1.84766 340.396 3.60547 340.411 6.37402C340.396 9.14258 339.034 10.9004 337.115 10.9004C335.181 10.9004 333.834 9.14258 333.834 6.37402C333.834 3.60547 335.181 1.84766 337.115 1.83301ZM337.115 2.8584C335.826 2.87305 334.918 4.25 334.918 6.37402C334.918 8.49805 335.826 9.875 337.115 9.875C338.419 9.875 339.298 8.49805 339.298 6.37402C339.298 4.25 338.419 2.87305 337.115 2.8584ZM343.707 0.822266V6.02246H345.889V7.01855H343.707V13.8447H342.564V0.822266H343.707ZM357.523 0.822266V4.79199H359.486V5.75879H357.523V10.3584H356.366V0.822266H357.523ZM354.008 1.83301C354.008 5.1875 351.605 7.67773 347.855 8.84961L347.357 7.92676C350.477 6.95264 352.513 5.09229 352.762 2.7998H347.899V1.83301H354.008ZM358.124 12.5996V13.5664H349.364V9.3916H350.507V12.5996H358.124ZM371.135 0.822266V5.97852H373.317V6.94531H371.135V13.874H369.992V0.822266H371.135ZM367.707 2.09668V3.04883H362.77V9.64062C365.129 9.64062 366.799 9.53076 368.732 9.17188L368.879 10.168C366.843 10.5342 365.129 10.6074 362.653 10.6074H361.628V2.09668H367.707ZM376.147 12.7461C375.635 12.7461 375.195 12.3213 375.21 11.7939C375.195 11.2812 375.635 10.8564 376.147 10.8564C376.66 10.8564 377.085 11.2812 377.085 11.7939C377.085 12.3213 376.66 12.7461 376.147 12.7461ZM11.1169 30.8369V40.7686H9.95972V37.9707H7.70386V37.0332H9.95972V35.2607H7.70386V34.3086H9.95972V30.8369H11.1169ZM7.70386 32.4336V33.3711H0.335693V32.4336H3.49976V30.8223H4.64233V32.4336H7.70386ZM4.0564 34.0889C5.79956 34.0889 7.03003 35.085 7.03003 36.5791C7.03003 38.0586 5.79956 39.0693 4.0564 39.0693C2.31323 39.0693 1.09741 38.0586 1.11206 36.5791C1.09741 35.085 2.31323 34.0889 4.0564 34.0889ZM4.0564 34.9971C2.94312 35.0117 2.1814 35.6416 2.1814 36.5791C2.1814 37.5166 2.94312 38.1465 4.0564 38.1465C5.16968 38.1465 5.9314 37.5166 5.94604 36.5791C5.9314 35.6416 5.16968 35.0117 4.0564 34.9971ZM11.4099 42.5996V43.5664H2.69409V39.8896H3.85132V42.5996H11.4099ZM25.2263 30.8223V43.8447H24.113V37.0771H22.3406V43.1855H21.2419V31.1006H22.3406V36.0957H24.113V30.8223H25.2263ZM17.8875 34.3818C17.8875 36.7695 18.8689 38.8643 20.7292 39.8164L20.0408 40.71C18.7224 39.9922 17.8215 38.7031 17.3601 37.1064C16.9133 38.9229 15.9978 40.3438 14.6208 41.1494L13.9031 40.2705C15.7781 39.2451 16.7742 37.0186 16.7742 34.3818V33.3418H14.2107V32.375H20.3044V33.3418H17.8875V34.3818ZM38.281 34.7773V35.7002H29.3601V31.3057H30.5027V34.7773H38.281ZM39.658 37.4727V38.4102H27.7341V37.4727H39.658ZM38.3542 42.5703V43.5225H29.2869V39.7432H30.4294V42.5703H38.3542ZM53.199 32.2725V32.9463C53.1843 33.9717 53.1843 35.7002 52.8181 38.1172L51.6609 38.0146C52.0125 35.832 52.0417 34.25 52.0417 33.21H46.5779V32.2725H53.199ZM49.7859 35.9932V39.9482C51.2288 39.897 52.7083 39.8018 54.0632 39.6406L54.1218 40.5049C51.3826 40.9297 48.321 40.9883 45.9919 40.9736L45.8455 40.0215C46.7024 40.0142 47.6545 40.0068 48.658 39.9775V35.9932H49.7859ZM56.0261 30.8223V36.2715H58.1355V37.2676H56.0261V43.8447H54.8835V30.8223H56.0261ZM70.4724 30.8223V43.8447H69.3298V37.0186H66.2244V36.0664H69.3298V30.8223H70.4724ZM66.2537 32.2432C66.2537 35.9346 64.6863 39.2158 60.3357 41.3691L59.7058 40.4463C63.2361 38.7397 64.8694 36.2349 65.0964 33.1807H60.2771V32.2432H66.2537ZM77.3308 31.6719C79.3376 31.6865 80.7878 32.917 80.8025 34.7334C80.7878 36.3667 79.616 37.5312 77.9167 37.7363V39.9629C79.1326 39.9043 80.3557 39.8164 81.491 39.6699L81.5642 40.5342C78.8103 41.0029 75.7195 41.0322 73.4343 41.0176L73.2439 40.0508C74.2913 40.0435 75.5071 40.0361 76.7595 39.9922V37.7363C75.031 37.5386 73.8445 36.374 73.8591 34.7334C73.8445 32.917 75.2947 31.6865 77.3308 31.6719ZM77.3308 32.668C75.9685 32.668 74.9724 33.5176 74.9871 34.7334C74.9724 35.9492 75.9685 36.7988 77.3308 36.7988C78.6785 36.7988 79.6599 35.9492 79.6746 34.7334C79.6599 33.5176 78.6785 32.668 77.3308 32.668ZM83.4685 30.8223V36.1982H85.5925V37.1943H83.4685V43.8447H82.3259V30.8223H83.4685ZM98.4158 32.1113V40.5781H92.3953V32.1113H98.4158ZM93.5232 33.0342V39.6406H97.2878V33.0342H93.5232ZM102.371 30.8223V43.874H101.214V30.8223H102.371ZM110.665 32.2432V36.7988H106.9V39.7578C108.394 39.7505 109.808 39.6846 111.5 39.4062L111.602 40.3438C109.757 40.666 108.277 40.7246 106.636 40.7246H105.787V35.8467H109.552V33.21H105.758V32.2432H110.665ZM116.48 30.8223V43.8447H115.382V36.9307H113.463V43.1709H112.408V31.1152H113.463V35.9785H115.382V30.8223H116.48ZM130.97 36.8721V37.7803H119.047V36.8721H130.97ZM129.476 38.8203V41.5889H121.654V42.834H129.901V43.6689H120.497V40.7979H128.334V39.6846H120.482V38.8203H129.476ZM129.432 31.2178V33.9131H121.742V35.0557H129.667V35.8906H120.599V33.1221H128.275V32.0527H120.555V31.2178H129.432ZM148.086 30.8369V40.4609H146.928V36.9453H143.559C142.959 37.7144 141.992 38.1758 140.879 38.1758C138.93 38.1758 137.495 36.8281 137.495 34.9238C137.495 33.0195 138.93 31.6719 140.879 31.6572C141.985 31.6646 142.929 32.1187 143.545 32.873H146.928V30.8369H148.086ZM148.452 42.5996V43.5664H139.721V39.4502H140.879V42.5996H148.452ZM140.879 32.6826C139.546 32.6973 138.594 33.6201 138.594 34.9238C138.594 36.2275 139.546 37.1504 140.879 37.1504C142.153 37.1504 143.135 36.2275 143.135 34.9238C143.135 33.6201 142.153 32.6973 140.879 32.6826ZM144.072 33.8252C144.182 34.1621 144.248 34.5283 144.248 34.9238C144.248 35.3047 144.182 35.6636 144.072 35.9932H146.928V33.8252H144.072ZM161.8 30.8223V37.4873H160.642V36.125H157.171V35.2168H160.642V33.6494H157.361C156.541 35.7075 154.519 37.0918 151.634 37.7803L151.223 36.8281C154.417 36.0884 156.277 34.5283 156.497 32.4336H151.883V31.4814H157.757C157.757 31.9136 157.713 32.3311 157.639 32.7266H160.642V30.8223H161.8ZM161.8 38.0732V41.252H154.534V42.7754H162.239V43.7275H153.391V40.373H160.642V39.0107H153.362V38.0732H161.8ZM169.405 33.1953C169.405 34.9385 170.797 36.5059 172.745 37.1211L172.159 38.0293C170.65 37.5312 169.449 36.4766 168.863 35.1289C168.292 36.645 167.083 37.8462 165.538 38.4248L164.923 37.5166C166.9 36.8135 168.248 35.0703 168.248 33.1953V32.7705H165.201V31.8184H172.408V32.7705H169.405V33.1953ZM175.469 30.8223V39.6846H174.327V30.8223H175.469ZM171.837 39.2598C171.822 41.1348 173.917 42.4971 176.231 42.8926L175.792 43.7861C173.807 43.4346 171.998 42.4312 171.236 40.9004C170.46 42.4312 168.643 43.4346 166.68 43.7861L166.226 42.8926C168.541 42.4971 170.635 41.1348 170.635 39.2598V38.9375H171.837V39.2598ZM188.964 34.7773V35.7002H180.043V31.3057H181.185V34.7773H188.964ZM190.341 37.4727V38.4102H178.417V37.4727H190.341ZM189.037 42.5703V43.5225H179.969V39.7432H181.112V42.5703H189.037ZM208.774 32.4482V33.4004H206.841V34.8799H208.774V35.832H206.841V37.6924H205.698V30.8223H206.841V32.4482H208.774ZM203.75 38.293V39.9629H205.801V38.293H206.841V43.6689H202.695V38.293H203.75ZM203.75 42.7607H205.801V40.8564H203.75V42.7607ZM201.889 38.4248V41.3691H198.945V42.7754C200.307 42.7754 201.135 42.7534 202.182 42.541L202.3 43.4199C201.069 43.6689 200.161 43.6689 198.491 43.6689H197.817V40.5195H200.791V39.3037H197.788V38.4248H201.889ZM200.293 31.4082C202.256 31.4082 203.677 32.5947 203.677 34.3672C203.677 36.0957 202.256 37.2822 200.293 37.2822C198.344 37.2822 196.894 36.0957 196.909 34.3672C196.894 32.5947 198.344 31.4082 200.293 31.4082ZM200.293 32.3604C199.004 32.3604 198.022 33.1807 198.037 34.3672C198.022 35.5244 199.004 36.3594 200.293 36.3594C201.596 36.3594 202.549 35.5244 202.549 34.3672C202.549 33.1807 201.596 32.3604 200.293 32.3604ZM222.239 37.6924V38.6299H210.374V37.6924H222.239ZM220.921 42.5996V43.5664H211.912V39.7725H213.069V42.5996H220.921ZM216.306 31.291C219.104 31.2764 220.906 32.2432 220.906 33.8691C220.906 35.4951 219.104 36.4619 216.306 36.4619C213.479 36.4619 211.692 35.4951 211.692 33.8691C211.692 32.2432 213.479 31.2764 216.306 31.291ZM216.306 32.2139C214.212 32.2139 212.864 32.8438 212.879 33.8691C212.864 34.8945 214.212 35.5244 216.306 35.5244C218.386 35.5244 219.734 34.8945 219.734 33.8691C219.734 32.8438 218.386 32.2139 216.306 32.2139ZM240.468 37.4434V38.3955H228.602V37.4434H240.468ZM235.092 30.793V32.0967H239.266V33.0342H235.165C235.26 34.4771 237.325 35.4731 239.764 35.7002L239.413 36.5938C237.252 36.3667 235.326 35.5903 234.535 34.2793C233.737 35.5903 231.803 36.3667 229.657 36.5938L229.291 35.7002C231.73 35.4731 233.795 34.4771 233.905 33.0342H229.833V32.0967H233.964V30.793H235.092ZM234.535 39.5088C237.362 39.5088 239.003 40.2705 239.017 41.6621C239.003 43.0684 237.362 43.8154 234.535 43.8154C231.708 43.8154 230.038 43.0684 230.038 41.6621C230.038 40.2705 231.708 39.5088 234.535 39.5088ZM234.535 40.373C232.426 40.373 231.195 40.8418 231.21 41.6621C231.195 42.4824 232.426 42.9365 234.535 42.9219C236.615 42.9365 237.86 42.4824 237.86 41.6621C237.86 40.8418 236.615 40.373 234.535 40.373ZM253.053 30.8223V43.874H251.896V30.8223H253.053ZM246.125 31.833C248.058 31.8477 249.45 33.6055 249.45 36.374C249.45 39.1426 248.058 40.9004 246.125 40.9004C244.177 40.9004 242.8 39.1426 242.8 36.374C242.8 33.6055 244.177 31.8477 246.125 31.833ZM246.125 32.8584C244.821 32.873 243.913 34.25 243.913 36.374C243.913 38.498 244.821 39.875 246.125 39.875C247.428 39.875 248.337 38.498 248.337 36.374C248.337 34.25 247.428 32.873 246.125 32.8584ZM262.49 32.126V33.957H265.683V30.8223H266.826V43.874H265.683V38.498H262.49V40.5488H256.557V32.126H262.49ZM257.7 33.0342V39.626H261.377V33.0342H257.7ZM262.49 37.5459H265.683V34.9092H262.49V37.5459ZM271.883 41.6768L270.74 45.6611H269.656L270.462 41.6768H271.883ZM12.2302 68.293V69.2598H6.79565V73.8447H5.66772V69.2598H0.306396V68.293H12.2302ZM6.23901 61.3496C8.97827 61.3496 10.824 62.4482 10.824 64.2207C10.824 65.9492 8.97827 67.0479 6.23901 67.0479C3.49976 67.0479 1.65405 65.9492 1.65405 64.2207C1.65405 62.4482 3.49976 61.3496 6.23901 61.3496ZM6.23901 62.2871C4.20288 62.2871 2.82593 63.0488 2.84058 64.2207C2.82593 65.3779 4.20288 66.125 6.23901 66.125C8.2605 66.125 9.6521 65.3779 9.6521 64.2207C9.6521 63.0488 8.2605 62.2871 6.23901 62.2871ZM24.7869 60.8223V73.874H23.6443V60.8223H24.7869ZM20.8318 62.0381V66.667H15.9685V69.7432C18.1292 69.7432 20.0554 69.6479 22.3845 69.2744L22.5017 70.2412C20.0994 70.6221 18.1218 70.71 15.8806 70.71H14.7966V65.7295H19.6746V62.9902H14.7673V62.0381H20.8318ZM37.8269 60.8223V66.125H39.9363V67.0918H37.8269V73.8447H36.6843V60.8223H37.8269ZM34.4578 62.2285C34.4578 65.9199 32.7292 69.2744 28.4812 71.3691L27.8367 70.4609C31.2058 68.7837 33.0369 66.2788 33.3005 63.1953H28.4373V62.2285H34.4578ZM56.5242 66.7256V67.6777H47.4421V61.9648H48.5994V66.7256H56.5242ZM57.9011 71.0762V72.043H45.9773V71.0762H57.9011ZM70.4431 60.8223V73.8447H69.3005V60.8223H70.4431ZM63.7488 62.2432C63.7341 65.3193 62.9578 68.4102 60.5994 70.8711L59.6912 70.2119C61.6394 68.2271 62.5037 65.8027 62.6648 63.21H60.1746V62.2432H63.7488ZM67.3962 62.2432C67.3962 65.3047 66.8982 68.9229 64.5251 71.75L63.5291 71.1201C65.5432 68.8203 66.1877 65.9272 66.3123 63.21H64.1736V62.2432H67.3962ZM83.9373 64.7773V65.7002H75.0164V61.3057H76.1589V64.7773H83.9373ZM85.3142 67.4727V68.4102H73.3904V67.4727H85.3142ZM84.0105 72.5703V73.5225H74.9431V69.7432H76.0857V72.5703H84.0105ZM95.9988 64.3232C95.9988 66.623 97.5222 68.9814 99.3679 69.8896L98.6648 70.8125C97.2292 70.0581 96.0281 68.52 95.4568 66.7109C94.8708 68.6372 93.6404 70.2778 92.1755 71.0615L91.4431 70.1387C93.3474 69.2012 94.8562 66.6963 94.8708 64.3232V61.9502H95.9988V64.3232ZM101.712 60.8223V66.1104H103.894V67.1064H101.712V73.8447H100.569V60.8223H101.712ZM115.528 60.8369V64.1035H117.506V65.0703H115.528V68.7031H114.385V60.8369H115.528ZM111.807 61.6426V65.1582H107.061V66.9746C109.376 66.9746 111.053 66.894 113.082 66.5498L113.199 67.5166C111.104 67.8682 109.361 67.9414 106.944 67.9414H105.933V64.25H110.679V62.5947H105.904V61.6426H111.807ZM111.353 69.0986C114.005 69.0986 115.645 69.9775 115.645 71.4717C115.645 72.9658 114.005 73.8154 111.353 73.8154C108.658 73.8154 107.032 72.9658 107.032 71.4717C107.032 69.9775 108.658 69.0986 111.353 69.0986ZM111.353 70.0068C109.361 70.0068 108.145 70.5488 108.16 71.4717C108.145 72.3799 109.361 72.9219 111.353 72.9219C113.331 72.9219 114.532 72.3799 114.532 71.4717C114.532 70.5488 113.331 70.0068 111.353 70.0068ZM130.927 67.6924V68.6299H119.061V67.6924H130.927ZM129.608 72.5996V73.5664H120.599V69.7725H121.757V72.5996H129.608ZM124.994 61.291C127.792 61.2764 129.594 62.2432 129.594 63.8691C129.594 65.4951 127.792 66.4619 124.994 66.4619C122.167 66.4619 120.38 65.4951 120.38 63.8691C120.38 62.2432 122.167 61.2764 124.994 61.291ZM124.994 62.2139C122.899 62.2139 121.552 62.8438 121.566 63.8691C121.552 64.8945 122.899 65.5244 124.994 65.5244C127.074 65.5244 128.422 64.8945 128.422 63.8691C128.422 62.8438 127.074 62.2139 124.994 62.2139ZM147.368 60.8223V65.9492H149.551V66.9453H147.368V73.8447H146.225V60.8223H147.368ZM138.974 61.9355V65.3779H142.783V61.9355H143.926V70.7246H137.832V61.9355H138.974ZM138.974 69.7578H142.783V66.3008H138.974V69.7578ZM162.927 71.2666V72.2334H151.004V71.2666H156.365V68.8057H152.498V64.792H160.291V62.7412H152.469V61.7891H161.419V65.7295H153.64V67.8535H161.726V68.8057H157.493V71.2666H162.927ZM179.501 62.2139V63.5176C179.501 65.1582 179.501 67.0186 179.017 69.8457L177.845 69.7285C178.373 67.0625 178.373 65.1143 178.373 63.5176V63.166H170.521V62.2139H179.501ZM181.097 70.9736V71.9258H169.232V70.9736H181.097ZM191.87 63.2979C191.87 64.9971 193.144 66.5205 195.063 67.1504L194.521 68.0586C193.02 67.5679 191.885 66.5278 191.328 65.2168C190.764 66.7109 189.563 67.8755 188.003 68.4395L187.417 67.5166C189.365 66.8574 190.727 65.1729 190.742 63.2979V62.7412H187.768V61.7891H194.8V62.7412H191.87V63.2979ZM197.641 60.8223V64.1475H199.604V65.1143H197.641V68.6885H196.499V60.8223H197.641ZM193.467 69.04C196.147 69.04 197.759 69.9189 197.759 71.4131C197.759 72.9365 196.147 73.8154 193.467 73.8154C190.786 73.8154 189.145 72.9365 189.145 71.4131C189.145 69.9189 190.786 69.04 193.467 69.04ZM193.467 69.9629C191.504 69.9629 190.288 70.5049 190.302 71.4131C190.288 72.3506 191.504 72.8926 193.467 72.8926C195.444 72.8926 196.645 72.3506 196.645 71.4131C196.645 70.5049 195.444 69.9629 193.467 69.9629ZM207.752 61.8037V67.5605H201.731V61.8037H207.752ZM202.859 62.7266V66.623H206.638V62.7266H202.859ZM211.355 60.8223V64.2207H213.318V65.1875H211.355V68.542H210.213V60.8223H211.355ZM211.355 69.2451V73.874H210.213V70.168H202.83V69.2451H211.355ZM223.695 61.4668C225.643 61.4521 227.035 62.5215 227.035 64.1182C227.035 65.7002 225.643 66.7988 223.695 66.7842C221.747 66.7988 220.355 65.7002 220.355 64.1182C220.355 62.5215 221.747 61.4521 223.695 61.4668ZM223.695 62.4043C222.391 62.3896 221.469 63.1074 221.483 64.1182C221.469 65.1436 222.391 65.8467 223.695 65.832C225.013 65.8467 225.936 65.1436 225.936 64.1182C225.936 63.1074 225.013 62.3896 223.695 62.4043ZM230.14 60.8369V73.8594H229.012V60.8369H230.14ZM219.374 67.8975C221.82 67.8975 225.16 67.8535 228.06 67.4287L228.134 68.293C226.888 68.52 225.592 68.6592 224.34 68.7324V73.4492H223.197V68.8057C221.871 68.8643 220.619 68.8716 219.535 68.8789L219.374 67.8975ZM244.279 60.8223V73.8447H243.166V60.8223H244.279ZM241.657 61.1006V73.1855H240.558V66.8574H238.888C238.764 69.3916 237.687 70.9736 236.076 70.9736C234.377 70.9736 233.278 69.2158 233.278 66.4473C233.278 63.6787 234.377 61.9209 236.076 61.9209C237.658 61.9209 238.727 63.4517 238.874 65.9053H240.558V61.1006H241.657ZM236.076 63.0049C235.021 63.0049 234.347 64.3232 234.362 66.4473C234.347 68.5566 235.021 69.8896 236.076 69.875C237.131 69.8896 237.804 68.5566 237.804 66.4473C237.804 64.3232 237.131 63.0049 236.076 63.0049ZM258.025 62.4482C258.01 64.0596 260.208 65.3779 262.508 65.6709L262.053 66.6084C259.951 66.2788 257.989 65.2388 257.278 63.708C256.575 65.2388 254.619 66.2788 252.503 66.6084L252.078 65.6709C254.378 65.3779 256.531 64.0596 256.531 62.4482V62.4189H252.429V61.4668H262.156V62.4189H258.025V62.4482ZM261.892 72.5996V73.5664H252.884V69.8604H254.041V72.5996H261.892ZM263.255 67.8535V68.8057H251.345V67.8535H256.707V65.6709H257.835V67.8535H263.255ZM276.251 60.8223V73.8447H275.137V67.0771H273.365V73.1855H272.266V61.1006H273.365V66.0957H275.137V60.8223H276.251ZM268.912 64.3818C268.912 66.7695 269.893 68.8643 271.754 69.8164L271.065 70.71C269.747 69.9922 268.846 68.7031 268.385 67.1064C267.938 68.9229 267.022 70.3438 265.645 71.1494L264.927 70.2705C266.802 69.2451 267.799 67.0186 267.799 64.3818V63.3418H265.235V62.375H271.329V63.3418H268.912V64.3818ZM288.851 60.8223V66.1982H291.034V67.1504H288.851V73.8447H287.709V60.8223H288.851ZM286.449 62.917V63.8691H278.7V62.917H282.054V60.9834H283.197V62.917H286.449ZM282.64 64.9531C284.486 64.9531 285.819 66.1836 285.834 67.9414C285.819 69.6992 284.486 70.9297 282.64 70.9297C280.78 70.9297 279.432 69.6992 279.447 67.9414C279.432 66.1836 280.78 64.9531 282.64 64.9531ZM282.64 65.9199C281.425 65.9199 280.531 66.7695 280.546 67.9414C280.531 69.1279 281.425 69.9629 282.64 69.9482C283.842 69.9629 284.72 69.1279 284.735 67.9414C284.72 66.7695 283.842 65.9199 282.64 65.9199ZM303.019 64.7773V65.7002H294.098V61.3057H295.241V64.7773H303.019ZM304.396 67.4727V68.4102H292.472V67.4727H304.396ZM303.093 72.5703V73.5225H294.025V69.7432H295.168V72.5703H303.093ZM320.896 60.8223V64.0156H322.859V64.9678H320.896V68.2197H319.754V60.8223H320.896ZM317.337 61.6719C317.322 64.9531 315.022 67.2969 311.17 68.3516L310.701 67.4287C313.909 66.5645 315.865 64.8286 316.106 62.624H311.287V61.6719H317.337ZM320.896 68.8203V73.6689H312.649V68.8203H320.896ZM313.792 69.7725V72.7314H319.754V69.7725H313.792ZM335.225 60.8223V68.5859H334.068V65.1729H331.446V64.2207H334.068V60.8223H335.225ZM330.904 68.9961C333.614 68.9961 335.269 69.875 335.269 71.4131C335.269 72.9512 333.614 73.8301 330.904 73.8447C328.194 73.8301 326.539 72.9512 326.539 71.4131C326.539 69.875 328.194 68.9961 330.904 68.9961ZM330.904 69.8896C328.912 69.8896 327.667 70.4609 327.681 71.4131C327.667 72.3506 328.912 72.9219 330.904 72.9219C332.896 72.9219 334.127 72.3506 334.127 71.4131C334.127 70.4609 332.896 69.8896 330.904 69.8896ZM328.956 63.21C328.956 64.9092 330.26 66.5205 332.164 67.1797L331.563 68.1025C330.098 67.5752 328.963 66.4839 328.414 65.1289C327.843 66.6597 326.634 67.8828 325.089 68.4688L324.488 67.5459C326.422 66.8428 327.799 65.085 327.799 63.2246V62.7412H324.854V61.7744H331.871V62.7412H328.956V63.21ZM348.881 60.8223V73.874H347.723V60.8223H348.881ZM341.952 61.833C343.885 61.8477 345.277 63.6055 345.277 66.374C345.277 69.1426 343.885 70.9004 341.952 70.9004C340.004 70.9004 338.627 69.1426 338.627 66.374C338.627 63.6055 340.004 61.8477 341.952 61.833ZM341.952 62.8584C340.648 62.873 339.74 64.25 339.74 66.374C339.74 68.498 340.648 69.875 341.952 69.875C343.256 69.875 344.164 68.498 344.164 66.374C344.164 64.25 343.256 62.873 341.952 62.8584ZM361.935 60.8223V65.9785H364.118V66.9453H361.935V73.874H360.793V60.8223H361.935ZM358.508 62.0967V63.0488H353.571V69.6406C355.929 69.6406 357.599 69.5308 359.533 69.1719L359.679 70.168C357.643 70.5342 355.929 70.6074 353.454 70.6074H352.428V62.0967H358.508ZM366.948 72.7461C366.435 72.7461 365.996 72.3213 366.01 71.7939C365.996 71.2812 366.435 70.8564 366.948 70.8564C367.461 70.8564 367.885 71.2812 367.885 71.7939C367.885 72.3213 367.461 72.7461 366.948 72.7461ZM4.68628 94.3232C4.68628 96.623 6.20972 98.9814 8.05542 99.8896L7.35229 100.812C5.91675 100.058 4.71558 98.52 4.14429 96.7109C3.55835 98.6372 2.32788 100.278 0.863037 101.062L0.130615 100.139C2.03491 99.2012 3.5437 96.6963 3.55835 94.3232V91.9502H4.68628V94.3232ZM10.3992 90.8223V96.1104H12.5818V97.1064H10.3992V103.845H9.25659V90.8223H10.3992ZM24.2156 90.8369V94.1035H26.1931V95.0703H24.2156V98.7031H23.073V90.8369H24.2156ZM20.4949 91.6426V95.1582H15.7488V96.9746C18.0632 96.9746 19.7405 96.894 21.7693 96.5498L21.8865 97.5166C19.7917 97.8682 18.0486 97.9414 15.6316 97.9414H14.6208V94.25H19.3669V92.5947H14.5916V91.6426H20.4949ZM20.0408 99.0986C22.6921 99.0986 24.3328 99.9775 24.3328 101.472C24.3328 102.966 22.6921 103.815 20.0408 103.815C17.3455 103.815 15.7195 102.966 15.7195 101.472C15.7195 99.9775 17.3455 99.0986 20.0408 99.0986ZM20.0408 100.007C18.0486 100.007 16.8328 100.549 16.8474 101.472C16.8328 102.38 18.0486 102.922 20.0408 102.922C22.0183 102.922 23.2195 102.38 23.2195 101.472C23.2195 100.549 22.0183 100.007 20.0408 100.007ZM39.614 97.6924V98.6299H27.7488V97.6924H39.614ZM38.2957 102.6V103.566H29.2869V99.7725H30.4441V102.6H38.2957ZM33.6814 91.291C36.4792 91.2764 38.281 92.2432 38.281 93.8691C38.281 95.4951 36.4792 96.4619 33.6814 96.4619C30.8542 96.4619 29.0671 95.4951 29.0671 93.8691C29.0671 92.2432 30.8542 91.2764 33.6814 91.291ZM33.6814 92.2139C31.5867 92.2139 30.239 92.8438 30.2537 93.8691C30.239 94.8945 31.5867 95.5244 33.6814 95.5244C35.7615 95.5244 37.1091 94.8945 37.1091 93.8691C37.1091 92.8438 35.7615 92.2139 33.6814 92.2139ZM53.199 92.2725V92.9463C53.1843 93.9717 53.1843 95.7002 52.8181 98.1172L51.6609 98.0146C52.0125 95.832 52.0417 94.25 52.0417 93.21H46.5779V92.2725H53.199ZM49.7859 95.9932V99.9482C51.2288 99.897 52.7083 99.8018 54.0632 99.6406L54.1218 100.505C51.3826 100.93 48.321 100.988 45.9919 100.974L45.8455 100.021C46.7024 100.014 47.6545 100.007 48.658 99.9775V95.9932H49.7859ZM56.0261 90.8223V96.2715H58.1355V97.2676H56.0261V103.845H54.8835V90.8223H56.0261ZM70.4724 90.8223V103.845H69.3298V97.0186H66.2244V96.0664H69.3298V90.8223H70.4724ZM66.2537 92.2432C66.2537 95.9346 64.6863 99.2158 60.3357 101.369L59.7058 100.446C63.2361 98.7397 64.8694 96.2349 65.0964 93.1807H60.2771V92.2432H66.2537ZM77.6677 91.7744C79.7185 91.7744 81.1687 93.0195 81.1687 94.8359C81.1687 96.6523 79.7185 97.8975 77.6677 97.8975C75.6169 97.8975 74.1375 96.6523 74.1521 94.8359C74.1375 93.0195 75.6169 91.7744 77.6677 91.7744ZM77.6677 92.7852C76.2761 92.7852 75.2654 93.6201 75.28 94.8359C75.2654 96.0518 76.2761 96.8867 77.6677 96.8867C79.0447 96.8867 80.0408 96.0518 80.0408 94.8359C80.0408 93.6201 79.0447 92.7852 77.6677 92.7852ZM84.0837 90.8223V103.874H82.9412V90.8223H84.0837ZM73.4783 100.021C75.8806 100.021 79.1912 100.007 82.0769 99.582L82.1648 100.432C79.1912 100.988 75.9832 101.003 73.6394 101.003L73.4783 100.021ZM103.499 98.7031V99.6699H98.1228V103.874H96.9949V99.6699H91.6335V98.7031H103.499ZM98.1375 93.4004C98.1375 95.0264 100.408 96.4473 102.737 96.7695L102.312 97.6924C100.298 97.3848 98.4011 96.374 97.5808 94.9531C96.7458 96.3887 94.8196 97.3848 92.8054 97.6924L92.3806 96.7695C94.6951 96.4473 96.9949 95.041 96.9949 93.4004V93.3857H92.7908V92.4482H96.9949V90.8223H98.1228V92.4482H102.356V93.3857H98.1375V93.4004ZM116.143 99.2451V103.874H114.986V100.168H107.384V99.2451H116.143ZM116.143 90.8223V98.498H114.986V95.1582H112.276C112.027 96.7402 110.679 97.8096 108.936 97.7949C106.988 97.8096 105.552 96.5205 105.552 94.6748C105.552 92.8584 106.988 91.5693 108.936 91.5693C110.679 91.5693 112.027 92.6313 112.276 94.1914H114.986V90.8223H116.143ZM108.936 92.5508C107.633 92.5508 106.651 93.4443 106.651 94.6748C106.651 95.9492 107.633 96.8281 108.936 96.8281C110.211 96.8281 111.192 95.9492 111.192 94.6748C111.192 93.4443 110.211 92.5508 108.936 92.5508ZM124.994 91.0566C127.894 91.0566 129.594 91.8477 129.594 93.2979C129.594 94.7773 127.894 95.5684 124.994 95.583C122.094 95.5684 120.38 94.7773 120.38 93.2979C120.38 91.8477 122.094 91.0566 124.994 91.0566ZM124.994 91.9209C122.826 91.9209 121.566 92.4482 121.581 93.2979C121.566 94.2061 122.826 94.7041 124.994 94.7041C127.147 94.7041 128.422 94.2061 128.422 93.2979C128.422 92.4482 127.147 91.9209 124.994 91.9209ZM130.927 96.4619V97.3994H119.061V96.4619H130.927ZM129.403 98.5273V101.442H121.669V102.79H129.799V103.698H120.526V100.593H128.275V99.4062H120.497V98.5273H129.403ZM149.155 97.1211V98.0732H143.779V99.6113H147.705V103.669H138.74V99.6113H142.651V98.0732H137.29V97.1211H149.155ZM148.027 91.2471V92.1992H146.02V94.9385H147.983V95.8906H138.447V94.9385H140.41V92.1992H138.403V91.2471H148.027ZM139.883 100.52V102.731H146.577V100.52H139.883ZM141.552 94.9385H144.878V92.1992H141.552V94.9385ZM161.448 92.1406V93.4443C161.433 95.041 161.433 96.8281 160.965 99.4502L159.793 99.3184C160.291 96.8281 160.291 94.9971 160.291 93.4443V93.0928H152.263V92.1406H161.448ZM162.869 101.047V101.999H151.004V101.047H155.662V96.3887H156.79V101.047H162.869ZM166.856 101.677L165.714 105.661H164.63L165.435 101.677H166.856ZM180.602 92.1113V100.578H174.582V92.1113H180.602ZM175.71 93.0342V99.6406H179.474V93.0342H175.71ZM184.557 90.8223V103.874H183.4V90.8223H184.557ZM192.851 92.2432V96.7988H189.087V99.7578C190.581 99.7505 191.994 99.6846 193.686 99.4062L193.789 100.344C191.943 100.666 190.464 100.725 188.823 100.725H187.973V95.8467H191.738V93.21H187.944V92.2432H192.851ZM198.667 90.8223V103.845H197.568V96.9307H195.649V103.171H194.594V91.1152H195.649V95.9785H197.568V90.8223H198.667ZM205.51 91.7744C207.561 91.7744 209.011 93.0195 209.011 94.8359C209.011 96.6523 207.561 97.8975 205.51 97.8975C203.46 97.8975 201.98 96.6523 201.995 94.8359C201.98 93.0195 203.46 91.7744 205.51 91.7744ZM205.51 92.7852C204.119 92.7852 203.108 93.6201 203.123 94.8359C203.108 96.0518 204.119 96.8867 205.51 96.8867C206.887 96.8867 207.884 96.0518 207.884 94.8359C207.884 93.6201 206.887 92.7852 205.51 92.7852ZM211.927 90.8223V103.874H210.784V90.8223H211.927ZM201.321 100.021C203.723 100.021 207.034 100.007 209.92 99.582L210.008 100.432C207.034 100.988 203.826 101.003 201.482 101.003L201.321 100.021ZM231.591 92.8438V93.7812H229.657V95.6123H231.591V96.5938H229.657V98.5713H228.514V90.8223H229.657V92.8438H231.591ZM229.657 99.1719V103.845H228.514V100.124H221.132V99.1719H229.657ZM223.138 91.6133C225.116 91.5986 226.552 92.873 226.566 94.6748C226.552 96.5059 225.116 97.7656 223.138 97.7656C221.161 97.7656 219.711 96.5059 219.725 94.6748C219.711 92.873 221.161 91.5986 223.138 91.6133ZM223.138 92.5947C221.82 92.5947 220.839 93.4443 220.853 94.6748C220.839 95.9199 221.82 96.7842 223.138 96.7695C224.471 96.7842 225.438 95.9199 225.438 94.6748C225.438 93.4443 224.471 92.5947 223.138 92.5947ZM245.099 97.3701V98.3223H233.19V97.3701H238.552V95.3633H239.679V97.3701H245.099ZM239.694 91.6426C239.694 93.3711 242.038 94.8213 244.338 95.1436L243.869 96.0664C241.891 95.7222 239.936 94.6748 239.123 93.166C238.302 94.6821 236.34 95.7222 234.347 96.0664L233.908 95.1436C236.208 94.8213 238.537 93.3711 238.537 91.6426V91.0273H239.694V91.6426ZM243.591 99.5967V103.845H242.433V100.52H234.509V99.5967H243.591ZM252.837 91.0566C255.737 91.0566 257.436 91.8477 257.436 93.2979C257.436 94.7773 255.737 95.5684 252.837 95.583C249.936 95.5684 248.222 94.7773 248.222 93.2979C248.222 91.8477 249.936 91.0566 252.837 91.0566ZM252.837 91.9209C250.669 91.9209 249.409 92.4482 249.424 93.2979C249.409 94.2061 250.669 94.7041 252.837 94.7041C254.99 94.7041 256.264 94.2061 256.264 93.2979C256.264 92.4482 254.99 91.9209 252.837 91.9209ZM258.769 96.4619V97.3994H246.904V96.4619H258.769ZM257.246 98.5273V101.442H249.511V102.79H257.641V103.698H248.369V100.593H256.118V99.4062H248.34V98.5273H257.246ZM270.494 91.4668V91.8184C270.494 92.4995 270.494 93.957 269.996 95.9492H274.053C274.427 94.3672 274.493 93.2026 274.508 92.4043H271.475V91.4668H275.621V91.9502C275.621 92.7266 275.621 94.0742 275.225 95.9492H277.042V96.8867H271.607V99.0986H275.518V103.669H266.612V99.0986H270.479V96.8867H265.133V95.9492H268.853C269.249 94.3745 269.337 93.1953 269.366 92.4043H266.29V91.4668H270.494ZM267.74 100.021V102.731H274.376V100.021H267.74ZM290.712 97.1504V98.1172H285.336V103.859H284.193V98.1172H278.846V97.1504H282.274C282.802 95.1509 282.897 93.6421 282.933 92.6826H279.799V91.7451H284.047V92.1406C284.047 92.9683 284.047 94.6821 283.446 97.1504H287.723C288.177 95.1216 288.229 93.6494 288.236 92.6826H285.013V91.7451H289.379V92.3164C289.379 93.21 289.379 94.8213 288.895 97.1504H290.712ZM303.708 90.8223V103.845H302.609V90.8223H303.708ZM300.969 91.1738V103.186H299.87V97.1064H297.116C296.318 98.6226 295.065 99.9629 293.249 101.032L292.575 100.197C295.409 98.52 296.83 96.1689 297.043 93.4443H293.132V92.4922H298.185C298.178 93.7739 297.973 95.0117 297.541 96.1689H299.87V91.1738H300.969ZM320.867 90.8223V96.1982H323.05V97.1504H320.867V103.845H319.724V90.8223H320.867ZM318.465 92.917V93.8691H310.716V92.917H314.07V90.9834H315.213V92.917H318.465ZM314.656 94.9531C316.502 94.9531 317.835 96.1836 317.849 97.9414C317.835 99.6992 316.502 100.93 314.656 100.93C312.796 100.93 311.448 99.6992 311.463 97.9414C311.448 96.1836 312.796 94.9531 314.656 94.9531ZM314.656 95.9199C313.44 95.9199 312.547 96.7695 312.561 97.9414C312.547 99.1279 313.44 99.9629 314.656 99.9482C315.857 99.9629 316.736 99.1279 316.751 97.9414C316.736 96.7695 315.857 95.9199 314.656 95.9199ZM329.161 94.8213C329.161 97.0332 330.772 99.2744 332.691 100.109L332.047 101.018C330.523 100.322 329.205 98.8203 328.604 97.0186C327.989 98.9302 326.678 100.593 325.191 101.34L324.503 100.432C326.363 99.5381 327.989 97.0771 328.004 94.8213V93.1221H324.927V92.1699H332.266V93.1221H329.161V94.8213ZM335.24 90.8223V103.845H334.083V90.8223H335.24ZM344.794 92.0088V98H338.773V92.0088H344.794ZM339.901 92.9463V97.0771H343.68V92.9463H339.901ZM348.397 90.8223V94.792H350.36V95.7588H348.397V100.373H347.255V90.8223H348.397ZM348.998 102.6V103.566H340.253V99.4648H341.381V102.6H348.998ZM354.069 101.677L352.927 105.661H351.843L352.648 101.677H354.069ZM371.829 90.8223V98.5859H370.672V95.1729H368.05V94.2207H370.672V90.8223H371.829ZM367.508 98.9961C370.218 98.9961 371.873 99.875 371.873 101.413C371.873 102.951 370.218 103.83 367.508 103.845C364.798 103.83 363.142 102.951 363.142 101.413C363.142 99.875 364.798 98.9961 367.508 98.9961ZM367.508 99.8896C365.515 99.8896 364.27 100.461 364.285 101.413C364.27 102.351 365.515 102.922 367.508 102.922C369.5 102.922 370.73 102.351 370.73 101.413C370.73 100.461 369.5 99.8896 367.508 99.8896ZM365.559 93.21C365.559 94.9092 366.863 96.5205 368.767 97.1797L368.167 98.1025C366.702 97.5752 365.567 96.4839 365.017 95.1289C364.446 96.6597 363.238 97.8828 361.692 98.4688L361.092 97.5459C363.025 96.8428 364.402 95.085 364.402 93.2246V92.7412H361.458V91.7744H368.474V92.7412H365.559V93.21ZM379.156 93.2393C379.156 94.9678 380.43 96.5498 382.364 97.2236L381.778 98.1172C380.291 97.5898 379.156 96.5205 378.599 95.1729C378.043 96.6523 376.849 97.8022 375.318 98.3662L374.703 97.4727C376.651 96.7842 378.013 95.0996 378.028 93.2393V92.6826H375.054V91.7451H382.086V92.6826H379.156V93.2393ZM384.927 90.8223V94.2646H386.89V95.2461H384.927V98.6738H383.785V90.8223H384.927ZM384.927 99.3623V103.845H383.785V100.3H376.402V99.3623H384.927ZM403.771 90.8369V100.432H402.614V95.4072H399.889C399.633 97.0112 398.285 98.1025 396.564 98.1025C394.616 98.1025 393.18 96.7695 393.18 94.8799C393.18 92.9902 394.616 91.6719 396.564 91.6719C398.322 91.6719 399.692 92.7925 399.904 94.4551H402.614V90.8369H403.771ZM404.137 102.6V103.566H395.407V99.4502H396.564V102.6H404.137ZM396.564 92.6826C395.26 92.6973 394.279 93.5908 394.279 94.8799C394.279 96.1689 395.26 97.0918 396.564 97.1064C397.839 97.0918 398.82 96.1689 398.82 94.8799C398.82 93.5908 397.839 92.6973 396.564 92.6826ZM417.822 90.8223V103.845H416.723V90.8223H417.822ZM415.185 91.1445V103.171H414.101V96.4619H411.904V95.5244H414.101V91.1445H415.185ZM410.512 94.543C410.512 96.7988 411.523 99.04 413.325 100.08L412.622 100.93C411.34 100.161 410.432 98.7544 409.985 97.0918C409.509 98.8862 408.564 100.417 407.26 101.237L406.528 100.373C408.344 99.2891 409.399 96.916 409.399 94.543V93.3125H406.894V92.3604H412.9V93.3125H410.512V94.543ZM432.591 96.0225V96.9893H430.481V103.845H429.339V90.8223H430.481V96.0225H432.591ZM422.088 92.1113V99.5674C423.992 99.5601 425.933 99.4136 428.079 98.9668L428.225 99.9482C425.984 100.402 423.963 100.534 421.985 100.534H420.945V92.1113H422.088ZM438.646 96.0371L439.789 92.0527H440.873L440.067 96.0371H438.646ZM447.35 94.8213C447.35 97.0332 448.962 99.2744 450.881 100.109L450.236 101.018C448.713 100.322 447.394 98.8203 446.794 97.0186C446.178 98.9302 444.867 100.593 443.381 101.34L442.692 100.432C444.552 99.5381 446.178 97.0771 446.193 94.8213V93.1221H443.117V92.1699H450.456V93.1221H447.35V94.8213ZM453.429 90.8223V103.845H452.272V90.8223H453.429ZM466.762 91.5254V92.4922C466.762 93.5029 466.762 94.6895 466.426 96.3154H468.33V97.2676H456.406V96.3154H465.268C465.62 94.6821 465.62 93.5029 465.62 92.4922V92.4775H457.915V91.5254H466.762ZM466.821 99.0693V103.669H457.871V99.0693H466.821ZM459.013 99.9775V102.731H465.678V99.9775H459.013ZM472.361 92.0674L471.219 96.0518H470.135L470.94 92.0674H472.361ZM485.343 90.8223V103.845H484.229V90.8223H485.343ZM482.72 91.1006V103.186H481.622V96.8574H479.952C479.827 99.3916 478.751 100.974 477.139 100.974C475.44 100.974 474.342 99.2158 474.342 96.4473C474.342 93.6787 475.44 91.9209 477.139 91.9209C478.721 91.9209 479.791 93.4517 479.937 95.9053H481.622V91.1006H482.72ZM477.139 93.0049C476.085 93.0049 475.411 94.3232 475.426 96.4473C475.411 98.5566 476.085 99.8896 477.139 99.875C478.194 99.8896 478.868 98.5566 478.868 96.4473C478.868 94.3232 478.194 93.0049 477.139 93.0049ZM494.471 92.0088V98H488.451V92.0088H494.471ZM489.579 92.9463V97.0771H493.358V92.9463H489.579ZM498.075 90.8223V94.792H500.038V95.7588H498.075V100.373H496.932V90.8223H498.075ZM498.676 102.6V103.566H489.93V99.4648H491.058V102.6H498.676ZM512.802 92.4482C512.788 94.0596 514.985 95.3779 517.285 95.6709L516.831 96.6084C514.729 96.2788 512.766 95.2388 512.055 93.708C511.352 95.2388 509.397 96.2788 507.28 96.6084L506.855 95.6709C509.155 95.3779 511.308 94.0596 511.308 92.4482V92.4189H507.207V91.4668H516.933V92.4189H512.802V92.4482ZM516.67 102.6V103.566H507.661V99.8604H508.818V102.6H516.67ZM518.032 97.8535V98.8057H506.123V97.8535H511.484V95.6709H512.612V97.8535H518.032ZM531.028 90.8223V103.845H529.915V97.0771H528.142V103.186H527.044V91.1006H528.142V96.0957H529.915V90.8223H531.028ZM523.689 94.3818C523.689 96.7695 524.671 98.8643 526.531 99.8164L525.843 100.71C524.524 99.9922 523.623 98.7031 523.162 97.1064C522.715 98.9229 521.8 100.344 520.423 101.149L519.705 100.271C521.58 99.2451 522.576 97.0186 522.576 94.3818V93.3418H520.012V92.375H526.106V93.3418H523.689V94.3818ZM543.731 90.8369V95.1289H545.694V96.0957H543.731V100.593H542.589V90.8369H543.731ZM541.344 92.4336V93.3711H533.58V92.4336H536.89V90.8369H538.033V92.4336H541.344ZM537.462 94.0889C539.322 94.0889 540.582 95.041 540.596 96.5205C540.582 97.9854 539.322 98.9229 537.462 98.9229C535.587 98.9229 534.312 97.9854 534.327 96.5205C534.312 95.041 535.587 94.0889 537.462 94.0889ZM537.462 94.9971C536.231 94.9971 535.411 95.5977 535.426 96.5205C535.411 97.4434 536.231 98.0293 537.462 98.0146C538.677 98.0293 539.498 97.4434 539.512 96.5205C539.498 95.5977 538.677 94.9971 537.462 94.9971ZM544.332 102.6V103.566H535.587V99.8164H536.715V102.6H544.332ZM557.343 90.8223V95.9785H559.525V96.9453H557.343V103.874H556.2V90.8223H557.343ZM553.915 92.0967V93.0488H548.978V99.6406C551.337 99.6406 553.007 99.5308 554.94 99.1719L555.087 100.168C553.051 100.534 551.337 100.607 548.861 100.607H547.836V92.0967H553.915ZM562.355 102.746C561.843 102.746 561.403 102.321 561.418 101.794C561.403 101.281 561.843 100.856 562.355 100.856C562.868 100.856 563.293 101.281 563.293 101.794C563.293 102.321 562.868 102.746 562.355 102.746ZM0.335693 126.037L1.47827 122.053H2.56226L1.75659 126.037H0.335693ZM9.03979 124.821C9.03979 127.033 10.6511 129.274 12.5701 130.109L11.9255 131.018C10.4021 130.322 9.08374 128.82 8.48315 127.019C7.86792 128.93 6.55688 130.593 5.07007 131.34L4.38159 130.432C6.24194 129.538 7.86792 127.077 7.88257 124.821V123.122H4.8064V122.17H12.1453V123.122H9.03979V124.821ZM15.1189 120.822V133.845H13.9617V120.822H15.1189ZM28.4519 121.525V122.492C28.4519 123.503 28.4519 124.689 28.115 126.315H30.0193V127.268H18.0955V126.315H26.9578C27.3093 124.682 27.3093 123.503 27.3093 122.492V122.478H19.6042V121.525H28.4519ZM28.5105 129.069V133.669H19.5603V129.069H28.5105ZM20.7029 129.978V132.731H27.3679V129.978H20.7029ZM34.0505 122.067L32.908 126.052H31.824L32.6296 122.067H34.0505ZM46.6072 120.822V133.874H45.45V120.822H46.6072ZM39.6785 121.833C41.6121 121.848 43.0037 123.605 43.0037 126.374C43.0037 129.143 41.6121 130.9 39.6785 130.9C37.7302 130.9 36.3533 129.143 36.3533 126.374C36.3533 123.605 37.7302 121.848 39.6785 121.833ZM39.6785 122.858C38.3748 122.873 37.4666 124.25 37.4666 126.374C37.4666 128.498 38.3748 129.875 39.6785 129.875C40.9822 129.875 41.8904 128.498 41.8904 126.374C41.8904 124.25 40.9822 122.873 39.6785 122.858ZM59.6619 120.822V126.008H61.8445V126.975H59.6619V133.874H58.5193V120.822H59.6619ZM56.0144 122.038V126.696H51.2683V129.743C53.6853 129.743 55.3699 129.663 57.3474 129.289L57.4646 130.241C55.4138 130.622 53.6707 130.71 51.1658 130.725H50.1257V125.744H54.8718V122.99H50.0964V122.038H56.0144ZM73.8298 124.777V125.7H64.9089V121.306H66.0515V124.777H73.8298ZM75.2068 127.473V128.41H63.283V127.473H75.2068ZM73.9031 132.57V133.522H64.8357V129.743H65.9783V132.57H73.9031ZM88.0593 121.818C88.0593 123.518 90.4324 125.07 92.6882 125.422L92.2341 126.33C90.2566 125.993 88.301 124.895 87.4734 123.371C86.6531 124.924 84.6755 126.008 82.698 126.345L82.2439 125.437C84.5144 125.085 86.8728 123.576 86.8728 121.818V121.159H88.0593V121.818ZM93.4353 127.458V128.41H88.1326V131.076H86.99V128.41H81.5115V127.458H93.4353ZM92.1023 132.6V133.566H83.0349V129.802H84.1921V132.6H92.1023ZM105.421 120.822V124.792H107.384V125.759H105.421V130.358H104.263V120.822H105.421ZM101.905 121.833C101.905 125.188 99.5027 127.678 95.7527 128.85L95.2546 127.927C98.3748 126.953 100.411 125.092 100.66 122.8H95.7966V121.833H101.905ZM106.021 132.6V133.566H97.2615V129.392H98.4041V132.6H106.021ZM120.819 127.692V128.63H108.954V127.692H120.819ZM119.501 132.6V133.566H110.492V129.772H111.649V132.6H119.501ZM114.886 121.291C117.684 121.276 119.486 122.243 119.486 123.869C119.486 125.495 117.684 126.462 114.886 126.462C112.059 126.462 110.272 125.495 110.272 123.869C110.272 122.243 112.059 121.276 114.886 121.291ZM114.886 122.214C112.792 122.214 111.444 122.844 111.459 123.869C111.444 124.895 112.792 125.524 114.886 125.524C116.967 125.524 118.314 124.895 118.314 123.869C118.314 122.844 116.967 122.214 114.886 122.214ZM133.73 122.141V130.534H127.724V122.141H133.73ZM128.838 123.063V129.597H132.588V123.063H128.838ZM137.26 120.822V126.022H139.443V127.019H137.26V133.845H136.118V120.822H137.26ZM151.634 120.822V133.845H150.476V120.822H151.634ZM145.701 125.07C145.701 127.253 147.224 129.362 149.187 130.197L148.543 131.091C147.041 130.424 145.767 129.011 145.159 127.282C144.573 129.113 143.306 130.615 141.804 131.325L141.16 130.432C143.094 129.553 144.573 127.355 144.573 125.07V124.03H141.511V123.093H144.558V121.071H145.701V123.093H148.733V124.03H145.701V125.07ZM171.034 128.718V129.67H165.614V133.845H164.486V129.67H159.11V128.718H171.034ZM169.686 126.433V127.37H160.707V121.438H169.54V122.375H161.849V123.898H169.232V124.821H161.849V126.433H169.686ZM183.635 120.822V128.542H182.477V126.491H179.43V127.604H173.454V121.818H179.43V122.946H182.477V120.822H183.635ZM174.596 122.756V126.667H178.302V122.756H174.596ZM179.313 128.923C182.023 128.923 183.678 129.816 183.678 131.384C183.678 132.937 182.023 133.815 179.313 133.815C176.603 133.815 174.948 132.937 174.948 131.384C174.948 129.816 176.603 128.923 179.313 128.923ZM179.313 129.816C177.321 129.831 176.076 130.402 176.091 131.384C176.076 132.321 177.321 132.907 179.313 132.907C181.305 132.907 182.536 132.321 182.536 131.384C182.536 130.402 181.305 129.831 179.313 129.816ZM179.43 125.524H182.477V123.898H179.43V125.524ZM196.631 120.822V126.198H198.813V127.15H196.631V133.845H195.488V120.822H196.631ZM194.228 122.917V123.869H186.479V122.917H189.834V120.983H190.976V122.917H194.228ZM190.42 124.953C192.265 124.953 193.598 126.184 193.613 127.941C193.598 129.699 192.265 130.93 190.42 130.93C188.559 130.93 187.212 129.699 187.226 127.941C187.212 126.184 188.559 124.953 190.42 124.953ZM190.42 125.92C189.204 125.92 188.31 126.77 188.325 127.941C188.31 129.128 189.204 129.963 190.42 129.948C191.621 129.963 192.5 129.128 192.514 127.941C192.5 126.77 191.621 125.92 190.42 125.92ZM210.711 122.141V123.444C210.696 125.041 210.696 126.828 210.227 129.45L209.055 129.318C209.553 126.828 209.553 124.997 209.553 123.444V123.093H201.526V122.141H210.711ZM212.132 131.047V131.999H200.266V131.047H204.925V126.389H206.052V131.047H212.132ZM228.851 121.379V125.729H224.999V127.224H230.36V128.161H218.495V127.224H223.856V125.729H220.033V121.379H228.851ZM221.161 122.302V124.792H227.709V122.302H221.161ZM224.427 129.216C227.225 129.216 228.895 130.021 228.91 131.516C228.895 132.995 227.225 133.83 224.427 133.845C221.6 133.83 219.93 132.995 219.93 131.516C219.93 130.021 221.6 129.216 224.427 129.216ZM224.427 130.095C222.333 130.109 221.088 130.622 221.102 131.516C221.088 132.424 222.333 132.922 224.427 132.922C226.493 132.922 227.753 132.424 227.753 131.516C227.753 130.622 226.493 130.109 224.427 130.095ZM242.375 120.822V125.393H244.323V126.359H242.375V131.018H241.218V120.822H242.375ZM242.844 132.6V133.566H234.098V130.329H235.256V132.6H242.844ZM232.15 128.571C233.183 128.571 234.406 128.564 235.68 128.513V127.517C234.164 127.377 233.19 126.652 233.19 125.554C233.19 124.294 234.406 123.547 236.237 123.547C238.083 123.547 239.284 124.294 239.299 125.554C239.284 126.645 238.332 127.37 236.823 127.517V128.454C238.046 128.396 239.277 128.278 240.412 128.103L240.514 128.923C237.717 129.45 234.567 129.494 232.282 129.509L232.15 128.571ZM240.016 122.111V122.976H232.472V122.111H235.68V120.793H236.823V122.111H240.016ZM236.237 124.367C235.036 124.367 234.289 124.821 234.289 125.554C234.289 126.271 235.036 126.726 236.237 126.726C237.438 126.726 238.2 126.271 238.2 125.554C238.2 124.821 237.438 124.367 236.237 124.367ZM250.449 123.225C250.449 124.924 251.753 126.535 253.657 127.194L253.056 128.103C251.584 127.575 250.449 126.484 249.892 125.144C249.328 126.645 248.127 127.846 246.582 128.41L245.981 127.502C247.9 126.813 249.292 125.07 249.292 123.239V122.668H246.347V121.73H253.364V122.668H250.449V123.225ZM256.719 129.318V133.845H255.561V130.271H247.959V129.318H256.719ZM256.719 120.822V128.63H255.561V125.202H252.954V124.235H255.561V120.822H256.719ZM270.388 120.837V130.358H269.246V120.837H270.388ZM270.799 132.6V133.566H261.98V129.392H263.123V132.6H270.799ZM263.357 121.745C265.305 121.745 266.77 123.063 266.77 124.938C266.77 126.843 265.305 128.146 263.357 128.146C261.409 128.146 259.944 126.843 259.944 124.938C259.944 123.063 261.409 121.745 263.357 121.745ZM263.357 122.756C262.039 122.756 261.057 123.664 261.072 124.938C261.057 126.242 262.039 127.136 263.357 127.136C264.646 127.136 265.642 126.242 265.642 124.938C265.642 123.664 264.646 122.756 263.357 122.756ZM282.274 123.298C282.274 124.997 283.549 126.521 285.468 127.15L284.926 128.059C283.424 127.568 282.289 126.528 281.732 125.217C281.168 126.711 279.967 127.875 278.407 128.439L277.821 127.517C279.769 126.857 281.132 125.173 281.146 123.298V122.741H278.173V121.789H285.204V122.741H282.274V123.298ZM288.046 120.822V124.147H290.009V125.114H288.046V128.688H286.903V120.822H288.046ZM283.871 129.04C286.552 129.04 288.163 129.919 288.163 131.413C288.163 132.937 286.552 133.815 283.871 133.815C281.19 133.815 279.55 132.937 279.55 131.413C279.55 129.919 281.19 129.04 283.871 129.04ZM283.871 129.963C281.908 129.963 280.692 130.505 280.707 131.413C280.692 132.351 281.908 132.893 283.871 132.893C285.848 132.893 287.05 132.351 287.05 131.413C287.05 130.505 285.848 129.963 283.871 129.963ZM298.156 121.804V127.561H292.135V121.804H298.156ZM293.263 122.727V126.623H297.043V122.727H293.263ZM301.76 120.822V124.221H303.722V125.188H301.76V128.542H300.617V120.822H301.76ZM301.76 129.245V133.874H300.617V130.168H293.234V129.245H301.76ZM316.089 120.822V133.874H314.931V127.019H312.075V126.066H314.931V120.822H316.089ZM309.79 125.07C309.79 127.224 311.255 129.333 313.188 130.197L312.529 131.091C311.05 130.41 309.819 128.989 309.248 127.268C308.677 129.084 307.461 130.607 305.981 131.325L305.322 130.432C307.226 129.538 308.662 127.312 308.662 125.07V124.03H305.674V123.093H308.662V121.071H309.804V123.093H312.749V124.03H309.79V125.07ZM329.802 129.216V133.669H321.233V129.216H329.802ZM322.376 130.109V132.731H328.66V130.109H322.376ZM329.802 120.837V128.483H328.645V124.719H326.17V123.767H328.645V120.837H329.802ZM325.335 121.496V125.1H320.706V126.989C322.852 126.997 324.463 126.923 326.419 126.608L326.521 127.575C324.47 127.897 322.801 127.956 320.545 127.941H319.563V124.206H324.221V122.448H319.534V121.496H325.335ZM334.859 131.677L333.717 135.661H332.633L333.438 131.677H334.859ZM352.004 120.822V124.016H353.967V124.968H352.004V128.22H350.861V120.822H352.004ZM348.444 121.672C348.429 124.953 346.13 127.297 342.277 128.352L341.808 127.429C345.016 126.564 346.972 124.829 347.214 122.624H342.394V121.672H348.444ZM352.004 128.82V133.669H343.757V128.82H352.004ZM344.899 129.772V132.731H350.861V129.772H344.899ZM366.333 120.822V128.586H365.176V125.173H362.553V124.221H365.176V120.822H366.333ZM362.011 128.996C364.721 128.996 366.377 129.875 366.377 131.413C366.377 132.951 364.721 133.83 362.011 133.845C359.302 133.83 357.646 132.951 357.646 131.413C357.646 129.875 359.302 128.996 362.011 128.996ZM362.011 129.89C360.019 129.89 358.774 130.461 358.789 131.413C358.774 132.351 360.019 132.922 362.011 132.922C364.004 132.922 365.234 132.351 365.234 131.413C365.234 130.461 364.004 129.89 362.011 129.89ZM360.063 123.21C360.063 124.909 361.367 126.521 363.271 127.18L362.671 128.103C361.206 127.575 360.071 126.484 359.521 125.129C358.95 126.66 357.741 127.883 356.196 128.469L355.595 127.546C357.529 126.843 358.906 125.085 358.906 123.225V122.741H355.962V121.774H362.978V122.741H360.063V123.21ZM375.183 121.057C378.084 121.057 379.783 121.848 379.783 123.298C379.783 124.777 378.084 125.568 375.183 125.583C372.283 125.568 370.569 124.777 370.569 123.298C370.569 121.848 372.283 121.057 375.183 121.057ZM375.183 121.921C373.015 121.921 371.756 122.448 371.77 123.298C371.756 124.206 373.015 124.704 375.183 124.704C377.337 124.704 378.611 124.206 378.611 123.298C378.611 122.448 377.337 121.921 375.183 121.921ZM381.116 126.462V127.399H369.251V126.462H381.116ZM379.593 128.527V131.442H371.858V132.79H379.988V133.698H370.716V130.593H378.465V129.406H370.686V128.527H379.593ZM398.217 120.822V133.874H397.059V120.822H398.217ZM389.384 121.936V125.378H393.265V121.936H394.393V130.725H388.241V121.936H389.384ZM389.384 129.758H393.265V126.301H389.384V129.758ZM413.058 128.703V129.67H407.682V133.874H406.554V129.67H401.193V128.703H413.058ZM407.697 123.4C407.697 125.026 409.968 126.447 412.297 126.77L411.872 127.692C409.858 127.385 407.961 126.374 407.14 124.953C406.305 126.389 404.379 127.385 402.365 127.692L401.94 126.77C404.255 126.447 406.554 125.041 406.554 123.4V123.386H402.35V122.448H406.554V120.822H407.682V122.448H411.916V123.386H407.697V123.4ZM425.351 122.141V123.444C425.337 125.041 425.337 126.828 424.868 129.45L423.696 129.318C424.194 126.828 424.194 124.997 424.194 123.444V123.093H416.167V122.141H425.351ZM426.772 131.047V131.999H414.907V131.047H419.565V126.389H420.693V131.047H426.772ZM430.76 131.677L429.617 135.661H428.533L429.339 131.677H430.76ZM437.562 129.816C438.361 129.816 439.357 129.809 440.404 129.772V127.575C438.947 127.377 437.958 126.315 437.972 124.821C437.958 123.195 439.188 122.067 440.931 122.067C442.704 122.067 443.934 123.195 443.934 124.821C443.934 126.308 442.96 127.363 441.503 127.575V129.729C442.499 129.685 443.48 129.611 444.33 129.494L444.418 130.344C442.264 130.695 439.481 130.783 437.723 130.783L437.562 129.816ZM448.754 120.822V133.845H447.655V127.224H446.029V133.156H444.945V121.115H446.029V126.257H447.655V120.822H448.754ZM440.931 123.005C439.833 123.005 438.998 123.767 439.012 124.821C438.998 125.92 439.833 126.667 440.931 126.667C442.059 126.667 442.88 125.92 442.88 124.821C442.88 123.767 442.059 123.005 440.931 123.005ZM463.302 127.019V127.971H451.452V127.019H456.359V124.382H457.487V127.019H463.302ZM461.794 129.465V133.845H460.622V130.417H452.712V129.465H461.794ZM461.794 121.54V122.521C461.794 123.518 461.794 124.646 461.471 126.125L460.314 126.008C460.651 124.543 460.651 123.503 460.651 122.521V122.478H452.858V121.54H461.794ZM469.78 124.323C469.765 126.696 471.391 129.099 473.31 129.963L472.607 130.871C471.128 130.146 469.846 128.615 469.223 126.755C468.615 128.725 467.334 130.366 465.81 131.135L465.078 130.168C467.011 129.274 468.623 126.799 468.637 124.323V121.95H469.78V124.323ZM475.888 120.822V133.874H474.731V120.822H475.888ZM485.852 122.185C485.838 125.949 484.475 129.421 479.773 131.721L479.129 130.798C481.568 129.626 483.076 128.125 483.904 126.359L479.378 126.799L479.187 125.773L484.27 125.437C484.505 124.711 484.644 123.942 484.695 123.137H479.846V122.185H485.852ZM489.632 120.822V133.845H488.474V120.822H489.632ZM503.023 122.141V123.444C503.009 125.041 503.009 126.828 502.54 129.45L501.368 129.318C501.866 126.828 501.866 124.997 501.866 123.444V123.093H493.839V122.141H503.023ZM504.444 131.047V131.999H492.579V131.047H497.237V126.389H498.365V131.047H504.444ZM508.431 131.677L507.289 135.661H506.205L507.01 131.677H508.431ZM525.576 120.837V124.777H527.539V125.744H525.576V130.402H524.433V120.837H525.576ZM526.177 132.6V133.566H517.431V129.465H518.559V132.6H526.177ZM517.08 121.774V123.972H520.874V121.774H522.016V128.205H515.952V121.774H517.08ZM517.08 127.268H520.874V124.88H517.08V127.268ZM533.474 124.323C533.474 126.623 534.998 128.981 536.844 129.89L536.14 130.812C534.705 130.058 533.504 128.52 532.932 126.711C532.346 128.637 531.116 130.278 529.651 131.062L528.919 130.139C530.823 129.201 532.332 126.696 532.346 124.323V121.95H533.474V124.323ZM539.187 120.822V126.11H541.37V127.106H539.187V133.845H538.045V120.822H539.187ZM547.452 124.323C547.437 126.696 549.063 129.099 550.982 129.963L550.279 130.871C548.8 130.146 547.518 128.615 546.895 126.755C546.287 128.725 545.006 130.366 543.482 131.135L542.75 130.168C544.683 129.274 546.295 126.799 546.309 124.323V121.95H547.452V124.323ZM553.56 120.822V133.874H552.403V120.822H553.56ZM563.451 121.818C563.436 125.217 561.635 127.766 557.357 129.143L556.918 128.19C559.152 127.495 560.602 126.477 561.415 125.217L557.02 125.568L556.815 124.616L561.869 124.367C562.067 123.869 562.184 123.334 562.235 122.771H557.474V121.818H563.451ZM567.289 120.837V130.3H566.146V120.837H567.289ZM567.699 132.702V133.64H558.881V129.626H560.023V132.702H567.699ZM580.329 120.822V125.979H582.511V126.945H580.329V133.874H579.186V120.822H580.329ZM576.901 122.097V123.049H571.965V129.641C574.323 129.641 575.993 129.531 577.927 129.172L578.073 130.168C576.037 130.534 574.323 130.607 571.847 130.607H570.822V122.097H576.901ZM585.342 132.746C584.829 132.746 584.389 132.321 584.404 131.794C584.389 131.281 584.829 130.856 585.342 130.856C585.854 130.856 586.279 131.281 586.279 131.794C586.279 132.321 585.854 132.746 585.342 132.746ZM10.5896 152.214V153.518C10.5896 155.158 10.5896 157.019 10.1062 159.846L8.93433 159.729C9.46167 157.062 9.46167 155.114 9.46167 153.518V153.166H1.61011V152.214H10.5896ZM12.1863 160.974V161.926H0.321045V160.974H12.1863ZM19.3523 152.243V156.799H15.5876V159.758C17.0818 159.75 18.4954 159.685 20.1873 159.406L20.2898 160.344C18.4441 160.666 16.9646 160.725 15.324 160.725H14.4744V155.847H18.239V153.21H14.4451V152.243H19.3523ZM25.1677 150.822V163.845H24.0691V156.931H22.1501V163.171H21.0955V151.115H22.1501V155.979H24.0691V150.822H25.1677ZM32.3337 154.323C32.3337 156.682 33.8425 159.055 35.7322 159.919L35.0437 160.856C33.5642 160.095 32.3411 158.535 31.7625 156.682C31.1838 158.63 29.9607 160.3 28.4812 161.091L27.7341 160.168C29.6384 159.23 31.1619 156.726 31.1619 154.323V151.95H32.3337V154.323ZM38.5447 150.822V163.874H37.4021V156.213H34.3113V155.275H37.4021V150.822H38.5447ZM50.3425 154.323C50.3425 156.623 51.866 158.981 53.7117 159.89L53.0085 160.812C51.573 160.058 50.3718 158.52 49.8005 156.711C49.2146 158.637 47.9841 160.278 46.5193 161.062L45.7869 160.139C47.6912 159.201 49.2 156.696 49.2146 154.323V151.95H50.3425V154.323ZM56.0554 150.822V156.11H58.238V157.106H56.0554V163.845H54.9128V150.822H56.0554ZM69.8718 150.837V154.104H71.8494V155.07H69.8718V158.703H68.7292V150.837H69.8718ZM66.1511 151.643V155.158H61.405V156.975C63.7195 156.975 65.3967 156.894 67.4255 156.55L67.5427 157.517C65.448 157.868 63.7048 157.941 61.2878 157.941H60.2771V154.25H65.0232V152.595H60.2478V151.643H66.1511ZM65.697 159.099C68.3484 159.099 69.989 159.978 69.989 161.472C69.989 162.966 68.3484 163.815 65.697 163.815C63.0017 163.815 61.3757 162.966 61.3757 161.472C61.3757 159.978 63.0017 159.099 65.697 159.099ZM65.697 160.007C63.7048 160.007 62.489 160.549 62.5037 161.472C62.489 162.38 63.7048 162.922 65.697 162.922C67.6746 162.922 68.8757 162.38 68.8757 161.472C68.8757 160.549 67.6746 160.007 65.697 160.007ZM85.2703 157.692V158.63H73.405V157.692H85.2703ZM83.9519 162.6V163.566H74.9431V159.772H76.1003V162.6H83.9519ZM79.3376 151.291C82.1355 151.276 83.9373 152.243 83.9373 153.869C83.9373 155.495 82.1355 156.462 79.3376 156.462C76.5105 156.462 74.7234 155.495 74.7234 153.869C74.7234 152.243 76.5105 151.276 79.3376 151.291ZM79.3376 152.214C77.2429 152.214 75.8953 152.844 75.9099 153.869C75.8953 154.895 77.2429 155.524 79.3376 155.524C81.4177 155.524 82.7654 154.895 82.7654 153.869C82.7654 152.844 81.4177 152.214 79.3376 152.214ZM98.1228 155.451V157.312H103.499V158.264H91.6335V157.312H96.9949V155.451H98.1228ZM97.5662 159.333C100.364 159.333 102.034 160.124 102.049 161.574C102.034 163.024 100.364 163.815 97.5662 163.815C94.739 163.815 93.0691 163.024 93.0691 161.574C93.0691 160.124 94.739 159.333 97.5662 159.333ZM97.5662 160.241C95.4568 160.241 94.2263 160.725 94.241 161.574C94.2263 162.424 95.4568 162.922 97.5662 162.922C99.6462 162.922 100.891 162.424 100.891 161.574C100.891 160.725 99.6462 160.241 97.5662 160.241ZM102.444 151.438V152.375H98.3132C98.3865 153.825 100.569 154.946 102.84 155.188L102.415 156.096C100.283 155.839 98.2839 154.909 97.5662 153.459C96.8557 154.909 94.8635 155.839 92.7175 156.096L92.2927 155.188C94.5632 154.946 96.7312 153.84 96.8191 152.375H92.7175V151.438H102.444ZM111.837 155.451V157.312H117.213V158.264H105.347V157.312H110.709V155.451H111.837ZM111.28 159.333C114.078 159.333 115.748 160.124 115.762 161.574C115.748 163.024 114.078 163.815 111.28 163.815C108.453 163.815 106.783 163.024 106.783 161.574C106.783 160.124 108.453 159.333 111.28 159.333ZM111.28 160.241C109.171 160.241 107.94 160.725 107.955 161.574C107.94 162.424 109.171 162.922 111.28 162.922C113.36 162.922 114.605 162.424 114.605 161.574C114.605 160.725 113.36 160.241 111.28 160.241ZM116.158 151.438V152.375H112.027C112.1 153.825 114.283 154.946 116.553 155.188L116.129 156.096C113.997 155.839 111.998 154.909 111.28 153.459C110.57 154.909 108.577 155.839 106.431 156.096L106.007 155.188C108.277 154.946 110.445 153.84 110.533 152.375H106.431V151.438H116.158ZM128.937 151.467V151.818C128.937 152.5 128.937 153.957 128.439 155.949H132.497C132.87 154.367 132.936 153.203 132.951 152.404H129.919V151.467H134.064V151.95C134.064 152.727 134.064 154.074 133.669 155.949H135.485V156.887H130.051V159.099H133.962V163.669H125.055V159.099H128.923V156.887H123.576V155.949H127.297C127.692 154.375 127.78 153.195 127.809 152.404H124.733V151.467H128.937ZM126.183 160.021V162.731H132.819V160.021H126.183ZM148.086 150.822V163.874H146.928V157.019H144.072V156.066H146.928V150.822H148.086ZM141.787 155.07C141.787 157.224 143.252 159.333 145.185 160.197L144.526 161.091C143.047 160.41 141.816 158.989 141.245 157.268C140.674 159.084 139.458 160.607 137.978 161.325L137.319 160.432C139.223 159.538 140.659 157.312 140.659 155.07V154.03H137.671V153.093H140.659V151.071H141.802V153.093H144.746V154.03H141.787V155.07ZM161.8 159.216V163.669H153.23V159.216H161.8ZM154.373 160.109V162.731H160.657V160.109H154.373ZM161.8 150.837V158.483H160.642V154.719H158.167V153.767H160.642V150.837H161.8ZM157.332 151.496V155.1H152.703V156.989C154.849 156.997 156.46 156.923 158.416 156.608L158.518 157.575C156.468 157.897 154.798 157.956 152.542 157.941H151.56V154.206H156.219V152.448H151.531V151.496H157.332ZM179.779 156.726V157.678H170.697V151.965H171.854V156.726H179.779ZM181.156 161.076V162.043H169.232V161.076H181.156ZM193.683 150.822V163.845H192.555V158.791H189.274C188.842 159.831 188.271 160.834 187.502 161.75L186.535 161.12C188.534 158.82 189.179 155.927 189.289 153.21H187.253V152.243H190.387C190.387 152.932 190.358 153.649 190.285 154.382H192.555V150.822H193.683ZM186.857 152.243C186.857 155.319 186.081 158.396 183.752 160.856L182.829 160.197C184.748 158.227 185.59 155.795 185.744 153.21H183.283V152.243H186.857ZM189.626 157.824H192.555V155.319H190.182C190.058 156.154 189.882 156.997 189.626 157.824ZM201.318 154.821C201.318 157.033 202.929 159.274 204.848 160.109L204.204 161.018C202.68 160.322 201.362 158.82 200.761 157.019C200.146 158.93 198.835 160.593 197.348 161.34L196.66 160.432C198.52 159.538 200.146 157.077 200.161 154.821V153.122H197.085V152.17H204.424V153.122H201.318V154.821ZM207.397 150.822V163.845H206.24V150.822H207.397ZM220.818 152.141V153.444C220.803 155.041 220.803 156.828 220.335 159.45L219.163 159.318C219.661 156.828 219.661 154.997 219.661 153.444V153.093H211.634V152.141H220.818ZM222.239 161.047V161.999H210.374V161.047H215.032V156.389H216.16V161.047H222.239ZM226.226 161.677L225.084 165.661H224L224.805 161.677H226.226ZM10.5896 182.214V183.518C10.5896 185.158 10.5896 187.019 10.1062 189.846L8.93433 189.729C9.46167 187.062 9.46167 185.114 9.46167 183.518V183.166H1.61011V182.214H10.5896ZM12.1863 190.974V191.926H0.321045V190.974H12.1863ZM30.4587 185.861V186.799H18.5496V185.861H22.241C22.6438 184.272 22.739 183.078 22.7683 182.287H19.6628V181.35H23.9109V181.687C23.8962 182.368 23.8962 183.833 23.3982 185.861H27.3826C27.7634 184.257 27.8293 183.093 27.8513 182.287H24.7898V181.35H28.9646V181.877C28.9646 182.668 28.9646 184.023 28.5398 185.861H30.4587ZM28.9939 188.19V189.084H21.1863V190.461H28.657V191.325H21.1863V192.761H29.0818V193.669H20.0291V188.19H28.9939ZM43.4255 180.822V193.845H42.3123V180.822H43.4255ZM40.8035 181.101V193.186H39.7048V186.857H38.0349C37.9104 189.392 36.8337 190.974 35.2224 190.974C33.5232 190.974 32.4246 189.216 32.4246 186.447C32.4246 183.679 33.5232 181.921 35.2224 181.921C36.8044 181.921 37.8738 183.452 38.0203 185.905H39.7048V181.101H40.8035ZM35.2224 183.005C34.1677 183.005 33.4939 184.323 33.5085 186.447C33.4939 188.557 34.1677 189.89 35.2224 189.875C36.2771 189.89 36.9509 188.557 36.9509 186.447C36.9509 184.323 36.2771 183.005 35.2224 183.005ZM60.6726 180.837V183.825H62.6501V184.792H60.6726V188.19H59.53V180.837H60.6726ZM60.6726 188.908V193.669H52.4255V188.908H60.6726ZM53.5535 189.816V192.731H59.5593V189.816H53.5535ZM52.2791 181.496V186.228C54.1321 186.22 56.0437 186.074 58.1531 185.642L58.2996 186.608C56.0876 187.048 54.1248 187.194 52.1619 187.194H51.1218V181.496H52.2791ZM74.738 184.777V185.7H65.8171V181.306H66.9597V184.777H74.738ZM76.115 187.473V188.41H64.1912V187.473H76.115ZM74.8113 192.57V193.522H65.7439V189.743H66.8865V192.57H74.8113ZM93.2302 180.837V190.461H92.073V185.817H89.1873V184.851H92.073V180.837H93.2302ZM89.2458 181.833C89.2312 185.173 86.8435 187.722 83.1375 188.938L82.6394 188.015C85.6423 187.026 87.7297 185.158 87.9861 182.8H83.2986V181.833H89.2458ZM93.5671 192.6V193.566H84.9392V189.479H86.1111V192.6H93.5671ZM111.4 180.822V188.396H110.272V180.822H111.4ZM111.737 189.318V190.227H107.87C107.936 191.464 109.987 192.68 112.191 192.951L111.766 193.845C109.818 193.566 108.038 192.651 107.269 191.442C106.493 192.68 104.662 193.581 102.699 193.845L102.289 192.966C104.493 192.724 106.617 191.508 106.683 190.227H102.831V189.318H106.698V188.059H107.841V189.318H111.737ZM102.494 181.379V183.4H106.332V181.379H107.474V187.194H101.351V181.379H102.494ZM102.494 186.271H106.332V184.294H102.494V186.271ZM116.515 191.677L115.373 195.661H114.289L115.094 191.677H116.515ZM127.888 183.547C127.888 185.319 129.192 186.901 131.111 187.575L130.467 188.425C129.016 187.919 127.888 186.85 127.332 185.495C126.775 186.997 125.581 188.205 124.051 188.776L123.435 187.854C125.384 187.15 126.746 185.407 126.76 183.547V182.917H123.816V181.965H130.818V182.917H127.888V183.547ZM133.66 180.822V184.821H135.623V185.773H133.66V190.344H132.517V180.822H133.66ZM134.26 192.6V193.566H125.515V189.509H126.643V192.6H134.26ZM141.544 182.932C141.544 184.704 142.891 186.33 144.781 186.975L144.151 187.883C142.708 187.355 141.573 186.279 141.002 184.924C140.445 186.455 139.288 187.663 137.764 188.249L137.149 187.326C139.097 186.594 140.401 184.851 140.416 182.844V181.496H141.544V182.932ZM147.374 180.822V184.221H149.337V185.188H147.374V188.747H146.231V180.822H147.374ZM143.199 189.084C145.88 189.084 147.491 189.948 147.491 191.442C147.491 192.966 145.88 193.815 143.199 193.815C140.518 193.815 138.878 192.966 138.878 191.442C138.878 189.948 140.518 189.084 143.199 189.084ZM143.199 190.007C141.236 190.007 140.02 190.549 140.035 191.442C140.02 192.365 141.236 192.893 143.199 192.907C145.177 192.893 146.378 192.365 146.378 191.442C146.378 190.549 145.177 190.007 143.199 190.007ZM153.046 191.677L151.903 195.661H150.819L151.625 191.677H153.046ZM165.793 182.214V183.518C165.793 185.158 165.793 187.019 165.309 189.846L164.137 189.729C164.665 187.062 164.665 185.114 164.665 183.518V183.166H156.813V182.214H165.793ZM167.389 190.974V191.926H155.524V190.974H167.389ZM179.99 180.822V193.874H178.847V180.822H179.99ZM176.035 182.038V186.667H171.172V189.743C173.332 189.743 175.259 189.648 177.588 189.274L177.705 190.241C175.302 190.622 173.325 190.71 171.084 190.71H170V185.729H174.878V182.99H169.97V182.038H176.035ZM193.396 182.141V183.444C193.382 185.041 193.382 186.828 192.913 189.45L191.741 189.318C192.239 186.828 192.239 184.997 192.239 183.444V183.093H184.212V182.141H193.396ZM194.817 191.047V191.999H182.952V191.047H187.61V186.389H188.738V191.047H194.817ZM211.449 182.214V183.518C211.449 185.158 211.449 187.019 210.966 189.846L209.794 189.729C210.321 187.062 210.321 185.114 210.321 183.518V183.166H202.469V182.214H211.449ZM213.046 190.974V191.926H201.18V190.974H213.046ZM229.59 180.822V184.792H231.552V185.759H229.59V190.432H228.447V180.822H229.59ZM230.19 192.6V193.566H221.445V189.436H222.573V192.6H230.19ZM223.071 181.745C225.019 181.745 226.484 183.063 226.499 184.953C226.484 186.843 225.019 188.161 223.071 188.161C221.123 188.161 219.643 186.843 219.658 184.953C219.643 183.063 221.123 181.745 223.071 181.745ZM223.071 182.756C221.782 182.756 220.771 183.664 220.786 184.953C220.771 186.242 221.782 187.15 223.071 187.15C224.389 187.15 225.371 186.242 225.371 184.953C225.371 183.664 224.389 182.756 223.071 182.756ZM244.285 180.822V193.845H243.172V180.822H244.285ZM241.663 181.101V193.186H240.564V186.857H238.894C238.77 189.392 237.693 190.974 236.082 190.974C234.383 190.974 233.284 189.216 233.284 186.447C233.284 183.679 234.383 181.921 236.082 181.921C237.664 181.921 238.733 183.452 238.88 185.905H240.564V181.101H241.663ZM236.082 183.005C235.027 183.005 234.353 184.323 234.368 186.447C234.353 188.557 235.027 189.89 236.082 189.875C237.136 189.89 237.81 188.557 237.81 186.447C237.81 184.323 237.136 183.005 236.082 183.005ZM261.884 184.514V185.466H257.855V187.224H263.231V188.176H251.351V187.224H256.713V185.466H252.963V181.115H254.105V184.514H261.884ZM261.752 189.509V193.845H260.594V190.446H252.743V189.509H261.752ZM268.552 181.833C270.47 181.848 271.833 183.605 271.847 186.374C271.833 189.143 270.47 190.9 268.552 190.9C266.618 190.9 265.27 189.143 265.27 186.374C265.27 183.605 266.618 181.848 268.552 181.833ZM268.552 182.858C267.262 182.873 266.354 184.25 266.354 186.374C266.354 188.498 267.262 189.875 268.552 189.875C269.855 189.875 270.734 188.498 270.734 186.374C270.734 184.25 269.855 182.873 268.552 182.858ZM275.143 180.822V186.022H277.326V187.019H275.143V193.845H274.001V180.822H275.143ZM290.659 187.399V188.337H278.779V187.399H290.659ZM289.297 185.012V185.964H280.288V181.394H289.179V182.331H281.43V185.012H289.297ZM289.399 192.585V193.552H280.317V189.743H281.46V192.585H289.399ZM301.373 184.323C301.373 186.623 302.896 188.981 304.742 189.89L304.039 190.812C302.603 190.058 301.402 188.52 300.831 186.711C300.245 188.637 299.014 190.278 297.55 191.062L296.817 190.139C298.721 189.201 300.23 186.696 300.245 184.323V181.95H301.373V184.323ZM307.086 180.822V186.11H309.268V187.106H307.086V193.845H305.943V180.822H307.086ZM320.902 180.837V184.177H322.88V185.158H320.902V188.601H319.76V180.837H320.902ZM320.902 189.245V193.669H312.655V189.245H320.902ZM313.783 190.139V192.731H319.789V190.139H313.783ZM317.181 181.54V185.1H312.435V186.945C314.75 186.945 316.427 186.879 318.456 186.55L318.573 187.473C316.478 187.839 314.735 187.912 312.318 187.912H311.307V184.206H316.053V182.492H311.278V181.54H317.181ZM328.698 181.774C330.749 181.774 332.199 183.02 332.199 184.836C332.199 186.652 330.749 187.897 328.698 187.897C326.647 187.897 325.168 186.652 325.182 184.836C325.168 183.02 326.647 181.774 328.698 181.774ZM328.698 182.785C327.306 182.785 326.296 183.62 326.31 184.836C326.296 186.052 327.306 186.887 328.698 186.887C330.075 186.887 331.071 186.052 331.071 184.836C331.071 183.62 330.075 182.785 328.698 182.785ZM335.114 180.822V193.874H333.971V180.822H335.114ZM324.509 190.021C326.911 190.021 330.221 190.007 333.107 189.582L333.195 190.432C330.221 190.988 327.013 191.003 324.67 191.003L324.509 190.021ZM354.529 188.425V189.348H342.664V188.425H354.529ZM353.211 192.614V193.566H344.202V190.285H345.359V192.614H353.211ZM353.841 182.067V182.961H343.279V182.067H348.025V180.676H349.168V182.067H353.841ZM348.596 183.547C351.262 183.547 352.815 184.235 352.815 185.568C352.815 186.857 351.262 187.546 348.596 187.561C345.901 187.546 344.363 186.857 344.363 185.568C344.363 184.235 345.901 183.547 348.596 183.547ZM348.596 184.396C346.648 184.396 345.52 184.821 345.535 185.568C345.52 186.301 346.648 186.696 348.596 186.696C350.545 186.696 351.658 186.301 351.658 185.568C351.658 184.821 350.545 184.396 348.596 184.396ZM360.904 183.225C360.904 184.924 362.208 186.535 364.112 187.194L363.511 188.103C362.039 187.575 360.904 186.484 360.347 185.144C359.783 186.645 358.582 187.846 357.037 188.41L356.436 187.502C358.355 186.813 359.747 185.07 359.747 183.239V182.668H356.802V181.73H363.819V182.668H360.904V183.225ZM367.174 189.318V193.845H366.016V190.271H358.414V189.318H367.174ZM367.174 180.822V188.63H366.016V185.202H363.409V184.235H366.016V180.822H367.174ZM380.829 180.822V193.874H379.672V180.822H380.829ZM373.9 181.833C375.834 181.848 377.225 183.605 377.225 186.374C377.225 189.143 375.834 190.9 373.9 190.9C371.952 190.9 370.575 189.143 370.575 186.374C370.575 183.605 371.952 181.848 373.9 181.833ZM373.9 182.858C372.596 182.873 371.688 184.25 371.688 186.374C371.688 188.498 372.596 189.875 373.9 189.875C375.204 189.875 376.112 188.498 376.112 186.374C376.112 184.25 375.204 182.873 373.9 182.858ZM393.884 180.822V185.979H396.066V186.945H393.884V193.874H392.741V180.822H393.884ZM390.456 182.097V183.049H385.519V189.641C387.878 189.641 389.548 189.531 391.481 189.172L391.628 190.168C389.592 190.534 387.878 190.607 385.402 190.607H384.377V182.097H390.456ZM398.896 192.746C398.384 192.746 397.944 192.321 397.959 191.794C397.944 191.281 398.384 190.856 398.896 190.856C399.409 190.856 399.834 191.281 399.834 191.794C399.834 192.321 399.409 192.746 398.896 192.746Z" fill="#1A1A1A"/>
</svg>
