<svg width="304" height="284" viewBox="0 0 304 284" fill="none" xmlns="http://www.w3.org/2000/svg">
<path d="M11.3232 0.62207V10.5537H10.166V7.75586H7.91016V6.81836H10.166V5.0459H7.91016V4.09375H10.166V0.62207H11.3232ZM7.91016 2.21875V3.15625H0.541992V2.21875H3.70605V0.607422H4.84863V2.21875H7.91016ZM4.2627 3.87402C6.00586 3.87402 7.23633 4.87012 7.23633 6.36426C7.23633 7.84375 6.00586 8.85449 4.2627 8.85449C2.51953 8.85449 1.30371 7.84375 1.31836 6.36426C1.30371 4.87012 2.51953 3.87402 4.2627 3.87402ZM4.2627 4.78223C3.14941 4.79688 2.3877 5.42676 2.3877 6.36426C2.3877 7.30176 3.14941 7.93164 4.2627 7.93164C5.37598 7.93164 6.1377 7.30176 6.15234 6.36426C6.1377 5.42676 5.37598 4.79688 4.2627 4.78223ZM11.6162 12.3848V13.3516H2.90039V9.6748H4.05762V12.3848H11.6162ZM25.4326 0.607422V13.6299H24.3193V6.8623H22.5469V12.9707H21.4482V0.885742H22.5469V5.88086H24.3193V0.607422H25.4326ZM18.0938 4.16699C18.0938 6.55469 19.0752 8.64941 20.9355 9.60156L20.2471 10.4951C18.9287 9.77734 18.0278 8.48828 17.5664 6.8916C17.1196 8.70801 16.2041 10.1289 14.8271 10.9346L14.1094 10.0557C15.9844 9.03027 16.9805 6.80371 16.9805 4.16699V3.12695H14.417V2.16016H20.5107V3.12695H18.0938V4.16699ZM38.4873 4.5625V5.48535H29.5664V1.09082H30.709V4.5625H38.4873ZM39.8643 7.25781V8.19531H27.9404V7.25781H39.8643ZM38.5605 12.3555V13.3076H29.4932V9.52832H30.6357V12.3555H38.5605ZM53.4053 2.05762V2.73145C53.3906 3.75684 53.3906 5.48535 53.0244 7.90234L51.8672 7.7998C52.2188 5.61719 52.248 4.03516 52.248 2.99512H46.7842V2.05762H53.4053ZM49.9922 5.77832V9.7334C51.4351 9.68213 52.9146 9.58691 54.2695 9.42578L54.3281 10.29C51.5889 10.7148 48.5273 10.7734 46.1982 10.7588L46.0518 9.80664C46.9087 9.79932 47.8608 9.79199 48.8643 9.7627V5.77832H49.9922ZM56.2324 0.607422V6.05664H58.3418V7.05273H56.2324V13.6299H55.0898V0.607422H56.2324ZM70.6787 0.607422V13.6299H69.5361V6.80371H66.4307V5.85156H69.5361V0.607422H70.6787ZM66.46 2.02832C66.46 5.71973 64.8926 9.00098 60.542 11.1543L59.9121 10.2314C63.4424 8.5249 65.0757 6.02002 65.3027 2.96582H60.4834V2.02832H66.46ZM77.5371 1.45703C79.5439 1.47168 80.9941 2.70215 81.0088 4.51855C80.9941 6.15186 79.8223 7.31641 78.123 7.52148V9.74805C79.3389 9.68945 80.562 9.60156 81.6973 9.45508L81.7705 10.3193C79.0166 10.7881 75.9258 10.8174 73.6406 10.8027L73.4502 9.83594C74.4976 9.82861 75.7134 9.82129 76.9658 9.77734V7.52148C75.2373 7.32373 74.0508 6.15918 74.0654 4.51855C74.0508 2.70215 75.501 1.47168 77.5371 1.45703ZM77.5371 2.45312C76.1748 2.45312 75.1787 3.30273 75.1934 4.51855C75.1787 5.73438 76.1748 6.58398 77.5371 6.58398C78.8848 6.58398 79.8662 5.73438 79.8809 4.51855C79.8662 3.30273 78.8848 2.45312 77.5371 2.45312ZM83.6748 0.607422V5.9834H85.7988V6.97949H83.6748V13.6299H82.5322V0.607422H83.6748ZM98.6221 1.89648V10.3633H92.6016V1.89648H98.6221ZM93.7295 2.81934V9.42578H97.4941V2.81934H93.7295ZM102.577 0.607422V13.6592H101.42V0.607422H102.577ZM110.871 2.02832V6.58398H107.106V9.54297C108.601 9.53564 110.014 9.46973 111.706 9.19141L111.809 10.1289C109.963 10.4512 108.483 10.5098 106.843 10.5098H105.993V5.63184H109.758V2.99512H105.964V2.02832H110.871ZM116.687 0.607422V13.6299H115.588V6.71582H113.669V12.9561H112.614V0.900391H113.669V5.76367H115.588V0.607422H116.687ZM131.177 6.65723V7.56543H119.253V6.65723H131.177ZM129.683 8.60547V11.374H121.86V12.6191H130.107V13.4541H120.703V10.583H128.54V9.46973H120.688V8.60547H129.683ZM129.639 1.00293V3.69824H121.948V4.84082H129.873V5.67578H120.806V2.90723H128.481V1.83789H120.762V1.00293H129.639ZM148.292 0.62207V10.2461H147.135V6.73047H143.766C143.165 7.49951 142.198 7.96094 141.085 7.96094C139.137 7.96094 137.701 6.61328 137.701 4.70898C137.701 2.80469 139.137 1.45703 141.085 1.44238C142.191 1.44971 143.136 1.90381 143.751 2.6582H147.135V0.62207H148.292ZM148.658 12.3848V13.3516H139.928V9.23535H141.085V12.3848H148.658ZM141.085 2.46777C139.752 2.48242 138.8 3.40527 138.8 4.70898C138.8 6.0127 139.752 6.93555 141.085 6.93555C142.359 6.93555 143.341 6.0127 143.341 4.70898C143.341 3.40527 142.359 2.48242 141.085 2.46777ZM144.278 3.61035C144.388 3.94727 144.454 4.31348 144.454 4.70898C144.454 5.08984 144.388 5.44873 144.278 5.77832H147.135V3.61035H144.278ZM162.006 0.607422V7.27246H160.849V5.91016H157.377V5.00195H160.849V3.43457H157.567C156.747 5.49268 154.726 6.87695 151.84 7.56543L151.43 6.61328C154.623 5.87354 156.483 4.31348 156.703 2.21875H152.089V1.2666H157.963C157.963 1.69873 157.919 2.11621 157.846 2.51172H160.849V0.607422H162.006ZM162.006 7.8584V11.0371H154.74V12.5605H162.445V13.5127H153.598V10.1582H160.849V8.7959H153.568V7.8584H162.006ZM169.611 2.98047C169.611 4.72363 171.003 6.29102 172.951 6.90625L172.365 7.81445C170.856 7.31641 169.655 6.26172 169.069 4.91406C168.498 6.43018 167.29 7.63135 165.744 8.20996L165.129 7.30176C167.106 6.59863 168.454 4.85547 168.454 2.98047V2.55566H165.407V1.60352H172.614V2.55566H169.611V2.98047ZM175.676 0.607422V9.46973H174.533V0.607422H175.676ZM172.043 9.04492C172.028 10.9199 174.123 12.2822 176.438 12.6777L175.998 13.5713C174.013 13.2197 172.204 12.2163 171.442 10.6855C170.666 12.2163 168.85 13.2197 166.887 13.5713L166.433 12.6777C168.747 12.2822 170.842 10.9199 170.842 9.04492V8.72266H172.043V9.04492ZM189.17 4.5625V5.48535H180.249V1.09082H181.392V4.5625H189.17ZM190.547 7.25781V8.19531H178.623V7.25781H190.547ZM189.243 12.3555V13.3076H180.176V9.52832H181.318V12.3555H189.243ZM208.98 2.2334V3.18555H207.047V4.66504H208.98V5.61719H207.047V7.47754H205.904V0.607422H207.047V2.2334H208.98ZM203.956 8.07812V9.74805H206.007V8.07812H207.047V13.4541H202.901V8.07812H203.956ZM203.956 12.5459H206.007V10.6416H203.956V12.5459ZM202.096 8.20996V11.1543H199.151V12.5605C200.514 12.5605 201.341 12.5386 202.389 12.3262L202.506 13.2051C201.275 13.4541 200.367 13.4541 198.697 13.4541H198.023V10.3047H200.997V9.08887H197.994V8.20996H202.096ZM200.499 1.19336C202.462 1.19336 203.883 2.37988 203.883 4.15234C203.883 5.88086 202.462 7.06738 200.499 7.06738C198.551 7.06738 197.101 5.88086 197.115 4.15234C197.101 2.37988 198.551 1.19336 200.499 1.19336ZM200.499 2.14551C199.21 2.14551 198.229 2.96582 198.243 4.15234C198.229 5.30957 199.21 6.14453 200.499 6.14453C201.803 6.14453 202.755 5.30957 202.755 4.15234C202.755 2.96582 201.803 2.14551 200.499 2.14551ZM222.445 7.47754V8.41504H210.58V7.47754H222.445ZM221.127 12.3848V13.3516H212.118V9.55762H213.275V12.3848H221.127ZM216.513 1.07617C219.311 1.06152 221.112 2.02832 221.112 3.6543C221.112 5.28027 219.311 6.24707 216.513 6.24707C213.686 6.24707 211.898 5.28027 211.898 3.6543C211.898 2.02832 213.686 1.06152 216.513 1.07617ZM216.513 1.99902C214.418 1.99902 213.07 2.62891 213.085 3.6543C213.07 4.67969 214.418 5.30957 216.513 5.30957C218.593 5.30957 219.94 4.67969 219.94 3.6543C219.94 2.62891 218.593 1.99902 216.513 1.99902ZM240.674 7.22852V8.18066H228.809V7.22852H240.674ZM235.298 0.578125V1.88184H239.473V2.81934H235.371C235.466 4.26221 237.532 5.2583 239.971 5.48535L239.619 6.37891C237.458 6.15186 235.532 5.37549 234.741 4.06445C233.943 5.37549 232.009 6.15186 229.863 6.37891L229.497 5.48535C231.936 5.2583 234.001 4.26221 234.111 2.81934H230.039V1.88184H234.17V0.578125H235.298ZM234.741 9.29395C237.568 9.29395 239.209 10.0557 239.224 11.4473C239.209 12.8535 237.568 13.6006 234.741 13.6006C231.914 13.6006 230.244 12.8535 230.244 11.4473C230.244 10.0557 231.914 9.29395 234.741 9.29395ZM234.741 10.1582C232.632 10.1582 231.401 10.627 231.416 11.4473C231.401 12.2676 232.632 12.7217 234.741 12.707C236.821 12.7217 238.066 12.2676 238.066 11.4473C238.066 10.627 236.821 10.1582 234.741 10.1582ZM253.26 0.607422V13.6592H252.103V0.607422H253.26ZM246.331 1.61816C248.265 1.63281 249.656 3.39062 249.656 6.15918C249.656 8.92773 248.265 10.6855 246.331 10.6855C244.383 10.6855 243.006 8.92773 243.006 6.15918C243.006 3.39062 244.383 1.63281 246.331 1.61816ZM246.331 2.64355C245.027 2.6582 244.119 4.03516 244.119 6.15918C244.119 8.2832 245.027 9.66016 246.331 9.66016C247.635 9.66016 248.543 8.2832 248.543 6.15918C248.543 4.03516 247.635 2.6582 246.331 2.64355ZM262.696 1.91113V3.74219H265.89V0.607422H267.032V13.6592H265.89V8.2832H262.696V10.334H256.764V1.91113H262.696ZM257.906 2.81934V9.41113H261.583V2.81934H257.906ZM262.696 7.33105H265.89V4.69434H262.696V7.33105ZM272.089 11.4619L270.946 15.4463H269.862L270.668 11.4619H272.089ZM12.4365 38.0781V39.0449H7.00195V43.6299H5.87402V39.0449H0.512695V38.0781H12.4365ZM6.44531 31.1348C9.18457 31.1348 11.0303 32.2334 11.0303 34.0059C11.0303 35.7344 9.18457 36.833 6.44531 36.833C3.70605 36.833 1.86035 35.7344 1.86035 34.0059C1.86035 32.2334 3.70605 31.1348 6.44531 31.1348ZM6.44531 32.0723C4.40918 32.0723 3.03223 32.834 3.04688 34.0059C3.03223 35.1631 4.40918 35.9102 6.44531 35.9102C8.4668 35.9102 9.8584 35.1631 9.8584 34.0059C9.8584 32.834 8.4668 32.0723 6.44531 32.0723ZM24.9932 30.6074V43.6592H23.8506V30.6074H24.9932ZM21.0381 31.8232V36.4521H16.1748V39.5283C18.3354 39.5283 20.2617 39.4331 22.5908 39.0596L22.708 40.0264C20.3057 40.4072 18.3281 40.4951 16.0869 40.4951H15.0029V35.5146H19.8809V32.7754H14.9736V31.8232H21.0381ZM38.0332 30.6074V35.9102H40.1426V36.877H38.0332V43.6299H36.8906V30.6074H38.0332ZM34.6641 32.0137C34.6641 35.7051 32.9355 39.0596 28.6875 41.1543L28.043 40.2461C31.4121 38.5688 33.2432 36.064 33.5068 32.9805H28.6436V32.0137H34.6641ZM56.7305 36.5107V37.4629H47.6484V31.75H48.8057V36.5107H56.7305ZM58.1074 40.8613V41.8281H46.1836V40.8613H58.1074ZM70.6494 30.6074V43.6299H69.5068V30.6074H70.6494ZM63.9551 32.0283C63.9404 35.1045 63.1641 38.1953 60.8057 40.6562L59.8975 39.9971C61.8457 38.0122 62.71 35.5879 62.8711 32.9951H60.3809V32.0283H63.9551ZM67.6025 32.0283C67.6025 35.0898 67.1045 38.708 64.7314 41.5352L63.7354 40.9053C65.7495 38.6055 66.394 35.7124 66.5186 32.9951H64.3799V32.0283H67.6025ZM84.1436 34.5625V35.4854H75.2227V31.0908H76.3652V34.5625H84.1436ZM85.5205 37.2578V38.1953H73.5967V37.2578H85.5205ZM84.2168 42.3555V43.3076H75.1494V39.5283H76.292V42.3555H84.2168ZM96.2051 34.1084C96.2051 36.4082 97.7285 38.7666 99.5742 39.6748L98.8711 40.5977C97.4355 39.8433 96.2344 38.3052 95.6631 36.4961C95.0771 38.4224 93.8467 40.063 92.3818 40.8467L91.6494 39.9238C93.5537 38.9863 95.0625 36.4814 95.0771 34.1084V31.7354H96.2051V34.1084ZM101.918 30.6074V35.8955H104.101V36.8916H101.918V43.6299H100.775V30.6074H101.918ZM115.734 30.6221V33.8887H117.712V34.8555H115.734V38.4883H114.592V30.6221H115.734ZM112.014 31.4277V34.9434H107.268V36.7598C109.582 36.7598 111.259 36.6792 113.288 36.335L113.405 37.3018C111.311 37.6533 109.567 37.7266 107.15 37.7266H106.14V34.0352H110.886V32.3799H106.11V31.4277H112.014ZM111.56 38.8838C114.211 38.8838 115.852 39.7627 115.852 41.2568C115.852 42.751 114.211 43.6006 111.56 43.6006C108.864 43.6006 107.238 42.751 107.238 41.2568C107.238 39.7627 108.864 38.8838 111.56 38.8838ZM111.56 39.792C109.567 39.792 108.352 40.334 108.366 41.2568C108.352 42.165 109.567 42.707 111.56 42.707C113.537 42.707 114.738 42.165 114.738 41.2568C114.738 40.334 113.537 39.792 111.56 39.792ZM131.133 37.4775V38.415H119.268V37.4775H131.133ZM129.814 42.3848V43.3516H120.806V39.5576H121.963V42.3848H129.814ZM125.2 31.0762C127.998 31.0615 129.8 32.0283 129.8 33.6543C129.8 35.2803 127.998 36.2471 125.2 36.2471C122.373 36.2471 120.586 35.2803 120.586 33.6543C120.586 32.0283 122.373 31.0615 125.2 31.0762ZM125.2 31.999C123.105 31.999 121.758 32.6289 121.772 33.6543C121.758 34.6797 123.105 35.3096 125.2 35.3096C127.28 35.3096 128.628 34.6797 128.628 33.6543C128.628 32.6289 127.28 31.999 125.2 31.999ZM147.574 30.6074V35.7344H149.757V36.7305H147.574V43.6299H146.432V30.6074H147.574ZM139.181 31.7207V35.1631H142.989V31.7207H144.132V40.5098H138.038V31.7207H139.181ZM139.181 39.543H142.989V36.0859H139.181V39.543ZM163.134 41.0518V42.0186H151.21V41.0518H156.571V38.5908H152.704V34.5771H160.497V32.5264H152.675V31.5742H161.625V35.5146H153.847V37.6387H161.933V38.5908H157.699V41.0518H163.134ZM180.234 30.6221V40.5537H179.077V37.7559H176.821V36.8184H179.077V35.0459H176.821V34.0938H179.077V30.6221H180.234ZM176.821 32.2188V33.1562H169.453V32.2188H172.617V30.6074H173.76V32.2188H176.821ZM173.174 33.874C174.917 33.874 176.147 34.8701 176.147 36.3643C176.147 37.8438 174.917 38.8545 173.174 38.8545C171.431 38.8545 170.215 37.8438 170.229 36.3643C170.215 34.8701 171.431 33.874 173.174 33.874ZM173.174 34.7822C172.061 34.7969 171.299 35.4268 171.299 36.3643C171.299 37.3018 172.061 37.9316 173.174 37.9316C174.287 37.9316 175.049 37.3018 175.063 36.3643C175.049 35.4268 174.287 34.7969 173.174 34.7822ZM180.527 42.3848V43.3516H171.812V39.6748H172.969V42.3848H180.527ZM193.89 30.6074V37.3604H192.762V30.6074H193.89ZM193.904 38.0195V41.1396H186.595V42.5459H194.373V43.4834H185.467V40.2461H192.762V38.9424H185.438V38.0195H193.904ZM187.767 31.9844C187.752 33.8301 189.158 35.4561 191.092 36.0859L190.521 36.9795C188.997 36.4595 187.781 35.3682 187.195 33.9619C186.609 35.478 185.386 36.6719 183.841 37.2285L183.24 36.3203C185.203 35.6318 186.595 33.9033 186.595 31.9844V30.9883H187.767V31.9844ZM207.604 30.6074V43.6592H206.446V30.6074H207.604ZM200.675 31.6182C202.608 31.6328 204 33.3906 204 36.1592C204 38.9277 202.608 40.6855 200.675 40.6855C198.727 40.6855 197.35 38.9277 197.35 36.1592C197.35 33.3906 198.727 31.6328 200.675 31.6182ZM200.675 32.6436C199.371 32.6582 198.463 34.0352 198.463 36.1592C198.463 38.2832 199.371 39.6602 200.675 39.6602C201.979 39.6602 202.887 38.2832 202.887 36.1592C202.887 34.0352 201.979 32.6582 200.675 32.6436ZM220.761 30.6221V34.6211H222.738V35.6025H220.761V40.2021H219.618V30.6221H220.761ZM221.376 42.3848V43.3516H212.689V39.4697H213.861V42.3848H221.376ZM217.04 31.4717V35.1924H212.294V37.2285C214.608 37.2432 216.286 37.1479 218.314 36.8037L218.432 37.7559C216.337 38.1074 214.594 38.1807 212.177 38.1807H211.166V34.2842H215.912V32.4385H211.137V31.4717H217.04ZM233.218 33.083C233.218 34.7822 234.492 36.3057 236.411 36.9355L235.869 37.8438C234.368 37.353 233.232 36.313 232.676 35.002C232.112 36.4961 230.911 37.6606 229.351 38.2246L228.765 37.3018C230.713 36.6426 232.075 34.958 232.09 33.083V32.5264H229.116V31.5742H236.147V32.5264H233.218V33.083ZM238.989 30.6074V33.9326H240.952V34.8994H238.989V38.4736H237.847V30.6074H238.989ZM234.814 38.8252C237.495 38.8252 239.106 39.7041 239.106 41.1982C239.106 42.7217 237.495 43.6006 234.814 43.6006C232.134 43.6006 230.493 42.7217 230.493 41.1982C230.493 39.7041 232.134 38.8252 234.814 38.8252ZM234.814 39.748C232.852 39.748 231.636 40.29 231.65 41.1982C231.636 42.1357 232.852 42.6777 234.814 42.6777C236.792 42.6777 237.993 42.1357 237.993 41.1982C237.993 40.29 236.792 39.748 234.814 39.748ZM249.1 31.5889V37.3457H243.079V31.5889H249.1ZM244.207 32.5117V36.4082H247.986V32.5117H244.207ZM252.703 30.6074V34.0059H254.666V34.9727H252.703V38.3271H251.561V30.6074H252.703ZM252.703 39.0303V43.6592H251.561V39.9531H244.178V39.0303H252.703ZM265.043 31.252C266.991 31.2373 268.383 32.3066 268.383 33.9033C268.383 35.4854 266.991 36.584 265.043 36.5693C263.095 36.584 261.703 35.4854 261.703 33.9033C261.703 32.3066 263.095 31.2373 265.043 31.252ZM265.043 32.1895C263.739 32.1748 262.816 32.8926 262.831 33.9033C262.816 34.9287 263.739 35.6318 265.043 35.6172C266.361 35.6318 267.284 34.9287 267.284 33.9033C267.284 32.8926 266.361 32.1748 265.043 32.1895ZM271.488 30.6221V43.6445H270.36V30.6221H271.488ZM260.722 37.6826C263.168 37.6826 266.508 37.6387 269.408 37.2139L269.481 38.0781C268.236 38.3052 266.94 38.4443 265.688 38.5176V43.2344H264.545V38.5908C263.219 38.6494 261.967 38.6567 260.883 38.6641L260.722 37.6826ZM285.627 30.6074V43.6299H284.514V30.6074H285.627ZM283.005 30.8857V42.9707H281.906V36.6426H280.236C280.112 39.1768 279.035 40.7588 277.424 40.7588C275.725 40.7588 274.626 39.001 274.626 36.2324C274.626 33.4639 275.725 31.7061 277.424 31.7061C279.006 31.7061 280.075 33.2368 280.222 35.6904H281.906V30.8857H283.005ZM277.424 32.79C276.369 32.79 275.695 34.1084 275.71 36.2324C275.695 38.3418 276.369 39.6748 277.424 39.6602C278.479 39.6748 279.152 38.3418 279.152 36.2324C279.152 34.1084 278.479 32.79 277.424 32.79ZM7.20703 62.2334C7.19238 63.8447 9.38965 65.1631 11.6895 65.4561L11.2354 66.3936C9.1333 66.064 7.17041 65.0239 6.45996 63.4932C5.75684 65.0239 3.80127 66.064 1.68457 66.3936L1.25977 65.4561C3.55957 65.1631 5.71289 63.8447 5.71289 62.2334V62.2041H1.61133V61.252H11.3379V62.2041H7.20703V62.2334ZM11.0742 72.3848V73.3516H2.06543V69.6455H3.22266V72.3848H11.0742ZM12.4365 67.6387V68.5908H0.527344V67.6387H5.88867V65.4561H7.0166V67.6387H12.4365ZM25.4326 60.6074V73.6299H24.3193V66.8623H22.5469V72.9707H21.4482V60.8857H22.5469V65.8809H24.3193V60.6074H25.4326ZM18.0938 64.167C18.0938 66.5547 19.0752 68.6494 20.9355 69.6016L20.2471 70.4951C18.9287 69.7773 18.0278 68.4883 17.5664 66.8916C17.1196 68.708 16.2041 70.1289 14.8271 70.9346L14.1094 70.0557C15.9844 69.0303 16.9805 66.8037 16.9805 64.167V63.127H14.417V62.1602H20.5107V63.127H18.0938V64.167ZM38.0332 60.6074V65.9834H40.2158V66.9355H38.0332V73.6299H36.8906V60.6074H38.0332ZM35.6309 62.7021V63.6543H27.8818V62.7021H31.2363V60.7686H32.3789V62.7021H35.6309ZM31.8223 64.7383C33.668 64.7383 35.001 65.9688 35.0156 67.7266C35.001 69.4844 33.668 70.7148 31.8223 70.7148C29.9619 70.7148 28.6143 69.4844 28.6289 67.7266C28.6143 65.9688 29.9619 64.7383 31.8223 64.7383ZM31.8223 65.7051C30.6064 65.7051 29.7129 66.5547 29.7275 67.7266C29.7129 68.9131 30.6064 69.748 31.8223 69.7334C33.0234 69.748 33.9023 68.9131 33.917 67.7266C33.9023 66.5547 33.0234 65.7051 31.8223 65.7051ZM52.2012 64.5625V65.4854H43.2803V61.0908H44.4229V64.5625H52.2012ZM53.5781 67.2578V68.1953H41.6543V67.2578H53.5781ZM52.2744 72.3555V73.3076H43.207V69.5283H44.3496V72.3555H52.2744ZM70.0781 60.6074V63.8008H72.041V64.7529H70.0781V68.0049H68.9355V60.6074H70.0781ZM66.5186 61.457C66.5039 64.7383 64.2041 67.082 60.3516 68.1367L59.8828 67.2139C63.0908 66.3496 65.0464 64.6138 65.2881 62.4092H60.4688V61.457H66.5186ZM70.0781 68.6055V73.4541H61.8311V68.6055H70.0781ZM62.9736 69.5576V72.5166H68.9355V69.5576H62.9736ZM84.4072 60.6074V68.3711H83.25V64.958H80.6279V64.0059H83.25V60.6074H84.4072ZM80.0859 68.7812C82.7959 68.7812 84.4512 69.6602 84.4512 71.1982C84.4512 72.7363 82.7959 73.6152 80.0859 73.6299C77.376 73.6152 75.7207 72.7363 75.7207 71.1982C75.7207 69.6602 77.376 68.7812 80.0859 68.7812ZM80.0859 69.6748C78.0938 69.6748 76.8486 70.2461 76.8633 71.1982C76.8486 72.1357 78.0938 72.707 80.0859 72.707C82.0781 72.707 83.3086 72.1357 83.3086 71.1982C83.3086 70.2461 82.0781 69.6748 80.0859 69.6748ZM78.1377 62.9951C78.1377 64.6943 79.4414 66.3057 81.3457 66.9648L80.7451 67.8877C79.2803 67.3604 78.145 66.269 77.5957 64.9141C77.0244 66.4448 75.8159 67.668 74.2705 68.2539L73.6699 67.3311C75.6035 66.6279 76.9805 64.8701 76.9805 63.0098V62.5264H74.0361V61.5596H81.0527V62.5264H78.1377V62.9951ZM98.0625 60.6074V73.6592H96.9053V60.6074H98.0625ZM91.1338 61.6182C93.0674 61.6328 94.459 63.3906 94.459 66.1592C94.459 68.9277 93.0674 70.6855 91.1338 70.6855C89.1855 70.6855 87.8086 68.9277 87.8086 66.1592C87.8086 63.3906 89.1855 61.6328 91.1338 61.6182ZM91.1338 62.6436C89.8301 62.6582 88.9219 64.0352 88.9219 66.1592C88.9219 68.2832 89.8301 69.6602 91.1338 69.6602C92.4375 69.6602 93.3457 68.2832 93.3457 66.1592C93.3457 64.0352 92.4375 62.6582 91.1338 62.6436ZM111.117 60.6074V65.7637H113.3V66.7305H111.117V73.6592H109.975V60.6074H111.117ZM107.689 61.8818V62.834H102.753V69.4258C105.111 69.4258 106.781 69.3159 108.715 68.957L108.861 69.9531C106.825 70.3193 105.111 70.3926 102.636 70.3926H101.61V61.8818H107.689ZM116.13 72.5312C115.617 72.5312 115.178 72.1064 115.192 71.5791C115.178 71.0664 115.617 70.6416 116.13 70.6416C116.643 70.6416 117.067 71.0664 117.067 71.5791C117.067 72.1064 116.643 72.5312 116.13 72.5312ZM4.89258 94.1084C4.89258 96.4082 6.41602 98.7666 8.26172 99.6748L7.55859 100.598C6.12305 99.8433 4.92188 98.3052 4.35059 96.4961C3.76465 98.4224 2.53418 100.063 1.06934 100.847L0.336914 99.9238C2.24121 98.9863 3.75 96.4814 3.76465 94.1084V91.7354H4.89258V94.1084ZM10.6055 90.6074V95.8955H12.7881V96.8916H10.6055V103.63H9.46289V90.6074H10.6055ZM24.4219 90.6221V93.8887H26.3994V94.8555H24.4219V98.4883H23.2793V90.6221H24.4219ZM20.7012 91.4277V94.9434H15.9551V96.7598C18.2695 96.7598 19.9468 96.6792 21.9756 96.335L22.0928 97.3018C19.998 97.6533 18.2549 97.7266 15.8379 97.7266H14.8271V94.0352H19.5732V92.3799H14.7979V91.4277H20.7012ZM20.2471 98.8838C22.8984 98.8838 24.5391 99.7627 24.5391 101.257C24.5391 102.751 22.8984 103.601 20.2471 103.601C17.5518 103.601 15.9258 102.751 15.9258 101.257C15.9258 99.7627 17.5518 98.8838 20.2471 98.8838ZM20.2471 99.792C18.2549 99.792 17.0391 100.334 17.0537 101.257C17.0391 102.165 18.2549 102.707 20.2471 102.707C22.2246 102.707 23.4258 102.165 23.4258 101.257C23.4258 100.334 22.2246 99.792 20.2471 99.792ZM39.8203 97.4775V98.415H27.9551V97.4775H39.8203ZM38.502 102.385V103.352H29.4932V99.5576H30.6504V102.385H38.502ZM33.8877 91.0762C36.6855 91.0615 38.4873 92.0283 38.4873 93.6543C38.4873 95.2803 36.6855 96.2471 33.8877 96.2471C31.0605 96.2471 29.2734 95.2803 29.2734 93.6543C29.2734 92.0283 31.0605 91.0615 33.8877 91.0762ZM33.8877 91.999C31.793 91.999 30.4453 92.6289 30.46 93.6543C30.4453 94.6797 31.793 95.3096 33.8877 95.3096C35.9678 95.3096 37.3154 94.6797 37.3154 93.6543C37.3154 92.6289 35.9678 91.999 33.8877 91.999ZM53.4053 92.0576V92.7314C53.3906 93.7568 53.3906 95.4854 53.0244 97.9023L51.8672 97.7998C52.2188 95.6172 52.248 94.0352 52.248 92.9951H46.7842V92.0576H53.4053ZM49.9922 95.7783V99.7334C51.4351 99.6821 52.9146 99.5869 54.2695 99.4258L54.3281 100.29C51.5889 100.715 48.5273 100.773 46.1982 100.759L46.0518 99.8066C46.9087 99.7993 47.8608 99.792 48.8643 99.7627V95.7783H49.9922ZM56.2324 90.6074V96.0566H58.3418V97.0527H56.2324V103.63H55.0898V90.6074H56.2324ZM70.6787 90.6074V103.63H69.5361V96.8037H66.4307V95.8516H69.5361V90.6074H70.6787ZM66.46 92.0283C66.46 95.7197 64.8926 99.001 60.542 101.154L59.9121 100.231C63.4424 98.5249 65.0757 96.02 65.3027 92.9658H60.4834V92.0283H66.46ZM77.874 91.5596C79.9248 91.5596 81.375 92.8047 81.375 94.6211C81.375 96.4375 79.9248 97.6826 77.874 97.6826C75.8232 97.6826 74.3438 96.4375 74.3584 94.6211C74.3438 92.8047 75.8232 91.5596 77.874 91.5596ZM77.874 92.5703C76.4824 92.5703 75.4717 93.4053 75.4863 94.6211C75.4717 95.8369 76.4824 96.6719 77.874 96.6719C79.251 96.6719 80.2471 95.8369 80.2471 94.6211C80.2471 93.4053 79.251 92.5703 77.874 92.5703ZM84.29 90.6074V103.659H83.1475V90.6074H84.29ZM73.6846 99.8066C76.0869 99.8066 79.3975 99.792 82.2832 99.3672L82.3711 100.217C79.3975 100.773 76.1895 100.788 73.8457 100.788L73.6846 99.8066ZM103.705 98.4883V99.4551H98.3291V103.659H97.2012V99.4551H91.8398V98.4883H103.705ZM98.3438 93.1855C98.3438 94.8115 100.614 96.2324 102.943 96.5547L102.519 97.4775C100.504 97.1699 98.6074 96.1592 97.7871 94.7383C96.9521 96.1738 95.0259 97.1699 93.0117 97.4775L92.5869 96.5547C94.9014 96.2324 97.2012 94.8262 97.2012 93.1855V93.1709H92.9971V92.2334H97.2012V90.6074H98.3291V92.2334H102.562V93.1709H98.3438V93.1855ZM116.35 99.0303V103.659H115.192V99.9531H107.59V99.0303H116.35ZM116.35 90.6074V98.2832H115.192V94.9434H112.482C112.233 96.5254 110.886 97.5947 109.143 97.5801C107.194 97.5947 105.759 96.3057 105.759 94.46C105.759 92.6436 107.194 91.3545 109.143 91.3545C110.886 91.3545 112.233 92.4165 112.482 93.9766H115.192V90.6074H116.35ZM109.143 92.3359C107.839 92.3359 106.857 93.2295 106.857 94.46C106.857 95.7344 107.839 96.6133 109.143 96.6133C110.417 96.6133 111.398 95.7344 111.398 94.46C111.398 93.2295 110.417 92.3359 109.143 92.3359ZM125.2 90.8418C128.101 90.8418 129.8 91.6328 129.8 93.083C129.8 94.5625 128.101 95.3535 125.2 95.3682C122.3 95.3535 120.586 94.5625 120.586 93.083C120.586 91.6328 122.3 90.8418 125.2 90.8418ZM125.2 91.7061C123.032 91.7061 121.772 92.2334 121.787 93.083C121.772 93.9912 123.032 94.4893 125.2 94.4893C127.354 94.4893 128.628 93.9912 128.628 93.083C128.628 92.2334 127.354 91.7061 125.2 91.7061ZM131.133 96.2471V97.1846H119.268V96.2471H131.133ZM129.609 98.3125V101.228H121.875V102.575H130.005V103.483H120.732V100.378H128.481V99.1914H120.703V98.3125H129.609ZM149.361 96.9062V97.8584H143.985V99.3965H147.911V103.454H138.946V99.3965H142.857V97.8584H137.496V96.9062H149.361ZM148.233 91.0322V91.9844H146.227V94.7236H148.189V95.6758H138.653V94.7236H140.616V91.9844H138.609V91.0322H148.233ZM140.089 100.305V102.517H146.783V100.305H140.089ZM141.759 94.7236H145.084V91.9844H141.759V94.7236ZM161.654 91.9258V93.2295C161.64 94.8262 161.64 96.6133 161.171 99.2354L159.999 99.1035C160.497 96.6133 160.497 94.7822 160.497 93.2295V92.8779H152.47V91.9258H161.654ZM163.075 100.832V101.784H151.21V100.832H155.868V96.1738H156.996V100.832H163.075ZM167.062 101.462L165.92 105.446H164.836L165.642 101.462H167.062ZM180.809 91.8965V100.363H174.788V91.8965H180.809ZM175.916 92.8193V99.4258H179.681V92.8193H175.916ZM184.764 90.6074V103.659H183.606V90.6074H184.764ZM193.058 92.0283V96.584H189.293V99.543C190.787 99.5356 192.201 99.4697 193.893 99.1914L193.995 100.129C192.149 100.451 190.67 100.51 189.029 100.51H188.18V95.6318H191.944V92.9951H188.15V92.0283H193.058ZM198.873 90.6074V103.63H197.774V96.7158H195.855V102.956H194.801V90.9004H195.855V95.7637H197.774V90.6074H198.873ZM205.717 91.5596C207.768 91.5596 209.218 92.8047 209.218 94.6211C209.218 96.4375 207.768 97.6826 205.717 97.6826C203.666 97.6826 202.187 96.4375 202.201 94.6211C202.187 92.8047 203.666 91.5596 205.717 91.5596ZM205.717 92.5703C204.325 92.5703 203.314 93.4053 203.329 94.6211C203.314 95.8369 204.325 96.6719 205.717 96.6719C207.094 96.6719 208.09 95.8369 208.09 94.6211C208.09 93.4053 207.094 92.5703 205.717 92.5703ZM212.133 90.6074V103.659H210.99V90.6074H212.133ZM201.527 99.8066C203.93 99.8066 207.24 99.792 210.126 99.3672L210.214 100.217C207.24 100.773 204.032 100.788 201.688 100.788L201.527 99.8066ZM231.797 92.6289V93.5664H229.863V95.3975H231.797V96.3789H229.863V98.3564H228.721V90.6074H229.863V92.6289H231.797ZM229.863 98.957V103.63H228.721V99.9092H221.338V98.957H229.863ZM223.345 91.3984C225.322 91.3838 226.758 92.6582 226.772 94.46C226.758 96.291 225.322 97.5508 223.345 97.5508C221.367 97.5508 219.917 96.291 219.932 94.46C219.917 92.6582 221.367 91.3838 223.345 91.3984ZM223.345 92.3799C222.026 92.3799 221.045 93.2295 221.06 94.46C221.045 95.7051 222.026 96.5693 223.345 96.5547C224.678 96.5693 225.645 95.7051 225.645 94.46C225.645 93.2295 224.678 92.3799 223.345 92.3799ZM245.306 97.1553V98.1074H233.396V97.1553H238.758V95.1484H239.886V97.1553H245.306ZM239.9 91.4277C239.9 93.1562 242.244 94.6064 244.544 94.9287L244.075 95.8516C242.098 95.5073 240.142 94.46 239.329 92.9512C238.509 94.4673 236.546 95.5073 234.554 95.8516L234.114 94.9287C236.414 94.6064 238.743 93.1562 238.743 91.4277V90.8125H239.9V91.4277ZM243.797 99.3818V103.63H242.64V100.305H234.715V99.3818H243.797ZM253.043 90.8418C255.943 90.8418 257.643 91.6328 257.643 93.083C257.643 94.5625 255.943 95.3535 253.043 95.3682C250.143 95.3535 248.429 94.5625 248.429 93.083C248.429 91.6328 250.143 90.8418 253.043 90.8418ZM253.043 91.7061C250.875 91.7061 249.615 92.2334 249.63 93.083C249.615 93.9912 250.875 94.4893 253.043 94.4893C255.196 94.4893 256.471 93.9912 256.471 93.083C256.471 92.2334 255.196 91.7061 253.043 91.7061ZM258.976 96.2471V97.1846H247.11V96.2471H258.976ZM257.452 98.3125V101.228H249.718V102.575H257.848V103.483H248.575V100.378H256.324V99.1914H248.546V98.3125H257.452ZM270.7 91.252V91.6035C270.7 92.2847 270.7 93.7422 270.202 95.7344H274.26C274.633 94.1523 274.699 92.9878 274.714 92.1895H271.682V91.252H275.827V91.7354C275.827 92.5117 275.827 93.8594 275.432 95.7344H277.248V96.6719H271.813V98.8838H275.725V103.454H266.818V98.8838H270.686V96.6719H265.339V95.7344H269.06C269.455 94.1597 269.543 92.9805 269.572 92.1895H266.496V91.252H270.7ZM267.946 99.8066V102.517H274.582V99.8066H267.946ZM290.918 96.9355V97.9023H285.542V103.645H284.399V97.9023H279.053V96.9355H282.48C283.008 94.936 283.103 93.4272 283.14 92.4678H280.005V91.5303H284.253V91.9258C284.253 92.7534 284.253 94.4673 283.652 96.9355H287.93C288.384 94.9067 288.435 93.4346 288.442 92.4678H285.22V91.5303H289.585V92.1016C289.585 92.9951 289.585 94.6064 289.102 96.9355H290.918ZM303.914 90.6074V103.63H302.815V90.6074H303.914ZM301.175 90.959V102.971H300.076V96.8916H297.322C296.524 98.4077 295.271 99.748 293.455 100.817L292.781 99.9824C295.616 98.3052 297.037 95.9541 297.249 93.2295H293.338V92.2773H298.392C298.384 93.5591 298.179 94.7969 297.747 95.9541H300.076V90.959H301.175ZM10.6055 120.607V125.983H12.7881V126.936H10.6055V133.63H9.46289V120.607H10.6055ZM8.20312 122.702V123.654H0.454102V122.702H3.80859V120.769H4.95117V122.702H8.20312ZM4.39453 124.738C6.24023 124.738 7.57324 125.969 7.58789 127.727C7.57324 129.484 6.24023 130.715 4.39453 130.715C2.53418 130.715 1.18652 129.484 1.20117 127.727C1.18652 125.969 2.53418 124.738 4.39453 124.738ZM4.39453 125.705C3.17871 125.705 2.28516 126.555 2.2998 127.727C2.28516 128.913 3.17871 129.748 4.39453 129.733C5.5957 129.748 6.47461 128.913 6.48926 127.727C6.47461 126.555 5.5957 125.705 4.39453 125.705ZM18.8994 124.606C18.8994 126.818 20.5107 129.06 22.4297 129.895L21.7852 130.803C20.2617 130.107 18.9434 128.605 18.3428 126.804C17.7275 128.715 16.4165 130.378 14.9297 131.125L14.2412 130.217C16.1016 129.323 17.7275 126.862 17.7422 124.606V122.907H14.666V121.955H22.0049V122.907H18.8994V124.606ZM24.9785 120.607V133.63H23.8213V120.607H24.9785ZM34.5322 121.794V127.785H28.5117V121.794H34.5322ZM29.6396 122.731V126.862H33.4189V122.731H29.6396ZM38.1357 120.607V124.577H40.0986V125.544H38.1357V130.158H36.9932V120.607H38.1357ZM38.7363 132.385V133.352H29.9912V129.25H31.1191V132.385H38.7363ZM43.8076 131.462L42.665 135.446H41.5811L42.3867 131.462H43.8076ZM61.5674 120.607V128.371H60.4102V124.958H57.7881V124.006H60.4102V120.607H61.5674ZM57.2461 128.781C59.9561 128.781 61.6113 129.66 61.6113 131.198C61.6113 132.736 59.9561 133.615 57.2461 133.63C54.5361 133.615 52.8809 132.736 52.8809 131.198C52.8809 129.66 54.5361 128.781 57.2461 128.781ZM57.2461 129.675C55.2539 129.675 54.0088 130.246 54.0234 131.198C54.0088 132.136 55.2539 132.707 57.2461 132.707C59.2383 132.707 60.4688 132.136 60.4688 131.198C60.4688 130.246 59.2383 129.675 57.2461 129.675ZM55.2979 122.995C55.2979 124.694 56.6016 126.306 58.5059 126.965L57.9053 127.888C56.4404 127.36 55.3052 126.269 54.7559 124.914C54.1846 126.445 52.9761 127.668 51.4307 128.254L50.8301 127.331C52.7637 126.628 54.1406 124.87 54.1406 123.01V122.526H51.1963V121.56H58.2129V122.526H55.2979V122.995ZM68.8945 123.024C68.8945 124.753 70.1689 126.335 72.1025 127.009L71.5166 127.902C70.0298 127.375 68.8945 126.306 68.3379 124.958C67.7812 126.438 66.5874 127.587 65.0566 128.151L64.4414 127.258C66.3896 126.569 67.752 124.885 67.7666 123.024V122.468H64.793V121.53H71.8242V122.468H68.8945V123.024ZM74.666 120.607V124.05H76.6289V125.031H74.666V128.459H73.5234V120.607H74.666ZM74.666 129.147V133.63H73.5234V130.085H66.1406V129.147H74.666ZM93.5098 120.622V130.217H92.3525V125.192H89.6279C89.3716 126.796 88.0239 127.888 86.3027 127.888C84.3545 127.888 82.9189 126.555 82.9189 124.665C82.9189 122.775 84.3545 121.457 86.3027 121.457C88.0605 121.457 89.4302 122.578 89.6426 124.24H92.3525V120.622H93.5098ZM93.876 132.385V133.352H85.1455V129.235H86.3027V132.385H93.876ZM86.3027 122.468C84.999 122.482 84.0176 123.376 84.0176 124.665C84.0176 125.954 84.999 126.877 86.3027 126.892C87.5771 126.877 88.5586 125.954 88.5586 124.665C88.5586 123.376 87.5771 122.482 86.3027 122.468ZM107.561 120.607V133.63H106.462V120.607H107.561ZM104.924 120.93V132.956H103.84V126.247H101.643V125.31H103.84V120.93H104.924ZM100.251 124.328C100.251 126.584 101.262 128.825 103.063 129.865L102.36 130.715C101.079 129.946 100.17 128.54 99.7236 126.877C99.2476 128.671 98.3027 130.202 96.999 131.022L96.2666 130.158C98.083 129.074 99.1377 126.701 99.1377 124.328V123.098H96.6328V122.146H102.639V123.098H100.251V124.328ZM122.329 125.808V126.774H120.22V133.63H119.077V120.607H120.22V125.808H122.329ZM111.826 121.896V129.353C113.73 129.345 115.671 129.199 117.817 128.752L117.964 129.733C115.723 130.188 113.701 130.319 111.724 130.319H110.684V121.896H111.826ZM128.385 125.822L129.527 121.838H130.611L129.806 125.822H128.385ZM137.089 124.606C137.089 126.818 138.7 129.06 140.619 129.895L139.975 130.803C138.451 130.107 137.133 128.605 136.532 126.804C135.917 128.715 134.606 130.378 133.119 131.125L132.431 130.217C134.291 129.323 135.917 126.862 135.932 124.606V122.907H132.855V121.955H140.194V122.907H137.089V124.606ZM143.168 120.607V133.63H142.011V120.607H143.168ZM156.501 121.311V122.277C156.501 123.288 156.501 124.475 156.164 126.101H158.068V127.053H146.145V126.101H155.007C155.358 124.467 155.358 123.288 155.358 122.277V122.263H147.653V121.311H156.501ZM156.56 128.854V133.454H147.609V128.854H156.56ZM148.752 129.763V132.517H155.417V129.763H148.752ZM162.1 121.853L160.957 125.837H159.873L160.679 121.853H162.1ZM175.081 120.607V133.63H173.968V120.607H175.081ZM172.459 120.886V132.971H171.36V126.643H169.69C169.566 129.177 168.489 130.759 166.878 130.759C165.179 130.759 164.08 129.001 164.08 126.232C164.08 123.464 165.179 121.706 166.878 121.706C168.46 121.706 169.529 123.237 169.676 125.69H171.36V120.886H172.459ZM166.878 122.79C165.823 122.79 165.149 124.108 165.164 126.232C165.149 128.342 165.823 129.675 166.878 129.66C167.933 129.675 168.606 128.342 168.606 126.232C168.606 124.108 167.933 122.79 166.878 122.79ZM184.21 121.794V127.785H178.189V121.794H184.21ZM179.317 122.731V126.862H183.097V122.731H179.317ZM187.813 120.607V124.577H189.776V125.544H187.813V130.158H186.671V120.607H187.813ZM188.414 132.385V133.352H179.669V129.25H180.797V132.385H188.414ZM202.541 122.233C202.526 123.845 204.724 125.163 207.023 125.456L206.569 126.394C204.467 126.064 202.504 125.024 201.794 123.493C201.091 125.024 199.135 126.064 197.019 126.394L196.594 125.456C198.894 125.163 201.047 123.845 201.047 122.233V122.204H196.945V121.252H206.672V122.204H202.541V122.233ZM206.408 132.385V133.352H197.399V129.646H198.557V132.385H206.408ZM207.771 127.639V128.591H195.861V127.639H201.223V125.456H202.351V127.639H207.771ZM220.767 120.607V133.63H219.653V126.862H217.881V132.971H216.782V120.886H217.881V125.881H219.653V120.607H220.767ZM213.428 124.167C213.428 126.555 214.409 128.649 216.27 129.602L215.581 130.495C214.263 129.777 213.362 128.488 212.9 126.892C212.454 128.708 211.538 130.129 210.161 130.935L209.443 130.056C211.318 129.03 212.314 126.804 212.314 124.167V123.127H209.751V122.16H215.845V123.127H213.428V124.167ZM233.47 120.622V124.914H235.433V125.881H233.47V130.378H232.327V120.622H233.47ZM231.082 122.219V123.156H223.318V122.219H226.629V120.622H227.771V122.219H231.082ZM227.2 123.874C229.061 123.874 230.32 124.826 230.335 126.306C230.32 127.771 229.061 128.708 227.2 128.708C225.325 128.708 224.051 127.771 224.065 126.306C224.051 124.826 225.325 123.874 227.2 123.874ZM227.2 124.782C225.97 124.782 225.149 125.383 225.164 126.306C225.149 127.229 225.97 127.814 227.2 127.8C228.416 127.814 229.236 127.229 229.251 126.306C229.236 125.383 228.416 124.782 227.2 124.782ZM234.07 132.385V133.352H225.325V129.602H226.453V132.385H234.07ZM247.081 120.607V125.764H249.264V126.73H247.081V133.659H245.938V120.607H247.081ZM243.653 121.882V122.834H238.717V129.426C241.075 129.426 242.745 129.316 244.679 128.957L244.825 129.953C242.789 130.319 241.075 130.393 238.6 130.393H237.574V121.882H243.653ZM252.094 132.531C251.581 132.531 251.142 132.106 251.156 131.579C251.142 131.066 251.581 130.642 252.094 130.642C252.606 130.642 253.031 131.066 253.031 131.579C253.031 132.106 252.606 132.531 252.094 132.531ZM0.541992 155.822L1.68457 151.838H2.76855L1.96289 155.822H0.541992ZM9.24609 154.606C9.24609 156.818 10.8574 159.06 12.7764 159.895L12.1318 160.803C10.6084 160.107 9.29004 158.605 8.68945 156.804C8.07422 158.715 6.76318 160.378 5.27637 161.125L4.58789 160.217C6.44824 159.323 8.07422 156.862 8.08887 154.606V152.907H5.0127V151.955H12.3516V152.907H9.24609V154.606ZM15.3252 150.607V163.63H14.168V150.607H15.3252ZM28.6582 151.311V152.277C28.6582 153.288 28.6582 154.475 28.3213 156.101H30.2256V157.053H18.3018V156.101H27.1641C27.5156 154.467 27.5156 153.288 27.5156 152.277V152.263H19.8105V151.311H28.6582ZM28.7168 158.854V163.454H19.7666V158.854H28.7168ZM20.9092 159.763V162.517H27.5742V159.763H20.9092ZM34.2568 151.853L33.1143 155.837H32.0303L32.8359 151.853H34.2568ZM46.8135 150.607V163.659H45.6562V150.607H46.8135ZM39.8848 151.618C41.8184 151.633 43.21 153.391 43.21 156.159C43.21 158.928 41.8184 160.686 39.8848 160.686C37.9365 160.686 36.5596 158.928 36.5596 156.159C36.5596 153.391 37.9365 151.633 39.8848 151.618ZM39.8848 152.644C38.5811 152.658 37.6729 154.035 37.6729 156.159C37.6729 158.283 38.5811 159.66 39.8848 159.66C41.1885 159.66 42.0967 158.283 42.0967 156.159C42.0967 154.035 41.1885 152.658 39.8848 152.644ZM59.8682 150.607V155.793H62.0508V156.76H59.8682V163.659H58.7256V150.607H59.8682ZM56.2207 151.823V156.481H51.4746V159.528C53.8916 159.528 55.5762 159.448 57.5537 159.074L57.6709 160.026C55.6201 160.407 53.877 160.495 51.3721 160.51H50.332V155.529H55.0781V152.775H50.3027V151.823H56.2207ZM74.0361 154.562V155.485H65.1152V151.091H66.2578V154.562H74.0361ZM75.4131 157.258V158.195H63.4893V157.258H75.4131ZM74.1094 162.355V163.308H65.042V159.528H66.1846V162.355H74.1094ZM88.2656 151.604C88.2656 153.303 90.6387 154.855 92.8945 155.207L92.4404 156.115C90.4629 155.778 88.5073 154.68 87.6797 153.156C86.8594 154.709 84.8818 155.793 82.9043 156.13L82.4502 155.222C84.7207 154.87 87.0791 153.361 87.0791 151.604V150.944H88.2656V151.604ZM93.6416 157.243V158.195H88.3389V160.861H87.1963V158.195H81.7178V157.243H93.6416ZM92.3086 162.385V163.352H83.2412V159.587H84.3984V162.385H92.3086ZM105.627 150.607V154.577H107.59V155.544H105.627V160.144H104.47V150.607H105.627ZM102.111 151.618C102.111 154.973 99.709 157.463 95.959 158.635L95.4609 157.712C98.5811 156.738 100.617 154.877 100.866 152.585H96.0029V151.618H102.111ZM106.228 162.385V163.352H97.4678V159.177H98.6104V162.385H106.228ZM121.025 157.478V158.415H109.16V157.478H121.025ZM119.707 162.385V163.352H110.698V159.558H111.855V162.385H119.707ZM115.093 151.076C117.891 151.062 119.692 152.028 119.692 153.654C119.692 155.28 117.891 156.247 115.093 156.247C112.266 156.247 110.479 155.28 110.479 153.654C110.479 152.028 112.266 151.062 115.093 151.076ZM115.093 151.999C112.998 151.999 111.65 152.629 111.665 153.654C111.65 154.68 112.998 155.31 115.093 155.31C117.173 155.31 118.521 154.68 118.521 153.654C118.521 152.629 117.173 151.999 115.093 151.999ZM133.937 151.926V160.319H127.931V151.926H133.937ZM129.044 152.849V159.382H132.794V152.849H129.044ZM137.467 150.607V155.808H139.649V156.804H137.467V163.63H136.324V150.607H137.467ZM151.84 150.607V163.63H150.683V150.607H151.84ZM145.907 154.855C145.907 157.038 147.431 159.147 149.394 159.982L148.749 160.876C147.248 160.209 145.973 158.796 145.365 157.067C144.779 158.898 143.512 160.4 142.011 161.11L141.366 160.217C143.3 159.338 144.779 157.141 144.779 154.855V153.815H141.718V152.878H144.765V150.856H145.907V152.878H148.939V153.815H145.907V154.855ZM171.24 158.503V159.455H165.82V163.63H164.692V159.455H159.316V158.503H171.24ZM169.893 156.218V157.155H160.913V151.223H169.746V152.16H162.056V153.684H169.438V154.606H162.056V156.218H169.893ZM183.841 150.607V158.327H182.684V156.276H179.637V157.39H173.66V151.604H179.637V152.731H182.684V150.607H183.841ZM174.803 152.541V156.452H178.509V152.541H174.803ZM179.52 158.708C182.229 158.708 183.885 159.602 183.885 161.169C183.885 162.722 182.229 163.601 179.52 163.601C176.81 163.601 175.154 162.722 175.154 161.169C175.154 159.602 176.81 158.708 179.52 158.708ZM179.52 159.602C177.527 159.616 176.282 160.188 176.297 161.169C176.282 162.106 177.527 162.692 179.52 162.692C181.512 162.692 182.742 162.106 182.742 161.169C182.742 160.188 181.512 159.616 179.52 159.602ZM179.637 155.31H182.684V153.684H179.637V155.31ZM196.837 150.607V155.983H199.02V156.936H196.837V163.63H195.694V150.607H196.837ZM194.435 152.702V153.654H186.686V152.702H190.04V150.769H191.183V152.702H194.435ZM190.626 154.738C192.472 154.738 193.805 155.969 193.819 157.727C193.805 159.484 192.472 160.715 190.626 160.715C188.766 160.715 187.418 159.484 187.433 157.727C187.418 155.969 188.766 154.738 190.626 154.738ZM190.626 155.705C189.41 155.705 188.517 156.555 188.531 157.727C188.517 158.913 189.41 159.748 190.626 159.733C191.827 159.748 192.706 158.913 192.721 157.727C192.706 156.555 191.827 155.705 190.626 155.705ZM210.917 151.926V153.229C210.902 154.826 210.902 156.613 210.434 159.235L209.262 159.104C209.76 156.613 209.76 154.782 209.76 153.229V152.878H201.732V151.926H210.917ZM212.338 160.832V161.784H200.473V160.832H205.131V156.174H206.259V160.832H212.338ZM229.058 151.164V155.515H225.205V157.009H230.566V157.946H218.701V157.009H224.062V155.515H220.239V151.164H229.058ZM221.367 152.087V154.577H227.915V152.087H221.367ZM224.634 159.001C227.432 159.001 229.102 159.807 229.116 161.301C229.102 162.78 227.432 163.615 224.634 163.63C221.807 163.615 220.137 162.78 220.137 161.301C220.137 159.807 221.807 159.001 224.634 159.001ZM224.634 159.88C222.539 159.895 221.294 160.407 221.309 161.301C221.294 162.209 222.539 162.707 224.634 162.707C226.699 162.707 227.959 162.209 227.959 161.301C227.959 160.407 226.699 159.895 224.634 159.88ZM242.581 150.607V155.178H244.529V156.145H242.581V160.803H241.424V150.607H242.581ZM243.05 162.385V163.352H234.305V160.114H235.462V162.385H243.05ZM232.356 158.356C233.389 158.356 234.612 158.349 235.887 158.298V157.302C234.371 157.163 233.396 156.438 233.396 155.339C233.396 154.079 234.612 153.332 236.443 153.332C238.289 153.332 239.49 154.079 239.505 155.339C239.49 156.43 238.538 157.155 237.029 157.302V158.239C238.252 158.181 239.483 158.063 240.618 157.888L240.721 158.708C237.923 159.235 234.773 159.279 232.488 159.294L232.356 158.356ZM240.223 151.896V152.761H232.679V151.896H235.887V150.578H237.029V151.896H240.223ZM236.443 154.152C235.242 154.152 234.495 154.606 234.495 155.339C234.495 156.057 235.242 156.511 236.443 156.511C237.645 156.511 238.406 156.057 238.406 155.339C238.406 154.606 237.645 154.152 236.443 154.152ZM250.655 153.01C250.655 154.709 251.959 156.32 253.863 156.979L253.263 157.888C251.791 157.36 250.655 156.269 250.099 154.929C249.535 156.43 248.333 157.631 246.788 158.195L246.188 157.287C248.106 156.599 249.498 154.855 249.498 153.024V152.453H246.554V151.516H253.57V152.453H250.655V153.01ZM256.925 159.104V163.63H255.768V160.056H248.165V159.104H256.925ZM256.925 150.607V158.415H255.768V154.987H253.16V154.021H255.768V150.607H256.925ZM270.595 150.622V160.144H269.452V150.622H270.595ZM271.005 162.385V163.352H262.187V159.177H263.329V162.385H271.005ZM263.563 151.53C265.512 151.53 266.977 152.849 266.977 154.724C266.977 156.628 265.512 157.932 263.563 157.932C261.615 157.932 260.15 156.628 260.15 154.724C260.15 152.849 261.615 151.53 263.563 151.53ZM263.563 152.541C262.245 152.541 261.264 153.449 261.278 154.724C261.264 156.027 262.245 156.921 263.563 156.921C264.853 156.921 265.849 156.027 265.849 154.724C265.849 153.449 264.853 152.541 263.563 152.541ZM282.48 153.083C282.48 154.782 283.755 156.306 285.674 156.936L285.132 157.844C283.63 157.353 282.495 156.313 281.938 155.002C281.375 156.496 280.173 157.661 278.613 158.225L278.027 157.302C279.976 156.643 281.338 154.958 281.353 153.083V152.526H278.379V151.574H285.41V152.526H282.48V153.083ZM288.252 150.607V153.933H290.215V154.899H288.252V158.474H287.109V150.607H288.252ZM284.077 158.825C286.758 158.825 288.369 159.704 288.369 161.198C288.369 162.722 286.758 163.601 284.077 163.601C281.396 163.601 279.756 162.722 279.756 161.198C279.756 159.704 281.396 158.825 284.077 158.825ZM284.077 159.748C282.114 159.748 280.898 160.29 280.913 161.198C280.898 162.136 282.114 162.678 284.077 162.678C286.055 162.678 287.256 162.136 287.256 161.198C287.256 160.29 286.055 159.748 284.077 159.748ZM298.362 151.589V157.346H292.342V151.589H298.362ZM293.47 152.512V156.408H297.249V152.512H293.47ZM301.966 150.607V154.006H303.929V154.973H301.966V158.327H300.823V150.607H301.966ZM301.966 159.03V163.659H300.823V159.953H293.44V159.03H301.966ZM11.3232 180.607V193.659H10.166V186.804H7.30957V185.852H10.166V180.607H11.3232ZM5.02441 184.855C5.02441 187.009 6.48926 189.118 8.42285 189.982L7.76367 190.876C6.28418 190.195 5.05371 188.774 4.48242 187.053C3.91113 188.869 2.69531 190.393 1.21582 191.11L0.556641 190.217C2.46094 189.323 3.89648 187.097 3.89648 184.855V183.815H0.908203V182.878H3.89648V180.856H5.03906V182.878H7.9834V183.815H5.02441V184.855ZM25.0371 189.001V193.454H16.4678V189.001H25.0371ZM17.6104 189.895V192.517H23.8945V189.895H17.6104ZM25.0371 180.622V188.269H23.8799V184.504H21.4043V183.552H23.8799V180.622H25.0371ZM20.5693 181.281V184.885H15.9404V186.774C18.0864 186.782 19.6978 186.708 21.6533 186.394L21.7559 187.36C19.7051 187.683 18.0352 187.741 15.7793 187.727H14.7979V183.991H19.4561V182.233H14.7686V181.281H20.5693ZM30.0938 191.462L28.9512 195.446H27.8672L28.6729 191.462H30.0938ZM47.2383 180.607V183.801H49.2012V184.753H47.2383V188.005H46.0957V180.607H47.2383ZM43.6787 181.457C43.6641 184.738 41.3643 187.082 37.5117 188.137L37.043 187.214C40.251 186.35 42.2065 184.614 42.4482 182.409H37.6289V181.457H43.6787ZM47.2383 188.605V193.454H38.9912V188.605H47.2383ZM40.1338 189.558V192.517H46.0957V189.558H40.1338ZM61.5674 180.607V188.371H60.4102V184.958H57.7881V184.006H60.4102V180.607H61.5674ZM57.2461 188.781C59.9561 188.781 61.6113 189.66 61.6113 191.198C61.6113 192.736 59.9561 193.615 57.2461 193.63C54.5361 193.615 52.8809 192.736 52.8809 191.198C52.8809 189.66 54.5361 188.781 57.2461 188.781ZM57.2461 189.675C55.2539 189.675 54.0088 190.246 54.0234 191.198C54.0088 192.136 55.2539 192.707 57.2461 192.707C59.2383 192.707 60.4688 192.136 60.4688 191.198C60.4688 190.246 59.2383 189.675 57.2461 189.675ZM55.2979 182.995C55.2979 184.694 56.6016 186.306 58.5059 186.965L57.9053 187.888C56.4404 187.36 55.3052 186.269 54.7559 184.914C54.1846 186.445 52.9761 187.668 51.4307 188.254L50.8301 187.331C52.7637 186.628 54.1406 184.87 54.1406 183.01V182.526H51.1963V181.56H58.2129V182.526H55.2979V182.995ZM70.418 180.842C73.3184 180.842 75.0176 181.633 75.0176 183.083C75.0176 184.562 73.3184 185.354 70.418 185.368C67.5176 185.354 65.8037 184.562 65.8037 183.083C65.8037 181.633 67.5176 180.842 70.418 180.842ZM70.418 181.706C68.25 181.706 66.9902 182.233 67.0049 183.083C66.9902 183.991 68.25 184.489 70.418 184.489C72.5713 184.489 73.8457 183.991 73.8457 183.083C73.8457 182.233 72.5713 181.706 70.418 181.706ZM76.3506 186.247V187.185H64.4854V186.247H76.3506ZM74.8271 188.312V191.228H67.0928V192.575H75.2227V193.483H65.9502V190.378H73.6992V189.191H65.9209V188.312H74.8271ZM93.4512 180.607V193.659H92.2939V180.607H93.4512ZM84.6182 181.721V185.163H88.5V181.721H89.6279V190.51H83.4756V181.721H84.6182ZM84.6182 189.543H88.5V186.086H84.6182V189.543ZM108.293 188.488V189.455H102.917V193.659H101.789V189.455H96.4277V188.488H108.293ZM102.932 183.186C102.932 184.812 105.202 186.232 107.531 186.555L107.106 187.478C105.092 187.17 103.195 186.159 102.375 184.738C101.54 186.174 99.6138 187.17 97.5996 187.478L97.1748 186.555C99.4893 186.232 101.789 184.826 101.789 183.186V183.171H97.585V182.233H101.789V180.607H102.917V182.233H107.15V183.171H102.932V183.186ZM120.586 181.926V183.229C120.571 184.826 120.571 186.613 120.103 189.235L118.931 189.104C119.429 186.613 119.429 184.782 119.429 183.229V182.878H111.401V181.926H120.586ZM122.007 190.832V191.784H110.142V190.832H114.8V186.174H115.928V190.832H122.007ZM125.994 191.462L124.852 195.446H123.768L124.573 191.462H125.994ZM132.797 189.602C133.595 189.602 134.591 189.594 135.639 189.558V187.36C134.181 187.163 133.192 186.101 133.207 184.606C133.192 182.98 134.423 181.853 136.166 181.853C137.938 181.853 139.169 182.98 139.169 184.606C139.169 186.093 138.195 187.148 136.737 187.36V189.514C137.733 189.47 138.715 189.396 139.564 189.279L139.652 190.129C137.499 190.48 134.716 190.568 132.958 190.568L132.797 189.602ZM143.988 180.607V193.63H142.89V187.009H141.264V192.941H140.18V180.9H141.264V186.042H142.89V180.607H143.988ZM136.166 182.79C135.067 182.79 134.232 183.552 134.247 184.606C134.232 185.705 135.067 186.452 136.166 186.452C137.294 186.452 138.114 185.705 138.114 184.606C138.114 183.552 137.294 182.79 136.166 182.79ZM158.537 186.804V187.756H146.687V186.804H151.594V184.167H152.722V186.804H158.537ZM157.028 189.25V193.63H155.856V190.202H147.946V189.25H157.028ZM157.028 181.325V182.307C157.028 183.303 157.028 184.431 156.706 185.91L155.549 185.793C155.886 184.328 155.886 183.288 155.886 182.307V182.263H148.093V181.325H157.028ZM165.015 184.108C165 186.481 166.626 188.884 168.545 189.748L167.842 190.656C166.362 189.931 165.081 188.4 164.458 186.54C163.85 188.51 162.568 190.151 161.045 190.92L160.312 189.953C162.246 189.06 163.857 186.584 163.872 184.108V181.735H165.015V184.108ZM171.123 180.607V193.659H169.966V180.607H171.123ZM181.087 181.97C181.072 185.734 179.71 189.206 175.008 191.506L174.363 190.583C176.802 189.411 178.311 187.91 179.139 186.145L174.612 186.584L174.422 185.559L179.505 185.222C179.739 184.497 179.878 183.728 179.93 182.922H175.081V181.97H181.087ZM184.866 180.607V193.63H183.709V180.607H184.866ZM198.258 181.926V183.229C198.243 184.826 198.243 186.613 197.774 189.235L196.603 189.104C197.101 186.613 197.101 184.782 197.101 183.229V182.878H189.073V181.926H198.258ZM199.679 190.832V191.784H187.813V190.832H192.472V186.174H193.6V190.832H199.679ZM203.666 191.462L202.523 195.446H201.439L202.245 191.462H203.666ZM220.811 180.622V184.562H222.773V185.529H220.811V190.188H219.668V180.622H220.811ZM221.411 192.385V193.352H212.666V189.25H213.794V192.385H221.411ZM212.314 181.56V183.757H216.108V181.56H217.251V187.99H211.187V181.56H212.314ZM212.314 187.053H216.108V184.665H212.314V187.053ZM228.709 184.108C228.709 186.408 230.232 188.767 232.078 189.675L231.375 190.598C229.939 189.843 228.738 188.305 228.167 186.496C227.581 188.422 226.351 190.063 224.886 190.847L224.153 189.924C226.058 188.986 227.566 186.481 227.581 184.108V181.735H228.709V184.108ZM234.422 180.607V185.896H236.604V186.892H234.422V193.63H233.279V180.607H234.422ZM242.687 184.108C242.672 186.481 244.298 188.884 246.217 189.748L245.514 190.656C244.034 189.931 242.752 188.4 242.13 186.54C241.522 188.51 240.24 190.151 238.717 190.92L237.984 189.953C239.918 189.06 241.529 186.584 241.544 184.108V181.735H242.687V184.108ZM248.795 180.607V193.659H247.638V180.607H248.795ZM258.686 181.604C258.671 185.002 256.869 187.551 252.592 188.928L252.152 187.976C254.386 187.28 255.836 186.262 256.649 185.002L252.255 185.354L252.05 184.401L257.104 184.152C257.301 183.654 257.418 183.12 257.47 182.556H252.709V181.604H258.686ZM262.523 180.622V190.085H261.381V180.622H262.523ZM262.934 192.487V193.425H254.115V189.411H255.258V192.487H262.934ZM275.563 180.607V185.764H277.746V186.73H275.563V193.659H274.421V180.607H275.563ZM272.136 181.882V182.834H267.199V189.426C269.558 189.426 271.228 189.316 273.161 188.957L273.308 189.953C271.271 190.319 269.558 190.393 267.082 190.393H266.057V181.882H272.136ZM280.576 192.531C280.063 192.531 279.624 192.106 279.639 191.579C279.624 191.066 280.063 190.642 280.576 190.642C281.089 190.642 281.514 191.066 281.514 191.579C281.514 192.106 281.089 192.531 280.576 192.531ZM10.7959 211.999V213.303C10.7959 214.943 10.7959 216.804 10.3125 219.631L9.14062 219.514C9.66797 216.848 9.66797 214.899 9.66797 213.303V212.951H1.81641V211.999H10.7959ZM12.3926 220.759V221.711H0.527344V220.759H12.3926ZM19.5586 212.028V216.584H15.7939V219.543C17.2881 219.536 18.7017 219.47 20.3936 219.191L20.4961 220.129C18.6504 220.451 17.1709 220.51 15.5303 220.51H14.6807V215.632H18.4453V212.995H14.6514V212.028H19.5586ZM25.374 210.607V223.63H24.2754V216.716H22.3564V222.956H21.3018V210.9H22.3564V215.764H24.2754V210.607H25.374ZM32.54 214.108C32.54 216.467 34.0488 218.84 35.9385 219.704L35.25 220.642C33.7705 219.88 32.5474 218.32 31.9688 216.467C31.3901 218.415 30.167 220.085 28.6875 220.876L27.9404 219.953C29.8447 219.016 31.3682 216.511 31.3682 214.108V211.735H32.54V214.108ZM38.751 210.607V223.659H37.6084V215.998H34.5176V215.061H37.6084V210.607H38.751ZM50.5488 214.108C50.5488 216.408 52.0723 218.767 53.918 219.675L53.2148 220.598C51.7793 219.843 50.5781 218.305 50.0068 216.496C49.4209 218.422 48.1904 220.063 46.7256 220.847L45.9932 219.924C47.8975 218.986 49.4062 216.481 49.4209 214.108V211.735H50.5488V214.108ZM56.2617 210.607V215.896H58.4443V216.892H56.2617V223.63H55.1191V210.607H56.2617ZM70.0781 210.622V213.889H72.0557V214.855H70.0781V218.488H68.9355V210.622H70.0781ZM66.3574 211.428V214.943H61.6113V216.76C63.9258 216.76 65.603 216.679 67.6318 216.335L67.749 217.302C65.6543 217.653 63.9111 217.727 61.4941 217.727H60.4834V214.035H65.2295V212.38H60.4541V211.428H66.3574ZM65.9033 218.884C68.5547 218.884 70.1953 219.763 70.1953 221.257C70.1953 222.751 68.5547 223.601 65.9033 223.601C63.208 223.601 61.582 222.751 61.582 221.257C61.582 219.763 63.208 218.884 65.9033 218.884ZM65.9033 219.792C63.9111 219.792 62.6953 220.334 62.71 221.257C62.6953 222.165 63.9111 222.707 65.9033 222.707C67.8809 222.707 69.082 222.165 69.082 221.257C69.082 220.334 67.8809 219.792 65.9033 219.792ZM85.4766 217.478V218.415H73.6113V217.478H85.4766ZM84.1582 222.385V223.352H75.1494V219.558H76.3066V222.385H84.1582ZM79.5439 211.076C82.3418 211.062 84.1436 212.028 84.1436 213.654C84.1436 215.28 82.3418 216.247 79.5439 216.247C76.7168 216.247 74.9297 215.28 74.9297 213.654C74.9297 212.028 76.7168 211.062 79.5439 211.076ZM79.5439 211.999C77.4492 211.999 76.1016 212.629 76.1162 213.654C76.1016 214.68 77.4492 215.31 79.5439 215.31C81.624 215.31 82.9717 214.68 82.9717 213.654C82.9717 212.629 81.624 211.999 79.5439 211.999ZM98.3291 215.236V217.097H103.705V218.049H91.8398V217.097H97.2012V215.236H98.3291ZM97.7725 219.118C100.57 219.118 102.24 219.909 102.255 221.359C102.24 222.81 100.57 223.601 97.7725 223.601C94.9453 223.601 93.2754 222.81 93.2754 221.359C93.2754 219.909 94.9453 219.118 97.7725 219.118ZM97.7725 220.026C95.6631 220.026 94.4326 220.51 94.4473 221.359C94.4326 222.209 95.6631 222.707 97.7725 222.707C99.8525 222.707 101.098 222.209 101.098 221.359C101.098 220.51 99.8525 220.026 97.7725 220.026ZM102.65 211.223V212.16H98.5195C98.5928 213.61 100.775 214.731 103.046 214.973L102.621 215.881C100.49 215.625 98.4902 214.694 97.7725 213.244C97.062 214.694 95.0698 215.625 92.9238 215.881L92.499 214.973C94.7695 214.731 96.9375 213.625 97.0254 212.16H92.9238V211.223H102.65ZM112.043 215.236V217.097H117.419V218.049H105.554V217.097H110.915V215.236H112.043ZM111.486 219.118C114.284 219.118 115.954 219.909 115.969 221.359C115.954 222.81 114.284 223.601 111.486 223.601C108.659 223.601 106.989 222.81 106.989 221.359C106.989 219.909 108.659 219.118 111.486 219.118ZM111.486 220.026C109.377 220.026 108.146 220.51 108.161 221.359C108.146 222.209 109.377 222.707 111.486 222.707C113.566 222.707 114.812 222.209 114.812 221.359C114.812 220.51 113.566 220.026 111.486 220.026ZM116.364 211.223V212.16H112.233C112.307 213.61 114.489 214.731 116.76 214.973L116.335 215.881C114.204 215.625 112.204 214.694 111.486 213.244C110.776 214.694 108.784 215.625 106.638 215.881L106.213 214.973C108.483 214.731 110.651 213.625 110.739 212.16H106.638V211.223H116.364ZM129.144 211.252V211.604C129.144 212.285 129.144 213.742 128.646 215.734H132.703C133.077 214.152 133.143 212.988 133.157 212.189H130.125V211.252H134.271V211.735C134.271 212.512 134.271 213.859 133.875 215.734H135.691V216.672H130.257V218.884H134.168V223.454H125.262V218.884H129.129V216.672H123.782V215.734H127.503C127.898 214.16 127.986 212.98 128.016 212.189H124.939V211.252H129.144ZM126.39 219.807V222.517H133.025V219.807H126.39ZM148.292 210.607V223.659H147.135V216.804H144.278V215.852H147.135V210.607H148.292ZM141.993 214.855C141.993 217.009 143.458 219.118 145.392 219.982L144.732 220.876C143.253 220.195 142.022 218.774 141.451 217.053C140.88 218.869 139.664 220.393 138.185 221.11L137.525 220.217C139.43 219.323 140.865 217.097 140.865 214.855V213.815H137.877V212.878H140.865V210.856H142.008V212.878H144.952V213.815H141.993V214.855ZM162.006 219.001V223.454H153.437V219.001H162.006ZM154.579 219.895V222.517H160.863V219.895H154.579ZM162.006 210.622V218.269H160.849V214.504H158.373V213.552H160.849V210.622H162.006ZM157.538 211.281V214.885H152.909V216.774C155.055 216.782 156.667 216.708 158.622 216.394L158.725 217.36C156.674 217.683 155.004 217.741 152.748 217.727H151.767V213.991H156.425V212.233H151.737V211.281H157.538ZM179.985 216.511V217.463H170.903V211.75H172.061V216.511H179.985ZM181.362 220.861V221.828H169.438V220.861H181.362ZM193.89 210.607V223.63H192.762V218.576H189.48C189.048 219.616 188.477 220.62 187.708 221.535L186.741 220.905C188.741 218.605 189.385 215.712 189.495 212.995H187.459V212.028H190.594C190.594 212.717 190.564 213.435 190.491 214.167H192.762V210.607H193.89ZM187.063 212.028C187.063 215.104 186.287 218.181 183.958 220.642L183.035 219.982C184.954 218.012 185.796 215.581 185.95 212.995H183.489V212.028H187.063ZM189.832 217.609H192.762V215.104H190.389C190.264 215.939 190.088 216.782 189.832 217.609ZM201.524 214.606C201.524 216.818 203.136 219.06 205.055 219.895L204.41 220.803C202.887 220.107 201.568 218.605 200.968 216.804C200.353 218.715 199.042 220.378 197.555 221.125L196.866 220.217C198.727 219.323 200.353 216.862 200.367 214.606V212.907H197.291V211.955H204.63V212.907H201.524V214.606ZM207.604 210.607V223.63H206.446V210.607H207.604ZM221.347 210.607V223.63H220.189V210.607H221.347ZM217.494 212.028C217.479 215.778 215.736 219.089 211.371 221.184L210.741 220.246C214.264 218.576 216.059 216.079 216.322 212.966H211.342V212.028H217.494ZM234.812 216.716V217.653H230.783V221.022H236.218V221.989H224.294V221.022H229.655V217.653H225.817V211.677H234.68V212.614H226.975V216.716H234.812ZM252.703 210.622V214.914H254.666V215.881H252.703V220.378H251.561V210.622H252.703ZM250.315 212.219V213.156H242.552V212.219H245.862V210.622H247.005V212.219H250.315ZM246.434 213.874C248.294 213.874 249.554 214.826 249.568 216.306C249.554 217.771 248.294 218.708 246.434 218.708C244.559 218.708 243.284 217.771 243.299 216.306C243.284 214.826 244.559 213.874 246.434 213.874ZM246.434 214.782C245.203 214.782 244.383 215.383 244.397 216.306C244.383 217.229 245.203 217.814 246.434 217.8C247.649 217.814 248.47 217.229 248.484 216.306C248.47 215.383 247.649 214.782 246.434 214.782ZM253.304 222.385V223.352H244.559V219.602H245.687V222.385H253.304ZM266.314 210.607V215.764H268.497V216.73H266.314V223.659H265.172V210.607H266.314ZM262.887 211.882V212.834H257.95V219.426C260.309 219.426 261.979 219.316 263.912 218.957L264.059 219.953C262.022 220.319 260.309 220.393 257.833 220.393H256.808V211.882H262.887ZM271.327 222.531C270.814 222.531 270.375 222.106 270.39 221.579C270.375 221.066 270.814 220.642 271.327 220.642C271.84 220.642 272.265 221.066 272.265 221.579C272.265 222.106 271.84 222.531 271.327 222.531ZM4.89258 244.108C4.89258 246.408 6.41602 248.767 8.26172 249.675L7.55859 250.598C6.12305 249.843 4.92188 248.305 4.35059 246.496C3.76465 248.422 2.53418 250.063 1.06934 250.847L0.336914 249.924C2.24121 248.986 3.75 246.481 3.76465 244.108V241.735H4.89258V244.108ZM10.6055 240.607V245.896H12.7881V246.892H10.6055V253.63H9.46289V240.607H10.6055ZM24.4219 240.622V243.889H26.3994V244.855H24.4219V248.488H23.2793V240.622H24.4219ZM20.7012 241.428V244.943H15.9551V246.76C18.2695 246.76 19.9468 246.679 21.9756 246.335L22.0928 247.302C19.998 247.653 18.2549 247.727 15.8379 247.727H14.8271V244.035H19.5732V242.38H14.7979V241.428H20.7012ZM20.2471 248.884C22.8984 248.884 24.5391 249.763 24.5391 251.257C24.5391 252.751 22.8984 253.601 20.2471 253.601C17.5518 253.601 15.9258 252.751 15.9258 251.257C15.9258 249.763 17.5518 248.884 20.2471 248.884ZM20.2471 249.792C18.2549 249.792 17.0391 250.334 17.0537 251.257C17.0391 252.165 18.2549 252.707 20.2471 252.707C22.2246 252.707 23.4258 252.165 23.4258 251.257C23.4258 250.334 22.2246 249.792 20.2471 249.792ZM44.3789 245.646V246.584H32.4697V245.646H36.1611C36.564 244.057 36.6592 242.863 36.6885 242.072H33.583V241.135H37.8311V241.472C37.8164 242.153 37.8164 243.618 37.3184 245.646H41.3027C41.6836 244.042 41.7495 242.878 41.7715 242.072H38.71V241.135H42.8848V241.662C42.8848 242.453 42.8848 243.808 42.46 245.646H44.3789ZM42.9141 247.976V248.869H35.1064V250.246H42.5771V251.11H35.1064V252.546H43.002V253.454H33.9492V247.976H42.9141ZM57.3457 240.607V253.63H56.2324V240.607H57.3457ZM54.7236 240.886V252.971H53.625V246.643H51.9551C51.8306 249.177 50.7539 250.759 49.1426 250.759C47.4434 250.759 46.3447 249.001 46.3447 246.232C46.3447 243.464 47.4434 241.706 49.1426 241.706C50.7246 241.706 51.7939 243.237 51.9404 245.69H53.625V240.886H54.7236ZM49.1426 242.79C48.0879 242.79 47.4141 244.108 47.4287 246.232C47.4141 248.342 48.0879 249.675 49.1426 249.66C50.1973 249.675 50.8711 248.342 50.8711 246.232C50.8711 244.108 50.1973 242.79 49.1426 242.79ZM74.5928 240.622V243.61H76.5703V244.577H74.5928V247.976H73.4502V240.622H74.5928ZM74.5928 248.693V253.454H66.3457V248.693H74.5928ZM67.4736 249.602V252.517H73.4795V249.602H67.4736ZM66.1992 241.281V246.013C68.0522 246.005 69.9639 245.859 72.0732 245.427L72.2197 246.394C70.0078 246.833 68.0449 246.979 66.082 246.979H65.042V241.281H66.1992ZM88.6582 244.562V245.485H79.7373V241.091H80.8799V244.562H88.6582ZM90.0352 247.258V248.195H78.1113V247.258H90.0352ZM88.7314 252.355V253.308H79.6641V249.528H80.8066V252.355H88.7314ZM107.15 240.622V250.246H105.993V245.603H103.107V244.636H105.993V240.622H107.15ZM103.166 241.618C103.151 244.958 100.764 247.507 97.0576 248.723L96.5596 247.8C99.5625 246.811 101.65 244.943 101.906 242.585H97.2188V241.618H103.166ZM107.487 252.385V253.352H98.8594V249.265H100.031V252.385H107.487ZM121.116 241.604C121.116 243.303 123.489 244.855 125.745 245.207L125.291 246.115C123.313 245.778 121.358 244.68 120.53 243.156C119.71 244.709 117.732 245.793 115.755 246.13L115.301 245.222C117.571 244.87 119.93 243.361 119.93 241.604V240.944H121.116V241.604ZM126.492 247.243V248.195H121.189V250.861H120.047V248.195H114.568V247.243H126.492ZM125.159 252.385V253.352H116.092V249.587H117.249V252.385H125.159ZM138.478 240.607V244.577H140.44V245.544H138.478V250.144H137.32V240.607H138.478ZM134.962 241.618C134.962 244.973 132.56 247.463 128.81 248.635L128.312 247.712C131.432 246.738 133.468 244.877 133.717 242.585H128.854V241.618H134.962ZM139.078 252.385V253.352H130.318V249.177H131.461V252.385H139.078ZM153.891 246.086V247.009H142.011V246.086H153.891ZM152.47 244.079V245.017H143.593V241.062H152.338V241.984H144.75V244.079H152.47ZM152.353 248.181V251.198H144.618V252.546H152.748V253.483H143.476V250.334H151.225V249.074H143.446V248.181H152.353ZM159.987 241.56C162.038 241.56 163.488 242.805 163.488 244.621C163.488 246.438 162.038 247.683 159.987 247.683C157.937 247.683 156.457 246.438 156.472 244.621C156.457 242.805 157.937 241.56 159.987 241.56ZM159.987 242.57C158.596 242.57 157.585 243.405 157.6 244.621C157.585 245.837 158.596 246.672 159.987 246.672C161.364 246.672 162.36 245.837 162.36 244.621C162.36 243.405 161.364 242.57 159.987 242.57ZM166.403 240.607V253.659H165.261V240.607H166.403ZM155.798 249.807C158.2 249.807 161.511 249.792 164.396 249.367L164.484 250.217C161.511 250.773 158.303 250.788 155.959 250.788L155.798 249.807ZM184.69 240.607V248.181H183.562V240.607H184.69ZM185.027 249.104V250.012H181.16C181.226 251.25 183.277 252.465 185.481 252.736L185.057 253.63C183.108 253.352 181.329 252.436 180.56 251.228C179.783 252.465 177.952 253.366 175.989 253.63L175.579 252.751C177.784 252.509 179.908 251.293 179.974 250.012H176.121V249.104H179.988V247.844H181.131V249.104H185.027ZM175.784 241.164V243.186H179.622V241.164H180.765V246.979H174.642V241.164H175.784ZM175.784 246.057H179.622V244.079H175.784V246.057ZM189.806 251.462L188.663 255.446H187.579L188.385 251.462H189.806ZM206.95 240.607V244.079H208.913V245.061H206.95V248.459H205.808V240.607H206.95ZM206.95 249.206V253.454H198.732V249.206H206.95ZM199.86 250.129V252.517H205.808V250.129H199.86ZM204.562 241.999V242.951H196.799V241.999H200.109V240.505H201.252V241.999H204.562ZM200.681 243.596C202.556 243.596 203.801 244.519 203.815 245.91C203.801 247.331 202.556 248.239 200.681 248.239C198.791 248.239 197.531 247.331 197.546 245.91C197.531 244.519 198.791 243.596 200.681 243.596ZM200.681 244.489C199.45 244.489 198.63 245.061 198.645 245.91C198.63 246.804 199.45 247.346 200.681 247.36C201.896 247.346 202.717 246.804 202.731 245.91C202.717 245.061 201.896 244.489 200.681 244.489ZM213.721 242.189C213.706 244.929 213.325 248.005 211.421 250.524L210.513 249.997C212.146 247.954 212.629 245.544 212.725 243.142H210.776V242.189H213.721ZM216.606 242.189C216.599 243.251 216.577 244.475 216.416 245.734H218.145V240.959H219.243V252.971H218.145V246.687H216.27C215.969 248.312 215.398 249.96 214.336 251.389L213.442 250.847C215.244 248.547 215.544 245.573 215.596 243.142H214.131V242.189H216.606ZM221.689 240.607V253.63H220.576V240.607H221.689ZM235.257 240.622V248.693H234.158V245.163H232.459V248.488H231.36V240.827H232.459V244.211H234.158V240.622H235.257ZM230.804 242.102V243.054H224.124V242.102H226.907V240.666H228.05V242.102H230.804ZM227.479 243.713C229.134 243.713 230.262 244.577 230.276 245.939C230.262 247.272 229.134 248.166 227.479 248.166C225.838 248.166 224.681 247.272 224.695 245.939C224.681 244.577 225.838 243.713 227.479 243.713ZM227.479 244.577C226.438 244.577 225.721 245.104 225.721 245.939C225.721 246.76 226.438 247.302 227.479 247.302C228.519 247.302 229.236 246.76 229.236 245.939C229.236 245.104 228.519 244.577 227.479 244.577ZM228.812 249.528C228.797 250.642 229.405 251.799 230.643 252.458C231.873 251.74 232.503 250.48 232.518 249.528V249.06H233.646V249.528C233.631 250.803 234.627 252.092 236.297 252.604L235.755 253.483C234.444 253.029 233.521 252.143 233.074 251.081C232.671 252.114 231.88 253.103 230.657 253.586C229.397 253.117 228.606 252.194 228.226 251.14C227.742 252.15 226.834 253.029 225.589 253.483L225.032 252.604C226.658 252.048 227.684 250.715 227.684 249.528V249.06H228.812V249.528ZM244.664 241.706V242.658H239.801V247.258C242.137 247.258 243.646 247.177 245.396 246.833L245.543 247.785C243.683 248.107 242.101 248.21 239.654 248.21H238.673V241.706H244.664ZM248.707 240.622V250.129H247.55V245.178H243.814V244.24H247.55V240.622H248.707ZM249.059 252.487V253.425H240.313V249.411H241.471V252.487H249.059ZM260.549 243.332C260.549 245.104 261.853 246.687 263.771 247.36L263.127 248.21C261.677 247.705 260.549 246.635 259.992 245.28C259.436 246.782 258.242 247.99 256.711 248.562L256.096 247.639C258.044 246.936 259.406 245.192 259.421 243.332V242.702H256.477V241.75H263.479V242.702H260.549V243.332ZM266.32 240.607V244.606H268.283V245.559H266.32V250.129H265.178V240.607H266.32ZM266.921 252.385V253.352H258.176V249.294H259.304V252.385H266.921ZM274.204 242.717C274.204 244.489 275.552 246.115 277.441 246.76L276.812 247.668C275.369 247.141 274.233 246.064 273.662 244.709C273.105 246.24 271.948 247.448 270.425 248.034L269.81 247.111C271.758 246.379 273.062 244.636 273.076 242.629V241.281H274.204V242.717ZM280.034 240.607V244.006H281.997V244.973H280.034V248.532H278.892V240.607H280.034ZM275.859 248.869C278.54 248.869 280.151 249.733 280.151 251.228C280.151 252.751 278.54 253.601 275.859 253.601C273.179 253.601 271.538 252.751 271.538 251.228C271.538 249.733 273.179 248.869 275.859 248.869ZM275.859 249.792C273.896 249.792 272.681 250.334 272.695 251.228C272.681 252.15 273.896 252.678 275.859 252.692C277.837 252.678 279.038 252.15 279.038 251.228C279.038 250.334 277.837 249.792 275.859 249.792ZM285.706 251.462L284.563 255.446H283.479L284.285 251.462H285.706ZM10.7959 271.999V273.303C10.7959 274.943 10.7959 276.804 10.3125 279.631L9.14062 279.514C9.66797 276.848 9.66797 274.899 9.66797 273.303V272.951H1.81641V271.999H10.7959ZM12.3926 280.759V281.711H0.527344V280.759H12.3926ZM24.9932 270.607V283.659H23.8506V270.607H24.9932ZM21.0381 271.823V276.452H16.1748V279.528C18.3354 279.528 20.2617 279.433 22.5908 279.06L22.708 280.026C20.3057 280.407 18.3281 280.495 16.0869 280.495H15.0029V275.515H19.8809V272.775H14.9736V271.823H21.0381ZM38.3994 271.926V273.229C38.3848 274.826 38.3848 276.613 37.916 279.235L36.7441 279.104C37.2422 276.613 37.2422 274.782 37.2422 273.229V272.878H29.2148V271.926H38.3994ZM39.8203 280.832V281.784H27.9551V280.832H32.6133V276.174H33.7412V280.832H39.8203ZM56.4521 271.999V273.303C56.4521 274.943 56.4521 276.804 55.9688 279.631L54.7969 279.514C55.3242 276.848 55.3242 274.899 55.3242 273.303V272.951H47.4727V271.999H56.4521ZM58.0488 280.759V281.711H46.1836V280.759H58.0488ZM74.5928 270.607V274.577H76.5557V275.544H74.5928V280.217H73.4502V270.607H74.5928ZM75.1934 282.385V283.352H66.4482V279.221H67.5762V282.385H75.1934ZM68.0742 271.53C70.0225 271.53 71.4873 272.849 71.502 274.738C71.4873 276.628 70.0225 277.946 68.0742 277.946C66.126 277.946 64.6465 276.628 64.6611 274.738C64.6465 272.849 66.126 271.53 68.0742 271.53ZM68.0742 272.541C66.7852 272.541 65.7744 273.449 65.7891 274.738C65.7744 276.027 66.7852 276.936 68.0742 276.936C69.3926 276.936 70.374 276.027 70.374 274.738C70.374 273.449 69.3926 272.541 68.0742 272.541ZM89.2881 270.607V283.63H88.1748V270.607H89.2881ZM86.666 270.886V282.971H85.5674V276.643H83.8975C83.7729 279.177 82.6963 280.759 81.085 280.759C79.3857 280.759 78.2871 279.001 78.2871 276.232C78.2871 273.464 79.3857 271.706 81.085 271.706C82.667 271.706 83.7363 273.237 83.8828 275.69H85.5674V270.886H86.666ZM81.085 272.79C80.0303 272.79 79.3564 274.108 79.3711 276.232C79.3564 278.342 80.0303 279.675 81.085 279.66C82.1396 279.675 82.8135 278.342 82.8135 276.232C82.8135 274.108 82.1396 272.79 81.085 272.79ZM106.887 274.299V275.251H102.858V277.009H108.234V277.961H96.3545V277.009H101.716V275.251H97.9658V270.9H99.1084V274.299H106.887ZM106.755 279.294V283.63H105.598V280.231H97.7461V279.294H106.755ZM113.555 271.618C115.474 271.633 116.836 273.391 116.851 276.159C116.836 278.928 115.474 280.686 113.555 280.686C111.621 280.686 110.273 278.928 110.273 276.159C110.273 273.391 111.621 271.633 113.555 271.618ZM113.555 272.644C112.266 272.658 111.357 274.035 111.357 276.159C111.357 278.283 112.266 279.66 113.555 279.66C114.858 279.66 115.737 278.283 115.737 276.159C115.737 274.035 114.858 272.658 113.555 272.644ZM120.146 270.607V275.808H122.329V276.804H120.146V283.63H119.004V270.607H120.146ZM135.662 277.185V278.122H123.782V277.185H135.662ZM134.3 274.797V275.749H125.291V271.179H134.183V272.116H126.434V274.797H134.3ZM134.402 282.37V283.337H125.32V279.528H126.463V282.37H134.402ZM146.376 274.108C146.376 276.408 147.899 278.767 149.745 279.675L149.042 280.598C147.606 279.843 146.405 278.305 145.834 276.496C145.248 278.422 144.018 280.063 142.553 280.847L141.82 279.924C143.725 278.986 145.233 276.481 145.248 274.108V271.735H146.376V274.108ZM152.089 270.607V275.896H154.271V276.892H152.089V283.63H150.946V270.607H152.089ZM165.905 270.622V273.962H167.883V274.943H165.905V278.386H164.763V270.622H165.905ZM165.905 279.03V283.454H157.658V279.03H165.905ZM158.786 279.924V282.517H164.792V279.924H158.786ZM162.185 271.325V274.885H157.438V276.73C159.753 276.73 161.43 276.665 163.459 276.335L163.576 277.258C161.481 277.624 159.738 277.697 157.321 277.697H156.311V273.991H161.057V272.277H156.281V271.325H162.185ZM173.701 271.56C175.752 271.56 177.202 272.805 177.202 274.621C177.202 276.438 175.752 277.683 173.701 277.683C171.65 277.683 170.171 276.438 170.186 274.621C170.171 272.805 171.65 271.56 173.701 271.56ZM173.701 272.57C172.31 272.57 171.299 273.405 171.313 274.621C171.299 275.837 172.31 276.672 173.701 276.672C175.078 276.672 176.074 275.837 176.074 274.621C176.074 273.405 175.078 272.57 173.701 272.57ZM180.117 270.607V283.659H178.975V270.607H180.117ZM169.512 279.807C171.914 279.807 175.225 279.792 178.11 279.367L178.198 280.217C175.225 280.773 172.017 280.788 169.673 280.788L169.512 279.807ZM199.532 278.21V279.133H187.667V278.21H199.532ZM198.214 282.399V283.352H189.205V280.07H190.362V282.399H198.214ZM198.844 271.853V272.746H188.282V271.853H193.028V270.461H194.171V271.853H198.844ZM193.6 273.332C196.266 273.332 197.818 274.021 197.818 275.354C197.818 276.643 196.266 277.331 193.6 277.346C190.904 277.331 189.366 276.643 189.366 275.354C189.366 274.021 190.904 273.332 193.6 273.332ZM193.6 274.182C191.651 274.182 190.523 274.606 190.538 275.354C190.523 276.086 191.651 276.481 193.6 276.481C195.548 276.481 196.661 276.086 196.661 275.354C196.661 274.606 195.548 274.182 193.6 274.182ZM205.907 273.01C205.907 274.709 207.211 276.32 209.115 276.979L208.515 277.888C207.042 277.36 205.907 276.269 205.351 274.929C204.787 276.43 203.585 277.631 202.04 278.195L201.439 277.287C203.358 276.599 204.75 274.855 204.75 273.024V272.453H201.806V271.516H208.822V272.453H205.907V273.01ZM212.177 279.104V283.63H211.02V280.056H203.417V279.104H212.177ZM212.177 270.607V278.415H211.02V274.987H208.412V274.021H211.02V270.607H212.177ZM225.832 270.607V283.659H224.675V270.607H225.832ZM218.903 271.618C220.837 271.633 222.229 273.391 222.229 276.159C222.229 278.928 220.837 280.686 218.903 280.686C216.955 280.686 215.578 278.928 215.578 276.159C215.578 273.391 216.955 271.633 218.903 271.618ZM218.903 272.644C217.6 272.658 216.691 274.035 216.691 276.159C216.691 278.283 217.6 279.66 218.903 279.66C220.207 279.66 221.115 278.283 221.115 276.159C221.115 274.035 220.207 272.658 218.903 272.644ZM238.887 270.607V275.764H241.069V276.73H238.887V283.659H237.744V270.607H238.887ZM235.459 271.882V272.834H230.522V279.426C232.881 279.426 234.551 279.316 236.484 278.957L236.631 279.953C234.595 280.319 232.881 280.393 230.405 280.393H229.38V271.882H235.459ZM243.899 282.531C243.387 282.531 242.947 282.106 242.962 281.579C242.947 281.066 243.387 280.642 243.899 280.642C244.412 280.642 244.837 281.066 244.837 281.579C244.837 282.106 244.412 282.531 243.899 282.531Z" fill="#1A1A1A"/>
</svg>
