<svg width="463" height="103" viewBox="0 0 463 103" fill="none" xmlns="http://www.w3.org/2000/svg">
<path d="M67.3195 6.85352V11.3848H69.9172V12.6738H67.3195V17.2246H65.7766V6.85352H67.3195ZM61.7336 17.5566C65.2688 17.5566 67.4563 18.7871 67.4563 20.8574C67.4563 22.9668 65.2688 24.1777 61.7336 24.1777C58.1789 24.1777 55.9719 22.9668 55.9719 20.8574C55.9719 18.7871 58.1789 17.5566 61.7336 17.5566ZM61.7336 18.8262C59.1164 18.8066 57.4758 19.5879 57.4758 20.8574C57.4758 22.1465 59.1164 22.9473 61.7336 22.9473C64.3313 22.9473 65.9719 22.1465 65.9719 20.8574C65.9719 19.5879 64.3313 18.8066 61.7336 18.8262ZM62.2414 8.18164V9.45117H56.0305V14.5488C59.5461 14.5293 61.5773 14.4219 63.9016 13.9434L64.0578 15.2129C61.6359 15.7012 59.5461 15.7988 55.8742 15.7988H54.5266V8.18164H62.2414ZM86.3469 6.87305V19.6074H84.8234V6.87305H86.3469ZM86.8938 22.5566V23.8457H75.1359V18.4355H76.6594V22.5566H86.8938ZM78.1633 9.58789C78.1438 12.2246 79.9602 14.6074 82.5383 15.5449L81.7375 16.7754C79.7258 16.0039 78.1633 14.4414 77.4016 12.4395C76.6301 14.5684 75.048 16.2773 73.0266 17.0879L72.1867 15.8965C74.8234 14.8809 76.6008 12.3223 76.6008 9.58789V7.84961H78.1633V9.58789ZM95.9797 8.12305C98.7141 8.12305 100.648 9.7832 100.648 12.2051C100.648 14.627 98.7141 16.2871 95.9797 16.2871C93.2453 16.2871 91.2727 14.627 91.2922 12.2051C91.2727 9.7832 93.2453 8.12305 95.9797 8.12305ZM95.9797 9.4707C94.1242 9.4707 92.7766 10.584 92.7961 12.2051C92.7766 13.8262 94.1242 14.9395 95.9797 14.9395C97.8156 14.9395 99.1438 13.8262 99.1438 12.2051C99.1438 10.584 97.8156 9.4707 95.9797 9.4707ZM104.534 6.85352V24.2559H103.011V6.85352H104.534ZM90.3938 19.1191C93.5969 19.1191 98.0109 19.0996 101.859 18.5332L101.976 19.666C98.0109 20.4082 93.7336 20.4277 90.6086 20.4277L90.3938 19.1191ZM128.917 6.85352V24.2559H127.374V6.85352H128.917ZM119.679 8.20117C122.257 8.2207 124.113 10.5645 124.113 14.2559C124.113 17.9473 122.257 20.291 119.679 20.291C117.081 20.291 115.245 17.9473 115.245 14.2559C115.245 10.5645 117.081 8.2207 119.679 8.20117ZM119.679 9.56836C117.941 9.58789 116.73 11.4238 116.73 14.2559C116.73 17.0879 117.941 18.9238 119.679 18.9238C121.417 18.9238 122.628 17.0879 122.628 14.2559C122.628 11.4238 121.417 9.58789 119.679 9.56836ZM137.534 8.20117C140.093 8.2207 141.909 10.5645 141.929 14.2559C141.909 17.9473 140.093 20.291 137.534 20.291C134.956 20.291 133.159 17.9473 133.159 14.2559C133.159 10.5645 134.956 8.2207 137.534 8.20117ZM137.534 9.56836C135.816 9.58789 134.605 11.4238 134.605 14.2559C134.605 17.0879 135.816 18.9238 137.534 18.9238C139.273 18.9238 140.445 17.0879 140.445 14.2559C140.445 11.4238 139.273 9.58789 137.534 9.56836ZM149.136 11.2285V12.5371H146.323V16.4043H149.136V17.6934H146.323V24.2168H144.8V6.85352H146.323V11.2285H149.136ZM165.527 6.85352V24.2168H163.984V6.85352H165.527ZM160.39 8.74805C160.37 13.748 158.046 18.1621 152.226 20.9551L151.386 19.7051C156.083 17.4785 158.476 14.1484 158.827 9.99805H152.187V8.74805H160.39ZM183.499 12.127V13.3574H171.605V7.49805H173.128V12.127H183.499ZM185.335 15.7207V16.9707H169.437V15.7207H185.335ZM183.597 22.5176V23.7871H171.507V18.748H173.03V22.5176H183.597ZM213.186 0.202765H216.194L215.49 0.618765C214.818 1.03477 214.274 1.64277 213.922 2.34677L204.354 22.6348L194.658 2.12276C194.338 1.45076 193.826 0.874765 193.186 0.458765L192.802 0.202765H197.282C196.93 0.778765 196.898 1.45076 197.186 2.05877L205.378 19.4028L213.442 2.28276C213.762 1.64277 213.698 0.906765 213.282 0.330765L213.186 0.202765ZM229.11 20.2988C229.11 21.1628 229.494 21.9948 230.102 22.5708L230.198 22.6348H226.806V21.0988C225.846 22.0588 224.534 22.6028 223.158 22.5708H222.966C222.358 22.5708 221.718 22.4748 221.11 22.3148C220.598 22.1548 220.118 21.9308 219.702 21.6108C219.19 21.2268 218.806 20.7468 218.518 20.1708C218.134 19.3388 217.942 18.4428 217.942 17.5468V13.0668V13.0348C217.942 12.4588 217.878 11.8508 217.75 11.2428C217.686 10.8588 217.558 10.4748 217.43 10.0908C217.078 9.22676 216.214 8.68277 215.286 8.71476V8.26676C215.894 8.26676 216.502 8.33076 217.078 8.52277C217.558 8.65077 218.038 8.87477 218.454 9.16276C218.934 9.51476 219.35 9.96276 219.638 10.4748C220.054 11.2748 220.278 12.1708 220.246 13.0348H220.278V17.5468C220.278 18.1868 220.31 18.8588 220.438 19.4988C220.502 19.9148 220.598 20.2988 220.758 20.7148C220.886 21.0668 221.142 21.3868 221.43 21.6428C221.814 21.8988 222.262 22.0588 222.71 22.0908C222.806 22.0908 222.902 22.1228 222.966 22.1228H223.158C224.598 22.1228 225.91 21.4828 226.806 20.3948V10.6028C226.806 9.73876 226.454 8.93876 225.814 8.33076L225.718 8.26676H230.198L230.102 8.33076C229.494 8.93876 229.11 9.73876 229.11 10.6028V20.2988ZM243.514 9.48277C243.514 9.51476 243.546 9.57876 243.546 9.61077C243.546 9.80276 243.482 9.99477 243.354 10.1548C243.162 10.3468 242.97 10.5388 242.746 10.6988C242.618 10.8268 242.426 10.8908 242.266 10.9548H242.234C242.17 10.9548 242.106 10.9548 242.042 10.9548C242.01 10.9228 241.978 10.9228 241.946 10.8908C241.658 10.5068 241.21 10.2828 240.73 10.2828C240.122 10.3148 239.514 10.5388 239.034 10.9228C238.458 11.3708 238.042 11.9468 237.754 12.6188C237.754 12.7468 237.754 12.9068 237.754 13.0348H237.786V20.2988C237.786 21.1628 238.138 21.9948 238.778 22.5708L238.842 22.6668H234.362L234.458 22.5708C235.098 21.9948 235.45 21.1628 235.45 20.2988V13.0348C235.45 12.4588 235.386 11.8508 235.258 11.2428C235.194 10.8588 235.066 10.4748 234.938 10.0908C234.586 9.22676 233.722 8.68277 232.794 8.71476V8.26676C233.402 8.26676 234.01 8.33076 234.586 8.52277C235.066 8.65077 235.546 8.87477 235.962 9.16276C236.442 9.51476 236.858 9.96276 237.146 10.4748C237.37 10.8908 237.53 11.3068 237.626 11.7228C237.85 11.2428 238.106 10.7948 238.426 10.3468C238.906 9.64277 239.61 9.09877 240.41 8.81077C241.114 8.55476 241.882 8.58677 242.586 8.84276C242.714 8.87477 242.842 8.93876 242.938 8.97077L243.258 9.16276C243.386 9.22676 243.482 9.35476 243.514 9.48277ZM258.847 18.4748L259.263 18.6028L259.199 18.8268C259.199 18.8588 258.015 22.4748 252.959 22.5708H252.767C252.767 22.5708 252.511 22.5708 252.479 22.5708C252.351 22.5708 252.191 22.5388 252.063 22.5388C251.391 22.4748 250.719 22.3148 250.047 22.0588C249.375 21.8348 248.735 21.4828 248.159 21.0668C247.455 20.5548 246.879 19.9468 246.463 19.2108C245.119 16.8748 245.119 14.0268 246.463 11.6908C246.879 10.9868 247.455 10.3468 248.159 9.83477C248.735 9.41877 249.375 9.06676 250.047 8.84276C250.719 8.58677 251.391 8.42676 252.063 8.36277C252.287 8.33076 252.511 8.33076 252.735 8.33076H252.959C253.823 8.36277 254.687 8.55476 255.519 8.87477C257.119 9.48277 258.367 10.7948 258.911 12.4588C258.975 12.5868 259.007 12.7148 259.039 12.8428C259.039 12.8748 259.039 12.8748 259.039 12.9068H248.159C247.903 13.7388 247.775 14.6028 247.775 15.4668C247.775 16.4268 247.935 17.3868 248.255 18.3148C248.479 18.9548 248.767 19.5308 249.151 20.0748C249.471 20.6188 249.887 21.0668 250.399 21.3868C250.975 21.8028 251.647 22.0268 252.319 22.0908C252.447 22.0908 252.575 22.1228 252.735 22.1228H252.767C257.631 22.0908 258.719 18.8268 258.751 18.6988L258.847 18.4748ZM249.151 10.8268C248.799 11.3388 248.543 11.8828 248.319 12.4588H256.863C256.799 12.0108 256.671 11.6268 256.479 11.2428C256.159 10.6028 255.679 10.0268 255.103 9.61077C254.431 9.09877 253.599 8.81077 252.735 8.77876H252.703L252.671 8.81077C251.839 8.81077 251.071 9.06676 250.367 9.51476C249.887 9.86677 249.471 10.3148 249.151 10.8268ZM267.938 8.12305C270.673 8.12305 272.606 9.7832 272.606 12.2051C272.606 14.627 270.673 16.2871 267.938 16.2871C265.204 16.2871 263.231 14.627 263.251 12.2051C263.231 9.7832 265.204 8.12305 267.938 8.12305ZM267.938 9.4707C266.083 9.4707 264.735 10.584 264.755 12.2051C264.735 13.8262 266.083 14.9395 267.938 14.9395C269.774 14.9395 271.102 13.8262 271.102 12.2051C271.102 10.584 269.774 9.4707 267.938 9.4707ZM276.493 6.85352V24.2559H274.97V6.85352H276.493ZM262.352 19.1191C265.555 19.1191 269.97 19.0996 273.817 18.5332L273.934 19.666C269.97 20.4082 265.692 20.4277 262.567 20.4277L262.352 19.1191ZM292.731 11.5215C292.712 14.6855 294.88 17.8887 297.438 19.041L296.501 20.252C294.528 19.2852 292.819 17.2441 291.989 14.7637C291.179 17.3906 289.47 19.5781 287.438 20.6035L286.462 19.3145C289.04 18.123 291.188 14.8223 291.208 11.5215V8.35742H292.731V11.5215ZM300.876 6.85352V24.2559H299.333V6.85352H300.876ZM310.723 10.0762C310.723 12.3809 312.423 14.4902 315.001 15.3887L314.22 16.5801C312.237 15.877 310.723 14.4512 309.981 12.6543C309.239 14.627 307.647 16.1602 305.606 16.9121L304.786 15.7207C307.384 14.8027 309.2 12.5566 309.22 10.0762V9.33398H305.255V8.08398H314.63V9.33398H310.723V10.0762ZM318.419 6.85352V11.4434H321.036V12.752H318.419V17.3223H316.895V6.85352H318.419ZM318.419 18.2402V24.2168H316.895V19.4902H307.052V18.2402H318.419ZM337.524 6.85352V17.0293H335.981V12.498H332.466V11.209H335.981V6.85352H337.524ZM337.524 17.8887V23.9824H326.177V17.8887H337.524ZM327.7 19.1191V22.7324H336.02V19.1191H327.7ZM329.165 9.93945C329.165 12.1855 330.903 14.3535 333.442 15.252L332.641 16.4629C330.679 15.7598 329.165 14.2949 328.423 12.498C327.671 14.5 326.069 16.1016 324.009 16.8535L323.208 15.6426C325.766 14.7246 327.622 12.4199 327.622 9.93945V9.25586H323.696V7.98633H333.052V9.25586H329.165V9.93945ZM355.751 6.85352V16.1699H354.227V6.85352H355.751ZM346.024 17.0488V19.1582H354.227V17.0488H355.751V23.9824H344.501V17.0488H346.024ZM346.024 22.7324H354.227V20.3887H346.024V22.7324ZM346.376 7.71289C349.013 7.69336 350.927 9.31445 350.927 11.6973C350.927 14.0605 349.013 15.6816 346.376 15.6816C343.739 15.6816 341.825 14.0605 341.825 11.6973C341.825 9.31445 343.739 7.69336 346.376 7.71289ZM346.376 9.00195C344.598 8.98242 343.309 10.1152 343.329 11.6973C343.309 13.2793 344.598 14.4121 346.376 14.4121C348.134 14.4121 349.423 13.2793 349.423 11.6973C349.423 10.1152 348.134 8.98242 346.376 9.00195ZM374.016 6.85352V24.2168H372.493V6.85352H374.016ZM362.337 8.57227V18.416C364.983 18.4062 367.727 18.1914 370.638 17.5762L370.852 18.8848C367.766 19.5293 365.013 19.7441 362.239 19.7441H360.833V8.57227H362.337ZM391.423 6.85352V13.7285H394.333V15.0176H391.423V24.2559H389.899V6.85352H391.423ZM386.852 8.55273V9.82227H380.27V18.6113C383.415 18.6113 385.641 18.4648 388.22 17.9863L388.415 19.3145C385.7 19.8027 383.415 19.9004 380.114 19.9004H378.747V8.55273H386.852ZM398.106 22.752C397.423 22.752 396.837 22.1855 396.856 21.4824C396.837 20.7988 397.423 20.2324 398.106 20.2324C398.79 20.2324 399.356 20.7988 399.356 21.4824C399.356 22.1855 398.79 22.752 398.106 22.752ZM20.4624 39.2028H23.4704L22.7664 39.6188C22.0944 40.0348 21.5504 40.6428 21.1984 41.3468L11.6304 61.6348L1.93438 41.1228C1.61438 40.4508 1.10238 39.8748 0.462375 39.4588L0.0783754 39.2028H4.55838C4.20638 39.7788 4.17438 40.4508 4.46238 41.0588L12.6544 58.4028L20.7184 41.2828C21.0384 40.6428 20.9744 39.9068 20.5584 39.3308L20.4624 39.2028ZM36.3864 59.2988C36.3864 60.1628 36.7704 60.9948 37.3784 61.5708L37.4744 61.6348H34.0824V60.0988C33.1224 61.0588 31.8104 61.6028 30.4344 61.5708H30.2424C29.6344 61.5708 28.9944 61.4748 28.3864 61.3148C27.8744 61.1548 27.3944 60.9308 26.9784 60.6108C26.4664 60.2268 26.0824 59.7468 25.7944 59.1708C25.4104 58.3388 25.2184 57.4428 25.2184 56.5468V52.0668V52.0348C25.2184 51.4588 25.1544 50.8508 25.0264 50.2428C24.9624 49.8588 24.8344 49.4748 24.7064 49.0908C24.3544 48.2268 23.4904 47.6828 22.5624 47.7148V47.2668C23.1704 47.2668 23.7784 47.3308 24.3544 47.5228C24.8344 47.6508 25.3144 47.8748 25.7304 48.1628C26.2104 48.5148 26.6264 48.9628 26.9144 49.4748C27.3304 50.2748 27.5544 51.1708 27.5224 52.0348H27.5544V56.5468C27.5544 57.1868 27.5864 57.8588 27.7144 58.4988C27.7784 58.9148 27.8744 59.2988 28.0344 59.7148C28.1624 60.0668 28.4184 60.3868 28.7064 60.6428C29.0904 60.8988 29.5384 61.0588 29.9864 61.0908C30.0824 61.0908 30.1784 61.1228 30.2424 61.1228H30.4344C31.8744 61.1228 33.1864 60.4828 34.0824 59.3948V49.6028C34.0824 48.7388 33.7304 47.9388 33.0904 47.3308L32.9944 47.2668H37.4744L37.3784 47.3308C36.7704 47.9388 36.3864 48.7388 36.3864 49.6028V59.2988ZM50.7901 48.4828C50.7901 48.5148 50.8221 48.5788 50.8221 48.6108C50.8221 48.8028 50.7581 48.9948 50.6301 49.1548C50.4381 49.3468 50.2461 49.5388 50.0221 49.6988C49.8941 49.8268 49.7021 49.8908 49.5421 49.9548H49.5101C49.4461 49.9548 49.3821 49.9548 49.3181 49.9548C49.2861 49.9228 49.2541 49.9228 49.2221 49.8908C48.9341 49.5068 48.4861 49.2828 48.0061 49.2828C47.3981 49.3148 46.7901 49.5388 46.3101 49.9228C45.7341 50.3708 45.3181 50.9468 45.0301 51.6188C45.0301 51.7468 45.0301 51.9068 45.0301 52.0348H45.0621V59.2988C45.0621 60.1628 45.4141 60.9948 46.0541 61.5708L46.1181 61.6668H41.6381L41.7341 61.5708C42.3741 60.9948 42.7261 60.1628 42.7261 59.2988V52.0348C42.7261 51.4588 42.6621 50.8508 42.5341 50.2428C42.4701 49.8588 42.3421 49.4748 42.2141 49.0908C41.8621 48.2268 40.9981 47.6828 40.0701 47.7148V47.2668C40.6781 47.2668 41.2861 47.3308 41.8621 47.5228C42.3421 47.6508 42.8221 47.8748 43.2381 48.1628C43.7181 48.5148 44.1341 48.9628 44.4221 49.4748C44.6461 49.8908 44.8061 50.3068 44.9021 50.7228C45.1261 50.2428 45.3821 49.7948 45.7021 49.3468C46.1821 48.6428 46.8861 48.0988 47.6861 47.8108C48.3901 47.5548 49.1581 47.5868 49.8621 47.8428C49.9901 47.8748 50.1181 47.9388 50.2141 47.9708L50.5341 48.1628C50.6621 48.2268 50.7581 48.3548 50.7901 48.4828ZM66.1236 57.4748L66.5396 57.6028L66.4756 57.8268C66.4756 57.8588 65.2916 61.4748 60.2356 61.5708H60.0436C60.0436 61.5708 59.7876 61.5708 59.7556 61.5708C59.6276 61.5708 59.4676 61.5388 59.3396 61.5388C58.6676 61.4748 57.9956 61.3148 57.3236 61.0588C56.6516 60.8348 56.0116 60.4828 55.4356 60.0668C54.7316 59.5548 54.1556 58.9468 53.7396 58.2108C52.3956 55.8748 52.3956 53.0268 53.7396 50.6908C54.1556 49.9868 54.7316 49.3468 55.4356 48.8348C56.0116 48.4188 56.6516 48.0668 57.3236 47.8428C57.9956 47.5868 58.6676 47.4268 59.3396 47.3628C59.5636 47.3308 59.7876 47.3308 60.0116 47.3308H60.2356C61.0996 47.3628 61.9636 47.5548 62.7956 47.8748C64.3956 48.4828 65.6436 49.7948 66.1876 51.4588C66.2516 51.5868 66.2836 51.7148 66.3156 51.8428C66.3156 51.8748 66.3156 51.8748 66.3156 51.9068H55.4356C55.1796 52.7388 55.0516 53.6028 55.0516 54.4668C55.0516 55.4268 55.2116 56.3868 55.5316 57.3148C55.7556 57.9548 56.0436 58.5308 56.4276 59.0748C56.7476 59.6188 57.1636 60.0668 57.6756 60.3868C58.2516 60.8028 58.9236 61.0268 59.5956 61.0908C59.7236 61.0908 59.8516 61.1228 60.0116 61.1228H60.0436C64.9076 61.0908 65.9956 57.8268 66.0276 57.6988L66.1236 57.4748ZM56.4276 49.8268C56.0756 50.3388 55.8196 50.8828 55.5956 51.4588H64.1396C64.0756 51.0108 63.9476 50.6268 63.7556 50.2428C63.4356 49.6028 62.9556 49.0268 62.3796 48.6108C61.7076 48.0988 60.8756 47.8108 60.0116 47.7788H59.9796L59.9476 47.8108C59.1156 47.8108 58.3476 48.0668 57.6436 48.5148C57.1636 48.8668 56.7476 49.3148 56.4276 49.8268ZM83.5742 51.127V52.3574H71.6797V46.498H73.2031V51.127H83.5742ZM85.4102 54.7207V55.9707H69.5117V54.7207H85.4102ZM83.6719 61.5176V62.7871H71.582V57.748H73.1055V61.5176H83.6719ZM101.746 46.9863C105.438 47.0059 108.094 48.8027 108.094 51.5371C108.094 54.125 105.789 55.8438 102.488 56.0488V59.7012H109.734V60.9902H93.8359V59.7012H100.984V56.0488C97.6934 55.834 95.3984 54.1152 95.3984 51.5371C95.3984 48.8027 98.0547 47.0059 101.746 46.9863ZM101.746 48.2559C98.9336 48.2559 96.8828 49.584 96.8828 51.5371C96.8828 53.5488 98.9336 54.8379 101.746 54.8574C104.559 54.8379 106.609 53.5488 106.609 51.5371C106.609 49.584 104.559 48.2559 101.746 48.2559ZM128.02 59.623V60.9121H112.121V59.623H128.02ZM115.539 47.1035V50.3457H124.562V47.1035H126.066V56.1465H113.996V47.1035H115.539ZM115.539 54.916H124.562V51.5762H115.539V54.916ZM145.25 45.8535V63.2168H143.785V45.8535H145.25ZM141.734 46.2832V62.3184H140.289V53.373H137.359V52.123H140.289V46.2832H141.734ZM135.504 50.8145C135.504 53.8223 136.852 56.8105 139.254 58.1973L138.316 59.3301C136.607 58.3047 135.396 56.4297 134.801 54.2129C134.166 56.6055 132.906 58.6465 131.168 59.7402L130.191 58.5879C132.613 57.1426 134.02 53.9785 134.02 50.8145V49.1738H130.68V47.9043H138.688V49.1738H135.504V50.8145ZM164.57 53.9199V55.1309H148.672V53.9199H164.57ZM162.578 56.5176V60.209H152.148V61.8691H163.145V62.9824H150.605V59.1543H161.055V57.6699H150.586V56.5176H162.578ZM162.52 46.3809V49.9746H152.266V51.498H162.832V52.6113H150.742V48.9199H160.977V47.4941H150.684V46.3809H162.52ZM188.816 55.0723V56.3223H172.977V55.0723H180.125V53.3535H175.086V46.3613H186.844V47.6113H176.629V49.2324H186.375V50.4043H176.629V52.123H186.941V53.3535H181.648V55.0723H188.816ZM180.906 57.6309C184.715 57.6113 186.863 58.5879 186.883 60.4043C186.863 62.2207 184.715 63.1777 180.906 63.1777C177.059 63.1777 174.91 62.2207 174.91 60.4043C174.91 58.5879 177.059 57.6113 180.906 57.6309ZM180.906 58.7832C178.035 58.7832 176.434 59.3691 176.453 60.4043C176.434 61.459 178.035 62.0059 180.906 61.9863C183.738 62.0059 185.34 61.459 185.34 60.4043C185.34 59.3691 183.738 58.7832 180.906 58.7832ZM199.953 48.8613V50.1113H191.242V48.8613H194.855V46.3809H196.379V48.8613H199.953ZM195.598 51.2832C197.785 51.2832 199.348 52.9238 199.367 55.2285C199.348 57.5527 197.785 59.2129 195.598 59.2129C193.43 59.2129 191.867 57.5527 191.867 55.2285C191.867 52.9238 193.43 51.2832 195.598 51.2832ZM195.598 52.5723C194.23 52.5918 193.234 53.7051 193.234 55.2285C193.234 56.7715 194.23 57.8848 195.598 57.8652C196.984 57.8848 198 56.7715 198 55.2285C198 53.7051 196.984 52.5918 195.598 52.5723ZM206.066 45.8535V63.2168H204.602V54.4473H202.297V62.3574H200.852V46.2832H202.297V53.1777H204.602V45.8535H206.066ZM212.418 60.3262L210.895 65.6387H209.449L210.523 60.3262H212.418ZM236.098 45.873V59.1152H234.555V55.3848H231.547V54.1348H234.555V51.7715H231.547V50.502H234.555V45.873H236.098ZM231.547 48.002V49.252H221.723V48.002H225.941V45.8535H227.465V48.002H231.547ZM226.684 50.209C229.008 50.209 230.648 51.5371 230.648 53.5293C230.648 55.502 229.008 56.8496 226.684 56.8496C224.359 56.8496 222.738 55.502 222.758 53.5293C222.738 51.5371 224.359 50.209 226.684 50.209ZM226.684 51.4199C225.199 51.4395 224.184 52.2793 224.184 53.5293C224.184 54.7793 225.199 55.6191 226.684 55.6191C228.168 55.6191 229.184 54.7793 229.203 53.5293C229.184 52.2793 228.168 51.4395 226.684 51.4199ZM236.488 61.5566V62.8457H224.867V57.9434H226.41V61.5566H236.488ZM254.305 45.8535V54.8574H252.801V45.8535H254.305ZM254.324 55.7363V59.8965H244.578V61.7715H254.949V63.0215H243.074V58.7051H252.801V56.9668H243.035V55.7363H254.324ZM246.141 47.6895C246.121 50.1504 247.996 52.3184 250.574 53.1582L249.812 54.3496C247.781 53.6562 246.16 52.2012 245.379 50.3262C244.598 52.3477 242.967 53.9395 240.906 54.6816L240.105 53.4707C242.723 52.5527 244.578 50.248 244.578 47.6895V46.3613H246.141V47.6895ZM278.707 45.8535V63.2559H277.164V52.8652H271.754V51.5957H277.164V45.8535H278.707ZM266.793 47.8066V57.748C269.439 57.7188 271.803 57.582 274.41 57.0449L274.605 58.3145C271.832 58.8809 269.391 59.0371 266.578 59.0371H265.25V47.8066H266.793ZM291.191 47.5918V52.2207H295.449V45.8535H296.973V63.2559H295.449V53.4902H291.191V58.8223H283.281V47.5918H291.191ZM284.805 48.8027V57.5918H289.707V48.8027H284.805ZM306.547 47.123C309.281 47.123 311.215 48.7832 311.215 51.2051C311.215 53.627 309.281 55.2871 306.547 55.2871C303.812 55.2871 301.84 53.627 301.859 51.2051C301.84 48.7832 303.812 47.123 306.547 47.123ZM306.547 48.4707C304.691 48.4707 303.344 49.584 303.363 51.2051C303.344 52.8262 304.691 53.9395 306.547 53.9395C308.383 53.9395 309.711 52.8262 309.711 51.2051C309.711 49.584 308.383 48.4707 306.547 48.4707ZM315.102 45.8535V63.2559H313.578V45.8535H315.102ZM300.961 58.1191C304.164 58.1191 308.578 58.0996 312.426 57.5332L312.543 58.666C308.578 59.4082 304.301 59.4277 301.176 59.4277L300.961 58.1191ZM338.742 45.8535V50.1113H341.359V51.3809H338.742V55.7168H337.219V45.8535H338.742ZM333.996 46.9863C333.977 51.3613 330.91 54.4863 325.773 55.8926L325.148 54.6621C329.426 53.5098 332.033 51.1953 332.355 48.2559H325.93V46.9863H333.996ZM338.742 56.5176V62.9824H327.746V56.5176H338.742ZM329.27 57.7871V61.7324H337.219V57.7871H329.27ZM357.027 45.8535V50.2676H359.645V51.5762H357.027V56.0488H355.504V45.8535H357.027ZM352.262 46.9668C352.262 51.3613 349.195 54.4863 344.059 55.8535L343.434 54.6621C347.691 53.5098 350.318 51.1855 350.641 48.2363H344.215V46.9668H352.262ZM357.027 56.8496V63.2168H355.504V58.0996H345.66V56.8496H357.027ZM369.648 46.166C373.516 46.166 375.781 47.2207 375.781 49.1543C375.781 51.127 373.516 52.1816 369.648 52.2012C365.781 52.1816 363.496 51.127 363.496 49.1543C363.496 47.2207 365.781 46.166 369.648 46.166ZM369.648 47.3184C366.758 47.3184 365.078 48.0215 365.098 49.1543C365.078 50.3652 366.758 51.0293 369.648 51.0293C372.52 51.0293 374.219 50.3652 374.219 49.1543C374.219 48.0215 372.52 47.3184 369.648 47.3184ZM377.559 53.373V54.623H361.738V53.373H377.559ZM375.527 56.127V60.0137H365.215V61.8105H376.055V63.0215H363.691V58.8809H374.023V57.2988H363.652V56.127H375.527ZM400.438 45.873V58.6074H398.895V51.9473H395.32V50.6777H398.895V45.873H400.438ZM400.926 61.5566V62.8457H389.285V57.4551H390.828V61.5566H400.926ZM392.078 49.4473C392.078 51.6934 393.816 53.8809 396.355 54.7402L395.555 55.9707C393.592 55.2676 392.078 53.8027 391.336 52.0059C390.584 54.0078 388.982 55.6094 386.922 56.3809L386.121 55.1309C388.68 54.2324 390.535 51.9473 390.535 49.4473V48.5488H386.609V47.2793H395.965V48.5488H392.078V49.4473ZM417.902 45.8535V50.3066H420.52V51.6152H417.902V55.9512H416.379V45.8535H417.902ZM408.449 56.7129V58.5684H416.379V56.7129H417.902V62.9824H406.926V56.7129H408.449ZM408.449 61.752H416.379V59.7793H408.449V61.752ZM414.719 47.6504V48.9199H404.367V47.6504H408.781V45.6973H410.305V47.6504H414.719ZM409.543 49.7207C412.043 49.7207 413.703 50.9121 413.723 52.7676C413.703 54.623 412.043 55.8145 409.543 55.8145C407.023 55.8145 405.344 54.623 405.363 52.7676C405.344 50.9121 407.023 49.7207 409.543 49.7207ZM409.543 50.9121C407.902 50.8926 406.809 51.6543 406.828 52.7676C406.809 53.9004 407.902 54.6426 409.543 54.6426C411.164 54.6426 412.258 53.9004 412.277 52.7676C412.258 51.6543 411.164 50.8926 409.543 50.9121ZM436.93 45.8535V63.2168H435.406V45.8535H436.93ZM425.25 47.5723V57.416C427.896 57.4062 430.641 57.1914 433.551 56.5762L433.766 57.8848C430.68 58.5293 427.926 58.7441 425.152 58.7441H423.746V47.5723H425.25ZM454.336 45.8535V52.7285H457.246V54.0176H454.336V63.2559H452.812V45.8535H454.336ZM449.766 47.5527V48.8223H443.184V57.6113C446.328 57.6113 448.555 57.4648 451.133 56.9863L451.328 58.3145C448.613 58.8027 446.328 58.9004 443.027 58.9004H441.66V47.5527H449.766ZM461.02 61.752C460.336 61.752 459.75 61.1855 459.77 60.4824C459.75 59.7988 460.336 59.2324 461.02 59.2324C461.703 59.2324 462.27 59.7988 462.27 60.4824C462.27 61.1855 461.703 61.752 461.02 61.752ZM37.7793 86.709V88.4473C37.7793 90.6348 37.7793 93.1152 37.1348 96.8848L35.5723 96.7285C36.2754 93.1738 36.2754 90.5762 36.2754 88.4473V87.9785H25.8066V86.709H37.7793ZM39.9082 98.3887V99.6582H24.0879V98.3887H39.9082ZM64.2129 93.8574V95.127H48.373V93.8574H64.2129ZM62.3379 91.0645V92.2949H50.4824V85.3223H62.2402V86.5527H52.0254V88.1543H61.7715V89.3457H52.0254V91.0645H62.3379ZM62.2793 96.709V101.982H50.3262V96.709H62.2793ZM51.8496 97.9395V100.732H60.7754V97.9395H51.8496ZM78.5176 89.5215C78.5176 92.5879 80.5488 95.7324 83.0098 96.9434L82.0723 98.1738C80.1582 97.168 78.5566 95.1172 77.7949 92.7051C77.0137 95.2734 75.373 97.4609 73.4199 98.5059L72.4434 97.2754C74.9824 96.0254 76.9941 92.6855 77.0137 89.5215V86.3574H78.5176V89.5215ZM86.1348 84.8535V91.9043H89.0449V93.2324H86.1348V102.217H84.6113V84.8535H86.1348ZM105.299 84.8535V102.256H103.756V84.8535H105.299ZM96.0605 86.2012C98.6387 86.2207 100.494 88.5645 100.494 92.2559C100.494 95.9473 98.6387 98.291 96.0605 98.291C93.4629 98.291 91.627 95.9473 91.627 92.2559C91.627 88.5645 93.4629 86.2207 96.0605 86.2012ZM96.0605 87.5684C94.3223 87.5879 93.1113 89.4238 93.1113 92.2559C93.1113 95.0879 94.3223 96.9238 96.0605 96.9238C97.7988 96.9238 99.0098 95.0879 99.0098 92.2559C99.0098 89.4238 97.7988 87.5879 96.0605 87.5684ZM125.166 98.7793V100.068H109.268V98.7793H116.416V95.498H111.26V90.1465H121.65V87.4121H111.221V86.1426H123.154V91.3965H112.783V94.2285H123.564V95.498H117.92V98.7793H125.166ZM147.967 84.8535V94.1504H146.424V91.5332H143.514V90.2832H146.424V88.6426H143.514V87.4121H146.424V84.8535H147.967ZM143.318 85.9863V87.2363H141.541V92.0996C142.352 92.0508 143.143 91.9824 143.885 91.9043L143.963 93.0371C140.623 93.5449 136.697 93.584 133.787 93.584L133.611 92.2754L135.857 92.2559V87.2363H134.1V85.9863H143.318ZM147.967 94.9707V98.9551H138.26V100.791H148.611V102.021H136.756V97.7832H146.443V96.1816H136.717V94.9707H147.967ZM137.342 92.2363C138.23 92.2363 139.148 92.207 140.057 92.1777V87.2363H137.342V92.2363ZM166.232 84.8535V102.256H164.709V95.2637H161.135V93.9941H164.709V91.6504H161.135V90.3613H164.709V84.8535H166.232ZM157.854 90.5176C157.854 93.3887 159.807 96.2207 162.385 97.373L161.506 98.5645C159.533 97.6562 157.893 95.752 157.131 93.4473C156.369 95.8789 154.748 97.9004 152.775 98.8574L151.896 97.666C154.436 96.4746 156.35 93.5059 156.35 90.5176V89.1309H152.365V87.8809H156.35V85.1855H157.873V87.8809H161.799V89.1309H157.854V90.5176ZM176.354 90.1855C176.354 93.1348 178.502 96.123 181.061 97.2363L180.201 98.4473C178.17 97.5195 176.412 95.5176 175.611 93.1152C174.791 95.6641 173.043 97.8809 171.061 98.877L170.143 97.666C172.623 96.4746 174.791 93.1934 174.811 90.1855V87.9199H170.709V86.6504H180.494V87.9199H176.354V90.1855ZM184.459 84.8535V102.217H182.916V84.8535H184.459ZM202.471 90.127V91.3574H190.576V85.498H192.1V90.127H202.471ZM204.307 93.7207V94.9707H188.408V93.7207H204.307ZM202.568 100.518V101.787H190.479V96.748H192.002V100.518H202.568ZM227.361 92.9199V94.1699H221.072V86.5137H227.146V87.7637H222.615V92.9199H227.361ZM228.631 98.7207V99.9902H212.732V98.7207H219.861V95.0488H221.365V98.7207H228.631ZM220.018 86.5137V87.7832H215.643V92.9004C217.107 92.8906 218.562 92.7734 220.174 92.4121L220.311 93.7012C218.416 94.1309 216.814 94.1895 215.076 94.1699H214.119V86.5137H220.018ZM250.475 84.8535V91.7285H253.385V93.0176H250.475V102.256H248.951V84.8535H250.475ZM245.904 86.5527V87.8223H239.322V96.6113C242.467 96.6113 244.693 96.4648 247.271 95.9863L247.467 97.3145C244.752 97.8027 242.467 97.9004 239.166 97.9004H237.799V86.5527H245.904ZM271.201 94.4824V95.752H255.303V94.4824H271.201ZM269.521 100.557V101.846H257.412V97.1191H258.955V100.557H269.521ZM269.15 85.459V89.7363H258.896V91.6699H269.521V92.8809H257.373V88.584H267.607V86.6895H257.314V85.459H269.15ZM284.783 89.7949C284.783 92.5488 286.131 95.5371 288.436 96.9043L287.557 98.0957C285.887 97.0801 284.686 95.2246 284.08 93.1152C283.436 95.4199 282.146 97.4023 280.408 98.4668L279.432 97.3145C281.834 95.9082 283.299 92.8223 283.299 89.8535V86.4941H284.783V89.7949ZM294.51 84.8535V102.217H293.025V84.8535H294.51ZM290.916 85.2246V101.338H289.471V92.3926H286.521V91.084H289.471V85.2246H290.916ZM312.775 84.8535V102.217H311.311V84.8535H312.775ZM309.26 85.3223V101.338H307.795V95.3223H304.572V94.0527H307.795V90.9668H304.865C304.016 93.9062 302.111 96.5039 298.83 98.4668L297.893 97.3535C301.672 95.1172 303.566 91.9824 303.869 88.3496H298.674V87.0801H305.393C305.393 87.9688 305.314 88.8477 305.158 89.6973H307.795V85.3223H309.26ZM332.096 98.7793V100.068H316.197V98.7793H323.346V95.498H318.189V90.1465H328.58V87.4121H318.15V86.1426H330.084V91.3965H319.713V94.2285H330.494V95.498H324.85V98.7793H332.096ZM356.4 98.7402V100.029H340.502V98.7402H347.67V94.7559H349.174V98.7402H356.4ZM354.877 87.627V88.8965H349.213C349.223 91.6211 352.113 93.623 355.443 94.1699L354.857 95.3809C352.074 94.8828 349.525 93.4863 348.432 91.3184C347.328 93.4863 344.779 94.8828 341.986 95.3809L341.381 94.1699C344.73 93.623 347.641 91.6211 347.65 88.8965H341.986V87.627H347.67V85.2246H349.174V87.627H354.877ZM373.631 84.8535V102.217H372.166V93.1152H369.607V101.318H368.201V85.2441H369.607V91.8457H372.166V84.8535H373.631ZM365.936 86.9824V88.252H360.955V96.6113C363.348 96.6016 365.008 96.5137 366.932 96.123L367.068 97.4121C364.979 97.8418 363.201 97.9199 360.545 97.9199H359.432V86.9824H365.936ZM390.646 84.8535V89.3066H393.264V90.6152H390.646V94.9512H389.123V84.8535H390.646ZM381.193 95.7129V97.5684H389.123V95.7129H390.646V101.982H379.67V95.7129H381.193ZM381.193 100.752H389.123V98.7793H381.193V100.752ZM387.463 86.6504V87.9199H377.111V86.6504H381.525V84.6973H383.049V86.6504H387.463ZM382.287 88.7207C384.787 88.7207 386.447 89.9121 386.467 91.7676C386.447 93.623 384.787 94.8145 382.287 94.8145C379.768 94.8145 378.088 93.623 378.107 91.7676C378.088 89.9121 379.768 88.7207 382.287 88.7207ZM382.287 89.9121C380.646 89.8926 379.553 90.6543 379.572 91.7676C379.553 92.9004 380.646 93.6426 382.287 93.6426C383.908 93.6426 385.002 92.9004 385.021 91.7676C385.002 90.6543 383.908 89.8926 382.287 89.9121ZM409.674 84.8535V102.217H408.15V84.8535H409.674ZM397.994 86.5723V96.416C400.641 96.4062 403.385 96.1914 406.295 95.5762L406.51 96.8848C403.424 97.5293 400.67 97.7441 397.896 97.7441H396.49V86.5723H397.994ZM427.08 84.8535V91.7285H429.99V93.0176H427.08V102.256H425.557V84.8535H427.08ZM422.51 86.5527V87.8223H415.928V96.6113C419.072 96.6113 421.299 96.4648 423.877 95.9863L424.072 97.3145C421.357 97.8027 419.072 97.9004 415.771 97.9004H414.404V86.5527H422.51ZM433.764 100.752C433.08 100.752 432.494 100.186 432.514 99.4824C432.494 98.7988 433.08 98.2324 433.764 98.2324C434.447 98.2324 435.014 98.7988 435.014 99.4824C435.014 100.186 434.447 100.752 433.764 100.752Z" fill="#1A1A1A"/>
</svg>
