<svg width="470" height="104" viewBox="0 0 470 104" fill="none" xmlns="http://www.w3.org/2000/svg">
<path d="M66.59 7.85352V12.3848H69.1877V13.6738H66.59V18.2246H65.0471V7.85352H66.59ZM61.0041 18.5566C64.5393 18.5566 66.7268 19.7871 66.7268 21.8574C66.7268 23.9668 64.5393 25.1777 61.0041 25.1777C57.4494 25.1777 55.2424 23.9668 55.2424 21.8574C55.2424 19.7871 57.4494 18.5566 61.0041 18.5566ZM61.0041 19.8262C58.3869 19.8066 56.7463 20.5879 56.7463 21.8574C56.7463 23.1465 58.3869 23.9473 61.0041 23.9473C63.6018 23.9473 65.2424 23.1465 65.2424 21.8574C65.2424 20.5879 63.6018 19.8066 61.0041 19.8262ZM61.5119 9.18164V10.4512H55.301V15.5488C58.8166 15.5293 60.8479 15.4219 63.1721 14.9434L63.3283 16.2129C60.9064 16.7012 58.8166 16.7988 55.1447 16.7988H53.7971V9.18164H61.5119ZM85.6174 7.87305V20.6074H84.0939V7.87305H85.6174ZM86.1643 23.5566V24.8457H74.4064V19.4355H75.9299V23.5566H86.1643ZM77.4338 10.5879C77.4143 13.2246 79.2307 15.6074 81.8088 16.5449L81.008 17.7754C78.9963 17.0039 77.4338 15.4414 76.6721 13.4395C75.9006 15.5684 74.3186 17.2773 72.2971 18.0879L71.4572 16.8965C74.0939 15.8809 75.8713 13.3223 75.8713 10.5879V8.84961H77.4338V10.5879ZM95.2502 9.12305C97.9846 9.12305 99.9182 10.7832 99.9182 13.2051C99.9182 15.627 97.9846 17.2871 95.2502 17.2871C92.5158 17.2871 90.5432 15.627 90.5627 13.2051C90.5432 10.7832 92.5158 9.12305 95.2502 9.12305ZM95.2502 10.4707C93.3947 10.4707 92.0471 11.584 92.0666 13.2051C92.0471 14.8262 93.3947 15.9395 95.2502 15.9395C97.0861 15.9395 98.4143 14.8262 98.4143 13.2051C98.4143 11.584 97.0861 10.4707 95.2502 10.4707ZM103.805 7.85352V25.2559H102.281V7.85352H103.805ZM89.6643 20.1191C92.8674 20.1191 97.2814 20.0996 101.129 19.5332L101.246 20.666C97.2814 21.4082 93.0041 21.4277 89.8791 21.4277L89.6643 20.1191ZM128.188 7.85352V25.2559H126.645V7.85352H128.188ZM118.949 9.20117C121.528 9.2207 123.383 11.5645 123.383 15.2559C123.383 18.9473 121.528 21.291 118.949 21.291C116.352 21.291 114.516 18.9473 114.516 15.2559C114.516 11.5645 116.352 9.2207 118.949 9.20117ZM118.949 10.5684C117.211 10.5879 116 12.4238 116 15.2559C116 18.0879 117.211 19.9238 118.949 19.9238C120.688 19.9238 121.899 18.0879 121.899 15.2559C121.899 12.4238 120.688 10.5879 118.949 10.5684ZM136.805 9.20117C139.363 9.2207 141.18 11.5645 141.199 15.2559C141.18 18.9473 139.363 21.291 136.805 21.291C134.227 21.291 132.43 18.9473 132.43 15.2559C132.43 11.5645 134.227 9.2207 136.805 9.20117ZM136.805 10.5684C135.086 10.5879 133.875 12.4238 133.875 15.2559C133.875 18.0879 135.086 19.9238 136.805 19.9238C138.543 19.9238 139.715 18.0879 139.715 15.2559C139.715 12.4238 138.543 10.5879 136.805 10.5684ZM148.406 12.2285V13.5371H145.594V17.4043H148.406V18.6934H145.594V25.2168H144.071V7.85352H145.594V12.2285H148.406ZM164.797 7.85352V25.2168H163.254V7.85352H164.797ZM159.66 9.74805C159.641 14.748 157.317 19.1621 151.496 21.9551L150.656 20.7051C155.354 18.4785 157.746 15.1484 158.098 10.998H151.457V9.74805H159.66ZM182.77 13.127V14.3574H170.875V8.49805H172.399V13.127H182.77ZM184.606 16.7207V17.9707H168.707V16.7207H184.606ZM182.867 23.5176V24.7871H170.778V19.748H172.301V23.5176H182.867ZM196.101 0.362038L203.01 19.9529H203.283L210.192 0.362038H213.147L204.601 23.6348H201.692L193.147 0.362038H196.101ZM229.008 16.4984V6.18022H231.69V23.6348H229.008V20.6802H228.826C228.008 22.4529 226.281 23.862 223.644 23.862C220.372 23.862 218.008 21.7257 218.008 17.2711V6.18022H220.69V17.0893C220.69 19.6348 222.281 21.2711 224.508 21.2711C226.508 21.2711 229.008 19.7711 229.008 16.4984ZM238.202 23.6348V6.18022H240.793V8.81658H240.974C241.611 7.08931 243.429 5.90749 245.52 5.90749C245.918 5.90749 246.622 5.93022 246.929 5.95295V8.68022C246.747 8.63477 246.008 8.4984 245.293 8.4984C242.747 8.4984 240.883 10.2257 240.883 12.5893V23.6348H238.202ZM258.495 23.9984C253.449 23.9984 250.358 20.4075 250.358 15.0439C250.358 9.68022 253.495 5.95295 258.222 5.95295C261.858 5.95295 265.722 8.18022 265.722 14.6802V15.8166H253.052C253.177 19.5552 255.347 21.5893 258.495 21.5893C260.597 21.5893 262.177 20.6802 262.858 18.862L265.449 19.5893C264.631 22.2257 262.04 23.9984 258.495 23.9984ZM253.052 13.4984H262.995C262.995 10.5439 261.131 8.36204 258.222 8.36204C255.154 8.36204 253.233 10.7825 253.052 13.4984ZM275.334 9.12305C278.068 9.12305 280.002 10.7832 280.002 13.2051C280.002 15.627 278.068 17.2871 275.334 17.2871C272.599 17.2871 270.627 15.627 270.646 13.2051C270.627 10.7832 272.599 9.12305 275.334 9.12305ZM275.334 10.4707C273.478 10.4707 272.131 11.584 272.15 13.2051C272.131 14.8262 273.478 15.9395 275.334 15.9395C277.17 15.9395 278.498 14.8262 278.498 13.2051C278.498 11.584 277.17 10.4707 275.334 10.4707ZM283.888 7.85352V25.2559H282.365V7.85352H283.888ZM269.748 20.1191C272.951 20.1191 277.365 20.0996 281.213 19.5332L281.33 20.666C277.365 21.4082 273.088 21.4277 269.963 21.4277L269.748 20.1191ZM300.127 12.5215C300.107 15.6855 302.275 18.8887 304.834 20.041L303.896 21.252C301.924 20.2852 300.215 18.2441 299.385 15.7637C298.574 18.3906 296.865 20.5781 294.834 21.6035L293.857 20.3145C296.435 19.123 298.584 15.8223 298.603 12.5215V9.35742H300.127V12.5215ZM308.271 7.85352V25.2559H306.728V7.85352H308.271ZM318.119 11.0762C318.119 13.3809 319.818 15.4902 322.396 16.3887L321.615 17.5801C319.633 16.877 318.119 15.4512 317.377 13.6543C316.635 15.627 315.043 17.1602 313.002 17.9121L312.181 16.7207C314.779 15.8027 316.596 13.5566 316.615 11.0762V10.334H312.65V9.08398H322.025V10.334H318.119V11.0762ZM325.814 7.85352V12.4434H328.431V13.752H325.814V18.3223H324.291V7.85352H325.814ZM325.814 19.2402V25.2168H324.291V20.4902H314.447V19.2402H325.814ZM344.92 7.85352V18.0293H343.377V13.498H339.861V12.209H343.377V7.85352H344.92ZM344.92 18.8887V24.9824H333.572V18.8887H344.92ZM335.096 20.1191V23.7324H343.416V20.1191H335.096ZM336.56 10.9395C336.56 13.1855 338.299 15.3535 340.838 16.252L340.037 17.4629C338.074 16.7598 336.56 15.2949 335.818 13.498C335.066 15.5 333.465 17.1016 331.404 17.8535L330.603 16.6426C333.162 15.7246 335.017 13.4199 335.017 10.9395V10.2559H331.092V8.98633H340.447V10.2559H336.56V10.9395ZM363.146 7.85352V17.1699H361.623V7.85352H363.146ZM353.42 18.0488V20.1582H361.623V18.0488H363.146V24.9824H351.896V18.0488H353.42ZM353.42 23.7324H361.623V21.3887H353.42V23.7324ZM353.771 8.71289C356.408 8.69336 358.322 10.3145 358.322 12.6973C358.322 15.0605 356.408 16.6816 353.771 16.6816C351.135 16.6816 349.221 15.0605 349.221 12.6973C349.221 10.3145 351.135 8.69336 353.771 8.71289ZM353.771 10.002C351.994 9.98242 350.705 11.1152 350.724 12.6973C350.705 14.2793 351.994 15.4121 353.771 15.4121C355.529 15.4121 356.818 14.2793 356.818 12.6973C356.818 11.1152 355.529 9.98242 353.771 10.002ZM381.412 7.85352V25.2168H379.888V7.85352H381.412ZM369.732 9.57227V19.416C372.379 19.4062 375.123 19.1914 378.033 18.5762L378.248 19.8848C375.162 20.5293 372.408 20.7441 369.635 20.7441H368.228V9.57227H369.732ZM398.818 7.85352V14.7285H401.728V16.0176H398.818V25.2559H397.295V7.85352H398.818ZM394.248 9.55273V10.8223H387.666V19.6113C390.81 19.6113 393.037 19.4648 395.615 18.9863L395.81 20.3145C393.096 20.8027 390.81 20.9004 387.51 20.9004H386.142V9.55273H394.248ZM405.502 23.752C404.818 23.752 404.232 23.1855 404.252 22.4824C404.232 21.7988 404.818 21.2324 405.502 21.2324C406.185 21.2324 406.752 21.7988 406.752 22.4824C406.752 23.1855 406.185 23.752 405.502 23.752ZM3.56511 39.362L10.4742 58.9529H10.7469L17.656 39.362H20.6106L12.0651 62.6348H9.15602L0.610565 39.362H3.56511ZM36.4719 55.4984V45.1802H39.1537V62.6348H36.4719V59.6802H36.2901C35.4719 61.4529 33.7447 62.862 31.1083 62.862C27.8356 62.862 25.4719 60.7257 25.4719 56.2711V45.1802H28.1537V56.0893C28.1537 58.6348 29.7447 60.2711 31.9719 60.2711C33.9719 60.2711 36.4719 58.7711 36.4719 55.4984ZM45.6657 62.6348V45.1802H48.2566V47.8166H48.4384C49.0748 46.0893 50.893 44.9075 52.9839 44.9075C53.3816 44.9075 54.0861 44.9302 54.393 44.9529V47.6802C54.2111 47.6348 53.4725 47.4984 52.7566 47.4984C50.2111 47.4984 48.3475 49.2257 48.3475 51.5893V62.6348H45.6657ZM65.9589 62.9984C60.9134 62.9984 57.8225 59.4075 57.8225 54.0439C57.8225 48.6802 60.9589 44.9529 65.6861 44.9529C69.3225 44.9529 73.1861 47.1802 73.1861 53.6802V54.8166H60.5157C60.6407 58.5552 62.8111 60.5893 65.9589 60.5893C68.0611 60.5893 69.6407 59.6802 70.3225 57.862L72.9134 58.5893C72.0952 61.2257 69.5043 62.9984 65.9589 62.9984ZM60.5157 52.4984H70.4589C70.4589 49.5439 68.5952 47.362 65.6861 47.362C62.618 47.362 60.6975 49.7825 60.5157 52.4984ZM91.1572 52.127V53.3574H79.2627V47.498H80.7861V52.127H91.1572ZM92.9932 55.7207V56.9707H77.0947V55.7207H92.9932ZM91.2549 62.5176V63.7871H79.165V58.748H80.6885V62.5176H91.2549ZM109.329 47.9863C113.021 48.0059 115.677 49.8027 115.677 52.5371C115.677 55.125 113.372 56.8438 110.071 57.0488V60.7012H117.317V61.9902H101.419V60.7012H108.567V57.0488C105.276 56.834 102.981 55.1152 102.981 52.5371C102.981 49.8027 105.638 48.0059 109.329 47.9863ZM109.329 49.2559C106.517 49.2559 104.466 50.584 104.466 52.5371C104.466 54.5488 106.517 55.8379 109.329 55.8574C112.142 55.8379 114.192 54.5488 114.192 52.5371C114.192 50.584 112.142 49.2559 109.329 49.2559ZM135.603 60.623V61.9121H119.704V60.623H135.603ZM123.122 48.1035V51.3457H132.146V48.1035H133.649V57.1465H121.579V48.1035H123.122ZM123.122 55.916H132.146V52.5762H123.122V55.916ZM152.833 46.8535V64.2168H151.368V46.8535H152.833ZM149.317 47.2832V63.3184H147.872V54.373H144.942V53.123H147.872V47.2832H149.317ZM143.087 51.8145C143.087 54.8223 144.435 57.8105 146.837 59.1973L145.899 60.3301C144.19 59.3047 142.979 57.4297 142.384 55.2129C141.749 57.6055 140.489 59.6465 138.751 60.7402L137.774 59.5879C140.196 58.1426 141.603 54.9785 141.603 51.8145V50.1738H138.263V48.9043H146.271V50.1738H143.087V51.8145ZM172.153 54.9199V56.1309H156.255V54.9199H172.153ZM170.161 57.5176V61.209H159.731V62.8691H170.728V63.9824H158.188V60.1543H168.638V58.6699H158.169V57.5176H170.161ZM170.103 47.3809V50.9746H159.849V52.498H170.415V53.6113H158.325V49.9199H168.56V48.4941H158.267V47.3809H170.103ZM196.399 56.0723V57.3223H180.56V56.0723H187.708V54.3535H182.669V47.3613H194.427V48.6113H184.212V50.2324H193.958V51.4043H184.212V53.123H194.524V54.3535H189.231V56.0723H196.399ZM188.489 58.6309C192.298 58.6113 194.446 59.5879 194.466 61.4043C194.446 63.2207 192.298 64.1777 188.489 64.1777C184.642 64.1777 182.493 63.2207 182.493 61.4043C182.493 59.5879 184.642 58.6113 188.489 58.6309ZM188.489 59.7832C185.618 59.7832 184.017 60.3691 184.036 61.4043C184.017 62.459 185.618 63.0059 188.489 62.9863C191.321 63.0059 192.923 62.459 192.923 61.4043C192.923 60.3691 191.321 59.7832 188.489 59.7832ZM207.536 49.8613V51.1113H198.825V49.8613H202.438V47.3809H203.962V49.8613H207.536ZM203.181 52.2832C205.368 52.2832 206.931 53.9238 206.95 56.2285C206.931 58.5527 205.368 60.2129 203.181 60.2129C201.013 60.2129 199.45 58.5527 199.45 56.2285C199.45 53.9238 201.013 52.2832 203.181 52.2832ZM203.181 53.5723C201.813 53.5918 200.817 54.7051 200.817 56.2285C200.817 57.7715 201.813 58.8848 203.181 58.8652C204.567 58.8848 205.583 57.7715 205.583 56.2285C205.583 54.7051 204.567 53.5918 203.181 53.5723ZM213.649 46.8535V64.2168H212.185V55.4473H209.88V63.3574H208.435V47.2832H209.88V54.1777H212.185V46.8535H213.649ZM220.001 61.3262L218.478 66.6387H217.032L218.106 61.3262H220.001ZM243.681 46.873V60.1152H242.138V56.3848H239.13V55.1348H242.138V52.7715H239.13V51.502H242.138V46.873H243.681ZM239.13 49.002V50.252H229.306V49.002H233.524V46.8535H235.048V49.002H239.13ZM234.267 51.209C236.591 51.209 238.231 52.5371 238.231 54.5293C238.231 56.502 236.591 57.8496 234.267 57.8496C231.942 57.8496 230.321 56.502 230.341 54.5293C230.321 52.5371 231.942 51.209 234.267 51.209ZM234.267 52.4199C232.782 52.4395 231.767 53.2793 231.767 54.5293C231.767 55.7793 232.782 56.6191 234.267 56.6191C235.751 56.6191 236.767 55.7793 236.786 54.5293C236.767 53.2793 235.751 52.4395 234.267 52.4199ZM244.071 62.5566V63.8457H232.45V58.9434H233.993V62.5566H244.071ZM261.888 46.8535V55.8574H260.384V46.8535H261.888ZM261.907 56.7363V60.8965H252.161V62.7715H262.532V64.0215H250.657V59.7051H260.384V57.9668H250.618V56.7363H261.907ZM253.724 48.6895C253.704 51.1504 255.579 53.3184 258.157 54.1582L257.396 55.3496C255.364 54.6562 253.743 53.2012 252.962 51.3262C252.181 53.3477 250.55 54.9395 248.489 55.6816L247.688 54.4707C250.306 53.5527 252.161 51.248 252.161 48.6895V47.3613H253.724V48.6895ZM286.29 46.8535V64.2559H284.747V53.8652H279.337V52.5957H284.747V46.8535H286.29ZM274.376 48.8066V58.748C277.022 58.7188 279.386 58.582 281.993 58.0449L282.188 59.3145C279.415 59.8809 276.974 60.0371 274.161 60.0371H272.833V48.8066H274.376ZM298.774 48.5918V53.2207H303.032V46.8535H304.556V64.2559H303.032V54.4902H298.774V59.8223H290.864V48.5918H298.774ZM292.388 49.8027V58.5918H297.29V49.8027H292.388ZM314.13 48.123C316.864 48.123 318.798 49.7832 318.798 52.2051C318.798 54.627 316.864 56.2871 314.13 56.2871C311.396 56.2871 309.423 54.627 309.442 52.2051C309.423 49.7832 311.396 48.123 314.13 48.123ZM314.13 49.4707C312.274 49.4707 310.927 50.584 310.946 52.2051C310.927 53.8262 312.274 54.9395 314.13 54.9395C315.966 54.9395 317.294 53.8262 317.294 52.2051C317.294 50.584 315.966 49.4707 314.13 49.4707ZM322.685 46.8535V64.2559H321.161V46.8535H322.685ZM308.544 59.1191C311.747 59.1191 316.161 59.0996 320.009 58.5332L320.126 59.666C316.161 60.4082 311.884 60.4277 308.759 60.4277L308.544 59.1191ZM346.325 46.8535V51.1113H348.942V52.3809H346.325V56.7168H344.802V46.8535H346.325ZM341.579 47.9863C341.56 52.3613 338.493 55.4863 333.356 56.8926L332.731 55.6621C337.009 54.5098 339.616 52.1953 339.938 49.2559H333.513V47.9863H341.579ZM346.325 57.5176V63.9824H335.329V57.5176H346.325ZM336.853 58.7871V62.7324H344.802V58.7871H336.853ZM364.61 46.8535V51.2676H367.228V52.5762H364.61V57.0488H363.087V46.8535H364.61ZM359.845 47.9668C359.845 52.3613 356.778 55.4863 351.642 56.8535L351.017 55.6621C355.274 54.5098 357.901 52.1855 358.224 49.2363H351.798V47.9668H359.845ZM364.61 57.8496V64.2168H363.087V59.0996H353.243V57.8496H364.61ZM377.231 47.166C381.099 47.166 383.364 48.2207 383.364 50.1543C383.364 52.127 381.099 53.1816 377.231 53.2012C373.364 53.1816 371.079 52.127 371.079 50.1543C371.079 48.2207 373.364 47.166 377.231 47.166ZM377.231 48.3184C374.341 48.3184 372.661 49.0215 372.681 50.1543C372.661 51.3652 374.341 52.0293 377.231 52.0293C380.103 52.0293 381.802 51.3652 381.802 50.1543C381.802 49.0215 380.103 48.3184 377.231 48.3184ZM385.142 54.373V55.623H369.321V54.373H385.142ZM383.11 57.127V61.0137H372.798V62.8105H383.638V64.0215H371.274V59.8809H381.606V58.2988H371.235V57.127H383.11ZM408.021 46.873V59.6074H406.478V52.9473H402.903V51.6777H406.478V46.873H408.021ZM408.509 62.5566V63.8457H396.868V58.4551H398.411V62.5566H408.509ZM399.661 50.4473C399.661 52.6934 401.399 54.8809 403.938 55.7402L403.138 56.9707C401.175 56.2676 399.661 54.8027 398.919 53.0059C398.167 55.0078 396.565 56.6094 394.505 57.3809L393.704 56.1309C396.263 55.2324 398.118 52.9473 398.118 50.4473V49.5488H394.192V48.2793H403.548V49.5488H399.661V50.4473ZM425.485 46.8535V51.3066H428.103V52.6152H425.485V56.9512H423.962V46.8535H425.485ZM416.032 57.7129V59.5684H423.962V57.7129H425.485V63.9824H414.509V57.7129H416.032ZM416.032 62.752H423.962V60.7793H416.032V62.752ZM422.302 48.6504V49.9199H411.95V48.6504H416.364V46.6973H417.888V48.6504H422.302ZM417.126 50.7207C419.626 50.7207 421.286 51.9121 421.306 53.7676C421.286 55.623 419.626 56.8145 417.126 56.8145C414.606 56.8145 412.927 55.623 412.946 53.7676C412.927 51.9121 414.606 50.7207 417.126 50.7207ZM417.126 51.9121C415.485 51.8926 414.392 52.6543 414.411 53.7676C414.392 54.9004 415.485 55.6426 417.126 55.6426C418.747 55.6426 419.841 54.9004 419.86 53.7676C419.841 52.6543 418.747 51.8926 417.126 51.9121ZM444.513 46.8535V64.2168H442.989V46.8535H444.513ZM432.833 48.5723V58.416C435.479 58.4062 438.224 58.1914 441.134 57.5762L441.349 58.8848C438.263 59.5293 435.509 59.7441 432.735 59.7441H431.329V48.5723H432.833ZM461.919 46.8535V53.7285H464.829V55.0176H461.919V64.2559H460.396V46.8535H461.919ZM457.349 48.5527V49.8223H450.767V58.6113C453.911 58.6113 456.138 58.4648 458.716 57.9863L458.911 59.3145C456.196 59.8027 453.911 59.9004 450.61 59.9004H449.243V48.5527H457.349ZM468.603 62.752C467.919 62.752 467.333 62.1855 467.353 61.4824C467.333 60.7988 467.919 60.2324 468.603 60.2324C469.286 60.2324 469.853 60.7988 469.853 61.4824C469.853 62.1855 469.286 62.752 468.603 62.752ZM41.1123 87.709V89.4473C41.1123 91.6348 41.1123 94.1152 40.4678 97.8848L38.9053 97.7285C39.6084 94.1738 39.6084 91.5762 39.6084 89.4473V88.9785H29.1396V87.709H41.1123ZM43.2412 99.3887V100.658H27.4209V99.3887H43.2412ZM67.5459 94.8574V96.127H51.7061V94.8574H67.5459ZM65.6709 92.0645V93.2949H53.8154V86.3223H65.5732V87.5527H55.3584V89.1543H65.1045V90.3457H55.3584V92.0645H65.6709ZM65.6123 97.709V102.982H53.6592V97.709H65.6123ZM55.1826 98.9395V101.732H64.1084V98.9395H55.1826ZM81.8506 90.5215C81.8506 93.5879 83.8818 96.7324 86.3428 97.9434L85.4053 99.1738C83.4912 98.168 81.8896 96.1172 81.1279 93.7051C80.3467 96.2734 78.7061 98.4609 76.7529 99.5059L75.7764 98.2754C78.3154 97.0254 80.3271 93.6855 80.3467 90.5215V87.3574H81.8506V90.5215ZM89.4678 85.8535V92.9043H92.3779V94.2324H89.4678V103.217H87.9443V85.8535H89.4678ZM108.632 85.8535V103.256H107.089V85.8535H108.632ZM99.3936 87.2012C101.972 87.2207 103.827 89.5645 103.827 93.2559C103.827 96.9473 101.972 99.291 99.3936 99.291C96.7959 99.291 94.96 96.9473 94.96 93.2559C94.96 89.5645 96.7959 87.2207 99.3936 87.2012ZM99.3936 88.5684C97.6553 88.5879 96.4443 90.4238 96.4443 93.2559C96.4443 96.0879 97.6553 97.9238 99.3936 97.9238C101.132 97.9238 102.343 96.0879 102.343 93.2559C102.343 90.4238 101.132 88.5879 99.3936 88.5684ZM128.499 99.7793V101.068H112.601V99.7793H119.749V96.498H114.593V91.1465H124.983V88.4121H114.554V87.1426H126.487V92.3965H116.116V95.2285H126.897V96.498H121.253V99.7793H128.499ZM151.3 85.8535V95.1504H149.757V92.5332H146.847V91.2832H149.757V89.6426H146.847V88.4121H149.757V85.8535H151.3ZM146.651 86.9863V88.2363H144.874V93.0996C145.685 93.0508 146.476 92.9824 147.218 92.9043L147.296 94.0371C143.956 94.5449 140.03 94.584 137.12 94.584L136.944 93.2754L139.19 93.2559V88.2363H137.433V86.9863H146.651ZM151.3 95.9707V99.9551H141.593V101.791H151.944V103.021H140.089V98.7832H149.776V97.1816H140.05V95.9707H151.3ZM140.675 93.2363C141.563 93.2363 142.481 93.207 143.39 93.1777V88.2363H140.675V93.2363ZM169.565 85.8535V103.256H168.042V96.2637H164.468V94.9941H168.042V92.6504H164.468V91.3613H168.042V85.8535H169.565ZM161.187 91.5176C161.187 94.3887 163.14 97.2207 165.718 98.373L164.839 99.5645C162.866 98.6562 161.226 96.752 160.464 94.4473C159.702 96.8789 158.081 98.9004 156.108 99.8574L155.229 98.666C157.769 97.4746 159.683 94.5059 159.683 91.5176V90.1309H155.698V88.8809H159.683V86.1855H161.206V88.8809H165.132V90.1309H161.187V91.5176ZM179.687 91.1855C179.687 94.1348 181.835 97.123 184.394 98.2363L183.534 99.4473C181.503 98.5195 179.745 96.5176 178.944 94.1152C178.124 96.6641 176.376 98.8809 174.394 99.877L173.476 98.666C175.956 97.4746 178.124 94.1934 178.144 91.1855V88.9199H174.042V87.6504H183.827V88.9199H179.687V91.1855ZM187.792 85.8535V103.217H186.249V85.8535H187.792ZM205.804 91.127V92.3574H193.909V86.498H195.433V91.127H205.804ZM207.64 94.7207V95.9707H191.741V94.7207H207.64ZM205.901 101.518V102.787H193.812V97.748H195.335V101.518H205.901ZM230.694 93.9199V95.1699H224.405V87.5137H230.479V88.7637H225.948V93.9199H230.694ZM231.964 99.7207V100.99H216.065V99.7207H223.194V96.0488H224.698V99.7207H231.964ZM223.351 87.5137V88.7832H218.976V93.9004C220.44 93.8906 221.896 93.7734 223.507 93.4121L223.644 94.7012C221.749 95.1309 220.147 95.1895 218.409 95.1699H217.452V87.5137H223.351ZM253.808 85.8535V92.7285H256.718V94.0176H253.808V103.256H252.284V85.8535H253.808ZM249.237 87.5527V88.8223H242.655V97.6113C245.8 97.6113 248.026 97.4648 250.604 96.9863L250.8 98.3145C248.085 98.8027 245.8 98.9004 242.499 98.9004H241.132V87.5527H249.237ZM274.534 95.4824V96.752H258.636V95.4824H274.534ZM272.854 101.557V102.846H260.745V98.1191H262.288V101.557H272.854ZM272.483 86.459V90.7363H262.229V92.6699H272.854V93.8809H260.706V89.584H270.94V87.6895H260.647V86.459H272.483ZM288.116 90.7949C288.116 93.5488 289.464 96.5371 291.769 97.9043L290.89 99.0957C289.22 98.0801 288.019 96.2246 287.413 94.1152C286.769 96.4199 285.479 98.4023 283.741 99.4668L282.765 98.3145C285.167 96.9082 286.632 93.8223 286.632 90.8535V87.4941H288.116V90.7949ZM297.843 85.8535V103.217H296.358V85.8535H297.843ZM294.249 86.2246V102.338H292.804V93.3926H289.854V92.084H292.804V86.2246H294.249ZM316.108 85.8535V103.217H314.644V85.8535H316.108ZM312.593 86.3223V102.338H311.128V96.3223H307.905V95.0527H311.128V91.9668H308.198C307.349 94.9062 305.444 97.5039 302.163 99.4668L301.226 98.3535C305.005 96.1172 306.899 92.9824 307.202 89.3496H302.007V88.0801H308.726C308.726 88.9688 308.647 89.8477 308.491 90.6973H311.128V86.3223H312.593ZM335.429 99.7793V101.068H319.53V99.7793H326.679V96.498H321.522V91.1465H331.913V88.4121H321.483V87.1426H333.417V92.3965H323.046V95.2285H333.827V96.498H328.183V99.7793H335.429ZM359.733 99.7402V101.029H343.835V99.7402H351.003V95.7559H352.507V99.7402H359.733ZM358.21 88.627V89.8965H352.546C352.556 92.6211 355.446 94.623 358.776 95.1699L358.19 96.3809C355.407 95.8828 352.858 94.4863 351.765 92.3184C350.661 94.4863 348.112 95.8828 345.319 96.3809L344.714 95.1699C348.063 94.623 350.974 92.6211 350.983 89.8965H345.319V88.627H351.003V86.2246H352.507V88.627H358.21ZM376.964 85.8535V103.217H375.499V94.1152H372.94V102.318H371.534V86.2441H372.94V92.8457H375.499V85.8535H376.964ZM369.269 87.9824V89.252H364.288V97.6113C366.681 97.6016 368.341 97.5137 370.265 97.123L370.401 98.4121C368.312 98.8418 366.534 98.9199 363.878 98.9199H362.765V87.9824H369.269ZM393.979 85.8535V90.3066H396.597V91.6152H393.979V95.9512H392.456V85.8535H393.979ZM384.526 96.7129V98.5684H392.456V96.7129H393.979V102.982H383.003V96.7129H384.526ZM384.526 101.752H392.456V99.7793H384.526V101.752ZM390.796 87.6504V88.9199H380.444V87.6504H384.858V85.6973H386.382V87.6504H390.796ZM385.62 89.7207C388.12 89.7207 389.78 90.9121 389.8 92.7676C389.78 94.623 388.12 95.8145 385.62 95.8145C383.101 95.8145 381.421 94.623 381.44 92.7676C381.421 90.9121 383.101 89.7207 385.62 89.7207ZM385.62 90.9121C383.979 90.8926 382.886 91.6543 382.905 92.7676C382.886 93.9004 383.979 94.6426 385.62 94.6426C387.241 94.6426 388.335 93.9004 388.354 92.7676C388.335 91.6543 387.241 90.8926 385.62 90.9121ZM413.007 85.8535V103.217H411.483V85.8535H413.007ZM401.327 87.5723V97.416C403.974 97.4062 406.718 97.1914 409.628 96.5762L409.843 97.8848C406.757 98.5293 404.003 98.7441 401.229 98.7441H399.823V87.5723H401.327ZM430.413 85.8535V92.7285H433.323V94.0176H430.413V103.256H428.89V85.8535H430.413ZM425.843 87.5527V88.8223H419.261V97.6113C422.405 97.6113 424.632 97.4648 427.21 96.9863L427.405 98.3145C424.69 98.8027 422.405 98.9004 419.104 98.9004H417.737V87.5527H425.843ZM437.097 101.752C436.413 101.752 435.827 101.186 435.847 100.482C435.827 99.7988 436.413 99.2324 437.097 99.2324C437.78 99.2324 438.347 99.7988 438.347 100.482C438.347 101.186 437.78 101.752 437.097 101.752Z" fill="#1A1A1A"/>
</svg>
