<svg width="330" height="81" viewBox="0 0 330 81" fill="none" xmlns="http://www.w3.org/2000/svg">
<path d="M32.85 5.85156V9.47656H34.9281V10.5078H32.85V14.1484H31.6156V5.85156H32.85ZM28.3812 14.4141C31.2094 14.4141 32.9594 15.3984 32.9594 17.0547C32.9594 18.7422 31.2094 19.7109 28.3812 19.7109C25.5375 19.7109 23.7719 18.7422 23.7719 17.0547C23.7719 15.3984 25.5375 14.4141 28.3812 14.4141ZM28.3812 15.4297C26.2875 15.4141 24.975 16.0391 24.975 17.0547C24.975 18.0859 26.2875 18.7266 28.3812 18.7266C30.4594 18.7266 31.7719 18.0859 31.7719 17.0547C31.7719 16.0391 30.4594 15.4141 28.3812 15.4297ZM28.7875 6.91406V7.92969H23.8187V12.0078C26.6312 11.9922 28.2562 11.9062 30.1156 11.5234L30.2406 12.5391C28.3031 12.9297 26.6312 13.0078 23.6937 13.0078H22.6156V6.91406H28.7875ZM48.0719 5.86719V16.0547H46.8531V5.86719H48.0719ZM48.5094 18.4141V19.4453H39.1031V15.1172H40.3219V18.4141H48.5094ZM41.525 8.03906C41.5094 10.1484 42.9625 12.0547 45.025 12.8047L44.3844 13.7891C42.775 13.1719 41.525 11.9219 40.9156 10.3203C40.2984 12.0234 39.0328 13.3906 37.4156 14.0391L36.7437 13.0859C38.8531 12.2734 40.275 10.2266 40.275 8.03906V6.64844H41.525V8.03906ZM55.7781 6.86719C57.9656 6.86719 59.5125 8.19531 59.5125 10.1328C59.5125 12.0703 57.9656 13.3984 55.7781 13.3984C53.5906 13.3984 52.0125 12.0703 52.0281 10.1328C52.0125 8.19531 53.5906 6.86719 55.7781 6.86719ZM55.7781 7.94531C54.2937 7.94531 53.2156 8.83594 53.2312 10.1328C53.2156 11.4297 54.2937 12.3203 55.7781 12.3203C57.2469 12.3203 58.3094 11.4297 58.3094 10.1328C58.3094 8.83594 57.2469 7.94531 55.7781 7.94531ZM62.6219 5.85156V19.7734H61.4031V5.85156H62.6219ZM51.3094 15.6641C53.8719 15.6641 57.4031 15.6484 60.4812 15.1953L60.575 16.1016C57.4031 16.6953 53.9812 16.7109 51.4812 16.7109L51.3094 15.6641ZM82.1281 5.85156V19.7734H80.8937V5.85156H82.1281ZM74.7375 6.92969C76.8 6.94531 78.2844 8.82031 78.2844 11.7734C78.2844 14.7266 76.8 16.6016 74.7375 16.6016C72.6594 16.6016 71.1906 14.7266 71.1906 11.7734C71.1906 8.82031 72.6594 6.94531 74.7375 6.92969ZM74.7375 8.02344C73.3469 8.03906 72.3781 9.50781 72.3781 11.7734C72.3781 14.0391 73.3469 15.5078 74.7375 15.5078C76.1281 15.5078 77.0969 14.0391 77.0969 11.7734C77.0969 9.50781 76.1281 8.03906 74.7375 8.02344ZM89.0219 6.92969C91.0687 6.94531 92.5219 8.82031 92.5375 11.7734C92.5219 14.7266 91.0687 16.6016 89.0219 16.6016C86.9594 16.6016 85.5219 14.7266 85.5219 11.7734C85.5219 8.82031 86.9594 6.94531 89.0219 6.92969ZM89.0219 8.02344C87.6469 8.03906 86.6781 9.50781 86.6781 11.7734C86.6781 14.0391 87.6469 15.5078 89.0219 15.5078C90.4125 15.5078 91.35 14.0391 91.35 11.7734C91.35 9.50781 90.4125 8.03906 89.0219 8.02344ZM98.3031 9.35156V10.3984H96.0531V13.4922H98.3031V14.5234H96.0531V19.7422H94.8344V5.85156H96.0531V9.35156H98.3031ZM111.416 5.85156V19.7422H110.181V5.85156H111.416ZM107.306 7.36719C107.291 11.3672 105.431 14.8984 100.775 17.1328L100.103 16.1328C103.861 14.3516 105.775 11.6875 106.056 8.36719H100.744V7.36719H107.306ZM125.794 10.0703V11.0547H116.278V6.36719H117.497V10.0703H125.794ZM127.262 12.9453V13.9453H114.544V12.9453H127.262ZM125.872 18.3828V19.3984H116.2V15.3672H117.419V18.3828H125.872ZM136.342 0.134851L141.788 15.5748H142.003L147.448 0.134851H149.776L143.041 18.4766H140.749L134.014 0.134851H136.342ZM162.277 12.8522V4.72028H164.391V18.4766H162.277V16.148H162.134C161.489 17.5451 160.128 18.6557 158.05 18.6557C155.471 18.6557 153.608 16.972 153.608 13.4613V4.72028H155.721V13.318C155.721 15.3241 156.975 16.6137 158.73 16.6137C160.307 16.6137 162.277 15.4316 162.277 12.8522ZM169.523 18.4766V4.72028H171.565V6.79805H171.708C172.21 5.43675 173.643 4.50534 175.29 4.50534C175.604 4.50534 176.159 4.52325 176.401 4.54116V6.69058C176.258 6.65476 175.675 6.54729 175.111 6.54729C173.105 6.54729 171.636 7.90858 171.636 9.77141V18.4766H169.523ZM185.516 18.7632C181.54 18.7632 179.104 15.9331 179.104 11.7059C179.104 7.4787 181.576 4.54116 185.301 4.54116C188.167 4.54116 191.212 6.29652 191.212 11.4193V12.3149H181.226C181.325 15.2614 183.035 16.8645 185.516 16.8645C187.173 16.8645 188.418 16.148 188.955 14.7151L190.997 15.2883C190.352 17.366 188.311 18.7632 185.516 18.7632ZM181.226 10.4879H189.063C189.063 8.15935 187.594 6.43981 185.301 6.43981C182.883 6.43981 181.37 8.34742 181.226 10.4879ZM198.863 6.86719C201.051 6.86719 202.598 8.19531 202.598 10.1328C202.598 12.0703 201.051 13.3984 198.863 13.3984C196.676 13.3984 195.098 12.0703 195.113 10.1328C195.098 8.19531 196.676 6.86719 198.863 6.86719ZM198.863 7.94531C197.379 7.94531 196.301 8.83594 196.316 10.1328C196.301 11.4297 197.379 12.3203 198.863 12.3203C200.332 12.3203 201.395 11.4297 201.395 10.1328C201.395 8.83594 200.332 7.94531 198.863 7.94531ZM205.707 5.85156V19.7734H204.488V5.85156H205.707ZM194.395 15.6641C196.957 15.6641 200.488 15.6484 203.566 15.1953L203.66 16.1016C200.488 16.6953 197.066 16.7109 194.566 16.7109L194.395 15.6641ZM218.698 9.58594C218.682 12.1172 220.416 14.6797 222.463 15.6016L221.713 16.5703C220.135 15.7969 218.768 14.1641 218.104 12.1797C217.455 14.2812 216.088 16.0312 214.463 16.8516L213.682 15.8203C215.745 14.8672 217.463 12.2266 217.479 9.58594V7.05469H218.698V9.58594ZM225.213 5.85156V19.7734H223.979V5.85156H225.213ZM233.091 8.42969C233.091 10.2734 234.451 11.9609 236.513 12.6797L235.888 13.6328C234.302 13.0703 233.091 11.9297 232.498 10.4922C231.904 12.0703 230.63 13.2969 228.998 13.8984L228.341 12.9453C230.42 12.2109 231.873 10.4141 231.888 8.42969V7.83594H228.716V6.83594H236.216V7.83594H233.091V8.42969ZM239.248 5.85156V9.52344H241.341V10.5703H239.248V14.2266H238.029V5.85156H239.248ZM239.248 14.9609V19.7422H238.029V15.9609H230.154V14.9609H239.248ZM254.532 5.85156V13.9922H253.298V10.3672H250.485V9.33594H253.298V5.85156H254.532ZM254.532 14.6797V19.5547H245.454V14.6797H254.532ZM246.673 15.6641V18.5547H253.329V15.6641H246.673ZM247.845 8.32031C247.845 10.1172 249.235 11.8516 251.266 12.5703L250.626 13.5391C249.055 12.9766 247.845 11.8047 247.251 10.3672C246.649 11.9688 245.368 13.25 243.72 13.8516L243.079 12.8828C245.126 12.1484 246.61 10.3047 246.61 8.32031V7.77344H243.47V6.75781H250.954V7.77344H247.845V8.32031ZM269.113 5.85156V13.3047H267.895V5.85156H269.113ZM261.332 14.0078V15.6953H267.895V14.0078H269.113V19.5547H260.113V14.0078H261.332ZM261.332 18.5547H267.895V16.6797H261.332V18.5547ZM261.613 6.53906C263.723 6.52344 265.254 7.82031 265.254 9.72656C265.254 11.6172 263.723 12.9141 261.613 12.9141C259.504 12.9141 257.973 11.6172 257.973 9.72656C257.973 7.82031 259.504 6.52344 261.613 6.53906ZM261.613 7.57031C260.191 7.55469 259.16 8.46094 259.176 9.72656C259.16 10.9922 260.191 11.8984 261.613 11.8984C263.02 11.8984 264.051 10.9922 264.051 9.72656C264.051 8.46094 263.02 7.55469 261.613 7.57031ZM283.726 5.85156V19.7422H282.507V5.85156H283.726ZM274.382 7.22656V15.1016C276.499 15.0938 278.695 14.9219 281.023 14.4297L281.195 15.4766C278.726 15.9922 276.523 16.1641 274.304 16.1641H273.179V7.22656H274.382ZM297.651 5.85156V11.3516H299.979V12.3828H297.651V19.7734H296.432V5.85156H297.651ZM293.995 7.21094V8.22656H288.729V15.2578C291.245 15.2578 293.026 15.1406 295.088 14.7578L295.245 15.8203C293.073 16.2109 291.245 16.2891 288.604 16.2891H287.51V7.21094H293.995ZM302.998 18.5703C302.451 18.5703 301.982 18.1172 301.998 17.5547C301.982 17.0078 302.451 16.5547 302.998 16.5547C303.545 16.5547 303.998 17.0078 303.998 17.5547C303.998 18.1172 303.545 18.5703 302.998 18.5703ZM115.885 30.1349L121.33 45.5748H121.545L126.99 30.1349H129.319L122.584 48.4766H120.291L113.556 30.1349H115.885ZM141.819 42.8522V34.7203H143.933V48.4766H141.819V46.148H141.676C141.031 47.5451 139.67 48.6557 137.592 48.6557C135.013 48.6557 133.15 46.972 133.15 43.4613V34.7203H135.264V43.318C135.264 45.3241 136.518 46.6137 138.273 46.6137C139.849 46.6137 141.819 45.4316 141.819 42.8522ZM149.065 48.4766V34.7203H151.107V36.7981H151.251C151.752 35.4368 153.185 34.5053 154.833 34.5053C155.146 34.5053 155.702 34.5232 155.943 34.5412V36.6906C155.8 36.6548 155.218 36.5473 154.654 36.5473C152.648 36.5473 151.179 37.9086 151.179 39.7714V48.4766H149.065ZM165.059 48.7632C161.082 48.7632 158.646 45.9331 158.646 41.7059C158.646 37.4787 161.118 34.5412 164.844 34.5412C167.71 34.5412 170.755 36.2965 170.755 41.4193V42.3149H160.769C160.867 45.2614 162.578 46.8645 165.059 46.8645C166.716 46.8645 167.96 46.148 168.498 44.7151L170.54 45.2883C169.895 47.366 167.853 48.7632 165.059 48.7632ZM160.769 40.4879H168.605C168.605 38.1593 167.137 36.4398 164.844 36.4398C162.426 36.4398 160.912 38.3474 160.769 40.4879ZM174.126 42.9538V41.9368H186.41V42.9538H174.126ZM175.615 49.022V45.9595H183.586V44.9254H175.58V43.9538H184.893V46.9027H176.916V48.0447H185.319V49.022H175.615ZM175.688 41.0107V38.0504H183.546V37.0504H175.66V36.0902H184.853V38.9766H176.995V40.0391H185.092V41.0107H175.688ZM194.1 43.88V42.8004H199.577V41.5732H195.713V36.0902H204.872V37.1413H197.031V38.2891H204.514V39.3061H197.031V40.5277H204.952V41.5732H200.895V42.8004H206.372V43.88H194.1ZM195.588 46.9936C195.588 44.9879 198.838 44.8061 200.236 44.8061C201.634 44.8061 204.884 44.9879 204.884 46.9936C204.884 49.005 201.645 49.1868 200.236 49.1868C198.827 49.1868 195.588 49.005 195.588 46.9936ZM196.906 46.9936C196.906 48.1129 199.412 48.1697 200.236 48.1697C201.071 48.1697 203.56 48.1186 203.56 46.9936C203.56 45.8743 201.06 45.8118 200.236 45.8118C199.418 45.8118 196.906 45.88 196.906 46.9936ZM208.79 39.0675V37.9766H211.523V36.0788H212.83V37.9766H215.563V39.0675H208.79ZM216.142 48.5277V35.9879H217.387V41.3402H219.023V35.6754H220.29V49.1754H219.023V42.4311H217.387V48.5277H216.142ZM212.182 46.0788C210.324 46.0788 209.262 44.63 209.262 42.9709C209.262 41.3175 210.341 39.8743 212.182 39.8743C214.029 39.8743 215.108 41.3061 215.108 42.9709C215.108 44.6413 214.046 46.0788 212.182 46.0788ZM212.182 44.9766C213.324 44.9766 213.926 43.9822 213.926 42.9709C213.926 41.9652 213.307 40.9936 212.182 40.9936C211.051 40.9936 210.444 41.9652 210.444 42.9709C210.444 43.9879 211.029 44.9766 212.182 44.9766ZM11.9412 68.3359V69.7266C11.9412 71.4766 11.9412 73.4609 11.4256 76.4766L10.1756 76.3516C10.7381 73.5078 10.7381 71.4297 10.7381 69.7266V69.3516H2.36307V68.3359H11.9412ZM13.6443 77.6797V78.6953H0.988073V77.6797H13.6443ZM33.0881 74.0547V75.0703H20.4162V74.0547H33.0881ZM31.5881 71.8203V72.8047H22.1037V67.2266H31.5099V68.2109H23.3381V69.4922H31.1349V70.4453H23.3381V71.8203H31.5881ZM31.5412 76.3359V80.5547H21.9787V76.3359H31.5412ZM23.1974 77.3203V79.5547H30.3381V77.3203H23.1974ZM44.5318 70.5859C44.5318 73.0391 46.1568 75.5547 48.1256 76.5234L47.3756 77.5078C45.8443 76.7031 44.5631 75.0625 43.9537 73.1328C43.3287 75.1875 42.0162 76.9375 40.4537 77.7734L39.6724 76.7891C41.7037 75.7891 43.3131 73.1172 43.3287 70.5859V68.0547H44.5318V70.5859ZM50.6256 66.8516V72.4922H52.9537V73.5547H50.6256V80.7422H49.4068V66.8516H50.6256ZM65.9568 66.8516V80.7734H64.7224V66.8516H65.9568ZM58.5662 67.9297C60.6287 67.9453 62.1131 69.8203 62.1131 72.7734C62.1131 75.7266 60.6287 77.6016 58.5662 77.6016C56.4881 77.6016 55.0193 75.7266 55.0193 72.7734C55.0193 69.8203 56.4881 67.9453 58.5662 67.9297ZM58.5662 69.0234C57.1756 69.0391 56.2068 70.5078 56.2068 72.7734C56.2068 75.0391 57.1756 76.5078 58.5662 76.5078C59.9568 76.5078 60.9256 75.0391 60.9256 72.7734C60.9256 70.5078 59.9568 69.0391 58.5662 69.0234ZM81.8506 77.9922V79.0234H69.1318V77.9922H74.8506V75.3672H70.7256V71.0859H79.0381V68.8984H70.6943V67.8828H80.2412V72.0859H71.9443V74.3516H80.5693V75.3672H76.0537V77.9922H81.8506ZM100.091 66.8516V74.2891H98.8568V72.1953H96.5287V71.1953H98.8568V69.8828H96.5287V68.8984H98.8568V66.8516H100.091ZM96.3724 67.7578V68.7578H94.9506V72.6484C95.599 72.6094 96.2318 72.5547 96.8256 72.4922L96.8881 73.3984C94.2162 73.8047 91.0756 73.8359 88.7474 73.8359L88.6068 72.7891L90.4037 72.7734V68.7578H88.9974V67.7578H96.3724ZM100.091 74.9453V78.1328H92.3256V79.6016H100.607V80.5859H91.1224V77.1953H98.8724V75.9141H91.0912V74.9453H100.091ZM91.5912 72.7578C92.3021 72.7578 93.0365 72.7344 93.7631 72.7109V68.7578H91.5912V72.7578ZM114.704 66.8516V80.7734H113.485V75.1797H110.626V74.1641H113.485V72.2891H110.626V71.2578H113.485V66.8516H114.704ZM108.001 71.3828C108.001 73.6797 109.563 75.9453 111.626 76.8672L110.922 77.8203C109.344 77.0938 108.032 75.5703 107.422 73.7266C106.813 75.6719 105.516 77.2891 103.938 78.0547L103.235 77.1016C105.266 76.1484 106.797 73.7734 106.797 71.3828V70.2734H103.61V69.2734H106.797V67.1172H108.016V69.2734H111.157V70.2734H108.001V71.3828ZM122.801 71.1172C122.801 73.4766 124.519 75.8672 126.566 76.7578L125.879 77.7266C124.254 76.9844 122.847 75.3828 122.207 73.4609C121.551 75.5 120.152 77.2734 118.566 78.0703L117.832 77.1016C119.816 76.1484 121.551 73.5234 121.566 71.1172V69.3047H118.285V68.2891H126.113V69.3047H122.801V71.1172ZM129.285 66.8516V80.7422H128.051V66.8516H129.285ZM143.694 71.0703V72.0547H134.179V67.3672H135.397V71.0703H143.694ZM145.163 73.9453V74.9453H132.444V73.9453H145.163ZM143.772 79.3828V80.3984H134.101V76.3672H135.319V79.3828H143.772ZM163.607 73.3047V74.3047H158.576V68.1797H163.435V69.1797H159.81V73.3047H163.607ZM164.622 77.9453V78.9609H151.904V77.9453H157.607V75.0078H158.81V77.9453H164.622ZM157.732 68.1797V69.1953H154.232V73.2891C155.404 73.2812 156.568 73.1875 157.857 72.8984L157.966 73.9297C156.451 74.2734 155.169 74.3203 153.779 74.3047H153.013V68.1797H157.732ZM182.097 66.8516V72.3516H184.426V73.3828H182.097V80.7734H180.879V66.8516H182.097ZM178.441 68.2109V69.2266H173.176V76.2578C175.691 76.2578 177.472 76.1406 179.535 75.7578L179.691 76.8203C177.519 77.2109 175.691 77.2891 173.051 77.2891H171.957V68.2109H178.441ZM198.679 74.5547V75.5703H185.96V74.5547H198.679ZM197.335 79.4141V80.4453H187.647V76.6641H188.882V79.4141H197.335ZM197.038 67.3359V70.7578H188.835V72.3047H197.335V73.2734H187.616V69.8359H195.804V68.3203H187.569V67.3359H197.038ZM209.544 70.8047C209.544 73.0078 210.622 75.3984 212.466 76.4922L211.763 77.4453C210.427 76.6328 209.466 75.1484 208.982 73.4609C208.466 75.3047 207.435 76.8906 206.044 77.7422L205.263 76.8203C207.185 75.6953 208.357 73.2266 208.357 70.8516V68.1641H209.544V70.8047ZM217.326 66.8516V80.7422H216.138V66.8516H217.326ZM214.451 67.1484V80.0391H213.294V72.8828H210.935V71.8359H213.294V67.1484H214.451ZM231.938 66.8516V80.7422H230.766V66.8516H231.938ZM229.126 67.2266V80.0391H227.954V75.2266H225.376V74.2109H227.954V71.7422H225.61C224.93 74.0938 223.407 76.1719 220.782 77.7422L220.032 76.8516C223.055 75.0625 224.571 72.5547 224.813 69.6484H220.657V68.6328H226.032C226.032 69.3438 225.969 70.0469 225.844 70.7266H227.954V67.2266H229.126ZM247.394 77.9922V79.0234H234.676V77.9922H240.394V75.3672H236.269V71.0859H244.582V68.8984H236.238V67.8828H245.785V72.0859H237.488V74.3516H246.113V75.3672H241.597V77.9922H247.394ZM266.838 77.9609V78.9922H254.119V77.9609H259.854V74.7734H261.057V77.9609H266.838ZM265.619 69.0703V70.0859H261.088C261.096 72.2656 263.408 73.8672 266.072 74.3047L265.604 75.2734C263.377 74.875 261.338 73.7578 260.463 72.0234C259.58 73.7578 257.541 74.875 255.307 75.2734L254.822 74.3047C257.502 73.8672 259.83 72.2656 259.838 70.0859H255.307V69.0703H259.854V67.1484H261.057V69.0703H265.619ZM280.622 66.8516V80.7422H279.451V73.4609H277.404V80.0234H276.279V67.1641H277.404V72.4453H279.451V66.8516H280.622ZM274.466 68.5547V69.5703H270.482V76.2578C272.396 76.25 273.724 76.1797 275.263 75.8672L275.372 76.8984C273.701 77.2422 272.279 77.3047 270.154 77.3047H269.263V68.5547H274.466ZM294.235 66.8516V70.4141H296.329V71.4609H294.235V74.9297H293.016V66.8516H294.235ZM286.672 75.5391V77.0234H293.016V75.5391H294.235V80.5547H285.454V75.5391H286.672ZM286.672 79.5703H293.016V77.9922H286.672V79.5703ZM291.688 68.2891V69.3047H283.407V68.2891H286.938V66.7266H288.157V68.2891H291.688ZM287.547 69.9453C289.547 69.9453 290.876 70.8984 290.891 72.3828C290.876 73.8672 289.547 74.8203 287.547 74.8203C285.532 74.8203 284.188 73.8672 284.204 72.3828C284.188 70.8984 285.532 69.9453 287.547 69.9453ZM287.547 70.8984C286.235 70.8828 285.36 71.4922 285.376 72.3828C285.36 73.2891 286.235 73.8828 287.547 73.8828C288.844 73.8828 289.719 73.2891 289.735 72.3828C289.719 71.4922 288.844 70.8828 287.547 70.8984ZM309.457 66.8516V80.7422H308.238V66.8516H309.457ZM300.113 68.2266V76.1016C302.23 76.0938 304.426 75.9219 306.754 75.4297L306.926 76.4766C304.457 76.9922 302.254 77.1641 300.035 77.1641H298.91V68.2266H300.113ZM323.382 66.8516V72.3516H325.71V73.3828H323.382V80.7734H322.163V66.8516H323.382ZM319.726 68.2109V69.2266H314.46V76.2578C316.976 76.2578 318.757 76.1406 320.819 75.7578L320.976 76.8203C318.804 77.2109 316.976 77.2891 314.335 77.2891H313.241V68.2109H319.726ZM328.729 79.5703C328.182 79.5703 327.713 79.1172 327.729 78.5547C327.713 78.0078 328.182 77.5547 328.729 77.5547C329.276 77.5547 329.729 78.0078 329.729 78.5547C329.729 79.1172 329.276 79.5703 328.729 79.5703Z" fill="#1A1A1A"/>
</svg>
