<svg width="139" height="18" viewBox="0 0 139 18" fill="none" xmlns="http://www.w3.org/2000/svg">
<path d="M6.50973 17.6782C5.38973 17.6782 4.40306 17.4649 3.54973 17.0382C2.70973 16.6249 2.05639 16.0515 1.58973 15.3182C1.12306 14.5715 0.869727 13.7315 0.829727 12.7982H2.90973C2.93639 13.6915 3.26973 14.4249 3.90973 14.9982C4.54973 15.5715 5.41639 15.8582 6.50973 15.8582C7.24306 15.8582 7.87639 15.7315 8.40973 15.4782C8.95639 15.2249 9.36973 14.8782 9.64973 14.4382C9.94306 13.9982 10.0897 13.5115 10.0897 12.9782C10.0897 12.0849 9.74973 11.3849 9.06973 10.8782C8.38973 10.3715 7.44306 10.1182 6.22973 10.1182H4.46973V8.3782H6.22973C7.24306 8.3782 8.06306 8.1182 8.68973 7.5982C9.32973 7.06487 9.64973 6.38487 9.64973 5.5582C9.64973 5.0382 9.51639 4.56487 9.24973 4.1382C8.98306 3.6982 8.58973 3.35154 8.06973 3.0982C7.56306 2.84487 6.96973 2.7182 6.28973 2.7182C5.59639 2.7182 4.99639 2.86487 4.48973 3.1582C3.98306 3.45154 3.59639 3.84487 3.32973 4.3382C3.07639 4.83154 2.94973 5.36487 2.94973 5.9382H0.849727C0.849727 5.00487 1.07639 4.1582 1.52973 3.3982C1.98306 2.62487 2.62306 2.0182 3.44973 1.5782C4.27639 1.1382 5.22306 0.918202 6.28973 0.918202C7.35639 0.918202 8.30306 1.12487 9.12973 1.5382C9.95639 1.9382 10.5964 2.49154 11.0497 3.1982C11.5031 3.89154 11.7297 4.6582 11.7297 5.4982C11.7297 6.43154 11.4497 7.23154 10.8897 7.8982C10.3297 8.56487 9.65639 8.99154 8.86973 9.1782C9.76306 9.3382 10.5297 9.75154 11.1697 10.4182C11.8231 11.0715 12.1497 11.9182 12.1497 12.9582C12.1497 13.8515 11.9097 14.6582 11.4297 15.3782C10.9631 16.0849 10.2964 16.6449 9.42973 17.0582C8.57639 17.4715 7.60306 17.6782 6.50973 17.6782ZM18.2538 7.1782C18.7871 6.92487 19.3605 6.7982 19.9738 6.7982C21.0138 6.7982 21.9605 7.02487 22.8138 7.4782C23.6805 7.93154 24.3605 8.56487 24.8538 9.3782C25.3605 10.1915 25.6138 11.1315 25.6138 12.1982C25.6138 13.2782 25.3538 14.2382 24.8338 15.0782C24.3271 15.9049 23.6338 16.5449 22.7538 16.9982C21.8738 17.4515 20.8938 17.6782 19.8138 17.6782C18.7338 17.6782 17.7471 17.4515 16.8538 16.9982C15.9738 16.5449 15.2738 15.9049 14.7538 15.0782C14.2471 14.2382 13.9938 13.2782 13.9938 12.1982C13.9938 11.4115 14.1205 10.6782 14.3738 9.9982C14.6271 9.3182 15.0205 8.58487 15.5538 7.7982L19.8938 1.2982H22.2938L18.2538 7.1782ZM19.8138 15.8582C20.5605 15.8582 21.2138 15.6982 21.7738 15.3782C22.3471 15.0582 22.7871 14.6249 23.0938 14.0782C23.4005 13.5182 23.5538 12.8982 23.5538 12.2182C23.5538 11.5249 23.4005 10.9049 23.0938 10.3582C22.7871 9.7982 22.3471 9.3582 21.7738 9.0382C21.2138 8.7182 20.5605 8.5582 19.8138 8.5582C19.0538 8.5582 18.3871 8.7182 17.8138 9.0382C17.2538 9.3582 16.8205 9.7982 16.5138 10.3582C16.2071 10.9182 16.0538 11.5382 16.0538 12.2182C16.0538 12.8982 16.2071 13.5182 16.5138 14.0782C16.8205 14.6249 17.2538 15.0582 17.8138 15.3782C18.3871 15.6982 19.0538 15.8582 19.8138 15.8582ZM38.4997 13.4382C38.1931 14.6915 37.5464 15.6982 36.5597 16.4582C35.5864 17.2182 34.4397 17.5982 33.1197 17.5982C31.9997 17.5982 30.9931 17.3382 30.0997 16.8182C29.2064 16.2982 28.5064 15.5849 27.9997 14.6782C27.4931 13.7582 27.2397 12.7315 27.2397 11.5982C27.2397 10.4649 27.4864 9.44487 27.9797 8.5382C28.4864 7.6182 29.1864 6.8982 30.0797 6.3782C30.9731 5.8582 31.9731 5.5982 33.0797 5.5982C33.9597 5.5982 34.7731 5.7782 35.5197 6.1382C36.2797 6.48487 36.9131 6.97154 37.4197 7.5982C37.9264 8.22487 38.2731 8.93154 38.4597 9.7182H36.3597C36.1197 9.02487 35.7131 8.47154 35.1397 8.0582C34.5664 7.63154 33.8797 7.4182 33.0797 7.4182C32.3331 7.4182 31.6664 7.60487 31.0797 7.9782C30.5064 8.3382 30.0597 8.8382 29.7397 9.4782C29.4197 10.1049 29.2597 10.8115 29.2597 11.5982C29.2597 12.3849 29.4197 13.0982 29.7397 13.7382C30.0597 14.3649 30.5064 14.8649 31.0797 15.2382C31.6664 15.5982 32.3331 15.7782 33.0797 15.7782C33.8797 15.7782 34.5731 15.5649 35.1597 15.1382C35.7464 14.7115 36.1597 14.1449 36.3997 13.4382H38.4997ZM43.0833 5.8782V7.4982C43.4167 6.96487 43.8567 6.5182 44.4033 6.1582C44.9633 5.78487 45.6767 5.5982 46.5433 5.5982C47.3833 5.5982 48.1167 5.81154 48.7433 6.2382C49.37 6.66487 49.8233 7.25154 50.1033 7.9982C50.45 7.26487 50.9767 6.68487 51.6833 6.2582C52.39 5.8182 53.2167 5.5982 54.1633 5.5982C54.9767 5.5982 55.6967 5.7982 56.3233 6.1982C56.9633 6.58487 57.4633 7.1382 57.8233 7.8582C58.1833 8.5782 58.3633 9.41154 58.3633 10.3582V17.3182H56.3033V10.6982C56.3033 9.67154 56.07 8.86487 55.6033 8.2782C55.1367 7.69154 54.4967 7.3982 53.6833 7.3982C53.1233 7.3982 52.6167 7.56487 52.1633 7.8982C51.71 8.23154 51.3567 8.68487 51.1033 9.2582C50.85 9.83154 50.7233 10.4649 50.7233 11.1582V17.3182H48.6633V10.7782C48.6633 9.71154 48.43 8.88487 47.9633 8.2982C47.4967 7.6982 46.8567 7.3982 46.0433 7.3982C45.4833 7.3982 44.9767 7.56487 44.5233 7.8982C44.0833 8.23154 43.73 8.68487 43.4633 9.2582C43.21 9.83154 43.0833 10.4582 43.0833 11.1382V17.3182H41.0233V5.8782H43.0833ZM70.4822 4.6382L72.9022 5.7182L72.1022 7.0982L69.9622 5.5382L70.2222 8.1982H68.6222L68.8822 5.5582L66.7222 7.0982L65.9422 5.7182L68.3622 4.6382L65.9422 3.5382L66.7422 2.1582L68.8822 3.7182L68.6222 1.0582H70.2222L69.9622 3.7182L72.1222 2.1782L72.9022 3.5382L70.4822 4.6382ZM80.1489 15.9582L85.8289 10.2582C86.8423 9.23154 87.5689 8.37154 88.0089 7.6782C88.4489 6.97154 88.6689 6.33154 88.6689 5.7582C88.6689 4.82487 88.3756 4.0982 87.7889 3.5782C87.2023 3.04487 86.4023 2.7782 85.3889 2.7782C84.6956 2.7782 84.0956 2.9382 83.5889 3.2582C83.0956 3.56487 82.7156 3.9782 82.4489 4.4982C82.1956 5.0182 82.0689 5.58487 82.0689 6.1982H79.9689C79.9689 5.22487 80.1889 4.3382 80.6289 3.5382C81.0823 2.7382 81.7223 2.10487 82.5489 1.6382C83.3756 1.1582 84.3289 0.918202 85.4089 0.918202C86.4756 0.918202 87.4089 1.1182 88.2089 1.5182C89.0223 1.9182 89.6489 2.48487 90.0889 3.2182C90.5289 3.95154 90.7489 4.79154 90.7489 5.7382C90.7489 6.5782 90.4956 7.41154 89.9889 8.2382C89.4823 9.06487 88.6089 10.1115 87.3689 11.3782L83.1689 15.4982H91.2889V17.3182H80.1489V15.9582ZM99.2339 17.6782C98.0873 17.6782 97.0673 17.3649 96.1739 16.7382C95.2806 16.1115 94.5806 15.1715 94.0739 13.9182C93.5673 12.6515 93.3139 11.1115 93.3139 9.2982C93.3139 7.48487 93.5673 5.95154 94.0739 4.6982C94.5806 3.43154 95.2806 2.48487 96.1739 1.8582C97.0673 1.23154 98.0873 0.918202 99.2339 0.918202C100.381 0.918202 101.394 1.23154 102.274 1.8582C103.167 2.48487 103.867 3.43154 104.374 4.6982C104.881 5.95154 105.134 7.48487 105.134 9.2982C105.134 11.1115 104.881 12.6515 104.374 13.9182C103.867 15.1715 103.167 16.1115 102.274 16.7382C101.394 17.3649 100.381 17.6782 99.2339 17.6782ZM99.2339 15.8182C99.9673 15.8182 100.627 15.5715 101.214 15.0782C101.801 14.5849 102.261 13.8515 102.594 12.8782C102.941 11.9049 103.114 10.7115 103.114 9.2982C103.114 7.8982 102.941 6.71154 102.594 5.7382C102.261 4.75154 101.801 4.01154 101.214 3.5182C100.627 3.02487 99.9673 2.7782 99.2339 2.7782C98.4873 2.7782 97.8206 3.02487 97.2339 3.5182C96.6473 4.01154 96.1806 4.75154 95.8339 5.7382C95.5006 6.71154 95.3339 7.8982 95.3339 9.2982C95.3339 10.7115 95.5006 11.9049 95.8339 12.8782C96.1806 13.8515 96.6473 14.5849 97.2339 15.0782C97.8206 15.5715 98.4873 15.8182 99.2339 15.8182ZM118.441 13.4382C118.134 14.6915 117.488 15.6982 116.501 16.4582C115.528 17.2182 114.381 17.5982 113.061 17.5982C111.941 17.5982 110.934 17.3382 110.041 16.8182C109.148 16.2982 108.448 15.5849 107.941 14.6782C107.434 13.7582 107.181 12.7315 107.181 11.5982C107.181 10.4649 107.428 9.44487 107.921 8.5382C108.428 7.6182 109.128 6.8982 110.021 6.3782C110.914 5.8582 111.914 5.5982 113.021 5.5982C113.901 5.5982 114.714 5.7782 115.461 6.1382C116.221 6.48487 116.854 6.97154 117.361 7.5982C117.868 8.22487 118.214 8.93154 118.401 9.7182H116.301C116.061 9.02487 115.654 8.47154 115.081 8.0582C114.508 7.63154 113.821 7.4182 113.021 7.4182C112.274 7.4182 111.608 7.60487 111.021 7.9782C110.448 8.3382 110.001 8.8382 109.681 9.4782C109.361 10.1049 109.201 10.8115 109.201 11.5982C109.201 12.3849 109.361 13.0982 109.681 13.7382C110.001 14.3649 110.448 14.8649 111.021 15.2382C111.608 15.5982 112.274 15.7782 113.021 15.7782C113.821 15.7782 114.514 15.5649 115.101 15.1382C115.688 14.7115 116.101 14.1449 116.341 13.4382H118.441ZM123.025 5.8782V7.4982C123.358 6.96487 123.798 6.5182 124.345 6.1582C124.905 5.78487 125.618 5.5982 126.485 5.5982C127.325 5.5982 128.058 5.81154 128.685 6.2382C129.311 6.66487 129.765 7.25154 130.045 7.9982C130.391 7.26487 130.918 6.68487 131.625 6.2582C132.331 5.8182 133.158 5.5982 134.105 5.5982C134.918 5.5982 135.638 5.7982 136.265 6.1982C136.905 6.58487 137.405 7.1382 137.765 7.8582C138.125 8.5782 138.305 9.41154 138.305 10.3582V17.3182H136.245V10.6982C136.245 9.67154 136.011 8.86487 135.545 8.2782C135.078 7.69154 134.438 7.3982 133.625 7.3982C133.065 7.3982 132.558 7.56487 132.105 7.8982C131.651 8.23154 131.298 8.68487 131.045 9.2582C130.791 9.83154 130.665 10.4649 130.665 11.1582V17.3182H128.605V10.7782C128.605 9.71154 128.371 8.88487 127.905 8.2982C127.438 7.6982 126.798 7.3982 125.985 7.3982C125.425 7.3982 124.918 7.56487 124.465 7.8982C124.025 8.23154 123.671 8.68487 123.405 9.2582C123.151 9.83154 123.025 10.4582 123.025 11.1382V17.3182H120.965V5.8782H123.025Z" fill="#1A1A1A"/>
</svg>
