<svg width="611" height="169" viewBox="0 0 611 169" fill="none" xmlns="http://www.w3.org/2000/svg">
<path d="M-0.00878906 6.89453L1.3623 2.11328H2.66309L1.69629 6.89453H-0.00878906ZM3.33105 6.89453L4.70215 2.11328H6.00293L5.03613 6.89453H3.33105ZM22.2697 1.26953V1.88477C22.2697 2.78125 22.2697 4.3457 21.8127 6.41992L20.4768 6.24414C20.8371 4.5127 20.8986 3.28223 20.9162 2.41211H16.9611V1.26953H22.2697ZM23.8869 7.36914V8.51172H9.66621V7.36914H16.3986V4.66211H17.7697V7.36914H23.8869ZM15.6604 1.26953V1.84961C15.6604 2.72852 15.6604 4.31055 14.9396 6.41992L13.5861 6.19141C14.1662 4.47754 14.2805 3.26465 14.3068 2.41211H10.8967V1.26953H15.6604ZM22.0061 10.6738V11.7812H17.4533C17.6379 13.4248 20.0725 14.8047 22.6564 15.1387L22.1467 16.1934C19.8264 15.8506 17.673 14.7783 16.7502 13.2227C15.8273 14.7695 13.6828 15.8506 11.3713 16.1934L10.8791 15.1387C13.4279 14.8047 15.8449 13.4248 16.0471 11.7812H11.4943V10.6738H16.0646V9.05664H17.4357V10.6738H22.0061ZM41.2436 8.89844V10.0234H27.0053V8.89844H41.2436ZM39.6615 14.7871V15.9473H28.851V11.3945H30.2396V14.7871H39.6615ZM34.1244 1.2168C37.4818 1.19922 39.6439 2.35938 39.6439 4.31055C39.6439 6.26172 37.4818 7.42188 34.1244 7.42188C30.7318 7.42188 28.5873 6.26172 28.5873 4.31055C28.5873 2.35938 30.7318 1.19922 34.1244 1.2168ZM34.1244 2.32422C31.6107 2.32422 29.9936 3.08008 30.0111 4.31055C29.9936 5.54102 31.6107 6.29688 34.1244 6.29688C36.6205 6.29688 38.2377 5.54102 38.2377 4.31055C38.2377 3.08008 36.6205 2.32422 34.1244 2.32422ZM65.3045 6.89453V8.05469H62.7732V16.2812H61.4021V0.654297H62.7732V6.89453H65.3045ZM52.701 2.20117V11.1484C54.9861 11.1396 57.3152 10.9639 59.8904 10.4277L60.0662 11.6055C57.3768 12.1504 54.951 12.3086 52.5779 12.3086H51.3299V2.20117H52.701ZM79.6447 5.45312C79.6272 7.9668 81.4377 10.7266 83.7053 11.7988L82.9143 12.8887C81.1564 12.0361 79.6711 10.1729 78.9768 8.05469C78.2561 10.3574 76.6828 12.3789 74.9338 13.2754L74.09 12.1855C76.34 11.0957 78.2736 8.125 78.2912 5.45312V3.41406H74.6525V2.27148H83.1604V3.41406H79.6447V5.45312ZM86.4475 0.654297V6.98242H89.0666V8.16016H86.4475V16.2812H85.0764V0.654297H86.4475ZM104.613 0.671875V12.1328H103.242V0.671875H104.613ZM105.105 14.7871V15.9473H94.5229V11.0781H95.8939V14.7871H105.105ZM97.2475 3.11523C97.2299 5.48828 98.8646 7.63281 101.185 8.47656L100.464 9.58398C98.6537 8.88965 97.2475 7.4834 96.5619 5.68164C95.8676 7.59766 94.4437 9.13574 92.6244 9.86523L91.8686 8.79297C94.2416 7.87891 95.8412 5.57617 95.8412 3.11523V1.55078H97.2475V3.11523ZM121.952 0.654297V16.3164H120.563V0.654297H121.952ZM113.637 1.86719C115.958 1.88477 117.628 3.99414 117.628 7.31641C117.628 10.6387 115.958 12.748 113.637 12.748C111.299 12.748 109.647 10.6387 109.647 7.31641C109.647 3.99414 111.299 1.88477 113.637 1.86719ZM113.637 3.09766C112.073 3.11523 110.983 4.76758 110.983 7.31641C110.983 9.86523 112.073 11.5176 113.637 11.5176C115.202 11.5176 116.292 9.86523 116.292 7.31641C116.292 4.76758 115.202 3.11523 113.637 3.09766ZM138.517 0.654297V6.8418H141.137V8.00195H138.517V16.3164H137.146V0.654297H138.517ZM134.404 2.18359V3.32617H128.48V11.2363C131.31 11.2363 133.314 11.1045 135.635 10.6738L135.81 11.8691C133.367 12.3086 131.31 12.3965 128.34 12.3965H127.109V2.18359H134.404ZM145.433 14.9629C144.817 14.9629 144.29 14.4531 144.308 13.8203C144.29 13.2051 144.817 12.6953 145.433 12.6953C146.048 12.6953 146.558 13.2051 146.558 13.8203C146.558 14.4531 146.048 14.9629 145.433 14.9629ZM20.5646 43.1172V44.2773H6.25605V43.1172H12.7072V39.3203H14.0959V43.1172H20.5646ZM14.0959 33.625C14.0959 36.1211 17.1896 38.2656 19.8791 38.7051L19.3166 39.7949C16.926 39.3291 14.4035 37.8086 13.4104 35.6289C12.3996 37.8174 9.88594 39.373 7.53926 39.8652L6.95918 38.7578C9.5959 38.3008 12.6721 36.1211 12.6721 33.625V33.2383H7.43379V32.0781H19.3342V33.2383H14.0959V33.625ZM36.5678 30.6543V39.918H35.1791V37.457H31.5229V38.793H24.351V31.8496H31.5229V33.2031H35.1791V30.6543H36.5678ZM25.7221 32.9746V37.668H30.1693V32.9746H25.7221ZM31.3822 40.375C34.6342 40.375 36.6205 41.4473 36.6205 43.3281C36.6205 45.1914 34.6342 46.2461 31.3822 46.2461C28.1303 46.2461 26.1439 45.1914 26.1439 43.3281C26.1439 41.4473 28.1303 40.375 31.3822 40.375ZM31.3822 41.4473C28.9916 41.4648 27.4975 42.1504 27.515 43.3281C27.4975 44.4531 28.9916 45.1562 31.3822 45.1562C33.7729 45.1562 35.2494 44.4531 35.2494 43.3281C35.2494 42.1504 33.7729 41.4648 31.3822 41.4473ZM31.5229 36.2969H35.1791V34.3457H31.5229V36.2969ZM53.8541 30.6543V46.3164H52.4654V30.6543H53.8541ZM45.5396 31.8672C47.86 31.8848 49.5299 33.9941 49.5299 37.3164C49.5299 40.6387 47.86 42.748 45.5396 42.748C43.2018 42.748 41.5494 40.6387 41.5494 37.3164C41.5494 33.9941 43.2018 31.8848 45.5396 31.8672ZM45.5396 33.0977C43.9752 33.1152 42.8854 34.7676 42.8854 37.3164C42.8854 39.8652 43.9752 41.5176 45.5396 41.5176C47.1041 41.5176 48.1939 39.8652 48.1939 37.3164C48.1939 34.7676 47.1041 33.1152 45.5396 33.0977ZM77.5283 30.6543V46.3164H76.1396V30.6543H77.5283ZM66.9287 31.9902V36.1211H71.5869V31.9902H72.9404V42.5371H65.5576V31.9902H66.9287ZM66.9287 41.377H71.5869V37.2285H66.9287V41.377ZM87.7658 33.5547C87.7658 35.1191 89.3303 36.4727 91.5275 36.9473L90.9299 38.0371C89.1457 37.5889 87.757 36.6221 87.0979 35.3301C86.4387 36.7363 85.0236 37.7822 83.1779 38.248L82.5803 37.1934C84.7775 36.6836 86.342 35.2246 86.342 33.5547V33.502H82.9143V32.3945H86.3772V30.707H87.7482V32.3945H91.176V33.502H87.7658V33.5547ZM94.9377 30.6719V46.2988H93.5314V42.6777H89.9279V41.5703H93.5314V30.6719H94.9377ZM81.9299 39.2676C84.9006 39.2852 88.8557 39.25 92.301 38.7578L92.3889 39.8125C90.842 40.0762 89.2512 40.2344 87.6955 40.3223V45.8066H86.3068V40.3926C84.8127 40.4453 83.3801 40.4541 82.1232 40.4453L81.9299 39.2676ZM112.242 30.6543V38.7754H110.888V30.6543H112.242ZM112.259 39.5312V43.2578H103.488V44.998H112.822V46.1055H102.134V42.2207H110.888V40.6211H102.099V39.5312H112.259ZM104.982 32.8691C104.982 34.9082 106.652 36.6836 109.007 37.3867L108.322 38.459C106.476 37.8789 105.008 36.6396 104.314 35.0312C103.637 36.7891 102.143 38.1602 100.236 38.793L99.5854 37.7031C101.923 36.9297 103.593 35.0137 103.593 32.8691V32.6934H99.9369V31.5508H108.585V32.6934H104.982V32.8691ZM133.385 31.0059V37.0527H135.283V30.6543H136.601V46.2812H135.283V38.1953H133.385V45.5078H132.101V31.0059H133.385ZM126.898 32.6406V33.7832H124.789V41.0254C125.378 41.0078 126.151 40.9375 127.004 40.7266L127.127 41.9043C125.808 42.2031 124.789 42.2031 124.121 42.2031H123.506V32.6406H126.898ZM131.047 32.6406V33.7832H128.832V41.0254C129.561 41.0166 130.431 40.9463 131.381 40.6738L131.504 41.8516C130.203 42.2031 129.131 42.2031 128.217 42.2031H127.584V32.6406H131.047ZM159.59 30.6543V46.3164H158.201V30.6543H159.59ZM148.99 31.9902V36.1211H153.649V31.9902H155.002V42.5371H147.619V31.9902H148.99ZM148.99 41.377H153.649V37.2285H148.99V41.377ZM178.371 43.1875V44.3477H164.062V43.1875H170.496V40.2344H165.855V35.418H175.206V32.957H165.82V31.8145H176.56V36.543H167.226V39.0918H176.929V40.2344H171.849V43.1875H178.371ZM195.727 43.0996V44.2422H181.419V43.0996H187.817V39.2676H189.171V43.0996H195.727ZM189.206 32.9219C189.206 35.541 192.299 37.8262 195.024 38.3008L194.409 39.4434C192.027 38.96 189.513 37.3428 188.503 35.084C187.474 37.334 184.978 38.96 182.596 39.4434L181.981 38.3008C184.706 37.8262 187.764 35.541 187.764 32.9219V31.7266H189.206V32.9219ZM217.415 32.3242V33.8887C217.415 35.8574 217.415 38.0898 216.835 41.4824L215.429 41.3418C216.062 38.1426 216.062 35.8047 216.062 33.8887V33.4668H206.64V32.3242H217.415ZM219.331 42.8359V43.9785H205.093V42.8359H219.331ZM232.951 31.8672C235.253 31.8848 236.888 33.9941 236.906 37.3164C236.888 40.6387 235.253 42.748 232.951 42.748C230.63 42.748 229.013 40.6387 229.013 37.3164C229.013 33.9941 230.63 31.8848 232.951 31.8672ZM232.951 33.0977C231.404 33.1152 230.314 34.7676 230.314 37.3164C230.314 39.8652 231.404 41.5176 232.951 41.5176C234.515 41.5176 235.57 39.8652 235.57 37.3164C235.57 34.7676 234.515 33.1152 232.951 33.0977ZM240.861 30.6543V36.8945H243.48V38.0898H240.861V46.2812H239.49V30.6543H240.861ZM260.415 38.7227V39.8652H246.106V38.7227H260.415ZM258.569 31.041V34.7324H249.34V36.2969H258.903V37.3691H247.969V33.6953H257.18V32.1484H247.917V31.041H258.569ZM258.569 41.2891V46.0703H248.057V41.2891H258.569ZM249.411 42.4141V44.9453H257.215V42.4141H249.411ZM275.574 30.6543V36.8418H278.193V38.002H275.574V46.3164H274.203V30.6543H275.574ZM271.461 32.1836V33.3262H265.537V41.2363C268.367 41.2363 270.371 41.1045 272.691 40.6738L272.867 41.8691C270.424 42.3086 268.367 42.3965 265.396 42.3965H264.166V32.1836H271.461ZM287.956 30.9531C291.349 30.9531 293.476 32.043 293.476 33.9062C293.476 35.7344 291.349 36.8066 287.956 36.8066C284.563 36.8066 282.419 35.7344 282.419 33.9062C282.419 32.043 284.563 30.9531 287.956 30.9531ZM287.956 32.043C285.425 32.043 283.825 32.7285 283.843 33.9062C283.825 35.0488 285.425 35.7168 287.956 35.7168C290.452 35.7168 292.069 35.0488 292.069 33.9062C292.069 32.7285 290.452 32.043 287.956 32.043ZM293.335 40.9375V46.0703H282.577V40.9375H287.271V39.1445H280.837V38.002H295.075V39.1445H288.624V40.9375H293.335ZM283.948 42.0449V44.9453H291.981V42.0449H283.948ZM311.078 30.6543V46.3164H309.69V30.6543H311.078ZM302.764 31.8672C305.084 31.8848 306.754 33.9941 306.754 37.3164C306.754 40.6387 305.084 42.748 302.764 42.748C300.426 42.748 298.774 40.6387 298.774 37.3164C298.774 33.9941 300.426 31.8848 302.764 31.8672ZM302.764 33.0977C301.199 33.1152 300.11 34.7676 300.11 37.3164C300.11 39.8652 301.199 41.5176 302.764 41.5176C304.328 41.5176 305.418 39.8652 305.418 37.3164C305.418 34.7676 304.328 33.1152 302.764 33.0977ZM334.489 38.1777V39.3203H323.696V32.1133H334.331V33.2559H325.067V38.1777H334.489ZM336.176 42.9941V44.1543H321.868V42.9941H336.176ZM352.162 30.6543V46.3164H350.791V37.8262H347.75V36.666H350.791V30.6543H352.162ZM346.801 32.1133V37.5801H341.193V41.377C343.883 41.377 345.834 41.2979 348.119 40.8672L348.224 42.0273C345.869 42.4492 343.847 42.5371 341.017 42.5547H339.822V36.4375H345.465V33.2559H339.769V32.1133H346.801ZM371.206 36.8945V38.0547H368.675V46.2812H367.304V30.6543H368.675V36.8945H371.206ZM358.603 32.2012V41.1484C360.888 41.1396 363.217 40.9639 365.792 40.4277L365.968 41.6055C363.278 42.1504 360.853 42.3086 358.479 42.3086H357.231V32.2012H358.603ZM379.528 35.4531C379.528 38.1074 381.461 40.7969 383.764 41.7988L382.99 42.8887C381.162 42.0537 379.58 40.252 378.86 38.0898C378.121 40.3838 376.548 42.3789 374.764 43.2754L373.938 42.1855C376.17 41.1133 378.121 38.1602 378.139 35.4531V33.4141H374.447V32.2715H383.254V33.4141H379.528V35.4531ZM386.822 30.6543V46.2812H385.434V30.6543H386.822ZM399.187 32.0781V39.2676H391.962V32.0781H399.187ZM393.316 33.2031V38.1602H397.851V33.2031H393.316ZM403.511 30.6543V35.418H405.867V36.5781H403.511V42.1152H402.14V30.6543H403.511ZM404.232 44.7871V45.9473H393.738V41.0254H395.091V44.7871H404.232ZM411.217 43.6797L409.846 48.4609H408.546L409.512 43.6797H411.217ZM435.63 38.3887V39.4961H421.374V38.3887H427.825V36.5605H423.185V31.3926H433.854V32.5H424.538V35.4355H433.96V36.5605H429.161V38.3887H435.63ZM428.493 40.6387C431.851 40.6387 433.854 41.6582 433.872 43.4512C433.854 45.2617 431.851 46.2637 428.493 46.2812C425.118 46.2637 423.097 45.2617 423.097 43.4512C423.097 41.6582 425.118 40.6387 428.493 40.6387ZM428.493 41.7285C425.979 41.7285 424.485 42.3789 424.503 43.4512C424.485 44.541 425.979 45.1738 428.493 45.1738C430.972 45.1738 432.483 44.541 432.483 43.4512C432.483 42.3789 430.972 41.7285 428.493 41.7285ZM444.285 34.8555C444.268 37.7031 446.219 40.5859 448.522 41.623L447.678 42.7129C445.903 41.8428 444.364 40.0059 443.617 37.7734C442.888 40.1377 441.35 42.1064 439.522 43.0293L438.643 41.8691C440.963 40.7969 442.897 37.8262 442.914 34.8555V32.0078H444.285V34.8555ZM451.615 30.6543V46.3164H450.227V30.6543H451.615ZM469.482 30.6543V46.2812H468.146V30.6543H469.482ZM466.335 30.9883V45.4902H465.017V37.8965H463.013C462.864 40.9375 461.572 42.8359 459.638 42.8359C457.599 42.8359 456.281 40.7266 456.281 37.4043C456.281 34.082 457.599 31.9727 459.638 31.9727C461.537 31.9727 462.82 33.8096 462.996 36.7539H465.017V30.9883H466.335ZM459.638 33.2734C458.372 33.2734 457.564 34.8555 457.581 37.4043C457.564 39.9355 458.372 41.5352 459.638 41.5176C460.904 41.5352 461.712 39.9355 461.712 37.4043C461.712 34.8555 460.904 33.2734 459.638 33.2734ZM492.084 32.3242V33.8887C492.084 35.8574 492.084 38.0898 491.504 41.4824L490.097 41.3418C490.73 38.1426 490.73 35.8047 490.73 33.8887V33.4668H481.308V32.3242H492.084ZM494 42.8359V43.9785H479.762V42.8359H494ZM510.021 30.6719V39.9355H508.649V30.6719H510.021ZM505.046 31.6211V35.8574H499.28V38.0195C502.075 38.0371 504.167 37.9492 506.698 37.5273L506.856 38.6875C504.237 39.0918 502.093 39.1797 499.21 39.1797H497.944V34.7676H503.675V32.7285H497.909V31.6211H505.046ZM510.021 40.7793V46.0703H499.86V40.7793H510.021ZM501.214 41.9043V44.9453H508.667V41.9043H501.214ZM519.766 35.4531C519.748 37.9668 521.559 40.7266 523.826 41.7988L523.035 42.8887C521.278 42.0361 519.792 40.1729 519.098 38.0547C518.377 40.3574 516.804 42.3789 515.055 43.2754L514.211 42.1855C516.461 41.0957 518.395 38.125 518.412 35.4531V33.4141H514.774V32.2715H523.281V33.4141H519.766V35.4531ZM526.569 30.6543V36.9824H529.188V38.1602H526.569V46.2812H525.197V30.6543H526.569ZM544.453 37.9844V39.1094H539.619V43.1523H546.14V44.3125H531.831V43.1523H538.265V39.1094H533.66V31.9375H544.294V33.0625H535.048V37.9844H544.453ZM560.164 33.7656C560.164 35.4883 561.377 37.2461 563.381 38.002L562.66 39.0566C561.157 38.4766 560.076 37.3604 559.513 36.0156C558.933 37.5098 557.817 38.8369 556.279 39.4961L555.523 38.4238C557.58 37.5273 558.846 35.5059 558.846 33.7656V31.6387H560.164V33.7656ZM568.777 30.6719V40.3223H567.459V36.0156H565.385V39.8301H564.084V30.9707H565.385V34.873H567.459V30.6719H568.777ZM563.609 40.6738C566.844 40.6738 568.865 41.6934 568.865 43.4688C568.865 45.2266 566.844 46.2461 563.609 46.2461C560.357 46.2461 558.353 45.2266 558.371 43.4688C558.353 41.6934 560.357 40.6738 563.609 40.6738ZM563.609 41.7285C561.219 41.7285 559.724 42.3789 559.742 43.4688C559.724 44.541 561.219 45.1738 563.609 45.1738C565.982 45.1738 567.476 44.541 567.494 43.4688C567.476 42.3789 565.982 41.7285 563.609 41.7285ZM585.747 30.6719V42.0273H584.358V30.6719H585.747ZM581.212 31.8496C581.194 35.8926 578.276 38.8984 573.688 40.3223L573.126 39.1973C576.914 38.0459 579.384 35.8047 579.683 33.0098H573.952V31.8496H581.212ZM586.169 44.7871V45.9473H575.569V41.0957H576.958V44.7871H586.169ZM602.313 30.6543V36.8418H604.932V38.002H602.313V46.3164H600.942V30.6543H602.313ZM598.199 32.1836V33.3262H592.276V41.2363C595.106 41.2363 597.11 41.1045 599.43 40.6738L599.606 41.8691C597.162 42.3086 595.106 42.3965 592.135 42.3965H590.904V32.1836H598.199ZM609.228 44.9629C608.613 44.9629 608.085 44.4531 608.103 43.8203C608.085 43.2051 608.613 42.6953 609.228 42.6953C609.843 42.6953 610.353 43.2051 610.353 43.8203C610.353 44.4531 609.843 44.9629 609.228 44.9629ZM18.5783 62.3242V63.8887C18.5783 65.8574 18.5783 68.0898 17.9982 71.4824L16.592 71.3418C17.2248 68.1426 17.2248 65.8047 17.2248 63.8887V63.4668H7.80293V62.3242H18.5783ZM20.4943 72.8359V73.9785H6.25605V72.8359H20.4943ZM36.515 60.6719V69.9355H35.1439V60.6719H36.515ZM31.5404 61.6211V65.8574H25.7748V68.0195C28.5697 68.0371 30.6615 67.9492 33.1928 67.5273L33.351 68.6875C30.7318 69.0918 28.5873 69.1797 25.7045 69.1797H24.4389V64.7676H30.1693V62.7285H24.4037V61.6211H31.5404ZM36.515 70.7793V76.0703H26.3549V70.7793H36.515ZM27.7084 71.9043V74.9453H35.1615V71.9043H27.7084ZM46.2604 65.4531C46.2428 67.9668 48.0533 70.7266 50.3209 71.7988L49.5299 72.8887C47.7721 72.0361 46.2867 70.1729 45.5924 68.0547C44.8717 70.3574 43.2984 72.3789 41.5494 73.2754L40.7057 72.1855C42.9557 71.0957 44.8893 68.125 44.9068 65.4531V63.4141H41.2682V62.2715H49.776V63.4141H46.2604V65.4531ZM53.0631 60.6543V66.9824H55.6822V68.1602H53.0631V76.2812H51.692V60.6543H53.0631ZM70.9646 65.4004V66.5078H60.2596V61.2344H61.6307V65.4004H70.9646ZM72.617 68.6348V69.7598H58.3084V68.6348H72.617ZM71.0525 74.752V75.8945H60.1717V71.3594H61.5428V74.752H71.0525ZM95.342 60.6543V76.2812H93.9885V68.1953H91.7385V75.4727H90.4377V61.0059H91.7385V67.0176H93.9885V60.6543H95.342ZM84.1623 62.5703V71.0078C85.718 70.9902 87.3703 70.8848 89.2775 70.498L89.4533 71.7285C87.2736 72.1152 85.4807 72.2383 83.758 72.2383H82.7912V62.5703H84.1623ZM111.451 60.6543V67.0176H113.982V68.1777H111.451V76.2812H110.079V60.6543H111.451ZM107.408 62.3418C107.408 66.7715 105.333 70.7969 100.236 73.3105L99.4623 72.2207C103.505 70.208 105.703 67.2021 106.019 63.502H100.183V62.3418H107.408ZM128.146 61.6738C130.607 61.6914 132.347 63.168 132.347 65.3477C132.347 67.3164 130.924 68.7139 128.832 68.9512V71.623C130.379 71.5439 131.952 71.4121 133.437 71.1836L133.543 72.2031C129.974 72.8711 126.125 72.8887 123.312 72.8887L123.119 71.7285C124.393 71.7285 125.879 71.7285 127.443 71.6758V68.9512C125.351 68.7051 123.91 67.3164 123.928 65.3477C123.91 63.168 125.685 61.6914 128.146 61.6738ZM128.146 62.8867C126.476 62.8867 125.263 63.8887 125.281 65.3477C125.263 66.8066 126.476 67.8262 128.146 67.8086C129.799 67.8262 130.994 66.8066 130.994 65.3477C130.994 63.8887 129.799 62.8867 128.146 62.8867ZM135.846 60.6543V76.3164H134.474V60.6543H135.846ZM148.298 62.0254V63.4141H151.954V60.6719H153.343V72.0801H151.954V67.9141H148.298V69.3203H141.126V62.0254H148.298ZM142.497 63.168V68.2129H146.944V63.168H142.497ZM153.694 74.7871V75.9473H143.235V71.0605H144.624V74.7871H153.694ZM148.298 66.7715H151.954V64.5742H148.298V66.7715ZM169.838 60.6543V67.1055H172.457V68.248H169.838V76.2812H168.467V60.6543H169.838ZM166.955 63.168V64.3105H157.656V63.168H161.682V60.8477H163.053V63.168H166.955ZM162.385 65.6113C164.6 65.6113 166.199 67.0879 166.217 69.1973C166.199 71.3066 164.6 72.7832 162.385 72.7832C160.153 72.7832 158.535 71.3066 158.553 69.1973C158.535 67.0879 160.153 65.6113 162.385 65.6113ZM162.385 66.7715C160.926 66.7715 159.854 67.791 159.871 69.1973C159.854 70.6211 160.926 71.623 162.385 71.6055C163.826 71.623 164.881 70.6211 164.899 69.1973C164.881 67.791 163.826 66.7715 162.385 66.7715ZM187.634 62.2363V63.8008C187.617 65.7168 187.617 67.8613 187.054 71.0078L185.648 70.8496C186.246 67.8613 186.246 65.6641 186.246 63.8008V63.3789H176.613V62.2363H187.634ZM189.339 72.9238V74.0664H175.101V72.9238H180.691V67.334H182.044V72.9238H189.339ZM211.678 60.6719V69.3555H210.306V60.6719H211.678ZM204.312 62.7812C204.295 64.9434 205.982 66.8945 208.303 67.6504L207.635 68.7402C205.789 68.1162 204.33 66.8154 203.627 65.1191C202.924 66.9385 201.447 68.3623 199.584 69.0215L198.881 67.9316C201.236 67.1055 202.906 65.0488 202.906 62.7812V61.252H204.312V62.7812ZM211.783 70.2871V71.4121H209.621V74.9453H211.941V76.0703H201.131V74.9453H203.469V71.4121H201.271V70.2871H211.783ZM204.822 74.9453H208.25V71.4121H204.822V74.9453ZM221.511 71.1309C221.511 72.5283 222.249 74.0049 223.743 74.8574C225.237 73.9258 226.011 72.335 226.011 71.1309V70.1816H227.364V71.1309C227.364 72.748 228.524 74.3652 230.563 75.0508L229.843 76.0879C228.287 75.5254 227.197 74.4268 226.679 73.0996C226.178 74.3828 225.22 75.5869 223.761 76.2109C222.258 75.6396 221.3 74.4795 220.825 73.1699C220.263 74.4268 219.19 75.5166 217.696 76.0879L217.011 75.0508C218.997 74.3301 220.175 72.6426 220.192 71.1309V70.1816H221.511V71.1309ZM220.438 61.5508C222.495 61.5508 224.104 62.7812 224.411 64.5918H227.698V60.6543H229.087V69.584H227.698V65.7344H224.429C224.156 67.6064 222.53 68.8633 220.438 68.8633C218.101 68.8633 216.396 67.3691 216.396 65.207C216.396 63.0625 218.101 61.5508 220.438 61.5508ZM220.438 62.7285C218.874 62.7109 217.714 63.748 217.731 65.207C217.714 66.6484 218.874 67.7031 220.438 67.7207C221.968 67.7031 223.128 66.6484 223.128 65.207C223.128 63.748 221.968 62.7109 220.438 62.7285ZM241.592 61.9727V63.1152H235.756V68.6348C238.56 68.6348 240.37 68.5381 242.471 68.125L242.647 69.2676C240.414 69.6543 238.516 69.7773 235.58 69.7773H234.403V61.9727H241.592ZM246.444 60.6719V72.0801H245.055V66.1387H240.572V65.0137H245.055V60.6719H246.444ZM246.865 74.9102V76.0352H236.371V71.2188H237.76V74.9102H246.865ZM269.379 60.6543V64.4863H271.735V65.6289H269.379V69.5312H268.008V60.6543H269.379ZM265.108 61.6738C265.09 65.6113 262.331 68.4238 257.708 69.6895L257.145 68.582C260.995 67.5449 263.341 65.4619 263.631 62.8164H257.848V61.6738H265.108ZM269.379 70.252V76.0703H259.483V70.252H269.379ZM260.854 71.3945V74.9453H268.008V71.3945H260.854ZM287.474 60.6543V69.9707H286.086V65.875H282.939V64.7324H286.086V60.6543H287.474ZM282.289 70.4629C285.541 70.4629 287.527 71.5176 287.527 73.3633C287.527 75.209 285.541 76.2637 282.289 76.2812C279.037 76.2637 277.051 75.209 277.051 73.3633C277.051 71.5176 279.037 70.4629 282.289 70.4629ZM282.289 71.5352C279.898 71.5352 278.404 72.2207 278.422 73.3633C278.404 74.4883 279.898 75.1738 282.289 75.1738C284.68 75.1738 286.156 74.4883 286.156 73.3633C286.156 72.2207 284.68 71.5352 282.289 71.5352ZM279.951 63.5195C279.951 65.5586 281.515 67.4922 283.801 68.2832L283.08 69.3906C281.322 68.7578 279.96 67.4482 279.301 65.8223C278.615 67.6592 277.165 69.127 275.31 69.8301L274.59 68.7227C276.91 67.8789 278.562 65.7695 278.562 63.5371V62.957H275.029V61.7969H283.449V62.957H279.951V63.5195ZM294.442 73.6797L293.071 78.4609H291.771L292.737 73.6797H294.442ZM317.097 70.9375V76.0703H306.339V70.9375H311.033V69.0039H304.599V67.8438H318.837V69.0039H312.404V70.9375H317.097ZM307.71 72.0449V74.9453H315.744V72.0449H307.71ZM312.439 61.5508C312.439 63.502 315.287 65.2422 318.029 65.5938L317.519 66.6836C315.093 66.3232 312.72 65.084 311.736 63.3262C310.734 65.1016 308.343 66.3232 305.935 66.6836L305.408 65.5938C308.185 65.2246 311.015 63.5371 311.015 61.5508V60.8125H312.439V61.5508ZM334.876 60.6543V76.2812H333.487V60.6543H334.876ZM330.253 62.3594C330.235 66.8594 328.143 70.832 322.905 73.3457L322.149 72.2207C326.377 70.2168 328.53 67.2197 328.846 63.4844H322.87V62.3594H330.253ZM351.846 62.2363V63.8008C351.828 65.7168 351.828 67.8613 351.265 71.0078L349.859 70.8496C350.457 67.8613 350.457 65.6641 350.457 63.8008V63.3789H340.824V62.2363H351.846ZM353.551 72.9238V74.0664H339.312V72.9238H344.902V67.334H346.256V72.9238H353.551ZM375.889 60.6719V69.3555H374.518V60.6719H375.889ZM368.524 62.7812C368.506 64.9434 370.194 66.8945 372.514 67.6504L371.846 68.7402C370 68.1162 368.541 66.8154 367.838 65.1191C367.135 66.9385 365.658 68.3623 363.795 69.0215L363.092 67.9316C365.447 67.1055 367.117 65.0488 367.117 62.7812V61.252H368.524V62.7812ZM375.994 70.2871V71.4121H373.832V74.9453H376.153V76.0703H365.342V74.9453H367.68V71.4121H365.483V70.2871H375.994ZM369.033 74.9453H372.461V71.4121H369.033V74.9453ZM385.722 71.1309C385.722 72.5283 386.46 74.0049 387.954 74.8574C389.449 73.9258 390.222 72.335 390.222 71.1309V70.1816H391.576V71.1309C391.576 72.748 392.736 74.3652 394.775 75.0508L394.054 76.0879C392.498 75.5254 391.409 74.4268 390.89 73.0996C390.389 74.3828 389.431 75.5869 387.972 76.2109C386.469 75.6396 385.511 74.4795 385.037 73.1699C384.474 74.4268 383.402 75.5166 381.908 76.0879L381.222 75.0508C383.208 74.3301 384.386 72.6426 384.404 71.1309V70.1816H385.722V71.1309ZM384.65 61.5508C386.706 61.5508 388.315 62.7812 388.622 64.5918H391.91V60.6543H393.298V69.584H391.91V65.7344H388.64C388.368 67.6064 386.742 68.8633 384.65 68.8633C382.312 68.8633 380.607 67.3691 380.607 65.207C380.607 63.0625 382.312 61.5508 384.65 61.5508ZM384.65 62.7285C383.085 62.7109 381.925 63.748 381.943 65.207C381.925 66.6484 383.085 67.7031 384.65 67.7207C386.179 67.7031 387.339 66.6484 387.339 65.207C387.339 63.748 386.179 62.7109 384.65 62.7285ZM405.803 61.9727V63.1152H399.967V68.6348C402.771 68.6348 404.582 68.5381 406.682 68.125L406.858 69.2676C404.626 69.6543 402.727 69.7773 399.792 69.7773H398.614V61.9727H405.803ZM410.655 60.6719V72.0801H409.266V66.1387H404.784V65.0137H409.266V60.6719H410.655ZM411.077 74.9102V76.0352H400.583V71.2188H401.971V74.9102H411.077ZM435.683 73.1172V74.2773H421.374V73.1172H427.808V69.3027H423.062V61.9727H433.907V69.3027H429.161V73.1172H435.683ZM424.415 63.0801V68.1953H432.571V63.0801H424.415ZM441.912 70.041V71.8691H449.717V70.041H451.106V76.0703H440.541V70.041H441.912ZM441.912 74.9629H449.717V72.959H441.912V74.9629ZM452.969 67.791V68.9336H438.731V67.791H452.969ZM446.57 61.5684C446.57 63.502 449.418 65.2246 452.16 65.5762L451.651 66.6836C449.225 66.3232 446.852 65.084 445.867 63.3262C444.865 65.0928 442.475 66.3232 440.067 66.6836L439.539 65.5762C442.317 65.207 445.147 63.5547 445.147 61.5684V60.8301H446.57V61.5684ZM468.972 60.6543V76.3164H467.583V60.6543H468.972ZM460.658 61.8672C462.978 61.8848 464.648 63.9941 464.648 67.3164C464.648 70.6387 462.978 72.748 460.658 72.748C458.32 72.748 456.667 70.6387 456.667 67.3164C456.667 63.9941 458.32 61.8848 460.658 61.8672ZM460.658 63.0977C459.093 63.1152 458.003 64.7676 458.003 67.3164C458.003 69.8652 459.093 71.5176 460.658 71.5176C462.222 71.5176 463.312 69.8652 463.312 67.3164C463.312 64.7676 462.222 63.1152 460.658 63.0977ZM485.538 60.6543V66.8418H488.157V68.002H485.538V76.3164H484.167V60.6543H485.538ZM481.424 62.1836V63.3262H475.501V71.2363C478.331 71.2363 480.335 71.1045 482.655 70.6738L482.831 71.8691C480.387 72.3086 478.331 72.3965 475.36 72.3965H474.129V62.1836H481.424ZM492.453 74.9629C491.838 74.9629 491.31 74.4531 491.328 73.8203C491.31 73.2051 491.838 72.6953 492.453 72.6953C493.068 72.6953 493.578 73.2051 493.578 73.8203C493.578 74.4531 493.068 74.9629 492.453 74.9629ZM18.3498 90.6543V97.1055H20.9689V98.248H18.3498V106.281H16.9787V90.6543H18.3498ZM15.467 93.168V94.3105H6.16816V93.168H10.1936V90.8477H11.5646V93.168H15.467ZM10.8967 95.6113C13.1115 95.6113 14.7111 97.0879 14.7287 99.1973C14.7111 101.307 13.1115 102.783 10.8967 102.783C8.66426 102.783 7.04707 101.307 7.06465 99.1973C7.04707 97.0879 8.66426 95.6113 10.8967 95.6113ZM10.8967 96.7715C9.4377 96.7715 8.36543 97.791 8.38301 99.1973C8.36543 100.621 9.4377 101.623 10.8967 101.605C12.3381 101.623 13.3928 100.621 13.4104 99.1973C13.3928 97.791 12.3381 96.7715 10.8967 96.7715ZM29.2025 95.4531C29.2025 98.1074 31.1361 100.797 33.4389 101.799L32.6654 102.889C30.8373 102.054 29.2553 100.252 28.5346 98.0898C27.7963 100.384 26.223 102.379 24.4389 103.275L23.6127 102.186C25.8451 101.113 27.7963 98.1602 27.8139 95.4531V93.4141H24.1225V92.2715H32.9291V93.4141H29.2025V95.4531ZM36.4975 90.6543V106.281H35.1088V90.6543H36.4975ZM48.8619 92.0781V99.2676H41.6373V92.0781H48.8619ZM42.9908 93.2031V98.1602H47.526V93.2031H42.9908ZM53.1861 90.6543V95.418H55.5416V96.5781H53.1861V102.115H51.815V90.6543H53.1861ZM53.9068 104.787V105.947H43.4127V101.025H44.7662V104.787H53.9068ZM76.9658 92.3242V93.8887C76.9658 95.8574 76.9658 98.0898 76.3857 101.482L74.9795 101.342C75.6123 98.1426 75.6123 95.8047 75.6123 93.8887V93.4668H66.1904V92.3242H76.9658ZM78.8818 102.836V103.979H64.6436V102.836H78.8818ZM100.64 92.3242V93.8887C100.64 95.8574 100.64 98.0898 100.06 101.482L98.6537 101.342C99.2865 98.1426 99.2865 95.8047 99.2865 93.8887V93.4668H89.8646V92.3242H100.64ZM102.556 102.836V103.979H88.3178V102.836H102.556ZM118.577 90.6719V99.9355H117.206V90.6719H118.577ZM113.602 91.6211V95.8574H107.837V98.0195C110.631 98.0371 112.723 97.9492 115.254 97.5273L115.413 98.6875C112.794 99.0918 110.649 99.1797 107.766 99.1797H106.501V94.7676H112.231V92.7285H106.465V91.6211H113.602ZM118.577 100.779V106.07H108.417V100.779H118.577ZM109.77 101.904V104.945H117.223V101.904H109.77ZM128.322 95.4531C128.304 97.9668 130.115 100.727 132.383 101.799L131.592 102.889C129.834 102.036 128.348 100.173 127.654 98.0547C126.933 100.357 125.36 102.379 123.611 103.275L122.767 102.186C125.017 101.096 126.951 98.125 126.969 95.4531V93.4141H123.33V92.2715H131.838V93.4141H128.322V95.4531ZM135.125 90.6543V96.9824H137.744V98.1602H135.125V106.281H133.754V90.6543H135.125ZM159.66 100.727V106.281H158.272V101.834H149.149V100.727H159.66ZM159.66 90.6543V99.8652H158.272V97.6152H154.246C153.517 98.5029 152.365 99.0303 151.012 99.0215C148.674 99.0391 146.951 97.4922 146.951 95.2773C146.951 93.0977 148.674 91.5508 151.012 91.5508C152.357 91.5508 153.508 92.0781 154.246 92.957H158.272V90.6543H159.66ZM151.012 92.7285C149.412 92.7285 148.27 93.8008 148.27 95.2773C148.27 96.8066 149.412 97.8613 151.012 97.8613C152.541 97.8613 153.719 96.8066 153.719 95.2773C153.719 93.8008 152.541 92.7285 151.012 92.7285ZM154.862 96.4727H158.272V94.0996H154.862C154.985 94.4688 155.055 94.8555 155.055 95.2773C155.055 95.6992 154.985 96.1035 154.862 96.4727ZM169.617 94.8555C169.599 97.7031 171.55 100.586 173.853 101.623L173.009 102.713C171.234 101.843 169.696 100.006 168.949 97.7734C168.219 100.138 166.681 102.106 164.853 103.029L163.974 101.869C166.294 100.797 168.228 97.8262 168.246 94.8555V92.0078H169.617V94.8555ZM176.947 90.6543V106.316H175.558V90.6543H176.947ZM202.361 96.8945V98.0547H199.83V106.281H198.459V90.6543H199.83V96.8945H202.361ZM189.758 92.2012V101.148C192.043 101.14 194.372 100.964 196.947 100.428L197.123 101.605C194.433 102.15 192.008 102.309 189.635 102.309H188.387V92.2012H189.758ZM218.487 90.6543V106.281H217.151V90.6543H218.487ZM215.341 90.9883V105.49H214.022V97.8965H212.019C211.869 100.938 210.577 102.836 208.644 102.836C206.604 102.836 205.286 100.727 205.286 97.4043C205.286 94.082 206.604 91.9727 208.644 91.9727C210.542 91.9727 211.825 93.8096 212.001 96.7539H214.022V90.9883H215.341ZM208.644 93.2734C207.378 93.2734 206.569 94.8555 206.587 97.4043C206.569 99.9355 207.378 101.535 208.644 101.518C209.909 101.535 210.718 99.9355 210.718 97.4043C210.718 94.8555 209.909 93.2734 208.644 93.2734ZM235.826 90.6543V106.281H234.508V90.6543H235.826ZM232.539 91.0762V105.49H231.221V98.1953H227.916C226.958 100.015 225.455 101.623 223.276 102.906L222.467 101.904C225.868 99.8916 227.573 97.0703 227.828 93.8008H223.135V92.6582H229.199C229.191 94.1963 228.945 95.6816 228.426 97.0703H231.221V91.0762H232.539ZM245.308 94.8555C245.308 97.6855 247.119 100.533 249.386 101.57L248.56 102.695C246.785 101.781 245.317 99.9092 244.622 97.6855C243.928 100.023 242.46 102.027 240.685 102.977L239.788 101.869C242.074 100.744 243.902 97.7383 243.902 94.8555V92.0078H245.308V94.8555ZM252.761 90.6543V106.316H251.39V97.123H247.681V95.998H251.39V90.6543H252.761ZM276.365 90.6543V106.316H274.976V90.6543H276.365ZM265.765 91.9902V96.1211H270.424V91.9902H271.777V102.537H264.394V91.9902H265.765ZM265.765 101.377H270.424V97.2285H265.765V101.377ZM295.128 99.0918V100.234H280.819V99.0918H287.288V97.5273H282.683V93.8008H291.894V92.2363H282.63V91.1465H293.282V94.8379H284.054V96.4375H293.616V97.5273H288.642V99.0918H295.128ZM288.677 101.377C288.677 103.346 291.12 104.787 293.985 105.156L293.476 106.211C291.094 105.868 288.914 104.84 287.974 103.205C287.033 104.84 284.854 105.868 282.472 106.211L281.962 105.156C284.81 104.787 287.271 103.346 287.271 101.377V101.061H288.677V101.377ZM307.281 95.7871V96.9121H304.117V99.0918C305.576 99.0303 307.035 98.9248 308.389 98.7754L308.494 99.7949C305.137 100.252 301.41 100.357 298.475 100.357L298.264 99.2324C299.635 99.2236 301.173 99.2061 302.746 99.1445V96.9121H299.688V91.6738H307.158V92.8164H301.076V95.7871H307.281ZM311.078 90.6719V102.361H309.69V90.6719H311.078ZM311.588 104.787V105.947H300.936V101.553H302.307V104.787H311.588ZM334.823 90.6719V101.254H333.434V96.2266H330.006V95.0664H333.434V90.6719H334.823ZM329.936 91.9023C329.919 95.9102 327.247 98.793 322.747 100.234L322.131 99.127C325.867 97.9756 328.17 95.8047 328.46 93.0273H322.905V91.9023H329.936ZM330.428 100.604C330.428 102.889 332.924 104.594 335.684 105.086L335.104 106.193C332.801 105.745 330.683 104.541 329.76 102.713C328.802 104.55 326.658 105.771 324.329 106.229L323.766 105.139C326.526 104.664 329.057 102.906 329.075 100.604V99.8828H330.428V100.604ZM352.109 90.6543V106.316H350.721V90.6543H352.109ZM343.795 91.8672C346.115 91.8848 347.785 93.9941 347.785 97.3164C347.785 100.639 346.115 102.748 343.795 102.748C341.457 102.748 339.805 100.639 339.805 97.3164C339.805 93.9941 341.457 91.8848 343.795 91.8672ZM343.795 93.0977C342.23 93.1152 341.14 94.7676 341.14 97.3164C341.14 99.8652 342.23 101.518 343.795 101.518C345.359 101.518 346.449 99.8652 346.449 97.3164C346.449 94.7676 345.359 93.1152 343.795 93.0977ZM364.333 92.2188V94.416H368.165V90.6543H369.536V106.316H368.165V99.8652H364.333V102.326H357.214V92.2188H364.333ZM358.585 93.3086V101.219H362.997V93.3086H358.585ZM364.333 98.7227H368.165V95.5586H364.333V98.7227ZM376.504 103.68L375.133 108.461H373.832L374.799 103.68H376.504ZM401.286 96.8945V98.0547H398.754V106.281H397.383V90.6543H398.754V96.8945H401.286ZM388.682 92.2012V101.148C390.967 101.14 393.296 100.964 395.872 100.428L396.047 101.605C393.358 102.15 390.932 102.309 388.559 102.309H387.311V92.2012H388.682ZM409.133 91.7969C411.594 91.7969 413.334 93.291 413.334 95.4707C413.334 97.6504 411.594 99.1445 409.133 99.1445C406.672 99.1445 404.896 97.6504 404.914 95.4707C404.896 93.291 406.672 91.7969 409.133 91.7969ZM409.133 93.0098C407.463 93.0098 406.25 94.0117 406.267 95.4707C406.25 96.9297 407.463 97.9316 409.133 97.9316C410.785 97.9316 411.98 96.9297 411.98 95.4707C411.98 94.0117 410.785 93.0098 409.133 93.0098ZM416.832 90.6543V106.316H415.461V90.6543H416.832ZM404.105 101.693C406.988 101.693 410.961 101.676 414.424 101.166L414.529 102.186C410.961 102.854 407.111 102.871 404.299 102.871L404.105 101.693ZM432.121 91.2344C434.459 91.252 436.164 92.6582 436.164 94.6973C436.164 96.7363 434.459 98.1426 432.121 98.1426C429.748 98.1426 428.061 96.7363 428.061 94.6973C428.061 92.6582 429.748 91.252 432.121 91.2344ZM432.121 92.3945C430.557 92.3945 429.397 93.3438 429.414 94.6973C429.397 96.0684 430.557 97.0176 432.121 97.0176C433.668 97.0176 434.828 96.0684 434.828 94.6973C434.828 93.3438 433.668 92.3945 432.121 92.3945ZM440.594 90.6543V98.6875H439.223V90.6543H440.594ZM440.594 99.4434V103.205H431.822V104.963H441.156V106.07H430.469V102.168H439.223V100.551H430.434V99.4434H440.594ZM459.339 99.9355V101.061H452.818V106.281H451.464V101.061H445.031V99.9355H459.339ZM448.23 91.3047V93.4668H456.105V91.3047H457.494V98.0371H446.859V91.3047H448.23ZM448.23 96.9121H456.105V94.5918H448.23V96.9121ZM474.499 90.6543V96.8418H477.118V98.002H474.499V106.316H473.128V90.6543H474.499ZM470.385 92.1836V93.3262H464.462V101.236C467.292 101.236 469.296 101.104 471.616 100.674L471.792 101.869C469.348 102.309 467.292 102.396 464.321 102.396H463.09V92.1836H470.385ZM481.414 104.963C480.799 104.963 480.271 104.453 480.289 103.82C480.271 103.205 480.799 102.695 481.414 102.695C482.029 102.695 482.539 103.205 482.539 103.82C482.539 104.453 482.029 104.963 481.414 104.963ZM11.8811 124.012C11.8811 126.121 13.551 128.02 15.8889 128.758L15.1857 129.865C13.3664 129.25 11.9162 127.967 11.2131 126.314C10.5275 128.099 9.05977 129.505 7.20527 130.182L6.48457 129.074C8.82246 128.248 10.4924 126.227 10.4924 124.012V123.098H6.83613V121.973H15.4846V123.098H11.8811V124.012ZM19.1584 120.672V132.133H17.7873V120.672H19.1584ZM19.6506 134.787V135.947H9.06855V131.043H10.4396V134.787H19.6506ZM36.5678 120.654V129.971H35.1791V125.875H32.0326V124.732H35.1791V120.654H36.5678ZM31.3822 130.463C34.6342 130.463 36.6205 131.518 36.6205 133.363C36.6205 135.209 34.6342 136.264 31.3822 136.281C28.1303 136.264 26.1439 135.209 26.1439 133.363C26.1439 131.518 28.1303 130.463 31.3822 130.463ZM31.3822 131.535C28.9916 131.535 27.4975 132.221 27.515 133.363C27.4975 134.488 28.9916 135.174 31.3822 135.174C33.7729 135.174 35.2494 134.488 35.2494 133.363C35.2494 132.221 33.7729 131.535 31.3822 131.535ZM29.0443 123.52C29.0443 125.559 30.6088 127.492 32.8939 128.283L32.1732 129.391C30.4154 128.758 29.0531 127.448 28.3939 125.822C27.7084 127.659 26.2582 129.127 24.4037 129.83L23.683 128.723C26.0033 127.879 27.6557 125.77 27.6557 123.537V122.957H24.1225V121.797H32.5424V122.957H29.0443V123.52ZM53.1861 120.672V125.822H55.5416V126.982H53.1861V132.379H51.815V120.672H53.1861ZM50.3209 122.588V123.713H41.0045V122.588H44.9771V120.672H46.3482V122.588H50.3209ZM45.6627 124.574C47.8951 124.574 49.4068 125.717 49.4244 127.492C49.4068 129.25 47.8951 130.375 45.6627 130.375C43.4127 130.375 41.8834 129.25 41.901 127.492C41.8834 125.717 43.4127 124.574 45.6627 124.574ZM45.6627 125.664C44.1861 125.664 43.2018 126.385 43.2193 127.492C43.2018 128.6 44.1861 129.303 45.6627 129.285C47.1217 129.303 48.1061 128.6 48.1236 127.492C48.1061 126.385 47.1217 125.664 45.6627 125.664ZM53.9068 134.787V135.947H43.4127V131.447H44.7662V134.787H53.9068ZM69.9346 125.453C69.917 127.967 71.7275 130.727 73.9951 131.799L73.2041 132.889C71.4463 132.036 69.9609 130.173 69.2666 128.055C68.5459 130.357 66.9727 132.379 65.2236 133.275L64.3799 132.186C66.6299 131.096 68.5635 128.125 68.5811 125.453V123.414H64.9424V122.271H73.4502V123.414H69.9346V125.453ZM76.7373 120.654V126.982H79.3564V128.16H76.7373V136.281H75.3662V120.654H76.7373ZM94.9201 120.654V136.281H93.5314V120.654H94.9201ZM90.2971 122.359C90.2795 126.859 88.1877 130.832 82.9494 133.346L82.1936 132.221C86.4211 130.217 88.5744 127.22 88.8908 123.484H82.9143V122.359H90.2971ZM102.908 121.973C104.947 121.973 106.265 124.082 106.283 127.404C106.265 130.727 104.947 132.836 102.908 132.836C100.869 132.836 99.5502 130.727 99.5502 127.404C99.5502 124.082 100.869 121.973 102.908 121.973ZM102.908 123.273C101.642 123.273 100.833 124.855 100.851 127.404C100.833 129.936 101.642 131.535 102.908 131.518C104.173 131.535 104.982 129.936 104.982 127.404C104.982 124.855 104.173 123.273 102.908 123.273ZM112.751 120.654V136.281H111.415V128.002H109.236V135.49H107.917V120.988H109.236V126.859H111.415V120.654H112.751ZM129.352 125.4V126.508H118.647V121.234H120.018V125.4H129.352ZM131.004 128.635V129.76H116.696V128.635H131.004ZM129.44 134.752V135.895H118.559V131.359H119.93V134.752H129.44ZM155.013 126.895V128.055H152.481V136.281H151.11V120.654H152.481V126.895H155.013ZM142.409 122.201V131.148C144.694 131.14 147.023 130.964 149.599 130.428L149.774 131.605C147.085 132.15 144.659 132.309 142.286 132.309H141.038V122.201H142.409ZM162.86 121.797C165.321 121.797 167.061 123.291 167.061 125.471C167.061 127.65 165.321 129.145 162.86 129.145C160.399 129.145 158.623 127.65 158.641 125.471C158.623 123.291 160.399 121.797 162.86 121.797ZM162.86 123.01C161.19 123.01 159.977 124.012 159.994 125.471C159.977 126.93 161.19 127.932 162.86 127.932C164.512 127.932 165.707 126.93 165.707 125.471C165.707 124.012 164.512 123.01 162.86 123.01ZM170.559 120.654V136.316H169.188V120.654H170.559ZM157.832 131.693C160.715 131.693 164.688 131.676 168.151 131.166L168.256 132.186C164.688 132.854 160.838 132.871 158.026 132.871L157.832 131.693ZM183.44 121.41V123.713H187.993V121.41H189.364V128.283H182.087V121.41H183.44ZM183.44 127.176H187.993V124.768H183.44V127.176ZM193.635 120.654V124.1H195.991V125.277H193.635V129.004H192.264V120.654H193.635ZM188.133 129.865V133.416H184.389V135.051C186.578 135.042 187.747 134.98 189.171 134.699L189.329 135.754C187.729 136.07 186.499 136.105 183.967 136.105H183.053V132.396H186.797V130.938H183.018V129.865H188.133ZM193.635 129.865V136.229H192.264V130.973H188.819V129.865H193.635ZM213.013 128.898V130.023H198.775V128.898H213.013ZM211.431 134.787V135.947H200.621V131.395H202.01V134.787H211.431ZM205.894 121.217C209.252 121.199 211.414 122.359 211.414 124.311C211.414 126.262 209.252 127.422 205.894 127.422C202.502 127.422 200.357 126.262 200.357 124.311C200.357 122.359 202.502 121.199 205.894 121.217ZM205.894 122.324C203.381 122.324 201.763 123.08 201.781 124.311C201.763 125.541 203.381 126.297 205.894 126.297C208.39 126.297 210.008 125.541 210.008 124.311C210.008 123.08 208.39 122.324 205.894 122.324ZM230.36 122.025V123.414H234.016V120.672H235.404V132.08H234.016V127.914H230.36V129.32H223.188V122.025H230.36ZM224.559 123.168V128.213H229.006V123.168H224.559ZM235.756 134.787V135.947H225.297V131.061H226.686V134.787H235.756ZM230.36 126.771H234.016V124.574H230.36V126.771ZM247.699 122.078V129.268H240.474V122.078H247.699ZM241.828 123.203V128.16H246.363V123.203H241.828ZM252.023 120.654V125.418H254.378V126.578H252.023V132.115H250.652V120.654H252.023ZM252.744 134.787V135.947H242.249V131.025H243.603V134.787H252.744ZM270.047 120.654V136.316H268.659V120.654H270.047ZM261.733 121.867C264.053 121.885 265.723 123.994 265.723 127.316C265.723 130.639 264.053 132.748 261.733 132.748C259.395 132.748 257.743 130.639 257.743 127.316C257.743 123.994 259.395 121.885 261.733 121.867ZM261.733 123.098C260.169 123.115 259.079 124.768 259.079 127.316C259.079 129.865 260.169 131.518 261.733 131.518C263.297 131.518 264.387 129.865 264.387 127.316C264.387 124.768 263.297 123.115 261.733 123.098ZM285.021 121.867C287.323 121.885 288.958 123.994 288.976 127.316C288.958 130.639 287.323 132.748 285.021 132.748C282.7 132.748 281.083 130.639 281.083 127.316C281.083 123.994 282.7 121.885 285.021 121.867ZM285.021 123.098C283.474 123.115 282.384 124.768 282.384 127.316C282.384 129.865 283.474 131.518 285.021 131.518C286.585 131.518 287.64 129.865 287.64 127.316C287.64 124.768 286.585 123.115 285.021 123.098ZM292.931 120.654V126.895H295.55V128.09H292.931V136.281H291.56V120.654H292.931ZM311.078 120.654V136.281H309.707V120.654H311.078ZM300.567 122.201V131.061C302.948 131.052 305.418 130.858 308.037 130.305L308.231 131.482C305.453 132.062 302.975 132.256 300.479 132.256H299.213V122.201H300.567ZM327.644 120.654V126.877H330.263V128.037H327.644V136.316H326.273V120.654H327.644ZM323.267 122.113V127.703H317.572V131.359C320.472 131.359 322.494 131.263 324.867 130.814L325.007 131.957C322.546 132.414 320.454 132.52 317.449 132.537H316.201V126.561H321.896V123.256H316.165V122.113H323.267ZM335.473 133.68L334.102 138.461H332.801L333.768 133.68H335.473ZM357.952 122.324V123.889C357.952 125.857 357.952 128.09 357.372 131.482L355.966 131.342C356.599 128.143 356.599 125.805 356.599 123.889V123.467H347.177V122.324H357.952ZM359.868 132.836V133.979H345.63V132.836H359.868ZM381.626 122.324V123.889C381.626 125.857 381.626 128.09 381.046 131.482L379.64 131.342C380.273 128.143 380.273 125.805 380.273 123.889V123.467H370.851V122.324H381.626ZM383.542 132.836V133.979H369.304V132.836H383.542ZM399.563 120.672V129.936H398.192V120.672H399.563ZM394.588 121.621V125.857H388.823V128.02C391.618 128.037 393.71 127.949 396.241 127.527L396.399 128.688C393.78 129.092 391.635 129.18 388.753 129.18H387.487V124.768H393.217V122.729H387.452V121.621H394.588ZM399.563 130.779V136.07H389.403V130.779H399.563ZM390.756 131.904V134.945H398.21V131.904H390.756ZM409.308 125.453C409.291 127.967 411.101 130.727 413.369 131.799L412.578 132.889C410.82 132.036 409.335 130.173 408.64 128.055C407.92 130.357 406.346 132.379 404.597 133.275L403.754 132.186C406.004 131.096 407.937 128.125 407.955 125.453V123.414H404.316V122.271H412.824V123.414H409.308V125.453ZM416.111 120.654V126.982H418.73V128.16H416.111V136.281H414.74V120.654H416.111ZM433.749 120.654V127.105H436.122V128.266H433.749V136.281H432.36V120.654H433.749ZM426.12 122.359C426.103 126.086 425.259 129.742 422.429 132.748L421.321 131.957C423.686 129.54 424.635 126.631 424.819 123.52H421.813V122.359H426.12ZM430.409 122.359C430.392 126.068 429.847 130.375 426.929 133.785L425.804 133.012C428.247 130.252 428.985 126.78 429.108 123.52H426.612V122.359H430.409ZM444.32 125.453C444.32 128.107 446.254 130.797 448.557 131.799L447.783 132.889C445.955 132.054 444.373 130.252 443.653 128.09C442.914 130.384 441.341 132.379 439.557 133.275L438.731 132.186C440.963 131.113 442.914 128.16 442.932 125.453V123.414H439.24V122.271H448.047V123.414H444.32V125.453ZM451.615 120.654V136.281H450.227V120.654H451.615ZM475.29 120.654V136.281H473.936V130.217H469.999C469.48 131.465 468.795 132.669 467.872 133.768L466.712 133.012C469.111 130.252 469.884 126.78 470.016 123.52H467.573V122.359H471.335C471.335 123.186 471.299 124.047 471.212 124.926H473.936V120.654H475.29ZM467.098 122.359C467.098 126.051 466.167 129.742 463.372 132.695L462.264 131.904C464.567 129.54 465.578 126.622 465.762 123.52H462.809V122.359H467.098ZM470.421 129.057H473.936V126.051H471.088C470.939 127.053 470.728 128.063 470.421 129.057ZM491.978 120.654V125.418H494.334V126.578H491.978V132.186H490.607V120.654H491.978ZM492.699 134.787V135.947H482.205V130.99H483.558V134.787H492.699ZM484.156 121.762C486.494 121.762 488.252 123.344 488.269 125.611C488.252 127.879 486.494 129.461 484.156 129.461C481.818 129.461 480.043 127.879 480.06 125.611C480.043 123.344 481.818 121.762 484.156 121.762ZM484.156 122.975C482.609 122.975 481.396 124.064 481.414 125.611C481.396 127.158 482.609 128.248 484.156 128.248C485.738 128.248 486.916 127.158 486.916 125.611C486.916 124.064 485.738 122.975 484.156 122.975ZM509.757 125.4V126.508H499.052V121.234H500.423V125.4H509.757ZM511.409 128.635V129.76H497.101V128.635H511.409ZM509.845 134.752V135.895H498.964V131.359H500.335V134.752H509.845ZM533.747 120.672V131.254H532.359V126.227H528.931V125.066H532.359V120.672H533.747ZM528.861 121.902C528.843 125.91 526.171 128.793 521.671 130.234L521.056 129.127C524.791 127.976 527.094 125.805 527.384 123.027H521.829V121.902H528.861ZM529.353 130.604C529.353 132.889 531.849 134.594 534.609 135.086L534.029 136.193C531.726 135.745 529.608 134.541 528.685 132.713C527.727 134.55 525.582 135.771 523.253 136.229L522.691 135.139C525.451 134.664 527.982 132.906 527.999 130.604V129.883H529.353V130.604ZM551.034 120.654V136.316H549.645V120.654H551.034ZM542.719 121.867C545.04 121.885 546.71 123.994 546.71 127.316C546.71 130.639 545.04 132.748 542.719 132.748C540.381 132.748 538.729 130.639 538.729 127.316C538.729 123.994 540.381 121.885 542.719 121.867ZM542.719 123.098C541.155 123.115 540.065 124.768 540.065 127.316C540.065 129.865 541.155 131.518 542.719 131.518C544.284 131.518 545.374 129.865 545.374 127.316C545.374 124.768 544.284 123.115 542.719 123.098ZM567.599 120.654V126.842H570.219V128.002H567.599V136.316H566.228V120.654H567.599ZM563.486 122.184V123.326H557.562V131.236C560.392 131.236 562.396 131.104 564.717 130.674L564.892 131.869C562.449 132.309 560.392 132.396 557.422 132.396H556.191V122.184H563.486ZM574.515 134.963C573.899 134.963 573.372 134.453 573.39 133.82C573.372 133.205 573.899 132.695 574.515 132.695C575.13 132.695 575.64 133.205 575.64 133.82C575.64 134.453 575.13 134.963 574.515 134.963ZM19.1408 150.654V159.742H17.7873V150.654H19.1408ZM19.5451 160.85V161.939H14.9045C14.9836 163.425 17.4445 164.884 20.09 165.209L19.5803 166.281C17.2424 165.947 15.1066 164.849 14.1838 163.398C13.2521 164.884 11.0549 165.965 8.69941 166.281L8.20723 165.227C10.8527 164.937 13.4016 163.478 13.4807 161.939H8.85762V160.85H13.4982V159.338H14.8693V160.85H19.5451ZM8.45332 151.322V153.748H13.0588V151.322H14.4299V158.301H7.08223V151.322H8.45332ZM8.45332 157.193H13.0588V154.82H8.45332V157.193ZM32.2787 152.395V153.203C32.2611 154.434 32.2611 156.508 31.8217 159.408L30.433 159.285C30.8549 156.666 30.89 154.768 30.89 153.52H24.3334V152.395H32.2787ZM28.183 156.859V161.605C29.9145 161.544 31.6898 161.43 33.3158 161.236L33.3861 162.273C30.099 162.783 26.4252 162.854 23.6303 162.836L23.4545 161.693C24.4828 161.685 25.6254 161.676 26.8295 161.641V156.859H28.183ZM35.6713 150.654V157.193H38.2025V158.389H35.6713V166.281H34.3002V150.654H35.6713ZM59.6092 152.324V153.889C59.6092 155.857 59.6092 158.09 59.0291 161.482L57.6229 161.342C58.2557 158.143 58.2557 155.805 58.2557 153.889V153.467H48.8338V152.324H59.6092ZM61.5252 162.836V163.979H47.2869V162.836H61.5252ZM77.5459 150.672V159.936H76.1748V150.672H77.5459ZM72.5713 151.621V155.857H66.8057V158.02C69.6006 158.037 71.6924 157.949 74.2236 157.527L74.3818 158.688C71.7627 159.092 69.6182 159.18 66.7354 159.18H65.4697V154.768H71.2002V152.729H65.4346V151.621H72.5713ZM77.5459 160.779V166.07H67.3857V160.779H77.5459ZM68.7393 161.904V164.945H76.1924V161.904H68.7393ZM87.2912 155.453C87.2736 157.967 89.0842 160.727 91.3518 161.799L90.5607 162.889C88.8029 162.036 87.3176 160.173 86.6232 158.055C85.9025 160.357 84.3293 162.379 82.5803 163.275L81.7365 162.186C83.9865 161.096 85.9201 158.125 85.9377 155.453V153.414H82.299V152.271H90.8068V153.414H87.2912V155.453ZM94.0939 150.654V156.982H96.7131V158.16H94.0939V166.281H92.7229V150.654H94.0939ZM111.451 150.654V157.018H113.982V158.178H111.451V166.281H110.079V150.654H111.451ZM107.408 152.342C107.408 156.771 105.333 160.797 100.236 163.311L99.4623 162.221C103.505 160.208 105.703 157.202 106.019 153.502H100.183V152.342H107.408ZM130.097 160.533C133.455 160.533 135.582 161.588 135.582 163.398C135.582 165.191 133.455 166.246 130.097 166.246C126.758 166.246 124.631 165.191 124.631 163.398C124.631 161.588 126.758 160.533 130.097 160.533ZM130.097 161.588C127.601 161.605 125.984 162.291 126.002 163.398C125.984 164.488 127.601 165.156 130.097 165.156C132.594 165.156 134.193 164.488 134.211 163.398C134.193 162.291 132.594 161.605 130.097 161.588ZM135.459 151.463V152.781C135.459 154.047 135.459 155.312 135.019 156.93L133.666 156.771C134.088 155.154 134.088 154.012 134.088 152.781V152.588H124.736V151.463H135.459ZM137.269 157.949V159.074H123.049V157.949H128.937V154.926H130.291V157.949H137.269ZM148.403 152.605C148.386 154.539 151.022 156.121 153.782 156.473L153.237 157.598C150.715 157.202 148.359 155.954 147.507 154.117C146.663 155.954 144.316 157.202 141.776 157.598L141.267 156.473C144.026 156.121 146.61 154.539 146.61 152.605V152.57H141.688V151.428H153.36V152.57H148.403V152.605ZM153.044 164.787V165.947H142.233V161.5H143.622V164.787H153.044ZM154.679 159.092V160.234H140.388V159.092H146.821V156.473H148.175V159.092H154.679ZM169.961 150.602V154.398H172.334V155.541H169.961V159.25H168.59V150.602H169.961ZM169.961 160.059V163.521H161.383V165.051H170.541V166.105H160.029V162.502H168.59V161.096H159.994V160.059H169.961ZM167.096 152.078V153.186H157.779V152.078H161.752V150.496H163.123V152.078H167.096ZM162.438 153.889C164.705 153.889 166.182 154.873 166.199 156.455C166.182 158.037 164.705 159.021 162.438 159.021C160.153 159.021 158.658 158.037 158.676 156.455C158.658 154.873 160.153 153.889 162.438 153.889ZM162.438 154.908C160.961 154.908 159.977 155.523 159.994 156.455C159.977 157.404 160.961 157.984 162.438 157.984C163.914 157.984 164.881 157.404 164.899 156.455C164.881 155.523 163.914 154.908 162.438 154.908ZM191.772 151.006V157.053H193.671V150.654H194.989V166.281H193.671V158.195H191.772V165.508H190.489V151.006H191.772ZM185.286 152.641V153.783H183.176V161.025C183.765 161.008 184.539 160.938 185.391 160.727L185.514 161.904C184.196 162.203 183.176 162.203 182.508 162.203H181.893V152.641H185.286ZM189.434 152.641V153.783H187.219V161.025C187.949 161.017 188.819 160.946 189.768 160.674L189.891 161.852C188.59 162.203 187.518 162.203 186.604 162.203H185.971V152.641H189.434ZM201.342 163.68L199.971 168.461H198.67L199.637 163.68H201.342ZM226.123 156.895V158.055H223.592V166.281H222.221V150.654H223.592V156.895H226.123ZM213.52 152.201V161.148C215.805 161.14 218.134 160.964 220.709 160.428L220.885 161.605C218.196 162.15 215.77 162.309 213.397 162.309H212.149V152.201H213.52ZM241.494 155.4V156.508H230.788V151.234H232.16V155.4H241.494ZM243.146 158.635V159.76H228.837V158.635H243.146ZM241.581 164.752V165.895H230.701V161.359H232.072V164.752H241.581ZM267.154 156.895V158.055H264.623V166.281H263.252V150.654H264.623V156.895H267.154ZM254.551 152.201V161.148C256.836 161.14 259.165 160.964 261.74 160.428L261.916 161.605C259.226 162.15 256.801 162.309 254.428 162.309H253.179V152.201H254.551ZM284.177 157.914V159.004H269.868V157.914H284.177ZM282.384 160.252V163.574H272.997V165.068H282.894V166.07H271.608V162.625H281.013V161.289H271.591V160.252H282.384ZM282.331 151.129V154.363H273.103V155.734H282.612V156.736H271.731V153.414H280.942V152.131H271.679V151.129H282.331ZM307.798 158.986V160.129H293.56V158.986H299.994V157.352C296.996 157.202 295.142 156.068 295.142 154.223C295.142 152.307 297.287 151.129 300.679 151.129C304.037 151.129 306.199 152.307 306.199 154.223C306.199 156.068 304.327 157.202 301.365 157.352V158.986H307.798ZM306.216 164.787V165.947H295.406V161.395H296.794V164.787H306.216ZM300.679 152.254C298.165 152.254 296.548 153.027 296.566 154.223C296.548 155.488 298.165 156.227 300.679 156.227C303.175 156.227 304.792 155.488 304.792 154.223C304.792 153.027 303.175 152.254 300.679 152.254ZM323.872 150.672V162.133H322.483V156.139H319.266V154.996H322.483V150.672H323.872ZM324.311 164.787V165.947H313.835V161.096H315.223V164.787H324.311ZM316.348 153.889C316.348 155.91 317.913 157.879 320.198 158.652L319.477 159.76C317.711 159.127 316.348 157.809 315.68 156.191C315.004 157.993 313.562 159.435 311.708 160.129L310.987 159.004C313.29 158.195 314.96 156.139 314.96 153.889V153.08H311.426V151.938H319.846V153.08H316.348V153.889ZM341.158 150.654V166.281H339.769V150.654H341.158ZM338.082 153.203V154.328H328.625V153.203H332.65V150.812H334.039V153.203H338.082ZM333.388 155.611C335.638 155.611 337.256 157.088 337.256 159.197C337.256 161.307 335.638 162.783 333.388 162.783C331.121 162.783 329.486 161.307 329.504 159.197C329.486 157.088 331.121 155.611 333.388 155.611ZM333.388 156.771C331.894 156.771 330.805 157.791 330.805 159.197C330.805 160.621 331.894 161.623 333.388 161.605C334.865 161.623 335.937 160.621 335.937 159.197C335.937 157.791 334.865 156.771 333.388 156.771ZM357.186 154.855C357.186 157.615 359.014 160.445 361.229 161.535L360.385 162.643C358.662 161.737 357.221 159.892 356.535 157.721C355.832 160.032 354.356 162.001 352.598 162.941L351.719 161.834C354.004 160.709 355.815 157.703 355.832 154.855V152.008H357.186V154.855ZM364.041 150.654V157H366.66V158.195H364.041V166.281H362.67V150.654H364.041ZM381.521 150.672V154.592H383.894V155.752H381.521V160.111H380.15V150.672H381.521ZM377.056 151.639V155.857H371.361V158.037C374.138 158.037 376.151 157.94 378.585 157.527L378.726 158.688C376.212 159.109 374.121 159.197 371.22 159.197H370.007V154.768H375.703V152.781H369.972V151.639H377.056ZM376.511 160.586C379.693 160.586 381.662 161.641 381.662 163.434C381.662 165.227 379.693 166.246 376.511 166.246C373.277 166.246 371.326 165.227 371.326 163.434C371.326 161.641 373.277 160.586 376.511 160.586ZM376.511 161.676C374.121 161.676 372.662 162.326 372.679 163.434C372.662 164.523 374.121 165.174 376.511 165.174C378.884 165.174 380.326 164.523 380.326 163.434C380.326 162.326 378.884 161.676 376.511 161.676ZM398.878 150.602V154.398H401.251V155.541H398.878V159.25H397.506V150.602H398.878ZM398.878 160.059V163.521H390.299V165.051H399.458V166.105H388.946V162.502H397.506V161.096H388.911V160.059H398.878ZM396.012 152.078V153.186H386.696V152.078H390.669V150.496H392.04V152.078H396.012ZM391.354 153.889C393.622 153.889 395.098 154.873 395.116 156.455C395.098 158.037 393.622 159.021 391.354 159.021C389.069 159.021 387.575 158.037 387.592 156.455C387.575 154.873 389.069 153.889 391.354 153.889ZM391.354 154.908C389.878 154.908 388.893 155.523 388.911 156.455C388.893 157.404 389.878 157.984 391.354 157.984C392.831 157.984 393.797 157.404 393.815 156.455C393.797 155.523 392.831 154.908 391.354 154.908ZM418.175 152.113C418.175 154.311 421.058 156.227 423.87 156.613L423.308 157.738C420.882 157.334 418.482 155.989 417.472 154.064C416.47 155.998 414.062 157.334 411.636 157.738L411.073 156.613C413.886 156.227 416.751 154.346 416.751 152.113V151.217H418.175V152.113ZM424.573 159.461V160.621H418.104V166.281H416.751V160.621H410.335V159.461H424.573ZM439.3 161.148C439.3 162.528 440.038 163.996 441.533 164.84C443.009 163.917 443.8 162.361 443.8 161.148V160.287H445.154V161.148C445.154 162.748 446.331 164.365 448.335 165.051L447.65 166.07C446.085 165.517 444.987 164.427 444.451 163.117C443.967 164.383 443.009 165.578 441.568 166.193C440.047 165.613 439.08 164.462 438.615 163.152C438.061 164.418 436.98 165.508 435.486 166.07L434.783 165.051C436.751 164.312 437.947 162.643 437.964 161.148V160.287H439.3V161.148ZM446.912 150.672V159.602H445.54V150.672H446.912ZM438.474 151.586C440.847 151.586 442.57 153.062 442.57 155.242C442.57 157.387 440.847 158.863 438.474 158.863C436.101 158.863 434.378 157.387 434.378 155.242C434.378 153.062 436.101 151.586 438.474 151.586ZM438.474 152.764C436.874 152.746 435.714 153.783 435.732 155.242C435.714 156.684 436.874 157.703 438.474 157.721C440.056 157.703 441.216 156.684 441.216 155.242C441.216 153.783 440.056 152.746 438.474 152.764ZM463.46 150.654V156.842H466.079V158.002H463.46V166.316H462.088V150.654H463.46ZM459.346 152.184V153.326H453.422V161.236C456.253 161.236 458.256 161.104 460.577 160.674L460.753 161.869C458.309 162.309 456.253 162.396 453.282 162.396H452.051V152.184H459.346ZM470.375 164.963C469.76 164.963 469.232 164.453 469.25 163.82C469.232 163.205 469.76 162.695 470.375 162.695C470.99 162.695 471.5 163.205 471.5 163.82C471.5 164.453 470.99 164.963 470.375 164.963ZM480.63 152.148L479.259 156.93H477.958L478.925 152.148H480.63ZM477.29 152.148L475.919 156.93H474.618L475.585 152.148H477.29Z" fill="#1A1A1A"/>
</svg>
