<svg width="98" height="46" viewBox="0 0 98 46" fill="none" xmlns="http://www.w3.org/2000/svg">
<rect x="0.526367" y="0.669922" width="97.3418" height="44.7925" rx="22.3962" fill="url(#paint0_linear_2561_428)"/>
<rect x="0.526367" y="0.669922" width="45.2676" height="44.7925" rx="22.3962" fill="url(#paint1_linear_2561_428)"/>
<g filter="url(#filter0_f_2561_428)">
<path d="M17.0354 8.89978C20.1429 8.24762 21.886 11.7309 21.7497 13.2517C21.4585 16.503 19.6949 18.5103 17.9451 18.9263C14.4022 19.7685 12.691 17.9664 12.691 15.2503C12.691 13.6035 12.7179 9.80582 17.0354 8.89978Z" fill="white"/>
</g>
<g filter="url(#filter1_f_2561_428)">
<path d="M22.4831 23.2738C23.2702 21.9079 25.1362 22.4158 25.6539 22.9696C26.7607 24.1534 26.9199 25.4704 26.4947 26.2557C25.6337 27.8455 24.4004 27.8823 23.3953 26.9834C22.7859 26.4384 21.3894 25.1714 22.4831 23.2738Z" fill="#E8E8E8"/>
</g>
<g filter="url(#filter2_f_2561_428)">
<path d="M3.92812 18.0468C6.22315 7.43326 14.5728 3.68462 18.0388 3.12677C25.9749 1.50134 33.0937 5.66131 35.6039 8.0517C37.6653 10.0147 36.7069 11.3977 23.894 12.2582C11.0812 13.1188 10.9058 28.3938 12.4197 35.9238C8.87387 34.4895 1.63309 28.6603 3.92812 18.0468Z" fill="url(#paint2_linear_2561_428)"/>
</g>
<g filter="url(#filter3_f_2561_428)">
<path d="M42.4846 27.4784C39.3205 38.3216 30.3804 41.5953 26.743 41.9184C18.3887 43.0196 11.3091 38.1782 8.88087 35.5128C6.88681 33.324 2.86325 26.6421 16.2212 26.6943C29.5792 26.7464 36.0078 16.2277 34.9924 8.303C38.5658 10.0527 45.6488 16.6352 42.4846 27.4784Z" fill="url(#paint3_linear_2561_428)"/>
</g>
<defs>
<filter id="filter0_f_2561_428" x="9.49092" y="5.61934" width="15.4664" height="16.7159" filterUnits="userSpaceOnUse" color-interpolation-filters="sRGB">
<feFlood flood-opacity="0" result="BackgroundImageFix"/>
<feBlend mode="normal" in="SourceGraphic" in2="BackgroundImageFix" result="shape"/>
<feGaussianBlur stdDeviation="1.6" result="effect1_foregroundBlur_2561_428"/>
</filter>
<filter id="filter1_f_2561_428" x="18.0771" y="18.3999" width="12.6343" height="13.1753" filterUnits="userSpaceOnUse" color-interpolation-filters="sRGB">
<feFlood flood-opacity="0" result="BackgroundImageFix"/>
<feBlend mode="normal" in="SourceGraphic" in2="BackgroundImageFix" result="shape"/>
<feGaussianBlur stdDeviation="2" result="effect1_foregroundBlur_2561_428"/>
</filter>
<filter id="filter2_f_2561_428" x="2.5873" y="1.85977" width="34.7585" height="34.9641" filterUnits="userSpaceOnUse" color-interpolation-filters="sRGB">
<feFlood flood-opacity="0" result="BackgroundImageFix"/>
<feBlend mode="normal" in="SourceGraphic" in2="BackgroundImageFix" result="shape"/>
<feGaussianBlur stdDeviation="0.45" result="effect1_foregroundBlur_2561_428"/>
</filter>
<filter id="filter3_f_2561_428" x="4.62363" y="6.20322" width="40.7547" height="37.9754" filterUnits="userSpaceOnUse" color-interpolation-filters="sRGB">
<feFlood flood-opacity="0" result="BackgroundImageFix"/>
<feBlend mode="normal" in="SourceGraphic" in2="BackgroundImageFix" result="shape"/>
<feGaussianBlur stdDeviation="1.05" result="effect1_foregroundBlur_2561_428"/>
</filter>
<linearGradient id="paint0_linear_2561_428" x1="49.1973" y1="0.669922" x2="49.1973" y2="45.4624" gradientUnits="userSpaceOnUse">
<stop stop-color="#A4A4A4"/>
<stop offset="0.615385" stop-color="#D6D6D6"/>
</linearGradient>
<linearGradient id="paint1_linear_2561_428" x1="10.3763" y1="4.31231" x2="38.4247" y2="41.0301" gradientUnits="userSpaceOnUse">
<stop stop-color="#DADADA"/>
<stop offset="1" stop-color="#898989"/>
</linearGradient>
<linearGradient id="paint2_linear_2561_428" x1="8.9991" y1="8.19729" x2="15.393" y2="15.5466" gradientUnits="userSpaceOnUse">
<stop stop-color="white"/>
<stop offset="1" stop-color="white" stop-opacity="0"/>
</linearGradient>
<linearGradient id="paint3_linear_2561_428" x1="35.4658" y1="37.1471" x2="28.0646" y2="27.3428" gradientUnits="userSpaceOnUse">
<stop stop-color="#808080"/>
<stop offset="1" stop-color="#808080" stop-opacity="0"/>
</linearGradient>
</defs>
</svg>
