<svg width="389" height="34" viewBox="0 0 389 34" fill="none" xmlns="http://www.w3.org/2000/svg">
<path d="M6.92031 33.0815C4.78431 30.7775 3.12831 28.3055 1.95231 25.6655C0.800313 23.0255 0.224313 20.1455 0.224313 17.0255C0.224313 13.9055 0.800313 11.0255 1.95231 8.38545C3.12831 5.74545 4.78431 3.27345 6.92031 0.969452H10.9163C8.73231 3.20145 7.01631 5.67345 5.76831 8.38545C4.52031 11.0975 3.89631 13.9775 3.89631 17.0255C3.89631 20.0735 4.52031 22.9535 5.76831 25.6655C7.01631 28.3775 8.73231 30.8495 10.9163 33.0815H6.92031ZM25.4387 2.15745C27.5267 2.15745 29.4107 2.52945 31.0907 3.27345C32.7707 3.99345 34.1147 5.01345 35.1227 6.33345C36.1307 7.65345 36.6947 9.14145 36.8147 10.7975H32.9267C32.7107 9.21345 31.9187 7.91745 30.5507 6.90945C29.2067 5.90145 27.4427 5.39745 25.2587 5.39745C23.0507 5.39745 21.3107 5.81745 20.0387 6.65745C18.7907 7.47345 18.1667 8.54145 18.1667 9.86145C18.1667 10.8455 18.4667 11.6735 19.0667 12.3455C19.6667 12.9935 20.5907 13.5575 21.8387 14.0375C23.1107 14.5175 24.8267 14.9855 26.9867 15.4415C30.4667 16.1855 32.9867 17.2535 34.5467 18.6455C36.1307 20.0135 36.9227 21.7895 36.9227 23.9735C36.9227 25.6535 36.4187 27.1295 35.4107 28.4015C34.4027 29.6495 33.0227 30.6095 31.2707 31.2815C29.5187 31.9775 27.5747 32.3255 25.4387 32.3255C23.2067 32.3255 21.2027 31.9415 19.4267 31.1735C17.6747 30.4055 16.2707 29.3255 15.2147 27.9335C14.1587 26.5415 13.5707 24.9215 13.4507 23.0735H17.3387C17.5307 24.8495 18.3707 26.2895 19.8587 27.3935C21.3707 28.4975 23.3147 29.0495 25.6907 29.0495C27.1067 29.0495 28.3787 28.8455 29.5067 28.4375C30.6347 28.0295 31.5107 27.4535 32.1347 26.7095C32.7587 25.9655 33.0707 25.1255 33.0707 24.1895C33.0707 23.1335 32.7707 22.2575 32.1707 21.5615C31.5707 20.8655 30.6347 20.2775 29.3627 19.7975C28.1147 19.2935 26.3867 18.8135 24.1787 18.3575C20.8187 17.6615 18.3347 16.6535 16.7267 15.3335C15.1427 14.0135 14.3507 12.1895 14.3507 9.86145C14.3507 8.30145 14.8187 6.94545 15.7547 5.79345C16.7147 4.61745 18.0347 3.71745 19.7147 3.09345C21.3947 2.46945 23.3027 2.15745 25.4387 2.15745ZM50.7852 32.1815C48.8172 32.1815 47.0412 31.7135 45.4572 30.7775C43.8972 29.8415 42.6732 28.5575 41.7852 26.9255C40.8972 25.2695 40.4532 23.4215 40.4532 21.3815C40.4532 19.3415 40.8972 17.5055 41.7852 15.8735C42.6732 14.2175 43.8972 12.9215 45.4572 11.9855C47.0412 11.0495 48.8172 10.5815 50.7852 10.5815C52.7532 10.5815 54.5172 11.0495 56.0772 11.9855C57.6612 12.9215 58.8852 14.2175 59.7492 15.8735C60.6372 17.5055 61.0812 19.3415 61.0812 21.3815C61.0812 22.0535 61.0572 22.5575 61.0092 22.8935H44.1612C44.3532 24.6935 45.0492 26.1695 46.2492 27.3215C47.4732 28.4735 48.9852 29.0495 50.7852 29.0495C52.1532 29.0495 53.3532 28.7735 54.3852 28.2215C55.4412 27.6455 56.1612 26.9255 56.5452 26.0615H60.3252C59.7492 27.8615 58.5972 29.3255 56.8692 30.4535C55.1412 31.6055 53.1132 32.1815 50.7852 32.1815ZM57.4452 19.8695C57.2292 18.0455 56.5212 16.5695 55.3212 15.4415C54.1212 14.2895 52.6092 13.7135 50.7852 13.7135C48.9612 13.7135 47.4492 14.2895 46.2492 15.4415C45.0492 16.5695 44.3532 18.0455 44.1612 19.8695H57.4452ZM65.791 31.6775V1.94145H69.499V31.6775H65.791ZM85.6863 14.3615H81.1143V31.6775H77.4063V14.3615H73.3383V11.0855H77.4063V7.59345C77.4063 5.84145 77.8863 4.43745 78.8463 3.38145C79.8303 2.32545 81.1863 1.79745 82.9143 1.79745C83.8743 1.79745 84.6783 1.86945 85.3263 2.01345V5.14545C84.9903 5.07345 84.4023 5.03745 83.5623 5.03745C82.7943 5.03745 82.1943 5.27745 81.7623 5.75745C81.3303 6.21345 81.1143 6.86145 81.1143 7.70145V11.0855H85.6863V14.3615ZM100.975 19.4735H88.3754V16.2335H100.975V19.4735ZM115.156 32.1815C113.188 32.1815 111.412 31.7135 109.828 30.7775C108.268 29.8415 107.044 28.5575 106.156 26.9255C105.268 25.2695 104.824 23.4215 104.824 21.3815C104.824 19.3415 105.268 17.5055 106.156 15.8735C107.044 14.2175 108.268 12.9215 109.828 11.9855C111.412 11.0495 113.188 10.5815 115.156 10.5815C117.124 10.5815 118.888 11.0495 120.448 11.9855C122.032 12.9215 123.256 14.2175 124.12 15.8735C125.008 17.5055 125.452 19.3415 125.452 21.3815C125.452 22.0535 125.428 22.5575 125.38 22.8935H108.532C108.724 24.6935 109.42 26.1695 110.62 27.3215C111.844 28.4735 113.356 29.0495 115.156 29.0495C116.524 29.0495 117.724 28.7735 118.756 28.2215C119.812 27.6455 120.532 26.9255 120.916 26.0615H124.696C124.12 27.8615 122.968 29.3255 121.24 30.4535C119.512 31.6055 117.484 32.1815 115.156 32.1815ZM121.816 19.8695C121.6 18.0455 120.892 16.5695 119.692 15.4415C118.492 14.2895 116.98 13.7135 115.156 13.7135C113.332 13.7135 111.82 14.2895 110.62 15.4415C109.42 16.5695 108.724 18.0455 108.532 19.8695H121.816ZM138.262 10.5815C139.918 10.5815 141.418 10.8455 142.762 11.3735C144.106 11.8775 145.174 12.5855 145.966 13.4975C146.782 14.3855 147.214 15.4055 147.262 16.5575H143.626C143.554 15.6935 143.002 14.9855 141.97 14.4335C140.938 13.8815 139.666 13.6055 138.154 13.6055C136.666 13.6055 135.43 13.8695 134.446 14.3975C133.486 14.9255 133.006 15.5735 133.006 16.3415C133.006 17.2295 133.45 17.9375 134.338 18.4655C135.25 18.9935 136.918 19.4255 139.342 19.7615C142.342 20.1695 144.49 20.8655 145.786 21.8495C147.082 22.8335 147.73 24.1535 147.73 25.8095C147.73 27.1055 147.31 28.2335 146.47 29.1935C145.654 30.1535 144.538 30.8855 143.122 31.3895C141.706 31.9175 140.134 32.1815 138.406 32.1815C136.606 32.1815 135.022 31.9055 133.654 31.3535C132.286 30.8255 131.206 30.0815 130.414 29.1215C129.646 28.1855 129.214 27.1175 129.118 25.9175H132.754C132.874 26.8055 133.426 27.5735 134.41 28.2215C135.418 28.8455 136.786 29.1575 138.514 29.1575C140.122 29.1575 141.454 28.8695 142.51 28.2935C143.566 27.6935 144.094 26.9375 144.094 26.0255C144.094 25.1615 143.602 24.4775 142.618 23.9735C141.658 23.4455 139.978 23.0255 137.578 22.7135C134.746 22.3295 132.67 21.6575 131.35 20.6975C130.03 19.7135 129.37 18.3335 129.37 16.5575C129.37 15.3815 129.754 14.3375 130.522 13.4255C131.314 12.5135 132.382 11.8175 133.726 11.3375C135.07 10.8335 136.582 10.5815 138.262 10.5815ZM163.005 14.3615H158.433V31.6775H154.725V14.3615H150.153V11.0855H154.725V4.82145H158.433V11.0855H163.005V14.3615ZM175.414 32.1815C173.446 32.1815 171.67 31.7135 170.086 30.7775C168.526 29.8415 167.302 28.5575 166.414 26.9255C165.526 25.2695 165.082 23.4215 165.082 21.3815C165.082 19.3415 165.526 17.5055 166.414 15.8735C167.302 14.2175 168.526 12.9215 170.086 11.9855C171.67 11.0495 173.446 10.5815 175.414 10.5815C177.382 10.5815 179.146 11.0495 180.706 11.9855C182.29 12.9215 183.514 14.2175 184.378 15.8735C185.266 17.5055 185.71 19.3415 185.71 21.3815C185.71 22.0535 185.686 22.5575 185.638 22.8935H168.79C168.982 24.6935 169.678 26.1695 170.878 27.3215C172.102 28.4735 173.614 29.0495 175.414 29.0495C176.782 29.0495 177.982 28.7735 179.014 28.2215C180.07 27.6455 180.79 26.9255 181.174 26.0615H184.954C184.378 27.8615 183.226 29.3255 181.498 30.4535C179.77 31.6055 177.742 32.1815 175.414 32.1815ZM182.074 19.8695C181.858 18.0455 181.15 16.5695 179.95 15.4415C178.75 14.2895 177.238 13.7135 175.414 13.7135C173.59 13.7135 172.078 14.2895 170.878 15.4415C169.678 16.5695 168.982 18.0455 168.79 19.8695H182.074ZM199.672 32.1815C197.704 32.1815 195.928 31.7135 194.344 30.7775C192.784 29.8415 191.56 28.5575 190.672 26.9255C189.784 25.2695 189.34 23.4215 189.34 21.3815C189.34 19.3415 189.784 17.5055 190.672 15.8735C191.56 14.2175 192.784 12.9215 194.344 11.9855C195.928 11.0495 197.704 10.5815 199.672 10.5815C201.64 10.5815 203.404 11.0495 204.964 11.9855C206.548 12.9215 207.772 14.2175 208.636 15.8735C209.524 17.5055 209.968 19.3415 209.968 21.3815C209.968 22.0535 209.944 22.5575 209.896 22.8935H193.048C193.24 24.6935 193.936 26.1695 195.136 27.3215C196.36 28.4735 197.872 29.0495 199.672 29.0495C201.04 29.0495 202.24 28.7735 203.272 28.2215C204.328 27.6455 205.048 26.9255 205.432 26.0615H209.212C208.636 27.8615 207.484 29.3255 205.756 30.4535C204.028 31.6055 202 32.1815 199.672 32.1815ZM206.332 19.8695C206.116 18.0455 205.408 16.5695 204.208 15.4415C203.008 14.2895 201.496 13.7135 199.672 13.7135C197.848 13.7135 196.336 14.2895 195.136 15.4415C193.936 16.5695 193.24 18.0455 193.048 19.8695H206.332ZM218.386 11.0855V14.0015C218.986 13.0415 219.778 12.2375 220.762 11.5895C221.77 10.9175 223.054 10.5815 224.614 10.5815C226.126 10.5815 227.446 10.9655 228.574 11.7335C229.702 12.5015 230.518 13.5575 231.022 14.9015C231.646 13.5815 232.594 12.5375 233.866 11.7695C235.138 10.9775 236.626 10.5815 238.33 10.5815C239.794 10.5815 241.09 10.9415 242.218 11.6615C243.37 12.3575 244.27 13.3535 244.918 14.6495C245.566 15.9455 245.89 17.4455 245.89 19.1495V31.6775H242.182V19.7615C242.182 17.9135 241.762 16.4615 240.922 15.4055C240.082 14.3495 238.93 13.8215 237.466 13.8215C236.458 13.8215 235.546 14.1215 234.73 14.7215C233.914 15.3215 233.278 16.1375 232.822 17.1695C232.366 18.2015 232.138 19.3415 232.138 20.5895V31.6775H228.43V19.9055C228.43 17.9855 228.01 16.4975 227.17 15.4415C226.33 14.3615 225.178 13.8215 223.714 13.8215C222.706 13.8215 221.794 14.1215 220.978 14.7215C220.186 15.3215 219.55 16.1375 219.07 17.1695C218.614 18.2015 218.386 19.3295 218.386 20.5535V31.6775H214.678V11.0855H218.386ZM249.082 33.0815C251.266 30.8735 252.97 28.4135 254.194 25.7015C255.442 22.9655 256.066 20.0735 256.066 17.0255C256.066 13.9775 255.442 11.0975 254.194 8.38545C252.97 5.64945 251.266 3.17745 249.082 0.969452H253.042C257.506 5.74545 259.738 11.0975 259.738 17.0255C259.738 22.9535 257.506 28.3055 253.042 33.0815H249.082ZM285.862 19.4735H273.262V16.2335H285.862V19.4735ZM310.094 9.45898C310.094 14.4512 313.363 20.0059 318.145 22.2559L316.246 24.8574C312.713 23.1523 309.918 19.6016 308.512 15.4707C307.053 19.9883 304.1 23.873 300.496 25.666L298.527 23.0293C303.309 20.7441 306.789 14.8027 306.789 9.45898V6.11914H299.688V3.3418H316.949V6.11914H310.094V9.45898ZM323.664 0.177734V12.6582H328.727V15.4707H323.664V31.6777H320.324V0.177734H323.664ZM356.43 0.177734V31.6777H353.055V0.177734H356.43ZM347.043 3.55273C347.043 12.7637 343.105 20.7793 332.312 25.9473L330.555 23.2402C338.939 19.25 343.018 13.5723 343.668 6.22461H332.066V3.55273H347.043ZM368.488 2.70898C372.637 2.67383 375.344 6.96289 375.344 13.7832C375.344 20.6035 372.637 24.9277 368.488 24.8926C364.375 24.9277 361.703 20.6035 361.703 13.7832C361.703 6.96289 364.375 2.67383 368.488 2.70898ZM368.488 5.83789C366.203 5.83789 364.797 8.75586 364.797 13.7832C364.797 18.8105 366.203 21.7285 368.488 21.7285C370.809 21.7285 372.25 18.8105 372.25 13.7832C372.25 8.75586 370.809 5.83789 368.488 5.83789ZM388.457 0.177734V31.6777H385.258V15.2598H381.355V30.1309H378.191V0.775391H381.355V12.5176H385.258V0.177734H388.457Z" fill="#595B5A"/>
</svg>
