<svg width="211" height="28" viewBox="0 0 211 28" fill="none" xmlns="http://www.w3.org/2000/svg">
<path d="M12.9414 4.032V26.656H9.58141V4.032H0.365414V1.024H22.1254V4.032H12.9414ZM26.4124 8.352V11.168C26.9031 10.336 27.7137 9.58933 28.8444 8.928C29.9964 8.24533 31.3831 7.904 33.0044 7.904C34.0497 7.904 34.8817 8.01067 35.5004 8.224V11.36C34.7537 11.0187 33.8471 10.848 32.7804 10.848C31.5644 10.848 30.4657 11.1467 29.4844 11.744C28.5244 12.32 27.7671 13.0987 27.2124 14.08C26.6791 15.04 26.4124 16.0747 26.4124 17.184V26.656H23.1164V8.352H26.4124ZM51.9247 26.656V23.872C51.4553 24.704 50.6767 25.4507 49.5887 26.112C48.522 26.7733 47.2313 27.104 45.7167 27.104C44.2873 27.104 43.0073 26.7733 41.8767 26.112C40.7673 25.4507 39.9033 24.5227 39.2847 23.328C38.666 22.112 38.3567 20.6933 38.3567 19.072V8.352H41.6527V18.496C41.6527 20.3307 42.0687 21.7493 42.9007 22.752C43.754 23.7333 44.9273 24.224 46.4207 24.224C47.466 24.224 48.4047 23.936 49.2367 23.36C50.0687 22.7627 50.7193 21.9733 51.1887 20.992C51.6793 20.0107 51.9247 18.9547 51.9247 17.824V8.352H55.2207V26.656H51.9247ZM67.5977 7.904C69.0697 7.904 70.403 8.13867 71.5977 8.608C72.7923 9.056 73.7417 9.68533 74.4457 10.496C75.171 11.2853 75.555 12.192 75.5977 13.216H72.3657C72.3017 12.448 71.811 11.8187 70.8937 11.328C69.9763 10.8373 68.8457 10.592 67.5017 10.592C66.179 10.592 65.0803 10.8267 64.2057 11.296C63.3523 11.7653 62.9257 12.3413 62.9257 13.024C62.9257 13.8133 63.3203 14.4427 64.1097 14.912C64.9203 15.3813 66.403 15.7653 68.5577 16.064C71.2243 16.4267 73.1337 17.0453 74.2857 17.92C75.4377 18.7947 76.0137 19.968 76.0137 21.44C76.0137 22.592 75.6403 23.5947 74.8937 24.448C74.1683 25.3013 73.1763 25.952 71.9177 26.4C70.659 26.8693 69.2617 27.104 67.7257 27.104C66.1257 27.104 64.7177 26.8587 63.5017 26.368C62.2857 25.8987 61.3257 25.2373 60.6217 24.384C59.939 23.552 59.555 22.6027 59.4697 21.536H62.7017C62.8083 22.3253 63.299 23.008 64.1737 23.584C65.0697 24.1387 66.2857 24.416 67.8217 24.416C69.251 24.416 70.435 24.16 71.3737 23.648C72.3123 23.1147 72.7817 22.4427 72.7817 21.632C72.7817 20.864 72.3443 20.256 71.4697 19.808C70.6163 19.3387 69.123 18.9653 66.9897 18.688C64.4723 18.3467 62.627 17.7493 61.4537 16.896C60.2803 16.0213 59.6937 14.7947 59.6937 13.216C59.6937 12.1707 60.035 11.2427 60.7177 10.432C61.4217 9.62133 62.371 9.00267 63.5657 8.576C64.7603 8.128 66.1043 7.904 67.5977 7.904ZM89.5914 11.264H85.5274V26.656H82.2314V11.264H78.1674V8.352H82.2314V2.784H85.5274V8.352H89.5914V11.264ZM110.376 7.904C112.147 7.904 113.747 8.32 115.176 9.152C116.605 9.984 117.715 11.136 118.504 12.608C119.315 14.0587 119.72 15.6907 119.72 17.504C119.72 19.3173 119.315 20.96 118.504 22.432C117.715 23.8827 116.605 25.024 115.176 25.856C113.747 26.688 112.147 27.104 110.376 27.104C108.584 27.104 106.973 26.688 105.544 25.856C104.136 25.024 103.027 23.8827 102.216 22.432C101.405 20.96 101 19.3173 101 17.504C101 15.6907 101.405 14.0587 102.216 12.608C103.027 11.136 104.136 9.984 105.544 9.152C106.973 8.32 108.584 7.904 110.376 7.904ZM110.376 10.816C109.181 10.816 108.115 11.1147 107.176 11.712C106.259 12.288 105.533 13.088 105 14.112C104.488 15.1147 104.232 16.2453 104.232 17.504C104.232 18.7627 104.488 19.904 105 20.928C105.533 21.9307 106.259 22.7307 107.176 23.328C108.115 23.904 109.181 24.192 110.376 24.192C111.549 24.192 112.605 23.904 113.544 23.328C114.483 22.7307 115.208 21.9307 115.72 20.928C116.232 19.904 116.488 18.7627 116.488 17.504C116.488 16.2453 116.232 15.1147 115.72 14.112C115.208 13.088 114.483 12.288 113.544 11.712C112.605 11.1147 111.549 10.816 110.376 10.816ZM132.551 11.264H128.487V26.656H125.191V11.264H121.575V8.352H125.191V5.248C125.191 3.69067 125.618 2.44267 126.471 1.504C127.346 0.565332 128.551 0.0959988 130.087 0.0959988C130.94 0.0959988 131.655 0.159999 132.231 0.287998V3.072C131.932 3.008 131.41 2.976 130.663 2.976C129.98 2.976 129.447 3.18933 129.063 3.616C128.679 4.02133 128.487 4.59733 128.487 5.344V8.352H132.551V11.264ZM144.71 26.656V0.223999H148.006V26.656H144.71ZM161.595 7.904C163.366 7.904 164.966 8.32 166.395 9.152C167.824 9.984 168.934 11.136 169.723 12.608C170.534 14.0587 170.939 15.6907 170.939 17.504C170.939 19.3173 170.534 20.96 169.723 22.432C168.934 23.8827 167.824 25.024 166.395 25.856C164.966 26.688 163.366 27.104 161.595 27.104C159.803 27.104 158.192 26.688 156.763 25.856C155.355 25.024 154.246 23.8827 153.435 22.432C152.624 20.96 152.219 19.3173 152.219 17.504C152.219 15.6907 152.624 14.0587 153.435 12.608C154.246 11.136 155.355 9.984 156.763 9.152C158.192 8.32 159.803 7.904 161.595 7.904ZM161.595 10.816C160.4 10.816 159.334 11.1147 158.395 11.712C157.478 12.288 156.752 13.088 156.219 14.112C155.707 15.1147 155.451 16.2453 155.451 17.504C155.451 18.7627 155.707 19.904 156.219 20.928C156.752 21.9307 157.478 22.7307 158.395 23.328C159.334 23.904 160.4 24.192 161.595 24.192C162.768 24.192 163.824 23.904 164.763 23.328C165.702 22.7307 166.427 21.9307 166.939 20.928C167.451 19.904 167.707 18.7627 167.707 17.504C167.707 16.2453 167.451 15.1147 166.939 14.112C166.427 13.088 165.702 12.288 164.763 11.712C163.824 11.1147 162.768 10.816 161.595 10.816ZM191.361 8.352L183.617 26.656H180.129L172.417 8.352H176.001L181.985 22.912L187.969 8.352H191.361ZM201.715 27.104C199.966 27.104 198.387 26.688 196.979 25.856C195.593 25.024 194.505 23.8827 193.715 22.432C192.926 20.96 192.531 19.3173 192.531 17.504C192.531 15.6907 192.926 14.0587 193.715 12.608C194.505 11.136 195.593 9.984 196.979 9.152C198.387 8.32 199.966 7.904 201.715 7.904C203.465 7.904 205.033 8.32 206.419 9.152C207.827 9.984 208.915 11.136 209.683 12.608C210.473 14.0587 210.867 15.6907 210.867 17.504C210.867 18.1013 210.846 18.5493 210.803 18.848H195.827C195.998 20.448 196.617 21.76 197.683 22.784C198.771 23.808 200.115 24.32 201.715 24.32C202.931 24.32 203.998 24.0747 204.915 23.584C205.854 23.072 206.494 22.432 206.835 21.664H210.195C209.683 23.264 208.659 24.5653 207.123 25.568C205.587 26.592 203.785 27.104 201.715 27.104ZM207.635 16.16C207.443 14.5387 206.814 13.2267 205.747 12.224C204.681 11.2 203.337 10.688 201.715 10.688C200.094 10.688 198.75 11.2 197.683 12.224C196.617 13.2267 195.998 14.5387 195.827 16.16H207.635Z" fill="#595B5A"/>
</svg>
