<svg width="376" height="147" viewBox="0 0 376 147" fill="none" xmlns="http://www.w3.org/2000/svg">
<path d="M61.6677 9.329H70.6917L68.5797 10.577C66.5637 11.825 64.9317 13.649 63.8757 15.761L35.1717 76.625L6.08369 15.089C5.12369 13.073 3.58769 11.345 1.66769 10.097L0.515691 9.329H13.9557C12.8997 11.057 12.8037 13.073 13.6677 14.897L38.2437 66.929L62.4357 15.569C63.3957 13.649 63.2037 11.441 61.9557 9.713L61.6677 9.329ZM113.973 9.425H122.997L121.269 10.865C119.925 11.921 119.157 13.553 119.157 15.281L119.349 56.177C119.349 67.505 110.133 76.625 98.8047 76.625C98.8047 76.817 98.8047 76.721 98.8047 76.625C98.3247 76.625 97.8447 76.625 97.3647 76.625C97.0767 76.625 96.7887 76.625 96.5007 76.529C95.7327 76.433 94.9647 76.433 94.3887 76.241C93.7167 76.145 93.0447 76.049 92.4687 75.953L90.7407 75.473C88.6287 74.897 86.6127 74.033 84.6927 72.881C82.4847 71.537 80.5647 69.713 79.1247 67.601C78.6447 66.929 78.1647 66.257 77.7807 65.489C77.3967 64.625 77.0127 63.761 76.6287 62.897C75.9567 60.689 75.5727 58.481 75.5727 56.177L75.4767 14.897C75.4767 13.265 74.7087 11.729 73.5567 10.673L72.2127 9.329H85.6527L84.3087 10.577C83.0607 11.729 82.3887 13.265 82.3887 14.897L82.4847 56.177C82.5807 57.809 82.7727 59.345 83.0607 60.977C83.2527 61.649 83.4447 62.225 83.6367 62.897C83.9247 63.473 84.1167 64.049 84.3087 64.529C85.1727 66.449 86.1327 68.177 87.3807 69.713C88.6287 71.153 89.9727 72.401 91.6047 73.361L93.0447 74.129C93.5247 74.321 94.1007 74.513 94.6767 74.705C95.3487 74.897 96.0207 74.993 96.5967 75.089C96.9807 75.185 97.3647 75.185 97.6527 75.185L98.2287 75.281H98.5167H98.7087H98.8047C98.8047 75.185 98.8047 75.185 98.8047 75.281C109.365 75.281 117.909 66.737 117.909 56.177L117.813 15.281C117.813 13.553 117.045 12.017 115.701 10.865L113.973 9.425ZM191.173 81.809V83.249H191.077C185.317 83.345 181.573 83.249 177.925 80.561C176.005 78.929 174.469 76.913 173.701 74.513C172.645 71.441 171.877 68.369 171.301 65.201C171.205 64.721 171.109 64.337 171.013 63.953L170.629 62.801C170.437 62.129 170.149 61.553 169.957 60.881C169.669 60.305 169.381 59.825 169.189 59.345C168.901 58.769 168.613 58.385 168.325 57.905C168.037 57.521 167.749 57.137 167.461 56.753C167.173 56.369 166.885 55.985 166.597 55.697C166.309 55.313 166.021 55.025 165.733 54.641L164.869 53.777C163.525 52.625 162.085 51.665 160.549 50.993C158.437 50.033 156.133 49.553 153.829 49.553H138.277V69.617C138.277 72.209 139.333 74.705 141.253 76.433L141.541 76.721H128.101L128.293 76.433C130.213 74.705 131.269 72.209 131.269 69.617V16.433C131.269 13.841 130.213 11.345 128.293 9.617L128.101 9.329H153.829C156.709 9.329 159.589 9.713 162.373 10.385C164.581 10.865 166.693 11.537 168.805 12.497C171.205 13.745 173.413 15.377 175.141 17.489C176.389 18.929 177.349 20.561 178.021 22.289C178.405 23.441 178.789 24.497 178.981 25.649C179.077 26.225 179.173 26.897 179.269 27.473C179.269 27.857 179.269 28.145 179.269 28.529C179.365 28.817 179.365 29.201 179.365 29.489C179.365 29.681 179.365 30.065 179.269 30.353C179.269 30.737 179.269 31.025 179.269 31.409C179.173 31.985 179.077 32.657 178.981 33.233C178.789 34.385 178.405 35.537 178.021 36.593C177.349 38.321 176.389 39.953 175.141 41.393C173.413 43.505 171.205 45.233 168.805 46.385C166.693 47.345 164.581 48.113 162.373 48.593C161.989 48.689 161.509 48.689 161.125 48.785C163.141 49.073 165.061 49.553 166.885 50.225L168.325 50.801C168.805 50.993 169.285 51.281 169.861 51.569C170.341 51.857 170.917 52.241 171.397 52.625C171.973 53.009 172.453 53.489 172.933 53.969C173.509 54.545 173.989 55.121 174.469 55.697C174.949 56.369 175.525 57.137 175.909 57.905C176.389 58.769 176.773 59.633 177.157 60.593C177.349 61.073 177.541 61.553 177.637 62.033L178.021 63.569C178.597 65.681 178.789 67.505 178.981 68.945C179.173 70.481 179.365 71.729 179.557 72.785C179.749 74.513 180.229 76.145 180.997 77.681C181.765 79.121 182.917 80.177 184.453 80.753C184.837 80.945 185.317 81.137 185.701 81.329C186.277 81.425 186.757 81.521 187.333 81.617C188.581 81.809 189.925 81.809 191.173 81.809ZM154.021 48.113C156.709 48.113 159.301 47.537 161.701 46.385C163.429 45.521 165.061 44.369 166.405 42.929C167.845 41.393 169.189 39.761 170.149 37.937C170.821 36.785 171.301 35.537 171.685 34.289C171.973 33.521 172.069 32.849 172.165 32.081C172.261 31.697 172.357 31.217 172.357 30.833C172.357 30.641 172.357 30.449 172.357 30.161C172.357 29.969 172.357 29.777 172.357 29.489C172.357 29.105 172.357 28.913 172.357 28.721C172.357 28.529 172.357 28.241 172.357 28.049C172.357 27.665 172.261 27.185 172.165 26.801C172.069 26.033 171.973 25.361 171.685 24.593C171.301 23.345 170.821 22.097 170.149 20.945C169.093 19.121 167.845 17.393 166.405 15.953C165.061 14.513 163.429 13.361 161.605 12.497C159.205 11.345 156.517 10.769 153.925 10.769H138.277V48.113H153.925H154.021ZM220.498 75.281C223.09 75.281 225.586 74.225 227.314 72.305L230.194 69.233V76.625H186.226L186.418 76.433C188.338 74.705 189.394 72.209 189.394 69.617V16.433C189.394 13.841 188.338 11.345 186.418 9.617L186.226 9.329H230.194V16.817L227.314 13.745C225.586 11.825 223.09 10.769 220.498 10.769H196.402V42.353H206.674C209.266 42.353 211.762 41.201 213.49 39.377L216.37 36.305V49.745L213.49 46.673C211.762 44.753 209.266 43.697 206.674 43.697H196.402V75.281H220.498ZM238.064 4.817C238.064 4.913 238.256 10.961 232.688 12.209L232.4 10.865C234.032 10.577 235.376 9.425 236.048 7.889C234.608 8.561 232.976 8.17699 231.92 7.025C230.96 5.873 230.864 4.14499 231.632 2.897C232.496 1.55299 234.128 0.976995 235.568 1.457C237.104 1.93699 238.064 3.28099 238.064 4.817ZM269.589 64.529C269.781 66.065 269.493 67.601 269.013 68.945C268.053 71.537 266.229 73.553 263.733 74.705C261.333 75.857 258.645 76.529 255.861 76.625C255.573 76.625 255.189 76.625 254.805 76.625H254.709C252.885 76.625 251.061 76.433 249.333 76.049C245.877 75.281 242.805 73.457 240.405 70.961C239.829 70.385 240.309 69.329 241.365 68.657C242.037 68.177 242.709 67.793 243.477 67.505C244.725 67.025 245.589 66.833 245.781 67.313C246.645 69.905 248.181 72.113 250.293 73.745C251.637 74.705 253.173 75.281 254.805 75.281H254.901C257.685 75.377 260.373 74.513 262.581 72.785C264.021 71.633 264.885 69.905 264.981 67.985C264.981 67.217 264.789 66.353 264.501 65.489C264.309 65.105 264.117 64.721 263.925 64.337C263.733 64.145 263.637 63.953 263.541 63.761C263.349 63.665 263.253 63.473 263.061 63.377C262.005 62.609 260.853 61.841 259.605 61.265C257.877 60.497 256.149 59.633 253.941 58.577C249.525 56.465 245.781 54.257 243.477 51.185C242.421 49.745 241.653 48.017 241.269 46.289C241.077 44.753 241.173 43.217 241.653 41.777C242.517 39.185 244.245 37.073 246.453 35.729C249.237 34.097 252.309 33.329 255.477 33.521C257.397 33.521 259.221 33.713 260.949 34.193C262.677 34.673 264.309 35.537 265.653 36.785C266.997 37.937 268.245 39.377 269.205 40.913C269.589 41.489 268.917 42.449 267.765 42.929C266.997 43.217 266.133 43.409 265.365 43.601C264.117 43.793 263.157 43.697 263.157 43.217C262.965 40.625 261.717 38.225 259.797 36.497C258.645 35.441 257.109 34.865 255.477 34.865C254.997 34.865 254.613 34.865 254.229 34.961C251.829 35.057 249.621 35.921 247.893 37.457C246.453 38.801 245.685 40.625 245.781 42.545C245.781 44.369 246.645 46.001 248.085 47.153C249.813 48.785 252.597 50.225 256.917 52.337C258.933 53.201 260.949 54.257 262.869 55.409C264.693 56.465 266.229 57.809 267.573 59.345C267.957 59.729 268.245 60.209 268.533 60.689C269.109 61.937 269.493 63.185 269.589 64.529ZM303.465 76.625C305.577 74.801 306.729 72.017 306.729 69.233V18.641L301.641 19.121C305.673 17.393 310.185 12.977 313.257 9.809L313.737 9.329V69.233C313.737 72.017 314.889 74.801 316.905 76.625H303.465ZM352.37 64.529C352.562 66.065 352.274 67.601 351.794 68.945C350.834 71.537 349.01 73.553 346.514 74.705C344.114 75.857 341.426 76.529 338.642 76.625C338.354 76.625 337.97 76.625 337.586 76.625H337.49C335.666 76.625 333.842 76.433 332.114 76.049C328.658 75.281 325.586 73.457 323.186 70.961C322.61 70.385 323.09 69.329 324.146 68.657C324.818 68.177 325.49 67.793 326.258 67.505C327.506 67.025 328.37 66.833 328.562 67.313C329.426 69.905 330.962 72.113 333.074 73.745C334.418 74.705 335.954 75.281 337.586 75.281H337.682C340.466 75.377 343.154 74.513 345.362 72.785C346.802 71.633 347.666 69.905 347.762 67.985C347.762 67.217 347.57 66.353 347.282 65.489C347.09 65.105 346.898 64.721 346.706 64.337C346.514 64.145 346.418 63.953 346.322 63.761C346.13 63.665 346.034 63.473 345.842 63.377C344.786 62.609 343.634 61.841 342.386 61.265C340.658 60.497 338.93 59.633 336.722 58.577C332.306 56.465 328.562 54.257 326.258 51.185C325.202 49.745 324.434 48.017 324.05 46.289C323.858 44.753 323.954 43.217 324.434 41.777C325.298 39.185 327.026 37.073 329.234 35.729C332.018 34.097 335.09 33.329 338.258 33.521C340.178 33.521 342.002 33.713 343.73 34.193C345.458 34.673 347.09 35.537 348.434 36.785C349.778 37.937 351.026 39.377 351.986 40.913C352.37 41.489 351.698 42.449 350.546 42.929C349.778 43.217 348.914 43.409 348.146 43.601C346.898 43.793 345.938 43.697 345.938 43.217C345.746 40.625 344.498 38.225 342.578 36.497C341.426 35.441 339.89 34.865 338.258 34.865C337.778 34.865 337.394 34.865 337.01 34.961C334.61 35.057 332.402 35.921 330.674 37.457C329.234 38.801 328.466 40.625 328.562 42.545C328.562 44.369 329.426 46.001 330.866 47.153C332.594 48.785 335.378 50.225 339.698 52.337C341.714 53.201 343.73 54.257 345.65 55.409C347.474 56.465 349.01 57.809 350.354 59.345C350.738 59.729 351.026 60.209 351.314 60.689C351.89 61.937 352.274 63.185 352.37 64.529ZM375.747 34.865H367.875V61.457C367.875 63.281 367.971 65.201 368.259 67.121C368.355 68.369 368.643 69.617 368.931 70.769C369.219 71.921 369.795 72.881 370.563 73.745C371.715 74.801 373.251 75.377 374.787 75.281V76.625C372.867 76.721 371.043 76.337 369.315 75.665C367.971 74.993 366.627 74.225 365.571 73.169C364.227 72.017 363.171 70.577 362.403 68.945C361.443 66.545 360.867 64.049 360.867 61.457V34.865H355.683C362.019 32.177 367.875 19.889 367.875 19.889V33.521H375.747V34.865ZM46.4997 128.289C47.1717 134.529 44.0037 140.577 38.3397 143.457C36.4197 144.513 34.4037 145.281 32.2917 145.761C30.6597 146.145 29.0277 146.433 27.3957 146.529H27.1077C26.8197 146.529 26.6277 146.625 26.3397 146.625C25.7637 146.625 25.0917 146.625 24.5157 146.625C21.9237 146.721 19.3317 146.433 16.7397 146.049C11.8437 145.089 7.33169 142.881 3.68369 139.617C3.39569 139.233 3.20369 138.657 3.29969 138.081C3.29969 137.505 3.68369 137.025 4.06769 136.737C4.73969 136.161 5.41169 135.777 6.08369 135.393C7.23569 134.817 8.29169 134.817 8.67569 135.393C10.7877 138.945 13.8597 141.729 17.5077 143.553C19.7157 144.705 22.1157 145.281 24.5157 145.281C24.6117 145.281 24.7077 145.281 24.8037 145.281C27.2997 145.281 29.6997 144.897 32.0037 144.129C33.9237 143.553 35.6517 142.689 37.2837 141.537C39.7797 139.617 41.4117 136.833 41.7957 133.665C41.9877 132.225 41.7957 130.689 41.4117 129.153C41.1237 128.385 40.8357 127.617 40.4517 126.945C40.2597 126.561 39.9717 126.177 39.7797 125.889C39.4917 125.505 39.2037 125.217 38.9157 124.929C37.1877 123.393 35.1717 122.145 33.0597 121.185C30.4677 119.745 27.5877 118.401 24.1317 116.673C20.8677 115.233 17.7957 113.505 14.8197 111.585C12.2277 110.049 10.0197 108.033 8.09969 105.633C6.46769 103.617 5.31569 101.313 4.73969 98.721C4.35569 96.513 4.45169 94.305 5.02769 92.193C6.17969 88.353 8.57969 85.089 11.8437 82.977C15.2997 80.673 19.8117 79.329 25.6677 79.329C28.3557 79.329 30.9477 79.713 33.4437 80.385C35.8437 81.057 38.0517 82.209 39.9717 83.649C41.9877 85.185 43.7157 87.009 45.1557 89.025C45.4437 89.505 45.5397 90.081 45.3477 90.657C45.1557 91.137 44.7717 91.521 44.2917 91.809C43.5237 92.193 42.7557 92.481 41.9877 92.673C40.7397 93.057 39.6837 92.865 39.4917 92.097C38.2437 88.257 35.7477 84.993 32.3877 82.785C30.3717 81.441 28.0677 80.769 25.6677 80.769C20.0037 80.769 15.8757 82.401 13.2837 84.801C10.8837 86.817 9.34769 89.793 9.15569 92.961C8.96369 95.937 9.82769 98.817 12.7077 101.697C14.4357 103.329 16.2597 104.769 18.3717 105.921C20.7717 107.361 23.6517 108.801 27.1077 110.433C28.8357 111.297 30.4677 112.065 32.0037 112.833C32.7717 113.313 33.6357 113.697 34.3077 114.081L36.3237 115.233C39.0117 116.769 41.4117 118.593 43.5237 120.897C44.0037 121.473 44.3877 122.145 44.7717 122.817C45.0597 123.393 45.3477 123.969 45.6357 124.641C46.0197 125.793 46.3077 127.041 46.4997 128.289ZM91.6264 134.145L92.8744 134.529L92.6824 135.201C92.6824 135.297 89.1304 146.145 73.9624 146.433H73.3864C73.3864 146.433 72.6184 146.433 72.5224 146.433C72.1384 146.433 71.6584 146.337 71.2744 146.337C69.2584 146.145 67.2424 145.665 65.2264 144.897C63.2104 144.225 61.2904 143.169 59.5624 141.921C57.4504 140.385 55.7224 138.561 54.4744 136.353C50.4424 129.345 50.4424 120.801 54.4744 113.793C55.7224 111.681 57.4504 109.761 59.5624 108.225C61.2904 106.977 63.2104 105.921 65.2264 105.249C67.2424 104.481 69.2584 104.001 71.2744 103.809C71.9464 103.713 72.6184 103.713 73.2904 103.713H73.9624C76.5544 103.809 79.1464 104.385 81.6424 105.345C86.4424 107.169 90.1864 111.105 91.8184 116.097C92.0104 116.481 92.1064 116.865 92.2024 117.249C92.2024 117.345 92.2024 117.345 92.2024 117.441H59.5624C58.7944 119.937 58.4104 122.529 58.4104 125.121C58.4104 128.001 58.8904 130.881 59.8504 133.665C60.5224 135.585 61.3864 137.313 62.5384 138.945C63.4984 140.577 64.7464 141.921 66.2824 142.881C68.0104 144.129 70.0264 144.801 72.0424 144.993C72.4264 144.993 72.8104 145.089 73.2904 145.089H73.3864C87.9784 144.993 91.2424 135.201 91.3384 134.817L91.6264 134.145ZM62.5384 111.201C61.4824 112.737 60.7144 114.369 60.0424 116.097H85.6744C85.4824 114.753 85.0984 113.601 84.5224 112.449C83.5624 110.529 82.1224 108.801 80.3944 107.553C78.3784 106.017 75.8824 105.153 73.2904 105.057H73.1944L73.0984 105.153C70.6024 105.153 68.2984 105.921 66.1864 107.265C64.7464 108.321 63.4984 109.665 62.5384 111.201ZM104.69 103.521C102.77 103.521 101.234 101.889 101.234 99.969C101.234 98.049 102.77 96.513 104.69 96.513C106.61 96.513 108.242 98.049 108.242 99.969C108.242 101.889 106.61 103.521 104.69 103.521ZM101.234 117.825C101.234 116.097 101.042 114.273 100.658 112.449C100.466 111.297 100.082 110.145 99.6979 108.993C98.6419 106.401 96.0499 104.769 93.2659 104.865V103.521C95.0899 103.521 96.9139 103.713 98.6419 104.289C100.082 104.673 101.522 105.345 102.77 106.209C104.21 107.265 105.458 108.609 106.322 110.145C107.57 112.545 108.242 115.233 108.146 117.825V139.617C108.146 142.209 109.298 144.705 111.218 146.433L111.41 146.625H97.9699L98.2579 146.433C100.178 144.705 101.234 142.209 101.234 139.617V117.825ZM145.207 107.169C145.207 107.265 145.303 107.457 145.303 107.553C145.303 108.129 145.111 108.705 144.727 109.185C144.151 109.761 143.575 110.337 142.903 110.817C142.519 111.201 141.943 111.393 141.463 111.585H141.367C141.175 111.585 140.983 111.585 140.791 111.585C140.695 111.489 140.599 111.489 140.503 111.393C139.639 110.241 138.295 109.569 136.855 109.569C135.031 109.665 133.207 110.337 131.767 111.489C130.039 112.833 128.791 114.561 127.927 116.577C127.927 116.961 127.927 117.441 127.927 117.825H128.023V139.617C128.023 142.209 129.079 144.705 130.999 146.433L131.191 146.721H117.751L118.039 146.433C119.959 144.705 121.015 142.209 121.015 139.617V117.825C121.015 116.097 120.823 114.273 120.439 112.449C120.247 111.297 119.863 110.145 119.479 108.993C118.423 106.401 115.831 104.769 113.047 104.865V103.521C114.871 103.521 116.695 103.713 118.423 104.289C119.863 104.673 121.303 105.345 122.551 106.209C123.991 107.265 125.239 108.609 126.103 110.145C126.775 111.393 127.255 112.641 127.543 113.889C128.215 112.449 128.983 111.105 129.943 109.761C131.383 107.649 133.495 106.017 135.895 105.153C138.007 104.385 140.311 104.481 142.423 105.249C142.807 105.345 143.191 105.537 143.479 105.633L144.439 106.209C144.823 106.401 145.111 106.785 145.207 107.169ZM186.408 134.145L187.656 134.529L187.464 135.201C187.464 135.297 183.912 146.145 168.744 146.433H168.168C168.168 146.433 167.4 146.433 167.304 146.433C166.92 146.433 166.44 146.337 166.056 146.337C164.04 146.145 162.024 145.665 160.008 144.897C157.992 144.225 156.072 143.169 154.344 141.921C152.232 140.385 150.504 138.561 149.256 136.353C145.224 129.345 145.224 120.801 149.256 113.793C150.504 111.681 152.232 109.761 154.344 108.225C156.072 106.977 157.992 105.921 160.008 105.249C162.024 104.481 164.04 104.001 166.056 103.809C166.728 103.713 167.4 103.713 168.072 103.713H168.744C171.336 103.809 173.928 104.385 176.424 105.345C181.224 107.169 184.968 111.105 186.6 116.097C186.792 116.481 186.888 116.865 186.984 117.249C186.984 117.345 186.984 117.345 186.984 117.441H154.344C153.576 119.937 153.192 122.529 153.192 125.121C153.192 128.001 153.672 130.881 154.632 133.665C155.304 135.585 156.168 137.313 157.32 138.945C158.28 140.577 159.528 141.921 161.064 142.881C162.792 144.129 164.808 144.801 166.824 144.993C167.208 144.993 167.592 145.089 168.072 145.089H168.168C182.76 144.993 186.024 135.201 186.12 134.817L186.408 134.145ZM157.32 111.201C156.264 112.737 155.496 114.369 154.824 116.097H180.456C180.264 114.753 179.88 113.601 179.304 112.449C178.344 110.529 176.904 108.801 175.176 107.553C173.16 106.017 170.664 105.153 168.072 105.057H167.976L167.88 105.153C165.384 105.153 163.08 105.921 160.968 107.265C159.528 108.321 158.28 109.665 157.32 111.201ZM221.401 134.529C221.593 136.065 221.305 137.601 220.825 138.945C219.865 141.537 218.041 143.553 215.545 144.705C213.145 145.857 210.457 146.529 207.673 146.625C207.385 146.625 207.001 146.625 206.617 146.625H206.521C204.697 146.625 202.873 146.433 201.145 146.049C197.689 145.281 194.617 143.457 192.217 140.961C191.641 140.385 192.121 139.329 193.177 138.657C193.849 138.177 194.521 137.793 195.289 137.505C196.537 137.025 197.401 136.833 197.593 137.313C198.457 139.905 199.993 142.113 202.105 143.745C203.449 144.705 204.985 145.281 206.617 145.281H206.713C209.497 145.377 212.185 144.513 214.393 142.785C215.833 141.633 216.697 139.905 216.793 137.985C216.793 137.217 216.601 136.353 216.313 135.489C216.121 135.105 215.929 134.721 215.737 134.337C215.545 134.145 215.449 133.953 215.353 133.761C215.161 133.665 215.065 133.473 214.873 133.377C213.817 132.609 212.665 131.841 211.417 131.265C209.689 130.497 207.961 129.633 205.753 128.577C201.337 126.465 197.593 124.257 195.289 121.185C194.233 119.745 193.465 118.017 193.081 116.289C192.889 114.753 192.985 113.217 193.465 111.777C194.329 109.185 196.057 107.073 198.265 105.729C201.049 104.097 204.121 103.329 207.289 103.521C209.209 103.521 211.033 103.713 212.761 104.193C214.489 104.673 216.121 105.537 217.465 106.785C218.809 107.937 220.057 109.377 221.017 110.913C221.401 111.489 220.729 112.449 219.577 112.929C218.809 113.217 217.945 113.409 217.177 113.601C215.929 113.793 214.969 113.697 214.969 113.217C214.777 110.625 213.529 108.225 211.609 106.497C210.457 105.441 208.921 104.865 207.289 104.865C206.809 104.865 206.425 104.865 206.041 104.961C203.641 105.057 201.433 105.921 199.705 107.457C198.265 108.801 197.497 110.625 197.593 112.545C197.593 114.369 198.457 116.001 199.897 117.153C201.625 118.785 204.409 120.225 208.729 122.337C210.745 123.201 212.761 124.257 214.681 125.409C216.505 126.465 218.041 127.809 219.385 129.345C219.769 129.729 220.057 130.209 220.345 130.689C220.921 131.937 221.305 133.185 221.401 134.529Z" fill="#1A1A1A"/>
</svg>
