<svg width="363" height="69" viewBox="0 0 363 69" fill="none" xmlns="http://www.w3.org/2000/svg">
<path d="M22.2938 68.2139L16.5158 68.2679V65.3519C15.8138 65.8919 15.0578 66.3779 14.2478 66.8099C13.4918 67.1879 12.6818 67.5119 11.8718 67.6739C11.3318 67.8359 10.7918 67.9439 10.2518 68.0519C9.00977 68.2679 7.76777 68.2679 6.57977 68.1059C5.28377 67.9439 4.09577 67.5119 3.01577 66.8099L2.58377 66.5399C2.42177 66.4319 2.31377 66.3239 2.15177 66.1619C1.88177 65.9459 1.61177 65.6219 1.39577 65.3519C1.17977 64.9739 0.963774 64.6499 0.801774 64.2719C0.639774 63.8939 0.531774 63.5699 0.423774 63.1919C0.0997738 61.7879 0.207774 60.2759 0.747774 58.9259C1.28777 57.6839 2.09777 56.6579 3.12377 55.8479C4.20377 55.0919 5.33777 54.4979 6.52577 54.0659C7.76777 53.5799 9.06377 53.2019 10.3598 52.9319C16.0298 51.5279 16.2458 49.6919 16.2458 49.6379H16.2998C16.2458 49.3679 16.1918 49.0979 16.1378 48.8279C15.9758 48.1799 15.7058 47.5319 15.3278 46.9379C15.0038 46.3439 14.5178 45.8579 13.9778 45.4799C13.1678 44.9399 12.2498 44.7239 11.2778 44.7239C10.0898 44.7239 8.95577 45.1019 7.98377 45.8039C6.47177 46.9919 5.55377 48.7739 5.49977 50.7179C5.44577 51.0959 4.90577 51.2579 4.20377 51.2039C3.71777 51.2039 3.28577 51.1499 2.85377 50.9879C2.15177 50.7719 1.71977 50.1779 1.98977 49.7459C2.47577 48.5039 3.23177 47.4239 4.14977 46.5059C5.01377 45.5879 6.14777 44.8859 7.33577 44.5079C8.63177 44.1299 9.92777 43.9139 11.2778 43.9679C12.3578 43.9679 13.3838 44.0759 14.4638 44.2919C15.3278 44.4539 16.1378 44.7779 16.8938 45.1559C17.8658 45.6959 18.6218 46.4519 19.2158 47.3699C20.0258 48.7199 20.4578 50.3399 20.4578 51.9059V64.2719C20.4578 65.7299 21.0518 67.1339 22.1318 68.1059L22.2938 68.2139ZM13.8698 66.1079C14.8418 65.6219 15.7058 65.0279 16.5158 64.3259V51.9059C16.5158 51.5279 16.5158 51.2039 16.4618 50.8799C15.7598 51.6899 14.1398 52.8239 10.5218 53.6879C7.76777 54.3899 5.82377 55.8479 4.85177 57.4679C4.41977 58.1699 4.09577 59.0339 4.04177 59.8439C3.98777 60.6539 4.04177 61.4639 4.25777 62.2199C4.25777 62.4359 4.36577 62.6519 4.41977 62.8679C4.47377 62.9759 4.47377 63.1379 4.58177 63.2999C4.63577 63.4619 4.74377 63.6239 4.85177 63.7319L5.01377 64.0019L5.17577 64.2179C5.76977 64.8659 6.47177 65.4599 7.22777 65.8919C8.14577 66.3779 9.17177 66.7019 10.2518 66.8099C11.4938 66.9179 12.7358 66.6479 13.8698 66.1079ZM46.3305 50.2319C48.0585 53.9579 48.0585 58.2239 46.3305 61.9499C45.7365 63.1919 44.9805 64.2719 44.0085 65.1899C43.1445 65.9459 42.2265 66.6479 41.2005 67.1339C40.2285 67.6739 39.2025 67.9979 38.1225 68.1599C37.7445 68.2139 37.3665 68.2139 37.0425 68.2679C34.3965 68.2679 32.0205 66.7559 30.4005 64.3259V68.2679H24.6765L24.7845 68.1059C25.8645 67.1339 26.4585 65.7299 26.4585 64.2719V38.4599C26.4585 36.9479 26.8365 35.4899 27.5385 34.1399C28.0245 33.2219 28.7265 32.4659 29.5365 31.9259C30.2385 31.4399 31.0485 31.0619 31.8585 30.7919C32.8305 30.5219 33.8565 30.3599 34.8825 30.3599V31.1699C33.3165 31.0619 31.8585 32.0339 31.2645 33.4919C31.0485 34.0859 30.8325 34.7339 30.7245 35.4359C30.5085 36.4079 30.4005 37.4339 30.4005 38.4599V47.8559C32.0205 45.4799 34.3965 43.9679 37.0425 43.9679C37.4205 43.9679 37.8525 43.9679 38.2305 44.0759C39.2565 44.2379 40.2825 44.5619 41.2545 45.0479C42.2265 45.5879 43.1985 46.2359 44.0085 46.9919C44.9805 47.9639 45.7905 49.0439 46.3305 50.2319ZM43.1445 60.7619C43.9005 57.6839 43.9005 54.4979 43.1445 51.4199C42.8745 50.3939 42.5505 49.3679 42.1185 48.3959C41.7405 47.5319 41.2005 46.7759 40.4985 46.0739C39.5265 45.2099 38.2845 44.7239 37.0425 44.7239C34.2885 44.7239 31.9125 46.5599 30.4005 49.3679V62.8679C31.9125 65.6219 34.2885 67.4579 37.0425 67.4579C38.2845 67.4579 39.5265 66.9719 40.4985 66.1079C41.2005 65.4599 41.7405 64.6499 42.1185 63.7859C42.5505 62.8139 42.8745 61.7879 43.1445 60.7619ZM73.5216 49.7459C75.7896 53.6879 75.7896 58.4939 73.5216 62.4359C72.8196 63.7319 71.8476 64.8119 70.6596 65.6219C69.6876 66.3779 68.6076 66.9719 67.4196 67.3499C66.3396 67.7819 65.2056 68.0519 64.0176 68.1599C63.6396 68.2139 63.3156 68.2139 62.9376 68.2139H62.8836C62.5056 68.2139 62.1276 68.2139 61.8036 68.1599C60.6156 68.0519 59.4816 67.7819 58.4016 67.3499C57.2136 66.9719 56.1336 66.3779 55.1616 65.6219C53.9736 64.8119 53.0016 63.7319 52.2456 62.4359C50.0316 58.4939 50.0316 53.6879 52.2456 49.7459C53.0016 48.5039 53.9736 47.3699 55.1616 46.5599C56.1336 45.8039 57.2136 45.2099 58.4016 44.8319C59.4816 44.3999 60.6156 44.1299 61.8036 44.0219C62.1276 43.9679 62.5056 43.9679 62.8836 43.9679C63.2616 43.9679 63.6396 43.9679 64.0176 44.0219C65.2056 44.1299 66.3396 44.3999 67.4196 44.8319C68.6076 45.2099 69.6876 45.8039 70.6596 46.5599C71.8476 47.3699 72.8196 48.5039 73.5216 49.7459ZM70.4436 60.9779C71.5776 57.7919 71.5776 54.3899 70.4436 51.2039C70.1196 50.1239 69.5796 49.1519 68.9856 48.1799C68.4456 47.3159 67.6896 46.5599 66.8796 45.9659C65.6916 45.1559 64.3416 44.7239 62.8836 44.7239H62.8296C61.4256 44.7239 60.0756 45.1559 58.9416 45.9659C58.0776 46.5599 57.3756 47.3159 56.8356 48.1799C56.1876 49.1519 55.7016 50.1239 55.3776 51.2039C54.2436 54.3899 54.2436 57.7919 55.3776 60.9779C55.7016 62.0579 56.1876 63.0839 56.8356 64.0019C57.3756 64.8659 58.0776 65.6759 58.9416 66.2699C60.1296 67.0259 61.4796 67.4579 62.8836 67.4579H62.9376H62.9916C64.3956 67.4579 65.7456 67.0259 66.8796 66.2159C67.7436 65.6219 68.4456 64.8659 68.9856 64.0019C69.5796 63.0299 70.1196 62.0579 70.4436 60.9779ZM98.7624 64.2719C98.7624 65.7299 99.4104 67.1339 100.436 68.1059L100.598 68.2139H94.8744V65.6219C93.2544 67.2419 91.0404 68.1599 88.7184 68.1059H88.3944C87.3684 68.1059 86.2884 67.9439 85.2624 67.6739C84.3984 67.4039 83.5884 67.0259 82.8864 66.4859C82.0224 65.8379 81.3744 65.0279 80.8884 64.0559C80.2404 62.6519 79.9164 61.1399 79.9164 59.6279V52.0679V52.0139C79.9164 51.0419 79.8084 50.0159 79.5924 48.9899C79.4844 48.3419 79.2684 47.6939 79.0524 47.0459C78.4584 45.5879 77.0004 44.6699 75.4344 44.7239V43.9679C76.4604 43.9679 77.4864 44.0759 78.4584 44.3999C79.2684 44.6159 80.0784 44.9939 80.7804 45.4799C81.5904 46.0739 82.2924 46.8299 82.7784 47.6939C83.4804 49.0439 83.8584 50.5559 83.8044 52.0139H83.8584V59.6279C83.8584 60.7079 83.9124 61.8419 84.1284 62.9219C84.2364 63.6239 84.3984 64.2719 84.6684 64.9739C84.8844 65.5679 85.3164 66.1079 85.8024 66.5399C86.4504 66.9719 87.2064 67.2419 87.9624 67.2959C88.1244 67.2959 88.2864 67.3499 88.3944 67.3499H88.7184C91.1484 67.3499 93.3624 66.2699 94.8744 64.4339V47.9099C94.8744 46.4519 94.2804 45.1019 93.2004 44.0759L93.0384 43.9679H100.598L100.436 44.0759C99.4104 45.1019 98.7624 46.4519 98.7624 47.9099V64.2719ZM113.835 44.7239H109.407V59.6819C109.407 60.7079 109.461 61.7879 109.623 62.8679C109.677 63.5699 109.839 64.2719 110.001 64.9199C110.163 65.5679 110.487 66.1079 110.919 66.5939C111.567 67.1879 112.431 67.5119 113.295 67.4579V68.2139C112.215 68.2679 111.189 68.0519 110.217 67.6739C109.461 67.2959 108.705 66.8639 108.111 66.2699C107.355 65.6219 106.761 64.8119 106.329 63.8939C105.789 62.5439 105.465 61.1399 105.465 59.6819V44.7239H102.549C106.113 43.2119 109.407 36.2999 109.407 36.2999V43.9679H113.835V44.7239ZM188.021 60.7647V68.2139H131.91L132.2 68.0204C134.038 66.1823 135.199 63.7637 135.199 61.1516V7.55609C135.199 4.94403 134.038 2.42872 132.2 0.687345L131.91 0.397114H145.454L145.164 0.687345C143.229 2.42872 142.165 4.94403 142.165 7.55609V66.8595H178.346C180.958 66.8595 183.474 65.7953 185.215 63.8604L188.021 60.7647ZM245.617 17.3271C250.938 27.9688 250.938 40.5454 245.617 51.1871C243.779 54.6699 241.457 57.6689 238.555 60.1842C237.298 61.2484 236.04 62.2158 234.685 63.1832L232.557 64.3442C231.88 64.8279 231.009 65.1181 230.235 65.5051C227.43 66.7627 224.431 67.6334 221.432 68.0204C220.271 68.2139 219.11 68.2139 218.046 68.2139H217.949C216.788 68.2139 215.724 68.2139 214.563 68.0204C211.467 67.6334 208.565 66.7627 205.759 65.5051C204.985 65.1181 204.115 64.8279 203.438 64.3442L201.309 63.1832C199.955 62.2158 198.697 61.2484 197.439 60.1842C194.537 57.6689 192.119 54.6699 190.377 51.1871C185.056 40.5454 185.056 27.9688 190.377 17.3271C192.215 13.9411 194.537 10.9421 197.439 8.33003C198.697 7.26586 199.955 6.29843 201.309 5.42774L203.438 4.17008C204.115 3.78312 204.985 3.49289 205.759 3.10591C208.565 1.84826 211.467 0.97757 214.563 0.590598C215.724 0.397114 216.788 0.300373 217.949 0.300373H218.046C219.11 0.300373 220.271 0.397114 221.432 0.590598C224.431 0.97757 227.43 1.84826 230.235 3.10591C231.009 3.49289 231.88 3.78312 232.557 4.17008L234.685 5.42774C236.04 6.29843 237.298 7.26586 238.555 8.33003C241.457 10.9421 243.779 13.9411 245.617 17.3271ZM240.006 48.6718C243.489 39.3845 243.489 29.1297 240.006 19.8424C238.845 16.8434 237.298 13.8444 235.459 11.2323C234.589 10.0714 233.718 8.91049 232.654 7.94306L231.009 6.39517C230.429 5.91146 229.848 5.52449 229.171 5.04077C225.882 2.91243 222.012 1.75151 218.046 1.75151H217.949H217.755C213.789 1.75151 210.016 2.91243 206.727 5.13752L205.759 5.81471L205.276 6.10494L204.889 6.49192L203.244 7.94306C202.277 9.00723 201.309 10.0714 200.535 11.2323C198.6 13.9411 197.149 16.8434 195.988 19.8424C192.506 29.1297 192.506 39.3845 195.988 48.6718C197.149 51.7676 198.6 54.6699 200.535 57.3787C201.406 58.5396 202.277 59.6038 203.244 60.6679L204.889 62.1191C205.566 62.6028 206.146 63.0865 206.824 63.4735C210.113 65.6986 213.982 66.8595 217.949 66.8595H218.046H218.239C222.109 66.7627 225.979 65.6018 229.268 63.4735L230.235 62.7963L230.719 62.4093L231.106 62.1191L232.751 60.6679C233.718 59.6038 234.589 58.5396 235.459 57.3787C237.298 54.6699 238.845 51.7676 240.006 48.6718ZM306.63 0.397114H315.724L313.596 1.65477C311.564 2.91243 309.92 4.75054 308.855 6.87889L279.929 68.2139L250.616 6.20169C249.649 4.17008 248.101 2.42872 246.166 1.17106L245.005 0.397114H258.549C257.485 2.13849 257.388 4.17008 258.259 6.0082L283.025 58.4428L307.404 6.6854C308.372 4.75054 308.178 2.52546 306.921 0.784087L306.63 0.397114ZM352.375 66.8595C354.987 66.8595 357.502 65.7953 359.243 63.8604L362.146 60.7647V68.2139H317.837L318.031 68.0204C319.966 66.279 321.03 63.7637 321.03 61.1516V7.55609C321.03 4.94403 319.966 2.42872 318.031 0.687345L317.837 0.397114H362.146V7.94306L359.243 4.84729C357.502 2.91243 354.987 1.84826 352.375 1.84826H328.092V33.6767H338.444C341.056 33.6767 343.571 32.5157 345.312 30.6776L348.215 27.5819V41.1259L345.312 38.0301C343.571 36.0952 341.056 35.0311 338.444 35.0311H328.092V66.8595H352.375Z" fill="#1A1A1A"/>
</svg>
