<svg width="54" height="16" viewBox="0 0 54 16" fill="none" xmlns="http://www.w3.org/2000/svg">
<path d="M0.842663 14.8237V0.278275H5.92789C8.96766 0.278275 10.3881 2.01123 10.3881 4.14191C10.3881 6.01691 9.28016 6.84078 8.03016 7.18168V7.32373C9.36539 7.40896 10.9563 8.65896 10.9563 10.9601C10.9563 13.1476 9.53585 14.8237 6.09834 14.8237H0.842663ZM2.60403 13.2612H6.09834C8.39948 13.2612 9.28016 12.2385 9.28016 10.9601C9.28016 9.48282 8.08698 8.20441 6.18357 8.20441H2.60403V13.2612ZM2.60403 6.67032H5.87107C7.46198 6.67032 8.71198 5.676 8.71198 4.14191C8.71198 2.8635 7.85971 1.84078 5.92789 1.84078H2.60403V6.67032ZM13.6232 14.8237V3.91464H15.2425V5.56237H15.3562C15.7539 4.48282 16.8902 3.74418 18.1971 3.74418C18.4456 3.74418 18.886 3.75839 19.0777 3.77259V5.47714C18.9641 5.44873 18.5025 5.3635 18.055 5.3635C16.4641 5.3635 15.2993 6.44305 15.2993 7.92032V14.8237H13.6232ZM24.2748 15.0794C22.201 15.0794 20.5532 13.8578 20.5532 11.7271C20.5532 9.22714 22.7621 8.7797 24.7862 8.51691C26.7748 8.26123 27.5987 8.33225 27.5987 7.52259V7.46578C27.5987 6.06663 26.8388 5.24987 25.2976 5.24987C23.6996 5.24987 22.826 6.10214 22.4567 6.89759L20.8657 6.32941C21.718 4.34078 23.593 3.77259 25.2407 3.77259C26.6328 3.77259 29.2748 4.17032 29.2748 7.63623V14.8237H27.5987V13.3465H27.5135C27.1726 14.0567 26.1782 15.0794 24.2748 15.0794ZM24.5305 13.5737C26.5192 13.5737 27.5987 12.2385 27.5987 10.8749V9.34078C27.3146 9.68168 25.4112 9.88055 24.701 9.96578C23.3942 10.1362 22.2294 10.534 22.2294 11.8124C22.2294 12.9771 23.1953 13.5737 24.5305 13.5737ZM34.0103 8.26123V14.8237H32.3341V3.91464H33.9535V5.61918H34.0955C34.6069 4.51123 35.6296 3.77259 37.2773 3.77259C39.4861 3.77259 40.9705 5.10782 40.9705 7.89191V14.8237H39.2944V8.00555C39.2944 6.2939 38.3498 5.27828 36.7944 5.27828C35.1893 5.27828 34.0103 6.35782 34.0103 8.26123ZM48.1527 15.051C45.4254 15.051 43.522 12.8635 43.522 9.39759C43.522 5.96009 45.4254 3.77259 48.1811 3.77259C50.3118 3.77259 50.9652 5.07941 51.3345 5.64759H51.4765V0.278275H53.1527V14.8237H51.5334V13.1476H51.3345C50.9652 13.7442 50.2549 15.051 48.1527 15.051ZM48.3799 13.5453C50.397 13.5453 51.5049 11.8408 51.5049 9.36918C51.5049 6.926 50.4254 5.27828 48.3799 5.27828C46.2493 5.27828 45.1981 7.06805 45.1981 9.36918C45.1981 11.6987 46.2777 13.5453 48.3799 13.5453Z" fill="#1A1A1A"/>
</svg>
