<svg width="112" height="19" viewBox="0 0 112 19" fill="none" xmlns="http://www.w3.org/2000/svg">
<path d="M0.421445 1.84668H3.46145L11.6014 11.6467V1.64668H15.2414V17.9467H12.2014L4.06145 8.14668V18.1467H0.421445V1.84668ZM23.1168 18.4267C22.0101 18.4267 21.0234 18.16 20.1568 17.6267C19.2901 17.1067 18.6168 16.38 18.1368 15.4467C17.6568 14.5133 17.4168 13.46 17.4168 12.2867C17.4168 11.1133 17.6568 10.06 18.1368 9.12668C18.6168 8.19335 19.2901 7.46668 20.1568 6.94668C21.0234 6.41335 22.0101 6.14668 23.1168 6.14668C24.6234 6.14668 25.7434 6.64001 26.4768 7.62668V6.42668H30.0368V18.1467H26.4768V16.9467C25.7434 17.9333 24.6234 18.4267 23.1168 18.4267ZM23.6768 15.3867C24.5434 15.3867 25.2368 15.1 25.7568 14.5267C26.2768 13.94 26.5368 13.1933 26.5368 12.2867C26.5368 11.38 26.2768 10.64 25.7568 10.0667C25.2368 9.48001 24.5434 9.18668 23.6768 9.18668C22.8368 9.18668 22.1634 9.48001 21.6568 10.0667C21.1501 10.64 20.8968 11.38 20.8968 12.2867C20.8968 13.1933 21.1501 13.94 21.6568 14.5267C22.1634 15.1 22.8368 15.3867 23.6768 15.3867ZM32.7238 6.42668H36.2838V7.62668C37.0171 6.64001 38.1105 6.14668 39.5638 6.14668C40.2038 6.14668 40.7171 6.21335 41.1038 6.34668L41.1438 9.68668C40.6371 9.42001 40.0305 9.28668 39.3238 9.28668C38.3771 9.28668 37.6305 9.54001 37.0838 10.0467C36.5505 10.5533 36.2838 11.2533 36.2838 12.1467V18.1467H32.7238V6.42668ZM53.8713 13.9267C53.5646 15.2867 52.8846 16.3733 51.8313 17.1867C50.778 18.0133 49.5113 18.4267 48.0313 18.4267C46.8446 18.4267 45.778 18.16 44.8313 17.6267C43.8846 17.1067 43.1446 16.38 42.6113 15.4467C42.078 14.5133 41.8113 13.46 41.8113 12.2867C41.8113 11.1133 42.078 10.06 42.6113 9.12668C43.1446 8.19335 43.8846 7.46668 44.8313 6.94668C45.778 6.41335 46.8446 6.14668 48.0313 6.14668C49.0313 6.14668 49.9446 6.34668 50.7713 6.74668C51.598 7.13335 52.278 7.66668 52.8113 8.34668C53.3446 9.02668 53.678 9.78001 53.8113 10.6067H50.2113C50.0646 10.1933 49.798 9.86668 49.4113 9.62668C49.038 9.37335 48.578 9.24668 48.0313 9.24668C47.2046 9.24668 46.538 9.53335 46.0313 10.1067C45.538 10.6667 45.2913 11.3933 45.2913 12.2867C45.2913 13.18 45.538 13.9133 46.0313 14.4867C46.538 15.0467 47.2046 15.3267 48.0313 15.3267C48.578 15.3267 49.0446 15.2 49.4313 14.9467C49.8313 14.6933 50.1113 14.3533 50.2713 13.9267H53.8713ZM57.5702 0.766679C58.1969 0.766679 58.7169 0.973346 59.1302 1.38668C59.5435 1.80001 59.7502 2.32001 59.7502 2.94668C59.7502 3.57335 59.5435 4.09335 59.1302 4.50668C58.7169 4.92001 58.1969 5.12668 57.5702 5.12668C56.9435 5.12668 56.4235 4.92001 56.0102 4.50668C55.5969 4.09335 55.3902 3.57335 55.3902 2.94668C55.3902 2.32001 55.5969 1.80001 56.0102 1.38668C56.4235 0.973346 56.9435 0.766679 57.5702 0.766679ZM59.3502 18.1867H55.7902V6.42668H59.3502V18.1867ZM66.9207 6.14668C67.894 6.14668 68.7807 6.30668 69.5807 6.62668C70.3807 6.93335 71.0207 7.37335 71.5007 7.94668C71.9807 8.52001 72.2407 9.18668 72.2807 9.94668H68.8407C68.7873 9.58668 68.574 9.30668 68.2007 9.10668C67.8407 8.89335 67.394 8.78668 66.8607 8.78668C66.3273 8.78668 65.8807 8.87335 65.5207 9.04668C65.174 9.20668 65.0007 9.42001 65.0007 9.68668C65.0007 9.96668 65.2073 10.1933 65.6207 10.3667C66.034 10.54 66.754 10.7067 67.7807 10.8667C69.474 11.12 70.6807 11.54 71.4007 12.1267C72.1207 12.7133 72.4807 13.52 72.4807 14.5467C72.4807 15.32 72.234 16 71.7407 16.5867C71.2473 17.1733 70.5807 17.6267 69.7407 17.9467C68.9007 18.2667 67.9807 18.4267 66.9807 18.4267C65.9673 18.4267 65.0473 18.26 64.2207 17.9267C63.4073 17.6067 62.754 17.1467 62.2607 16.5467C61.7807 15.9467 61.5207 15.2467 61.4807 14.4467H64.9207C64.974 14.82 65.2007 15.1267 65.6007 15.3667C66.0007 15.5933 66.4807 15.7067 67.0407 15.7067C67.614 15.7067 68.0873 15.6133 68.4607 15.4267C68.834 15.24 69.0207 15.0133 69.0207 14.7467C69.0207 14.4667 68.8007 14.2333 68.3607 14.0467C67.9207 13.8467 67.2007 13.6733 66.2007 13.5267C64.6673 13.3 63.5073 12.9133 62.7207 12.3667C61.9473 11.82 61.5607 10.9867 61.5607 9.86668C61.5607 9.12001 61.794 8.46668 62.2607 7.90668C62.7407 7.34668 63.3873 6.91335 64.2007 6.60668C65.014 6.30001 65.9207 6.14668 66.9207 6.14668ZM79.4793 6.14668C80.4526 6.14668 81.3393 6.30668 82.1393 6.62668C82.9393 6.93335 83.5793 7.37335 84.0593 7.94668C84.5393 8.52001 84.7993 9.18668 84.8393 9.94668H81.3993C81.3459 9.58668 81.1326 9.30668 80.7593 9.10668C80.3993 8.89335 79.9526 8.78668 79.4193 8.78668C78.8859 8.78668 78.4393 8.87335 78.0793 9.04668C77.7326 9.20668 77.5593 9.42001 77.5593 9.68668C77.5593 9.96668 77.7659 10.1933 78.1793 10.3667C78.5926 10.54 79.3126 10.7067 80.3393 10.8667C82.0326 11.12 83.2393 11.54 83.9593 12.1267C84.6793 12.7133 85.0393 13.52 85.0393 14.5467C85.0393 15.32 84.7926 16 84.2993 16.5867C83.8059 17.1733 83.1393 17.6267 82.2993 17.9467C81.4593 18.2667 80.5393 18.4267 79.5393 18.4267C78.5259 18.4267 77.6059 18.26 76.7793 17.9267C75.9659 17.6067 75.3126 17.1467 74.8193 16.5467C74.3393 15.9467 74.0793 15.2467 74.0393 14.4467H77.4793C77.5326 14.82 77.7593 15.1267 78.1593 15.3667C78.5593 15.5933 79.0393 15.7067 79.5993 15.7067C80.1726 15.7067 80.6459 15.6133 81.0193 15.4267C81.3926 15.24 81.5793 15.0133 81.5793 14.7467C81.5793 14.4667 81.3593 14.2333 80.9193 14.0467C80.4793 13.8467 79.7593 13.6733 78.7593 13.5267C77.2259 13.3 76.0659 12.9133 75.2793 12.3667C74.5059 11.82 74.1193 10.9867 74.1193 9.86668C74.1193 9.12001 74.3526 8.46668 74.8193 7.90668C75.2993 7.34668 75.9459 6.91335 76.7593 6.60668C77.5726 6.30001 78.4793 6.14668 79.4793 6.14668ZM91.5379 18.4267C90.6312 18.4267 89.8312 18.2133 89.1379 17.7867C88.4445 17.3733 87.9045 16.7733 87.5179 15.9867C87.1445 15.2 86.9579 14.2733 86.9579 13.2067V6.42668H90.5179V12.6067C90.5179 13.5 90.6912 14.1867 91.0379 14.6667C91.3979 15.1333 91.9112 15.3667 92.5779 15.3667C93.2712 15.3667 93.8179 15.1067 94.2179 14.5867C94.6179 14.0667 94.8179 13.3533 94.8179 12.4467V6.42668H98.3779V18.1467H94.8179V16.9467C94.0845 17.9333 92.9912 18.4267 91.5379 18.4267ZM105.964 6.14668C106.937 6.14668 107.824 6.30668 108.624 6.62668C109.424 6.93335 110.064 7.37335 110.544 7.94668C111.024 8.52001 111.284 9.18668 111.324 9.94668H107.884C107.83 9.58668 107.617 9.30668 107.244 9.10668C106.884 8.89335 106.437 8.78668 105.904 8.78668C105.37 8.78668 104.924 8.87335 104.564 9.04668C104.217 9.20668 104.044 9.42001 104.044 9.68668C104.044 9.96668 104.25 10.1933 104.664 10.3667C105.077 10.54 105.797 10.7067 106.824 10.8667C108.517 11.12 109.724 11.54 110.444 12.1267C111.164 12.7133 111.524 13.52 111.524 14.5467C111.524 15.32 111.277 16 110.784 16.5867C110.29 17.1733 109.624 17.6267 108.784 17.9467C107.944 18.2667 107.024 18.4267 106.024 18.4267C105.01 18.4267 104.09 18.26 103.264 17.9267C102.45 17.6067 101.797 17.1467 101.304 16.5467C100.824 15.9467 100.564 15.2467 100.524 14.4467H103.964C104.017 14.82 104.244 15.1267 104.644 15.3667C105.044 15.5933 105.524 15.7067 106.084 15.7067C106.657 15.7067 107.13 15.6133 107.504 15.4267C107.877 15.24 108.064 15.0133 108.064 14.7467C108.064 14.4667 107.844 14.2333 107.404 14.0467C106.964 13.8467 106.244 13.6733 105.244 13.5267C103.71 13.3 102.55 12.9133 101.764 12.3667C100.99 11.82 100.604 10.9867 100.604 9.86668C100.604 9.12001 100.837 8.46668 101.304 7.90668C101.784 7.34668 102.43 6.91335 103.244 6.60668C104.057 6.30001 104.964 6.14668 105.964 6.14668Z" fill="#1A1A1A"/>
</svg>
