<svg width="108" height="18" viewBox="0 0 108 18" fill="none" xmlns="http://www.w3.org/2000/svg">
<path d="M2.68 1.57017L12.38 14.0502V1.47017H14.5V17.4902H12.52L2.82 5.01018V17.5902H0.72V1.57017H2.68ZM22.887 17.8702C21.8204 17.8702 20.8537 17.6102 19.987 17.0902C19.1337 16.5702 18.4604 15.8502 17.967 14.9302C17.4737 14.0102 17.227 12.9902 17.227 11.8702C17.227 10.7502 17.4737 9.73018 17.967 8.81018C18.4604 7.89018 19.1337 7.17018 19.987 6.65018C20.8537 6.13018 21.8204 5.87018 22.887 5.87018C23.8604 5.87018 24.7004 6.06351 25.407 6.45018C26.1137 6.83684 26.627 7.30351 26.947 7.85018V6.15018H29.007V17.5902H26.947V15.8902C26.627 16.4368 26.1137 16.9035 25.407 17.2902C24.7004 17.6768 23.8604 17.8702 22.887 17.8702ZM23.067 16.0502C23.827 16.0502 24.5004 15.8702 25.087 15.5102C25.687 15.1368 26.1537 14.6368 26.487 14.0102C26.8204 13.3702 26.987 12.6568 26.987 11.8702C26.987 11.0835 26.8204 10.3768 26.487 9.75018C26.1537 9.11018 25.687 8.61018 25.087 8.25018C24.5004 7.87684 23.827 7.69018 23.067 7.69018C22.3204 7.69018 21.6537 7.87018 21.067 8.23018C20.4937 8.59018 20.047 9.09018 19.727 9.73018C19.407 10.3702 19.247 11.0835 19.247 11.8702C19.247 12.6568 19.407 13.3702 19.727 14.0102C20.047 14.6502 20.4937 15.1502 21.067 15.5102C21.6537 15.8702 22.3204 16.0502 23.067 16.0502ZM34.3011 6.15018V7.91018C34.6078 7.39018 35.1144 6.92351 35.8211 6.51018C36.5411 6.08351 37.4078 5.87018 38.4211 5.87018C39.0744 5.87018 39.5944 5.93684 39.9811 6.07018V8.03018C39.5144 7.81684 38.9478 7.71018 38.2811 7.71018C37.5211 7.71018 36.8344 7.89684 36.2211 8.27018C35.6211 8.63018 35.1478 9.11684 34.8011 9.73018C34.4678 10.3302 34.3011 10.9768 34.3011 11.6702V17.5902H32.2411V6.15018H34.3011ZM52.0808 13.7102C51.7741 14.9635 51.1274 15.9702 50.1408 16.7302C49.1674 17.4902 48.0208 17.8702 46.7008 17.8702C45.5808 17.8702 44.5741 17.6102 43.6808 17.0902C42.7874 16.5702 42.0874 15.8568 41.5808 14.9502C41.0741 14.0302 40.8208 13.0035 40.8208 11.8702C40.8208 10.7368 41.0674 9.71684 41.5608 8.81018C42.0674 7.89018 42.7674 7.17018 43.6608 6.65018C44.5541 6.13018 45.5541 5.87018 46.6608 5.87018C47.5408 5.87018 48.3541 6.05018 49.1008 6.41018C49.8608 6.75684 50.4941 7.24351 51.0008 7.87018C51.5074 8.49684 51.8541 9.20351 52.0408 9.99018H49.9408C49.7008 9.29684 49.2941 8.74351 48.7208 8.33018C48.1474 7.90351 47.4608 7.69018 46.6608 7.69018C45.9141 7.69018 45.2474 7.87684 44.6608 8.25018C44.0874 8.61018 43.6408 9.11018 43.3208 9.75018C43.0008 10.3768 42.8408 11.0835 42.8408 11.8702C42.8408 12.6568 43.0008 13.3702 43.3208 14.0102C43.6408 14.6368 44.0874 15.1368 44.6608 15.5102C45.2474 15.8702 45.9141 16.0502 46.6608 16.0502C47.4608 16.0502 48.1541 15.8368 48.7408 15.4102C49.3274 14.9835 49.7408 14.4168 49.9808 13.7102H52.0808ZM55.6244 0.870175C56.0244 0.870175 56.351 1.00351 56.6044 1.27017C56.871 1.52351 57.0044 1.84351 57.0044 2.23017C57.0044 2.61684 56.871 2.94351 56.6044 3.21018C56.351 3.46351 56.0244 3.59017 55.6244 3.59017C55.2377 3.59017 54.911 3.46351 54.6444 3.21018C54.391 2.94351 54.2644 2.61684 54.2644 2.23017C54.2644 1.84351 54.391 1.52351 54.6444 1.27017C54.911 1.00351 55.2377 0.870175 55.6244 0.870175ZM54.6044 17.6102V6.15018H56.6644V17.6102H54.6044ZM64.3973 5.87018C65.3173 5.87018 66.1507 6.01684 66.8973 6.31018C67.644 6.59018 68.2373 6.98351 68.6773 7.49018C69.1307 7.98351 69.3707 8.55018 69.3973 9.19018H67.3773C67.3373 8.71018 67.0307 8.31684 66.4573 8.01018C65.884 7.70351 65.1773 7.55018 64.3373 7.55018C63.5107 7.55018 62.824 7.69684 62.2773 7.99018C61.744 8.28351 61.4773 8.64351 61.4773 9.07018C61.4773 9.56351 61.724 9.95684 62.2173 10.2502C62.724 10.5435 63.6507 10.7835 64.9973 10.9702C66.664 11.1968 67.8573 11.5835 68.5773 12.1302C69.2973 12.6768 69.6573 13.4102 69.6573 14.3302C69.6573 15.0502 69.424 15.6768 68.9573 16.2102C68.504 16.7435 67.884 17.1502 67.0973 17.4302C66.3107 17.7235 65.4373 17.8702 64.4773 17.8702C63.4773 17.8702 62.5973 17.7168 61.8373 17.4102C61.0773 17.1168 60.4773 16.7035 60.0373 16.1702C59.6107 15.6502 59.3707 15.0568 59.3173 14.3902H61.3373C61.404 14.8835 61.7107 15.3102 62.2573 15.6702C62.8173 16.0168 63.5773 16.1902 64.5373 16.1902C65.4307 16.1902 66.1707 16.0302 66.7573 15.7102C67.344 15.3768 67.6373 14.9568 67.6373 14.4502C67.6373 13.9702 67.364 13.5902 66.8173 13.3102C66.284 13.0168 65.3507 12.7835 64.0173 12.6102C62.444 12.3968 61.2907 12.0235 60.5573 11.4902C59.824 10.9435 59.4573 10.1768 59.4573 9.19018C59.4573 8.53684 59.6707 7.95684 60.0973 7.45018C60.5373 6.94351 61.1307 6.55684 61.8773 6.29018C62.624 6.01018 63.464 5.87018 64.3973 5.87018ZM76.7606 5.87018C77.6806 5.87018 78.514 6.01684 79.2606 6.31018C80.0073 6.59018 80.6006 6.98351 81.0406 7.49018C81.494 7.98351 81.734 8.55018 81.7606 9.19018H79.7406C79.7006 8.71018 79.394 8.31684 78.8206 8.01018C78.2473 7.70351 77.5406 7.55018 76.7006 7.55018C75.874 7.55018 75.1873 7.69684 74.6406 7.99018C74.1073 8.28351 73.8406 8.64351 73.8406 9.07018C73.8406 9.56351 74.0873 9.95684 74.5806 10.2502C75.0873 10.5435 76.014 10.7835 77.3606 10.9702C79.0273 11.1968 80.2206 11.5835 80.9406 12.1302C81.6606 12.6768 82.0206 13.4102 82.0206 14.3302C82.0206 15.0502 81.7873 15.6768 81.3206 16.2102C80.8673 16.7435 80.2473 17.1502 79.4606 17.4302C78.674 17.7235 77.8006 17.8702 76.8406 17.8702C75.8406 17.8702 74.9606 17.7168 74.2006 17.4102C73.4406 17.1168 72.8406 16.7035 72.4006 16.1702C71.974 15.6502 71.734 15.0568 71.6806 14.3902H73.7006C73.7673 14.8835 74.074 15.3102 74.6206 15.6702C75.1806 16.0168 75.9406 16.1902 76.9006 16.1902C77.794 16.1902 78.534 16.0302 79.1206 15.7102C79.7073 15.3768 80.0006 14.9568 80.0006 14.4502C80.0006 13.9702 79.7273 13.5902 79.1806 13.3102C78.6473 13.0168 77.714 12.7835 76.3806 12.6102C74.8073 12.3968 73.654 12.0235 72.9206 11.4902C72.1873 10.9435 71.8206 10.1768 71.8206 9.19018C71.8206 8.53684 72.034 7.95684 72.4606 7.45018C72.9006 6.94351 73.494 6.55684 74.2406 6.29018C74.9873 6.01018 75.8273 5.87018 76.7606 5.87018ZM92.8439 17.5902V15.8502C92.5506 16.3702 92.0639 16.8368 91.3839 17.2502C90.7172 17.6635 89.9106 17.8702 88.9639 17.8702C88.0706 17.8702 87.2706 17.6635 86.5639 17.2502C85.8706 16.8368 85.3306 16.2568 84.9439 15.5102C84.5572 14.7502 84.3639 13.8635 84.3639 12.8502V6.15018H86.4239V12.4902C86.4239 13.6368 86.6839 14.5235 87.2039 15.1502C87.7372 15.7635 88.4706 16.0702 89.4039 16.0702C90.0572 16.0702 90.6439 15.8902 91.1639 15.5302C91.6839 15.1568 92.0906 14.6635 92.3839 14.0502C92.6906 13.4368 92.8439 12.7768 92.8439 12.0702V6.15018H94.9039V17.5902H92.8439ZM102.64 5.87018C103.56 5.87018 104.393 6.01684 105.14 6.31018C105.886 6.59018 106.48 6.98351 106.92 7.49018C107.373 7.98351 107.613 8.55018 107.64 9.19018H105.62C105.58 8.71018 105.273 8.31684 104.7 8.01018C104.126 7.70351 103.42 7.55018 102.58 7.55018C101.753 7.55018 101.066 7.69684 100.52 7.99018C99.9862 8.28351 99.7195 8.64351 99.7195 9.07018C99.7195 9.56351 99.9662 9.95684 100.46 10.2502C100.966 10.5435 101.893 10.7835 103.24 10.9702C104.906 11.1968 106.1 11.5835 106.82 12.1302C107.54 12.6768 107.9 13.4102 107.9 14.3302C107.9 15.0502 107.666 15.6768 107.2 16.2102C106.746 16.7435 106.126 17.1502 105.34 17.4302C104.553 17.7235 103.68 17.8702 102.72 17.8702C101.72 17.8702 100.84 17.7168 100.08 17.4102C99.3195 17.1168 98.7195 16.7035 98.2795 16.1702C97.8529 15.6502 97.6129 15.0568 97.5595 14.3902H99.5795C99.6462 14.8835 99.9529 15.3102 100.5 15.6702C101.06 16.0168 101.82 16.1902 102.78 16.1902C103.673 16.1902 104.413 16.0302 105 15.7102C105.586 15.3768 105.88 14.9568 105.88 14.4502C105.88 13.9702 105.606 13.5902 105.06 13.3102C104.526 13.0168 103.593 12.7835 102.26 12.6102C100.686 12.3968 99.5329 12.0235 98.7995 11.4902C98.0662 10.9435 97.6995 10.1768 97.6995 9.19018C97.6995 8.53684 97.9129 7.95684 98.3395 7.45018C98.7795 6.94351 99.3729 6.55684 100.12 6.29018C100.866 6.01018 101.706 5.87018 102.64 5.87018Z" fill="#1A1A1A"/>
</svg>
