<svg width="241" height="30" viewBox="0 0 241 30" fill="none" xmlns="http://www.w3.org/2000/svg">
<path d="M-3.32445e-05 11.749V10.1865H10.9091V11.749H6.33519V24.7319H4.57383V11.749H-3.32445e-05ZM16.392 24.9592C15.3409 24.9592 14.4342 24.7272 13.6718 24.2632C12.9143 23.7944 12.3295 23.141 11.9176 22.303C11.5104 21.4602 11.3068 20.48 11.3068 19.3626C11.3068 18.2452 11.5104 17.2603 11.9176 16.4081C12.3295 15.5511 12.9024 14.8834 13.6363 14.4052C14.375 13.9223 15.2367 13.6808 16.2216 13.6808C16.7897 13.6808 17.3508 13.7755 17.9048 13.9649C18.4588 14.1543 18.963 14.462 19.4176 14.8882C19.8721 15.3096 20.2343 15.8683 20.5042 16.5643C20.7741 17.2603 20.9091 18.1173 20.9091 19.1353V19.8456H12.5V18.3967H19.2045C19.2045 17.7812 19.0814 17.2319 18.8352 16.749C18.5937 16.266 18.2481 15.8849 17.7983 15.6055C17.3532 15.3262 16.8276 15.1865 16.2216 15.1865C15.5539 15.1865 14.9763 15.3522 14.4886 15.6836C14.0056 16.0103 13.634 16.4365 13.3735 16.962C13.1131 17.4876 12.9829 18.0511 12.9829 18.6524V19.6183C12.9829 20.4422 13.125 21.1406 13.4091 21.7135C13.6979 22.2816 14.098 22.7149 14.6093 23.0132C15.1207 23.3067 15.7149 23.4535 16.392 23.4535C16.8324 23.4535 17.2301 23.392 17.5852 23.2689C17.945 23.141 18.2552 22.9516 18.5156 22.7007C18.776 22.445 18.9772 22.1278 19.1193 21.749L20.7386 22.2035C20.5681 22.7528 20.2817 23.2357 19.8792 23.6524C19.4768 24.0643 18.9796 24.3863 18.3878 24.6183C17.7959 24.8456 17.1306 24.9592 16.392 24.9592ZM25.1349 10.1865V24.7319H23.4588V10.1865H25.1349ZM29.881 10.1865V24.7319H28.2049V10.1865H29.881ZM45.451 20.2717V13.8228H47.1271V24.7319H45.451V22.8853H45.3373C45.0816 23.4393 44.6839 23.9104 44.1441 24.2987C43.6044 24.6822 42.9226 24.874 42.0987 24.874C41.4169 24.874 40.8108 24.7248 40.2805 24.4265C39.7502 24.1235 39.3335 23.669 39.0305 23.0629C38.7275 22.4521 38.576 21.6827 38.576 20.7547V13.8228H40.2521V20.641C40.2521 21.4365 40.4746 22.0709 40.9197 22.5444C41.3695 23.0179 41.9424 23.2547 42.6385 23.2547C43.0551 23.2547 43.4789 23.1481 43.9098 22.9351C44.3454 22.722 44.71 22.3953 45.0035 21.9549C45.3018 21.5146 45.451 20.9535 45.451 20.2717ZM57.9243 16.266L56.4186 16.6922C56.3239 16.4412 56.1843 16.1974 55.9996 15.9606C55.8197 15.7191 55.5735 15.5203 55.261 15.364C54.9485 15.2078 54.5484 15.1297 54.0607 15.1297C53.3931 15.1297 52.8367 15.2835 52.3917 15.5913C51.9513 15.8943 51.7311 16.2802 51.7311 16.749C51.7311 17.1656 51.8827 17.4947 52.1857 17.7362C52.4887 17.9777 52.9622 18.1789 53.6061 18.3399L55.2255 18.7376C56.2008 18.9744 56.9276 19.3366 57.4059 19.8243C57.8841 20.3072 58.1232 20.9299 58.1232 21.6922C58.1232 22.3172 57.9433 22.8759 57.5834 23.3683C57.2283 23.8607 56.7311 24.249 56.0919 24.5331C55.4527 24.8172 54.7094 24.9592 53.8618 24.9592C52.7491 24.9592 51.8282 24.7177 51.099 24.2348C50.3699 23.7518 49.9082 23.0463 49.7141 22.1183L51.305 21.7206C51.4565 22.3077 51.743 22.748 52.1644 23.0416C52.5905 23.3352 53.1469 23.4819 53.8334 23.4819C54.6147 23.4819 55.2349 23.3162 55.6942 22.9848C56.1582 22.6486 56.3902 22.2461 56.3902 21.7774C56.3902 21.3986 56.2577 21.0814 55.9925 20.8257C55.7274 20.5653 55.3202 20.3711 54.7709 20.2433L52.9527 19.8172C51.9537 19.5804 51.2198 19.2135 50.751 18.7163C50.287 18.2144 50.055 17.587 50.055 16.8342C50.055 16.2187 50.2278 15.6742 50.5735 15.2007C50.9239 14.7272 51.3997 14.3555 52.001 14.0856C52.6071 13.8157 53.2936 13.6808 54.0607 13.6808C55.1402 13.6808 55.9878 13.9175 56.6033 14.391C57.2236 14.8645 57.6639 15.4895 57.9243 16.266ZM67.3508 28.8228C67.0667 28.8228 66.8134 28.7992 66.5909 28.7518C66.3683 28.7092 66.2145 28.6666 66.1292 28.624L66.5554 27.1467C66.9626 27.2509 67.3224 27.2888 67.6349 27.2603C67.9474 27.2319 68.2244 27.0923 68.4659 26.8413C68.7121 26.5951 68.937 26.195 69.1406 25.641L69.4531 24.7888L65.419 13.8228H67.2372L70.2485 22.516H70.3622L73.3735 13.8228H75.1917L70.561 26.3228C70.3527 26.8863 70.0947 27.3527 69.7869 27.722C69.4791 28.096 69.1217 28.373 68.7145 28.553C68.312 28.7329 67.8574 28.8228 67.3508 28.8228ZM81.4453 24.9592C80.4604 24.9592 79.5963 24.7248 78.8529 24.2561C78.1143 23.7873 77.5367 23.1316 77.12 22.2888C76.7081 21.4459 76.5021 20.4611 76.5021 19.3342C76.5021 18.1978 76.7081 17.2059 77.12 16.3584C77.5367 15.5108 78.1143 14.8527 78.8529 14.3839C79.5963 13.9152 80.4604 13.6808 81.4453 13.6808C82.4301 13.6808 83.2919 13.9152 84.0305 14.3839C84.7739 14.8527 85.3515 15.5108 85.7635 16.3584C86.1801 17.2059 86.3885 18.1978 86.3885 19.3342C86.3885 20.4611 86.1801 21.4459 85.7635 22.2888C85.3515 23.1316 84.7739 23.7873 84.0305 24.2561C83.2919 24.7248 82.4301 24.9592 81.4453 24.9592ZM81.4453 23.4535C82.1934 23.4535 82.8089 23.2618 83.2919 22.8782C83.7748 22.4947 84.1323 21.9905 84.3643 21.3655C84.5963 20.7405 84.7123 20.0634 84.7123 19.3342C84.7123 18.605 84.5963 17.9256 84.3643 17.2959C84.1323 16.6661 83.7748 16.1571 83.2919 15.7689C82.8089 15.3806 82.1934 15.1865 81.4453 15.1865C80.6972 15.1865 80.0816 15.3806 79.5987 15.7689C79.1157 16.1571 78.7583 16.6661 78.5262 17.2959C78.2942 17.9256 78.1782 18.605 78.1782 19.3342C78.1782 20.0634 78.2942 20.7405 78.5262 21.3655C78.7583 21.9905 79.1157 22.4947 79.5987 22.8782C80.0816 23.2618 80.6972 23.4535 81.4453 23.4535ZM95.8221 20.2717V13.8228H97.4982V24.7319H95.8221V22.8853H95.7084C95.4527 23.4393 95.055 23.9104 94.5152 24.2987C93.9755 24.6822 93.2936 24.874 92.4698 24.874C91.788 24.874 91.1819 24.7248 90.6516 24.4265C90.1213 24.1235 89.7046 23.669 89.4016 23.0629C89.0986 22.4521 88.9471 21.6827 88.9471 20.7547V13.8228H90.6232V20.641C90.6232 21.4365 90.8457 22.0709 91.2908 22.5444C91.7406 23.0179 92.3135 23.2547 93.0096 23.2547C93.4262 23.2547 93.85 23.1481 94.2809 22.9351C94.7165 22.722 95.0811 22.3953 95.3746 21.9549C95.6729 21.5146 95.8221 20.9535 95.8221 20.2717ZM100.568 24.7319V13.8228H102.187V15.4706H102.301C102.5 14.9308 102.86 14.4928 103.381 14.1566C103.901 13.8205 104.489 13.6524 105.142 13.6524C105.265 13.6524 105.419 13.6548 105.604 13.6595C105.788 13.6642 105.928 13.6713 106.023 13.6808V15.3853C105.966 15.3711 105.836 15.3498 105.632 15.3214C105.433 15.2883 105.223 15.2717 105 15.2717C104.47 15.2717 103.996 15.383 103.58 15.6055C103.168 15.8233 102.841 16.1263 102.599 16.5146C102.363 16.8981 102.244 17.3361 102.244 17.8285V24.7319H100.568ZM115.16 10.9079C115.064 10.8359 115.016 10.7519 115.016 10.6559C115.016 10.5599 115.04 10.4519 115.088 10.3319C115.136 10.2119 115.184 10.0919 115.232 9.97193L115.592 9.17993C115.736 8.86793 115.844 8.60393 115.916 8.38793C115.94 8.31593 115.952 8.24393 115.952 8.17193C115.952 8.07593 115.952 7.99193 115.952 7.91993C115.952 7.65593 115.928 7.40393 115.88 7.16393C115.832 6.89993 115.808 6.64793 115.808 6.40793C115.808 6.28793 115.82 6.15593 115.844 6.01193C115.868 5.86793 115.916 5.72393 115.988 5.57993C116.108 5.33993 116.3 5.15993 116.564 5.03993C116.828 4.91993 117.092 4.85993 117.356 4.85993C117.596 4.85993 117.788 4.91993 117.932 5.03993C118.1 5.13593 118.16 5.27993 118.112 5.47193C117.992 5.99993 117.824 6.61193 117.608 7.30793C117.392 7.97993 117.152 8.62793 116.888 9.25193C116.624 9.85193 116.336 10.3199 116.024 10.6559C115.736 10.9919 115.448 11.0759 115.16 10.9079ZM137.061 29.9879C137.037 29.9879 137.001 29.9879 136.953 29.9879C136.905 29.9879 136.833 29.9759 136.737 29.9519C136.497 29.9519 136.233 29.9399 135.945 29.9159C135.681 29.9159 135.405 29.9039 135.117 29.8799C134.973 29.8799 134.829 29.8799 134.685 29.8799C134.541 29.9039 134.385 29.9159 134.217 29.9159C133.785 29.9159 133.365 29.8559 132.957 29.7359C132.573 29.6399 132.261 29.4359 132.021 29.1239C131.925 29.0759 131.829 29.0159 131.733 28.9439C131.637 28.8959 131.553 28.8359 131.481 28.7639C131.265 28.7159 131.049 28.6439 130.833 28.5479C130.641 28.4759 130.449 28.4039 130.257 28.3319C130.161 28.3319 130.065 28.3199 129.969 28.2959C129.897 28.2959 129.813 28.2479 129.717 28.1519L129.681 28.1159L129.609 28.1519C129.561 28.1759 129.501 28.1879 129.429 28.1879C129.381 28.2119 129.297 28.2239 129.177 28.2239C128.649 28.2239 128.229 28.0799 127.917 27.7919C127.605 27.5039 127.353 27.3599 127.161 27.3599C126.921 27.3599 126.669 27.2639 126.405 27.0719C126.141 26.9039 125.913 26.6999 125.721 26.4599C125.649 26.4119 125.577 26.3639 125.505 26.3159C125.433 26.2919 125.361 26.2559 125.289 26.2079L125.001 25.9919C124.929 26.0159 124.857 26.0279 124.785 26.0279C124.713 26.0279 124.653 26.0279 124.605 26.0279C124.173 26.0279 123.741 26.1119 123.309 26.2799C122.901 26.4479 122.481 26.6159 122.049 26.7839C121.641 26.9759 121.221 27.0719 120.789 27.0719C119.973 27.0719 119.217 26.8439 118.521 26.3879C117.825 25.9559 117.477 25.2599 117.477 24.2999C117.477 23.5559 117.705 23.0519 118.161 22.7879C118.641 22.5239 119.181 22.3799 119.781 22.3559C119.805 22.3319 119.841 22.3199 119.889 22.3199C120.009 22.2959 120.141 22.2719 120.285 22.2479C120.429 22.1999 120.549 22.1759 120.645 22.1759C120.933 22.1759 121.149 22.1999 121.293 22.2479C121.437 22.2959 121.629 22.3199 121.869 22.3199C122.325 22.3199 122.721 22.4039 123.057 22.5719C123.417 22.7399 123.765 22.9199 124.101 23.1119C124.437 23.3039 124.797 23.4239 125.181 23.4719C125.277 23.2559 125.373 23.0519 125.469 22.8599C125.565 22.6679 125.661 22.5239 125.757 22.4279C126.069 22.0439 126.249 21.7199 126.297 21.4559C126.369 21.1919 126.453 20.9519 126.549 20.7359C126.645 20.5199 126.909 20.2919 127.341 20.0519C127.461 19.7399 127.569 19.3679 127.665 18.9359C127.761 18.5039 127.881 18.0959 128.025 17.7119C127.353 17.6399 126.753 17.5439 126.225 17.4239C125.721 17.3039 125.133 17.1599 124.461 16.9919C123.813 16.7999 122.925 16.6079 121.797 16.4159C121.365 16.3439 120.981 16.1039 120.645 15.6959C120.333 15.2879 120.069 14.8079 119.853 14.2559C119.637 13.7039 119.457 13.1519 119.313 12.5999C119.169 12.0479 119.037 11.5799 118.917 11.1959C118.869 11.0999 118.845 10.9919 118.845 10.8719C118.845 9.93593 119.037 8.97593 119.421 7.99193C119.829 7.00793 120.417 6.17993 121.185 5.50793C121.977 4.81193 122.925 4.46393 124.029 4.46393C124.101 4.46393 124.173 4.47593 124.245 4.49993C124.317 4.52393 124.377 4.54793 124.425 4.57193L124.533 4.46393C124.653 4.34393 124.773 4.24793 124.893 4.17593C125.013 4.07993 125.157 4.03193 125.325 4.03193C125.517 4.03193 125.697 4.09193 125.865 4.21193C126.009 4.13993 126.165 4.10393 126.333 4.10393C126.717 4.10393 127.125 4.19993 127.557 4.39193C128.013 4.58393 128.409 4.87193 128.745 5.25593C129.081 5.63993 129.249 6.14393 129.249 6.76793C129.249 7.34393 129.153 7.84793 128.961 8.27993C128.769 8.71193 128.433 9.05993 127.953 9.32393C127.809 9.75593 127.653 10.1159 127.485 10.4039C127.317 10.6679 127.029 10.7999 126.621 10.7999C126.549 10.7999 126.465 10.7999 126.369 10.7999C126.297 10.7759 126.201 10.7519 126.081 10.7279C125.649 10.6319 125.433 10.4639 125.433 10.2239C125.433 10.0319 125.565 9.85193 125.829 9.68393C126.093 9.51593 126.333 9.44393 126.549 9.46793V9.39593C126.693 8.93993 126.801 8.66393 126.873 8.56793C126.945 8.47193 127.173 8.30393 127.557 8.06393C127.605 8.01593 127.653 7.89593 127.701 7.70393C127.749 7.48793 127.797 7.28393 127.845 7.09193C127.893 6.89993 127.917 6.79193 127.917 6.76793C127.917 6.38393 127.749 6.07193 127.413 5.83193C127.101 5.59193 126.753 5.47193 126.369 5.47193C126.345 5.83193 126.129 6.01193 125.721 6.01193C125.457 6.01193 125.265 5.91593 125.145 5.72393C125.073 5.77193 124.977 5.83193 124.857 5.90393C124.737 5.95193 124.605 5.97593 124.461 5.97593C124.365 5.97593 124.269 5.96393 124.173 5.93993C124.101 5.89193 124.029 5.85593 123.957 5.83193C123.237 5.83193 122.589 6.08393 122.013 6.58793C121.437 7.09193 120.981 7.72793 120.645 8.49593C120.333 9.26393 120.177 10.0559 120.177 10.8719C120.393 11.5919 120.621 12.3119 120.861 13.0319C121.101 13.7279 121.425 14.3879 121.833 15.0119C122.001 15.1079 122.181 15.1679 122.373 15.1919C122.589 15.1919 122.781 15.2279 122.949 15.2999C123.813 15.6119 124.713 15.8519 125.649 16.0199C126.585 16.1879 127.533 16.3079 128.493 16.3799C128.421 16.2599 128.385 16.1279 128.385 15.9839C128.385 15.6959 128.469 15.4799 128.637 15.3359C128.805 15.1919 128.973 15.0359 129.141 14.8679C129.141 14.6759 129.129 14.5079 129.105 14.3639C129.081 14.2199 129.069 14.0999 129.069 14.0039C129.069 13.8839 129.093 13.7519 129.141 13.6079C129.213 13.4639 129.333 13.2719 129.501 13.0319C129.573 12.9359 129.669 12.6119 129.789 12.0599C129.909 11.5079 130.077 11.0279 130.293 10.6199C130.653 9.89993 130.893 9.32393 131.013 8.89193C131.133 8.43593 131.229 7.97993 131.301 7.52393C131.373 7.04393 131.493 6.40793 131.661 5.61593C131.733 5.27993 131.841 5.03993 131.985 4.89593C132.153 4.75193 132.333 4.63193 132.525 4.53593C132.813 3.93593 133.149 3.37193 133.533 2.84393C133.581 2.48393 133.701 2.19593 133.893 1.97993C134.085 1.73993 134.481 1.46393 135.081 1.15193C135.129 1.10393 135.177 1.06793 135.225 1.04393C135.273 1.01993 135.321 0.995932 135.369 0.971933C135.777 0.683932 136.209 0.455932 136.665 0.287933C137.145 0.0959325 137.637 -6.77109e-05 138.141 -6.77109e-05C139.413 -6.77109e-05 140.457 0.323932 141.273 0.971933C142.089 1.59593 142.701 2.39993 143.109 3.38393C143.517 4.34393 143.721 5.31593 143.721 6.29993V6.37193C143.721 6.41993 143.709 6.47993 143.685 6.55193C143.685 6.59993 143.637 6.67193 143.541 6.76793L143.685 7.12793C143.613 7.31993 143.481 7.48793 143.289 7.63193C143.121 7.75193 143.013 7.87193 142.965 7.99193C143.013 8.15993 143.049 8.32793 143.073 8.49593C143.097 8.63993 143.109 8.79593 143.109 8.96393C143.109 9.49193 143.001 9.91193 142.785 10.2239C142.569 10.5359 142.329 10.8119 142.065 11.0519C141.825 11.2679 141.657 11.5559 141.561 11.9159C141.345 12.7559 141.081 13.3919 140.769 13.8239C140.457 14.2319 140.097 14.5439 139.689 14.7599C139.281 14.9519 138.837 15.1319 138.357 15.2999C137.901 15.4679 137.397 15.7319 136.845 16.0919C136.077 16.5719 135.273 16.9799 134.433 17.3159C133.617 17.6519 132.657 17.8199 131.553 17.8199H131.121V17.9279C131.121 18.1439 131.025 18.3359 130.833 18.5039C130.665 18.6479 130.509 18.7919 130.365 18.9359C130.365 18.8879 130.353 18.8639 130.329 18.8639C130.329 18.8399 130.341 18.8159 130.365 18.7919C130.293 18.7199 130.257 18.6479 130.257 18.5759C130.113 19.3199 130.029 19.8239 130.005 20.0879C129.981 20.3519 129.969 20.5799 129.969 20.7719C129.969 21.0359 129.909 21.2399 129.789 21.3839C129.693 21.5279 129.549 21.6839 129.357 21.8519C129.117 22.3559 128.877 22.7399 128.637 23.0039C128.421 23.2679 128.169 23.4959 127.881 23.6879C127.905 23.7119 127.917 23.7599 127.917 23.8319C127.917 23.9279 127.869 24.0479 127.773 24.1919C127.677 24.3359 127.569 24.4679 127.449 24.5879L127.521 24.7679C127.665 24.8879 127.869 24.9359 128.133 24.9119C128.397 24.8879 128.673 24.9239 128.961 25.0199C129.273 25.1399 129.573 25.4879 129.861 26.0639C129.909 26.1359 129.945 26.2079 129.969 26.2799C130.017 26.3519 130.065 26.4119 130.113 26.4599C130.521 26.5559 130.809 26.6039 130.977 26.6039C131.169 26.6279 131.421 26.8319 131.733 27.2159L131.877 27.3959C131.949 27.4199 131.997 27.4679 132.021 27.5399C132.453 27.5399 132.765 27.7199 132.957 28.0799C133.293 28.1999 133.665 28.2959 134.073 28.3679C134.481 28.4399 134.877 28.4999 135.261 28.5479C135.333 28.5479 135.405 28.5359 135.477 28.5119C135.573 28.5119 135.657 28.5119 135.729 28.5119C135.825 28.5119 135.969 28.5239 136.161 28.5479C136.353 28.5719 136.533 28.5959 136.701 28.6199C136.797 28.6199 136.881 28.6199 136.953 28.6199C137.049 28.6439 137.133 28.6559 137.205 28.6559H137.349C137.661 28.6079 137.985 28.4759 138.321 28.2599C138.657 28.0439 138.957 27.7919 139.221 27.5039C139.221 27.4319 139.245 27.3239 139.293 27.1799C139.365 26.9879 139.401 26.7839 139.401 26.5679C139.401 26.2799 139.365 25.9679 139.293 25.6319C139.221 25.3199 139.185 25.0319 139.185 24.7679C138.969 24.7199 138.777 24.5879 138.609 24.3719C138.489 24.2279 138.429 24.0359 138.429 23.7959V23.7599H138.105C137.889 23.7599 137.709 23.6639 137.565 23.4719C137.517 23.4719 137.457 23.4719 137.385 23.4719C137.337 23.4479 137.289 23.4359 137.241 23.4359C137.073 23.4359 136.797 23.4599 136.413 23.5079C136.029 23.5319 135.621 23.5919 135.189 23.6879C134.757 23.7839 134.385 23.9159 134.073 24.0839C133.785 24.2519 133.641 24.4679 133.641 24.7319C133.641 24.7799 133.641 24.8159 133.641 24.8399C133.665 24.8879 133.677 24.9119 133.677 24.9119C133.797 24.9839 133.917 25.0199 134.037 25.0199C134.157 25.0439 134.277 25.0799 134.397 25.1279C134.781 25.1999 134.973 25.3919 134.973 25.7039C134.973 25.8719 134.889 26.0279 134.721 26.1719C134.577 26.3399 134.361 26.4239 134.073 26.4239C133.809 26.4239 133.485 26.3279 133.101 26.1359C132.573 25.8239 132.309 25.3559 132.309 24.7319C132.309 24.1799 132.489 23.7359 132.849 23.3999C133.209 23.0399 133.653 22.7759 134.181 22.6079C134.709 22.4159 135.249 22.2839 135.801 22.2119C136.377 22.1399 136.857 22.1039 137.241 22.1039C137.601 22.1039 138.021 22.1519 138.501 22.2479C139.005 22.3199 139.485 22.4759 139.941 22.7159C140.397 22.9319 140.781 23.2559 141.093 23.6879C141.405 24.0959 141.561 24.6479 141.561 25.3439C141.561 26.0639 141.333 26.7839 140.877 27.5039C140.421 28.2239 139.845 28.8119 139.149 29.2679C138.477 29.7479 137.781 29.9879 137.061 29.9879ZM131.553 16.5239C132.393 16.5239 133.161 16.3799 133.857 16.0919C134.577 15.8039 135.273 15.4679 135.945 15.0839C136.641 14.6759 137.349 14.3279 138.069 14.0399C138.741 13.7759 139.209 13.5119 139.473 13.2479C139.737 12.9599 139.917 12.6599 140.013 12.3479C140.109 12.0119 140.205 11.6759 140.301 11.3399C140.421 10.9799 140.661 10.6079 141.021 10.2239C141.213 10.0319 141.381 9.83993 141.525 9.64793C141.693 9.45593 141.777 9.22793 141.777 8.96393C141.777 8.74793 141.741 8.56793 141.669 8.42393C141.621 8.25593 141.597 8.08793 141.597 7.91993C141.597 7.77593 141.633 7.63193 141.705 7.48793C141.777 7.34393 141.909 7.17593 142.101 6.98393L142.209 6.87593C142.185 6.85193 142.173 6.80393 142.173 6.73193C142.173 6.61193 142.197 6.49193 142.245 6.37193C142.317 6.25193 142.365 6.15593 142.389 6.08393C142.365 5.26793 142.185 4.49993 141.849 3.77993C141.513 3.05993 141.033 2.47193 140.409 2.01593C139.785 1.55993 139.029 1.33193 138.141 1.33193C137.709 1.33193 137.253 1.45193 136.773 1.69193C136.701 1.73993 136.629 1.79993 136.557 1.87193C136.485 1.91993 136.389 1.96793 136.269 2.01593L136.125 2.08793C135.621 2.47193 135.153 2.93993 134.721 3.49193C134.721 3.58793 134.721 3.68393 134.721 3.77993C134.745 3.87593 134.757 3.98393 134.757 4.10393C134.757 4.27193 134.685 4.46393 134.541 4.67993C134.397 4.89593 134.061 5.15993 133.533 5.47193C133.293 5.95193 133.089 6.44393 132.921 6.94793C132.777 7.42793 132.705 7.89593 132.705 8.35193V8.42393C132.753 8.49593 132.753 8.56793 132.705 8.63993C132.633 9.11993 132.597 9.55193 132.597 9.93593C132.621 10.3199 132.513 10.7039 132.273 11.0879C132.153 11.5679 131.997 12.0359 131.805 12.4919C131.637 12.9239 131.457 13.3439 131.265 13.7519C131.169 13.9199 131.181 14.2199 131.301 14.6519C131.445 15.0599 131.517 15.3959 131.517 15.6599C131.517 15.9959 131.409 16.2719 131.193 16.4879L131.553 16.5239ZM120.789 25.7399C121.125 25.7399 121.521 25.6319 121.977 25.4159C122.433 25.1999 122.913 25.0199 123.417 24.8759C122.913 24.5399 122.385 24.2519 121.833 24.0119C121.281 23.7719 120.657 23.6519 119.961 23.6519C119.721 23.6519 119.469 23.6759 119.205 23.7239C118.941 23.7719 118.809 23.9639 118.809 24.2999C118.809 24.7079 118.977 25.0439 119.313 25.3079C119.673 25.5959 120.165 25.7399 120.789 25.7399ZM146.814 24.7679C145.998 24.7679 145.35 24.5999 144.87 24.2639C144.414 23.9039 144.018 23.4599 143.682 22.9319C143.586 22.8119 143.562 22.6439 143.61 22.4279C143.37 22.1879 143.13 21.9119 142.89 21.5999C142.674 21.2879 142.566 20.9519 142.566 20.5919C142.566 20.4479 142.602 20.3159 142.674 20.1959C142.746 20.0759 142.83 19.9679 142.926 19.8719V19.8359C142.926 19.6439 142.998 19.4879 143.142 19.3679C143.286 19.2239 143.43 19.1039 143.574 19.0079C143.454 18.8639 143.394 18.6959 143.394 18.5039C143.394 18.3359 143.442 18.1799 143.538 18.0359C143.634 17.8919 143.754 17.7599 143.898 17.6399L144.006 17.4959C143.982 17.1599 144.066 16.9559 144.258 16.8839C144.45 16.7879 144.654 16.7039 144.87 16.6319C145.038 16.4399 145.23 16.2839 145.446 16.1639C145.662 16.0199 145.89 15.8759 146.13 15.7319C146.442 15.4439 146.79 15.2159 147.174 15.0479C147.438 14.9039 147.678 14.7599 147.894 14.6159C148.11 14.4719 148.398 14.3999 148.758 14.3999C148.878 14.3999 148.986 14.4119 149.082 14.4359C149.202 14.4599 149.31 14.4959 149.406 14.5439C149.814 14.6159 150.114 14.7839 150.306 15.0479C150.498 15.2879 150.594 15.5159 150.594 15.7319C150.594 16.0199 150.474 16.1639 150.234 16.1639C149.994 16.1639 149.706 16.0319 149.37 15.7679C149.25 15.8879 149.106 15.9479 148.938 15.9479H148.074C147.978 15.9479 147.87 15.9599 147.75 15.9839C147.654 16.0079 147.558 16.0439 147.462 16.0919C147.342 16.1879 147.21 16.2719 147.066 16.3439C146.946 16.4159 146.826 16.4879 146.706 16.5599C146.538 16.7279 146.358 16.8959 146.166 17.0639C145.998 17.2079 145.806 17.3399 145.59 17.4599C145.278 17.9399 145.134 18.3239 145.158 18.6119C145.182 18.8759 145.182 19.3079 145.158 19.9079C145.158 19.9319 145.17 20.0519 145.194 20.2679C145.242 20.4599 145.242 20.5799 145.194 20.6279C145.458 20.7719 145.626 20.9999 145.698 21.3119C145.794 21.6239 145.866 21.9479 145.914 22.2839C145.962 22.6199 146.046 22.9079 146.166 23.1479C146.31 23.3879 146.562 23.5079 146.922 23.5079C147.618 23.5079 148.254 23.3879 148.83 23.1479C149.406 22.8839 149.814 22.4519 150.054 21.8519C150.054 21.7559 150.042 21.6719 150.018 21.5999C150.018 21.5039 150.018 21.4079 150.018 21.3119C150.018 21.1679 150.042 21.0359 150.09 20.9159C150.138 20.7719 150.246 20.6519 150.414 20.5559L150.558 20.4839C150.774 20.1239 150.882 19.7039 150.882 19.2239C150.882 18.8399 150.798 18.4919 150.63 18.1799C150.486 17.8679 150.246 17.6639 149.91 17.5679C149.406 17.5679 148.998 17.6159 148.686 17.7119C148.59 17.7599 148.482 17.8199 148.362 17.8919C148.266 17.9399 148.182 17.9999 148.11 18.0719C147.918 18.2159 147.786 18.3959 147.714 18.6119C147.666 18.8279 147.642 19.0559 147.642 19.2959C147.642 19.4639 147.642 19.6319 147.642 19.7999C147.666 19.9679 147.69 20.1119 147.714 20.2319C147.762 20.3759 147.834 20.5199 147.93 20.6639C148.05 20.7839 148.17 20.9279 148.29 21.0959C148.434 21.2639 148.506 21.4199 148.506 21.5639C148.506 21.8039 148.326 21.9239 147.966 21.9239C147.678 21.9239 147.366 21.7919 147.03 21.5279C146.718 21.2399 146.574 20.7959 146.598 20.1959C146.574 20.0999 146.55 20.0039 146.526 19.9079C146.526 19.8119 146.526 19.7039 146.526 19.5839H146.49C146.49 18.9599 146.622 18.3959 146.886 17.8919C147.174 17.3639 147.594 17.0039 148.146 16.8119C148.914 16.4519 149.79 16.2719 150.774 16.2719C151.446 16.2719 151.95 16.4879 152.286 16.9199C152.622 17.3279 152.85 17.8319 152.97 18.4319C153.09 19.0079 153.15 19.5479 153.15 20.0519C153.15 20.0039 153.114 20.0999 153.042 20.3399C152.97 20.5799 152.862 20.8799 152.718 21.2399C152.598 21.5999 152.454 21.9239 152.286 22.2119C152.142 22.4999 151.986 22.6559 151.818 22.6799C151.578 22.6799 151.386 22.7639 151.242 22.9319C151.098 23.2679 150.822 23.4359 150.414 23.4359L150.342 23.5439C150.318 23.5679 150.282 23.5919 150.234 23.6159C150.21 23.6159 150.174 23.6279 150.126 23.6519L150.018 23.7959C149.706 24.2279 149.214 24.5039 148.542 24.6239C147.894 24.7199 147.318 24.7679 146.814 24.7679ZM158.759 25.0559C158.759 24.6479 158.687 24.3239 158.543 24.0839C158.423 23.8439 158.291 23.6399 158.147 23.4719C158.027 23.3039 157.967 23.1119 157.967 22.8959C157.967 22.7039 158.039 22.4879 158.183 22.2479L158.255 22.1039L158.327 21.9959C158.303 21.9719 158.219 21.9599 158.075 21.9599C157.931 21.9599 157.835 21.9479 157.787 21.9239H157.607C157.463 21.9239 157.391 21.8279 157.391 21.6359C157.391 21.3959 157.463 21.1079 157.607 20.7719C157.751 20.4119 157.835 20.1719 157.859 20.0519C157.667 20.0279 157.475 19.8719 157.283 19.5839C157.115 19.2959 156.971 18.9719 156.851 18.6119C156.731 18.2279 156.671 17.9279 156.671 17.7119C156.623 17.5919 156.563 17.4839 156.491 17.3879C156.443 17.2679 156.395 17.1599 156.347 17.0639H155.987C155.651 17.1839 155.315 17.2559 154.979 17.2799L154.331 17.4959C154.283 17.5199 154.223 17.5319 154.151 17.5319C153.983 17.5319 153.863 17.4719 153.791 17.3519C153.695 17.2319 153.647 17.0999 153.647 16.9559C153.647 16.7159 153.755 16.5599 153.971 16.4879L154.223 16.4159C154.295 16.3199 154.427 16.2719 154.619 16.2719C154.667 16.2479 154.727 16.2359 154.799 16.2359C154.967 16.1879 155.123 16.1519 155.267 16.1279C155.411 16.1039 155.567 16.0799 155.735 16.0559C156.239 15.8879 156.695 15.6719 157.103 15.4079C157.535 15.1199 158.015 14.8919 158.543 14.7239C158.807 14.6519 159.059 14.5799 159.299 14.5079C159.563 14.4119 159.815 14.3039 160.055 14.1839C160.151 14.0879 160.247 14.0039 160.343 13.9319C160.463 13.8599 160.571 13.7879 160.667 13.7159C160.787 13.6439 160.907 13.6079 161.027 13.6079C161.363 13.6079 161.531 13.7639 161.531 14.0759C161.531 14.1959 161.471 14.3399 161.351 14.5079C161.255 14.6039 161.147 14.6999 161.027 14.7959C160.907 14.8919 160.787 14.9759 160.667 15.0479C160.283 15.3599 159.923 15.7319 159.587 16.1639C159.275 16.5959 159.107 17.0159 159.083 17.4239L159.119 17.4599C159.095 17.5319 159.083 17.6639 159.083 17.8559C159.083 18.4319 159.203 19.0679 159.443 19.7639C159.683 20.4359 159.923 21.0359 160.163 21.5639C160.427 22.0919 160.571 22.4279 160.595 22.5719C160.763 22.0199 160.979 21.6479 161.243 21.4559C161.507 21.2639 161.795 20.9519 162.107 20.5199C162.131 20.4719 162.203 20.3519 162.323 20.1599C162.443 19.9679 162.515 19.8719 162.539 19.8719C162.923 19.4159 163.175 19.0079 163.295 18.6479C163.439 18.2639 163.535 17.9279 163.583 17.6399C163.631 17.3279 163.703 17.0639 163.799 16.8479C163.919 16.6319 164.147 16.4639 164.483 16.3439L164.627 16.0559C164.603 15.8159 164.555 15.5159 164.483 15.1559C164.411 14.7959 164.291 14.6159 164.123 14.6159H163.655C163.559 14.6399 163.451 14.6639 163.331 14.6879C163.235 14.7119 163.127 14.7239 163.007 14.7239H162.899C162.731 14.7239 162.599 14.6759 162.503 14.5799C162.407 14.4599 162.359 14.3399 162.359 14.2199C162.359 13.9559 162.515 13.7879 162.827 13.7159C162.947 13.6919 163.067 13.6679 163.187 13.6439C163.307 13.6199 163.439 13.5959 163.583 13.5719C163.895 13.5239 164.207 13.4759 164.519 13.4279C164.831 13.3799 165.143 13.3559 165.455 13.3559C165.623 13.3559 165.779 13.3319 165.923 13.2839C166.091 13.2119 166.259 13.1639 166.427 13.1399C166.667 13.0199 166.907 12.9359 167.147 12.8879C167.387 12.8159 167.603 12.7799 167.795 12.7799C168.011 12.7799 168.155 12.8039 168.227 12.8519L169.523 12.0599C169.571 12.0359 169.619 12.0239 169.667 12.0239C169.715 11.9999 169.763 11.9879 169.811 11.9879C169.955 11.9879 170.075 12.0479 170.171 12.1679C170.267 12.2639 170.315 12.3719 170.315 12.4919C170.315 12.6599 170.231 12.8159 170.063 12.9599C169.751 13.1999 169.427 13.4519 169.091 13.7159C168.755 13.9799 168.383 14.1599 167.975 14.2559C167.735 14.4239 167.495 14.6159 167.255 14.8319C167.039 15.0239 166.835 15.2159 166.643 15.4079C166.547 15.5039 166.415 15.6239 166.247 15.7679C166.103 15.9119 165.947 16.0439 165.779 16.1639L165.671 16.3079L165.707 16.4159C165.707 16.7279 165.575 16.9559 165.311 17.0999C165.071 17.6279 164.831 18.1679 164.591 18.7199C164.351 19.2479 164.159 19.7519 164.015 20.2319C163.895 20.6399 163.727 20.8799 163.511 20.9519C163.295 20.9999 163.067 21.1199 162.827 21.3119C162.587 21.6479 162.359 21.9839 162.143 22.3199C161.951 22.6319 161.747 22.9319 161.531 23.2199C161.459 23.4359 161.399 23.6639 161.351 23.9039C161.327 24.1199 161.303 24.3359 161.279 24.5519C161.279 24.8879 161.099 25.0559 160.739 25.0559C160.691 25.0559 160.631 25.0559 160.559 25.0559C160.487 25.0559 160.427 25.0439 160.379 25.0199C160.211 25.0679 159.995 25.1759 159.731 25.3439C159.491 25.5119 159.275 25.5959 159.083 25.5959C158.867 25.5959 158.759 25.4159 158.759 25.0559ZM171.515 24.6599C170.651 24.6599 169.991 24.3119 169.535 23.6159C169.223 23.3759 168.923 23.0999 168.635 22.7879C168.371 22.4519 168.239 22.1159 168.239 21.7799C168.239 21.6119 168.275 21.4439 168.347 21.2759C168.227 21.0119 168.215 20.8319 168.311 20.7359L168.347 20.6999C168.275 20.6519 168.203 20.5799 168.131 20.4839C168.059 20.3879 168.023 20.2559 168.023 20.0879C168.023 19.8479 168.071 19.6679 168.167 19.5479L168.131 19.5119C168.107 19.4399 168.095 19.3319 168.095 19.1879C168.095 18.9239 168.179 18.6719 168.347 18.4319C168.539 18.1679 168.719 17.9519 168.887 17.7839C168.767 17.5439 168.707 17.3159 168.707 17.0999C168.707 16.6199 168.875 16.1519 169.211 15.6959C169.571 15.2399 169.883 14.8679 170.147 14.5799C170.099 14.0039 170.363 13.7159 170.939 13.7159C171.107 13.7159 171.287 13.6439 171.479 13.4999C171.695 13.3319 171.959 13.2479 172.271 13.2479C172.391 13.2479 172.487 13.2599 172.559 13.2839C172.631 13.3079 172.703 13.3439 172.775 13.3919C173.303 13.3919 173.795 13.6679 174.251 14.2199C174.731 14.7479 175.115 15.3599 175.403 16.0559C175.715 16.7519 175.871 17.3639 175.871 17.8919C175.847 18.0359 175.763 18.1319 175.619 18.1799C175.475 18.2039 175.307 18.2279 175.115 18.2519H174.827C174.659 18.2519 174.491 18.2519 174.323 18.2519C174.179 18.2279 174.071 18.2159 173.999 18.2159C173.759 18.2159 173.423 18.2279 172.991 18.2519C172.559 18.2759 172.127 18.3119 171.695 18.3599C171.263 18.4079 170.939 18.4799 170.723 18.5759C170.483 18.6719 170.315 18.9239 170.219 19.3319C170.123 19.7399 170.075 20.2199 170.075 20.7719C170.075 21.0359 170.147 21.3959 170.291 21.8519C170.435 22.3079 170.639 22.7159 170.903 23.0759C171.191 23.4359 171.539 23.6159 171.947 23.6159C172.475 23.6159 172.871 23.5439 173.135 23.3999C173.423 23.2559 173.651 23.0519 173.819 22.7879C173.867 22.6679 173.975 22.5599 174.143 22.4639C174.311 22.3439 174.407 22.2119 174.431 22.0679C174.479 21.9239 174.575 21.7679 174.719 21.5999C174.863 21.4319 174.959 21.2639 175.007 21.0959C175.031 21.0479 175.019 20.9879 174.971 20.9159C174.947 20.8199 174.935 20.7239 174.935 20.6279C174.935 20.5559 174.959 20.4839 175.007 20.4119C175.055 20.3159 175.151 20.2679 175.295 20.2679C175.439 20.2679 175.571 20.3639 175.691 20.5559C175.835 20.7239 175.907 20.9759 175.907 21.3119C175.907 21.3839 175.907 21.4559 175.907 21.5279C175.907 21.5999 175.895 21.6719 175.871 21.7439C175.799 22.0319 175.727 22.2119 175.655 22.2839C175.631 22.3559 175.583 22.4279 175.511 22.4999C175.439 22.5719 175.367 22.6679 175.295 22.7879C175.127 22.9799 174.887 23.2319 174.575 23.5439C174.287 23.8319 173.963 24.0959 173.603 24.3359C173.267 24.5519 172.955 24.6599 172.667 24.6599H171.515ZM170.291 17.4959C170.363 17.5199 170.435 17.5319 170.507 17.5319C170.579 17.5319 170.651 17.5319 170.723 17.5319C170.867 17.5319 170.999 17.5319 171.119 17.5319C171.263 17.5079 171.407 17.4839 171.551 17.4599C171.743 17.4359 171.923 17.4239 172.091 17.4239C172.283 17.3999 172.439 17.3879 172.559 17.3879H173.063C173.039 17.3399 173.027 17.2679 173.027 17.1719C173.027 16.8599 173.207 16.5719 173.567 16.3079C173.519 16.0439 173.471 15.7559 173.423 15.4439C173.375 15.1319 173.255 14.8679 173.063 14.6519L172.739 14.5439C172.667 14.5439 172.607 14.5319 172.559 14.5079C172.031 14.5319 171.623 14.7599 171.335 15.1919C171.047 15.5999 170.819 16.0199 170.651 16.4519C170.579 16.5959 170.519 16.7519 170.471 16.9199C170.447 17.0639 170.387 17.2559 170.291 17.4959ZM179.11 10.9079C179.014 10.8359 178.966 10.7519 178.966 10.6559C178.966 10.5599 178.99 10.4519 179.038 10.3319C179.086 10.2119 179.134 10.0919 179.182 9.97193L179.542 9.17993C179.686 8.86793 179.794 8.60393 179.866 8.38793C179.89 8.31593 179.902 8.24393 179.902 8.17193C179.902 8.07593 179.902 7.99193 179.902 7.91993C179.902 7.65593 179.878 7.40393 179.83 7.16393C179.782 6.89993 179.758 6.64793 179.758 6.40793C179.758 6.28793 179.77 6.15593 179.794 6.01193C179.818 5.86793 179.866 5.72393 179.938 5.57993C180.058 5.33993 180.25 5.15993 180.514 5.03993C180.778 4.91993 181.042 4.85993 181.306 4.85993C181.546 4.85993 181.738 4.91993 181.882 5.03993C182.05 5.13593 182.11 5.27993 182.062 5.47193C181.942 5.99993 181.774 6.61193 181.558 7.30793C181.342 7.97993 181.102 8.62793 180.838 9.25193C180.574 9.85193 180.286 10.3199 179.974 10.6559C179.686 10.9919 179.398 11.0759 179.11 10.9079ZM197.792 16.266L196.286 16.6922C196.191 16.4412 196.051 16.1974 195.867 15.9606C195.687 15.7191 195.441 15.5203 195.128 15.364C194.816 15.2078 194.416 15.1297 193.928 15.1297C193.26 15.1297 192.704 15.2835 192.259 15.5913C191.819 15.8943 191.598 16.2802 191.598 16.749C191.598 17.1656 191.75 17.4947 192.053 17.7362C192.356 17.9777 192.829 18.1789 193.473 18.3399L195.093 18.7376C196.068 18.9744 196.795 19.3366 197.273 19.8243C197.751 20.3072 197.99 20.9299 197.99 21.6922C197.99 22.3172 197.81 22.8759 197.451 23.3683C197.095 23.8607 196.598 24.249 195.959 24.5331C195.32 24.8172 194.577 24.9592 193.729 24.9592C192.616 24.9592 191.695 24.7177 190.966 24.2348C190.237 23.7518 189.775 23.0463 189.581 22.1183L191.172 21.7206C191.324 22.3077 191.61 22.748 192.032 23.0416C192.458 23.3352 193.014 23.4819 193.701 23.4819C194.482 23.4819 195.102 23.3162 195.561 22.9848C196.025 22.6486 196.257 22.2461 196.257 21.7774C196.257 21.3986 196.125 21.0814 195.86 20.8257C195.595 20.5653 195.187 20.3711 194.638 20.2433L192.82 19.8172C191.821 19.5804 191.087 19.2135 190.618 18.7163C190.154 18.2144 189.922 17.587 189.922 16.8342C189.922 16.2187 190.095 15.6742 190.441 15.2007C190.791 14.7272 191.267 14.3555 191.868 14.0856C192.474 13.8157 193.161 13.6808 193.928 13.6808C195.007 13.6808 195.855 13.9175 196.47 14.391C197.091 14.8645 197.531 15.4895 197.792 16.266ZM205.258 13.8228V15.2433H199.604V13.8228H205.258ZM201.252 11.2092H202.928V21.6069C202.928 22.0804 202.997 22.4355 203.134 22.6723C203.276 22.9043 203.456 23.0605 203.674 23.141C203.897 23.2168 204.131 23.2547 204.377 23.2547C204.562 23.2547 204.713 23.2452 204.832 23.2263C204.95 23.2026 205.045 23.1836 205.116 23.1694L205.457 24.6751C205.343 24.7177 205.184 24.7603 204.981 24.803C204.777 24.8503 204.519 24.874 204.207 24.874C203.733 24.874 203.269 24.7722 202.815 24.5686C202.365 24.365 201.991 24.0549 201.692 23.6382C201.399 23.2215 201.252 22.6959 201.252 22.0615V11.2092ZM212.094 24.9592C211.109 24.9592 210.245 24.7248 209.501 24.2561C208.763 23.7873 208.185 23.1316 207.768 22.2888C207.357 21.4459 207.151 20.4611 207.151 19.3342C207.151 18.1978 207.357 17.2059 207.768 16.3584C208.185 15.5108 208.763 14.8527 209.501 14.3839C210.245 13.9152 211.109 13.6808 212.094 13.6808C213.079 13.6808 213.94 13.9152 214.679 14.3839C215.422 14.8527 216 15.5108 216.412 16.3584C216.829 17.2059 217.037 18.1978 217.037 19.3342C217.037 20.4611 216.829 21.4459 216.412 22.2888C216 23.1316 215.422 23.7873 214.679 24.2561C213.94 24.7248 213.079 24.9592 212.094 24.9592ZM212.094 23.4535C212.842 23.4535 213.457 23.2618 213.94 22.8782C214.423 22.4947 214.781 21.9905 215.013 21.3655C215.245 20.7405 215.361 20.0634 215.361 19.3342C215.361 18.605 215.245 17.9256 215.013 17.2959C214.781 16.6661 214.423 16.1571 213.94 15.7689C213.457 15.3806 212.842 15.1865 212.094 15.1865C211.346 15.1865 210.73 15.3806 210.247 15.7689C209.764 16.1571 209.407 16.6661 209.175 17.2959C208.943 17.9256 208.827 18.605 208.827 19.3342C208.827 20.0634 208.943 20.7405 209.175 21.3655C209.407 21.9905 209.764 22.4947 210.247 22.8782C210.73 23.2618 211.346 23.4535 212.094 23.4535ZM219.595 24.7319V13.8228H221.215V15.4706H221.328C221.527 14.9308 221.887 14.4928 222.408 14.1566C222.929 13.8205 223.516 13.6524 224.169 13.6524C224.292 13.6524 224.446 13.6548 224.631 13.6595C224.816 13.6642 224.955 13.6713 225.05 13.6808V15.3853C224.993 15.3711 224.863 15.3498 224.659 15.3214C224.461 15.2883 224.25 15.2717 224.027 15.2717C223.497 15.2717 223.024 15.383 222.607 15.6055C222.195 15.8233 221.868 16.1263 221.627 16.5146C221.39 16.8981 221.272 17.3361 221.272 17.8285V24.7319H219.595ZM228.448 28.8228C228.164 28.8228 227.911 28.7992 227.689 28.7518C227.466 28.7092 227.312 28.6666 227.227 28.624L227.653 27.1467C228.06 27.2509 228.42 27.2888 228.733 27.2603C229.045 27.2319 229.322 27.0923 229.564 26.8413C229.81 26.5951 230.035 26.195 230.238 25.641L230.551 24.7888L226.517 13.8228H228.335L231.346 22.516H231.46L234.471 13.8228H236.289L231.659 26.3228C231.45 26.8863 231.192 27.3527 230.885 27.722C230.577 28.096 230.219 28.373 229.812 28.553C229.41 28.7329 228.955 28.8228 228.448 28.8228ZM239.04 24.8456C238.689 24.8456 238.389 24.7201 238.138 24.4691C237.887 24.2182 237.761 23.9175 237.761 23.5672C237.761 23.2168 237.887 22.9161 238.138 22.6652C238.389 22.4142 238.689 22.2888 239.04 22.2888C239.39 22.2888 239.691 22.4142 239.942 22.6652C240.193 22.9161 240.318 23.2168 240.318 23.5672C240.318 23.7992 240.259 24.0122 240.141 24.2064C240.027 24.4005 239.873 24.5567 239.679 24.6751C239.49 24.7888 239.276 24.8456 239.04 24.8456Z" fill="black"/>
</svg>
