<svg width="195" height="30" viewBox="0 0 195 30" fill="none" xmlns="http://www.w3.org/2000/svg">
<path d="M9.36821 7.82955L13.6864 20.0739H13.8568L18.175 7.82955H20.0216L14.6807 22.375H12.8625L7.52162 7.82955H9.36821ZM31.8327 7.82955H33.5941V17.4602C33.5941 18.4545 33.3597 19.3423 32.8909 20.1236C32.4269 20.9001 31.7711 21.5133 30.9236 21.9631C30.0761 22.4081 29.0818 22.6307 27.9407 22.6307C26.7996 22.6307 25.8052 22.4081 24.9577 21.9631C24.1102 21.5133 23.452 20.9001 22.9833 20.1236C22.5193 19.3423 22.2872 18.4545 22.2872 17.4602V7.82955H24.0486V17.3182C24.0486 18.0284 24.2049 18.6605 24.5174 19.2145C24.8299 19.7637 25.2749 20.197 25.8526 20.5142C26.435 20.8267 27.131 20.983 27.9407 20.983C28.7503 20.983 29.4463 20.8267 30.0287 20.5142C30.6111 20.197 31.0562 19.7637 31.3639 19.2145C31.6764 18.6605 31.8327 18.0284 31.8327 17.3182V7.82955ZM37.1115 22.375V7.82955H42.0262C43.1626 7.82955 44.0954 8.02367 44.8245 8.41193C45.5537 8.79545 46.0935 9.32339 46.4438 9.99574C46.7942 10.6681 46.9694 11.4328 46.9694 12.2898C46.9694 13.1468 46.7942 13.9067 46.4438 14.5696C46.0935 15.2325 45.5561 15.7533 44.8316 16.1321C44.1072 16.5062 43.1815 16.6932 42.0546 16.6932H38.0774V15.1023H41.9978C42.7743 15.1023 43.3993 14.9886 43.8728 14.7614C44.351 14.5341 44.6967 14.2121 44.9098 13.7955C45.1276 13.3741 45.2365 12.8722 45.2365 12.2898C45.2365 11.7074 45.1276 11.1984 44.9098 10.7628C44.692 10.3272 44.3439 9.991 43.8657 9.75426C43.3875 9.51278 42.7554 9.39205 41.9694 9.39205H38.8728V22.375H37.1115ZM43.9581 15.8409L47.5376 22.375H45.4921L41.9694 15.8409H43.9581ZM49.9044 22.375V7.82955H58.6828V9.39205H51.6658V14.3068H58.2283V15.8693H51.6658V20.8125H58.7965V22.375H49.9044ZM61.0962 20.315H77.4962V21.695H61.0962V20.315ZM68.4362 16.455H70.0762V20.895H68.4362V16.455ZM63.0962 7.175H75.4562V12.655H64.7762V16.275H63.1362V11.335H73.8162V8.535H63.0962V7.175ZM63.1362 15.575H75.8762V16.935H63.1362V15.575ZM98.2596 5.835H99.9196V23.955H98.2596V5.835ZM90.3796 7.235C91.273 7.235 92.0596 7.495 92.7396 8.015C93.433 8.52167 93.973 9.24833 94.3596 10.195C94.7596 11.1417 94.9596 12.255 94.9596 13.535C94.9596 14.815 94.7596 15.9283 94.3596 16.875C93.973 17.8217 93.433 18.555 92.7396 19.075C92.0596 19.595 91.273 19.855 90.3796 19.855C89.4863 19.855 88.693 19.595 87.9996 19.075C87.3063 18.555 86.7596 17.8217 86.3596 16.875C85.973 15.9283 85.7796 14.815 85.7796 13.535C85.7796 12.255 85.973 11.1417 86.3596 10.195C86.7596 9.24833 87.3063 8.52167 87.9996 8.015C88.693 7.495 89.4863 7.235 90.3796 7.235ZM90.3796 8.715C89.7796 8.715 89.253 8.915 88.7996 9.315C88.3596 9.70167 88.013 10.2617 87.7596 10.995C87.5063 11.715 87.3796 12.5617 87.3796 13.535C87.3796 14.5083 87.5063 15.3617 87.7596 16.095C88.013 16.815 88.3596 17.375 88.7996 17.775C89.253 18.175 89.7796 18.375 90.3796 18.375C90.9663 18.375 91.4796 18.175 91.9196 17.775C92.373 17.375 92.7263 16.815 92.9796 16.095C93.233 15.3617 93.3596 14.5083 93.3596 13.535C93.3596 12.5617 93.233 11.715 92.9796 10.995C92.7263 10.2617 92.373 9.70167 91.9196 9.315C91.4796 8.915 90.9663 8.715 90.3796 8.715ZM103.518 14.755H119.878V16.095H103.518V14.755ZM110.878 11.855H112.498V15.315H110.878V11.855ZM105.578 11.335H117.958V12.675H105.578V11.335ZM105.578 6.675H117.838V7.995H107.218V12.135H105.578V6.675ZM111.678 17.395C113.611 17.395 115.125 17.6817 116.218 18.255C117.311 18.815 117.858 19.615 117.858 20.655C117.858 21.695 117.311 22.495 116.218 23.055C115.125 23.6283 113.611 23.915 111.678 23.915C109.745 23.915 108.225 23.6283 107.118 23.055C106.025 22.495 105.478 21.695 105.478 20.655C105.478 19.615 106.025 18.815 107.118 18.255C108.225 17.6817 109.745 17.395 111.678 17.395ZM111.658 18.695C110.725 18.695 109.918 18.775 109.238 18.935C108.571 19.0817 108.058 19.3017 107.698 19.595C107.338 19.875 107.158 20.2283 107.158 20.655C107.158 21.0683 107.338 21.4217 107.698 21.715C108.058 22.0083 108.571 22.2283 109.238 22.375C109.918 22.535 110.725 22.615 111.658 22.615C112.618 22.615 113.431 22.535 114.098 22.375C114.778 22.2283 115.298 22.0083 115.658 21.715C116.018 21.4217 116.198 21.0683 116.198 20.655C116.198 20.2283 116.018 19.875 115.658 19.595C115.298 19.3017 114.778 19.0817 114.098 18.935C113.431 18.775 112.618 18.695 111.658 18.695ZM134.177 5.835H135.817V23.935H134.177V5.835ZM135.437 13.275H138.777V14.675H135.437V13.275ZM121.817 8.735H132.477V10.095H121.817V8.735ZM127.237 11.575C128.09 11.575 128.843 11.755 129.497 12.115C130.163 12.475 130.683 12.9683 131.057 13.595C131.443 14.2083 131.637 14.9217 131.637 15.735C131.637 16.5483 131.443 17.2683 131.057 17.895C130.683 18.5217 130.163 19.015 129.497 19.375C128.843 19.7217 128.09 19.895 127.237 19.895C126.383 19.895 125.623 19.7217 124.957 19.375C124.303 19.015 123.783 18.5217 123.397 17.895C123.01 17.2683 122.817 16.5483 122.817 15.735C122.817 14.9217 123.01 14.2083 123.397 13.595C123.783 12.9683 124.303 12.475 124.957 12.115C125.623 11.755 126.383 11.575 127.237 11.575ZM127.237 12.955C126.69 12.955 126.203 13.075 125.777 13.315C125.35 13.555 125.01 13.8817 124.757 14.295C124.517 14.7083 124.397 15.1883 124.397 15.735C124.397 16.2817 124.517 16.7683 124.757 17.195C125.01 17.6083 125.35 17.935 125.777 18.175C126.203 18.4017 126.69 18.515 127.237 18.515C127.77 18.515 128.25 18.4017 128.677 18.175C129.103 17.935 129.437 17.6083 129.677 17.195C129.93 16.7683 130.057 16.2817 130.057 15.735C130.057 15.1883 129.93 14.7083 129.677 14.295C129.437 13.8817 129.103 13.555 128.677 13.315C128.25 13.075 127.77 12.955 127.237 12.955ZM126.377 6.055H128.037V9.335H126.377V6.055ZM153.495 5.835H155.155V23.935H153.495V5.835ZM148.195 7.795H149.835C149.835 9.10167 149.675 10.3617 149.355 11.575C149.048 12.7883 148.562 13.9417 147.895 15.035C147.228 16.115 146.362 17.1217 145.295 18.055C144.228 18.9883 142.935 19.8217 141.415 20.555L140.535 19.215C142.282 18.375 143.722 17.395 144.855 16.275C145.988 15.155 146.828 13.9083 147.375 12.535C147.922 11.1483 148.195 9.655 148.195 8.055V7.795ZM141.375 7.795H148.895V9.135H141.375V7.795Z" fill="black"/>
<path d="M164.724 14.875C164.724 17.817 165.596 20.6929 167.231 23.1391C168.865 25.5853 171.188 27.4919 173.906 28.6177C176.624 29.7436 179.615 30.0381 182.501 29.4642C185.386 28.8902 188.037 27.4735 190.117 25.3932C192.197 23.3129 193.614 20.6624 194.188 17.777C194.762 14.8915 194.467 11.9006 193.341 9.18258C192.215 6.46453 190.309 4.14138 187.863 2.50689C185.417 0.872404 182.541 0 179.599 0C175.654 0 171.87 1.56718 169.08 4.35679C166.291 7.14639 164.724 10.9299 164.724 14.875ZM171.099 13.8125H184.008L178.079 7.85506L179.599 6.375L188.099 14.875L179.599 23.375L178.079 21.8588L184.008 15.9375H171.099V13.8125Z" fill="black"/>
</svg>
