<svg width="30" height="30" viewBox="0 0 30 30" fill="none" xmlns="http://www.w3.org/2000/svg">
<path d="M0 14.875C0 17.817 0.872404 20.6929 2.50689 23.1391C4.14138 25.5853 6.46453 27.4919 9.18258 28.6177C11.9006 29.7436 14.8915 30.0381 17.777 29.4642C20.6624 28.8902 23.3129 27.4735 25.3932 25.3932C27.4735 23.3129 28.8902 20.6624 29.4642 17.777C30.0381 14.8915 29.7436 11.9006 28.6177 9.18258C27.4919 6.46453 25.5853 4.14138 23.1391 2.50689C20.6929 0.872404 17.817 0 14.875 0C10.9299 0 7.14639 1.56718 4.35679 4.35679C1.56718 7.14639 0 10.9299 0 14.875ZM6.375 13.8125H19.2844L13.3556 7.85506L14.875 6.375L23.375 14.875L14.875 23.375L13.3556 21.8588L19.2844 15.9375H6.375V13.8125Z" fill="black"/>
</svg>
