<svg width="282" height="53" viewBox="0 0 282 53" fill="none" xmlns="http://www.w3.org/2000/svg">
<path d="M18.5861 1.56004H19.9461V4.80004C19.9461 5.80004 19.8195 6.78004 19.5661 7.74004C19.3261 8.70004 18.9795 9.60004 18.5261 10.44C18.0728 11.28 17.5395 12.0267 16.9261 12.68C16.3128 13.3334 15.6461 13.8534 14.9261 14.24L13.9061 12.9C14.5728 12.5667 15.1861 12.12 15.7461 11.56C16.3195 10.9867 16.8195 10.3334 17.2461 9.60004C17.6728 8.86671 17.9995 8.09337 18.2261 7.28004C18.4661 6.45337 18.5861 5.62671 18.5861 4.80004V1.56004ZM18.8861 1.56004H20.2261V4.80004C20.2261 5.60004 20.3395 6.39337 20.5661 7.18004C20.8061 7.96671 21.1395 8.70671 21.5661 9.40004C21.9928 10.0934 22.4795 10.7134 23.0261 11.26C23.5861 11.8067 24.1861 12.24 24.8261 12.56L23.8061 13.88C23.0995 13.52 22.4461 13.0267 21.8461 12.4C21.2595 11.7734 20.7395 11.06 20.2861 10.26C19.8461 9.44671 19.4995 8.58004 19.2461 7.66004C19.0061 6.72671 18.8861 5.77337 18.8861 4.80004V1.56004ZM26.4061 3.86238e-05H28.0661V18.1H26.4061V3.86238e-05ZM27.6861 7.32004H31.0261V8.74004H27.6861V7.32004ZM44.9446 0.0200384H46.6046V10.92H44.9446V0.0200384ZM46.0846 4.54004H49.2846V5.92004H46.0846V4.54004ZM33.3446 8.52004H34.7646C35.8579 8.52004 36.8646 8.50671 37.7846 8.48004C38.7179 8.45337 39.6179 8.40004 40.4846 8.32004C41.3646 8.22671 42.2712 8.10004 43.2046 7.94004L43.3646 9.30004C42.4046 9.46004 41.4779 9.58671 40.5846 9.68004C39.7046 9.76004 38.7912 9.82004 37.8446 9.86004C36.9112 9.88671 35.8846 9.90004 34.7646 9.90004H33.3446V8.52004ZM33.3046 1.14004H41.4446V6.04004H34.9846V9.40004H33.3446V4.76004H39.8246V2.48004H33.3046V1.14004ZM40.8246 11.48C42.0512 11.48 43.1046 11.6134 43.9846 11.88C44.8779 12.1467 45.5646 12.52 46.0446 13C46.5246 13.48 46.7646 14.0734 46.7646 14.78C46.7646 15.82 46.2312 16.6267 45.1646 17.2C44.1112 17.7734 42.6646 18.06 40.8246 18.06C39.5846 18.06 38.5179 17.9334 37.6246 17.68C36.7446 17.4267 36.0646 17.0534 35.5846 16.56C35.1046 16.0667 34.8646 15.4734 34.8646 14.78C34.8646 14.0734 35.1046 13.48 35.5846 13C36.0646 12.52 36.7446 12.1467 37.6246 11.88C38.5179 11.6134 39.5846 11.48 40.8246 11.48ZM40.8246 12.78C39.9179 12.78 39.1379 12.86 38.4846 13.02C37.8446 13.18 37.3512 13.4067 37.0046 13.7C36.6579 13.9934 36.4846 14.3534 36.4846 14.78C36.4846 15.1934 36.6579 15.5534 37.0046 15.86C37.3512 16.1534 37.8446 16.38 38.4846 16.54C39.1379 16.7 39.9179 16.78 40.8246 16.78C41.7179 16.78 42.4912 16.7 43.1446 16.54C43.7979 16.38 44.2912 16.1534 44.6246 15.86C44.9712 15.5534 45.1446 15.1934 45.1446 14.78C45.1446 14.3534 44.9712 13.9934 44.6246 13.7C44.2912 13.4067 43.7979 13.18 43.1446 13.02C42.4912 12.86 41.7179 12.78 40.8246 12.78ZM53.9971 14.5514L53.8835 15.3184C53.803 15.8582 53.6799 16.4359 53.5141 17.0514C53.3532 17.6669 53.1851 18.247 53.0099 18.7915C52.8347 19.336 52.6903 19.7692 52.5766 20.0912H51.2982C51.3598 19.7881 51.4403 19.3881 51.5397 18.8909C51.6391 18.3937 51.7386 17.8374 51.838 17.2219C51.9422 16.6111 52.0274 15.9861 52.0937 15.3469L52.1789 14.5514H53.9971ZM63.9735 1.92004H75.6135V3.28004H63.9735V1.92004ZM62.1935 14.08H78.5335V15.46H62.1935V14.08ZM74.7135 1.92004H76.3535V3.74004C76.3535 4.50004 76.3401 5.31337 76.3135 6.18004C76.3001 7.03337 76.2468 7.98004 76.1535 9.02004C76.0601 10.06 75.9001 11.2334 75.6735 12.54L73.9935 12.36C74.2335 11.1334 74.4001 10.0067 74.4935 8.98004C74.6001 7.95337 74.6601 7.00671 74.6735 6.14004C74.7001 5.27337 74.7135 4.47337 74.7135 3.74004V1.92004ZM98.4569 3.86238e-05H100.117V18.12H98.4569V3.86238e-05ZM99.7369 7.14004H103.077V8.52004H99.7369V7.14004ZM86.9969 12.2H88.4169C89.5236 12.2 90.5369 12.1867 91.4569 12.16C92.3903 12.12 93.2836 12.0534 94.1369 11.96C95.0036 11.8667 95.8836 11.74 96.7769 11.58L96.9769 13C96.0436 13.16 95.1369 13.2867 94.2569 13.38C93.3903 13.4734 92.4836 13.5334 91.5369 13.56C90.5903 13.5867 89.5503 13.6 88.4169 13.6H86.9969V12.2ZM86.9969 1.76004H95.3769V3.12004H88.6369V12.84H86.9969V1.76004ZM108.315 4.62004H109.595V5.56004C109.595 6.45337 109.502 7.34004 109.315 8.22004C109.129 9.08671 108.855 9.91337 108.495 10.7C108.149 11.4867 107.715 12.1934 107.195 12.82C106.689 13.4467 106.102 13.9534 105.435 14.34L104.455 13.08C105.055 12.72 105.595 12.2667 106.075 11.72C106.555 11.1734 106.962 10.5667 107.295 9.90004C107.629 9.22004 107.882 8.51337 108.055 7.78004C108.229 7.03337 108.315 6.29337 108.315 5.56004V4.62004ZM108.615 4.62004H109.895V5.56004C109.895 6.26671 109.982 6.98004 110.155 7.70004C110.329 8.40671 110.582 9.08004 110.915 9.72004C111.262 10.3467 111.669 10.92 112.135 11.44C112.615 11.9467 113.162 12.3667 113.775 12.7L112.815 13.94C111.935 13.4467 111.182 12.7667 110.555 11.9C109.929 11.0334 109.449 10.0534 109.115 8.96004C108.782 7.85337 108.615 6.72004 108.615 5.56004V4.62004ZM104.895 3.36004H113.295V4.74004H104.895V3.36004ZM108.315 0.660038H109.895V4.38004H108.315V0.660038ZM118.435 3.86238e-05H120.035V18.1H118.435V3.86238e-05ZM115.575 7.30004H119.055V8.70004H115.575V7.30004ZM114.495 0.380038H116.075V17.18H114.495V0.380038ZM123.014 14.48H139.414V15.86H123.014V14.48ZM130.354 10.62H131.994V15.06H130.354V10.62ZM125.014 1.34004H137.374V6.82004H126.694V10.44H125.054V5.50004H135.734V2.70004H125.014V1.34004ZM125.054 9.74004H137.794V11.1H125.054V9.74004ZM141.392 9.18004H157.792V10.54H141.392V9.18004ZM148.892 10.04H150.572V14.2H148.892V10.04ZM143.492 16.32H155.972V17.7H143.492V16.32ZM143.492 12.42H145.152V16.7H143.492V12.42ZM149.572 0.460039C150.852 0.460039 151.966 0.606705 152.912 0.900038C153.859 1.19337 154.592 1.61337 155.112 2.16004C155.646 2.69337 155.912 3.34004 155.912 4.10004C155.912 4.83337 155.646 5.47337 155.112 6.02004C154.592 6.56671 153.859 6.98671 152.912 7.28004C151.966 7.57337 150.852 7.72004 149.572 7.72004C148.306 7.72004 147.192 7.57337 146.232 7.28004C145.286 6.98671 144.546 6.56671 144.012 6.02004C143.492 5.47337 143.232 4.83337 143.232 4.10004C143.232 3.34004 143.492 2.69337 144.012 2.16004C144.546 1.61337 145.286 1.19337 146.232 0.900038C147.192 0.606705 148.306 0.460039 149.572 0.460039ZM149.572 1.80004C148.666 1.80004 147.866 1.89337 147.172 2.08004C146.479 2.2667 145.939 2.53337 145.552 2.88004C145.179 3.21337 144.992 3.62004 144.992 4.10004C144.992 4.56671 145.179 4.97337 145.552 5.32004C145.939 5.65337 146.479 5.91337 147.172 6.10004C147.866 6.27337 148.666 6.36004 149.572 6.36004C150.506 6.36004 151.312 6.27337 151.992 6.10004C152.672 5.91337 153.199 5.65337 153.572 5.32004C153.959 4.97337 154.152 4.56671 154.152 4.10004C154.152 3.62004 153.959 3.21337 153.572 2.88004C153.199 2.53337 152.672 2.2667 151.992 2.08004C151.312 1.89337 150.506 1.80004 149.572 1.80004ZM177.816 3.86238e-05H179.476V10.26H177.816V3.86238e-05ZM179.016 4.40004H182.136V5.78004H179.016V4.40004ZM172.796 1.18004H174.556C174.556 2.70004 174.216 4.07337 173.536 5.30004C172.869 6.51337 171.902 7.55337 170.636 8.42004C169.369 9.28671 167.849 9.96671 166.076 10.46L165.416 9.12004C166.989 8.70671 168.322 8.14671 169.416 7.44004C170.509 6.72004 171.342 5.89337 171.916 4.96004C172.502 4.0267 172.796 3.0067 172.796 1.90004V1.18004ZM166.216 1.18004H173.736V2.52004H166.216V1.18004ZM168.076 11.1H179.476V17.84H168.076V11.1ZM177.836 12.46H169.716V16.5H177.836V12.46ZM193.494 4.70004H197.554V6.08004H193.494V4.70004ZM197.054 3.86238e-05H198.714V10.78H197.054V3.86238e-05ZM192.754 11.34C194.007 11.34 195.081 11.4734 195.974 11.74C196.881 12.0067 197.574 12.3934 198.054 12.9C198.534 13.3934 198.774 14 198.774 14.72C198.774 15.7867 198.234 16.6134 197.154 17.2C196.087 17.7867 194.621 18.08 192.754 18.08C190.887 18.08 189.414 17.7867 188.334 17.2C187.267 16.6134 186.734 15.7867 186.734 14.72C186.734 14 186.974 13.3934 187.454 12.9C187.947 12.3934 188.641 12.0067 189.534 11.74C190.441 11.4734 191.514 11.34 192.754 11.34ZM192.754 12.64C191.847 12.64 191.067 12.72 190.414 12.88C189.761 13.04 189.254 13.2734 188.894 13.58C188.547 13.8867 188.374 14.2667 188.374 14.72C188.374 15.1467 188.547 15.5134 188.894 15.82C189.254 16.1267 189.761 16.3667 190.414 16.54C191.067 16.7 191.847 16.78 192.754 16.78C193.674 16.78 194.454 16.7 195.094 16.54C195.747 16.3667 196.247 16.1267 196.594 15.82C196.954 15.5134 197.134 15.1467 197.134 14.72C197.134 14.2667 196.954 13.8867 196.594 13.58C196.247 13.2734 195.747 13.04 195.094 12.88C194.454 12.72 193.674 12.64 192.754 12.64ZM188.434 1.84004H189.794V3.30004C189.794 4.4067 189.581 5.4467 189.154 6.42004C188.741 7.38004 188.154 8.22671 187.394 8.96004C186.634 9.68004 185.754 10.2334 184.754 10.62L183.894 9.30004C184.574 9.06004 185.187 8.73337 185.734 8.32004C186.294 7.90671 186.774 7.43337 187.174 6.90004C187.587 6.36671 187.901 5.79337 188.114 5.18004C188.327 4.56671 188.434 3.94004 188.434 3.30004V1.84004ZM188.754 1.84004H190.114V3.28004C190.114 4.05337 190.294 4.80671 190.654 5.54004C191.014 6.27337 191.527 6.92004 192.194 7.48004C192.861 8.04004 193.627 8.48004 194.494 8.80004L193.654 10.12C192.667 9.76004 191.807 9.24004 191.074 8.56004C190.341 7.86671 189.767 7.0667 189.354 6.16004C188.954 5.25337 188.754 4.29337 188.754 3.28004V1.84004ZM184.414 1.32004H194.074V2.68004H184.414V1.32004ZM208.093 1.32004C209.039 1.32004 209.873 1.50004 210.593 1.86004C211.326 2.20671 211.899 2.70004 212.313 3.34004C212.726 3.98004 212.933 4.7267 212.933 5.58004C212.933 6.42004 212.726 7.16671 212.313 7.82004C211.899 8.46004 211.326 8.96004 210.593 9.32004C209.873 9.66671 209.039 9.84004 208.093 9.84004C207.159 9.84004 206.326 9.66671 205.593 9.32004C204.859 8.96004 204.279 8.46004 203.853 7.82004C203.439 7.16671 203.233 6.42004 203.233 5.58004C203.233 4.7267 203.439 3.98004 203.853 3.34004C204.279 2.70004 204.859 2.20671 205.593 1.86004C206.326 1.50004 207.159 1.32004 208.093 1.32004ZM208.093 2.76004C207.479 2.76004 206.926 2.88004 206.433 3.12004C205.953 3.34671 205.573 3.67337 205.293 4.10004C205.013 4.52671 204.873 5.02004 204.873 5.58004C204.873 6.14004 205.013 6.63337 205.293 7.06004C205.573 7.48671 205.953 7.82004 206.433 8.06004C206.926 8.28671 207.479 8.40004 208.093 8.40004C208.719 8.40004 209.273 8.28671 209.753 8.06004C210.233 7.82004 210.613 7.48671 210.893 7.06004C211.173 6.63337 211.313 6.14004 211.313 5.58004C211.313 5.02004 211.173 4.52671 210.893 4.10004C210.613 3.67337 210.233 3.34671 209.753 3.12004C209.273 2.88004 208.719 2.76004 208.093 2.76004ZM215.313 3.86238e-05H216.973V18.12H215.313V3.86238e-05ZM202.553 14.16L202.333 12.76C203.439 12.76 204.653 12.7534 205.973 12.74C207.293 12.7134 208.653 12.66 210.053 12.58C211.466 12.4867 212.826 12.34 214.133 12.14L214.273 13.36C212.913 13.6134 211.533 13.8 210.133 13.92C208.746 14.0267 207.406 14.0934 206.113 14.12C204.819 14.1467 203.633 14.16 202.553 14.16ZM226.256 14.4H242.656V15.78H226.256V14.4ZM233.616 10.02H235.276V14.86H233.616V10.02ZM233.576 2.30004H234.996V3.40004C234.996 4.14671 234.856 4.85337 234.576 5.52004C234.309 6.17337 233.936 6.78671 233.456 7.36004C232.989 7.92004 232.443 8.42004 231.816 8.86004C231.203 9.28671 230.543 9.66004 229.836 9.98004C229.143 10.2867 228.443 10.5134 227.736 10.66L227.056 9.34004C227.669 9.23337 228.289 9.05337 228.916 8.80004C229.543 8.53337 230.129 8.21337 230.676 7.84004C231.236 7.46671 231.729 7.04671 232.156 6.58004C232.596 6.11337 232.943 5.61337 233.196 5.08004C233.449 4.54671 233.576 3.98671 233.576 3.40004V2.30004ZM233.896 2.30004H235.296V3.40004C235.296 3.98671 235.423 4.54671 235.676 5.08004C235.929 5.60004 236.276 6.09337 236.716 6.56004C237.156 7.02671 237.656 7.44671 238.216 7.82004C238.776 8.18004 239.369 8.48671 239.996 8.74004C240.636 8.99337 241.269 9.16671 241.896 9.26004L241.216 10.58C240.496 10.4334 239.783 10.2134 239.076 9.92004C238.369 9.61337 237.703 9.24671 237.076 8.82004C236.463 8.38004 235.916 7.88671 235.436 7.34004C234.956 6.78004 234.576 6.17337 234.296 5.52004C234.029 4.85337 233.896 4.14671 233.896 3.40004V2.30004ZM227.616 1.64004H241.256V3.02004H227.616V1.64004ZM257.034 3.86238e-05H258.694V10.6H257.034V3.86238e-05ZM258.234 4.58004H261.354V5.98004H258.234V4.58004ZM252.014 1.16004H253.754C253.754 2.68004 253.414 4.05337 252.734 5.28004C252.068 6.49337 251.101 7.53337 249.834 8.40004C248.568 9.26671 247.054 9.94004 245.294 10.42L244.614 9.12004C246.174 8.69337 247.508 8.13337 248.614 7.44004C249.721 6.73337 250.561 5.91337 251.134 4.98004C251.721 4.03337 252.014 3.0067 252.014 1.90004V1.16004ZM245.434 1.16004H252.954V2.50004H245.434V1.16004ZM246.934 11.44H258.694V18.1H257.034V12.8H246.934V11.44ZM264.809 16.6537C264.458 16.6537 264.157 16.5282 263.907 16.2773C263.656 16.0263 263.53 15.7256 263.53 15.3753C263.53 15.0249 263.656 14.7242 263.907 14.4733C264.157 14.2223 264.458 14.0969 264.809 14.0969C265.159 14.0969 265.46 14.2223 265.711 14.4733C265.961 14.7242 266.087 15.0249 266.087 15.3753C266.087 15.6073 266.028 15.8203 265.909 16.0145C265.796 16.2086 265.642 16.3648 265.448 16.4832C265.258 16.5969 265.045 16.6537 264.809 16.6537ZM13.896 30.692H15.912V43.604H13.896V30.692ZM15.336 36.332H19.08V37.988H15.336V36.332ZM8.97597 44.06C10.432 44.06 11.688 44.228 12.744 44.564C13.816 44.884 14.64 45.356 15.216 45.98C15.808 46.588 16.104 47.332 16.104 48.212C16.104 49.076 15.808 49.82 15.216 50.444C14.64 51.068 13.816 51.54 12.744 51.86C11.688 52.196 10.432 52.364 8.97597 52.364C7.50397 52.364 6.23197 52.196 5.15997 51.86C4.08797 51.54 3.26397 51.068 2.68797 50.444C2.11197 49.82 1.82397 49.076 1.82397 48.212C1.82397 47.332 2.11197 46.588 2.68797 45.98C3.26397 45.356 4.08797 44.884 5.15997 44.564C6.23197 44.228 7.50397 44.06 8.97597 44.06ZM8.97597 45.668C7.90397 45.668 6.97597 45.772 6.19197 45.98C5.42397 46.172 4.82397 46.46 4.39197 46.844C3.97597 47.212 3.76797 47.668 3.76797 48.212C3.76797 48.74 3.97597 49.196 4.39197 49.58C4.82397 49.964 5.42397 50.26 6.19197 50.468C6.97597 50.66 7.90397 50.756 8.97597 50.756C10.032 50.756 10.952 50.66 11.736 50.468C12.52 50.26 13.12 49.964 13.536 49.58C13.952 49.196 14.16 48.74 14.16 48.212C14.16 47.668 13.952 47.212 13.536 46.844C13.12 46.46 12.52 46.172 11.736 45.98C10.952 45.772 10.032 45.668 8.97597 45.668ZM-3.40939e-05 40.244H1.67997C3.19997 40.244 4.51997 40.228 5.63997 40.196C6.75997 40.164 7.79197 40.092 8.73597 39.98C9.67997 39.868 10.64 39.716 11.616 39.524L11.832 41.156C10.84 41.348 9.85597 41.5 8.87997 41.612C7.91997 41.708 6.86397 41.78 5.71197 41.828C4.55997 41.86 3.21597 41.876 1.67997 41.876H-3.40939e-05V40.244ZM-3.40939e-05 32.348H9.57597V33.98H1.96797V41.324H-3.40939e-05V32.348ZM36.9101 30.716H38.9021V46.628H36.9101V30.716ZM24.9581 50.3H39.5741V51.932H24.9581V50.3ZM24.9581 45.164H26.9501V51.068H24.9581V45.164ZM26.7581 31.916H28.4141V34.1C28.4141 35.524 28.1661 36.86 27.6701 38.108C27.1741 39.34 26.4701 40.428 25.5581 41.372C24.6621 42.3 23.6061 43.012 22.3901 43.508L21.3341 41.924C22.4381 41.492 23.3901 40.876 24.1901 40.076C25.0061 39.276 25.6381 38.364 26.0861 37.34C26.5341 36.3 26.7581 35.22 26.7581 34.1V31.916ZM27.1181 31.916H28.7741V34.1C28.7741 34.916 28.9021 35.708 29.1581 36.476C29.4141 37.228 29.7821 37.932 30.2621 38.588C30.7421 39.244 31.3101 39.828 31.9661 40.34C32.6381 40.836 33.3741 41.228 34.1741 41.516L33.1421 43.1C31.9421 42.636 30.8861 41.964 29.9741 41.084C29.0781 40.188 28.3741 39.148 27.8621 37.964C27.3661 36.764 27.1181 35.476 27.1181 34.1V31.916ZM50.2282 32.276C51.3642 32.276 52.3642 32.492 53.2282 32.924C54.1082 33.34 54.7962 33.932 55.2922 34.7C55.7882 35.468 56.0362 36.364 56.0362 37.388C56.0362 38.396 55.7882 39.292 55.2922 40.076C54.7962 40.844 54.1082 41.444 53.2282 41.876C52.3642 42.292 51.3642 42.5 50.2282 42.5C49.1082 42.5 48.1082 42.292 47.2282 41.876C46.3482 41.444 45.6522 40.844 45.1402 40.076C44.6442 39.292 44.3962 38.396 44.3962 37.388C44.3962 36.364 44.6442 35.468 45.1402 34.7C45.6522 33.932 46.3482 33.34 47.2282 32.924C48.1082 32.492 49.1082 32.276 50.2282 32.276ZM50.2282 34.004C49.4922 34.004 48.8282 34.148 48.2362 34.436C47.6602 34.708 47.2042 35.1 46.8682 35.612C46.5322 36.124 46.3642 36.716 46.3642 37.388C46.3642 38.06 46.5322 38.652 46.8682 39.164C47.2042 39.676 47.6602 40.076 48.2362 40.364C48.8282 40.636 49.4922 40.772 50.2282 40.772C50.9802 40.772 51.6442 40.636 52.2202 40.364C52.7962 40.076 53.2522 39.676 53.5882 39.164C53.9242 38.652 54.0922 38.06 54.0922 37.388C54.0922 36.716 53.9242 36.124 53.5882 35.612C53.2522 35.1 52.7962 34.708 52.2202 34.436C51.6442 34.148 50.9802 34.004 50.2282 34.004ZM58.8922 30.692H60.8842V52.436H58.8922V30.692ZM43.5802 47.684L43.3162 46.004C44.6442 46.004 46.1002 45.996 47.6842 45.98C49.2682 45.948 50.9002 45.884 52.5802 45.788C54.2762 45.676 55.9082 45.5 57.4762 45.26L57.6442 46.724C56.0122 47.028 54.3562 47.252 52.6762 47.396C51.0122 47.524 49.4042 47.604 47.8522 47.636C46.3002 47.668 44.8762 47.684 43.5802 47.684ZM87.7923 30.692H89.7843V52.436H87.7923V30.692ZM78.3363 32.372C79.4083 32.372 80.3523 32.684 81.1683 33.308C82.0003 33.916 82.6483 34.788 83.1123 35.924C83.5923 37.06 83.8323 38.396 83.8323 39.932C83.8323 41.468 83.5923 42.804 83.1123 43.94C82.6483 45.076 82.0003 45.956 81.1683 46.58C80.3523 47.204 79.4083 47.516 78.3363 47.516C77.2643 47.516 76.3123 47.204 75.4803 46.58C74.6483 45.956 73.9923 45.076 73.5123 43.94C73.0483 42.804 72.8163 41.468 72.8163 39.932C72.8163 38.396 73.0483 37.06 73.5123 35.924C73.9923 34.788 74.6483 33.916 75.4803 33.308C76.3123 32.684 77.2643 32.372 78.3363 32.372ZM78.3363 34.148C77.6163 34.148 76.9843 34.388 76.4403 34.868C75.9123 35.332 75.4963 36.004 75.1923 36.884C74.8883 37.748 74.7363 38.764 74.7363 39.932C74.7363 41.1 74.8883 42.124 75.1923 43.004C75.4963 43.868 75.9123 44.54 76.4403 45.02C76.9843 45.5 77.6163 45.74 78.3363 45.74C79.0403 45.74 79.6563 45.5 80.1843 45.02C80.7283 44.54 81.1523 43.868 81.4563 43.004C81.7603 42.124 81.9123 41.1 81.9123 39.932C81.9123 38.764 81.7603 37.748 81.4563 36.884C81.1523 36.004 80.7283 35.332 80.1843 34.868C79.6563 34.388 79.0403 34.148 78.3363 34.148ZM99.8625 32.372C100.934 32.372 101.878 32.684 102.694 33.308C103.51 33.916 104.15 34.788 104.614 35.924C105.078 37.06 105.31 38.396 105.31 39.932C105.31 41.468 105.078 42.804 104.614 43.94C104.15 45.076 103.51 45.956 102.694 46.58C101.878 47.204 100.934 47.516 99.8625 47.516C98.8065 47.516 97.8625 47.204 97.0305 46.58C96.2145 45.956 95.5745 45.076 95.1105 43.94C94.6465 42.804 94.4145 41.468 94.4145 39.932C94.4145 38.396 94.6465 37.06 95.1105 35.924C95.5745 34.788 96.2145 33.916 97.0305 33.308C97.8625 32.684 98.8065 32.372 99.8625 32.372ZM99.8625 34.148C99.1745 34.148 98.5585 34.388 98.0145 34.868C97.4865 35.332 97.0705 36.004 96.7665 36.884C96.4625 37.748 96.3105 38.764 96.3105 39.932C96.3105 41.1 96.4625 42.124 96.7665 43.004C97.0705 43.868 97.4865 44.54 98.0145 45.02C98.5585 45.5 99.1825 45.74 99.8865 45.74C100.574 45.74 101.182 45.5 101.71 45.02C102.254 44.54 102.67 43.868 102.958 43.004C103.262 42.124 103.414 41.1 103.414 39.932C103.414 38.764 103.262 37.748 102.958 36.884C102.67 36.004 102.254 35.332 101.71 34.868C101.182 34.388 100.566 34.148 99.8625 34.148ZM110.23 36.14H114.238V37.82H110.23V36.14ZM110.23 42.62H114.238V44.276H110.23V42.62ZM108.79 30.692H110.782V52.412H108.79V30.692ZM131.997 30.692H133.989V52.412H131.997V30.692ZM125.637 33.044H127.605C127.605 34.612 127.413 36.124 127.029 37.58C126.661 39.036 126.077 40.42 125.277 41.732C124.477 43.028 123.437 44.236 122.157 45.356C120.877 46.476 119.325 47.476 117.501 48.356L116.445 46.748C118.541 45.74 120.269 44.564 121.629 43.22C122.989 41.876 123.997 40.38 124.653 38.732C125.309 37.068 125.637 35.276 125.637 33.356V33.044ZM117.453 33.044H126.477V34.652H117.453V33.044ZM138.235 40.772H157.915V42.308H138.235V40.772ZM140.587 44.036H155.467V48.668H142.603V51.212H140.635V47.3H153.499V45.476H140.587V44.036ZM140.635 50.684H156.163V52.124H140.635V50.684ZM140.731 31.34H155.395V35.852H142.747V38.204H140.779V34.508H153.427V32.756H140.731V31.34ZM140.779 37.724H155.779V39.164H140.779V37.724ZM181.943 30.716H183.935V42.98H181.943V30.716ZM183.407 35.684H187.151V37.34H183.407V35.684ZM170.255 44.156H183.935V52.1H170.255V44.156ZM181.991 45.74H172.199V50.492H181.991V45.74ZM168.119 31.796H170.111V40.484H168.119V31.796ZM168.119 39.668H169.847C171.415 39.668 173.015 39.604 174.647 39.476C176.279 39.332 177.975 39.076 179.735 38.708L179.975 40.364C178.151 40.732 176.407 40.988 174.743 41.132C173.095 41.26 171.463 41.324 169.847 41.324H168.119V39.668ZM198.141 33.044H200.085C200.085 34.58 199.901 36.076 199.533 37.532C199.181 38.972 198.613 40.348 197.829 41.66C197.061 42.972 196.045 44.188 194.781 45.308C193.533 46.428 192.013 47.428 190.221 48.308L189.165 46.724C191.229 45.7 192.917 44.516 194.229 43.172C195.557 41.828 196.541 40.332 197.181 38.684C197.821 37.036 198.141 35.26 198.141 33.356V33.044ZM190.101 33.044H199.125V34.652H190.101V33.044ZM205.029 30.668H206.997V52.388H205.029V30.668ZM199.269 36.644H205.413V38.252H199.269V36.644ZM199.029 42.452H205.197V44.084H199.029V42.452ZM219.931 32.852H221.659V33.764C221.659 34.532 221.507 35.26 221.203 35.948C220.899 36.636 220.475 37.276 219.931 37.868C219.387 38.444 218.755 38.956 218.035 39.404C217.315 39.852 216.539 40.236 215.707 40.556C214.891 40.86 214.043 41.084 213.163 41.228L212.395 39.644C213.163 39.548 213.907 39.372 214.627 39.116C215.363 38.844 216.051 38.524 216.691 38.156C217.331 37.788 217.891 37.372 218.371 36.908C218.867 36.444 219.251 35.948 219.523 35.42C219.795 34.876 219.931 34.324 219.931 33.764V32.852ZM220.435 32.852H222.163V33.764C222.163 34.324 222.299 34.876 222.571 35.42C222.843 35.948 223.219 36.444 223.699 36.908C224.195 37.372 224.763 37.788 225.403 38.156C226.043 38.524 226.723 38.844 227.443 39.116C228.179 39.372 228.931 39.548 229.699 39.644L228.955 41.228C228.075 41.084 227.219 40.86 226.387 40.556C225.555 40.236 224.779 39.852 224.059 39.404C223.339 38.956 222.707 38.444 222.163 37.868C221.619 37.276 221.195 36.636 220.891 35.948C220.587 35.26 220.435 34.532 220.435 33.764V32.852ZM220.027 44.132H221.995V52.388H220.027V44.132ZM211.243 43.052H230.851V44.684H211.243V43.052ZM213.091 32.036H228.979V33.644H213.091V32.036ZM241.865 38.468H246.041V40.124H241.865V38.468ZM237.833 32.732H239.393V36.884C239.393 38.004 239.273 39.108 239.033 40.196C238.809 41.284 238.473 42.308 238.025 43.268C237.593 44.228 237.065 45.092 236.441 45.86C235.817 46.628 235.113 47.252 234.329 47.732L233.081 46.244C233.817 45.796 234.481 45.236 235.073 44.564C235.665 43.892 236.161 43.14 236.561 42.308C236.977 41.46 237.289 40.58 237.497 39.668C237.721 38.74 237.833 37.812 237.833 36.884V32.732ZM238.217 32.732H239.753V36.812C239.753 37.676 239.849 38.548 240.041 39.428C240.249 40.292 240.537 41.124 240.905 41.924C241.289 42.708 241.761 43.428 242.321 44.084C242.881 44.74 243.513 45.284 244.217 45.716L243.089 47.252C242.305 46.772 241.609 46.164 241.001 45.428C240.393 44.676 239.881 43.836 239.465 42.908C239.049 41.964 238.737 40.972 238.529 39.932C238.321 38.892 238.217 37.852 238.217 36.812V32.732ZM249.857 30.692H251.777V52.412H249.857V30.692ZM245.441 31.148H247.313V51.308H245.441V31.148ZM260.223 41.876H262.191V48.356H260.223V41.876ZM268.239 41.876H270.231V48.356H268.239V41.876ZM255.399 47.972H275.079V49.628H255.399V47.972ZM265.191 32.06C266.727 32.06 268.087 32.292 269.271 32.756C270.455 33.22 271.383 33.868 272.055 34.7C272.743 35.532 273.087 36.516 273.087 37.652C273.087 38.772 272.743 39.756 272.055 40.604C271.383 41.436 270.455 42.084 269.271 42.548C268.087 42.996 266.727 43.22 265.191 43.22C263.671 43.22 262.311 42.996 261.111 42.548C259.927 42.084 258.999 41.436 258.327 40.604C257.655 39.756 257.319 38.772 257.319 37.652C257.319 36.516 257.655 35.532 258.327 34.7C258.999 33.868 259.927 33.22 261.111 32.756C262.311 32.292 263.671 32.06 265.191 32.06ZM265.191 33.644C264.039 33.644 263.015 33.812 262.119 34.148C261.223 34.484 260.519 34.956 260.007 35.564C259.495 36.156 259.239 36.852 259.239 37.652C259.239 38.452 259.495 39.156 260.007 39.764C260.519 40.356 261.223 40.82 262.119 41.156C263.015 41.492 264.039 41.66 265.191 41.66C266.359 41.66 267.391 41.492 268.287 41.156C269.183 40.82 269.887 40.356 270.399 39.764C270.911 39.156 271.167 38.452 271.167 37.652C271.167 36.852 270.911 36.156 270.399 35.564C269.887 34.956 269.183 34.484 268.287 34.148C267.391 33.812 266.359 33.644 265.191 33.644ZM279.584 50.6764C279.164 50.6764 278.803 50.5258 278.502 50.2247C278.201 49.9236 278.05 49.5628 278.05 49.1423C278.05 48.7219 278.201 48.3611 278.502 48.0599C278.803 47.7588 279.164 47.6082 279.584 47.6082C280.005 47.6082 280.366 47.7588 280.667 48.0599C280.968 48.3611 281.118 48.7219 281.118 49.1423C281.118 49.4207 281.047 49.6764 280.905 49.9094C280.769 50.1423 280.584 50.3298 280.351 50.4719C280.124 50.6082 279.868 50.6764 279.584 50.6764Z" fill="black"/>
</svg>
