<svg width="161" height="43" viewBox="0 0 161 43" fill="none" xmlns="http://www.w3.org/2000/svg">
<rect x="0.668701" y="0.320557" width="159.826" height="42.4243" rx="21.2122" fill="#F3F3F3"/>
<path d="M30.4568 26.9836C27.842 26.9836 26.2459 24.9971 26.2459 22.2295C26.2459 19.4279 27.9099 17.4583 30.4228 17.4583C32.3924 17.4583 33.8526 18.6129 34.0903 20.3618H32.6301C32.4264 19.5128 31.6793 18.7487 30.4568 18.7487C28.8098 18.7487 27.7062 20.1071 27.7062 22.1785C27.7062 24.3179 28.7758 25.6762 30.4568 25.6762C31.5434 25.6762 32.3754 25.099 32.6301 24.0802H34.0903C33.8526 25.7272 32.5113 26.9836 30.4568 26.9836ZM39.6595 26.9836C37.1466 26.9836 35.4487 25.099 35.4487 22.2295C35.4487 19.36 37.1466 17.4583 39.6595 17.4583C42.1554 17.4583 43.8364 19.36 43.8364 22.2295C43.8364 25.099 42.1554 26.9836 39.6595 26.9836ZM39.6595 25.6932C41.5102 25.6932 42.3762 24.0632 42.3762 22.2295C42.3762 20.3957 41.5102 18.7487 39.6595 18.7487C37.7748 18.7487 36.9089 20.3957 36.9089 22.2295C36.9089 24.0632 37.7748 25.6932 39.6595 25.6932ZM47.2152 21.2617V26.7969H45.755V17.5772H47.1643V19.0204H47.2832C47.7246 18.0865 48.5736 17.4583 49.9829 17.4583C51.8506 17.4583 53.0901 18.5959 53.0901 20.9391V26.7969H51.6298V21.0409C51.6298 19.6147 50.8488 18.7657 49.5414 18.7657C48.2 18.7657 47.2152 19.6656 47.2152 21.2617ZM56.8934 21.2617V26.7969H55.4332V17.5772H56.8425V19.0204H56.9613C57.4028 18.0865 58.2517 17.4583 59.661 17.4583C61.5287 17.4583 62.7682 18.5959 62.7682 20.9391V26.7969H61.308V21.0409C61.308 19.6147 60.5269 18.7657 59.2195 18.7657C57.8782 18.7657 56.8934 19.6656 56.8934 21.2617ZM68.9826 26.9836C66.3168 26.9836 64.6699 25.099 64.6699 22.2634C64.6699 19.4279 66.3338 17.4583 68.8467 17.4583C70.7824 17.4583 72.8199 18.6469 72.8199 22.0597V22.6709H66.1301C66.198 24.6235 67.3356 25.6932 68.9826 25.6932C70.0862 25.6932 70.7824 25.2178 71.122 24.6405H72.684C72.2426 26.0328 70.8842 26.9836 68.9826 26.9836ZM66.1471 21.4314H71.3427C71.3427 19.8863 70.3579 18.7487 68.8467 18.7487C67.2507 18.7487 66.2319 20.0052 66.1471 21.4314ZM78.4909 26.9836C75.8761 26.9836 74.2801 24.9971 74.2801 22.2295C74.2801 19.4279 75.9441 17.4583 78.457 17.4583C80.4266 17.4583 81.8868 18.6129 82.1245 20.3618H80.6643C80.4605 19.5128 79.7134 18.7487 78.4909 18.7487C76.8439 18.7487 75.7403 20.1071 75.7403 22.1785C75.7403 24.3179 76.81 25.6762 78.4909 25.6762C79.5776 25.6762 80.4096 25.099 80.6643 24.0802H82.1245C81.8868 25.7272 80.5454 26.9836 78.4909 26.9836ZM87.9483 17.5772V18.7997H86.0127V24.1481C86.0127 25.3367 86.59 25.5234 87.2182 25.5234C87.4899 25.5234 87.8634 25.5065 88.0842 25.4895V26.8478C87.8634 26.8818 87.4899 26.9157 87.0654 26.9157C85.8429 26.9157 84.5355 26.1517 84.5355 24.5217V18.7997H83.1432V17.5772H84.5355V15.3699H86.0127V17.5772H87.9483ZM89.833 26.7969V17.5772H91.2932V26.7969H89.833ZM90.5631 16.049C90.0028 16.049 89.5444 15.6246 89.5444 15.0812C89.5444 14.5379 90.0028 14.1134 90.5631 14.1134C91.1235 14.1134 91.5989 14.5379 91.5989 15.0812C91.5989 15.6246 91.1235 16.049 90.5631 16.049ZM97.3888 26.9836C94.8759 26.9836 93.1779 25.099 93.1779 22.2295C93.1779 19.36 94.8759 17.4583 97.3888 17.4583C99.8847 17.4583 101.566 19.36 101.566 22.2295C101.566 25.099 99.8847 26.9836 97.3888 26.9836ZM97.3888 25.6932C99.2395 25.6932 100.105 24.0632 100.105 22.2295C100.105 20.3957 99.2395 18.7487 97.3888 18.7487C95.5041 18.7487 94.6381 20.3957 94.6381 22.2295C94.6381 24.0632 95.5041 25.6932 97.3888 25.6932ZM104.945 21.2617V26.7969H103.484V17.5772H104.894V19.0204H105.012C105.454 18.0865 106.303 17.4583 107.712 17.4583C109.58 17.4583 110.819 18.5959 110.819 20.9391V26.7969H109.359V21.0409C109.359 19.6147 108.578 18.7657 107.271 18.7657C105.929 18.7657 104.945 19.6656 104.945 21.2617Z" fill="#595B5A"/>
<path d="M138.166 15.2302H127.964C127.755 15.2302 127.554 15.1472 127.407 14.9995C127.259 14.8517 127.176 14.6513 127.176 14.4424C127.176 14.2334 127.259 14.033 127.407 13.8853C127.554 13.7375 127.755 13.6545 127.964 13.6545H138.954C139.163 13.6545 139.363 13.7375 139.511 13.8853C139.659 14.033 139.742 14.2334 139.742 14.4424V25.4721C139.742 25.681 139.659 25.8814 139.511 26.0291C139.363 26.1769 139.163 26.2599 138.954 26.2599C138.745 26.2599 138.545 26.1769 138.397 26.0291C138.249 25.8814 138.166 25.681 138.166 25.4721V15.2302Z" fill="#595B5A"/>
<path d="M138.396 13.8849C138.544 13.7369 138.745 13.6538 138.954 13.6538C139.163 13.6538 139.364 13.7369 139.512 13.8849C139.66 14.0328 139.743 14.2334 139.743 14.4426C139.743 14.6518 139.66 14.8525 139.512 15.0004L126.119 28.3936C126.045 28.4669 125.958 28.525 125.863 28.5646C125.767 28.6043 125.664 28.6247 125.561 28.6247C125.457 28.6247 125.355 28.6043 125.259 28.5646C125.163 28.525 125.076 28.4669 125.003 28.3936C124.93 28.3204 124.872 28.2334 124.832 28.1377C124.792 28.042 124.772 27.9394 124.772 27.8358C124.772 27.7322 124.792 27.6297 124.832 27.534C124.872 27.4383 124.93 27.3513 125.003 27.278L138.396 13.8849Z" fill="#595B5A"/>
</svg>
