<svg width="108" height="23" viewBox="0 0 108 23" fill="none" xmlns="http://www.w3.org/2000/svg">
<path d="M7.16281 0.868065C8.36281 0.868065 9.44948 1.09473 10.4228 1.54807C11.3961 2.0014 12.1695 2.63473 12.7428 3.44807C13.3295 4.24807 13.6495 5.1614 13.7028 6.18807H9.94281C9.83615 5.46807 9.52281 4.90807 9.00281 4.50807C8.48281 4.10807 7.78948 3.90807 6.92281 3.90807C6.09615 3.90807 5.44948 4.0614 4.98281 4.36807C4.51615 4.6614 4.28281 5.0614 4.28281 5.56807C4.28281 5.96807 4.42948 6.29473 4.72281 6.54807C5.01615 6.8014 5.46281 7.02807 6.06281 7.22807C6.67615 7.41473 7.56281 7.62807 8.72281 7.86807C10.5228 8.2414 11.8095 8.8614 12.5828 9.72807C13.3695 10.5814 13.7628 11.6547 13.7628 12.9481C13.7628 13.9614 13.4695 14.8481 12.8828 15.6081C12.3095 16.3681 11.5228 16.9481 10.5228 17.3481C9.52281 17.7614 8.40948 17.9681 7.18281 17.9681C5.84948 17.9681 4.64948 17.7347 3.58281 17.2681C2.52948 16.8147 1.68948 16.1614 1.06281 15.3081C0.449479 14.4547 0.116146 13.4547 0.0628125 12.3081H3.80281C3.90948 13.0947 4.28281 13.7281 4.92281 14.2081C5.57615 14.6747 6.41615 14.9081 7.44281 14.9081C8.18948 14.9081 8.80281 14.7414 9.28281 14.4081C9.77615 14.0747 10.0228 13.6414 10.0228 13.1081C10.0228 12.6814 9.88948 12.3281 9.62281 12.0481C9.36948 11.7681 8.95615 11.5281 8.38281 11.3281C7.82281 11.1281 7.03615 10.9347 6.02281 10.7481C4.19615 10.4014 2.82948 9.8214 1.92281 9.00807C1.01615 8.19473 0.562813 7.04807 0.562813 5.56807C0.562813 4.60807 0.849479 3.77473 1.42281 3.06807C2.00948 2.3614 2.80281 1.8214 3.80281 1.44807C4.80281 1.0614 5.92281 0.868065 7.16281 0.868065ZM22.9809 8.90807H20.6609V17.5681H17.1009V8.90807H14.7809V5.84807H17.1009V2.36807H20.6609V5.84807H22.9809V8.90807ZM29.4947 17.8481C28.388 17.8481 27.4014 17.5814 26.5347 17.0481C25.668 16.5281 24.9947 15.8014 24.5147 14.8681C24.0347 13.9347 23.7947 12.8814 23.7947 11.7081C23.7947 10.5347 24.0347 9.4814 24.5147 8.54807C24.9947 7.61473 25.668 6.88807 26.5347 6.36807C27.4014 5.83473 28.388 5.56807 29.4947 5.56807C31.0014 5.56807 32.1214 6.0614 32.8547 7.04807V5.84807H36.4147V17.5681H32.8547V16.3681C32.1214 17.3547 31.0014 17.8481 29.4947 17.8481ZM30.0547 14.8081C30.9214 14.8081 31.6147 14.5214 32.1347 13.9481C32.6547 13.3614 32.9147 12.6147 32.9147 11.7081C32.9147 10.8014 32.6547 10.0614 32.1347 9.48807C31.6147 8.9014 30.9214 8.60807 30.0547 8.60807C29.2147 8.60807 28.5414 8.9014 28.0347 9.48807C27.528 10.0614 27.2747 10.8014 27.2747 11.7081C27.2747 12.6147 27.528 13.3614 28.0347 13.9481C28.5414 14.5214 29.2147 14.8081 30.0547 14.8081ZM39.1017 5.84807H42.6617V7.04807C43.3951 6.0614 44.4884 5.56807 45.9417 5.56807C46.5817 5.56807 47.0951 5.63473 47.4817 5.76807L47.5217 9.10807C47.0151 8.8414 46.4084 8.70807 45.7017 8.70807C44.7551 8.70807 44.0084 8.9614 43.4617 9.46807C42.9284 9.97473 42.6617 10.6747 42.6617 11.5681V17.5681H39.1017V5.84807ZM68.2444 4.48807H62.9444V17.5681H59.3044V4.48807H54.0044V1.26807H68.2444V4.48807ZM72.7009 17.8481C71.7943 17.8481 70.9943 17.6347 70.3009 17.2081C69.6076 16.7947 69.0676 16.1947 68.6809 15.4081C68.3076 14.6214 68.1209 13.6947 68.1209 12.6281V5.84807H71.6809V12.0281C71.6809 12.9214 71.8543 13.6081 72.2009 14.0881C72.5609 14.5547 73.0743 14.7881 73.7409 14.7881C74.4343 14.7881 74.9809 14.5281 75.3809 14.0081C75.7809 13.4881 75.9809 12.7747 75.9809 11.8681V5.84807H79.5409V17.5681H75.9809V16.3681C75.2476 17.3547 74.1543 17.8481 72.7009 17.8481ZM85.7867 17.5681H82.2267V0.768065H85.7867V17.5681ZM90.2372 0.188066C90.8639 0.188066 91.3839 0.394732 91.7972 0.808066C92.2105 1.2214 92.4172 1.7414 92.4172 2.36807C92.4172 2.99473 92.2105 3.51473 91.7972 3.92807C91.3839 4.3414 90.8639 4.54807 90.2372 4.54807C89.6105 4.54807 89.0905 4.3414 88.6772 3.92807C88.2639 3.51473 88.0572 2.99473 88.0572 2.36807C88.0572 1.7414 88.2639 1.2214 88.6772 0.808066C89.0905 0.394732 89.6105 0.188066 90.2372 0.188066ZM92.0172 17.6081H88.4572V5.84807H92.0172V17.6081ZM94.6877 5.84807H98.2477V7.04807C98.981 6.0614 100.101 5.56807 101.608 5.56807C102.714 5.56807 103.701 5.83473 104.568 6.36807C105.434 6.88807 106.108 7.61473 106.588 8.54807C107.068 9.4814 107.308 10.5347 107.308 11.7081C107.308 12.8814 107.068 13.9347 106.588 14.8681C106.108 15.8014 105.434 16.5281 104.568 17.0481C103.701 17.5814 102.714 17.8481 101.608 17.8481C100.101 17.8481 98.981 17.3547 98.2477 16.3681V22.4481H94.6877V5.84807ZM101.048 14.8081C101.888 14.8081 102.561 14.5214 103.068 13.9481C103.574 13.3614 103.828 12.6147 103.828 11.7081C103.828 10.8014 103.574 10.0614 103.068 9.48807C102.561 8.9014 101.888 8.60807 101.048 8.60807C100.181 8.60807 99.4877 8.9014 98.9677 9.48807C98.4477 10.0614 98.1877 10.8014 98.1877 11.7081C98.1877 12.6147 98.4477 13.3614 98.9677 13.9481C99.4877 14.5214 100.181 14.8081 101.048 14.8081Z" fill="#1A1A1A"/>
</svg>
