<svg width="103" height="23" viewBox="0 0 103 23" fill="none" xmlns="http://www.w3.org/2000/svg">
<path d="M6.7577 1.19017C7.9177 1.19017 8.96436 1.39684 9.8977 1.81018C10.831 2.21017 11.5777 2.77684 12.1377 3.51017C12.6977 4.24351 13.011 5.07018 13.0777 5.99018H10.9177C10.7977 5.11018 10.3577 4.39018 9.5977 3.83018C8.85103 3.27018 7.87103 2.99018 6.6577 2.99018C5.43103 2.99018 4.46436 3.22351 3.7577 3.69017C3.06436 4.14351 2.7177 4.73684 2.7177 5.47018C2.7177 6.01684 2.88436 6.47684 3.2177 6.85018C3.55103 7.21018 4.06436 7.52351 4.7577 7.79018C5.46436 8.05684 6.4177 8.31684 7.6177 8.57018C9.55103 8.98351 10.951 9.57684 11.8177 10.3502C12.6977 11.1102 13.1377 12.0968 13.1377 13.3102C13.1377 14.2435 12.8577 15.0635 12.2977 15.7702C11.7377 16.4635 10.971 16.9968 9.9977 17.3702C9.02436 17.7568 7.94436 17.9502 6.7577 17.9502C5.5177 17.9502 4.40436 17.7368 3.4177 17.3102C2.44436 16.8835 1.66436 16.2835 1.0777 15.5102C0.491029 14.7368 0.164362 13.8368 0.0976953 12.8102H2.2577C2.36436 13.7968 2.83103 14.5968 3.6577 15.2102C4.4977 15.8235 5.5777 16.1302 6.8977 16.1302C7.68436 16.1302 8.39103 16.0168 9.0177 15.7902C9.64436 15.5635 10.131 15.2435 10.4777 14.8302C10.8244 14.4168 10.9977 13.9502 10.9977 13.4302C10.9977 12.8435 10.831 12.3568 10.4977 11.9702C10.1644 11.5835 9.64436 11.2568 8.9377 10.9902C8.24436 10.7102 7.28436 10.4435 6.0577 10.1902C4.19103 9.80351 2.81103 9.24351 1.9177 8.51018C1.0377 7.77684 0.597695 6.76351 0.597695 5.47018C0.597695 4.60351 0.857695 3.85018 1.3777 3.21018C1.91103 2.55684 2.64436 2.05684 3.5777 1.71018C4.51103 1.36351 5.57103 1.19017 6.7577 1.19017ZM21.6991 7.97018H19.1591V17.5902H17.0991V7.97018H14.5591V6.15018H17.0991V2.67017H19.1591V6.15018H21.6991V7.97018ZM28.513 17.8702C27.4463 17.8702 26.4797 17.6102 25.613 17.0902C24.7597 16.5702 24.0863 15.8502 23.593 14.9302C23.0997 14.0102 22.853 12.9902 22.853 11.8702C22.853 10.7502 23.0997 9.73018 23.593 8.81018C24.0863 7.89018 24.7597 7.17018 25.613 6.65018C26.4797 6.13018 27.4463 5.87018 28.513 5.87018C29.4863 5.87018 30.3263 6.06351 31.033 6.45018C31.7397 6.83684 32.253 7.30351 32.573 7.85018V6.15018H34.633V17.5902H32.573V15.8902C32.253 16.4368 31.7397 16.9035 31.033 17.2902C30.3263 17.6768 29.4863 17.8702 28.513 17.8702ZM28.693 16.0502C29.453 16.0502 30.1263 15.8702 30.713 15.5102C31.313 15.1368 31.7797 14.6368 32.113 14.0102C32.4463 13.3702 32.613 12.6568 32.613 11.8702C32.613 11.0835 32.4463 10.3768 32.113 9.75018C31.7797 9.11018 31.313 8.61018 30.713 8.25018C30.1263 7.87684 29.453 7.69018 28.693 7.69018C27.9463 7.69018 27.2797 7.87018 26.693 8.23018C26.1197 8.59018 25.673 9.09018 25.353 9.73018C25.033 10.3702 24.873 11.0835 24.873 11.8702C24.873 12.6568 25.033 13.3702 25.353 14.0102C25.673 14.6502 26.1197 15.1502 26.693 15.5102C27.2797 15.8702 27.9463 16.0502 28.693 16.0502ZM39.9271 6.15018V7.91018C40.2337 7.39018 40.7404 6.92351 41.4471 6.51018C42.1671 6.08351 43.0337 5.87018 44.0471 5.87018C44.7004 5.87018 45.2204 5.93684 45.6071 6.07018V8.03018C45.1404 7.81684 44.5737 7.71018 43.9071 7.71018C43.1471 7.71018 42.4604 7.89684 41.8471 8.27018C41.2471 8.63018 40.7737 9.11684 40.4271 9.73018C40.0937 10.3302 39.9271 10.9768 39.9271 11.6702V17.5902H37.8671V6.15018H39.9271ZM60.2577 3.45018V17.5902H58.1577V3.45018H52.3977V1.57017H65.9977V3.45018H60.2577ZM74.798 17.5902V15.8502C74.5047 16.3702 74.018 16.8368 73.338 17.2502C72.6713 17.6635 71.8647 17.8702 70.918 17.8702C70.0247 17.8702 69.2247 17.6635 68.518 17.2502C67.8247 16.8368 67.2847 16.2568 66.898 15.5102C66.5113 14.7502 66.318 13.8635 66.318 12.8502V6.15018H68.378V12.4902C68.378 13.6368 68.638 14.5235 69.158 15.1502C69.6913 15.7635 70.4247 16.0702 71.358 16.0702C72.0113 16.0702 72.598 15.8902 73.118 15.5302C73.638 15.1568 74.0447 14.6635 74.338 14.0502C74.6447 13.4368 74.798 12.7768 74.798 12.0702V6.15018H76.858V17.5902H74.798ZM80.0936 17.5902V1.07018H82.1536V17.5902H80.0936ZM86.4066 0.870175C86.8066 0.870175 87.1333 1.00351 87.3866 1.27017C87.6533 1.52351 87.7866 1.84351 87.7866 2.23017C87.7866 2.61684 87.6533 2.94351 87.3866 3.21018C87.1333 3.46351 86.8066 3.59017 86.4066 3.59017C86.0199 3.59017 85.6933 3.46351 85.4266 3.21018C85.1733 2.94351 85.0466 2.61684 85.0466 2.23017C85.0466 1.84351 85.1733 1.52351 85.4266 1.27017C85.6933 1.00351 86.0199 0.870175 86.4066 0.870175ZM85.3866 17.6102V6.15018H87.4466V17.6102H85.3866ZM96.7996 17.8702C95.8262 17.8702 94.9862 17.6768 94.2796 17.2902C93.5729 16.9035 93.0596 16.4368 92.7396 15.8902V22.4502H90.6796V6.15018H92.7396V7.85018C93.0596 7.30351 93.5729 6.83684 94.2796 6.45018C94.9862 6.06351 95.8262 5.87018 96.7996 5.87018C97.8662 5.87018 98.8262 6.13018 99.6796 6.65018C100.546 7.17018 101.226 7.89018 101.72 8.81018C102.213 9.73018 102.46 10.7502 102.46 11.8702C102.46 12.9902 102.213 14.0102 101.72 14.9302C101.226 15.8502 100.546 16.5702 99.6796 17.0902C98.8262 17.6102 97.8662 17.8702 96.7996 17.8702ZM96.6196 16.0502C97.3662 16.0502 98.0262 15.8702 98.5996 15.5102C99.1862 15.1502 99.6396 14.6502 99.9596 14.0102C100.28 13.3702 100.44 12.6568 100.44 11.8702C100.44 11.0835 100.28 10.3702 99.9596 9.73018C99.6396 9.09018 99.1862 8.59018 98.5996 8.23018C98.0262 7.87018 97.3662 7.69018 96.6196 7.69018C95.8596 7.69018 95.1796 7.87684 94.5796 8.25018C93.9929 8.61018 93.5329 9.11018 93.1996 9.75018C92.8662 10.3768 92.6996 11.0835 92.6996 11.8702C92.6996 12.6568 92.8662 13.3702 93.1996 14.0102C93.5329 14.6368 93.9929 15.1368 94.5796 15.5102C95.1796 15.8702 95.8596 16.0502 96.6196 16.0502Z" fill="#1A1A1A"/>
</svg>
