<svg width="466" height="34" viewBox="0 0 466 34" fill="none" xmlns="http://www.w3.org/2000/svg">
<path d="M7.11978 33.0815C4.98378 30.7775 3.32778 28.3055 2.15178 25.6655C0.999775 23.0255 0.423775 20.1455 0.423775 17.0255C0.423775 13.9055 0.999775 11.0255 2.15178 8.38545C3.32778 5.74545 4.98378 3.27345 7.11978 0.969452H11.1158C8.93178 3.20145 7.21578 5.67345 5.96778 8.38545C4.71978 11.0975 4.09578 13.9775 4.09578 17.0255C4.09578 20.0735 4.71978 22.9535 5.96778 25.6655C7.21578 28.3775 8.93178 30.8495 11.1158 33.0815H7.11978ZM27.4381 6.22545V31.6775H23.6581V6.22545H13.2901V2.84145H37.7701V6.22545H27.4381ZM42.593 11.0855V14.2535C43.145 13.3175 44.057 12.4775 45.329 11.7335C46.625 10.9655 48.185 10.5815 50.009 10.5815C51.185 10.5815 52.121 10.7015 52.817 10.9415V14.4695C51.977 14.0855 50.957 13.8935 49.757 13.8935C48.389 13.8935 47.153 14.2295 46.049 14.9015C44.969 15.5495 44.117 16.4255 43.493 17.5295C42.893 18.6095 42.593 19.7735 42.593 21.0215V31.6775H38.885V11.0855H42.593ZM71.2943 31.6775V28.5455C70.7663 29.4815 69.8903 30.3215 68.6663 31.0655C67.4663 31.8095 66.0143 32.1815 64.3103 32.1815C62.7023 32.1815 61.2623 31.8095 59.9903 31.0655C58.7423 30.3215 57.7703 29.2775 57.0743 27.9335C56.3783 26.5655 56.0303 24.9695 56.0303 23.1455V11.0855H59.7383V22.4975C59.7383 24.5615 60.2063 26.1575 61.1423 27.2855C62.1023 28.3895 63.4223 28.9415 65.1023 28.9415C66.2783 28.9415 67.3343 28.6175 68.2703 27.9695C69.2063 27.2975 69.9383 26.4095 70.4663 25.3055C71.0183 24.2015 71.2943 23.0135 71.2943 21.7415V11.0855H75.0023V31.6775H71.2943ZM88.9264 10.5815C90.5824 10.5815 92.0824 10.8455 93.4264 11.3735C94.7704 11.8775 95.8384 12.5855 96.6304 13.4975C97.4464 14.3855 97.8784 15.4055 97.9264 16.5575H94.2904C94.2184 15.6935 93.6664 14.9855 92.6344 14.4335C91.6024 13.8815 90.3304 13.6055 88.8184 13.6055C87.3304 13.6055 86.0944 13.8695 85.1104 14.3975C84.1504 14.9255 83.6704 15.5735 83.6704 16.3415C83.6704 17.2295 84.1144 17.9375 85.0024 18.4655C85.9144 18.9935 87.5824 19.4255 90.0064 19.7615C93.0064 20.1695 95.1544 20.8655 96.4504 21.8495C97.7464 22.8335 98.3944 24.1535 98.3944 25.8095C98.3944 27.1055 97.9744 28.2335 97.1344 29.1935C96.3184 30.1535 95.2024 30.8855 93.7864 31.3895C92.3704 31.9175 90.7984 32.1815 89.0704 32.1815C87.2704 32.1815 85.6864 31.9055 84.3184 31.3535C82.9504 30.8255 81.8704 30.0815 81.0784 29.1215C80.3104 28.1855 79.8784 27.1175 79.7824 25.9175H83.4184C83.5384 26.8055 84.0904 27.5735 85.0744 28.2215C86.0824 28.8455 87.4504 29.1575 89.1784 29.1575C90.7864 29.1575 92.1184 28.8695 93.1744 28.2935C94.2304 27.6935 94.7584 26.9375 94.7584 26.0255C94.7584 25.1615 94.2664 24.4775 93.2824 23.9735C92.3224 23.4455 90.6424 23.0255 88.2424 22.7135C85.4104 22.3295 83.3344 21.6575 82.0144 20.6975C80.6944 19.7135 80.0344 18.3335 80.0344 16.5575C80.0344 15.3815 80.4184 14.3375 81.1864 13.4255C81.9784 12.5135 83.0464 11.8175 84.3904 11.3375C85.7344 10.8335 87.2464 10.5815 88.9264 10.5815ZM113.669 14.3615H109.097V31.6775H105.389V14.3615H100.817V11.0855H105.389V4.82145H109.097V11.0855H113.669V14.3615ZM137.052 10.5815C139.044 10.5815 140.844 11.0495 142.452 11.9855C144.06 12.9215 145.308 14.2175 146.196 15.8735C147.108 17.5055 147.564 19.3415 147.564 21.3815C147.564 23.4215 147.108 25.2695 146.196 26.9255C145.308 28.5575 144.06 29.8415 142.452 30.7775C140.844 31.7135 139.044 32.1815 137.052 32.1815C135.036 32.1815 133.224 31.7135 131.616 30.7775C130.032 29.8415 128.784 28.5575 127.872 26.9255C126.96 25.2695 126.504 23.4215 126.504 21.3815C126.504 19.3415 126.96 17.5055 127.872 15.8735C128.784 14.2175 130.032 12.9215 131.616 11.9855C133.224 11.0495 135.036 10.5815 137.052 10.5815ZM137.052 13.8575C135.708 13.8575 134.508 14.1935 133.452 14.8655C132.42 15.5135 131.604 16.4135 131.004 17.5655C130.428 18.6935 130.14 19.9655 130.14 21.3815C130.14 22.7975 130.428 24.0815 131.004 25.2335C131.604 26.3615 132.42 27.2615 133.452 27.9335C134.508 28.5815 135.708 28.9055 137.052 28.9055C138.372 28.9055 139.56 28.5815 140.616 27.9335C141.672 27.2615 142.488 26.3615 143.064 25.2335C143.64 24.0815 143.928 22.7975 143.928 21.3815C143.928 19.9655 143.64 18.6935 143.064 17.5655C142.488 16.4135 141.672 15.5135 140.616 14.8655C139.56 14.1935 138.372 13.8575 137.052 13.8575ZM161.999 14.3615H157.427V31.6775H153.719V14.3615H149.651V11.0855H153.719V7.59345C153.719 5.84145 154.199 4.43745 155.159 3.38145C156.143 2.32545 157.499 1.79745 159.227 1.79745C160.187 1.79745 160.991 1.86945 161.639 2.01345V5.14545C161.303 5.07345 160.715 5.03745 159.875 5.03745C159.107 5.03745 158.507 5.27745 158.075 5.75745C157.643 6.21345 157.427 6.86145 157.427 7.70145V11.0855H161.999V14.3615ZM175.678 31.6775V1.94145H179.386V31.6775H175.678ZM194.673 10.5815C196.665 10.5815 198.465 11.0495 200.073 11.9855C201.681 12.9215 202.929 14.2175 203.817 15.8735C204.729 17.5055 205.185 19.3415 205.185 21.3815C205.185 23.4215 204.729 25.2695 203.817 26.9255C202.929 28.5575 201.681 29.8415 200.073 30.7775C198.465 31.7135 196.665 32.1815 194.673 32.1815C192.657 32.1815 190.845 31.7135 189.237 30.7775C187.653 29.8415 186.405 28.5575 185.493 26.9255C184.581 25.2695 184.125 23.4215 184.125 21.3815C184.125 19.3415 184.581 17.5055 185.493 15.8735C186.405 14.2175 187.653 12.9215 189.237 11.9855C190.845 11.0495 192.657 10.5815 194.673 10.5815ZM194.673 13.8575C193.329 13.8575 192.129 14.1935 191.073 14.8655C190.041 15.5135 189.225 16.4135 188.625 17.5655C188.049 18.6935 187.761 19.9655 187.761 21.3815C187.761 22.7975 188.049 24.0815 188.625 25.2335C189.225 26.3615 190.041 27.2615 191.073 27.9335C192.129 28.5815 193.329 28.9055 194.673 28.9055C195.993 28.9055 197.181 28.5815 198.237 27.9335C199.293 27.2615 200.109 26.3615 200.685 25.2335C201.261 24.0815 201.549 22.7975 201.549 21.3815C201.549 19.9655 201.261 18.6935 200.685 17.5655C200.109 16.4135 199.293 15.5135 198.237 14.8655C197.181 14.1935 195.993 13.8575 194.673 13.8575ZM228.161 11.0855L219.449 31.6775H215.525L206.849 11.0855H210.881L217.613 27.4655L224.345 11.0855H228.161ZM239.809 32.1815C237.841 32.1815 236.065 31.7135 234.481 30.7775C232.921 29.8415 231.697 28.5575 230.809 26.9255C229.921 25.2695 229.477 23.4215 229.477 21.3815C229.477 19.3415 229.921 17.5055 230.809 15.8735C231.697 14.2175 232.921 12.9215 234.481 11.9855C236.065 11.0495 237.841 10.5815 239.809 10.5815C241.777 10.5815 243.541 11.0495 245.101 11.9855C246.685 12.9215 247.909 14.2175 248.773 15.8735C249.661 17.5055 250.105 19.3415 250.105 21.3815C250.105 22.0535 250.081 22.5575 250.033 22.8935H233.185C233.377 24.6935 234.073 26.1695 235.273 27.3215C236.497 28.4735 238.009 29.0495 239.809 29.0495C241.177 29.0495 242.377 28.7735 243.409 28.2215C244.465 27.6455 245.185 26.9255 245.569 26.0615H249.349C248.773 27.8615 247.621 29.3255 245.893 30.4535C244.165 31.6055 242.137 32.1815 239.809 32.1815ZM246.469 19.8695C246.253 18.0455 245.545 16.5695 244.345 15.4415C243.145 14.2895 241.633 13.7135 239.809 13.7135C237.985 13.7135 236.473 14.2895 235.273 15.4415C234.073 16.5695 233.377 18.0455 233.185 19.8695H246.469ZM252.727 33.0815C254.911 30.8735 256.615 28.4135 257.839 25.7015C259.087 22.9655 259.711 20.0735 259.711 17.0255C259.711 13.9775 259.087 11.0975 257.839 8.38545C256.615 5.64945 254.911 3.17745 252.727 0.969452H256.687C261.151 5.74545 263.383 11.0975 263.383 17.0255C263.383 22.9535 261.151 28.3055 256.687 33.0815H252.727ZM289.507 19.4735H276.907V16.2335H289.507V19.4735ZM313.703 8.19336C313.668 13.7832 316.903 19.4785 321.614 21.7637L319.539 24.4355C316.112 22.6602 313.457 19.127 312.086 14.9082C310.662 19.4082 307.903 23.1699 304.317 25.0332L302.242 22.3262C307.094 20.0059 310.364 13.959 310.364 8.19336V2.81445H313.703V8.19336ZM327.309 0.177734V12.7285H332.371V15.5762H327.309V31.6777H323.969V0.177734H327.309ZM358.633 0.212891V7.91211H363.239V10.6895H358.633V19.1621H355.293V0.212891H358.633ZM349.492 2.11133V10.9355H338.524V14.7676C343.99 14.75 347.858 14.5566 352.446 13.7832L352.797 16.4902C347.91 17.3691 343.762 17.5449 337.715 17.5098H335.184V8.36914H346.223V4.81836H335.149V2.11133H349.492ZM348.438 20.0059C354.906 20.0059 358.914 22.1855 358.914 25.8418C358.914 29.498 354.906 31.6074 348.438 31.6074C341.864 31.6074 337.856 29.498 337.856 25.8418C337.856 22.1855 341.864 20.0059 348.438 20.0059ZM348.438 22.6426C343.832 22.6426 341.125 23.8027 341.125 25.8418C341.125 27.8809 343.832 29.0762 348.438 29.041C353.008 29.0762 355.645 27.8809 355.645 25.8418C355.645 23.8027 353.008 22.6426 348.438 22.6426ZM375.262 2.42773C380.254 2.39258 383.805 5.48633 383.84 9.91602C383.805 14.3457 380.254 17.4395 375.262 17.4395C370.305 17.4395 366.649 14.3457 366.684 9.91602C366.649 5.48633 370.305 2.39258 375.262 2.42773ZM375.262 5.31055C372.203 5.31055 369.953 7.13867 369.989 9.91602C369.953 12.6934 372.203 14.5215 375.262 14.5215C378.321 14.5215 380.571 12.6934 380.571 9.91602C380.571 7.13867 378.321 5.31055 375.262 5.31055ZM391.047 0.177734V31.748H387.707V0.177734H391.047ZM365.172 22.1855C370.903 22.1855 378.848 22.1152 385.739 21.1309L385.985 23.5566C378.848 24.9277 371.219 24.9629 365.594 24.9629L365.172 22.1855ZM431.02 0.212891V23.2754H427.68V0.212891H431.02ZM431.969 28.3027V31.0098H410.418V21.0957H413.793V28.3027H431.969ZM416.36 5.06445C416.324 9.66992 419.278 13.8887 424.129 15.5762L422.406 18.248C418.768 16.8945 416.078 14.2227 414.672 10.7949C413.283 14.4512 410.559 17.3867 406.867 18.8105L405.074 16.1738C410.031 14.3457 412.949 9.81055 412.949 5.06445V1.93555H416.36V5.06445ZM452.008 2.28711V4.99414H440.723V8.61523H451.41V11.2168H440.723V15.0137C446.506 14.9961 449.951 14.8379 453.977 14.1348L454.328 16.8066C450.004 17.5449 446.313 17.7207 439.844 17.6855H437.383V2.28711H452.008ZM460.762 0.177734V8.33398H465.332V11.1465H460.762V19.2676H457.422V0.177734H460.762ZM460.762 20.709V31.6777H457.422V23.416H439.949V20.709H460.762Z" fill="#595B5A"/>
</svg>
