<svg width="232" height="115" viewBox="0 0 232 115" fill="none" xmlns="http://www.w3.org/2000/svg">
<path d="M10.042 0.0805664V6.64404H9.06445V0.0805664H10.042ZM10.334 7.44385V8.23096H6.98242C7.03955 9.30371 8.81689 10.3574 10.7275 10.5923L10.3594 11.3667C8.6709 11.1255 7.12842 10.332 6.46191 9.28467C5.78906 10.3574 4.20215 11.1382 2.50098 11.3667L2.14551 10.605C4.05615 10.3955 5.89697 9.3418 5.9541 8.23096H2.61523V7.44385H5.9668V6.35205H6.95703V7.44385H10.334ZM2.32324 0.562988V2.31494H5.64941V0.562988H6.63965V5.60303H1.33301V0.562988H2.32324ZM2.32324 4.80322H5.64941V3.08936H2.32324V4.80322ZM17.1133 0.283691C19.627 0.283691 21.0996 0.969238 21.0996 2.22607C21.0996 3.5083 19.627 4.19385 17.1133 4.20654C14.5996 4.19385 13.1143 3.5083 13.1143 2.22607C13.1143 0.969238 14.5996 0.283691 17.1133 0.283691ZM17.1133 1.03271C15.2344 1.03271 14.1426 1.48975 14.1553 2.22607C14.1426 3.01318 15.2344 3.44482 17.1133 3.44482C18.9795 3.44482 20.084 3.01318 20.084 2.22607C20.084 1.48975 18.9795 1.03271 17.1133 1.03271ZM22.2549 4.96826V5.78076H11.9717V4.96826H22.2549ZM20.9346 6.7583V9.28467H14.2314V10.4526H21.2773V11.2397H13.2412V8.54834H19.957V7.52002H13.2158V6.7583H20.9346ZM35.293 0.0805664V2.81006H36.9941V3.64795H35.293V6.68213H34.3027V0.0805664H35.293ZM27.9297 0.728027V2.45459H31.2178V0.728027H32.208V5.97119H26.9521V0.728027H27.9297ZM27.9297 5.17139H31.2178V3.25439H27.9297V5.17139ZM35.3818 7.31689V8.1167H29.1992V10.4019H35.5977V11.2144H28.209V7.31689H35.3818ZM40.7266 0.956543C42.3896 0.969238 43.5703 2.49268 43.583 4.89209C43.5703 7.2915 42.3896 8.81494 40.7266 8.81494C39.0508 8.81494 37.8828 7.2915 37.8828 4.89209C37.8828 2.49268 39.0508 0.969238 40.7266 0.956543ZM40.7266 1.84521C39.6094 1.85791 38.8223 3.05127 38.8223 4.89209C38.8223 6.73291 39.6094 7.92627 40.7266 7.92627C41.8564 7.92627 42.6182 6.73291 42.6182 4.89209C42.6182 3.05127 41.8564 1.85791 40.7266 1.84521ZM46.4395 0.0805664V4.5874H48.3311V5.45068H46.4395V11.3667H45.4492V0.0805664H46.4395ZM61.5342 0.0805664V11.3667H60.5312V0.0805664H61.5342ZM58.9316 1.31201V2.13721H57.6494V7.5708C58.2842 7.52637 58.9126 7.46924 59.5156 7.39307L59.5791 8.14209C57.1162 8.52295 54.3994 8.56104 52.3047 8.57373L52.1904 7.72314L53.752 7.71045V2.13721H52.4824V1.31201H58.9316ZM54.7295 7.69775C55.3643 7.68506 56.0181 7.65967 56.6719 7.62158V2.13721H54.7295V7.69775ZM66.4727 0.956543C68.0088 0.969238 69.1133 2.2832 69.2783 4.39697H71.8047V0.0805664H72.7949V11.3921H71.8047V5.22217H69.291C69.1704 7.43115 68.0469 8.81494 66.4727 8.81494C64.8096 8.81494 63.6416 7.2915 63.6416 4.89209C63.6416 2.49268 64.8096 0.969238 66.4727 0.956543ZM66.4727 1.84521C65.3555 1.85791 64.5938 3.05127 64.5938 4.89209C64.5938 6.73291 65.3555 7.92627 66.4727 7.92627C67.5771 7.92627 68.3516 6.73291 68.3516 4.89209C68.3516 3.05127 67.5771 1.85791 66.4727 1.84521ZM76.2227 0.905762V5.34912C77.8286 5.35547 79.498 5.25391 81.3389 4.8667L81.4531 5.69189C79.5361 6.09814 77.8223 6.19971 76.1211 6.19971H75.2197V0.905762H76.2227ZM83.4971 0.0932617V3.44482H85.1982V4.30811H83.4971V8.24365H82.5068V0.0932617H83.4971ZM83.9033 10.2876V11.1255H76.4766V7.44385H77.4668V10.2876H83.9033ZM95.0625 1.0708V6.30127H89.7686V1.0708H95.0625ZM90.7461 1.896V5.50146H94.085V1.896H90.7461ZM98.4902 0.0932617V8.20557H97.5V0.0932617H98.4902ZM98.8457 10.1606V10.9858H91.2031V7.41846H92.1934V10.1606H98.8457ZM110.703 4.82861V5.62842H100.407V4.82861H110.703ZM109.472 3.08936V3.90186H101.778V0.474121H109.357V1.27393H102.781V3.08936H109.472ZM109.37 6.64404V9.25928H102.667V10.4272H109.713V11.2397H101.677V8.51025H108.393V7.41846H101.651V6.64404H109.37ZM116.048 1.3374V5.23486H112.988V7.74854C114.29 7.74219 115.521 7.69775 117.025 7.43115L117.102 8.25635C115.489 8.54834 114.207 8.57373 112.772 8.58643H112.023V4.40967H115.096V2.1626H111.998V1.3374H116.048ZM121.291 0.0805664V11.3667H120.339V0.0805664H121.291ZM118.98 0.359863V10.77H118.041V4.96826H116.594V4.15576H118.041V0.359863H118.98ZM132.006 3.5083V4.30811H124.274V0.499512H125.265V3.5083H132.006ZM133.199 5.84424V6.65674H122.865V5.84424H133.199ZM132.069 10.2622V11.0874H124.211V7.81201H125.201V10.2622H132.069ZM9.66113 17.0679V21.5239H11.3115V22.3745H9.66113V28.3667H8.6709V17.0679H9.66113ZM3.94824 18.2739V19.0991H2.06934V24.5581C2.62793 24.5454 3.31348 24.4946 4.0625 24.3296L4.16406 25.1675C3.09766 25.396 2.24707 25.4087 1.57422 25.4087H1.0791V18.2739H3.94824ZM7.60449 18.2739V19.0991H5.58594V24.5708C6.46826 24.5581 7.17285 24.501 7.97266 24.3042L8.07422 25.1421C7.08398 25.3833 6.28418 25.4087 5.1416 25.4087H4.5957V18.2739H7.60449ZM22.2549 22.5142V23.3394H11.9717V22.5142H22.2549ZM21.3662 20.6479V21.4604H17.4434V17.6392H21.2646V18.4517H18.4463V20.6479H21.3662ZM16.8086 17.6392V18.4517H13.9521V20.6479C14.9297 20.6353 15.8882 20.5654 16.9609 20.3179L17.0752 21.1431C15.793 21.4224 14.7139 21.4604 13.584 21.4604H12.9365V17.6392H16.8086ZM17.6338 24.5962C17.6338 26.1196 19.4111 27.2368 21.4678 27.5288L21.0869 28.3159C19.373 28.0303 17.8052 27.2241 17.126 25.98C16.4468 27.2241 14.8789 28.0303 13.165 28.3159L12.7842 27.5288C14.8281 27.2368 16.6182 26.1196 16.6182 24.5962V24.228H17.6338V24.5962ZM32.0303 17.0933V20.813H33.7314V21.6509H32.0303V25.5483H31.04V17.0933H32.0303ZM29.9609 18.4771V19.2896H23.2324V18.4771H26.1016V17.0933H27.0918V18.4771H29.9609ZM26.5967 19.9116C28.209 19.9116 29.3008 20.7368 29.3135 22.019C29.3008 23.2886 28.209 24.1011 26.5967 24.1011C24.9717 24.1011 23.8672 23.2886 23.8799 22.019C23.8672 20.7368 24.9717 19.9116 26.5967 19.9116ZM26.5967 20.6987C25.5303 20.6987 24.8193 21.2192 24.832 22.019C24.8193 22.8188 25.5303 23.3267 26.5967 23.314C27.6504 23.3267 28.3613 22.8188 28.374 22.019C28.3613 21.2192 27.6504 20.6987 26.5967 20.6987ZM32.5508 27.2876V28.1255H24.9717V24.8755H25.9492V27.2876H32.5508ZM46.4395 17.0806V21.5239H48.3311V22.3872H46.4395V28.3667H45.4492V17.0806H46.4395ZM39.165 18.0454V21.0288H42.4658V18.0454H43.4561V25.6626H38.1748V18.0454H39.165ZM39.165 24.8247H42.4658V21.8286H39.165V24.8247ZM57.7637 17.0933V19.9878H59.4775V20.8384H57.7637V23.8218H56.7734V17.0933H57.7637ZM57.7637 24.3804V28.2144H50.6162V24.3804H57.7637ZM51.5938 25.1548V27.4019H56.7988V25.1548H51.5938ZM54.5391 17.7026V20.7876H50.4258V22.3872C52.4316 22.3872 53.8853 22.3301 55.6436 22.0444L55.7451 22.8442C53.9297 23.1616 52.4189 23.2251 50.3242 23.2251H49.4482V20.0132H53.5615V18.5278H49.4229V17.7026H54.5391ZM65.3174 17.2837C67.8311 17.2837 69.3037 17.9692 69.3037 19.2261C69.3037 20.5083 67.8311 21.1938 65.3174 21.2065C62.8037 21.1938 61.3184 20.5083 61.3184 19.2261C61.3184 17.9692 62.8037 17.2837 65.3174 17.2837ZM65.3174 18.0327C63.4385 18.0327 62.3467 18.4897 62.3594 19.2261C62.3467 20.0132 63.4385 20.4448 65.3174 20.4448C67.1836 20.4448 68.2881 20.0132 68.2881 19.2261C68.2881 18.4897 67.1836 18.0327 65.3174 18.0327ZM70.459 21.9683V22.7808H60.1758V21.9683H70.459ZM69.1387 23.7583V26.2847H62.4355V27.4526H69.4814V28.2397H61.4453V25.5483H68.1611V24.52H61.4199V23.7583H69.1387ZM84.0049 17.0806V28.3667H83.002V17.0806H84.0049ZM80.666 18.312C80.6533 21.562 79.1426 24.4312 75.3594 26.2466L74.8135 25.4341C77.8667 23.9868 79.4219 21.8223 79.6504 19.1245H75.334V18.312H80.666ZM94.6436 17.0806V21.5493H96.5352V22.3872H94.6436V28.3921H93.6533V17.0806H94.6436ZM91.6729 18.1851V19.0103H87.3945V24.7231C89.4385 24.7231 90.8857 24.6279 92.5615 24.3169L92.6885 25.1802C90.9238 25.4976 89.4385 25.561 87.293 25.561H86.4043V18.1851H91.6729ZM106.463 17.0806V28.3921H105.473V17.0806H106.463ZM103.035 18.1343V22.146H98.8203V24.812C100.693 24.812 102.362 24.7295 104.381 24.4058L104.482 25.2437C102.4 25.5737 100.687 25.6499 98.7441 25.6499H97.8047V21.3335H102.032V18.9595H97.7793V18.1343H103.035ZM117.114 17.0806V21.5493H119.006V22.3872H117.114V28.3921H116.124V17.0806H117.114ZM114.144 18.1851V19.0103H109.865V24.7231C111.909 24.7231 113.356 24.6279 115.032 24.3169L115.159 25.1802C113.395 25.4976 111.909 25.561 109.764 25.561H108.875V18.1851H114.144ZM132.564 17.8804V18.6167H123.411V17.8804H127.524V16.9028H128.515V17.8804H132.564ZM128.02 19.0864C130.394 19.0864 131.676 19.5688 131.676 20.5464C131.676 21.4541 130.571 21.9365 128.515 22.0063V22.7935H133.161V23.5425H122.878V22.7935H127.524V22.0063C125.449 21.9365 124.351 21.4541 124.351 20.5464C124.351 19.5688 125.62 19.0864 128.02 19.0864ZM128.02 19.772C126.306 19.772 125.404 20.0386 125.417 20.5464C125.404 21.0669 126.306 21.3462 128.02 21.3462C129.721 21.3462 130.622 21.0669 130.635 20.5464C130.622 20.0386 129.721 19.772 128.02 19.772ZM131.841 24.2788V26.5513H125.163V27.5034H132.184V28.2397H124.147V25.853H130.838V25.0024H124.122V24.2788H131.841ZM143.571 17.0806V28.3667H142.568V17.0806H143.571ZM136.69 20.6733C136.69 21.8032 136.919 23.4727 137.846 24.5962C138.747 23.498 138.976 21.873 138.976 20.6733V18.0962H139.94V20.6733C139.928 22.1587 140.334 24.1011 141.73 25.0786L141.096 25.8022C140.239 25.1865 139.731 24.1646 139.471 23.0601C139.204 24.1836 138.715 25.2563 137.846 25.8911C136.963 25.25 136.475 24.1709 136.221 23.0474C135.941 24.1392 135.446 25.1548 134.621 25.7769L133.961 25.0786C135.345 24.0757 135.751 22.1079 135.751 20.6733V18.0962H136.69V20.6733ZM155.67 22.3237V23.1108H145.336V22.3237H155.67ZM154.375 24.0122V26.4116H147.596V27.4907H154.743V28.2144H146.593V25.7261H153.385V24.7612H146.58V24.0122H154.375ZM154.337 17.4233V19.7593H147.672V20.7495H154.54V21.4731H146.682V19.0737H153.334V18.147H146.644V17.4233H154.337ZM168.67 17.0806V19.4419H170.371V20.2798H168.67V22.7808H167.68V17.0806H168.67ZM161.396 17.5884V21.3716C163.001 21.3779 164.658 21.2637 166.486 20.8892L166.613 21.7271C164.684 22.1206 162.995 22.2349 161.294 22.2349H160.393V17.5884H161.396ZM168.67 23.3267V26.0815H162.487V27.4019H169.089V28.2144H161.497V25.2944H167.68V24.1265H161.472V23.3267H168.67ZM180.388 17.0933V25.396H179.41V17.0933H180.388ZM180.718 27.2876V28.1255H172.986V24.7485H173.989V27.2876H180.718ZM176.808 17.8931V21.1558H172.644V22.9585C174.738 22.9585 176.224 22.895 178.014 22.5776L178.115 23.4028C176.274 23.7202 174.751 23.7837 172.593 23.7964H171.679V20.3687H175.817V18.7056H171.653V17.8931H176.808ZM191.052 17.0806V21.5493H192.943V22.3872H191.052V28.3921H190.062V17.0806H191.052ZM188.081 18.1851V19.0103H183.803V24.7231C185.847 24.7231 187.294 24.6279 188.97 24.3169L189.097 25.1802C187.332 25.4976 185.847 25.561 183.701 25.561H182.812V18.1851H188.081ZM194.746 27.4146C194.302 27.4146 193.921 27.0464 193.934 26.5894C193.921 26.145 194.302 25.7769 194.746 25.7769C195.19 25.7769 195.559 26.145 195.559 26.5894C195.559 27.0464 195.19 27.4146 194.746 27.4146ZM9.63574 35.2866V36.4165C9.63574 37.8384 9.63574 39.4507 9.2168 41.9009L8.20117 41.7993C8.6582 39.4888 8.6582 37.8003 8.6582 36.4165V36.1118H1.85352V35.2866H9.63574ZM11.0195 42.8784V43.7036H0.736328V42.8784H11.0195ZM23.9688 34.0806V38.5239H25.8604V39.3872H23.9688V45.3667H22.9785V34.0806H23.9688ZM16.6943 35.0454V38.0288H19.9951V35.0454H20.9854V42.6626H15.7041V35.0454H16.6943ZM16.6943 41.8247H19.9951V38.8286H16.6943V41.8247ZM35.293 34.0933V36.9878H37.0068V37.8384H35.293V40.8218H34.3027V34.0933H35.293ZM35.293 41.3804V45.2144H28.1455V41.3804H35.293ZM29.123 42.1548V44.4019H34.3281V42.1548H29.123ZM32.0684 34.7026V37.7876H27.9551V39.3872C29.9609 39.3872 31.4146 39.3301 33.1729 39.0444L33.2744 39.8442C31.459 40.1616 29.9482 40.2251 27.8535 40.2251H26.9775V37.0132H31.0908V35.5278H26.9521V34.7026H32.0684ZM51.2891 39.7554V40.5806H40.9678V39.7554H45.6143V38.0161H46.5918V39.7554H51.2891ZM46.6045 34.7915C46.6045 36.2896 48.6357 37.5464 50.6289 37.8257L50.2227 38.6255C48.5088 38.3271 46.814 37.4194 46.1094 36.1118C45.3984 37.4258 43.6973 38.3271 41.9707 38.6255L41.5898 37.8257C43.583 37.5464 45.6016 36.2896 45.6016 34.7915V34.2583H46.6045V34.7915ZM49.9814 41.6851V45.3667H48.9785V42.4849H42.1104V41.6851H49.9814ZM54.9072 34.9692C56.272 34.9692 57.313 35.9087 57.4717 37.3179H58.6904V34.3091H59.6299V42.2056H58.6904V38.1558H57.4717C57.2812 39.5269 56.2529 40.4409 54.9072 40.4282C53.3965 40.4409 52.3174 39.3237 52.3301 37.7114C52.3174 36.0864 53.3965 34.9692 54.9072 34.9692ZM54.9072 35.8325C53.9424 35.8325 53.2188 36.6196 53.2314 37.7114C53.2188 38.8032 53.9424 39.5776 54.9072 39.5776C55.8721 39.5776 56.583 38.8032 56.5957 37.7114C56.583 36.6196 55.8721 35.8325 54.9072 35.8325ZM61.7881 34.0806V42.5356H60.8359V34.0806H61.7881ZM62.1309 44.2876V45.1255H54.3867V41.4438H55.377V44.2876H62.1309ZM75.8164 37.8892V38.7144H68.0342V34.6646H69.0244V37.8892H75.8164ZM77.0352 40.4155V41.2534H72.3125V45.3667H71.3223V41.2534H66.7012V40.4155H77.0352ZM86.9121 34.6899V35.5786C86.9121 36.5308 86.9121 37.6099 86.6328 39.0825H88.2705V39.8823H83.624V42.6118H82.6465V39.8823H77.9365V39.0825H85.6172C85.9219 37.6035 85.9219 36.5308 85.9219 35.5786V35.5151H79.2441V34.6899H86.9121ZM87.1533 44.2876V45.1255H79.2441V41.5962H80.2471V44.2876H87.1533ZM97.9062 34.0806V38.6763H99.7344V39.5142H97.9062V45.3667H96.916V34.0806H97.9062ZM94.9863 35.2993C94.9863 38.4985 93.4883 41.4058 89.8066 43.2212L89.248 42.4341C92.168 40.9805 93.7549 38.8096 93.9834 36.1372H89.7686V35.2993H94.9863ZM110.729 39.3237V40.1108H100.395V39.3237H110.729ZM109.434 41.0122V43.4116H102.654V44.4907H109.802V45.2144H101.651V42.7261H108.443V41.7612H101.639V41.0122H109.434ZM109.396 34.4233V36.7593H102.73V37.7495H109.599V38.4731H101.74V36.0737H108.393V35.147H101.702V34.4233H109.396ZM118.625 34.6392C120.313 34.6265 121.52 35.5532 121.52 36.937C121.52 38.3081 120.313 39.2603 118.625 39.2476C116.937 39.2603 115.73 38.3081 115.73 36.937C115.73 35.5532 116.937 34.6265 118.625 34.6392ZM118.625 35.4517C117.495 35.439 116.695 36.061 116.708 36.937C116.695 37.8257 117.495 38.4351 118.625 38.4224C119.768 38.4351 120.567 37.8257 120.567 36.937C120.567 36.061 119.768 35.439 118.625 35.4517ZM124.211 34.0933V45.3794H123.233V34.0933H124.211ZM114.88 40.2124C117 40.2124 119.895 40.1743 122.408 39.8062L122.472 40.5552C121.393 40.752 120.269 40.8726 119.184 40.936V45.0239H118.193V40.9995C117.044 41.0503 115.959 41.0566 115.02 41.063L114.88 40.2124ZM131.777 36.0356V36.8481H126.115V36.0356H128.464V34.4233H129.454V36.0356H131.777ZM128.946 37.6099C130.368 37.6099 131.384 38.6763 131.396 40.1743C131.384 41.6851 130.368 42.7642 128.946 42.7642C127.537 42.7642 126.521 41.6851 126.521 40.1743C126.521 38.6763 127.537 37.6099 128.946 37.6099ZM128.946 38.4478C128.058 38.4604 127.41 39.1841 127.41 40.1743C127.41 41.1772 128.058 41.9009 128.946 41.8882C129.848 41.9009 130.508 41.1772 130.508 40.1743C130.508 39.1841 129.848 38.4604 128.946 38.4478ZM135.751 34.0806V45.3667H134.799V39.6665H133.301V44.8081H132.361V34.3599H133.301V38.8413H134.799V34.0806H135.751ZM10.0674 51.0806V62.3667H9.06445V51.0806H10.0674ZM6.72852 52.312C6.71582 55.562 5.20508 58.4312 1.42188 60.2466L0.875977 59.4341C3.9292 57.9868 5.48438 55.8223 5.71289 53.1245H1.39648V52.312H6.72852ZM21.0869 56.3745V57.187H17.5957V60.1069H22.3057V60.9448H11.9717V60.1069H16.6182V57.187H13.292V52.0073H20.9727V52.8198H14.2949V56.3745H21.0869ZM31.9414 51.0806V55.7397H33.833V56.5649H31.9414V62.3667H30.9512V51.0806H31.9414ZM29.8594 52.896V53.7212H23.1436V52.896H26.0508V51.2202H27.041V52.896H29.8594ZM26.5586 54.6606C28.1582 54.6606 29.3135 55.7271 29.3262 57.2505C29.3135 58.7739 28.1582 59.8403 26.5586 59.8403C24.9463 59.8403 23.7783 58.7739 23.791 57.2505C23.7783 55.7271 24.9463 54.6606 26.5586 54.6606ZM26.5586 55.4985C25.5049 55.4985 24.7305 56.2349 24.7432 57.2505C24.7305 58.2788 25.5049 59.0024 26.5586 58.9897C27.5996 59.0024 28.3613 58.2788 28.374 57.2505C28.3613 56.2349 27.5996 55.4985 26.5586 55.4985ZM40.2949 52.0327V52.8579H36.0801V56.8442C38.105 56.8442 39.4126 56.7744 40.9297 56.4761L41.0566 57.3013C39.4443 57.5806 38.0732 57.6694 35.9531 57.6694H35.1025V52.0327H40.2949ZM43.7988 51.0933V59.3325H42.7959V55.0415H39.5586V54.229H42.7959V51.0933H43.7988ZM44.1035 61.3765V62.189H36.5244V58.7104H37.5273V61.3765H44.1035ZM54.6152 52.2231V59.4976H49.4102V52.2231H54.6152ZM50.375 53.0229V58.6851H53.625V53.0229H50.375ZM57.6748 51.0806V55.5874H59.5664V56.4507H57.6748V62.3667H56.6846V51.0806H57.6748ZM65.3174 51.3345C67.7676 51.3345 69.3037 52.1216 69.3037 53.48C69.3037 54.813 67.7676 55.5874 65.3174 55.5874C62.8672 55.5874 61.3184 54.813 61.3184 53.48C61.3184 52.1216 62.8672 51.3345 65.3174 51.3345ZM65.3174 52.1343C63.4893 52.1343 62.334 52.6421 62.3467 53.48C62.334 54.3052 63.4893 54.7876 65.3174 54.8003C67.1201 54.7876 68.2881 54.3052 68.2881 53.48C68.2881 52.6421 67.1201 52.1343 65.3174 52.1343ZM69.2021 58.5073V62.2144H61.4326V58.5073H69.2021ZM62.4229 59.3071V61.4019H68.2246V59.3071H62.4229ZM70.459 56.5649V57.3901H60.1758V56.5649H70.459ZM80.7168 51.0806V62.3921H79.7139V51.0806H80.7168ZM74.7119 51.9565C76.3877 51.9692 77.5938 53.4927 77.5938 55.8921C77.5938 58.2915 76.3877 59.8149 74.7119 59.8149C73.0234 59.8149 71.8301 58.2915 71.8301 55.8921C71.8301 53.4927 73.0234 51.9692 74.7119 51.9565ZM74.7119 52.8452C73.582 52.8579 72.7949 54.0513 72.7949 55.8921C72.7949 57.7329 73.582 58.9263 74.7119 58.9263C75.8418 58.9263 76.6289 57.7329 76.6289 55.8921C76.6289 54.0513 75.8418 52.8579 74.7119 52.8452ZM94.7324 51.0806V53.8481H96.4336V54.686H94.7324V57.4917H93.7422V51.0806H94.7324ZM91.4443 51.855V52.6675H87.4326V55.9937C89.6987 56.0063 90.9873 55.9238 92.498 55.6255L92.625 56.438C91.0381 56.7554 89.6924 56.8188 87.3184 56.8188H86.4424V51.855H91.4443ZM94.7324 58.0757V62.2144H87.6104V58.0757H94.7324ZM88.5879 58.8882V61.4019H93.7422V58.8882H88.5879ZM102.87 52.312C102.87 52.9531 102.813 53.5815 102.692 54.1909H105.498V51.0679H106.488V62.3667H105.498V58.0249H102.312V57.1997H105.498V55.0034H102.489C101.835 57.0981 100.344 58.939 97.6777 60.2339L97.1572 59.4214C100.166 57.9678 101.658 55.7905 101.867 53.1245H97.6523V52.312H102.87ZM115.464 58.6597C115.464 59.6562 115.997 60.7163 117.076 61.3257C118.143 60.6592 118.714 59.5356 118.714 58.6597V58.0376H119.691V58.6597C119.691 59.8149 120.542 60.9829 121.989 61.478L121.494 62.2144C120.364 61.8145 119.571 61.0273 119.184 60.0815C118.834 60.9956 118.143 61.8589 117.102 62.3032C116.003 61.8843 115.305 61.0527 114.969 60.1069C114.569 61.021 113.788 61.8081 112.709 62.2144L112.201 61.478C113.623 60.9448 114.486 59.7388 114.499 58.6597V58.0376H115.464V58.6597ZM120.961 51.0933V57.5425H119.971V51.0933H120.961ZM114.867 51.7534C116.581 51.7534 117.825 52.8198 117.825 54.394C117.825 55.9429 116.581 57.0093 114.867 57.0093C113.153 57.0093 111.909 55.9429 111.909 54.394C111.909 52.8198 113.153 51.7534 114.867 51.7534ZM114.867 52.604C113.712 52.5913 112.874 53.3403 112.887 54.394C112.874 55.4351 113.712 56.1714 114.867 56.1841C116.01 56.1714 116.848 55.4351 116.848 54.394C116.848 53.3403 116.01 52.5913 114.867 52.604ZM131.612 51.0806V55.5493H133.504V56.3872H131.612V62.3921H130.622V51.0806H131.612ZM128.642 52.1851V53.0103H124.363V58.7231C126.407 58.7231 127.854 58.6279 129.53 58.3169L129.657 59.1802C127.893 59.4976 126.407 59.561 124.262 59.561H123.373V52.1851H128.642ZM135.307 61.4146C134.862 61.4146 134.481 61.0464 134.494 60.5894C134.481 60.145 134.862 59.7769 135.307 59.7769C135.751 59.7769 136.119 60.145 136.119 60.5894C136.119 61.0464 135.751 61.4146 135.307 61.4146ZM6.5127 68.6899V70.5308H9.08984V68.0806H10.0801V73.8823H9.08984V71.3433H6.5127V73.2983H1.26953V68.6899H6.5127ZM2.25977 69.4897V72.4985H5.53516V69.4897H2.25977ZM10.0801 74.4536V77.1577H3.7832V78.4146H10.5117V79.2144H2.79297V76.396H9.08984V75.2534H2.76758V74.4536H10.0801ZM21.29 68.0806V79.3921H20.2998V68.0806H21.29ZM17.8623 69.1343V73.146H13.6475V75.812C15.52 75.812 17.1895 75.7295 19.208 75.4058L19.3096 76.2437C17.2275 76.5737 15.5137 76.6499 13.5713 76.6499H12.6318V72.3335H16.8594V69.9595H12.6064V69.1343H17.8623ZM29.6182 69.2231V70.0483H27.8027V75.6089C28.355 75.6025 28.9771 75.5581 29.6689 75.3931L29.7959 76.231C28.8184 76.4468 28.0186 76.4595 27.2949 76.4595H26.8252V69.2231H29.6182ZM33.3252 69.2231V70.0483H31.2432V75.6216C32.1636 75.6089 32.938 75.5645 33.7949 75.355L33.8965 76.1802C32.8428 76.4341 31.9795 76.4595 30.8115 76.4595H30.2402V69.2231H33.3252ZM35.9531 68.0806V79.3667H34.9502V73.0444H32.7666V72.2319H34.9502V68.0806H35.9531ZM48.2676 72.5874V73.4253H46.4395V79.3667H45.4492V68.0806H46.4395V72.5874H48.2676ZM39.165 69.1978V75.6597C40.8154 75.6533 42.4976 75.5264 44.3574 75.1392L44.4844 75.9897C42.542 76.3833 40.79 76.4976 39.0762 76.4976H38.1748V69.1978H39.165ZM58.0684 71.5083V72.3081H50.3369V68.4995H51.3271V71.5083H58.0684ZM59.2617 73.8442V74.6567H48.9277V73.8442H59.2617ZM58.1318 78.2622V79.0874H50.2734V75.812H51.2637V78.2622H58.1318ZM73.125 68.8804V69.6167H63.9717V68.8804H68.085V67.9028H69.0752V68.8804H73.125ZM68.5801 70.0864C70.9541 70.0864 72.2363 70.5688 72.2363 71.5464C72.2363 72.4541 71.1318 72.9365 69.0752 73.0063V73.7935H73.7217V74.5425H63.4385V73.7935H68.085V73.0063C66.0093 72.9365 64.9111 72.4541 64.9111 71.5464C64.9111 70.5688 66.1807 70.0864 68.5801 70.0864ZM68.5801 70.772C66.8662 70.772 65.9648 71.0386 65.9775 71.5464C65.9648 72.0669 66.8662 72.3462 68.5801 72.3462C70.2812 72.3462 71.1826 72.0669 71.1953 71.5464C71.1826 71.0386 70.2812 70.772 68.5801 70.772ZM72.4014 75.2788V77.5513H65.7236V78.5034H72.7441V79.2397H64.708V76.853H71.3984V76.0024H64.6826V75.2788H72.4014ZM84.1318 68.0806V79.3667H83.1289V68.0806H84.1318ZM77.251 71.6733C77.251 72.8032 77.4795 74.4727 78.4062 75.5962C79.3076 74.498 79.5361 72.873 79.5361 71.6733V69.0962H80.501V71.6733C80.4883 73.1587 80.8945 75.1011 82.291 76.0786L81.6562 76.8022C80.7993 76.1865 80.2915 75.1646 80.0312 74.0601C79.7646 75.1836 79.2759 76.2563 78.4062 76.8911C77.5239 76.25 77.0352 75.1709 76.7812 74.0474C76.502 75.1392 76.0068 76.1548 75.1816 76.7769L74.5215 76.0786C75.9053 75.0757 76.3115 73.1079 76.3115 71.6733V69.0962H77.251V71.6733ZM96.2305 73.3237V74.1108H85.8965V73.3237H96.2305ZM94.9355 75.0122V77.4116H88.1562V78.4907H95.3037V79.2144H87.1533V76.7261H93.9453V75.7612H87.1406V75.0122H94.9355ZM94.8975 68.4233V70.7593H88.2324V71.7495H95.1006V72.4731H87.2422V70.0737H93.8945V69.147H87.2041V68.4233H94.8975ZM109.142 68.0806V72.5239H111.033V73.3872H109.142V79.3667H108.151V68.0806H109.142ZM101.867 69.0454V72.0288H105.168V69.0454H106.158V76.6626H100.877V69.0454H101.867ZM101.867 75.8247H105.168V72.8286H101.867V75.8247ZM120.377 68.0806V72.5747H122.269V73.4126H120.377V79.3921H119.387V68.0806H120.377ZM117.216 69.1343V73.1714H113.103V75.812C115.197 75.812 116.657 75.7422 118.371 75.4185L118.473 76.2437C116.695 76.5737 115.185 76.6499 113.014 76.6626H112.112V72.3462H116.226V69.9595H112.087V69.1343H117.216ZM133.212 77.0942V77.9194H122.878V77.0942H127.524V74.6567H124.097V68.8804H125.1V70.9243H130.965V68.8804H131.942V74.6567H128.502V77.0942H133.212ZM125.1 73.8442H130.965V71.7368H125.1V73.8442ZM139.712 69.2104V70.7974H142.479V68.0806H143.47V79.3921H142.479V74.7329H139.712V76.5103H134.57V69.2104H139.712ZM135.561 69.9976V75.7104H138.747V69.9976H135.561ZM139.712 73.9077H142.479V71.6226H139.712V73.9077ZM147.202 77.4878L146.212 80.9409H145.272L145.971 77.4878H147.202ZM11.0703 94.0688V94.894H0.736328V94.0688H5.35742V91.3013H6.33496V94.0688H11.0703ZM6.36035 86.7183C6.36035 88.6099 8.59473 90.2603 10.5625 90.603L10.1182 91.4282C8.39795 91.0791 6.58252 89.9111 5.85254 88.2798C5.10986 89.9048 3.30713 91.0791 1.58691 91.4282L1.14258 90.603C3.11035 90.2603 5.31934 88.6099 5.31934 86.7183V85.855H6.36035V86.7183ZM17.6719 85.9438V90.7808H12.4541V85.9438H17.6719ZM13.4316 86.7563V89.981H16.707V86.7563H13.4316ZM20.7949 85.0806V87.9116H22.4961V88.7368H20.7949V91.7583H19.8047V85.0806H20.7949ZM17.1768 92.1392C19.4746 92.1392 20.8965 92.9263 20.8965 94.2466C20.8965 95.5796 19.4746 96.354 17.1768 96.3667C14.8662 96.354 13.4316 95.5796 13.4316 94.2466C13.4316 92.9263 14.8662 92.1392 17.1768 92.1392ZM17.1768 92.9517C15.4756 92.9517 14.4219 93.4341 14.4346 94.2466C14.4219 95.0718 15.4756 95.5415 17.1768 95.5542C18.8906 95.5415 19.9316 95.0718 19.9316 94.2466C19.9316 93.4341 18.8906 92.9517 17.1768 92.9517ZM28.3486 85.2837C30.8623 85.2837 32.335 85.9692 32.335 87.2261C32.335 88.5083 30.8623 89.1938 28.3486 89.2065C25.835 89.1938 24.3496 88.5083 24.3496 87.2261C24.3496 85.9692 25.835 85.2837 28.3486 85.2837ZM28.3486 86.0327C26.4697 86.0327 25.3779 86.4897 25.3906 87.2261C25.3779 88.0132 26.4697 88.4448 28.3486 88.4448C30.2148 88.4448 31.3193 88.0132 31.3193 87.2261C31.3193 86.4897 30.2148 86.0327 28.3486 86.0327ZM33.4902 89.9683V90.7808H23.207V89.9683H33.4902ZM32.1699 91.7583V94.2847H25.4668V95.4526H32.5127V96.2397H24.4766V93.5483H31.1924V92.52H24.4512V91.7583H32.1699ZM46.5283 85.0806V87.8481H48.2295V88.686H46.5283V91.4917H45.5381V85.0806H46.5283ZM43.2402 85.855V86.6675H39.2285V89.9937C41.4946 90.0063 42.7832 89.9238 44.2939 89.6255L44.4209 90.438C42.834 90.7554 41.4883 90.8188 39.1143 90.8188H38.2383V85.855H43.2402ZM46.5283 92.0757V96.2144H39.4062V92.0757H46.5283ZM40.3838 92.8882V95.4019H45.5381V92.8882H40.3838ZM59.2236 91.0347V91.8472H48.9404V91.0347H59.2236ZM58.0811 95.2876V96.1255H50.2734V92.8374H51.2764V95.2876H58.0811ZM54.082 85.4868C56.5068 85.4741 58.0684 86.312 58.0684 87.7212C58.0684 89.1304 56.5068 89.9683 54.082 89.9683C51.6318 89.9683 50.083 89.1304 50.083 87.7212C50.083 86.312 51.6318 85.4741 54.082 85.4868ZM54.082 86.2866C52.2666 86.2866 51.0986 86.8325 51.1113 87.7212C51.0986 88.6099 52.2666 89.1558 54.082 89.1558C55.8848 89.1558 57.0527 88.6099 57.0527 87.7212C57.0527 86.8325 55.8848 86.2866 54.082 86.2866ZM69.1133 86.2231V93.4976H63.9082V86.2231H69.1133ZM64.873 87.0229V92.6851H68.123V87.0229H64.873ZM72.1729 85.0806V89.5874H74.0645V90.4507H72.1729V96.3667H71.1826V85.0806H72.1729ZM79.8154 85.3345C82.2656 85.3345 83.8018 86.1216 83.8018 87.48C83.8018 88.813 82.2656 89.5874 79.8154 89.5874C77.3652 89.5874 75.8164 88.813 75.8164 87.48C75.8164 86.1216 77.3652 85.3345 79.8154 85.3345ZM79.8154 86.1343C77.9873 86.1343 76.832 86.6421 76.8447 87.48C76.832 88.3052 77.9873 88.7876 79.8154 88.8003C81.6182 88.7876 82.7861 88.3052 82.7861 87.48C82.7861 86.6421 81.6182 86.1343 79.8154 86.1343ZM83.7002 92.5073V96.2144H75.9307V92.5073H83.7002ZM76.9209 93.3071V95.4019H82.7227V93.3071H76.9209ZM84.957 90.5649V91.3901H74.6738V90.5649H84.957ZM95.2148 85.0806V96.3921H94.2119V85.0806H95.2148ZM89.21 85.9565C90.8857 85.9692 92.0918 87.4927 92.0918 89.8921C92.0918 92.2915 90.8857 93.8149 89.21 93.8149C87.5215 93.8149 86.3281 92.2915 86.3281 89.8921C86.3281 87.4927 87.5215 85.9692 89.21 85.9565ZM89.21 86.8452C88.0801 86.8579 87.293 88.0513 87.293 89.8921C87.293 91.7329 88.0801 92.9263 89.21 92.9263C90.3398 92.9263 91.127 91.7329 91.127 89.8921C91.127 88.0513 90.3398 86.8579 89.21 86.8452ZM109.764 85.0933V93.4087H108.761V89.0542H106.399C106.177 90.4443 105.009 91.3901 103.518 91.3901C101.829 91.3901 100.585 90.2349 100.585 88.5972C100.585 86.9595 101.829 85.8169 103.518 85.8169C105.041 85.8169 106.228 86.7881 106.412 88.229H108.761V85.0933H109.764ZM110.081 95.2876V96.1255H102.515V92.5581H103.518V95.2876H110.081ZM103.518 86.6929C102.388 86.7056 101.537 87.48 101.537 88.5972C101.537 89.7144 102.388 90.5142 103.518 90.5269C104.622 90.5142 105.473 89.7144 105.473 88.5972C105.473 87.48 104.622 86.7056 103.518 86.6929ZM121.228 85.0933V93.5737H120.275V85.0933H121.228ZM119.031 85.3345V93.2817H118.066V89.0542H116.34V88.229H118.066V85.3345H119.031ZM121.57 95.2876V96.1255H113.826V92.5327H114.816V95.2876H121.57ZM114.981 87.645C114.981 88.8892 115.807 90.2349 117.241 90.8188L116.721 91.606C115.661 91.1553 114.918 90.311 114.524 89.3208C114.131 90.438 113.35 91.3838 112.227 91.8726L111.693 91.0981C113.166 90.4507 114.017 89.0161 114.017 87.645V86.9849H111.909V86.1597H116.975V86.9849H114.981V87.645ZM131.612 85.0806V89.6763H133.44V90.5142H131.612V96.3667H130.622V85.0806H131.612ZM128.692 86.2993C128.692 89.4985 127.194 92.4058 123.513 94.2212L122.954 93.4341C125.874 91.9805 127.461 89.8096 127.689 87.1372H123.475V86.2993H128.692ZM141.146 86.9087C141.146 88.4448 142.314 89.854 143.952 90.4126L143.406 91.1997C142.156 90.7427 141.172 89.8096 140.677 88.6353C140.194 89.9619 139.191 91.0093 137.871 91.5171L137.338 90.7173C139.026 90.0825 140.156 88.5718 140.169 86.8325V85.6646H141.146V86.9087ZM146.199 85.0806V88.0259H147.9V88.8638H146.199V91.9487H145.209V85.0806H146.199ZM142.581 92.2407C144.904 92.2407 146.301 92.9897 146.301 94.2847C146.301 95.605 144.904 96.3413 142.581 96.3413C140.258 96.3413 138.836 95.605 138.836 94.2847C138.836 92.9897 140.258 92.2407 142.581 92.2407ZM142.581 93.0405C140.88 93.0405 139.826 93.5103 139.839 94.2847C139.826 95.0845 140.88 95.5415 142.581 95.5542C144.295 95.5415 145.336 95.0845 145.336 94.2847C145.336 93.5103 144.295 93.0405 142.581 93.0405ZM158.26 85.0806V96.3667H157.308V90.4507H155.645V95.7827H154.73V85.3345H155.645V89.6255H157.308V85.0806H158.26ZM153.258 86.4644V87.2896H150.021V92.7231C151.576 92.7168 152.655 92.6597 153.905 92.4058L153.994 93.2437C152.636 93.5229 151.48 93.5737 149.754 93.5737H149.03V86.4644H153.258ZM165.052 92.1772C167.375 92.1772 168.771 92.939 168.771 94.2593C168.771 95.5923 167.375 96.354 165.052 96.3667C162.729 96.354 161.307 95.5923 161.307 94.2593C161.307 92.939 162.729 92.1772 165.052 92.1772ZM165.052 92.9644C163.351 92.9771 162.297 93.4468 162.31 94.2593C162.297 95.0718 163.351 95.5542 165.052 95.5542C166.766 95.5542 167.807 95.0718 167.807 94.2593C167.807 93.4468 166.766 92.9771 165.052 92.9644ZM168.67 85.0806V87.9243H170.371V88.7749H168.67V91.8726H167.68V85.0806H168.67ZM161.307 85.7915V87.5181H164.595V85.7915H165.585V90.9966H160.329V85.7915H161.307ZM161.307 90.1841H164.595V88.3052H161.307V90.1841ZM180.756 85.0806V96.3667H179.791V85.0806H180.756ZM178.483 85.3218V95.7954H177.531V90.311H176.084C175.976 92.5073 175.043 93.8784 173.646 93.8784C172.174 93.8784 171.222 92.355 171.222 89.9556C171.222 87.5562 172.174 86.0327 173.646 86.0327C175.018 86.0327 175.944 87.3594 176.071 89.4858H177.531V85.3218H178.483ZM173.646 86.9722C172.732 86.9722 172.148 88.1147 172.161 89.9556C172.148 91.7837 172.732 92.939 173.646 92.9263C174.561 92.939 175.145 91.7837 175.145 89.9556C175.145 88.1147 174.561 86.9722 173.646 86.9722ZM191.115 85.7026V86.5151H187.078V89.3843C189.287 89.3843 190.62 89.3018 192.169 89.0161L192.296 89.8032C190.684 90.1333 189.3 90.2222 186.977 90.2222H186.101V85.7026H191.115ZM194.403 85.0806V87.5562H196.117V88.4067H194.403V91.0728H193.413V85.0806H194.403ZM194.898 91.8091V92.5962H186.977V91.8091H190.442V90.7173H191.42V91.8091H194.898ZM190.925 93.0786C192.893 93.0786 194.073 93.6753 194.086 94.7417C194.073 95.7827 192.893 96.3667 190.925 96.3667C188.944 96.3667 187.764 95.7827 187.764 94.7417C187.764 93.6753 188.944 93.0786 190.925 93.0786ZM190.925 93.8149C189.604 93.8276 188.792 94.1577 188.792 94.7417C188.792 95.3257 189.604 95.6431 190.925 95.6304C192.245 95.6431 193.045 95.3257 193.058 94.7417C193.045 94.1577 192.245 93.8276 190.925 93.8149ZM199.837 85.9565C201.5 85.9692 202.681 87.4927 202.693 89.8921C202.681 92.2915 201.5 93.8149 199.837 93.8149C198.161 93.8149 196.993 92.2915 196.993 89.8921C196.993 87.4927 198.161 85.9692 199.837 85.9565ZM199.837 86.8452C198.72 86.8579 197.933 88.0513 197.933 89.8921C197.933 91.7329 198.72 92.9263 199.837 92.9263C200.967 92.9263 201.729 91.7329 201.729 89.8921C201.729 88.0513 200.967 86.8579 199.837 86.8452ZM205.55 85.0806V89.5874H207.441V90.4507H205.55V96.3667H204.56V85.0806H205.55ZM4.55762 104.175C4.55762 105.673 5.66211 107.044 7.33789 107.628L6.83008 108.403C5.5415 107.946 4.55762 107.019 4.0752 105.851C3.59277 107.133 2.55811 108.13 1.23145 108.619L0.698242 107.844C2.38672 107.248 3.56738 105.788 3.58008 104.175V103.693H1.00293V102.88H7.09668V103.693H4.55762V104.175ZM9.55957 102.081V105.064H11.2607V105.915H9.55957V108.885H8.56934V102.081H9.55957ZM9.55957 109.482V113.367H8.56934V110.294H2.1709V109.482H9.55957ZM22.2549 108.035V108.847H11.9717V108.035H22.2549ZM21.1123 112.288V113.125H13.3047V109.837H14.3076V112.288H21.1123ZM17.1133 102.487C19.5381 102.474 21.0996 103.312 21.0996 104.721C21.0996 106.13 19.5381 106.968 17.1133 106.968C14.6631 106.968 13.1143 106.13 13.1143 104.721C13.1143 103.312 14.6631 102.474 17.1133 102.487ZM17.1133 103.287C15.2979 103.287 14.1299 103.833 14.1426 104.721C14.1299 105.61 15.2979 106.156 17.1133 106.156C18.916 106.156 20.084 105.61 20.084 104.721C20.084 103.833 18.916 103.287 17.1133 103.287ZM30.1895 102.639C31.8779 102.626 33.084 103.553 33.084 104.937C33.084 106.308 31.8779 107.26 30.1895 107.248C28.501 107.26 27.2949 106.308 27.2949 104.937C27.2949 103.553 28.501 102.626 30.1895 102.639ZM30.1895 103.452C29.0596 103.439 28.2598 104.061 28.2725 104.937C28.2598 105.826 29.0596 106.435 30.1895 106.422C31.332 106.435 32.1318 105.826 32.1318 104.937C32.1318 104.061 31.332 103.439 30.1895 103.452ZM35.7754 102.093V113.379H34.7979V102.093H35.7754ZM26.4443 108.212C28.5645 108.212 31.459 108.174 33.9727 107.806L34.0361 108.555C32.957 108.752 31.8335 108.873 30.748 108.936V113.024H29.7578V109C28.6089 109.05 27.5234 109.057 26.584 109.063L26.4443 108.212ZM48.0391 111.132V111.97H37.7051V111.132H42.3516V109H39V105.521H45.7539V103.744H38.9746V102.918H46.7314V106.333H39.9902V108.174H46.998V109H43.3291V111.132H48.0391ZM57.6748 102.081V106.676H59.5029V107.514H57.6748V113.367H56.6846V102.081H57.6748ZM54.7549 103.299C54.7549 106.499 53.2568 109.406 49.5752 111.221L49.0166 110.434C51.9365 108.98 53.5234 106.81 53.752 104.137H49.5371V103.299H54.7549ZM70.167 106.956V107.781H67.6914V110.002C68.7959 109.958 69.9067 109.882 70.9541 109.761L71.0303 110.51C68.5293 110.878 65.7998 110.917 63.6416 110.917L63.502 110.079C64.4858 110.079 65.5776 110.072 66.7012 110.041V107.781H64.3652V103.16H70.1162V103.972H65.3428V106.956H70.167ZM72.6934 102.081V113.392H71.7031V102.081H72.6934ZM77.708 102.957C79.2441 102.969 80.3486 104.283 80.5137 106.397H83.04V102.081H84.0303V113.392H83.04V107.222H80.5264C80.4058 109.431 79.2822 110.815 77.708 110.815C76.0449 110.815 74.877 109.292 74.877 106.892C74.877 104.493 76.0449 102.969 77.708 102.957ZM77.708 103.845C76.5908 103.858 75.8291 105.051 75.8291 106.892C75.8291 108.733 76.5908 109.926 77.708 109.926C78.8125 109.926 79.5869 108.733 79.5869 106.892C79.5869 105.051 78.8125 103.858 77.708 103.845ZM87.7627 111.488L86.7725 114.941H85.833L86.5312 111.488H87.7627ZM101.232 102.081V106.549H103.124V107.387H101.232V113.392H100.242V102.081H101.232ZM98.2617 103.185V104.01H93.9834V109.723C96.0273 109.723 97.4746 109.628 99.1504 109.317L99.2773 110.18C97.5127 110.498 96.0273 110.561 93.8818 110.561H92.9932V103.185H98.2617ZM107.745 105.115C107.732 107.171 109.142 109.253 110.805 110.002L110.195 110.79C108.913 110.161 107.802 108.834 107.263 107.222C106.736 108.93 105.625 110.352 104.305 111.018L103.67 110.18C105.346 109.406 106.742 107.26 106.755 105.115V103.058H107.745V105.115ZM113.039 102.081V113.392H112.036V102.081H113.039ZM127.562 102.081V113.367H126.56V102.081H127.562ZM124.96 103.312V104.137H123.678V109.571C124.312 109.526 124.941 109.469 125.544 109.393L125.607 110.142C123.145 110.523 120.428 110.561 118.333 110.574L118.219 109.723L119.78 109.71V104.137H118.511V103.312H124.96ZM120.758 109.698C121.393 109.685 122.046 109.66 122.7 109.622V104.137H120.758V109.698ZM132.501 102.957C134.037 102.969 135.142 104.283 135.307 106.397H137.833V102.081H138.823V113.392H137.833V107.222H135.319C135.199 109.431 134.075 110.815 132.501 110.815C130.838 110.815 129.67 109.292 129.67 106.892C129.67 104.493 130.838 102.969 132.501 102.957ZM132.501 103.845C131.384 103.858 130.622 105.051 130.622 106.892C130.622 108.733 131.384 109.926 132.501 109.926C133.605 109.926 134.38 108.733 134.38 106.892C134.38 105.051 133.605 103.858 132.501 103.845ZM149.525 102.081V104.442H151.227V105.28H149.525V107.781H148.535V102.081H149.525ZM142.251 102.588V106.372C143.857 106.378 145.514 106.264 147.342 105.889L147.469 106.727C145.539 107.121 143.851 107.235 142.149 107.235H141.248V102.588H142.251ZM149.525 108.327V111.082H143.343V112.402H149.944V113.214H142.353V110.294H148.535V109.126H142.327V108.327H149.525ZM160.862 103.134C160.862 104.721 162.944 106.105 164.976 106.384L164.569 107.197C162.817 106.905 161.084 105.934 160.354 104.543C159.631 105.94 157.892 106.905 156.14 107.197L155.733 106.384C157.765 106.105 159.834 104.747 159.834 103.134V102.487H160.862V103.134ZM165.483 108.441V109.279H160.812V113.367H159.834V109.279H155.2V108.441H165.483ZM173.52 109.66C173.52 110.656 174.053 111.716 175.132 112.326C176.198 111.659 176.77 110.536 176.77 109.66V109.038H177.747V109.66C177.747 110.815 178.598 111.983 180.045 112.478L179.55 113.214C178.42 112.814 177.626 112.027 177.239 111.082C176.89 111.996 176.198 112.859 175.157 113.303C174.059 112.884 173.361 112.053 173.024 111.107C172.625 112.021 171.844 112.808 170.765 113.214L170.257 112.478C171.679 111.945 172.542 110.739 172.555 109.66V109.038H173.52V109.66ZM179.017 102.093V108.542H178.026V102.093H179.017ZM172.923 102.753C174.637 102.753 175.881 103.82 175.881 105.394C175.881 106.943 174.637 108.009 172.923 108.009C171.209 108.009 169.965 106.943 169.965 105.394C169.965 103.82 171.209 102.753 172.923 102.753ZM172.923 103.604C171.768 103.591 170.93 104.34 170.942 105.394C170.93 106.435 171.768 107.171 172.923 107.184C174.065 107.171 174.903 106.435 174.903 105.394C174.903 104.34 174.065 103.591 172.923 103.604ZM190.252 102.081V107.857H189.262V102.081H190.252ZM186.875 102.639C186.875 105.521 184.831 107.324 181.492 108.098L181.124 107.26C183.949 106.632 185.605 105.28 185.783 103.464H181.695V102.639H186.875ZM190.252 108.39V111.12H183.93V112.465H190.658V113.265H182.939V110.358H189.262V109.19H182.914V108.39H190.252ZM204.166 102.081V106.524H206.058V107.387H204.166V113.367H203.176V102.081H204.166ZM196.892 103.045V106.029H200.192V103.045H201.183V110.663H195.901V103.045H196.892ZM196.892 109.825H200.192V106.829H196.892V109.825ZM215.49 102.093V105.559H217.204V106.41H215.49V110.396H214.5V102.093H215.49ZM216.023 112.288V113.125H208.495V109.761H209.511V112.288H216.023ZM212.266 102.83V106.054H208.152V107.819C210.158 107.832 211.612 107.749 213.37 107.451L213.472 108.276C211.656 108.581 210.146 108.644 208.051 108.644H207.175V105.267H211.288V103.667H207.149V102.83H212.266ZM226.637 102.081V106.549H228.528V107.387H226.637V113.392H225.646V102.081H226.637ZM223.666 103.185V104.01H219.388V109.723C221.432 109.723 222.879 109.628 224.555 109.317L224.682 110.18C222.917 110.498 221.432 110.561 219.286 110.561H218.397V103.185H223.666ZM230.331 112.415C229.887 112.415 229.506 112.046 229.519 111.589C229.506 111.145 229.887 110.777 230.331 110.777C230.775 110.777 231.144 111.145 231.144 111.589C231.144 112.046 230.775 112.415 230.331 112.415Z" fill="#1A1A1A"/>
</svg>
