<svg width="372" height="167" viewBox="0 0 372 167" fill="none" xmlns="http://www.w3.org/2000/svg">
<path d="M9.09473 2.02539V9.26758H1.76465V2.02539H9.09473ZM3.11816 3.16797V8.16016H7.74121V3.16797H3.11816ZM13.8408 0.671875V11.9043H12.4697V0.671875H13.8408ZM14.333 14.6113V15.7539H3.75098V10.8145H5.12207V14.6113H14.333ZM32.551 7.22852V8.33594H18.2951V7.22852H32.551ZM30.8459 4.82031V5.94531H20.1936V1.19922H30.6877V2.30664H21.5822V4.82031H30.8459ZM30.7053 9.74219V13.3633H21.424V14.9805H31.1799V16.1055H20.0529V12.3262H29.3518V10.8145H20.0178V9.74219H30.7053ZM41.7514 2.39453V7.79102H37.515V11.2715C39.3168 11.2627 41.0219 11.2012 43.1049 10.832L43.2104 11.9746C40.9779 12.3789 39.2025 12.4141 37.2162 12.4316H36.1791V6.64844H40.433V3.53711H36.1439V2.39453H41.7514ZM49.0111 0.654297V16.2812H47.6928V0.654297H49.0111ZM45.8119 1.04102V15.4551H44.5111V7.42188H42.5072V6.29688H44.5111V1.04102H45.8119ZM65.6471 5.40039V6.50781H54.942V1.23438H56.3131V5.40039H65.6471ZM67.2994 8.63477V9.75977H52.9908V8.63477H67.2994ZM65.735 14.752V15.8945H54.8541V11.3594H56.2252V14.752H65.735ZM89.5674 0.654297V9.74219H88.2139V0.654297H89.5674ZM89.9717 10.8496V11.9395H85.3311C85.4102 13.4248 87.8711 14.8838 90.5166 15.209L90.0068 16.2812C87.6689 15.9473 85.5332 14.8486 84.6104 13.3984C83.6787 14.8838 81.4814 15.9648 79.126 16.2812L78.6338 15.2266C81.2793 14.9365 83.8281 13.4775 83.9072 11.9395H79.2842V10.8496H83.9248V9.33789H85.2959V10.8496H89.9717ZM78.8799 1.32227V3.74805H83.4854V1.32227H84.8564V8.30078H77.5088V1.32227H78.8799ZM78.8799 7.19336H83.4854V4.82031H78.8799V7.19336ZM101.158 0.935547C104.639 0.935547 106.678 1.88477 106.678 3.625C106.678 5.40039 104.639 6.34961 101.158 6.36719C97.6779 6.34961 95.6213 5.40039 95.6213 3.625C95.6213 1.88477 97.6779 0.935547 101.158 0.935547ZM101.158 1.97266C98.5568 1.97266 97.0451 2.60547 97.0627 3.625C97.0451 4.71484 98.5568 5.3125 101.158 5.3125C103.742 5.3125 105.272 4.71484 105.272 3.625C105.272 2.60547 103.742 1.97266 101.158 1.97266ZM108.278 7.42188V8.54688H94.0393V7.42188H108.278ZM106.449 9.90039V13.3984H97.1682V15.0156H106.924V16.1055H95.7971V12.3789H105.096V10.9551H95.7619V9.90039H106.449ZM129.93 0.654297V4.43359H132.286V5.59375H129.93V9.79492H128.559V0.654297H129.93ZM119.735 1.55078V3.94141H124.288V1.55078H125.659V8.81055H118.381V1.55078H119.735ZM119.735 7.70312H124.288V5.04883H119.735V7.70312ZM130.053 10.6738V11.7812H121.493V14.9453H130.352V16.0703H120.122V10.6738H130.053ZM139.254 1.86719C141.556 1.88477 143.191 3.99414 143.209 7.31641C143.191 10.6387 141.556 12.748 139.254 12.748C136.933 12.748 135.316 10.6387 135.316 7.31641C135.316 3.99414 136.933 1.88477 139.254 1.86719ZM139.254 3.09766C137.707 3.11523 136.617 4.76758 136.617 7.31641C136.617 9.86523 137.707 11.5176 139.254 11.5176C140.818 11.5176 141.873 9.86523 141.873 7.31641C141.873 4.76758 140.818 3.11523 139.254 3.09766ZM147.164 0.654297V6.89453H149.783V8.08984H147.164V16.2812H145.793V0.654297H147.164ZM171.664 0.654297V16.2812H170.276V0.654297H171.664ZM168.061 2.35938V3.50195H166.285V11.0254C167.164 10.9639 168.034 10.8848 168.869 10.7793L168.957 11.8164C165.547 12.3438 161.785 12.3965 158.885 12.4141L158.727 11.2363L160.889 11.2188V3.50195H159.131V2.35938H168.061ZM162.242 11.2012C163.121 11.1836 164.027 11.1484 164.932 11.0957V3.50195H162.242V11.2012ZM180.302 1.86719C182.429 1.88477 183.958 3.7041 184.187 6.63086H187.685V0.654297H189.056V16.3164H187.685V7.77344H184.204C184.038 10.832 182.482 12.748 180.302 12.748C177.999 12.748 176.382 10.6387 176.382 7.31641C176.382 3.99414 177.999 1.88477 180.302 1.86719ZM180.302 3.09766C178.755 3.11523 177.701 4.76758 177.701 7.31641C177.701 9.86523 178.755 11.5176 180.302 11.5176C181.831 11.5176 182.904 9.86523 182.904 7.31641C182.904 4.76758 181.831 3.11523 180.302 3.09766ZM208.083 6.89453V8.05469H205.551V16.2812H204.18V0.654297H205.551V6.89453H208.083ZM195.479 2.20117V11.1484C197.764 11.1396 200.093 10.9639 202.669 10.4277L202.844 11.6055C200.155 12.1504 197.729 12.3086 195.356 12.3086H194.108V2.20117H195.479ZM223.347 2.23633V3.80078C223.33 5.7168 223.33 7.86133 222.767 11.0078L221.361 10.8496C221.959 7.86133 221.959 5.66406 221.959 3.80078V3.37891H212.326V2.23633H223.347ZM225.053 12.9238V14.0664H210.814V12.9238H216.404V7.33398H217.758V12.9238H225.053ZM230.737 13.6797L229.366 18.4609H228.065L229.032 13.6797H230.737ZM14.3506 31.7617V32.7812H1.67676V31.7617H7.37207V30.4082H8.74316V31.7617H14.3506ZM8.05762 33.4316C11.3447 33.4316 13.1201 34.0996 13.1201 35.4531C13.1201 36.71 11.5908 37.3779 8.74316 37.4746V38.5645H15.1768V39.6016H0.938477V38.5645H7.37207V37.4746C4.49805 37.3779 2.97754 36.71 2.97754 35.4531C2.97754 34.0996 4.73535 33.4316 8.05762 33.4316ZM8.05762 34.3809C5.68457 34.3809 4.43652 34.75 4.4541 35.4531C4.43652 36.1738 5.68457 36.5605 8.05762 36.5605C10.4131 36.5605 11.6611 36.1738 11.6787 35.4531C11.6611 34.75 10.4131 34.3809 8.05762 34.3809ZM13.3486 40.6211V43.7676H4.10254V45.0859H13.8232V46.1055H2.69629V42.8008H11.96V41.623H2.66113V40.6211H13.3486ZM31.3908 30.6543V46.2812H30.0021V30.6543H31.3908ZM21.8635 35.6289C21.8635 37.1934 22.1799 39.5049 23.4631 41.0605C24.7111 39.54 25.0275 37.29 25.0275 35.6289V32.0605H26.3635V35.6289C26.3459 37.6855 26.9084 40.375 28.842 41.7285L27.9631 42.7305C26.7766 41.8779 26.0734 40.4629 25.7131 38.9336C25.3439 40.4893 24.6672 41.9746 23.4631 42.8535C22.2414 41.9658 21.5646 40.4717 21.2131 38.916C20.8264 40.4277 20.1408 41.834 18.9982 42.6953L18.0842 41.7285C20.0002 40.3398 20.5627 37.6152 20.5627 35.6289V32.0605H21.8635V35.6289ZM49.9428 37.9141V39.0039H35.6342V37.9141H49.9428ZM48.1498 40.252V43.5742H38.7631V45.0684H48.6596V46.0703H37.3744V42.625H46.7787V41.2891H37.3568V40.252H48.1498ZM48.0971 31.1289V34.3633H38.8686V35.7344H48.3783V36.7363H37.4975V33.4141H46.7084V32.1309H37.4447V31.1289H48.0971ZM71.5428 30.6543V33.9238H73.8982V35.084H71.5428V38.5469H70.1717V30.6543H71.5428ZM61.4705 31.3574V36.5957C63.6941 36.6045 65.9881 36.4463 68.5193 35.9277L68.6951 37.0879C66.0232 37.6328 63.6854 37.791 61.3299 37.791H60.0818V31.3574H61.4705ZM71.5428 39.3027V43.1172H62.9822V44.9453H72.1229V46.0703H61.6111V42.0273H70.1717V40.4102H61.576V39.3027H71.5428ZM89.6201 30.6543V46.3164H88.249V39.6543H84.9971V38.4941H88.249V35.3828H85.1201V34.2227H88.249V30.6543H89.6201ZM84.1006 32.0781V37.6328H78.6514V41.4824C80.998 41.4736 82.9404 41.3857 85.3135 41.0254L85.4365 42.1855C82.9404 42.5723 80.9365 42.6602 78.4404 42.6602H77.2803V36.5078H82.7471V33.2207H77.2275V32.0781H84.1006ZM108.214 32.2363V42.3086H101.007V32.2363H108.214ZM102.343 33.3438V41.1836H106.843V33.3438H102.343ZM112.451 30.6543V36.8945H115.07V38.0898H112.451V46.2812H111.079V30.6543H112.451ZM124.833 31.0059C128.225 31.0059 130.352 32.0957 130.352 33.9766C130.352 35.8223 128.225 36.8945 124.833 36.8945C121.44 36.8945 119.296 35.8223 119.296 33.9766C119.296 32.0957 121.44 31.0059 124.833 31.0059ZM124.833 32.1133C122.301 32.1133 120.702 32.8164 120.719 33.9766C120.702 35.1191 122.301 35.7871 124.833 35.8047C127.329 35.7871 128.946 35.1191 128.946 33.9766C128.946 32.8164 127.329 32.1133 124.833 32.1133ZM130.212 40.9375V46.0703H119.454V40.9375H130.212ZM120.825 42.0449V44.9453H128.858V42.0449H120.825ZM131.952 38.248V39.3906H117.713V38.248H131.952ZM142.189 30.9355C145.67 30.9355 147.709 31.8848 147.709 33.625C147.709 35.4004 145.67 36.3496 142.189 36.3672C138.709 36.3496 136.652 35.4004 136.652 33.625C136.652 31.8848 138.709 30.9355 142.189 30.9355ZM142.189 31.9727C139.588 31.9727 138.076 32.6055 138.094 33.625C138.076 34.7148 139.588 35.3125 142.189 35.3125C144.773 35.3125 146.303 34.7148 146.303 33.625C146.303 32.6055 144.773 31.9727 142.189 31.9727ZM149.308 37.4219V38.5469H135.07V37.4219H149.308ZM147.48 39.9004V43.3984H138.199V45.0156H147.955V46.1055H136.828V42.3789H146.127V40.9551H136.793V39.9004H147.48ZM171.699 30.6719V42.1328H170.311V36.1387H167.094V34.9961H170.311V30.6719H171.699ZM172.139 44.7871V45.9473H161.662V41.0957H163.051V44.7871H172.139ZM164.176 33.8887C164.176 35.9102 165.74 37.8789 168.026 38.6523L167.305 39.7598C165.538 39.127 164.176 37.8086 163.508 36.1914C162.831 37.9932 161.39 39.4346 159.535 40.1289L158.815 39.0039C161.117 38.1953 162.787 36.1387 162.787 33.8887V33.0801H159.254V31.9375H167.674V33.0801H164.176V33.8887ZM188.318 30.6719V35.8223H190.673V36.9824H188.318V42.3789H186.947V30.6719H188.318ZM185.453 32.5879V33.7129H176.136V32.5879H180.109V30.6719H181.48V32.5879H185.453ZM180.794 34.5742C183.027 34.5742 184.538 35.7168 184.556 37.4922C184.538 39.25 183.027 40.375 180.794 40.375C178.544 40.375 177.015 39.25 177.033 37.4922C177.015 35.7168 178.544 34.5742 180.794 34.5742ZM180.794 35.6641C179.318 35.6641 178.333 36.3848 178.351 37.4922C178.333 38.5996 179.318 39.3027 180.794 39.2852C182.253 39.3027 183.238 38.5996 183.255 37.4922C183.238 36.3848 182.253 35.6641 180.794 35.6641ZM189.038 44.7871V45.9473H178.544V41.4473H179.898V44.7871H189.038ZM205.551 30.6543V36.8418H208.171V38.002H205.551V46.3164H204.18V30.6543H205.551ZM201.438 32.1836V33.3262H195.514V41.2363C198.344 41.2363 200.348 41.1045 202.669 40.6738L202.844 41.8691C200.401 42.3086 198.344 42.3965 195.374 42.3965H194.143V32.1836H201.438ZM212.467 44.9629C211.851 44.9629 211.324 44.4531 211.342 43.8203C211.324 43.2051 211.851 42.6953 212.467 42.6953C213.082 42.6953 213.592 43.2051 213.592 43.8203C213.592 44.4531 213.082 44.9629 212.467 44.9629ZM6.17676 64.8555C6.17676 67.6152 8.00488 70.4453 10.2197 71.5352L9.37598 72.6426C7.65332 71.7373 6.21191 69.8916 5.52637 67.7207C4.82324 70.0322 3.34668 72.001 1.58887 72.9414L0.709961 71.834C2.99512 70.709 4.80566 67.7031 4.82324 64.8555V62.0078H6.17676V64.8555ZM13.0322 60.6543V67H15.6514V68.1953H13.0322V76.2812H11.6611V60.6543H13.0322ZM30.5119 60.6719V64.5918H32.885V65.752H30.5119V70.1113H29.1408V60.6719H30.5119ZM26.0471 61.6387V65.8574H20.3518V68.0371C23.1291 68.0371 25.1418 67.9404 27.5764 67.5273L27.717 68.6875C25.2033 69.1094 23.1115 69.1973 20.2111 69.1973H18.9982V64.7676H24.6936V62.7812H18.9631V61.6387H26.0471ZM25.5021 70.5859C28.6838 70.5859 30.6525 71.6406 30.6525 73.4336C30.6525 75.2266 28.6838 76.2461 25.5021 76.2461C22.2678 76.2461 20.3166 75.2266 20.3166 73.4336C20.3166 71.6406 22.2678 70.5859 25.5021 70.5859ZM25.5021 71.6758C23.1115 71.6758 21.6525 72.3262 21.6701 73.4336C21.6525 74.5234 23.1115 75.1738 25.5021 75.1738C27.8752 75.1738 29.3166 74.5234 29.3166 73.4336C29.3166 72.3262 27.8752 71.6758 25.5021 71.6758ZM42.7709 60.9355C46.2514 60.9355 48.2904 61.8848 48.2904 63.625C48.2904 65.4004 46.2514 66.3496 42.7709 66.3672C39.2904 66.3496 37.2338 65.4004 37.2338 63.625C37.2338 61.8848 39.2904 60.9355 42.7709 60.9355ZM42.7709 61.9727C40.1693 61.9727 38.6576 62.6055 38.6752 63.625C38.6576 64.7148 40.1693 65.3125 42.7709 65.3125C45.3549 65.3125 46.8842 64.7148 46.8842 63.625C46.8842 62.6055 45.3549 61.9727 42.7709 61.9727ZM49.89 67.4219V68.5469H35.6518V67.4219H49.89ZM48.0619 69.9004V73.3984H38.7807V75.0156H48.5365V76.1055H37.4096V72.3789H46.7084V70.9551H37.3744V69.9004H48.0619ZM71.5428 60.6543V64.0469H73.8982V65.207H71.5428V68.6172H70.1717V60.6543H71.5428ZM67.2186 61.5508V67.791H59.9939V61.5508H67.2186ZM61.3475 62.6758V66.6836H65.8826V62.6758H61.3475ZM71.5428 69.3555V73.1699H62.9646V74.9629H72.1229V76.0703H61.6111V72.1152H70.1717V70.4629H61.576V69.3555H71.5428ZM90.9912 73.1875V74.3477H76.6826V73.1875H83.1162V70.2344H78.4756V65.418H87.8271V62.957H78.4404V61.8145H89.1807V66.543H79.8467V69.0918H89.5498V70.2344H84.4697V73.1875H90.9912ZM114.665 73.2227V74.3652H100.357V73.2227H104.347V69.4961H101.658V68.3535H104.101V63.2559H101.622V62.1133H113.294V63.2559H110.816V68.3535H113.259V69.4961H110.57V73.2227H114.665ZM105.472 68.3535H109.462V63.2559H105.472V68.3535ZM105.736 73.2227H109.199V69.4961H105.736V73.2227ZM130.669 60.6719V72.5898H129.28V69.2324H126.573V68.1074H129.28V65.9805H126.573V64.8379H129.28V60.6719H130.669ZM126.573 62.5879V63.7129H117.731V62.5879H121.528V60.6543H122.899V62.5879H126.573ZM122.196 64.5742C124.288 64.5742 125.764 65.7695 125.764 67.5625C125.764 69.3379 124.288 70.5508 122.196 70.5508C120.104 70.5508 118.645 69.3379 118.663 67.5625C118.645 65.7695 120.104 64.5742 122.196 64.5742ZM122.196 65.6641C120.86 65.6816 119.946 66.4375 119.946 67.5625C119.946 68.6875 120.86 69.4434 122.196 69.4434C123.532 69.4434 124.446 68.6875 124.463 67.5625C124.446 66.4375 123.532 65.6816 122.196 65.6641ZM131.02 74.7871V75.9473H120.561V71.5352H121.95V74.7871H131.02ZM147.164 60.6543V67.1055H149.783V68.248H147.164V76.2812H145.793V60.6543H147.164ZM144.281 63.168V64.3105H134.982V63.168H139.008V60.8477H140.379V63.168H144.281ZM139.711 65.6113C141.926 65.6113 143.525 67.0879 143.543 69.1973C143.525 71.3066 141.926 72.7832 139.711 72.7832C137.478 72.7832 135.861 71.3066 135.879 69.1973C135.861 67.0879 137.478 65.6113 139.711 65.6113ZM139.711 66.7715C138.252 66.7715 137.179 67.791 137.197 69.1973C137.179 70.6211 138.252 71.623 139.711 71.6055C141.152 71.623 142.207 70.6211 142.224 69.1973C142.207 67.791 141.152 66.7715 139.711 66.7715ZM158.017 65.4531C158.017 68.1074 159.95 70.7969 162.253 71.7988L161.479 72.8887C159.651 72.0537 158.069 70.252 157.349 68.0898C156.61 70.3838 155.037 72.3789 153.253 73.2754L152.427 72.1855C154.659 71.1133 156.61 68.1602 156.628 65.4531V63.4141H152.937V62.2715H161.743V63.4141H158.017V65.4531ZM165.312 60.6543V76.2812H163.923V60.6543H165.312ZM188.529 61.3223V66.5605H183.906V68.4062H190.339V69.5312H176.101V68.4062H182.552V66.5605H177.947V61.3223H188.529ZM179.3 62.4297V65.4355H187.158V62.4297H179.3ZM183.906 71.0605C183.906 73.1348 186.402 74.6816 189.249 75.0859L188.687 76.1934C186.314 75.7891 184.152 74.6729 183.22 72.959C182.28 74.6729 180.109 75.7891 177.736 76.1934L177.208 75.0859C180.021 74.6816 182.517 73.1348 182.517 71.0605V70.5156H183.906V71.0605ZM205.674 60.6016V64.3984H208.047V65.541H205.674V69.25H204.303V60.6016H205.674ZM205.674 70.0586V73.5215H197.096V75.0508H206.254V76.1055H195.743V72.502H204.303V71.0957H195.708V70.0586H205.674ZM202.809 62.0781V63.1855H193.493V62.0781H197.465V60.4961H198.837V62.0781H202.809ZM198.151 63.8887C200.419 63.8887 201.895 64.873 201.913 66.4551C201.895 68.0371 200.419 69.0215 198.151 69.0215C195.866 69.0215 194.372 68.0371 194.389 66.4551C194.372 64.873 195.866 63.8887 198.151 63.8887ZM198.151 64.9082C196.674 64.9082 195.69 65.5234 195.708 66.4551C195.69 67.4043 196.674 67.9844 198.151 67.9844C199.628 67.9844 200.594 67.4043 200.612 66.4551C200.594 65.5234 199.628 64.9082 198.151 64.9082ZM227.485 61.0059V67.0527H229.384V60.6543H230.702V76.2812H229.384V68.1953H227.485V75.5078H226.202V61.0059H227.485ZM220.999 62.6406V63.7832H218.89V71.0254C219.479 71.0078 220.252 70.9375 221.104 70.7266L221.228 71.9043C219.909 72.2031 218.89 72.2031 218.222 72.2031H217.606V62.6406H220.999ZM225.147 62.6406V63.7832H222.933V71.0254C223.662 71.0166 224.532 70.9463 225.481 70.6738L225.604 71.8516C224.304 72.2031 223.231 72.2031 222.317 72.2031H221.685V62.6406H225.147ZM237.055 73.6797L235.684 78.4609H234.383L235.35 73.6797H237.055ZM13.2607 92.3242V93.8887C13.2607 95.8574 13.2607 98.0898 12.6807 101.482L11.2744 101.342C11.9072 98.1426 11.9072 95.8047 11.9072 93.8887V93.4668H2.48535V92.3242H13.2607ZM15.1768 102.836V103.979H0.938477V102.836H15.1768ZM32.4701 92.2363V102.309H25.2631V92.2363H32.4701ZM26.599 93.3438V101.184H31.099V93.3438H26.599ZM36.7064 90.6543V96.8945H39.3256V98.0898H36.7064V106.281H35.3354V90.6543H36.7064ZM49.0885 91.0059C52.4811 91.0059 54.608 92.0957 54.608 93.9766C54.608 95.8223 52.4811 96.8945 49.0885 96.8945C45.6959 96.8945 43.5514 95.8223 43.5514 93.9766C43.5514 92.0957 45.6959 91.0059 49.0885 91.0059ZM49.0885 92.1133C46.5572 92.1133 44.9576 92.8164 44.9752 93.9766C44.9576 95.1191 46.5572 95.7871 49.0885 95.8047C51.5846 95.7871 53.2018 95.1191 53.2018 93.9766C53.2018 92.8164 51.5846 92.1133 49.0885 92.1133ZM54.4674 100.938V106.07H43.7096V100.938H54.4674ZM45.0807 102.045V104.945H53.1139V102.045H45.0807ZM56.2076 98.248V99.3906H41.9693V98.248H56.2076ZM73.5643 98.8984V100.023H59.326V98.8984H73.5643ZM71.9822 104.787V105.947H61.1717V101.395H62.5604V104.787H71.9822ZM66.4451 91.2168C69.8025 91.1992 71.9646 92.3594 71.9646 94.3105C71.9646 96.2617 69.8025 97.4219 66.4451 97.4219C63.0525 97.4219 60.908 96.2617 60.908 94.3105C60.908 92.3594 63.0525 91.1992 66.4451 91.2168ZM66.4451 92.3242C63.9314 92.3242 62.3143 93.0801 62.3318 94.3105C62.3143 95.541 63.9314 96.2969 66.4451 96.2969C68.9412 96.2969 70.5584 95.541 70.5584 94.3105C70.5584 93.0801 68.9412 92.3242 66.4451 92.3242ZM97.3088 103.117V104.277H83.0002V103.117H89.4514V99.3203H90.84V103.117H97.3088ZM90.84 93.625C90.84 96.1211 93.9338 98.2656 96.6232 98.7051L96.0607 99.7949C93.6701 99.3291 91.1477 97.8086 90.1545 95.6289C89.1438 97.8174 86.6301 99.373 84.2834 99.8652L83.7033 98.7578C86.34 98.3008 89.4162 96.1211 89.4162 93.625V93.2383H84.1779V92.0781H96.0783V93.2383H90.84V93.625ZM114.595 98.3887V99.5312H100.357V98.3887H103.89V96.1914C102.642 95.708 101.939 94.9082 101.939 93.8535C101.939 92.0078 104.048 90.9531 107.476 90.9531C110.869 90.9531 112.996 92.0078 112.996 93.8535C112.996 94.8994 112.301 95.6992 111.062 96.1738V98.3887H114.595ZM107.476 100.727C110.833 100.727 112.837 101.693 112.855 103.486C112.837 105.262 110.833 106.246 107.476 106.246C104.083 106.246 102.079 105.262 102.079 103.486C102.079 101.693 104.083 100.727 107.476 100.727ZM107.476 101.781C104.962 101.799 103.468 102.414 103.486 103.486C103.468 104.541 104.962 105.174 107.476 105.174C109.954 105.174 111.466 104.541 111.466 103.486C111.466 102.414 109.954 101.799 107.476 101.781ZM107.476 92.043C104.927 92.043 103.345 92.7285 103.363 93.8535C103.345 94.9961 104.927 95.6641 107.476 95.6641C110.007 95.6641 111.589 94.9961 111.589 93.8535C111.589 92.7285 110.007 92.043 107.476 92.043ZM105.261 98.3887H109.691V96.5605C109.032 96.6748 108.293 96.7363 107.476 96.7363C106.659 96.7363 105.92 96.6748 105.261 96.5605V98.3887ZM130.598 90.6543V106.281H129.21V90.6543H130.598ZM127.522 93.2031V94.3281H118.065V93.2031H122.09V90.8125H123.479V93.2031H127.522ZM122.829 95.6113C125.079 95.6113 126.696 97.0879 126.696 99.1973C126.696 101.307 125.079 102.783 122.829 102.783C120.561 102.783 118.926 101.307 118.944 99.1973C118.926 97.0879 120.561 95.6113 122.829 95.6113ZM122.829 96.7715C121.335 96.7715 120.245 97.791 120.245 99.1973C120.245 100.621 121.335 101.623 122.829 101.605C124.305 101.623 125.378 100.621 125.378 99.1973C125.378 97.791 124.305 96.7715 122.829 96.7715ZM153.938 100.674V101.676H144.552V102.889H153.569V103.838H144.552V105.121H154.114V106.105H143.163V100.674H153.938ZM154.8 91.8496V92.8691H142.126V91.8496H147.821V90.4082H149.192V91.8496H154.8ZM148.507 93.5195C151.794 93.5195 153.569 94.2227 153.569 95.6289C153.569 97.0352 151.794 97.7383 148.507 97.7383C145.22 97.7383 143.427 97.0352 143.427 95.6289C143.427 94.2227 145.22 93.5195 148.507 93.5195ZM148.507 94.4863C146.134 94.4863 144.886 94.873 144.903 95.6289C144.886 96.3848 146.134 96.7715 148.507 96.7715C150.862 96.7715 152.11 96.3848 152.128 95.6289C152.11 94.873 150.862 94.4863 148.507 94.4863ZM155.626 98.6172V99.6719H141.388V98.6172H155.626ZM170.961 90.6543V93.9238H173.317V95.084H170.961V98.5469H169.59V90.6543H170.961ZM160.889 91.3574V96.5957C163.113 96.6045 165.406 96.4463 167.938 95.9277L168.113 97.0879C165.442 97.6328 163.104 97.791 160.748 97.791H159.5V91.3574H160.889ZM170.961 99.3027V103.117H162.401V104.945H171.541V106.07H161.029V102.027H169.59V100.41H160.994V99.3027H170.961ZM189.003 90.6543V106.316H187.632V90.6543H189.003ZM184.257 92.1133V97.668H178.421V101.359C181.014 101.359 183.326 101.245 186.121 100.797L186.261 101.957C183.378 102.414 181.005 102.52 178.316 102.52H177.015V96.543H182.869V93.2559H176.98V92.1133H184.257ZM206.096 95.4004V96.5078H195.391V91.2344H196.762V95.4004H206.096ZM207.749 98.6348V99.7598H193.44V98.6348H207.749ZM206.184 104.752V105.895H195.303V101.359H196.674V104.752H206.184ZM230.034 90.6719V102.133H228.663V90.6719H230.034ZM230.526 104.787V105.947H219.944V101.078H221.315V104.787H230.526ZM222.669 93.1152C222.651 95.4883 224.286 97.6328 226.606 98.4766L225.886 99.584C224.075 98.8896 222.669 97.4834 221.983 95.6816C221.289 97.5977 219.865 99.1357 218.046 99.8652L217.29 98.793C219.663 97.8789 221.263 95.5762 221.263 93.1152V91.5508H222.669V93.1152ZM242.416 91.7266V92.8691H236.598V94.9082H242.117V95.998H236.598V98.1602C239.639 98.1602 241.388 98.0811 243.436 97.7031L243.594 98.8457C241.432 99.2148 239.639 99.2852 236.404 99.2676H235.227V91.7266H242.416ZM246.705 90.6543V94.8203H249.061V95.998H246.705V100.129H245.334V90.6543H246.705ZM246.705 100.902V106.281H245.334V102.027H236.475V100.902H246.705ZM264.73 90.6543V106.316H263.341V90.6543H264.73ZM256.415 91.8672C258.736 91.8848 260.406 93.9941 260.406 97.3164C260.406 100.639 258.736 102.748 256.415 102.748C254.078 102.748 252.425 100.639 252.425 97.3164C252.425 93.9941 254.078 91.8848 256.415 91.8672ZM256.415 93.0977C254.851 93.1152 253.761 94.7676 253.761 97.3164C253.761 99.8652 254.851 101.518 256.415 101.518C257.98 101.518 259.07 99.8652 259.07 97.3164C259.07 94.7676 257.98 93.1152 256.415 93.0977ZM284.607 95.7871V96.9121H281.443V99.0918C282.902 99.0303 284.361 98.9248 285.715 98.7754L285.82 99.7949C282.463 100.252 278.736 100.357 275.801 100.357L275.59 99.2324C276.961 99.2236 278.499 99.2061 280.072 99.1445V96.9121H277.013V91.6738H284.484V92.8164H278.402V95.7871H284.607ZM288.404 90.6719V102.361H287.015V90.6719H288.404ZM288.914 104.787V105.947H278.262V101.553H279.633V104.787H288.914ZM304.97 90.6543V96.8418H307.589V98.002H304.97V106.316H303.599V90.6543H304.97ZM300.856 92.1836V93.3262H294.933V101.236C297.763 101.236 299.767 101.104 302.087 100.674L302.263 101.869C299.819 102.309 297.763 102.396 294.792 102.396H293.562V92.1836H300.856ZM311.885 104.963C311.27 104.963 310.742 104.453 310.76 103.82C310.742 103.205 311.27 102.695 311.885 102.695C312.5 102.695 313.01 103.205 313.01 103.82C313.01 104.453 312.5 104.963 311.885 104.963ZM14.3506 121.762V122.781H1.67676V121.762H7.37207V120.408H8.74316V121.762H14.3506ZM8.05762 123.432C11.3447 123.432 13.1201 124.1 13.1201 125.453C13.1201 126.71 11.5908 127.378 8.74316 127.475V128.564H15.1768V129.602H0.938477V128.564H7.37207V127.475C4.49805 127.378 2.97754 126.71 2.97754 125.453C2.97754 124.1 4.73535 123.432 8.05762 123.432ZM8.05762 124.381C5.68457 124.381 4.43652 124.75 4.4541 125.453C4.43652 126.174 5.68457 126.561 8.05762 126.561C10.4131 126.561 11.6611 126.174 11.6787 125.453C11.6611 124.75 10.4131 124.381 8.05762 124.381ZM13.3486 130.621V133.768H4.10254V135.086H13.8232V136.105H2.69629V132.801H11.96V131.623H2.66113V130.621H13.3486ZM31.3908 120.654V136.281H30.0021V120.654H31.3908ZM21.8635 125.629C21.8635 127.193 22.1799 129.505 23.4631 131.061C24.7111 129.54 25.0275 127.29 25.0275 125.629V122.061H26.3635V125.629C26.3459 127.686 26.9084 130.375 28.842 131.729L27.9631 132.73C26.7766 131.878 26.0734 130.463 25.7131 128.934C25.3439 130.489 24.6672 131.975 23.4631 132.854C22.2414 131.966 21.5646 130.472 21.2131 128.916C20.8264 130.428 20.1408 131.834 18.9982 132.695L18.0842 131.729C20.0002 130.34 20.5627 127.615 20.5627 125.629V122.061H21.8635V125.629ZM48.2904 125.4V126.508H37.5854V121.234H38.9564V125.4H48.2904ZM49.9428 128.635V129.76H35.6342V128.635H49.9428ZM48.3783 134.752V135.895H37.4975V131.359H38.8686V134.752H48.3783ZM64.5643 124.855C64.5643 127.615 66.3924 130.445 68.6072 131.535L67.7635 132.643C66.0408 131.737 64.5994 129.892 63.9139 127.721C63.2107 130.032 61.7342 132.001 59.9764 132.941L59.0975 131.834C61.3826 130.709 63.1932 127.703 63.2107 124.855V122.008H64.5643V124.855ZM71.4197 120.654V127H74.0389V128.195H71.4197V136.281H70.0486V120.654H71.4197ZM88.7764 120.654V126.877H91.3955V128.037H88.7764V136.316H87.4053V120.654H88.7764ZM84.3994 122.113V127.703H78.7041V131.359C81.6045 131.359 83.626 131.263 85.999 130.814L86.1396 131.957C83.6787 132.414 81.5869 132.52 78.5811 132.537H77.333V126.561H83.0283V123.256H77.2979V122.113H84.3994ZM99.6291 125.453C99.6291 128.107 101.563 130.797 103.865 131.799L103.092 132.889C101.264 132.054 99.6818 130.252 98.9611 128.09C98.2229 130.384 96.6496 132.379 94.8654 133.275L94.0393 132.186C96.2717 131.113 98.2229 128.16 98.2404 125.453V123.414H94.549V122.271H103.356V123.414H99.6291V125.453ZM106.924 120.654V136.281H105.535V120.654H106.924ZM116.986 125.453C116.986 128.107 118.919 130.797 121.222 131.799L120.449 132.889C118.621 132.054 117.038 130.252 116.318 128.09C115.579 130.384 114.006 132.379 112.222 133.275L111.396 132.186C113.628 131.113 115.579 128.16 115.597 125.453V123.414H111.906V122.271H120.712V123.414H116.986V125.453ZM124.281 120.654V136.281H122.892V120.654H124.281ZM136.645 122.078V129.268H129.421V122.078H136.645ZM130.774 123.203V128.16H135.309V123.203H130.774ZM140.969 120.654V125.418H143.325V126.578H140.969V132.115H139.598V120.654H140.969ZM141.69 134.787V135.947H131.196V131.025H132.549V134.787H141.69ZM148.676 133.68L147.304 138.461H146.004L146.971 133.68H148.676ZM13.2607 152.324V153.889C13.2607 155.857 13.2607 158.09 12.6807 161.482L11.2744 161.342C11.9072 158.143 11.9072 155.805 11.9072 153.889V153.467H2.48535V152.324H13.2607ZM15.1768 162.836V163.979H0.938477V162.836H15.1768ZM32.4525 151.85C32.4525 153.889 35.3002 155.752 38.0072 156.174L37.4623 157.264C35.0893 156.859 32.7426 155.541 31.7494 153.713C30.765 155.576 28.392 156.877 26.0189 157.281L25.474 156.191C28.1986 155.77 31.0287 153.959 31.0287 151.85V151.059H32.4525V151.85ZM38.9037 158.617V159.76H32.5404V162.959H31.1693V159.76H24.5951V158.617H38.9037ZM37.3041 164.787V165.947H26.4232V161.43H27.8119V164.787H37.3041ZM54.1861 150.654V155.418H56.5416V156.578H54.1861V162.098H52.7975V150.654H54.1861ZM49.9674 151.867C49.9674 155.893 47.0846 158.881 42.5846 160.287L41.9869 159.18C45.7311 158.011 48.1744 155.778 48.4732 153.027H42.6373V151.867H49.9674ZM54.9068 164.787V165.947H44.3951V160.938H45.7662V164.787H54.9068ZM64.4412 151.797C66.9021 151.797 68.6424 153.291 68.6424 155.471C68.6424 157.65 66.9021 159.145 64.4412 159.145C61.9803 159.145 60.2049 157.65 60.2225 155.471C60.2049 153.291 61.9803 151.797 64.4412 151.797ZM64.4412 153.01C62.7713 153.01 61.5584 154.012 61.576 155.471C61.5584 156.93 62.7713 157.932 64.4412 157.932C66.0936 157.932 67.2889 156.93 67.2889 155.471C67.2889 154.012 66.0936 153.01 64.4412 153.01ZM72.1404 150.654V166.316H70.7693V150.654H72.1404ZM59.4139 161.693C62.2967 161.693 66.2693 161.676 69.7322 161.166L69.8377 162.186C66.2693 162.854 62.4197 162.871 59.6072 162.871L59.4139 161.693ZM95.885 150.654V159.742H94.5314V150.654H95.885ZM96.2893 160.85V161.939H91.6486C91.7277 163.425 94.1887 164.884 96.8342 165.209L96.3244 166.281C93.9865 165.947 91.8508 164.849 90.9279 163.398C89.9963 164.884 87.799 165.965 85.4436 166.281L84.9514 165.227C87.5969 164.937 90.1457 163.478 90.2248 161.939H85.6018V160.85H90.2424V159.338H91.6135V160.85H96.2893ZM85.1975 151.322V153.748H89.8029V151.322H91.174V158.301H83.8264V151.322H85.1975ZM85.1975 157.193H89.8029V154.82H85.1975V157.193ZM109.023 152.395V153.203C109.005 154.434 109.005 156.508 108.566 159.408L107.177 159.285C107.599 156.666 107.634 154.768 107.634 153.52H101.078V152.395H109.023ZM104.927 156.859V161.605C106.659 161.544 108.434 161.43 110.06 161.236L110.13 162.273C106.843 162.783 103.169 162.854 100.374 162.836L100.199 161.693C101.227 161.685 102.37 161.676 103.574 161.641V156.859H104.927ZM112.415 150.654V157.193H114.947V158.389H112.415V166.281H111.044V150.654H112.415ZM136.353 152.324V153.889C136.353 155.857 136.353 158.09 135.773 161.482L134.367 161.342C135 158.143 135 155.805 135 153.889V153.467H125.578V152.324H136.353ZM138.269 162.836V163.979H124.031V162.836H138.269ZM154.29 150.672V159.936H152.919V150.672H154.29ZM149.315 151.621V155.857H143.55V158.02C146.345 158.037 148.437 157.949 150.968 157.527L151.126 158.688C148.507 159.092 146.362 159.18 143.479 159.18H142.214V154.768H147.944V152.729H142.179V151.621H149.315ZM154.29 160.779V166.07H144.13V160.779H154.29ZM145.483 161.904V164.945H152.937V161.904H145.483ZM164.035 155.453C164.018 157.967 165.828 160.727 168.096 161.799L167.305 162.889C165.547 162.036 164.062 160.173 163.367 158.055C162.647 160.357 161.073 162.379 159.324 163.275L158.481 162.186C160.731 161.096 162.664 158.125 162.682 155.453V153.414H159.043V152.271H167.551V153.414H164.035V155.453ZM170.838 150.654V156.982H173.457V158.16H170.838V166.281H169.467V150.654H170.838ZM188.74 155.4V156.508H178.035V151.234H179.406V155.4H188.74ZM190.392 158.635V159.76H176.083V158.635H190.392ZM188.828 164.752V165.895H177.947V161.359H179.318V164.752H188.828ZM207.633 152.236V162.309H200.426V152.236H207.633ZM201.762 153.344V161.184H206.262V153.344H201.762ZM211.869 150.654V156.895H214.488V158.09H211.869V166.281H210.498V150.654H211.869ZM224.251 151.006C227.644 151.006 229.771 152.096 229.771 153.977C229.771 155.822 227.644 156.895 224.251 156.895C220.858 156.895 218.714 155.822 218.714 153.977C218.714 152.096 220.858 151.006 224.251 151.006ZM224.251 152.113C221.72 152.113 220.12 152.816 220.138 153.977C220.12 155.119 221.72 155.787 224.251 155.805C226.747 155.787 228.364 155.119 228.364 153.977C228.364 152.816 226.747 152.113 224.251 152.113ZM229.63 160.938V166.07H218.872V160.938H229.63ZM220.243 162.045V164.945H228.276V162.045H220.243ZM231.37 158.248V159.391H217.132V158.248H231.37ZM248.779 158.512V159.654H234.488V158.512H240.922V156.104H242.276V158.512H248.779ZM242.293 151.639C242.293 153.713 245.106 155.453 247.865 155.84L247.303 156.947C244.93 156.534 242.583 155.277 241.608 153.467C240.623 155.286 238.268 156.534 235.877 156.947L235.35 155.84C238.11 155.453 240.904 153.713 240.904 151.639V150.9H242.293V151.639ZM246.969 161.184V166.281H245.58V162.291H236.071V161.184H246.969ZM265.24 150.654V166.281H263.904V150.654H265.24ZM262.093 150.988V165.49H260.775V157.896H258.771C258.621 160.938 257.329 162.836 255.396 162.836C253.357 162.836 252.038 160.727 252.038 157.404C252.038 154.082 253.357 151.973 255.396 151.973C257.294 151.973 258.578 153.81 258.753 156.754H260.775V150.988H262.093ZM255.396 153.273C254.13 153.273 253.322 154.855 253.339 157.404C253.322 159.936 254.13 161.535 255.396 161.518C256.662 161.535 257.47 159.936 257.47 157.404C257.47 154.855 256.662 153.273 255.396 153.273ZM282.638 151.674C285.961 151.691 288.351 153.309 288.351 155.77C288.351 158.099 286.277 159.646 283.306 159.83V163.117H289.828V164.277H275.519V163.117H281.953V159.83C278.991 159.637 276.926 158.09 276.926 155.77C276.926 153.309 279.316 151.691 282.638 151.674ZM282.638 152.816C280.107 152.816 278.262 154.012 278.262 155.77C278.262 157.58 280.107 158.74 282.638 158.758C285.17 158.74 287.015 157.58 287.015 155.77C287.015 154.012 285.17 152.816 282.638 152.816ZM299.257 152.359V157.826H294.739V161.377C296.532 161.368 298.229 161.289 300.259 160.955L300.382 162.08C298.167 162.467 296.392 162.537 294.423 162.537H293.403V156.684H297.921V153.52H293.368V152.359H299.257ZM306.235 150.654V166.281H304.917V157.984H302.614V165.473H301.349V151.006H302.614V156.842H304.917V150.654H306.235ZM328.767 150.672V154.258H331.14V155.418H328.767V159.496H327.396V150.672H328.767ZM328.767 160.357V166.07H318.871V160.357H328.767ZM320.224 161.447V164.945H327.431V161.447H320.224ZM318.695 151.463V157.141C320.918 157.132 323.212 156.956 325.744 156.438L325.919 157.598C323.265 158.125 320.91 158.301 318.554 158.301H317.306V151.463H318.695ZM346.546 155.4V156.508H335.84V151.234H337.212V155.4H346.546ZM348.198 158.635V159.76H333.889V158.635H348.198ZM346.633 164.752V165.895H335.753V161.359H337.124V164.752H346.633ZM363.357 150.654V156.842H365.976V158.002H363.357V166.316H361.986V150.654H363.357ZM359.244 152.184V153.326H353.32V161.236C356.15 161.236 358.154 161.104 360.474 160.674L360.65 161.869C358.207 162.309 356.15 162.396 353.18 162.396H351.949V152.184H359.244ZM370.272 164.963C369.657 164.963 369.13 164.453 369.147 163.82C369.13 163.205 369.657 162.695 370.272 162.695C370.888 162.695 371.397 163.205 371.397 163.82C371.397 164.453 370.888 164.963 370.272 164.963Z" fill="#1A1A1A"/>
</svg>
