<svg width="320" height="199" viewBox="0 0 320 199" fill="none" xmlns="http://www.w3.org/2000/svg">
<path d="M13.8232 0.654297V9.74219H12.4697V0.654297H13.8232ZM14.2275 10.8496V11.9395H9.58691C9.66602 13.4248 12.127 14.8838 14.7725 15.209L14.2627 16.2812C11.9248 15.9473 9.78906 14.8486 8.86621 13.3984C7.93457 14.8838 5.7373 15.9648 3.38184 16.2812L2.88965 15.2266C5.53516 14.9365 8.08398 13.4775 8.16309 11.9395H3.54004V10.8496H8.18066V9.33789H9.55176V10.8496H14.2275ZM3.13574 1.32227V3.74805H7.74121V1.32227H9.1123V8.30078H1.76465V1.32227H3.13574ZM3.13574 7.19336H7.74121V4.82031H3.13574V7.19336ZM23.6143 0.935547C27.0947 0.935547 29.1338 1.88477 29.1338 3.625C29.1338 5.40039 27.0947 6.34961 23.6143 6.36719C20.1338 6.34961 18.0771 5.40039 18.0771 3.625C18.0771 1.88477 20.1338 0.935547 23.6143 0.935547ZM23.6143 1.97266C21.0127 1.97266 19.501 2.60547 19.5186 3.625C19.501 4.71484 21.0127 5.3125 23.6143 5.3125C26.1982 5.3125 27.7275 4.71484 27.7275 3.625C27.7275 2.60547 26.1982 1.97266 23.6143 1.97266ZM30.7334 7.42188V8.54688H16.4951V7.42188H30.7334ZM28.9053 9.90039V13.3984H19.624V15.0156H29.3799V16.1055H18.2529V12.3789H27.5518V10.9551H18.2178V9.90039H28.9053ZM48.7861 0.654297V4.43359H51.1416V5.59375H48.7861V9.79492H47.415V0.654297H48.7861ZM38.5908 1.55078V3.94141H43.1436V1.55078H44.5146V8.81055H37.2373V1.55078H38.5908ZM38.5908 7.70312H43.1436V5.04883H38.5908V7.70312ZM48.9092 10.6738V11.7812H40.3486V14.9453H49.208V16.0703H38.9775V10.6738H48.9092ZM56.3096 1.86719C58.6123 1.88477 60.2471 3.99414 60.2646 7.31641C60.2471 10.6387 58.6123 12.748 56.3096 12.748C53.9893 12.748 52.3721 10.6387 52.3721 7.31641C52.3721 3.99414 53.9893 1.88477 56.3096 1.86719ZM56.3096 3.09766C54.7627 3.11523 53.6729 4.76758 53.6729 7.31641C53.6729 9.86523 54.7627 11.5176 56.3096 11.5176C57.874 11.5176 58.9287 9.86523 58.9287 7.31641C58.9287 4.76758 57.874 3.11523 56.3096 3.09766ZM64.2197 0.654297V6.89453H66.8389V8.08984H64.2197V16.2812H62.8486V0.654297H64.2197ZM85.1201 0.654297V16.2812H83.7314V0.654297H85.1201ZM81.5166 2.35938V3.50195H79.7412V11.0254C80.6201 10.9639 81.4902 10.8848 82.3252 10.7793L82.4131 11.8164C79.0029 12.3438 75.2412 12.3965 72.3408 12.4141L72.1826 11.2363L74.3447 11.2188V3.50195H72.5869V2.35938H81.5166ZM75.6982 11.2012C76.5771 11.1836 77.4824 11.1484 78.3877 11.0957V3.50195H75.6982V11.2012ZM91.958 1.86719C94.085 1.88477 95.6143 3.7041 95.8428 6.63086H99.3408V0.654297H100.712V16.3164H99.3408V7.77344H95.8604C95.6934 10.832 94.1377 12.748 91.958 12.748C89.6553 12.748 88.0381 10.6387 88.0381 7.31641C88.0381 3.99414 89.6553 1.88477 91.958 1.86719ZM91.958 3.09766C90.4111 3.11523 89.3564 4.76758 89.3564 7.31641C89.3564 9.86523 90.4111 11.5176 91.958 11.5176C93.4873 11.5176 94.5596 9.86523 94.5596 7.31641C94.5596 4.76758 93.4873 3.11523 91.958 3.09766ZM105.458 1.79688V7.94922C107.682 7.95801 109.993 7.81738 112.542 7.28125L112.7 8.42383C110.046 8.98633 107.673 9.12695 105.317 9.12695H104.069V1.79688H105.458ZM115.53 0.671875V5.3125H117.886V6.50781H115.53V11.957H114.159V0.671875H115.53ZM116.093 14.7871V15.9473H105.81V10.8496H107.181V14.7871H116.093ZM131.544 2.02539V9.26758H124.214V2.02539H131.544ZM125.567 3.16797V8.16016H130.19V3.16797H125.567ZM136.29 0.671875V11.9043H134.919V0.671875H136.29ZM136.782 14.6113V15.7539H126.2V10.8145H127.571V14.6113H136.782ZM153.2 7.22852V8.33594H138.944V7.22852H153.2ZM151.495 4.82031V5.94531H140.843V1.19922H151.337V2.30664H142.231V4.82031H151.495ZM151.354 9.74219V13.3633H142.073V14.9805H151.829V16.1055H140.702V12.3262H150.001V10.8145H140.667V9.74219H151.354ZM160.601 2.39453V7.79102H156.364V11.2715C158.166 11.2627 159.871 11.2012 161.954 10.832L162.06 11.9746C159.827 12.3789 158.052 12.4141 156.065 12.4316H155.028V6.64844H159.282V3.53711H154.993V2.39453H160.601ZM167.86 0.654297V16.2812H166.542V0.654297H167.86ZM164.661 1.04102V15.4551H163.36V7.42188H161.356V6.29688H163.36V1.04102H164.661ZM182.696 5.40039V6.50781H171.991V1.23438H173.362V5.40039H182.696ZM184.349 8.63477V9.75977H170.04V8.63477H184.349ZM182.784 14.752V15.8945H171.903V11.3594H173.274V14.752H182.784ZM13.2959 30.6367V36.8066H15.5811V37.9844H13.2959V46.2812H11.9248V30.6367H13.2959ZM5.38574 32.3066V33.4492H2.78418V41.0078C3.55762 40.9902 4.50684 40.9199 5.54395 40.6914L5.68457 41.8516C4.20801 42.168 3.03027 42.1855 2.09863 42.1855H1.41309V32.3066H5.38574ZM10.4482 32.3066V33.4492H7.65332V41.0254C8.875 41.0078 9.85059 40.9287 10.958 40.6562L11.0986 41.8164C9.72754 42.1504 8.62012 42.1855 7.03809 42.1855H6.28223V32.3066H10.4482ZM30.7334 38.1777V39.3203H16.4951V38.1777H30.7334ZM29.5029 35.5938V36.7188H24.0713V31.4277H29.3623V32.5527H25.46V35.5938H29.5029ZM23.1924 31.4277V32.5527H19.2373V35.5938C20.5908 35.5762 21.918 35.4795 23.4033 35.1367L23.5615 36.2793C21.7861 36.666 20.292 36.7188 18.7275 36.7188H17.8311V31.4277H23.1924ZM24.335 41.0605C24.335 43.1699 26.7959 44.7168 29.6436 45.1211L29.1162 46.2109C26.7432 45.8154 24.5723 44.6992 23.6318 42.9766C22.6914 44.6992 20.5205 45.8154 18.1475 46.2109L17.6201 45.1211C20.4502 44.7168 22.9287 43.1699 22.9287 41.0605V40.5508H24.335V41.0605ZM44.2686 30.6719V35.8223H46.624V36.9824H44.2686V42.3789H42.8975V30.6719H44.2686ZM41.4033 32.5879V33.7129H32.0869V32.5879H36.0596V30.6719H37.4307V32.5879H41.4033ZM36.7451 34.5742C38.9775 34.5742 40.4893 35.7168 40.5068 37.4922C40.4893 39.25 38.9775 40.375 36.7451 40.375C34.4951 40.375 32.9658 39.25 32.9834 37.4922C32.9658 35.7168 34.4951 34.5742 36.7451 34.5742ZM36.7451 35.6641C35.2686 35.6641 34.2842 36.3848 34.3018 37.4922C34.2842 38.5996 35.2686 39.3027 36.7451 39.2852C38.2041 39.3027 39.1885 38.5996 39.2061 37.4922C39.1885 36.3848 38.2041 35.6641 36.7451 35.6641ZM44.9893 44.7871V45.9473H34.4951V41.4473H35.8486V44.7871H44.9893ZM64.2197 30.6543V36.8066H66.8389V38.002H64.2197V46.2812H62.8486V30.6543H64.2197ZM54.1475 31.9902V36.1211H58.7178V31.9902H60.0889V42.5371H52.7764V31.9902H54.1475ZM54.1475 41.377H58.7178V37.2285H54.1475V41.377ZM79.8994 30.6719V34.6797H82.2725V35.8574H79.8994V39.9883H78.5283V30.6719H79.8994ZM79.8994 40.7617V46.0703H70.0029V40.7617H79.8994ZM71.3564 41.834V44.9453H78.5635V41.834H71.3564ZM75.4346 31.5156V35.7871H69.7393V38.002C72.5166 38.002 74.5293 37.9229 76.9639 37.5273L77.1045 38.6348C74.5908 39.0742 72.499 39.1621 69.5986 39.1621H68.3857V34.7148H74.0811V32.6582H68.3506V31.5156H75.4346ZM90.3584 30.9355C93.8389 30.9355 95.8779 31.8848 95.8779 33.625C95.8779 35.4004 93.8389 36.3496 90.3584 36.3672C86.8779 36.3496 84.8213 35.4004 84.8213 33.625C84.8213 31.8848 86.8779 30.9355 90.3584 30.9355ZM90.3584 31.9727C87.7568 31.9727 86.2451 32.6055 86.2627 33.625C86.2451 34.7148 87.7568 35.3125 90.3584 35.3125C92.9424 35.3125 94.4717 34.7148 94.4717 33.625C94.4717 32.6055 92.9424 31.9727 90.3584 31.9727ZM97.4775 37.4219V38.5469H83.2393V37.4219H97.4775ZM95.6494 39.9004V43.3984H86.3682V45.0156H96.124V46.1055H84.9971V42.3789H94.2959V40.9551H84.9619V39.9004H95.6494ZM116.233 30.6543V46.2812H114.845V30.6543H116.233ZM111.61 32.3594C111.593 36.8594 109.501 40.832 104.263 43.3457L103.507 42.2207C107.734 40.2168 109.888 37.2197 110.204 33.4844H104.228V32.3594H111.61ZM130.964 30.6543V36.8418H133.583V38.002H130.964V46.3164H129.593V30.6543H130.964ZM126.851 32.1836V33.3262H120.927V41.2363C123.757 41.2363 125.761 41.1045 128.081 40.6738L128.257 41.8691C125.813 42.3086 123.757 42.3965 120.786 42.3965H119.556V32.1836H126.851ZM147.329 30.6543V46.3164H145.958V30.6543H147.329ZM142.583 32.1133V37.668H136.747V41.3594C139.34 41.3594 141.651 41.2451 144.446 40.7969L144.587 41.957C141.704 42.4141 139.331 42.5195 136.642 42.5195H135.341V36.543H141.194V33.2559H135.306V32.1133H142.583ZM162.077 30.6543V36.8418H164.696V38.002H162.077V46.3164H160.706V30.6543H162.077ZM157.964 32.1836V33.3262H152.04V41.2363C154.87 41.2363 156.874 41.1045 159.194 40.6738L159.37 41.8691C156.927 42.3086 154.87 42.3965 151.899 42.3965H150.669V32.1836H157.964ZM183.47 31.7617V32.7812H170.796V31.7617H176.491V30.4082H177.862V31.7617H183.47ZM177.177 33.4316C180.464 33.4316 182.239 34.0996 182.239 35.4531C182.239 36.71 180.71 37.3779 177.862 37.4746V38.5645H184.296V39.6016H170.058V38.5645H176.491V37.4746C173.617 37.3779 172.097 36.71 172.097 35.4531C172.097 34.0996 173.854 33.4316 177.177 33.4316ZM177.177 34.3809C174.804 34.3809 173.556 34.75 173.573 35.4531C173.556 36.1738 174.804 36.5605 177.177 36.5605C179.532 36.5605 180.78 36.1738 180.798 35.4531C180.78 34.75 179.532 34.3809 177.177 34.3809ZM182.468 40.6211V43.7676H173.222V45.0859H182.942V46.1055H171.815V42.8008H181.079V41.623H171.78V40.6211H182.468ZM198.71 30.6543V46.2812H197.321V30.6543H198.71ZM189.183 35.6289C189.183 37.1934 189.499 39.5049 190.782 41.0605C192.03 39.54 192.347 37.29 192.347 35.6289V32.0605H193.683V35.6289C193.665 37.6855 194.228 40.375 196.161 41.7285L195.282 42.7305C194.096 41.8779 193.393 40.4629 193.032 38.9336C192.663 40.4893 191.986 41.9746 190.782 42.8535C189.561 41.9658 188.884 40.4717 188.532 38.916C188.146 40.4277 187.46 41.834 186.317 42.6953L185.403 41.7285C187.319 40.3398 187.882 37.6152 187.882 35.6289V32.0605H189.183V35.6289ZM215.462 37.9141V39.0039H201.153V37.9141H215.462ZM213.669 40.252V43.5742H204.282V45.0684H214.179V46.0703H202.894V42.625H212.298V41.2891H202.876V40.252H213.669ZM213.616 31.1289V34.3633H204.388V35.7344H213.897V36.7363H203.017V33.4141H212.228V32.1309H202.964V31.1289H213.616ZM233.462 30.6543V33.9238H235.817V35.084H233.462V38.5469H232.091V30.6543H233.462ZM223.39 31.3574V36.5957C225.613 36.6045 227.907 36.4463 230.438 35.9277L230.614 37.0879C227.942 37.6328 225.604 37.791 223.249 37.791H222.001V31.3574H223.39ZM233.462 39.3027V43.1172H224.901V44.9453H234.042V46.0703H223.53V42.0273H232.091V40.4102H223.495V39.3027H233.462ZM249.687 30.6719V42.168H248.333V30.6719H249.687ZM250.144 44.7871V45.9473H239.438V41.2715H240.827V44.7871H250.144ZM244.729 31.7793V36.2969H238.964V38.793C241.864 38.793 243.921 38.7051 246.399 38.2656L246.54 39.4082C243.991 39.8477 241.882 39.9355 238.894 39.9531H237.628V35.207H243.358V32.9043H237.593V31.7793H244.729ZM264.452 30.6543V36.8418H267.071V38.002H264.452V46.3164H263.081V30.6543H264.452ZM260.339 32.1836V33.3262H254.415V41.2363C257.245 41.2363 259.249 41.1045 261.569 40.6738L261.745 41.8691C259.302 42.3086 257.245 42.3965 254.274 42.3965H253.044V32.1836H260.339ZM269.567 44.9629C268.952 44.9629 268.425 44.4531 268.442 43.8203C268.425 43.2051 268.952 42.6953 269.567 42.6953C270.183 42.6953 270.692 43.2051 270.692 43.8203C270.692 44.4531 270.183 44.9629 269.567 44.9629ZM13.2607 62.3242V63.8887C13.2607 65.8574 13.2607 68.0898 12.6807 71.4824L11.2744 71.3418C11.9072 68.1426 11.9072 65.8047 11.9072 63.8887V63.4668H2.48535V62.3242H13.2607ZM15.1768 72.8359V73.9785H0.938477V72.8359H15.1768ZM33.1064 60.6543V66.8066H35.7256V68.002H33.1064V76.2812H31.7354V60.6543H33.1064ZM23.0342 61.9902V66.1211H27.6045V61.9902H28.9756V72.5371H21.6631V61.9902H23.0342ZM23.0342 71.377H27.6045V67.2285H23.0342V71.377ZM48.7861 60.6719V64.6797H51.1592V65.8574H48.7861V69.9883H47.415V60.6719H48.7861ZM48.7861 70.7617V76.0703H38.8896V70.7617H48.7861ZM40.2432 71.834V74.9453H47.4502V71.834H40.2432ZM44.3213 61.5156V65.7871H38.626V68.002C41.4033 68.002 43.416 67.9229 45.8506 67.5273L45.9912 68.6348C43.4775 69.0742 41.3857 69.1621 38.4854 69.1621H37.2725V64.7148H42.9678V62.6582H37.2373V61.5156H44.3213ZM70.9346 68.5117V69.6543H56.6436V68.5117H63.0771V66.1035H64.4307V68.5117H70.9346ZM64.4482 61.6387C64.4482 63.7129 67.2607 65.4531 70.0205 65.8398L69.458 66.9473C67.085 66.5342 64.7383 65.2773 63.7627 63.4668C62.7783 65.2861 60.4229 66.5342 58.0322 66.9473L57.5049 65.8398C60.2646 65.4531 63.0596 63.7129 63.0596 61.6387V60.9004H64.4482V61.6387ZM69.124 71.1836V76.2812H67.7354V72.291H58.2256V71.1836H69.124ZM75.9443 61.8848C77.834 61.8848 79.2754 63.1855 79.4951 65.1367H81.1826V60.9707H82.4834V71.9043H81.1826V66.2969H79.4951C79.2314 68.1953 77.8076 69.4609 75.9443 69.4434C73.8525 69.4609 72.3584 67.9141 72.376 65.6816C72.3584 63.4316 73.8525 61.8848 75.9443 61.8848ZM75.9443 63.0801C74.6084 63.0801 73.6064 64.1699 73.624 65.6816C73.6064 67.1934 74.6084 68.2656 75.9443 68.2656C77.2803 68.2656 78.2646 67.1934 78.2822 65.6816C78.2646 64.1699 77.2803 63.0801 75.9443 63.0801ZM85.4717 60.6543V72.3613H84.1533V60.6543H85.4717ZM85.9463 74.7871V75.9473H75.2236V70.8496H76.5947V74.7871H85.9463ZM104.896 65.9277V67.0703H94.1201V61.4629H95.4912V65.9277H104.896ZM106.583 69.4258V70.5859H100.044V76.2812H98.6729V70.5859H92.2744V69.4258H106.583ZM120.259 61.498V62.7285C120.259 64.0469 120.259 65.541 119.872 67.5801H122.14V68.6875H115.706V72.4668H114.353V68.6875H107.831V67.5801H118.466C118.888 65.5322 118.888 64.0469 118.888 62.7285V62.6406H109.642V61.498H120.259ZM120.593 74.7871V75.9473H109.642V71.0605H111.03V74.7871H120.593ZM135.481 60.6543V67.0176H138.013V68.1777H135.481V76.2812H134.11V60.6543H135.481ZM131.438 62.3418C131.438 66.7715 129.364 70.7969 124.267 73.3105L123.493 72.2207C127.536 70.208 129.733 67.2021 130.05 63.502H124.214V62.3418H131.438ZM153.235 67.9141V69.0039H138.927V67.9141H153.235ZM151.442 70.252V73.5742H142.056V75.0684H151.952V76.0703H140.667V72.625H150.071V71.2891H140.649V70.252H151.442ZM151.39 61.1289V64.3633H142.161V65.7344H151.671V66.7363H140.79V63.4141H150.001V62.1309H140.737V61.1289H151.39ZM164.169 61.4277C166.507 61.4102 168.177 62.6934 168.177 64.6094C168.177 66.5078 166.507 67.8262 164.169 67.8086C161.831 67.8262 160.161 66.5078 160.161 64.6094C160.161 62.6934 161.831 61.4102 164.169 61.4277ZM164.169 62.5527C162.604 62.5352 161.497 63.3965 161.515 64.6094C161.497 65.8398 162.604 66.6836 164.169 66.666C165.751 66.6836 166.858 65.8398 166.858 64.6094C166.858 63.3965 165.751 62.5352 164.169 62.5527ZM171.903 60.6719V76.2988H170.55V60.6719H171.903ZM158.983 69.1445C161.919 69.1445 165.927 69.0918 169.407 68.582L169.495 69.6191C168.001 69.8916 166.445 70.0586 164.942 70.1465V75.8066H163.571V70.2344C161.98 70.3047 160.478 70.3135 159.177 70.3223L158.983 69.1445ZM182.38 63.3613V64.4863H174.54V63.3613H177.792V61.1289H179.163V63.3613H182.38ZM178.46 65.541C180.429 65.541 181.835 67.0176 181.853 69.0918C181.835 71.1836 180.429 72.6777 178.46 72.6777C176.509 72.6777 175.103 71.1836 175.103 69.0918C175.103 67.0176 176.509 65.541 178.46 65.541ZM178.46 66.7012C177.229 66.7188 176.333 67.7207 176.333 69.0918C176.333 70.4805 177.229 71.4824 178.46 71.4648C179.708 71.4824 180.622 70.4805 180.622 69.0918C180.622 67.7207 179.708 66.7188 178.46 66.7012ZM187.882 60.6543V76.2812H186.563V68.3887H184.489V75.5078H183.188V61.041H184.489V67.2461H186.563V60.6543H187.882ZM13.8584 90.6543V106.281H12.4697V90.6543H13.8584ZM9.23535 92.3594C9.21777 96.8594 7.12598 100.832 1.8877 103.346L1.13184 102.221C5.35938 100.217 7.5127 97.2197 7.8291 93.4844H1.85254V92.3594H9.23535ZM29.1162 97.9844V99.1094H24.2822V103.152H30.8037V104.312H16.4951V103.152H22.9287V99.1094H18.3232V91.9375H28.958V93.0625H19.7119V97.9844H29.1162ZM44.1455 90.6543V97.1055H46.7646V98.248H44.1455V106.281H42.7744V90.6543H44.1455ZM41.2627 93.168V94.3105H31.9639V93.168H35.9893V90.8477H37.3604V93.168H41.2627ZM36.6924 95.6113C38.9072 95.6113 40.5068 97.0879 40.5244 99.1973C40.5068 101.307 38.9072 102.783 36.6924 102.783C34.46 102.783 32.8428 101.307 32.8604 99.1973C32.8428 97.0879 34.46 95.6113 36.6924 95.6113ZM36.6924 96.7715C35.2334 96.7715 34.1611 97.791 34.1787 99.1973C34.1611 100.621 35.2334 101.623 36.6924 101.605C38.1338 101.623 39.1885 100.621 39.2061 99.1973C39.1885 97.791 38.1338 96.7715 36.6924 96.7715ZM55.7119 91.9727V93.1152H49.876V98.6348C52.6797 98.6348 54.4902 98.5381 56.5908 98.125L56.7666 99.2676C54.5342 99.6543 52.6357 99.7773 49.7002 99.7773H48.5225V91.9727H55.7119ZM60.5635 90.6719V102.08H59.1748V96.1387H54.6924V95.0137H59.1748V90.6719H60.5635ZM60.9854 104.91V106.035H50.4912V101.219H51.8799V104.91H60.9854ZM75.54 92.2363V102.309H68.333V92.2363H75.54ZM69.6689 93.3438V101.184H74.1689V93.3438H69.6689ZM79.7764 90.6543V96.8945H82.3955V98.0898H79.7764V106.281H78.4053V90.6543H79.7764ZM90.3584 91.0059C93.751 91.0059 95.8779 92.0957 95.8779 93.9766C95.8779 95.8223 93.751 96.8945 90.3584 96.8945C86.9658 96.8945 84.8213 95.8223 84.8213 93.9766C84.8213 92.0957 86.9658 91.0059 90.3584 91.0059ZM90.3584 92.1133C87.8271 92.1133 86.2275 92.8164 86.2451 93.9766C86.2275 95.1191 87.8271 95.7871 90.3584 95.8047C92.8545 95.7871 94.4717 95.1191 94.4717 93.9766C94.4717 92.8164 92.8545 92.1133 90.3584 92.1133ZM95.7373 100.938V106.07H84.9795V100.938H95.7373ZM86.3506 102.045V104.945H94.3838V102.045H86.3506ZM97.4775 98.248V99.3906H83.2393V98.248H97.4775ZM111.681 90.6543V106.316H110.292V90.6543H111.681ZM103.366 91.8672C105.687 91.8848 107.356 93.9941 107.356 97.3164C107.356 100.639 105.687 102.748 103.366 102.748C101.028 102.748 99.376 100.639 99.376 97.3164C99.376 93.9941 101.028 91.8848 103.366 91.8672ZM103.366 93.0977C101.802 93.1152 100.712 94.7676 100.712 97.3164C100.712 99.8652 101.802 101.518 103.366 101.518C104.931 101.518 106.021 99.8652 106.021 97.3164C106.021 94.7676 104.931 93.1152 103.366 93.0977ZM131.087 90.6543V94.4863H133.442V95.6465H131.087V99.5312H129.716V90.6543H131.087ZM126.534 91.7266V92.8516H120.979V97.457C124.117 97.4746 125.901 97.3604 127.993 96.9473L128.169 98.0723C125.972 98.5117 124.108 98.5996 120.821 98.5996H119.608V91.7266H126.534ZM131.087 100.34V106.07H121.226V100.34H131.087ZM122.579 101.465V104.945H129.716V101.465H122.579ZM142.354 92.3594C142.354 93.2471 142.275 94.1172 142.108 94.9609H145.993V90.6367H147.364V106.281H145.993V100.27H141.581V99.127H145.993V96.0859H141.827C140.922 98.9863 138.856 101.535 135.165 103.328L134.444 102.203C138.61 100.19 140.676 97.1758 140.966 93.4844H135.13V92.3594H142.354ZM159.792 101.148C159.792 102.528 160.53 103.996 162.024 104.84C163.501 103.917 164.292 102.361 164.292 101.148V100.287H165.646V101.148C165.646 102.748 166.823 104.365 168.827 105.051L168.142 106.07C166.577 105.517 165.479 104.427 164.942 103.117C164.459 104.383 163.501 105.578 162.06 106.193C160.539 105.613 159.572 104.462 159.106 103.152C158.553 104.418 157.472 105.508 155.978 106.07L155.274 105.051C157.243 104.312 158.438 102.643 158.456 101.148V100.287H159.792V101.148ZM167.403 90.6719V99.6016H166.032V90.6719H167.403ZM158.966 91.5859C161.339 91.5859 163.062 93.0625 163.062 95.2422C163.062 97.3867 161.339 98.8633 158.966 98.8633C156.593 98.8633 154.87 97.3867 154.87 95.2422C154.87 93.0625 156.593 91.5859 158.966 91.5859ZM158.966 92.7637C157.366 92.7461 156.206 93.7832 156.224 95.2422C156.206 96.6836 157.366 97.7031 158.966 97.7207C160.548 97.7031 161.708 96.6836 161.708 95.2422C161.708 93.7832 160.548 92.7461 158.966 92.7637ZM182.151 90.6543V96.8418H184.771V98.002H182.151V106.316H180.78V90.6543H182.151ZM178.038 92.1836V93.3262H172.114V101.236C174.944 101.236 176.948 101.104 179.269 100.674L179.444 101.869C177.001 102.309 174.944 102.396 171.974 102.396H170.743V92.1836H178.038ZM187.267 104.963C186.651 104.963 186.124 104.453 186.142 103.82C186.124 103.205 186.651 102.695 187.267 102.695C187.882 102.695 188.392 103.205 188.392 103.82C188.392 104.453 187.882 104.963 187.267 104.963ZM8.93652 121.498V124.047H12.5049V120.654H13.876V128.688H12.5049V125.172H8.93652V127.879H1.67676V121.498H8.93652ZM3.04785 122.605V126.771H7.58301V122.605H3.04785ZM13.876 129.479V133.223H5.15723V134.963H14.4736V136.07H3.78613V132.168H12.5049V130.586H3.75098V129.479H13.876ZM29.3975 120.654V136.316H28.0264V120.654H29.3975ZM24.6514 122.113V127.668H18.8154V131.359C21.4082 131.359 23.7197 131.245 26.5146 130.797L26.6553 131.957C23.7725 132.414 21.3994 132.52 18.71 132.52H17.4092V126.543H23.2627V123.256H17.374V122.113H24.6514ZM40.9287 122.236V123.379H38.415V131.078C39.1797 131.069 40.041 131.008 40.999 130.779L41.1748 131.939C39.8213 132.238 38.7139 132.256 37.7119 132.256H37.0615V122.236H40.9287ZM46.0615 122.236V123.379H43.1787V131.096C44.4531 131.078 45.5254 131.017 46.7119 130.727L46.8525 131.869C45.3936 132.221 44.1982 132.256 42.5811 132.256H41.79V122.236H46.0615ZM49.7002 120.654V136.281H48.3115V127.527H45.2881V126.402H48.3115V120.654H49.7002ZM66.751 126.895V128.055H64.2197V136.281H62.8486V120.654H64.2197V126.895H66.751ZM54.1475 122.201V131.148C56.4326 131.14 58.7617 130.964 61.3369 130.428L61.5127 131.605C58.8232 132.15 56.3975 132.309 54.0244 132.309H52.7764V122.201H54.1475ZM80.3213 125.4V126.508H69.6162V121.234H70.9873V125.4H80.3213ZM81.9736 128.635V129.76H67.665V128.635H81.9736ZM80.4092 134.752V135.895H69.5283V131.359H70.8994V134.752H80.4092ZM101.169 121.762V122.781H88.4951V121.762H94.1904V120.408H95.5615V121.762H101.169ZM94.876 123.432C98.1631 123.432 99.9385 124.1 99.9385 125.453C99.9385 126.71 98.4092 127.378 95.5615 127.475V128.564H101.995V129.602H87.7568V128.564H94.1904V127.475C91.3164 127.378 89.7959 126.71 89.7959 125.453C89.7959 124.1 91.5537 123.432 94.876 123.432ZM94.876 124.381C92.5029 124.381 91.2549 124.75 91.2725 125.453C91.2549 126.174 92.5029 126.561 94.876 126.561C97.2314 126.561 98.4795 126.174 98.4971 125.453C98.4795 124.75 97.2314 124.381 94.876 124.381ZM100.167 130.621V133.768H90.9209V135.086H100.642V136.105H89.5146V132.801H98.7783V131.623H89.4795V130.621H100.167ZM116.409 120.654V136.281H115.021V120.654H116.409ZM106.882 125.629C106.882 127.193 107.198 129.505 108.481 131.061C109.729 129.54 110.046 127.29 110.046 125.629V122.061H111.382V125.629C111.364 127.686 111.927 130.375 113.86 131.729L112.981 132.73C111.795 131.878 111.092 130.463 110.731 128.934C110.362 130.489 109.686 131.975 108.481 132.854C107.26 131.966 106.583 130.472 106.231 128.916C105.845 130.428 105.159 131.834 104.017 132.695L103.103 131.729C105.019 130.34 105.581 127.615 105.581 125.629V122.061H106.882V125.629ZM133.161 127.914V129.004H118.853V127.914H133.161ZM131.368 130.252V133.574H121.981V135.068H131.878V136.07H120.593V132.625H129.997V131.289H120.575V130.252H131.368ZM131.315 121.129V124.363H122.087V125.734H131.597V126.736H120.716V123.414H129.927V122.131H120.663V121.129H131.315ZM151.038 120.654V126.807H153.657V128.002H151.038V136.281H149.667V120.654H151.038ZM140.966 121.99V126.121H145.536V121.99H146.907V132.537H139.595V121.99H140.966ZM140.966 131.377H145.536V127.229H140.966V131.377ZM166.595 120.654V126.877H169.214V128.037H166.595V136.316H165.224V120.654H166.595ZM162.218 122.113V127.703H156.522V131.359C159.423 131.359 161.444 131.263 163.817 130.814L163.958 131.957C161.497 132.414 159.405 132.52 156.399 132.537H155.151V126.561H160.847V123.256H155.116V122.113H162.218ZM184.366 133.135V134.277H170.058V133.135H176.491V129.76H171.745V121.762H173.134V124.592H181.255V121.762H182.608V129.76H177.845V133.135H184.366ZM173.134 128.635H181.255V125.717H173.134V128.635ZM193.366 122.219V124.416H197.198V120.654H198.569V136.316H197.198V129.865H193.366V132.326H186.247V122.219H193.366ZM187.618 123.309V131.219H192.03V123.309H187.618ZM193.366 128.723H197.198V125.559H193.366V128.723ZM203.737 133.68L202.366 138.461H201.065L202.032 133.68H203.737ZM15.2471 163.1V164.242H0.938477V163.1H7.33691V159.268H8.69043V163.1H15.2471ZM8.72559 152.922C8.72559 155.541 11.8193 157.826 14.5439 158.301L13.9287 159.443C11.5469 158.96 9.0332 157.343 8.02246 155.084C6.99414 157.334 4.49805 158.96 2.11621 159.443L1.50098 158.301C4.22559 157.826 7.28418 155.541 7.28418 152.922V151.727H8.72559V152.922ZM24.3877 151.85V158.547H17.1631V151.85H24.3877ZM18.5166 152.975V157.439H23.0518V152.975H18.5166ZM28.7119 150.654V154.574H31.0674V155.717H28.7119V159.9H27.3408V150.654H28.7119ZM23.7021 160.428C26.8838 160.428 28.8525 161.518 28.8525 163.346C28.8525 165.191 26.8838 166.264 23.7021 166.281C20.5029 166.264 18.5166 165.191 18.5166 163.346C18.5166 161.518 20.5029 160.428 23.7021 160.428ZM23.7021 161.553C21.3467 161.553 19.8877 162.221 19.9053 163.346C19.8877 164.488 21.3467 165.139 23.7021 165.156C26.0752 165.139 27.5166 164.488 27.5166 163.346C27.5166 162.221 26.0752 161.553 23.7021 161.553ZM39.1709 150.936C42.6514 150.936 44.6904 151.885 44.6904 153.625C44.6904 155.4 42.6514 156.35 39.1709 156.367C35.6904 156.35 33.6338 155.4 33.6338 153.625C33.6338 151.885 35.6904 150.936 39.1709 150.936ZM39.1709 151.973C36.5693 151.973 35.0576 152.605 35.0752 153.625C35.0576 154.715 36.5693 155.312 39.1709 155.312C41.7549 155.312 43.2842 154.715 43.2842 153.625C43.2842 152.605 41.7549 151.973 39.1709 151.973ZM46.29 157.422V158.547H32.0518V157.422H46.29ZM44.4619 159.9V163.398H35.1807V165.016H44.9365V166.105H33.8096V162.379H43.1084V160.955H33.7744V159.9H44.4619ZM64.3428 150.654V154.486H66.6982V155.646H64.3428V159.531H62.9717V150.654H64.3428ZM59.79 151.727V152.852H54.2354V157.457C57.373 157.475 59.1572 157.36 61.249 156.947L61.4248 158.072C59.2275 158.512 57.3643 158.6 54.0771 158.6H52.8643V151.727H59.79ZM64.3428 160.34V166.07H54.4814V160.34H64.3428ZM55.835 161.465V164.945H62.9717V161.465H55.835ZM81.9209 158.898V160.023H67.6826V158.898H81.9209ZM80.3389 164.787V165.947H69.5283V161.395H70.917V164.787H80.3389ZM74.8018 151.217C78.1592 151.199 80.3213 152.359 80.3213 154.311C80.3213 156.262 78.1592 157.422 74.8018 157.422C71.4092 157.422 69.2646 156.262 69.2646 154.311C69.2646 152.359 71.4092 151.199 74.8018 151.217ZM74.8018 152.324C72.2881 152.324 70.6709 153.08 70.6885 154.311C70.6709 155.541 72.2881 156.297 74.8018 156.297C77.2979 156.297 78.915 155.541 78.915 154.311C78.915 153.08 77.2979 152.324 74.8018 152.324ZM95.6143 152.236V162.309H88.4072V152.236H95.6143ZM89.7432 153.344V161.184H94.2432V153.344H89.7432ZM99.8506 150.654V156.895H102.47V158.09H99.8506V166.281H98.4795V150.654H99.8506ZM110.433 151.006C113.825 151.006 115.952 152.096 115.952 153.977C115.952 155.822 113.825 156.895 110.433 156.895C107.04 156.895 104.896 155.822 104.896 153.977C104.896 152.096 107.04 151.006 110.433 151.006ZM110.433 152.113C107.901 152.113 106.302 152.816 106.319 153.977C106.302 155.119 107.901 155.787 110.433 155.805C112.929 155.787 114.546 155.119 114.546 153.977C114.546 152.816 112.929 152.113 110.433 152.113ZM115.812 160.938V166.07H105.054V160.938H115.812ZM106.425 162.045V164.945H114.458V162.045H106.425ZM117.552 158.248V159.391H103.313V158.248H117.552ZM131.755 150.654V166.316H130.366V150.654H131.755ZM123.44 151.867C125.761 151.885 127.431 153.994 127.431 157.316C127.431 160.639 125.761 162.748 123.44 162.748C121.103 162.748 119.45 160.639 119.45 157.316C119.45 153.994 121.103 151.885 123.44 151.867ZM123.44 153.098C121.876 153.115 120.786 154.768 120.786 157.316C120.786 159.865 121.876 161.518 123.44 161.518C125.005 161.518 126.095 159.865 126.095 157.316C126.095 154.768 125.005 153.115 123.44 153.098ZM151.899 150.672V162.186H150.511V156.156H147.241C146.934 158.081 145.316 159.391 143.251 159.391C140.913 159.391 139.19 157.791 139.19 155.523C139.19 153.256 140.913 151.674 143.251 151.674C145.36 151.674 147.004 153.019 147.259 155.014H150.511V150.672H151.899ZM152.339 164.787V165.947H141.862V161.008H143.251V164.787H152.339ZM143.251 152.887C141.687 152.904 140.509 153.977 140.509 155.523C140.509 157.07 141.687 158.178 143.251 158.195C144.78 158.178 145.958 157.07 145.958 155.523C145.958 153.977 144.78 152.904 143.251 152.887ZM167.772 150.672V162.414H166.454V150.672H167.772ZM164.731 151.006V162.01H163.396V156.156H161.005V155.014H163.396V151.006H164.731ZM168.247 164.787V165.947H157.524V160.973H158.896V164.787H168.247ZM159.124 154.205C159.124 155.928 160.267 157.791 162.253 158.6L161.532 159.689C160.064 159.065 159.036 157.896 158.491 156.525C157.946 158.072 156.865 159.382 155.31 160.059L154.571 158.986C156.61 158.09 157.788 156.104 157.788 154.205V153.291H154.87V152.148H161.884V153.291H159.124V154.205ZM182.151 150.654V157.018H184.683V158.178H182.151V166.281H180.78V150.654H182.151ZM178.108 152.342C178.108 156.771 176.034 160.797 170.937 163.311L170.163 162.221C174.206 160.208 176.403 157.202 176.72 153.502H170.884V152.342H178.108ZM195.353 153.186C195.353 155.312 196.97 157.264 199.237 158.037L198.481 159.127C196.75 158.494 195.388 157.202 194.702 155.576C194.034 157.413 192.646 158.863 190.817 159.566L190.079 158.459C192.417 157.58 193.981 155.488 193.999 153.08V151.463H195.353V153.186ZM202.349 150.654V154.732H204.704V155.893H202.349V160.164H200.978V150.654H202.349ZM197.339 160.568C200.556 160.568 202.489 161.605 202.489 163.398C202.489 165.227 200.556 166.246 197.339 166.246C194.122 166.246 192.153 165.227 192.153 163.398C192.153 161.605 194.122 160.568 197.339 160.568ZM197.339 161.676C194.983 161.676 193.524 162.326 193.542 163.398C193.524 164.506 194.983 165.139 197.339 165.156C199.712 165.139 201.153 164.506 201.153 163.398C201.153 162.326 199.712 161.676 197.339 161.676ZM219.048 150.654V166.281H217.729V158.09H215.427V165.473H214.161V151.006H215.427V156.947H217.729V150.654H219.048ZM212.122 152.57V153.713H207.64V161.236C209.793 161.228 211.287 161.148 213.019 160.797L213.142 161.957C211.261 162.344 209.661 162.414 207.271 162.414H206.269V152.57H212.122ZM228.452 160.48C231.669 160.48 233.603 161.535 233.603 163.363C233.603 165.209 231.669 166.264 228.452 166.281C225.235 166.264 223.267 165.209 223.267 163.363C223.267 161.535 225.235 160.48 228.452 160.48ZM228.452 161.57C226.097 161.588 224.638 162.238 224.655 163.363C224.638 164.488 226.097 165.156 228.452 165.156C230.825 165.156 232.267 164.488 232.267 163.363C232.267 162.238 230.825 161.588 228.452 161.57ZM233.462 150.654V154.592H235.817V155.77H233.462V160.059H232.091V150.654H233.462ZM223.267 151.639V154.029H227.819V151.639H229.19V158.846H221.913V151.639H223.267ZM223.267 157.721H227.819V155.119H223.267V157.721ZM250.196 150.654V166.281H248.86V150.654H250.196ZM247.05 150.988V165.49H245.731V157.896H243.728C243.578 160.938 242.286 162.836 240.353 162.836C238.313 162.836 236.995 160.727 236.995 157.404C236.995 154.082 238.313 151.973 240.353 151.973C242.251 151.973 243.534 153.81 243.71 156.754H245.731V150.988H247.05ZM240.353 153.273C239.087 153.273 238.278 154.855 238.296 157.404C238.278 159.936 239.087 161.535 240.353 161.518C241.618 161.535 242.427 159.936 242.427 157.404C242.427 154.855 241.618 153.273 240.353 153.273ZM264.54 151.516V152.641H258.95V156.613C262.009 156.613 263.854 156.499 265.999 156.104L266.175 157.193C263.942 157.65 262.026 157.773 258.81 157.773H257.597V151.516H264.54ZM269.093 150.654V154.082H271.466V155.26H269.093V158.951H267.722V150.654H269.093ZM269.778 159.971V161.061H258.81V159.971H263.608V158.459H264.962V159.971H269.778ZM264.276 161.729C267.001 161.729 268.636 162.555 268.653 164.031C268.636 165.473 267.001 166.281 264.276 166.281C261.534 166.281 259.899 165.473 259.899 164.031C259.899 162.555 261.534 161.729 264.276 161.729ZM264.276 162.748C262.448 162.766 261.323 163.223 261.323 164.031C261.323 164.84 262.448 165.279 264.276 165.262C266.104 165.279 267.212 164.84 267.229 164.031C267.212 163.223 266.104 162.766 264.276 162.748ZM276.616 151.867C278.919 151.885 280.554 153.994 280.571 157.316C280.554 160.639 278.919 162.748 276.616 162.748C274.296 162.748 272.679 160.639 272.679 157.316C272.679 153.994 274.296 151.885 276.616 151.867ZM276.616 153.098C275.069 153.115 273.979 154.768 273.979 157.316C273.979 159.865 275.069 161.518 276.616 161.518C278.181 161.518 279.235 159.865 279.235 157.316C279.235 154.768 278.181 153.115 276.616 153.098ZM284.526 150.654V156.895H287.146V158.09H284.526V166.281H283.155V150.654H284.526ZM6.22949 183.555C6.22949 185.629 7.75879 187.527 10.0791 188.336L9.37598 189.408C7.5918 188.775 6.22949 187.492 5.56152 185.875C4.89355 187.65 3.46094 189.03 1.62402 189.707L0.885742 188.635C3.22363 187.809 4.8584 185.787 4.87598 183.555V182.887H1.30762V181.762H9.74512V182.887H6.22949V183.555ZM13.1553 180.654V184.785H15.5107V185.963H13.1553V190.076H11.7842V180.654H13.1553ZM13.1553 190.902V196.281H11.7842V192.027H2.9248V190.902H13.1553ZM30.7334 188.898V190.023H16.4951V188.898H30.7334ZM29.1514 194.787V195.947H18.3408V191.395H19.7295V194.787H29.1514ZM23.6143 181.217C26.9717 181.199 29.1338 182.359 29.1338 184.311C29.1338 186.262 26.9717 187.422 23.6143 187.422C20.2217 187.422 18.0771 186.262 18.0771 184.311C18.0771 182.359 20.2217 181.199 23.6143 181.217ZM23.6143 182.324C21.1006 182.324 19.4834 183.08 19.501 184.311C19.4834 185.541 21.1006 186.297 23.6143 186.297C26.1104 186.297 27.7275 185.541 27.7275 184.311C27.7275 183.08 26.1104 182.324 23.6143 182.324ZM41.7197 181.428C44.0576 181.41 45.7275 182.693 45.7275 184.609C45.7275 186.508 44.0576 187.826 41.7197 187.809C39.3818 187.826 37.7119 186.508 37.7119 184.609C37.7119 182.693 39.3818 181.41 41.7197 181.428ZM41.7197 182.553C40.1553 182.535 39.0479 183.396 39.0654 184.609C39.0479 185.84 40.1553 186.684 41.7197 186.666C43.3018 186.684 44.4092 185.84 44.4092 184.609C44.4092 183.396 43.3018 182.535 41.7197 182.553ZM49.4541 180.672V196.299H48.1006V180.672H49.4541ZM36.5342 189.145C39.4697 189.145 43.4775 189.092 46.958 188.582L47.0459 189.619C45.5518 189.892 43.9961 190.059 42.4932 190.146V195.807H41.1221V190.234C39.5312 190.305 38.0283 190.313 36.7275 190.322L36.5342 189.145ZM66.4346 193.188V194.348H52.126V193.188H58.5596V190.234H53.9189V185.418H63.2705V182.957H53.8838V181.814H64.624V186.543H55.29V189.092H64.9932V190.234H59.9131V193.188H66.4346ZM79.7764 180.654V187.018H82.3076V188.178H79.7764V196.281H78.4053V180.654H79.7764ZM75.7334 182.342C75.7334 186.771 73.6592 190.797 68.5615 193.311L67.7881 192.221C71.8311 190.208 74.0283 187.202 74.3447 183.502H68.5088V182.342H75.7334ZM97.0732 187.404V188.547H93.6455V191.623C95.1748 191.562 96.7129 191.456 98.1631 191.289L98.2686 192.326C94.8057 192.836 91.0264 192.889 88.0381 192.889L87.8447 191.729C89.207 191.729 90.7188 191.72 92.2744 191.676V188.547H89.04V182.148H97.0029V183.273H90.3936V187.404H97.0732ZM100.571 180.654V196.316H99.2002V180.654H100.571ZM107.515 181.867C109.642 181.885 111.171 183.704 111.399 186.631H114.897V180.654H116.269V196.316H114.897V187.773H111.417C111.25 190.832 109.694 192.748 107.515 192.748C105.212 192.748 103.595 190.639 103.595 187.316C103.595 183.994 105.212 181.885 107.515 181.867ZM107.515 183.098C105.968 183.115 104.913 184.768 104.913 187.316C104.913 189.865 105.968 191.518 107.515 191.518C109.044 191.518 110.116 189.865 110.116 187.316C110.116 184.768 109.044 183.115 107.515 183.098ZM121.437 193.68L120.065 198.461H118.765L119.731 193.68H121.437ZM140.087 180.654V186.842H142.706V188.002H140.087V196.316H138.716V180.654H140.087ZM135.974 182.184V183.326H130.05V191.236C132.88 191.236 134.884 191.104 137.204 190.674L137.38 191.869C134.937 192.309 132.88 192.396 129.909 192.396H128.679V182.184H135.974ZM149.104 184.855C149.087 187.703 151.038 190.586 153.341 191.623L152.497 192.713C150.722 191.843 149.184 190.006 148.437 187.773C147.707 190.138 146.169 192.106 144.341 193.029L143.462 191.869C145.782 190.797 147.716 187.826 147.733 184.855V182.008H149.104V184.855ZM156.435 180.654V196.316H155.046V180.654H156.435ZM176.544 180.654V196.281H175.155V180.654H176.544ZM172.94 182.359V183.502H171.165V191.025C172.044 190.964 172.914 190.885 173.749 190.779L173.837 191.816C170.427 192.344 166.665 192.396 163.765 192.414L163.606 191.236L165.769 191.219V183.502H164.011V182.359H172.94ZM167.122 191.201C168.001 191.184 168.906 191.148 169.812 191.096V183.502H167.122V191.201ZM183.382 181.867C185.509 181.885 187.038 183.704 187.267 186.631H190.765V180.654H192.136V196.316H190.765V187.773H187.284C187.117 190.832 185.562 192.748 183.382 192.748C181.079 192.748 179.462 190.639 179.462 187.316C179.462 183.994 181.079 181.885 183.382 181.867ZM183.382 183.098C181.835 183.115 180.78 184.768 180.78 187.316C180.78 189.865 181.835 191.518 183.382 191.518C184.911 191.518 185.983 189.865 185.983 187.316C185.983 184.768 184.911 183.115 183.382 183.098ZM206.954 180.654V183.924H209.31V185.084H206.954V188.547H205.583V180.654H206.954ZM196.882 181.357V186.596C199.105 186.604 201.399 186.446 203.931 185.928L204.106 187.088C201.435 187.633 199.097 187.791 196.741 187.791H195.493V181.357H196.882ZM206.954 189.303V193.117H198.394V194.945H207.534V196.07H197.022V192.027H205.583V190.41H196.987V189.303H206.954ZM222.651 182.113C222.651 184.311 225.534 186.227 228.347 186.613L227.784 187.738C225.358 187.334 222.959 185.989 221.948 184.064C220.946 185.998 218.538 187.334 216.112 187.738L215.55 186.613C218.362 186.227 221.228 184.346 221.228 182.113V181.217H222.651V182.113ZM229.05 189.461V190.621H222.581V196.281H221.228V190.621H214.812V189.461H229.05ZM240.177 191.148C240.177 192.528 240.915 193.996 242.409 194.84C243.886 193.917 244.677 192.361 244.677 191.148V190.287H246.03V191.148C246.03 192.748 247.208 194.365 249.212 195.051L248.526 196.07C246.962 195.517 245.863 194.427 245.327 193.117C244.844 194.383 243.886 195.578 242.444 196.193C240.924 195.613 239.957 194.462 239.491 193.152C238.938 194.418 237.856 195.508 236.362 196.07L235.659 195.051C237.628 194.312 238.823 192.643 238.841 191.148V190.287H240.177V191.148ZM247.788 180.672V189.602H246.417V180.672H247.788ZM239.351 181.586C241.724 181.586 243.446 183.062 243.446 185.242C243.446 187.387 241.724 188.863 239.351 188.863C236.978 188.863 235.255 187.387 235.255 185.242C235.255 183.062 236.978 181.586 239.351 181.586ZM239.351 182.764C237.751 182.746 236.591 183.783 236.608 185.242C236.591 186.684 237.751 187.703 239.351 187.721C240.933 187.703 242.093 186.684 242.093 185.242C242.093 183.783 240.933 182.746 239.351 182.764ZM263.345 180.654V188.652H261.974V180.654H263.345ZM258.669 181.428C258.669 185.418 255.839 187.914 251.216 188.986L250.706 187.826C254.617 186.956 256.911 185.084 257.157 182.57H251.497V181.428H258.669ZM263.345 189.391V193.17H254.591V195.033H263.907V196.141H253.22V192.115H261.974V190.498H253.185V189.391H263.345ZM282.61 180.654V186.807H285.229V188.002H282.61V196.281H281.239V180.654H282.61ZM272.538 181.99V186.121H277.108V181.99H278.479V192.537H271.167V181.99H272.538ZM272.538 191.377H277.108V187.229H272.538V191.377ZM298.29 180.672V185.471H300.663V186.648H298.29V192.168H296.919V180.672H298.29ZM299.028 194.787V195.947H288.604V191.289H290.011V194.787H299.028ZM293.825 181.691V186.156H288.13V188.6C290.907 188.617 292.92 188.503 295.354 188.09L295.495 189.232C292.981 189.654 290.89 189.742 287.989 189.742H286.776V185.066H292.472V182.852H286.741V181.691H293.825ZM313.724 180.654V186.842H316.343V188.002H313.724V196.316H312.353V180.654H313.724ZM309.61 182.184V183.326H303.687V191.236C306.517 191.236 308.521 191.104 310.841 190.674L311.017 191.869C308.573 192.309 306.517 192.396 303.546 192.396H302.315V182.184H309.61ZM318.839 194.963C318.224 194.963 317.696 194.453 317.714 193.82C317.696 193.205 318.224 192.695 318.839 192.695C319.454 192.695 319.964 193.205 319.964 193.82C319.964 194.453 319.454 194.963 318.839 194.963Z" fill="#1A1A1A"/>
</svg>
