<svg width="270" height="44" viewBox="0 0 270 44" fill="none" xmlns="http://www.w3.org/2000/svg">
<path d="M0.529731 3.51152H15.6977C19.9537 3.51152 23.6657 4.34352 26.8337 6.00752C30.0017 7.63952 32.4337 9.94352 34.1297 12.9195C35.8257 15.8635 36.6737 19.2555 36.6737 23.0955C36.6737 26.9355 35.8257 30.3435 34.1297 33.3195C32.4337 36.2635 30.0017 38.5515 26.8337 40.1835C23.6657 41.8155 19.9537 42.6315 15.6977 42.6315H0.529731V3.51152ZM15.8417 34.9035C19.6177 34.9035 22.5777 33.8795 24.7217 31.8315C26.8657 29.7515 27.9377 26.8395 27.9377 23.0955C27.9377 19.3515 26.8657 16.4395 24.7217 14.3595C22.5777 12.2795 19.6177 11.2395 15.8417 11.2395H9.26573V34.9035H15.8417ZM53.9204 43.3035C51.2644 43.3035 48.8964 42.6635 46.8164 41.3835C44.7364 40.1355 43.1204 38.3915 41.9684 36.1515C40.8164 33.9115 40.2404 31.3835 40.2404 28.5675C40.2404 25.7515 40.8164 23.2235 41.9684 20.9835C43.1204 18.7435 44.7364 16.9995 46.8164 15.7515C48.8964 14.4715 51.2644 13.8315 53.9204 13.8315C57.5364 13.8315 60.2244 15.0155 61.9844 17.3835V14.5035H70.5284V42.6315H61.9844V39.7515C60.2244 42.1195 57.5364 43.3035 53.9204 43.3035ZM55.2644 36.0075C57.3444 36.0075 59.0084 35.3195 60.2564 33.9435C61.5044 32.5355 62.1284 30.7435 62.1284 28.5675C62.1284 26.3915 61.5044 24.6155 60.2564 23.2395C59.0084 21.8315 57.3444 21.1275 55.2644 21.1275C53.2484 21.1275 51.6324 21.8315 50.4164 23.2395C49.2004 24.6155 48.5924 26.3915 48.5924 28.5675C48.5924 30.7435 49.2004 32.5355 50.4164 33.9435C51.6324 35.3195 53.2484 36.0075 55.2644 36.0075ZM76.9772 14.5035H85.5212V17.3835C87.2812 15.0155 89.9052 13.8315 93.3932 13.8315C95.5692 13.8315 97.4892 14.3435 99.1532 15.3675C100.817 16.3595 102.097 17.7995 102.993 19.6875C103.921 21.5755 104.385 23.7995 104.385 26.3595V42.6315H95.8412V27.7995C95.8412 25.6555 95.4092 24.0235 94.5452 22.9035C93.7132 21.7515 92.4972 21.1755 90.8972 21.1755C89.2332 21.1755 87.9212 21.7995 86.9612 23.0475C86.0012 24.2955 85.5212 26.0075 85.5212 28.1835V42.6315H76.9772V14.5035ZM122.405 43.3035C119.749 43.3035 117.381 42.6635 115.301 41.3835C113.221 40.1355 111.605 38.3915 110.453 36.1515C109.301 33.9115 108.725 31.3835 108.725 28.5675C108.725 25.7515 109.301 23.2235 110.453 20.9835C111.605 18.7435 113.221 16.9995 115.301 15.7515C117.381 14.4715 119.749 13.8315 122.405 13.8315C126.021 13.8315 128.709 15.0155 130.469 17.3835V2.31152H139.013V42.6315H130.469V39.7515C128.709 42.1195 126.021 43.3035 122.405 43.3035ZM123.749 36.0075C125.829 36.0075 127.493 35.3195 128.741 33.9435C129.989 32.5355 130.613 30.7435 130.613 28.5675C130.613 26.3915 129.989 24.6155 128.741 23.2395C127.493 21.8315 125.829 21.1275 123.749 21.1275C121.733 21.1275 120.117 21.8315 118.901 23.2395C117.685 24.6155 117.077 26.3915 117.077 28.5675C117.077 30.7435 117.685 32.5355 118.901 33.9435C120.117 35.3195 121.733 36.0075 123.749 36.0075ZM158.662 43.3035C155.846 43.3035 153.318 42.6635 151.078 41.3835C148.87 40.1355 147.142 38.3915 145.894 36.1515C144.646 33.9115 144.022 31.3835 144.022 28.5675C144.022 25.7515 144.646 23.2235 145.894 20.9835C147.142 18.7435 148.87 16.9995 151.078 15.7515C153.318 14.4715 155.846 13.8315 158.662 13.8315C161.478 13.8315 163.99 14.4715 166.198 15.7515C168.438 16.9995 170.182 18.7435 171.43 20.9835C172.678 23.2235 173.302 25.7515 173.302 28.5675C173.302 29.4955 173.238 30.4075 173.11 31.3035H152.518C152.838 32.9355 153.542 34.1995 154.63 35.0955C155.718 35.9915 157.062 36.4395 158.662 36.4395C159.878 36.4395 160.95 36.2475 161.878 35.8635C162.838 35.4475 163.494 34.9035 163.846 34.2315H172.438C171.958 36.0235 171.062 37.5915 169.75 38.9355C168.438 40.3115 166.822 41.3835 164.902 42.1515C162.982 42.9195 160.902 43.3035 158.662 43.3035ZM164.95 25.7835C164.598 24.0875 163.878 22.8075 162.79 21.9435C161.702 21.0475 160.326 20.5995 158.662 20.5995C156.998 20.5995 155.638 21.0475 154.582 21.9435C153.526 22.8075 152.822 24.0875 152.47 25.7835H164.95ZM186.865 42.6315H178.321V2.31152H186.865V42.6315ZM197.546 0.919521C199.05 0.919521 200.298 1.41552 201.29 2.40752C202.282 3.39952 202.778 4.64752 202.778 6.15152C202.778 7.65552 202.282 8.90352 201.29 9.89552C200.298 10.8875 199.05 11.3835 197.546 11.3835C196.042 11.3835 194.794 10.8875 193.802 9.89552C192.81 8.90352 192.314 7.65552 192.314 6.15152C192.314 4.64752 192.81 3.39952 193.802 2.40752C194.794 1.41552 196.042 0.919521 197.546 0.919521ZM201.818 42.7275H193.274V14.5035H201.818V42.7275ZM221.715 13.8315C224.563 13.8315 227.123 14.4715 229.395 15.7515C231.667 16.9995 233.443 18.7435 234.723 20.9835C236.003 23.2235 236.643 25.7515 236.643 28.5675C236.643 31.3835 236.003 33.9115 234.723 36.1515C233.443 38.3915 231.667 40.1355 229.395 41.3835C227.123 42.6635 224.563 43.3035 221.715 43.3035C218.867 43.3035 216.307 42.6635 214.035 41.3835C211.763 40.1355 209.987 38.3915 208.707 36.1515C207.427 33.9115 206.787 31.3835 206.787 28.5675C206.787 25.7515 207.427 23.2235 208.707 20.9835C209.987 18.7435 211.763 16.9995 214.035 15.7515C216.307 14.4715 218.867 13.8315 221.715 13.8315ZM221.715 21.1275C219.731 21.1275 218.115 21.8315 216.867 23.2395C215.651 24.6155 215.043 26.3915 215.043 28.5675C215.043 30.7435 215.651 32.5355 216.867 33.9435C218.115 35.3195 219.731 36.0075 221.715 36.0075C223.699 36.0075 225.299 35.3195 226.515 33.9435C227.763 32.5355 228.387 30.7435 228.387 28.5675C228.387 26.3915 227.763 24.6155 226.515 23.2395C225.299 21.8315 223.699 21.1275 221.715 21.1275ZM241.649 14.5035H250.193V17.3835C251.953 15.0155 254.577 13.8315 258.065 13.8315C260.241 13.8315 262.161 14.3435 263.825 15.3675C265.489 16.3595 266.769 17.7995 267.665 19.6875C268.593 21.5755 269.057 23.7995 269.057 26.3595V42.6315H260.513V27.7995C260.513 25.6555 260.081 24.0235 259.217 22.9035C258.385 21.7515 257.169 21.1755 255.569 21.1755C253.905 21.1755 252.593 21.7995 251.633 23.0475C250.673 24.2955 250.193 26.0075 250.193 28.1835V42.6315H241.649V14.5035Z" fill="#1A1A1A"/>
</svg>
