<svg width="327" height="167" viewBox="0 0 327 167" fill="none" xmlns="http://www.w3.org/2000/svg">
<path d="M9.09473 2.02539V9.26758H1.76465V2.02539H9.09473ZM3.11816 3.16797V8.16016H7.74121V3.16797H3.11816ZM13.8408 0.671875V11.9043H12.4697V0.671875H13.8408ZM14.333 14.6113V15.7539H3.75098V10.8145H5.12207V14.6113H14.333ZM30.751 7.22852V8.33594H16.4951V7.22852H30.751ZM29.0459 4.82031V5.94531H18.3936V1.19922H28.8877V2.30664H19.7822V4.82031H29.0459ZM28.9053 9.74219V13.3633H19.624V14.9805H29.3799V16.1055H18.2529V12.3262H27.5518V10.8145H18.2178V9.74219H28.9053ZM38.1514 2.39453V7.79102H33.915V11.2715C35.7168 11.2627 37.4219 11.2012 39.5049 10.832L39.6104 11.9746C37.3779 12.3789 35.6025 12.4141 33.6162 12.4316H32.5791V6.64844H36.833V3.53711H32.5439V2.39453H38.1514ZM45.4111 0.654297V16.2812H44.0928V0.654297H45.4111ZM42.2119 1.04102V15.4551H40.9111V7.42188H38.9072V6.29688H40.9111V1.04102H42.2119ZM60.2471 5.40039V6.50781H49.542V1.23438H50.9131V5.40039H60.2471ZM61.8994 8.63477V9.75977H47.5908V8.63477H61.8994ZM60.335 14.752V15.8945H49.4541V11.3594H50.8252V14.752H60.335ZM80.5674 0.654297V9.74219H79.2139V0.654297H80.5674ZM80.9717 10.8496V11.9395H76.3311C76.4102 13.4248 78.8711 14.8838 81.5166 15.209L81.0068 16.2812C78.6689 15.9473 76.5332 14.8486 75.6104 13.3984C74.6787 14.8838 72.4814 15.9648 70.126 16.2812L69.6338 15.2266C72.2793 14.9365 74.8281 13.4775 74.9072 11.9395H70.2842V10.8496H74.9248V9.33789H76.2959V10.8496H80.9717ZM69.8799 1.32227V3.74805H74.4854V1.32227H75.8564V8.30078H68.5088V1.32227H69.8799ZM69.8799 7.19336H74.4854V4.82031H69.8799V7.19336ZM90.3584 0.935547C93.8389 0.935547 95.8779 1.88477 95.8779 3.625C95.8779 5.40039 93.8389 6.34961 90.3584 6.36719C86.8779 6.34961 84.8213 5.40039 84.8213 3.625C84.8213 1.88477 86.8779 0.935547 90.3584 0.935547ZM90.3584 1.97266C87.7568 1.97266 86.2451 2.60547 86.2627 3.625C86.2451 4.71484 87.7568 5.3125 90.3584 5.3125C92.9424 5.3125 94.4717 4.71484 94.4717 3.625C94.4717 2.60547 92.9424 1.97266 90.3584 1.97266ZM97.4775 7.42188V8.54688H83.2393V7.42188H97.4775ZM95.6494 9.90039V13.3984H86.3682V15.0156H96.124V16.1055H84.9971V12.3789H94.2959V10.9551H84.9619V9.90039H95.6494ZM115.53 0.654297V4.43359H117.886V5.59375H115.53V9.79492H114.159V0.654297H115.53ZM105.335 1.55078V3.94141H109.888V1.55078H111.259V8.81055H103.981V1.55078H105.335ZM105.335 7.70312H109.888V5.04883H105.335V7.70312ZM115.653 10.6738V11.7812H107.093V14.9453H115.952V16.0703H105.722V10.6738H115.653ZM123.054 1.86719C125.356 1.88477 126.991 3.99414 127.009 7.31641C126.991 10.6387 125.356 12.748 123.054 12.748C120.733 12.748 119.116 10.6387 119.116 7.31641C119.116 3.99414 120.733 1.88477 123.054 1.86719ZM123.054 3.09766C121.507 3.11523 120.417 4.76758 120.417 7.31641C120.417 9.86523 121.507 11.5176 123.054 11.5176C124.618 11.5176 125.673 9.86523 125.673 7.31641C125.673 4.76758 124.618 3.11523 123.054 3.09766ZM130.964 0.654297V6.89453H133.583V8.08984H130.964V16.2812H129.593V0.654297H130.964ZM151.864 0.654297V16.2812H150.476V0.654297H151.864ZM148.261 2.35938V3.50195H146.485V11.0254C147.364 10.9639 148.234 10.8848 149.069 10.7793L149.157 11.8164C145.747 12.3438 141.985 12.3965 139.085 12.4141L138.927 11.2363L141.089 11.2188V3.50195H139.331V2.35938H148.261ZM142.442 11.2012C143.321 11.1836 144.227 11.1484 145.132 11.0957V3.50195H142.442V11.2012ZM158.702 1.86719C160.829 1.88477 162.358 3.7041 162.587 6.63086H166.085V0.654297H167.456V16.3164H166.085V7.77344H162.604C162.438 10.832 160.882 12.748 158.702 12.748C156.399 12.748 154.782 10.6387 154.782 7.31641C154.782 3.99414 156.399 1.88477 158.702 1.86719ZM158.702 3.09766C157.155 3.11523 156.101 4.76758 156.101 7.31641C156.101 9.86523 157.155 11.5176 158.702 11.5176C160.231 11.5176 161.304 9.86523 161.304 7.31641C161.304 4.76758 160.231 3.11523 158.702 3.09766ZM184.683 6.89453V8.05469H182.151V16.2812H180.78V0.654297H182.151V6.89453H184.683ZM172.079 2.20117V11.1484C174.364 11.1396 176.693 10.9639 179.269 10.4277L179.444 11.6055C176.755 12.1504 174.329 12.3086 171.956 12.3086H170.708V2.20117H172.079ZM198.147 2.23633V3.80078C198.13 5.7168 198.13 7.86133 197.567 11.0078L196.161 10.8496C196.759 7.86133 196.759 5.66406 196.759 3.80078V3.37891H187.126V2.23633H198.147ZM199.853 12.9238V14.0664H185.614V12.9238H191.204V7.33398H192.558V12.9238H199.853ZM203.737 13.6797L202.366 18.4609H201.065L202.032 13.6797H203.737ZM14.3506 31.7617V32.7812H1.67676V31.7617H7.37207V30.4082H8.74316V31.7617H14.3506ZM8.05762 33.4316C11.3447 33.4316 13.1201 34.0996 13.1201 35.4531C13.1201 36.71 11.5908 37.3779 8.74316 37.4746V38.5645H15.1768V39.6016H0.938477V38.5645H7.37207V37.4746C4.49805 37.3779 2.97754 36.71 2.97754 35.4531C2.97754 34.0996 4.73535 33.4316 8.05762 33.4316ZM8.05762 34.3809C5.68457 34.3809 4.43652 34.75 4.4541 35.4531C4.43652 36.1738 5.68457 36.5605 8.05762 36.5605C10.4131 36.5605 11.6611 36.1738 11.6787 35.4531C11.6611 34.75 10.4131 34.3809 8.05762 34.3809ZM13.3486 40.6211V43.7676H4.10254V45.0859H13.8232V46.1055H2.69629V42.8008H11.96V41.623H2.66113V40.6211H13.3486ZM29.5908 30.6543V46.2812H28.2021V30.6543H29.5908ZM20.0635 35.6289C20.0635 37.1934 20.3799 39.5049 21.6631 41.0605C22.9111 39.54 23.2275 37.29 23.2275 35.6289V32.0605H24.5635V35.6289C24.5459 37.6855 25.1084 40.375 27.042 41.7285L26.1631 42.7305C24.9766 41.8779 24.2734 40.4629 23.9131 38.9336C23.5439 40.4893 22.8672 41.9746 21.6631 42.8535C20.4414 41.9658 19.7646 40.4717 19.4131 38.916C19.0264 40.4277 18.3408 41.834 17.1982 42.6953L16.2842 41.7285C18.2002 40.3398 18.7627 37.6152 18.7627 35.6289V32.0605H20.0635V35.6289ZM46.3428 37.9141V39.0039H32.0342V37.9141H46.3428ZM44.5498 40.252V43.5742H35.1631V45.0684H45.0596V46.0703H33.7744V42.625H43.1787V41.2891H33.7568V40.252H44.5498ZM44.4971 31.1289V34.3633H35.2686V35.7344H44.7783V36.7363H33.8975V33.4141H43.1084V32.1309H33.8447V31.1289H44.4971ZM64.3428 30.6543V33.9238H66.6982V35.084H64.3428V38.5469H62.9717V30.6543H64.3428ZM54.2705 31.3574V36.5957C56.4941 36.6045 58.7881 36.4463 61.3193 35.9277L61.4951 37.0879C58.8232 37.6328 56.4854 37.791 54.1299 37.791H52.8818V31.3574H54.2705ZM64.3428 39.3027V43.1172H55.7822V44.9453H64.9229V46.0703H54.4111V42.0273H62.9717V40.4102H54.376V39.3027H64.3428ZM80.6201 30.6543V46.3164H79.249V39.6543H75.9971V38.4941H79.249V35.3828H76.1201V34.2227H79.249V30.6543H80.6201ZM75.1006 32.0781V37.6328H69.6514V41.4824C71.998 41.4736 73.9404 41.3857 76.3135 41.0254L76.4365 42.1855C73.9404 42.5723 71.9365 42.6602 69.4404 42.6602H68.2803V36.5078H73.7471V33.2207H68.2275V32.0781H75.1006ZM95.6143 32.2363V42.3086H88.4072V32.2363H95.6143ZM89.7432 33.3438V41.1836H94.2432V33.3438H89.7432ZM99.8506 30.6543V36.8945H102.47V38.0898H99.8506V46.2812H98.4795V30.6543H99.8506ZM110.433 31.0059C113.825 31.0059 115.952 32.0957 115.952 33.9766C115.952 35.8223 113.825 36.8945 110.433 36.8945C107.04 36.8945 104.896 35.8223 104.896 33.9766C104.896 32.0957 107.04 31.0059 110.433 31.0059ZM110.433 32.1133C107.901 32.1133 106.302 32.8164 106.319 33.9766C106.302 35.1191 107.901 35.7871 110.433 35.8047C112.929 35.7871 114.546 35.1191 114.546 33.9766C114.546 32.8164 112.929 32.1133 110.433 32.1133ZM115.812 40.9375V46.0703H105.054V40.9375H115.812ZM106.425 42.0449V44.9453H114.458V42.0449H106.425ZM117.552 38.248V39.3906H103.313V38.248H117.552ZM125.989 30.9355C129.47 30.9355 131.509 31.8848 131.509 33.625C131.509 35.4004 129.47 36.3496 125.989 36.3672C122.509 36.3496 120.452 35.4004 120.452 33.625C120.452 31.8848 122.509 30.9355 125.989 30.9355ZM125.989 31.9727C123.388 31.9727 121.876 32.6055 121.894 33.625C121.876 34.7148 123.388 35.3125 125.989 35.3125C128.573 35.3125 130.103 34.7148 130.103 33.625C130.103 32.6055 128.573 31.9727 125.989 31.9727ZM133.108 37.4219V38.5469H118.87V37.4219H133.108ZM131.28 39.9004V43.3984H121.999V45.0156H131.755V46.1055H120.628V42.3789H129.927V40.9551H120.593V39.9004H131.28ZM151.899 30.6719V42.1328H150.511V36.1387H147.294V34.9961H150.511V30.6719H151.899ZM152.339 44.7871V45.9473H141.862V41.0957H143.251V44.7871H152.339ZM144.376 33.8887C144.376 35.9102 145.94 37.8789 148.226 38.6523L147.505 39.7598C145.738 39.127 144.376 37.8086 143.708 36.1914C143.031 37.9932 141.59 39.4346 139.735 40.1289L139.015 39.0039C141.317 38.1953 142.987 36.1387 142.987 33.8887V33.0801H139.454V31.9375H147.874V33.0801H144.376V33.8887ZM166.718 30.6719V35.8223H169.073V36.9824H166.718V42.3789H165.347V30.6719H166.718ZM163.853 32.5879V33.7129H154.536V32.5879H158.509V30.6719H159.88V32.5879H163.853ZM159.194 34.5742C161.427 34.5742 162.938 35.7168 162.956 37.4922C162.938 39.25 161.427 40.375 159.194 40.375C156.944 40.375 155.415 39.25 155.433 37.4922C155.415 35.7168 156.944 34.5742 159.194 34.5742ZM159.194 35.6641C157.718 35.6641 156.733 36.3848 156.751 37.4922C156.733 38.5996 157.718 39.3027 159.194 39.2852C160.653 39.3027 161.638 38.5996 161.655 37.4922C161.638 36.3848 160.653 35.6641 159.194 35.6641ZM167.438 44.7871V45.9473H156.944V41.4473H158.298V44.7871H167.438ZM182.151 30.6543V36.8418H184.771V38.002H182.151V46.3164H180.78V30.6543H182.151ZM178.038 32.1836V33.3262H172.114V41.2363C174.944 41.2363 176.948 41.1045 179.269 40.6738L179.444 41.8691C177.001 42.3086 174.944 42.3965 171.974 42.3965H170.743V32.1836H178.038ZM187.267 44.9629C186.651 44.9629 186.124 44.4531 186.142 43.8203C186.124 43.2051 186.651 42.6953 187.267 42.6953C187.882 42.6953 188.392 43.2051 188.392 43.8203C188.392 44.4531 187.882 44.9629 187.267 44.9629ZM6.17676 64.8555C6.17676 67.6152 8.00488 70.4453 10.2197 71.5352L9.37598 72.6426C7.65332 71.7373 6.21191 69.8916 5.52637 67.7207C4.82324 70.0322 3.34668 72.001 1.58887 72.9414L0.709961 71.834C2.99512 70.709 4.80566 67.7031 4.82324 64.8555V62.0078H6.17676V64.8555ZM13.0322 60.6543V67H15.6514V68.1953H13.0322V76.2812H11.6611V60.6543H13.0322ZM28.7119 60.6719V64.5918H31.085V65.752H28.7119V70.1113H27.3408V60.6719H28.7119ZM24.2471 61.6387V65.8574H18.5518V68.0371C21.3291 68.0371 23.3418 67.9404 25.7764 67.5273L25.917 68.6875C23.4033 69.1094 21.3115 69.1973 18.4111 69.1973H17.1982V64.7676H22.8936V62.7812H17.1631V61.6387H24.2471ZM23.7021 70.5859C26.8838 70.5859 28.8525 71.6406 28.8525 73.4336C28.8525 75.2266 26.8838 76.2461 23.7021 76.2461C20.4678 76.2461 18.5166 75.2266 18.5166 73.4336C18.5166 71.6406 20.4678 70.5859 23.7021 70.5859ZM23.7021 71.6758C21.3115 71.6758 19.8525 72.3262 19.8701 73.4336C19.8525 74.5234 21.3115 75.1738 23.7021 75.1738C26.0752 75.1738 27.5166 74.5234 27.5166 73.4336C27.5166 72.3262 26.0752 71.6758 23.7021 71.6758ZM39.1709 60.9355C42.6514 60.9355 44.6904 61.8848 44.6904 63.625C44.6904 65.4004 42.6514 66.3496 39.1709 66.3672C35.6904 66.3496 33.6338 65.4004 33.6338 63.625C33.6338 61.8848 35.6904 60.9355 39.1709 60.9355ZM39.1709 61.9727C36.5693 61.9727 35.0576 62.6055 35.0752 63.625C35.0576 64.7148 36.5693 65.3125 39.1709 65.3125C41.7549 65.3125 43.2842 64.7148 43.2842 63.625C43.2842 62.6055 41.7549 61.9727 39.1709 61.9727ZM46.29 67.4219V68.5469H32.0518V67.4219H46.29ZM44.4619 69.9004V73.3984H35.1807V75.0156H44.9365V76.1055H33.8096V72.3789H43.1084V70.9551H33.7744V69.9004H44.4619ZM64.3428 60.6543V64.0469H66.6982V65.207H64.3428V68.6172H62.9717V60.6543H64.3428ZM60.0186 61.5508V67.791H52.7939V61.5508H60.0186ZM54.1475 62.6758V66.6836H58.6826V62.6758H54.1475ZM64.3428 69.3555V73.1699H55.7646V74.9629H64.9229V76.0703H54.4111V72.1152H62.9717V70.4629H54.376V69.3555H64.3428ZM81.9912 73.1875V74.3477H67.6826V73.1875H74.1162V70.2344H69.4756V65.418H78.8271V62.957H69.4404V61.8145H80.1807V66.543H70.8467V69.0918H80.5498V70.2344H75.4697V73.1875H81.9912ZM102.065 73.2227V74.3652H87.7568V73.2227H91.7471V69.4961H89.0576V68.3535H91.501V63.2559H89.0225V62.1133H100.694V63.2559H98.2158V68.3535H100.659V69.4961H97.9697V73.2227H102.065ZM92.8721 68.3535H96.8623V63.2559H92.8721V68.3535ZM93.1357 73.2227H96.5986V69.4961H93.1357V73.2227ZM116.269 60.6719V72.5898H114.88V69.2324H112.173V68.1074H114.88V65.9805H112.173V64.8379H114.88V60.6719H116.269ZM112.173 62.5879V63.7129H103.331V62.5879H107.128V60.6543H108.499V62.5879H112.173ZM107.796 64.5742C109.888 64.5742 111.364 65.7695 111.364 67.5625C111.364 69.3379 109.888 70.5508 107.796 70.5508C105.704 70.5508 104.245 69.3379 104.263 67.5625C104.245 65.7695 105.704 64.5742 107.796 64.5742ZM107.796 65.6641C106.46 65.6816 105.546 66.4375 105.546 67.5625C105.546 68.6875 106.46 69.4434 107.796 69.4434C109.132 69.4434 110.046 68.6875 110.063 67.5625C110.046 66.4375 109.132 65.6816 107.796 65.6641ZM116.62 74.7871V75.9473H106.161V71.5352H107.55V74.7871H116.62ZM130.964 60.6543V67.1055H133.583V68.248H130.964V76.2812H129.593V60.6543H130.964ZM128.081 63.168V64.3105H118.782V63.168H122.808V60.8477H124.179V63.168H128.081ZM123.511 65.6113C125.726 65.6113 127.325 67.0879 127.343 69.1973C127.325 71.3066 125.726 72.7832 123.511 72.7832C121.278 72.7832 119.661 71.3066 119.679 69.1973C119.661 67.0879 121.278 65.6113 123.511 65.6113ZM123.511 66.7715C122.052 66.7715 120.979 67.791 120.997 69.1973C120.979 70.6211 122.052 71.623 123.511 71.6055C124.952 71.623 126.007 70.6211 126.024 69.1973C126.007 67.791 124.952 66.7715 123.511 66.7715ZM140.017 65.4531C140.017 68.1074 141.95 70.7969 144.253 71.7988L143.479 72.8887C141.651 72.0537 140.069 70.252 139.349 68.0898C138.61 70.3838 137.037 72.3789 135.253 73.2754L134.427 72.1855C136.659 71.1133 138.61 68.1602 138.628 65.4531V63.4141H134.937V62.2715H143.743V63.4141H140.017V65.4531ZM147.312 60.6543V76.2812H145.923V60.6543H147.312ZM166.929 61.3223V66.5605H162.306V68.4062H168.739V69.5312H154.501V68.4062H160.952V66.5605H156.347V61.3223H166.929ZM157.7 62.4297V65.4355H165.558V62.4297H157.7ZM162.306 71.0605C162.306 73.1348 164.802 74.6816 167.649 75.0859L167.087 76.1934C164.714 75.7891 162.552 74.6729 161.62 72.959C160.68 74.6729 158.509 75.7891 156.136 76.1934L155.608 75.0859C158.421 74.6816 160.917 73.1348 160.917 71.0605V70.5156H162.306V71.0605ZM182.274 60.6016V64.3984H184.647V65.541H182.274V69.25H180.903V60.6016H182.274ZM182.274 70.0586V73.5215H173.696V75.0508H182.854V76.1055H172.343V72.502H180.903V71.0957H172.308V70.0586H182.274ZM179.409 62.0781V63.1855H170.093V62.0781H174.065V60.4961H175.437V62.0781H179.409ZM174.751 63.8887C177.019 63.8887 178.495 64.873 178.513 66.4551C178.495 68.0371 177.019 69.0215 174.751 69.0215C172.466 69.0215 170.972 68.0371 170.989 66.4551C170.972 64.873 172.466 63.8887 174.751 63.8887ZM174.751 64.9082C173.274 64.9082 172.29 65.5234 172.308 66.4551C172.29 67.4043 173.274 67.9844 174.751 67.9844C176.228 67.9844 177.194 67.4043 177.212 66.4551C177.194 65.5234 176.228 64.9082 174.751 64.9082ZM200.485 61.0059V67.0527H202.384V60.6543H203.702V76.2812H202.384V68.1953H200.485V75.5078H199.202V61.0059H200.485ZM193.999 62.6406V63.7832H191.89V71.0254C192.479 71.0078 193.252 70.9375 194.104 70.7266L194.228 71.9043C192.909 72.2031 191.89 72.2031 191.222 72.2031H190.606V62.6406H193.999ZM198.147 62.6406V63.7832H195.933V71.0254C196.662 71.0166 197.532 70.9463 198.481 70.6738L198.604 71.8516C197.304 72.2031 196.231 72.2031 195.317 72.2031H194.685V62.6406H198.147ZM208.255 73.6797L206.884 78.4609H205.583L206.55 73.6797H208.255ZM13.2607 92.3242V93.8887C13.2607 95.8574 13.2607 98.0898 12.6807 101.482L11.2744 101.342C11.9072 98.1426 11.9072 95.8047 11.9072 93.8887V93.4668H2.48535V92.3242H13.2607ZM15.1768 102.836V103.979H0.938477V102.836H15.1768ZM28.8701 92.2363V102.309H21.6631V92.2363H28.8701ZM22.999 93.3438V101.184H27.499V93.3438H22.999ZM33.1064 90.6543V96.8945H35.7256V98.0898H33.1064V106.281H31.7354V90.6543H33.1064ZM43.6885 91.0059C47.0811 91.0059 49.208 92.0957 49.208 93.9766C49.208 95.8223 47.0811 96.8945 43.6885 96.8945C40.2959 96.8945 38.1514 95.8223 38.1514 93.9766C38.1514 92.0957 40.2959 91.0059 43.6885 91.0059ZM43.6885 92.1133C41.1572 92.1133 39.5576 92.8164 39.5752 93.9766C39.5576 95.1191 41.1572 95.7871 43.6885 95.8047C46.1846 95.7871 47.8018 95.1191 47.8018 93.9766C47.8018 92.8164 46.1846 92.1133 43.6885 92.1133ZM49.0674 100.938V106.07H38.3096V100.938H49.0674ZM39.6807 102.045V104.945H47.7139V102.045H39.6807ZM50.8076 98.248V99.3906H36.5693V98.248H50.8076ZM66.3643 98.8984V100.023H52.126V98.8984H66.3643ZM64.7822 104.787V105.947H53.9717V101.395H55.3604V104.787H64.7822ZM59.2451 91.2168C62.6025 91.1992 64.7646 92.3594 64.7646 94.3105C64.7646 96.2617 62.6025 97.4219 59.2451 97.4219C55.8525 97.4219 53.708 96.2617 53.708 94.3105C53.708 92.3594 55.8525 91.1992 59.2451 91.2168ZM59.2451 92.3242C56.7314 92.3242 55.1143 93.0801 55.1318 94.3105C55.1143 95.541 56.7314 96.2969 59.2451 96.2969C61.7412 96.2969 63.3584 95.541 63.3584 94.3105C63.3584 93.0801 61.7412 92.3242 59.2451 92.3242ZM86.5088 103.117V104.277H72.2002V103.117H78.6514V99.3203H80.04V103.117H86.5088ZM80.04 93.625C80.04 96.1211 83.1338 98.2656 85.8232 98.7051L85.2607 99.7949C82.8701 99.3291 80.3477 97.8086 79.3545 95.6289C78.3438 97.8174 75.8301 99.373 73.4834 99.8652L72.9033 98.7578C75.54 98.3008 78.6162 96.1211 78.6162 93.625V93.2383H73.3779V92.0781H85.2783V93.2383H80.04V93.625ZM101.995 98.3887V99.5312H87.7568V98.3887H91.29V96.1914C90.042 95.708 89.3389 94.9082 89.3389 93.8535C89.3389 92.0078 91.4482 90.9531 94.876 90.9531C98.2686 90.9531 100.396 92.0078 100.396 93.8535C100.396 94.8994 99.7012 95.6992 98.4619 96.1738V98.3887H101.995ZM94.876 100.727C98.2334 100.727 100.237 101.693 100.255 103.486C100.237 105.262 98.2334 106.246 94.876 106.246C91.4834 106.246 89.4795 105.262 89.4795 103.486C89.4795 101.693 91.4834 100.727 94.876 100.727ZM94.876 101.781C92.3623 101.799 90.8682 102.414 90.8857 103.486C90.8682 104.541 92.3623 105.174 94.876 105.174C97.3545 105.174 98.8662 104.541 98.8662 103.486C98.8662 102.414 97.3545 101.799 94.876 101.781ZM94.876 92.043C92.3271 92.043 90.7451 92.7285 90.7627 93.8535C90.7451 94.9961 92.3271 95.6641 94.876 95.6641C97.4072 95.6641 98.9893 94.9961 98.9893 93.8535C98.9893 92.7285 97.4072 92.043 94.876 92.043ZM92.6611 98.3887H97.0908V96.5605C96.4316 96.6748 95.6934 96.7363 94.876 96.7363C94.0586 96.7363 93.3203 96.6748 92.6611 96.5605V98.3887ZM116.198 90.6543V106.281H114.81V90.6543H116.198ZM113.122 93.2031V94.3281H103.665V93.2031H107.69V90.8125H109.079V93.2031H113.122ZM108.429 95.6113C110.679 95.6113 112.296 97.0879 112.296 99.1973C112.296 101.307 110.679 102.783 108.429 102.783C106.161 102.783 104.526 101.307 104.544 99.1973C104.526 97.0879 106.161 95.6113 108.429 95.6113ZM108.429 96.7715C106.935 96.7715 105.845 97.791 105.845 99.1973C105.845 100.621 106.935 101.623 108.429 101.605C109.905 101.623 110.978 100.621 110.978 99.1973C110.978 97.791 109.905 96.7715 108.429 96.7715ZM135.938 100.674V101.676H126.552V102.889H135.569V103.838H126.552V105.121H136.114V106.105H125.163V100.674H135.938ZM136.8 91.8496V92.8691H124.126V91.8496H129.821V90.4082H131.192V91.8496H136.8ZM130.507 93.5195C133.794 93.5195 135.569 94.2227 135.569 95.6289C135.569 97.0352 133.794 97.7383 130.507 97.7383C127.22 97.7383 125.427 97.0352 125.427 95.6289C125.427 94.2227 127.22 93.5195 130.507 93.5195ZM130.507 94.4863C128.134 94.4863 126.886 94.873 126.903 95.6289C126.886 96.3848 128.134 96.7715 130.507 96.7715C132.862 96.7715 134.11 96.3848 134.128 95.6289C134.11 94.873 132.862 94.4863 130.507 94.4863ZM137.626 98.6172V99.6719H123.388V98.6172H137.626ZM151.161 90.6543V93.9238H153.517V95.084H151.161V98.5469H149.79V90.6543H151.161ZM141.089 91.3574V96.5957C143.312 96.6045 145.606 96.4463 148.138 95.9277L148.313 97.0879C145.642 97.6328 143.304 97.791 140.948 97.791H139.7V91.3574H141.089ZM151.161 99.3027V103.117H142.601V104.945H151.741V106.07H141.229V102.027H149.79V100.41H141.194V99.3027H151.161ZM167.403 90.6543V106.316H166.032V90.6543H167.403ZM162.657 92.1133V97.668H156.821V101.359C159.414 101.359 161.726 101.245 164.521 100.797L164.661 101.957C161.778 102.414 159.405 102.52 156.716 102.52H155.415V96.543H161.269V93.2559H155.38V92.1133H162.657ZM182.696 95.4004V96.5078H171.991V91.2344H173.362V95.4004H182.696ZM184.349 98.6348V99.7598H170.04V98.6348H184.349ZM182.784 104.752V105.895H171.903V101.359H173.274V104.752H182.784ZM203.034 90.6719V102.133H201.663V90.6719H203.034ZM203.526 104.787V105.947H192.944V101.078H194.315V104.787H203.526ZM195.669 93.1152C195.651 95.4883 197.286 97.6328 199.606 98.4766L198.886 99.584C197.075 98.8896 195.669 97.4834 194.983 95.6816C194.289 97.5977 192.865 99.1357 191.046 99.8652L190.29 98.793C192.663 97.8789 194.263 95.5762 194.263 93.1152V91.5508H195.669V93.1152ZM213.616 91.7266V92.8691H207.798V94.9082H213.317V95.998H207.798V98.1602C210.839 98.1602 212.588 98.0811 214.636 97.7031L214.794 98.8457C212.632 99.2148 210.839 99.2852 207.604 99.2676H206.427V91.7266H213.616ZM217.905 90.6543V94.8203H220.261V95.998H217.905V100.129H216.534V90.6543H217.905ZM217.905 100.902V106.281H216.534V102.027H207.675V100.902H217.905ZM234.13 90.6543V106.316H232.741V90.6543H234.13ZM225.815 91.8672C228.136 91.8848 229.806 93.9941 229.806 97.3164C229.806 100.639 228.136 102.748 225.815 102.748C223.478 102.748 221.825 100.639 221.825 97.3164C221.825 93.9941 223.478 91.8848 225.815 91.8672ZM225.815 93.0977C224.251 93.1152 223.161 94.7676 223.161 97.3164C223.161 99.8652 224.251 101.518 225.815 101.518C227.38 101.518 228.47 99.8652 228.47 97.3164C228.47 94.7676 227.38 93.1152 225.815 93.0977ZM250.407 95.7871V96.9121H247.243V99.0918C248.702 99.0303 250.161 98.9248 251.515 98.7754L251.62 99.7949C248.263 100.252 244.536 100.357 241.601 100.357L241.39 99.2324C242.761 99.2236 244.299 99.2061 245.872 99.1445V96.9121H242.813V91.6738H250.284V92.8164H244.202V95.7871H250.407ZM254.204 90.6719V102.361H252.815V90.6719H254.204ZM254.714 104.787V105.947H244.062V101.553H245.433V104.787H254.714ZM268.97 90.6543V96.8418H271.589V98.002H268.97V106.316H267.599V90.6543H268.97ZM264.856 92.1836V93.3262H258.933V101.236C261.763 101.236 263.767 101.104 266.087 100.674L266.263 101.869C263.819 102.309 261.763 102.396 258.792 102.396H257.562V92.1836H264.856ZM274.085 104.963C273.47 104.963 272.942 104.453 272.96 103.82C272.942 103.205 273.47 102.695 274.085 102.695C274.7 102.695 275.21 103.205 275.21 103.82C275.21 104.453 274.7 104.963 274.085 104.963ZM14.3506 121.762V122.781H1.67676V121.762H7.37207V120.408H8.74316V121.762H14.3506ZM8.05762 123.432C11.3447 123.432 13.1201 124.1 13.1201 125.453C13.1201 126.71 11.5908 127.378 8.74316 127.475V128.564H15.1768V129.602H0.938477V128.564H7.37207V127.475C4.49805 127.378 2.97754 126.71 2.97754 125.453C2.97754 124.1 4.73535 123.432 8.05762 123.432ZM8.05762 124.381C5.68457 124.381 4.43652 124.75 4.4541 125.453C4.43652 126.174 5.68457 126.561 8.05762 126.561C10.4131 126.561 11.6611 126.174 11.6787 125.453C11.6611 124.75 10.4131 124.381 8.05762 124.381ZM13.3486 130.621V133.768H4.10254V135.086H13.8232V136.105H2.69629V132.801H11.96V131.623H2.66113V130.621H13.3486ZM29.5908 120.654V136.281H28.2021V120.654H29.5908ZM20.0635 125.629C20.0635 127.193 20.3799 129.505 21.6631 131.061C22.9111 129.54 23.2275 127.29 23.2275 125.629V122.061H24.5635V125.629C24.5459 127.686 25.1084 130.375 27.042 131.729L26.1631 132.73C24.9766 131.878 24.2734 130.463 23.9131 128.934C23.5439 130.489 22.8672 131.975 21.6631 132.854C20.4414 131.966 19.7646 130.472 19.4131 128.916C19.0264 130.428 18.3408 131.834 17.1982 132.695L16.2842 131.729C18.2002 130.34 18.7627 127.615 18.7627 125.629V122.061H20.0635V125.629ZM44.6904 125.4V126.508H33.9854V121.234H35.3564V125.4H44.6904ZM46.3428 128.635V129.76H32.0342V128.635H46.3428ZM44.7783 134.752V135.895H33.8975V131.359H35.2686V134.752H44.7783ZM57.3643 124.855C57.3643 127.615 59.1924 130.445 61.4072 131.535L60.5635 132.643C58.8408 131.737 57.3994 129.892 56.7139 127.721C56.0107 130.032 54.5342 132.001 52.7764 132.941L51.8975 131.834C54.1826 130.709 55.9932 127.703 56.0107 124.855V122.008H57.3643V124.855ZM64.2197 120.654V127H66.8389V128.195H64.2197V136.281H62.8486V120.654H64.2197ZM79.7764 120.654V126.877H82.3955V128.037H79.7764V136.316H78.4053V120.654H79.7764ZM75.3994 122.113V127.703H69.7041V131.359C72.6045 131.359 74.626 131.263 76.999 130.814L77.1396 131.957C74.6787 132.414 72.5869 132.52 69.5811 132.537H68.333V126.561H74.0283V123.256H68.2979V122.113H75.3994ZM88.8291 125.453C88.8291 128.107 90.7627 130.797 93.0654 131.799L92.292 132.889C90.4639 132.054 88.8818 130.252 88.1611 128.09C87.4229 130.384 85.8496 132.379 84.0654 133.275L83.2393 132.186C85.4717 131.113 87.4229 128.16 87.4404 125.453V123.414H83.749V122.271H92.5557V123.414H88.8291V125.453ZM96.124 120.654V136.281H94.7354V120.654H96.124ZM104.386 125.453C104.386 128.107 106.319 130.797 108.622 131.799L107.849 132.889C106.021 132.054 104.438 130.252 103.718 128.09C102.979 130.384 101.406 132.379 99.6221 133.275L98.7959 132.186C101.028 131.113 102.979 128.16 102.997 125.453V123.414H99.3057V122.271H108.112V123.414H104.386V125.453ZM111.681 120.654V136.281H110.292V120.654H111.681ZM122.245 122.078V129.268H115.021V122.078H122.245ZM116.374 123.203V128.16H120.909V123.203H116.374ZM126.569 120.654V125.418H128.925V126.578H126.569V132.115H125.198V120.654H126.569ZM127.29 134.787V135.947H116.796V131.025H118.149V134.787H127.29ZM132.476 133.68L131.104 138.461H129.804L130.771 133.68H132.476ZM13.2607 152.324V153.889C13.2607 155.857 13.2607 158.09 12.6807 161.482L11.2744 161.342C11.9072 158.143 11.9072 155.805 11.9072 153.889V153.467H2.48535V152.324H13.2607ZM15.1768 162.836V163.979H0.938477V162.836H15.1768ZM28.8525 151.85C28.8525 153.889 31.7002 155.752 34.4072 156.174L33.8623 157.264C31.4893 156.859 29.1426 155.541 28.1494 153.713C27.165 155.576 24.792 156.877 22.4189 157.281L21.874 156.191C24.5986 155.77 27.4287 153.959 27.4287 151.85V151.059H28.8525V151.85ZM35.3037 158.617V159.76H28.9404V162.959H27.5693V159.76H20.9951V158.617H35.3037ZM33.7041 164.787V165.947H22.8232V161.43H24.2119V164.787H33.7041ZM48.7861 150.654V155.418H51.1416V156.578H48.7861V162.098H47.3975V150.654H48.7861ZM44.5674 151.867C44.5674 155.893 41.6846 158.881 37.1846 160.287L36.5869 159.18C40.3311 158.011 42.7744 155.778 43.0732 153.027H37.2373V151.867H44.5674ZM49.5068 164.787V165.947H38.9951V160.938H40.3662V164.787H49.5068ZM57.2412 151.797C59.7021 151.797 61.4424 153.291 61.4424 155.471C61.4424 157.65 59.7021 159.145 57.2412 159.145C54.7803 159.145 53.0049 157.65 53.0225 155.471C53.0049 153.291 54.7803 151.797 57.2412 151.797ZM57.2412 153.01C55.5713 153.01 54.3584 154.012 54.376 155.471C54.3584 156.93 55.5713 157.932 57.2412 157.932C58.8936 157.932 60.0889 156.93 60.0889 155.471C60.0889 154.012 58.8936 153.01 57.2412 153.01ZM64.9404 150.654V166.316H63.5693V150.654H64.9404ZM52.2139 161.693C55.0967 161.693 59.0693 161.676 62.5322 161.166L62.6377 162.186C59.0693 162.854 55.2197 162.871 52.4072 162.871L52.2139 161.693ZM85.085 150.654V159.742H83.7314V150.654H85.085ZM85.4893 160.85V161.939H80.8486C80.9277 163.425 83.3887 164.884 86.0342 165.209L85.5244 166.281C83.1865 165.947 81.0508 164.849 80.1279 163.398C79.1963 164.884 76.999 165.965 74.6436 166.281L74.1514 165.227C76.7969 164.937 79.3457 163.478 79.4248 161.939H74.8018V160.85H79.4424V159.338H80.8135V160.85H85.4893ZM74.3975 151.322V153.748H79.0029V151.322H80.374V158.301H73.0264V151.322H74.3975ZM74.3975 157.193H79.0029V154.82H74.3975V157.193ZM96.4229 152.395V153.203C96.4053 154.434 96.4053 156.508 95.9658 159.408L94.5771 159.285C94.999 156.666 95.0342 154.768 95.0342 153.52H88.4775V152.395H96.4229ZM92.3271 156.859V161.605C94.0586 161.544 95.834 161.43 97.46 161.236L97.5303 162.273C94.2432 162.783 90.5693 162.854 87.7744 162.836L87.5986 161.693C88.627 161.685 89.7695 161.676 90.9736 161.641V156.859H92.3271ZM99.8154 150.654V157.193H102.347V158.389H99.8154V166.281H98.4443V150.654H99.8154ZM120.153 152.324V153.889C120.153 155.857 120.153 158.09 119.573 161.482L118.167 161.342C118.8 158.143 118.8 155.805 118.8 153.889V153.467H109.378V152.324H120.153ZM122.069 162.836V163.979H107.831V162.836H122.069ZM136.29 150.672V159.936H134.919V150.672H136.29ZM131.315 151.621V155.857H125.55V158.02C128.345 158.037 130.437 157.949 132.968 157.527L133.126 158.688C130.507 159.092 128.362 159.18 125.479 159.18H124.214V154.768H129.944V152.729H124.179V151.621H131.315ZM136.29 160.779V166.07H126.13V160.779H136.29ZM127.483 161.904V164.945H134.937V161.904H127.483ZM144.235 155.453C144.218 157.967 146.028 160.727 148.296 161.799L147.505 162.889C145.747 162.036 144.262 160.173 143.567 158.055C142.847 160.357 141.273 162.379 139.524 163.275L138.681 162.186C140.931 161.096 142.864 158.125 142.882 155.453V153.414H139.243V152.271H147.751V153.414H144.235V155.453ZM151.038 150.654V156.982H153.657V158.16H151.038V166.281H149.667V150.654H151.038ZM167.14 155.4V156.508H156.435V151.234H157.806V155.4H167.14ZM168.792 158.635V159.76H154.483V158.635H168.792ZM167.228 164.752V165.895H156.347V161.359H157.718V164.752H167.228ZM182.433 152.236V162.309H175.226V152.236H182.433ZM176.562 153.344V161.184H181.062V153.344H176.562ZM186.669 150.654V156.895H189.288V158.09H186.669V166.281H185.298V150.654H186.669ZM197.251 151.006C200.644 151.006 202.771 152.096 202.771 153.977C202.771 155.822 200.644 156.895 197.251 156.895C193.858 156.895 191.714 155.822 191.714 153.977C191.714 152.096 193.858 151.006 197.251 151.006ZM197.251 152.113C194.72 152.113 193.12 152.816 193.138 153.977C193.12 155.119 194.72 155.787 197.251 155.805C199.747 155.787 201.364 155.119 201.364 153.977C201.364 152.816 199.747 152.113 197.251 152.113ZM202.63 160.938V166.07H191.872V160.938H202.63ZM193.243 162.045V164.945H201.276V162.045H193.243ZM204.37 158.248V159.391H190.132V158.248H204.37ZM219.979 158.512V159.654H205.688V158.512H212.122V156.104H213.476V158.512H219.979ZM213.493 151.639C213.493 153.713 216.306 155.453 219.065 155.84L218.503 156.947C216.13 156.534 213.783 155.277 212.808 153.467C211.823 155.286 209.468 156.534 207.077 156.947L206.55 155.84C209.31 155.453 212.104 153.713 212.104 151.639V150.9H213.493V151.639ZM218.169 161.184V166.281H216.78V162.291H207.271V161.184H218.169ZM234.64 150.654V166.281H233.304V150.654H234.64ZM231.493 150.988V165.49H230.175V157.896H228.171C228.021 160.938 226.729 162.836 224.796 162.836C222.757 162.836 221.438 160.727 221.438 157.404C221.438 154.082 222.757 151.973 224.796 151.973C226.694 151.973 227.978 153.81 228.153 156.754H230.175V150.988H231.493ZM224.796 153.273C223.53 153.273 222.722 154.855 222.739 157.404C222.722 159.936 223.53 161.535 224.796 161.518C226.062 161.535 226.87 159.936 226.87 157.404C226.87 154.855 226.062 153.273 224.796 153.273ZM248.438 151.674C251.761 151.691 254.151 153.309 254.151 155.77C254.151 158.099 252.077 159.646 249.106 159.83V163.117H255.628V164.277H241.319V163.117H247.753V159.83C244.791 159.637 242.726 158.09 242.726 155.77C242.726 153.309 245.116 151.691 248.438 151.674ZM248.438 152.816C245.907 152.816 244.062 154.012 244.062 155.77C244.062 157.58 245.907 158.74 248.438 158.758C250.97 158.74 252.815 157.58 252.815 155.77C252.815 154.012 250.97 152.816 248.438 152.816ZM263.257 152.359V157.826H258.739V161.377C260.532 161.368 262.229 161.289 264.259 160.955L264.382 162.08C262.167 162.467 260.392 162.537 258.423 162.537H257.403V156.684H261.921V153.52H257.368V152.359H263.257ZM270.235 150.654V166.281H268.917V157.984H266.614V165.473H265.349V151.006H266.614V156.842H268.917V150.654H270.235ZM289.167 150.672V154.258H291.54V155.418H289.167V159.496H287.796V150.672H289.167ZM289.167 160.357V166.07H279.271V160.357H289.167ZM280.624 161.447V164.945H287.831V161.447H280.624ZM279.095 151.463V157.141C281.318 157.132 283.612 156.956 286.144 156.438L286.319 157.598C283.665 158.125 281.31 158.301 278.954 158.301H277.706V151.463H279.095ZM305.146 155.4V156.508H294.44V151.234H295.812V155.4H305.146ZM306.798 158.635V159.76H292.489V158.635H306.798ZM305.233 164.752V165.895H294.353V161.359H295.724V164.752H305.233ZM320.157 150.654V156.842H322.776V158.002H320.157V166.316H318.786V150.654H320.157ZM316.044 152.184V153.326H310.12V161.236C312.95 161.236 314.954 161.104 317.274 160.674L317.45 161.869C315.007 162.309 312.95 162.396 309.979 162.396H308.749V152.184H316.044ZM325.272 164.963C324.657 164.963 324.13 164.453 324.147 163.82C324.13 163.205 324.657 162.695 325.272 162.695C325.888 162.695 326.397 163.205 326.397 163.82C326.397 164.453 325.888 164.963 325.272 164.963Z" fill="#1A1A1A"/>
</svg>
