<svg width="116" height="31" viewBox="0 0 116 31" fill="none" xmlns="http://www.w3.org/2000/svg">
<path d="M42.2176 1.10451V2.51451H35.3926V6.60951L41.5576 6.59451V8.00451H35.3926V13.1195H33.8176V1.10451H42.2176ZM47.4874 4.32951C48.3174 4.32951 49.0674 4.52451 49.7374 4.91451C50.4074 5.30451 50.9274 5.84451 51.2974 6.53451C51.6774 7.21451 51.8674 7.97951 51.8674 8.82951C51.8674 9.67951 51.6774 10.4495 51.2974 11.1395C50.9274 11.8195 50.4074 12.3545 49.7374 12.7445C49.0674 13.1345 48.3174 13.3295 47.4874 13.3295C46.6474 13.3295 45.8924 13.1345 45.2224 12.7445C44.5624 12.3545 44.0424 11.8195 43.6624 11.1395C43.2824 10.4495 43.0924 9.67951 43.0924 8.82951C43.0924 7.97951 43.2824 7.21451 43.6624 6.53451C44.0424 5.84451 44.5624 5.30451 45.2224 4.91451C45.8924 4.52451 46.6474 4.32951 47.4874 4.32951ZM47.4874 5.69451C46.9274 5.69451 46.4274 5.83451 45.9874 6.11451C45.5574 6.38451 45.2174 6.75951 44.9674 7.23951C44.7274 7.70951 44.6074 8.23951 44.6074 8.82951C44.6074 9.41951 44.7274 9.95451 44.9674 10.4345C45.2174 10.9045 45.5574 11.2795 45.9874 11.5595C46.4274 11.8295 46.9274 11.9645 47.4874 11.9645C48.0374 11.9645 48.5324 11.8295 48.9724 11.5595C49.4124 11.2795 49.7524 10.9045 49.9924 10.4345C50.2324 9.95451 50.3524 9.41951 50.3524 8.82951C50.3524 8.23951 50.2324 7.70951 49.9924 7.23951C49.7524 6.75951 49.4124 6.38451 48.9724 6.11451C48.5324 5.83451 48.0374 5.69451 47.4874 5.69451ZM55.3852 4.53951V5.84451C55.6052 5.45451 55.9652 5.10451 56.4652 4.79451C56.9752 4.48451 57.5852 4.32951 58.2952 4.32951C58.9652 4.32951 59.5602 4.48451 60.0802 4.79451C60.6102 5.10451 61.0202 5.54451 61.3102 6.11451C61.6002 6.67451 61.7452 7.33451 61.7452 8.09451V13.1195H60.2002V8.36451C60.2002 7.50451 60.0002 6.84451 59.6002 6.38451C59.2102 5.91451 58.6652 5.67951 57.9652 5.67951C57.4752 5.67951 57.0352 5.81951 56.6452 6.09951C56.2552 6.36951 55.9452 6.73451 55.7152 7.19451C55.4952 7.65451 55.3852 8.14951 55.3852 8.67951V13.1195H53.8402V4.53951H55.3852ZM67.728 13.3295C66.928 13.3295 66.203 13.1345 65.553 12.7445C64.913 12.3545 64.408 11.8145 64.038 11.1245C63.668 10.4345 63.483 9.66951 63.483 8.82951C63.483 7.98951 63.668 7.22451 64.038 6.53451C64.408 5.84451 64.913 5.30451 65.553 4.91451C66.203 4.52451 66.928 4.32951 67.728 4.32951C68.458 4.32951 69.088 4.47451 69.618 4.76451C70.148 5.05451 70.533 5.40451 70.773 5.81451V0.729511H72.318V13.1195H70.773V11.8445C70.533 12.2545 70.148 12.6045 69.618 12.8945C69.088 13.1845 68.458 13.3295 67.728 13.3295ZM67.863 11.9645C68.433 11.9645 68.938 11.8295 69.378 11.5595C69.828 11.2795 70.178 10.9045 70.428 10.4345C70.678 9.95451 70.803 9.41951 70.803 8.82951C70.803 8.23951 70.678 7.70951 70.428 7.23951C70.178 6.75951 69.828 6.38451 69.378 6.11451C68.938 5.83451 68.433 5.69451 67.863 5.69451C67.303 5.69451 66.803 5.82951 66.363 6.09951C65.933 6.36951 65.598 6.74451 65.358 7.22451C65.118 7.70451 64.998 8.23951 64.998 8.82951C64.998 9.41951 65.118 9.95451 65.358 10.4345C65.598 10.9145 65.933 11.2895 66.363 11.5595C66.803 11.8295 67.303 11.9645 67.863 11.9645ZM76.2886 4.53951V5.84451C76.5086 5.45451 76.8686 5.10451 77.3686 4.79451C77.8786 4.48451 78.4886 4.32951 79.1986 4.32951C79.8686 4.32951 80.4636 4.48451 80.9836 4.79451C81.5136 5.10451 81.9236 5.54451 82.2136 6.11451C82.5036 6.67451 82.6486 7.33451 82.6486 8.09451V13.1195H81.1036V8.36451C81.1036 7.50451 80.9036 6.84451 80.5036 6.38451C80.1136 5.91451 79.5686 5.67951 78.8686 5.67951C78.3786 5.67951 77.9386 5.81951 77.5486 6.09951C77.1586 6.36951 76.8486 6.73451 76.6186 7.19451C76.3986 7.65451 76.2886 8.14951 76.2886 8.67951V13.1195H74.7436V4.53951H76.2886ZM88.6913 13.3295C87.8713 13.3295 87.1313 13.1345 86.4713 12.7445C85.8213 12.3545 85.3113 11.8195 84.9413 11.1395C84.5713 10.4495 84.3863 9.67951 84.3863 8.82951C84.3863 7.97951 84.5713 7.21451 84.9413 6.53451C85.3113 5.84451 85.8213 5.30451 86.4713 4.91451C87.1313 4.52451 87.8713 4.32951 88.6913 4.32951C89.5113 4.32951 90.2463 4.52451 90.8963 4.91451C91.5563 5.30451 92.0663 5.84451 92.4263 6.53451C92.7963 7.21451 92.9813 7.97951 92.9813 8.82951C92.9813 9.10951 92.9713 9.31951 92.9513 9.45951H85.9313C86.0113 10.2095 86.3013 10.8245 86.8013 11.3045C87.3113 11.7845 87.9413 12.0245 88.6913 12.0245C89.2613 12.0245 89.7613 11.9095 90.1913 11.6795C90.6313 11.4395 90.9313 11.1395 91.0913 10.7795H92.6663C92.4263 11.5295 91.9463 12.1395 91.2263 12.6095C90.5063 13.0895 89.6613 13.3295 88.6913 13.3295ZM91.4663 8.19951C91.3763 7.43951 91.0813 6.82451 90.5813 6.35451C90.0813 5.87451 89.4513 5.63451 88.6913 5.63451C87.9313 5.63451 87.3013 5.87451 86.8013 6.35451C86.3013 6.82451 86.0113 7.43951 85.9313 8.19951H91.4663ZM98.3188 4.32951C99.0088 4.32951 99.6338 4.43951 100.194 4.65951C100.754 4.86951 101.199 5.16451 101.529 5.54451C101.869 5.91451 102.049 6.33951 102.069 6.81951H100.554C100.524 6.45951 100.294 6.16451 99.8638 5.93451C99.4338 5.70451 98.9038 5.58951 98.2738 5.58951C97.6538 5.58951 97.1388 5.69951 96.7288 5.91951C96.3288 6.13951 96.1288 6.40951 96.1288 6.72951C96.1288 7.09951 96.3138 7.39451 96.6838 7.61451C97.0638 7.83451 97.7588 8.01451 98.7688 8.15451C100.019 8.32451 100.914 8.61451 101.454 9.02451C101.994 9.43451 102.264 9.98451 102.264 10.6745C102.264 11.2145 102.089 11.6845 101.739 12.0845C101.399 12.4845 100.934 12.7895 100.344 12.9995C99.7538 13.2195 99.0988 13.3295 98.3788 13.3295C97.6288 13.3295 96.9688 13.2145 96.3988 12.9845C95.8288 12.7645 95.3788 12.4545 95.0488 12.0545C94.7288 11.6645 94.5488 11.2195 94.5088 10.7195H96.0238C96.0738 11.0895 96.3038 11.4095 96.7138 11.6795C97.1338 11.9395 97.7038 12.0695 98.4238 12.0695C99.0938 12.0695 99.6488 11.9495 100.089 11.7095C100.529 11.4595 100.749 11.1445 100.749 10.7645C100.749 10.4045 100.544 10.1195 100.134 9.90951C99.7338 9.68951 99.0338 9.51451 98.0338 9.38451C96.8538 9.22451 95.9888 8.94451 95.4388 8.54451C94.8888 8.13451 94.6138 7.55951 94.6138 6.81951C94.6138 6.32951 94.7738 5.89451 95.0938 5.51451C95.4238 5.13451 95.8688 4.84451 96.4288 4.64451C96.9888 4.43451 97.6188 4.32951 98.3188 4.32951ZM107.591 4.32951C108.281 4.32951 108.906 4.43951 109.466 4.65951C110.026 4.86951 110.471 5.16451 110.801 5.54451C111.141 5.91451 111.321 6.33951 111.341 6.81951H109.826C109.796 6.45951 109.566 6.16451 109.136 5.93451C108.706 5.70451 108.176 5.58951 107.546 5.58951C106.926 5.58951 106.411 5.69951 106.001 5.91951C105.601 6.13951 105.401 6.40951 105.401 6.72951C105.401 7.09951 105.586 7.39451 105.956 7.61451C106.336 7.83451 107.031 8.01451 108.041 8.15451C109.291 8.32451 110.186 8.61451 110.726 9.02451C111.266 9.43451 111.536 9.98451 111.536 10.6745C111.536 11.2145 111.361 11.6845 111.011 12.0845C110.671 12.4845 110.206 12.7895 109.616 12.9995C109.026 13.2195 108.371 13.3295 107.651 13.3295C106.901 13.3295 106.241 13.2145 105.671 12.9845C105.101 12.7645 104.651 12.4545 104.321 12.0545C104.001 11.6645 103.821 11.2195 103.781 10.7195H105.296C105.346 11.0895 105.576 11.4095 105.986 11.6795C106.406 11.9395 106.976 12.0695 107.696 12.0695C108.366 12.0695 108.921 11.9495 109.361 11.7095C109.801 11.4595 110.021 11.1445 110.021 10.7645C110.021 10.4045 109.816 10.1195 109.406 9.90951C109.006 9.68951 108.306 9.51451 107.306 9.38451C106.126 9.22451 105.261 8.94451 104.711 8.54451C104.161 8.13451 103.886 7.55951 103.886 6.81951C103.886 6.32951 104.046 5.89451 104.366 5.51451C104.696 5.13451 105.141 4.84451 105.701 4.64451C106.261 4.43451 106.891 4.32951 107.591 4.32951ZM114.329 14.6345H113.099L113.579 11.2445H115.079L114.329 14.6345ZM6.48712 30.3895C5.29712 30.3895 4.22212 30.1195 3.26212 29.5795C2.30212 29.0395 1.54712 28.2895 0.997119 27.3295C0.457119 26.3695 0.187119 25.2945 0.187119 24.1045C0.187119 22.9145 0.457119 21.8395 0.997119 20.8795C1.54712 19.9195 2.30212 19.1695 3.26212 18.6295C4.22212 18.0895 5.29712 17.8195 6.48712 17.8195C7.49712 17.8195 8.40712 18.0045 9.21712 18.3745C10.0371 18.7345 10.7121 19.2395 11.2421 19.8895C11.7821 20.5395 12.1571 21.2895 12.3671 22.1395H10.7621C10.5021 21.2695 9.99712 20.5745 9.24712 20.0545C8.49712 19.5345 7.58712 19.2745 6.51712 19.2745C5.60712 19.2745 4.79212 19.4845 4.07212 19.9045C3.35212 20.3145 2.78712 20.8845 2.37712 21.6145C1.96712 22.3445 1.76212 23.1745 1.76212 24.1045C1.76212 25.0245 1.96712 25.8545 2.37712 26.5945C2.78712 27.3245 3.35212 27.8995 4.07212 28.3195C4.80212 28.7295 5.61712 28.9345 6.51712 28.9345C7.24712 28.9345 7.91712 28.8045 8.52712 28.5445C9.13712 28.2745 9.64212 27.9095 10.0421 27.4495C10.4521 26.9895 10.7321 26.4745 10.8821 25.9045H12.4871C12.3071 26.7445 11.9421 27.5045 11.3921 28.1845C10.8521 28.8645 10.1571 29.3995 9.30712 29.7895C8.45712 30.1895 7.51712 30.3895 6.48712 30.3895ZM18.3663 21.3295C19.1963 21.3295 19.9463 21.5245 20.6163 21.9145C21.2863 22.3045 21.8063 22.8445 22.1763 23.5345C22.5563 24.2145 22.7463 24.9795 22.7463 25.8295C22.7463 26.6795 22.5563 27.4495 22.1763 28.1395C21.8063 28.8195 21.2863 29.3545 20.6163 29.7445C19.9463 30.1345 19.1963 30.3295 18.3663 30.3295C17.5263 30.3295 16.7713 30.1345 16.1013 29.7445C15.4413 29.3545 14.9213 28.8195 14.5413 28.1395C14.1613 27.4495 13.9713 26.6795 13.9713 25.8295C13.9713 24.9795 14.1613 24.2145 14.5413 23.5345C14.9213 22.8445 15.4413 22.3045 16.1013 21.9145C16.7713 21.5245 17.5263 21.3295 18.3663 21.3295ZM18.3663 22.6945C17.8063 22.6945 17.3063 22.8345 16.8663 23.1145C16.4363 23.3845 16.0963 23.7595 15.8463 24.2395C15.6063 24.7095 15.4863 25.2395 15.4863 25.8295C15.4863 26.4195 15.6063 26.9545 15.8463 27.4345C16.0963 27.9045 16.4363 28.2795 16.8663 28.5595C17.3063 28.8295 17.8063 28.9645 18.3663 28.9645C18.9163 28.9645 19.4113 28.8295 19.8513 28.5595C20.2913 28.2795 20.6313 27.9045 20.8713 27.4345C21.1113 26.9545 21.2313 26.4195 21.2313 25.8295C21.2313 25.2395 21.1113 24.7095 20.8713 24.2395C20.6313 23.7595 20.2913 23.3845 19.8513 23.1145C19.4113 22.8345 18.9163 22.6945 18.3663 22.6945ZM26.2642 21.5395V22.8445C26.4842 22.4545 26.8442 22.1045 27.3442 21.7945C27.8542 21.4845 28.4642 21.3295 29.1742 21.3295C29.8442 21.3295 30.4392 21.4845 30.9592 21.7945C31.4892 22.1045 31.8992 22.5445 32.1892 23.1145C32.4792 23.6745 32.6242 24.3345 32.6242 25.0945V30.1195H31.0792V25.3645C31.0792 24.5045 30.8792 23.8445 30.4792 23.3845C30.0892 22.9145 29.5442 22.6795 28.8442 22.6795C28.3542 22.6795 27.9142 22.8195 27.5242 23.0995C27.1342 23.3695 26.8242 23.7345 26.5942 24.1945C26.3742 24.6545 26.2642 25.1495 26.2642 25.6795V30.1195H24.7192V21.5395H26.2642ZM38.1869 21.3295C38.8769 21.3295 39.5019 21.4395 40.0619 21.6595C40.6219 21.8695 41.0669 22.1645 41.3969 22.5445C41.7369 22.9145 41.9169 23.3395 41.9369 23.8195H40.4219C40.3919 23.4595 40.1619 23.1645 39.7319 22.9345C39.3019 22.7045 38.7719 22.5895 38.1419 22.5895C37.5219 22.5895 37.0069 22.6995 36.5969 22.9195C36.1969 23.1395 35.9969 23.4095 35.9969 23.7295C35.9969 24.0995 36.1819 24.3945 36.5519 24.6145C36.9319 24.8345 37.6269 25.0145 38.6369 25.1545C39.8869 25.3245 40.7819 25.6145 41.3219 26.0245C41.8619 26.4345 42.1319 26.9845 42.1319 27.6745C42.1319 28.2145 41.9569 28.6845 41.6069 29.0845C41.2669 29.4845 40.8019 29.7895 40.2119 29.9995C39.6219 30.2195 38.9669 30.3295 38.2469 30.3295C37.4969 30.3295 36.8369 30.2145 36.2669 29.9845C35.6969 29.7645 35.2469 29.4545 34.9169 29.0545C34.5969 28.6645 34.4169 28.2195 34.3769 27.7195H35.8919C35.9419 28.0895 36.1719 28.4095 36.5819 28.6795C37.0019 28.9395 37.5719 29.0695 38.2919 29.0695C38.9619 29.0695 39.5169 28.9495 39.9569 28.7095C40.3969 28.4595 40.6169 28.1445 40.6169 27.7645C40.6169 27.4045 40.4119 27.1195 40.0019 26.9095C39.6019 26.6895 38.9019 26.5145 37.9019 26.3845C36.7219 26.2245 35.8569 25.9445 35.3069 25.5445C34.7569 25.1345 34.4819 24.5595 34.4819 23.8195C34.4819 23.3295 34.6419 22.8945 34.9619 22.5145C35.2919 22.1345 35.7369 21.8445 36.2969 21.6445C36.8569 21.4345 37.4869 21.3295 38.1869 21.3295ZM44.8494 17.5795C45.1494 17.5795 45.3944 17.6795 45.5844 17.8795C45.7844 18.0695 45.8844 18.3095 45.8844 18.5995C45.8844 18.8895 45.7844 19.1345 45.5844 19.3345C45.3944 19.5245 45.1494 19.6195 44.8494 19.6195C44.5594 19.6195 44.3144 19.5245 44.1144 19.3345C43.9244 19.1345 43.8294 18.8895 43.8294 18.5995C43.8294 18.3095 43.9244 18.0695 44.1144 17.8795C44.3144 17.6795 44.5594 17.5795 44.8494 17.5795ZM44.0844 30.1345V21.5395H45.6294V30.1345H44.0844ZM51.8491 30.3295C51.0491 30.3295 50.3241 30.1345 49.6741 29.7445C49.0341 29.3545 48.5291 28.8145 48.1591 28.1245C47.7891 27.4345 47.6041 26.6695 47.6041 25.8295C47.6041 24.9895 47.7891 24.2245 48.1591 23.5345C48.5291 22.8445 49.0341 22.3045 49.6741 21.9145C50.3241 21.5245 51.0491 21.3295 51.8491 21.3295C52.5791 21.3295 53.2091 21.4745 53.7391 21.7645C54.2691 22.0545 54.6541 22.4045 54.8941 22.8145V17.7295H56.4391V30.1195H54.8941V28.8445C54.6541 29.2545 54.2691 29.6045 53.7391 29.8945C53.2091 30.1845 52.5791 30.3295 51.8491 30.3295ZM51.9841 28.9645C52.5541 28.9645 53.0591 28.8295 53.4991 28.5595C53.9491 28.2795 54.2991 27.9045 54.5491 27.4345C54.7991 26.9545 54.9241 26.4195 54.9241 25.8295C54.9241 25.2395 54.7991 24.7095 54.5491 24.2395C54.2991 23.7595 53.9491 23.3845 53.4991 23.1145C53.0591 22.8345 52.5541 22.6945 51.9841 22.6945C51.4241 22.6945 50.9241 22.8295 50.4841 23.0995C50.0541 23.3695 49.7191 23.7445 49.4791 24.2245C49.2391 24.7045 49.1191 25.2395 49.1191 25.8295C49.1191 26.4195 49.2391 26.9545 49.4791 27.4345C49.7191 27.9145 50.0541 28.2895 50.4841 28.5595C50.9241 28.8295 51.4241 28.9645 51.9841 28.9645ZM62.7197 30.3295C61.8997 30.3295 61.1597 30.1345 60.4997 29.7445C59.8497 29.3545 59.3397 28.8195 58.9697 28.1395C58.5997 27.4495 58.4147 26.6795 58.4147 25.8295C58.4147 24.9795 58.5997 24.2145 58.9697 23.5345C59.3397 22.8445 59.8497 22.3045 60.4997 21.9145C61.1597 21.5245 61.8997 21.3295 62.7197 21.3295C63.5397 21.3295 64.2747 21.5245 64.9247 21.9145C65.5847 22.3045 66.0947 22.8445 66.4547 23.5345C66.8247 24.2145 67.0097 24.9795 67.0097 25.8295C67.0097 26.1095 66.9997 26.3195 66.9797 26.4595H59.9597C60.0397 27.2095 60.3297 27.8245 60.8297 28.3045C61.3397 28.7845 61.9697 29.0245 62.7197 29.0245C63.2897 29.0245 63.7897 28.9095 64.2197 28.6795C64.6597 28.4395 64.9597 28.1395 65.1197 27.7795H66.6947C66.4547 28.5295 65.9747 29.1395 65.2547 29.6095C64.5347 30.0895 63.6897 30.3295 62.7197 30.3295ZM65.4947 25.1995C65.4047 24.4395 65.1097 23.8245 64.6097 23.3545C64.1097 22.8745 63.4797 22.6345 62.7197 22.6345C61.9597 22.6345 61.3297 22.8745 60.8297 23.3545C60.3297 23.8245 60.0397 24.4395 59.9597 25.1995H65.4947ZM70.5171 21.5395V22.8595C70.7471 22.4695 71.1271 22.1195 71.6571 21.8095C72.1971 21.4895 72.8471 21.3295 73.6071 21.3295C74.0971 21.3295 74.4871 21.3795 74.7771 21.4795V22.9495C74.4271 22.7895 74.0021 22.7095 73.5021 22.7095C72.9321 22.7095 72.4171 22.8495 71.9571 23.1295C71.5071 23.3995 71.1521 23.7645 70.8921 24.2245C70.6421 24.6745 70.5171 25.1595 70.5171 25.6795V30.1195H68.9721V21.5395H70.5171ZM79.6518 30.3295C78.8518 30.3295 78.1268 30.1345 77.4768 29.7445C76.8368 29.3545 76.3318 28.8145 75.9618 28.1245C75.5918 27.4345 75.4068 26.6695 75.4068 25.8295C75.4068 24.9895 75.5918 24.2245 75.9618 23.5345C76.3318 22.8445 76.8368 22.3045 77.4768 21.9145C78.1268 21.5245 78.8518 21.3295 79.6518 21.3295C80.3818 21.3295 81.0118 21.4745 81.5418 21.7645C82.0718 22.0545 82.4568 22.4045 82.6968 22.8145V21.5395H84.2418V30.1195H82.6968V28.8445C82.4568 29.2545 82.0718 29.6045 81.5418 29.8945C81.0118 30.1845 80.3818 30.3295 79.6518 30.3295ZM79.7868 28.9645C80.3568 28.9645 80.8618 28.8295 81.3018 28.5595C81.7518 28.2795 82.1018 27.9045 82.3518 27.4345C82.6018 26.9545 82.7268 26.4195 82.7268 25.8295C82.7268 25.2395 82.6018 24.7095 82.3518 24.2395C82.1018 23.7595 81.7518 23.3845 81.3018 23.1145C80.8618 22.8345 80.3568 22.6945 79.7868 22.6945C79.2268 22.6945 78.7268 22.8295 78.2868 23.0995C77.8568 23.3695 77.5218 23.7445 77.2818 24.2245C77.0418 24.7045 76.9218 25.2395 76.9218 25.8295C76.9218 26.4195 77.0418 26.9545 77.2818 27.4345C77.5218 27.9145 77.8568 28.2895 78.2868 28.5595C78.7268 28.8295 79.2268 28.9645 79.7868 28.9645ZM91.1674 22.9045H89.2624V30.1195H87.7174V22.9045H85.8124V21.5395H87.7174V18.9295H89.2624V21.5395H91.1674V22.9045ZM93.5261 17.5795C93.8261 17.5795 94.0711 17.6795 94.2611 17.8795C94.4611 18.0695 94.5611 18.3095 94.5611 18.5995C94.5611 18.8895 94.4611 19.1345 94.2611 19.3345C94.0711 19.5245 93.8261 19.6195 93.5261 19.6195C93.2361 19.6195 92.9911 19.5245 92.7911 19.3345C92.6011 19.1345 92.5061 18.8895 92.5061 18.5995C92.5061 18.3095 92.6011 18.0695 92.7911 17.8795C92.9911 17.6795 93.2361 17.5795 93.5261 17.5795ZM92.7611 30.1345V21.5395H94.3061V30.1345H92.7611ZM100.676 21.3295C101.506 21.3295 102.256 21.5245 102.926 21.9145C103.596 22.3045 104.116 22.8445 104.486 23.5345C104.866 24.2145 105.056 24.9795 105.056 25.8295C105.056 26.6795 104.866 27.4495 104.486 28.1395C104.116 28.8195 103.596 29.3545 102.926 29.7445C102.256 30.1345 101.506 30.3295 100.676 30.3295C99.8359 30.3295 99.0809 30.1345 98.4109 29.7445C97.7509 29.3545 97.2309 28.8195 96.8509 28.1395C96.4709 27.4495 96.2809 26.6795 96.2809 25.8295C96.2809 24.9795 96.4709 24.2145 96.8509 23.5345C97.2309 22.8445 97.7509 22.3045 98.4109 21.9145C99.0809 21.5245 99.8359 21.3295 100.676 21.3295ZM100.676 22.6945C100.116 22.6945 99.6159 22.8345 99.1759 23.1145C98.7459 23.3845 98.4059 23.7595 98.1559 24.2395C97.9159 24.7095 97.7959 25.2395 97.7959 25.8295C97.7959 26.4195 97.9159 26.9545 98.1559 27.4345C98.4059 27.9045 98.7459 28.2795 99.1759 28.5595C99.6159 28.8295 100.116 28.9645 100.676 28.9645C101.226 28.9645 101.721 28.8295 102.161 28.5595C102.601 28.2795 102.941 27.9045 103.181 27.4345C103.421 26.9545 103.541 26.4195 103.541 25.8295C103.541 25.2395 103.421 24.7095 103.181 24.2395C102.941 23.7595 102.601 23.3845 102.161 23.1145C101.721 22.8345 101.226 22.6945 100.676 22.6945ZM108.574 21.5395V22.8445C108.794 22.4545 109.154 22.1045 109.654 21.7945C110.164 21.4845 110.774 21.3295 111.484 21.3295C112.154 21.3295 112.749 21.4845 113.269 21.7945C113.799 22.1045 114.209 22.5445 114.499 23.1145C114.789 23.6745 114.934 24.3345 114.934 25.0945V30.1195H113.389V25.3645C113.389 24.5045 113.189 23.8445 112.789 23.3845C112.399 22.9145 111.854 22.6795 111.154 22.6795C110.664 22.6795 110.224 22.8195 109.834 23.0995C109.444 23.3695 109.134 23.7345 108.904 24.1945C108.684 24.6545 108.574 25.1495 108.574 25.6795V30.1195H107.029V21.5395H108.574Z" fill="#1A1A1A"/>
</svg>
