<svg width="147" height="40" viewBox="0 0 147 40" fill="none" xmlns="http://www.w3.org/2000/svg">
<path d="M0.820579 30.6123V1.52139H4.34331V27.4873H17.866V30.6123H0.820579ZM22.866 30.6123V8.79412H26.2183V30.6123H22.866ZM24.5706 5.15776C23.2638 5.15776 22.1842 4.13503 22.1842 2.88503C22.1842 1.63503 23.2638 0.612305 24.5706 0.612305C25.8774 0.612305 26.9569 1.63503 26.9569 2.88503C26.9569 4.13503 25.8774 5.15776 24.5706 5.15776ZM41.165 39.2487C36.2929 39.2487 33.6082 37.1606 32.2446 34.8737L34.915 32.9987C35.8099 34.2061 37.202 36.2941 41.165 36.2941C44.6878 36.2941 47.2446 34.6464 47.2446 31.01V26.5782H46.9605C46.2219 27.7714 44.8582 30.2714 40.5969 30.2714C35.3128 30.2714 31.3355 26.4078 31.3355 19.5896C31.3355 12.885 35.1423 8.51003 40.6537 8.51003C44.915 8.51003 46.2787 11.1237 47.0173 12.26H47.3582V8.79412H50.5969V31.2373C50.5969 36.8623 46.3923 39.2487 41.165 39.2487ZM41.0514 27.26C45.0855 27.26 47.3014 24.3623 47.3014 19.5328C47.3014 14.8168 45.1423 11.5214 41.0514 11.5214C36.79 11.5214 34.6878 15.1009 34.6878 19.5328C34.6878 24.0782 36.8469 27.26 41.0514 27.26ZM60.0855 17.4873V30.6123H56.7332V1.52139H60.0855V12.2032H60.3696C61.3923 9.94469 63.3525 8.51003 66.79 8.51003C71.2503 8.51003 74.2332 11.1379 74.2332 16.7487V30.6123H70.8809V16.9759C70.8809 13.51 68.9775 11.5214 65.8241 11.5214C62.5145 11.5214 60.0855 13.6805 60.0855 17.4873ZM89.8547 8.79412V11.635H85.1956V24.3623C85.1956 27.2032 86.616 27.6578 88.0933 27.6578C88.8319 27.6578 89.2865 27.5441 89.5706 27.4873L90.2524 30.4987C89.7979 30.6691 89.0024 30.8964 87.7524 30.8964C84.9115 30.8964 81.8433 29.0782 81.8433 25.2714V11.635H78.5479V8.79412H81.8433V3.56685H85.1956V8.79412H89.8547ZM94.8973 30.6123V8.79412H98.2496V30.6123H94.8973ZM96.6018 5.15776C95.295 5.15776 94.2155 4.13503 94.2155 2.88503C94.2155 1.63503 95.295 0.612305 96.6018 0.612305C97.9086 0.612305 98.9882 1.63503 98.9882 2.88503C98.9882 4.13503 97.9086 5.15776 96.6018 5.15776ZM107.742 17.4873V30.6123H104.389V8.79412H107.628V12.2032H107.912C108.935 9.9873 110.98 8.51003 114.276 8.51003C118.693 8.51003 121.662 11.1805 121.662 16.7487V30.6123H118.31V16.9759C118.31 13.5526 116.421 11.5214 113.31 11.5214C110.1 11.5214 107.742 13.6805 107.742 17.4873ZM136.595 39.2487C131.723 39.2487 129.038 37.1606 127.674 34.8737L130.345 32.9987C131.24 34.2061 132.632 36.2941 136.595 36.2941C140.117 36.2941 142.674 34.6464 142.674 31.01V26.5782H142.39C141.652 27.7714 140.288 30.2714 136.027 30.2714C130.742 30.2714 126.765 26.4078 126.765 19.5896C126.765 12.885 130.572 8.51003 136.083 8.51003C140.345 8.51003 141.708 11.1237 142.447 12.26H142.788V8.79412H146.027V31.2373C146.027 36.8623 141.822 39.2487 136.595 39.2487ZM136.481 27.26C140.515 27.26 142.731 24.3623 142.731 19.5328C142.731 14.8168 140.572 11.5214 136.481 11.5214C132.22 11.5214 130.117 15.1009 130.117 19.5328C130.117 24.0782 132.277 27.26 136.481 27.26Z" fill="#1A1A1A"/>
</svg>
