<svg width="46" height="46" viewBox="0 0 46 46" fill="none" xmlns="http://www.w3.org/2000/svg">
<rect x="0.425781" y="0.652344" width="45.2676" height="44.7925" rx="22.3962" fill="url(#paint0_linear_2993_507)"/>
<g filter="url(#filter0_f_2993_507)">
<path d="M16.9348 8.8822C20.0423 8.23005 21.7854 11.7133 21.6491 13.2342C21.3579 16.4854 19.5943 18.4928 17.8445 18.9087C14.3016 19.7509 12.5904 17.9488 12.5904 15.2327C12.5904 13.586 12.6174 9.78824 16.9348 8.8822Z" fill="white"/>
</g>
<g filter="url(#filter1_f_2993_507)">
<path d="M22.3825 23.2557C23.1697 21.8899 25.0356 22.3977 25.5533 22.9515C26.6601 24.1353 26.8193 25.4524 26.3941 26.2376C25.5331 27.8275 24.2999 27.8643 23.2947 26.9653C22.6853 26.4203 21.2888 25.1534 22.3825 23.2557Z" fill="#E8E8E8"/>
</g>
<g filter="url(#filter2_f_2993_507)">
<path d="M3.82753 18.0292C6.12256 7.41569 14.4723 3.66704 17.9382 3.10919C25.8743 1.48376 32.9931 5.64373 35.5033 8.03412C37.5647 9.99711 36.6063 11.3801 23.7934 12.2406C10.9806 13.1012 10.8052 28.3762 12.3191 35.9062C8.77328 34.4719 1.5325 28.6427 3.82753 18.0292Z" fill="url(#paint1_linear_2993_507)"/>
</g>
<g filter="url(#filter3_f_2993_507)">
<path d="M42.384 27.4613C39.2199 38.3045 30.2798 41.5782 26.6424 41.9014C18.2881 43.0025 11.2085 38.1611 8.78029 35.4957C6.78622 33.3069 2.76267 26.625 16.1207 26.6772C29.4787 26.7293 35.9073 16.2106 34.8918 8.28591C38.4652 10.0356 45.5482 16.6181 42.384 27.4613Z" fill="url(#paint2_linear_2993_507)"/>
</g>
<defs>
<filter id="filter0_f_2993_507" x="9.39082" y="5.60273" width="15.4654" height="16.7145" filterUnits="userSpaceOnUse" color-interpolation-filters="sRGB">
<feFlood flood-opacity="0" result="BackgroundImageFix"/>
<feBlend mode="normal" in="SourceGraphic" in2="BackgroundImageFix" result="shape"/>
<feGaussianBlur stdDeviation="1.6" result="effect1_foregroundBlur_2993_507"/>
</filter>
<filter id="filter1_f_2993_507" x="17.9766" y="18.3809" width="12.6348" height="13.1758" filterUnits="userSpaceOnUse" color-interpolation-filters="sRGB">
<feFlood flood-opacity="0" result="BackgroundImageFix"/>
<feBlend mode="normal" in="SourceGraphic" in2="BackgroundImageFix" result="shape"/>
<feGaussianBlur stdDeviation="2" result="effect1_foregroundBlur_2993_507"/>
</filter>
<filter id="filter2_f_2993_507" x="2.48672" y="1.84219" width="34.758" height="34.9641" filterUnits="userSpaceOnUse" color-interpolation-filters="sRGB">
<feFlood flood-opacity="0" result="BackgroundImageFix"/>
<feBlend mode="normal" in="SourceGraphic" in2="BackgroundImageFix" result="shape"/>
<feGaussianBlur stdDeviation="0.45" result="effect1_foregroundBlur_2993_507"/>
</filter>
<filter id="filter3_f_2993_507" x="4.52305" y="6.18516" width="40.7547" height="37.9773" filterUnits="userSpaceOnUse" color-interpolation-filters="sRGB">
<feFlood flood-opacity="0" result="BackgroundImageFix"/>
<feBlend mode="normal" in="SourceGraphic" in2="BackgroundImageFix" result="shape"/>
<feGaussianBlur stdDeviation="1.05" result="effect1_foregroundBlur_2993_507"/>
</filter>
<linearGradient id="paint0_linear_2993_507" x1="10.2758" y1="4.29473" x2="38.3241" y2="41.0125" gradientUnits="userSpaceOnUse">
<stop stop-color="#DADADA"/>
<stop offset="1" stop-color="#898989"/>
</linearGradient>
<linearGradient id="paint1_linear_2993_507" x1="8.89852" y1="8.17971" x2="15.2924" y2="15.529" gradientUnits="userSpaceOnUse">
<stop stop-color="white"/>
<stop offset="1" stop-color="white" stop-opacity="0"/>
</linearGradient>
<linearGradient id="paint2_linear_2993_507" x1="35.3652" y1="37.1301" x2="27.9641" y2="27.3257" gradientUnits="userSpaceOnUse">
<stop stop-color="#808080"/>
<stop offset="1" stop-color="#808080" stop-opacity="0"/>
</linearGradient>
</defs>
</svg>
