<svg width="139" height="18" viewBox="0 0 139 18" fill="none" xmlns="http://www.w3.org/2000/svg">
<path d="M8.56973 13.6982H0.489727V11.9182L8.08973 1.2982H10.5697V11.9182H13.1897V13.6982H10.5697V17.3182H8.56973V13.6982ZM8.56973 11.9182V3.5982L2.64973 11.9182H8.56973ZM18.703 7.1782C19.2363 6.92487 19.8097 6.7982 20.423 6.7982C21.463 6.7982 22.4097 7.02487 23.263 7.4782C24.1297 7.93154 24.8097 8.56487 25.303 9.3782C25.8097 10.1915 26.063 11.1315 26.063 12.1982C26.063 13.2782 25.803 14.2382 25.283 15.0782C24.7763 15.9049 24.083 16.5449 23.203 16.9982C22.323 17.4515 21.343 17.6782 20.263 17.6782C19.183 17.6782 18.1963 17.4515 17.303 16.9982C16.423 16.5449 15.723 15.9049 15.203 15.0782C14.6963 14.2382 14.443 13.2782 14.443 12.1982C14.443 11.4115 14.5697 10.6782 14.823 9.9982C15.0763 9.3182 15.4697 8.58487 16.003 7.7982L20.343 1.2982H22.743L18.703 7.1782ZM20.263 15.8582C21.0097 15.8582 21.663 15.6982 22.223 15.3782C22.7963 15.0582 23.2363 14.6249 23.543 14.0782C23.8497 13.5182 24.003 12.8982 24.003 12.2182C24.003 11.5249 23.8497 10.9049 23.543 10.3582C23.2363 9.7982 22.7963 9.3582 22.223 9.0382C21.663 8.7182 21.0097 8.5582 20.263 8.5582C19.503 8.5582 18.8363 8.7182 18.263 9.0382C17.703 9.3582 17.2697 9.7982 16.963 10.3582C16.6563 10.9182 16.503 11.5382 16.503 12.2182C16.503 12.8982 16.6563 13.5182 16.963 14.0782C17.2697 14.6249 17.703 15.0582 18.263 15.3782C18.8363 15.6982 19.503 15.8582 20.263 15.8582ZM38.9489 13.4382C38.6423 14.6915 37.9956 15.6982 37.0089 16.4582C36.0356 17.2182 34.8889 17.5982 33.5689 17.5982C32.4489 17.5982 31.4423 17.3382 30.5489 16.8182C29.6556 16.2982 28.9556 15.5849 28.4489 14.6782C27.9423 13.7582 27.6889 12.7315 27.6889 11.5982C27.6889 10.4649 27.9356 9.44487 28.4289 8.5382C28.9356 7.6182 29.6356 6.8982 30.5289 6.3782C31.4223 5.8582 32.4223 5.5982 33.5289 5.5982C34.4089 5.5982 35.2223 5.7782 35.9689 6.1382C36.7289 6.48487 37.3623 6.97154 37.8689 7.5982C38.3756 8.22487 38.7223 8.93154 38.9089 9.7182H36.8089C36.5689 9.02487 36.1623 8.47154 35.5889 8.0582C35.0156 7.63154 34.3289 7.4182 33.5289 7.4182C32.7823 7.4182 32.1156 7.60487 31.5289 7.9782C30.9556 8.3382 30.5089 8.8382 30.1889 9.4782C29.8689 10.1049 29.7089 10.8115 29.7089 11.5982C29.7089 12.3849 29.8689 13.0982 30.1889 13.7382C30.5089 14.3649 30.9556 14.8649 31.5289 15.2382C32.1156 15.5982 32.7823 15.7782 33.5289 15.7782C34.3289 15.7782 35.0223 15.5649 35.6089 15.1382C36.1956 14.7115 36.6089 14.1449 36.8489 13.4382H38.9489ZM43.5325 5.8782V7.4982C43.8659 6.96487 44.3059 6.5182 44.8525 6.1582C45.4125 5.78487 46.1259 5.5982 46.9925 5.5982C47.8325 5.5982 48.5659 5.81154 49.1925 6.2382C49.8192 6.66487 50.2725 7.25154 50.5525 7.9982C50.8992 7.26487 51.4259 6.68487 52.1325 6.2582C52.8392 5.8182 53.6659 5.5982 54.6125 5.5982C55.4259 5.5982 56.1459 5.7982 56.7725 6.1982C57.4125 6.58487 57.9125 7.1382 58.2725 7.8582C58.6325 8.5782 58.8125 9.41154 58.8125 10.3582V17.3182H56.7525V10.6982C56.7525 9.67154 56.5192 8.86487 56.0525 8.2782C55.5859 7.69154 54.9459 7.3982 54.1325 7.3982C53.5725 7.3982 53.0659 7.56487 52.6125 7.8982C52.1592 8.23154 51.8059 8.68487 51.5525 9.2582C51.2992 9.83154 51.1725 10.4649 51.1725 11.1582V17.3182H49.1125V10.7782C49.1125 9.71154 48.8792 8.88487 48.4125 8.2982C47.9459 7.6982 47.3059 7.3982 46.4925 7.3982C45.9325 7.3982 45.4259 7.56487 44.9725 7.8982C44.5325 8.23154 44.1792 8.68487 43.9125 9.2582C43.6592 9.83154 43.5325 10.4582 43.5325 11.1382V17.3182H41.4725V5.8782H43.5325ZM70.9314 4.6382L73.3514 5.7182L72.5514 7.0982L70.4114 5.5382L70.6714 8.1982H69.0714L69.3314 5.5582L67.1714 7.0982L66.3914 5.7182L68.8114 4.6382L66.3914 3.5382L67.1914 2.1582L69.3314 3.7182L69.0714 1.0582H70.6714L70.4114 3.7182L72.5714 2.1782L73.3514 3.5382L70.9314 4.6382ZM80.5982 15.9582L86.2782 10.2582C87.2915 9.23154 88.0182 8.37154 88.4582 7.6782C88.8982 6.97154 89.1182 6.33154 89.1182 5.7582C89.1182 4.82487 88.8248 4.0982 88.2382 3.5782C87.6515 3.04487 86.8515 2.7782 85.8382 2.7782C85.1448 2.7782 84.5448 2.9382 84.0382 3.2582C83.5448 3.56487 83.1648 3.9782 82.8982 4.4982C82.6448 5.0182 82.5182 5.58487 82.5182 6.1982H80.4182C80.4182 5.22487 80.6382 4.3382 81.0782 3.5382C81.5315 2.7382 82.1715 2.10487 82.9982 1.6382C83.8248 1.1582 84.7782 0.918202 85.8582 0.918202C86.9248 0.918202 87.8582 1.1182 88.6582 1.5182C89.4715 1.9182 90.0982 2.48487 90.5382 3.2182C90.9782 3.95154 91.1982 4.79154 91.1982 5.7382C91.1982 6.5782 90.9448 7.41154 90.4382 8.2382C89.9315 9.06487 89.0582 10.1115 87.8182 11.3782L83.6182 15.4982H91.7382V17.3182H80.5982V15.9582ZM99.6832 17.6782C98.5365 17.6782 97.5165 17.3649 96.6232 16.7382C95.7298 16.1115 95.0298 15.1715 94.5232 13.9182C94.0165 12.6515 93.7632 11.1115 93.7632 9.2982C93.7632 7.48487 94.0165 5.95154 94.5232 4.6982C95.0298 3.43154 95.7298 2.48487 96.6232 1.8582C97.5165 1.23154 98.5365 0.918202 99.6832 0.918202C100.83 0.918202 101.843 1.23154 102.723 1.8582C103.616 2.48487 104.316 3.43154 104.823 4.6982C105.33 5.95154 105.583 7.48487 105.583 9.2982C105.583 11.1115 105.33 12.6515 104.823 13.9182C104.316 15.1715 103.616 16.1115 102.723 16.7382C101.843 17.3649 100.83 17.6782 99.6832 17.6782ZM99.6832 15.8182C100.416 15.8182 101.076 15.5715 101.663 15.0782C102.25 14.5849 102.71 13.8515 103.043 12.8782C103.39 11.9049 103.563 10.7115 103.563 9.2982C103.563 7.8982 103.39 6.71154 103.043 5.7382C102.71 4.75154 102.25 4.01154 101.663 3.5182C101.076 3.02487 100.416 2.7782 99.6832 2.7782C98.9365 2.7782 98.2698 3.02487 97.6832 3.5182C97.0965 4.01154 96.6298 4.75154 96.2832 5.7382C95.9498 6.71154 95.7832 7.8982 95.7832 9.2982C95.7832 10.7115 95.9498 11.9049 96.2832 12.8782C96.6298 13.8515 97.0965 14.5849 97.6832 15.0782C98.2698 15.5715 98.9365 15.8182 99.6832 15.8182ZM118.89 13.4382C118.584 14.6915 117.937 15.6982 116.95 16.4582C115.977 17.2182 114.83 17.5982 113.51 17.5982C112.39 17.5982 111.384 17.3382 110.49 16.8182C109.597 16.2982 108.897 15.5849 108.39 14.6782C107.884 13.7582 107.63 12.7315 107.63 11.5982C107.63 10.4649 107.877 9.44487 108.37 8.5382C108.877 7.6182 109.577 6.8982 110.47 6.3782C111.364 5.8582 112.364 5.5982 113.47 5.5982C114.35 5.5982 115.164 5.7782 115.91 6.1382C116.67 6.48487 117.304 6.97154 117.81 7.5982C118.317 8.22487 118.664 8.93154 118.85 9.7182H116.75C116.51 9.02487 116.104 8.47154 115.53 8.0582C114.957 7.63154 114.27 7.4182 113.47 7.4182C112.724 7.4182 112.057 7.60487 111.47 7.9782C110.897 8.3382 110.45 8.8382 110.13 9.4782C109.81 10.1049 109.65 10.8115 109.65 11.5982C109.65 12.3849 109.81 13.0982 110.13 13.7382C110.45 14.3649 110.897 14.8649 111.47 15.2382C112.057 15.5982 112.724 15.7782 113.47 15.7782C114.27 15.7782 114.964 15.5649 115.55 15.1382C116.137 14.7115 116.55 14.1449 116.79 13.4382H118.89ZM123.474 5.8782V7.4982C123.807 6.96487 124.247 6.5182 124.794 6.1582C125.354 5.78487 126.067 5.5982 126.934 5.5982C127.774 5.5982 128.507 5.81154 129.134 6.2382C129.761 6.66487 130.214 7.25154 130.494 7.9982C130.841 7.26487 131.367 6.68487 132.074 6.2582C132.781 5.8182 133.607 5.5982 134.554 5.5982C135.367 5.5982 136.087 5.7982 136.714 6.1982C137.354 6.58487 137.854 7.1382 138.214 7.8582C138.574 8.5782 138.754 9.41154 138.754 10.3582V17.3182H136.694V10.6982C136.694 9.67154 136.461 8.86487 135.994 8.2782C135.527 7.69154 134.887 7.3982 134.074 7.3982C133.514 7.3982 133.007 7.56487 132.554 7.8982C132.101 8.23154 131.747 8.68487 131.494 9.2582C131.241 9.83154 131.114 10.4649 131.114 11.1582V17.3182H129.054V10.7782C129.054 9.71154 128.821 8.88487 128.354 8.2982C127.887 7.6982 127.247 7.3982 126.434 7.3982C125.874 7.3982 125.367 7.56487 124.914 7.8982C124.474 8.23154 124.121 8.68487 123.854 9.2582C123.601 9.83154 123.474 10.4582 123.474 11.1382V17.3182H121.414V5.8782H123.474Z" fill="#1A1A1A"/>
</svg>
